<svg version="1.2" xmlns="http://www.w3.org/2000/svg" viewBox="0 0 1564 391" width="1564" height="391">
	<title>airtel-svg</title>
	<style>
		.s0 { fill: #e90000 } 
	</style>
	<path id="Layer" fill-rule="evenodd" class="s0" d="m100.9 385.7c-15.9 0-27.4-5.4-34.3-16.1-17.3-26.5 0.4-59.8 8.8-72.9 5.9-9 14.6-18.6 22.8-25 8.2-6.3 20.7-14 33.9-14h1c13.7 0.4 28.4 9.2 29 23.3 0.5 10.6-7.1 18-12.6 23.4l-1 1c-4.5 4.3-8.9 8.3-13.2 12.3-7.5 6.8-14.6 13.3-21.6 21.4 0 0-19.2 27.2 12.4 18.9 1.8-0.5 3.7-1.3 5.9-2.1l1.1-0.3c7.5-2.8 14.6-6.7 20.9-10.1l1.3-0.6c13.5-7.2 28.7-17.8 45.2-31.5 32.3-27.1 55.7-55.2 69.2-83.9 9.9-21 11.7-43.9 4.4-58.5-4.1-8.3-11.2-13.6-20.8-15.8-2.9-0.7-6.2-1-9.4-1-6.5 0-13.7 1.3-21.9 4.1-31.4 10.7-59.4 29-86.4 46.7l-3.3 2.1c-3.3 2.3-6.6 4.4-9.9 6.5-1.2 0.7-2.4 1.6-3.6 2.4-19.1 11.3-46.9 24.8-72.2 24.8-12.4 0-23-3.3-31.4-9.7-9.5-7.2-14.5-17-15.1-28.9-1.5-28 22.4-61.1 43.2-80.8q3.4-3 7-5.8 3.5-2.8 7.1-5.6 3.6-2.7 7.2-5.3 3.7-2.6 7.5-5.1 0.5-0.3 1-0.6 0.5-0.3 0.9-0.6 0.5-0.3 1-0.6 0.5-0.3 0.9-0.6 0.6-0.4 1.1-0.8 0.6-0.3 1.1-0.6 0.6-0.4 1.1-0.7 0.6-0.4 1.2-0.7l0.1-0.2 1.6-1c49.5-31.7 96.2-47.8 138.8-47.8 46.6 0 71.3 19.4 73.6 21.2 19.8 13.7 33.4 31.8 40.4 53.7 9.5 30.2 1.7 62.3-3.8 78.8-13.7 40.6-37.5 73.9-77.2 107.8-17.9 15.3-35.3 28.2-53.2 39.2l-4.5 2.7c-16.9 10.5-34.4 21.3-56.4 29-14.8 5.2-27.9 7.9-38.9 7.9zm662.3-384.5q4.4 0.9 8.5 2.6 4.1 1.7 7.8 4.2 3.7 2.5 6.9 5.7 3 3 5.4 6.6 2.3 3.6 3.9 7.6 1.6 4 2.4 8.3 0.7 4.2 0.6 8.5c0 24.4-19.8 43.7-45 43.7-25.1 0-44.9-19.4-44.9-44 0-24.3 20.5-44 45.6-44q4.4 0 8.8 0.8zm-44.9 120.5l70.7-11.3v275h-70.7c0 0 0-263.7 0-263.7zm-52.9 78.8v146.8c-28.2 27.6-69.9 43.2-119.1 43.2-61 0-104.9-44.3-104.9-95.8 1.2-54.1 43-89 110.3-89h42v-14c0-24-10.5-35.5-36.1-36.5-21.1-0.9-44.7 5.6-66.7 15.3l-10.8 4.9-18.9-41.4 7.9-4c31.2-15.2 61.5-24.5 95.3-24.5 48.8 0 101 23.4 101 95zm-71.8 133v-81.1h-28.4c-35.4 0-48.5 23.3-49 43.9-0.5 24.8 12.3 46.1 40.7 46.1 15.5 0 29.7-4.1 36.7-8.9zm791.6-15l20 40c0 0-22.6 16.1-53.2 25.2-15.9 4.9-33.3 7.3-50.1 7.3-30.7 0-57.1-8.5-76.1-24-31.4-25.5-48.5-70.2-48-114.6 0.6-70.1 32.9-144.8 116-144.8 74.5 0 108.5 44.4 109.8 141.9v6.9h-152.4c-1.5 29.2 4.1 56.8 16.8 70.3 8.6 9 21.7 15.2 41 15.2 42 0 72.5-20.8 76.2-23.4zm-131.9-105.5h76.5c0-20.7-4.7-54-36.1-54-27.9 0.1-39.2 27.4-40.4 54zm-286.1-106.9c21.4 0 39.8 4.7 47.6 8.4l-19.9 43.7c0 0-11.5-3.5-29-2.8-18.9 0.7-38.9 8.6-48.3 17.5v212.7h-72.1l0.1-225.9c42.9-44.6 90.5-53.5 121.6-53.6zm596.8 236.1v43.5c0 0-15 2.7-27 2.7-56.3 0-90.1-26-90.1-86.6v-255.8l70.9-11.8v272.1c0 21 6.2 33.6 35.6 35.8 4 0.3 10.7 0.1 10.6 0.1zm-457.7-307.6v75.8h46.6v50.8h-46.6v144.7c0 18.9 5.9 35.3 36.4 36.3 4 0.2 9.4 0.2 10.2 0.2v42.8c0 0-13.1 2.6-27 2.6-57.7 0-92.1-27.2-92.1-84.9v-257l72.4-11.3z"/>
</svg>