<?xml version="1.0" encoding="UTF-8"?>
<svg id="Layer_1" data-name="Layer 1" xmlns="http://www.w3.org/2000/svg" xmlns:xlink="http://www.w3.org/1999/xlink" viewBox="0 0 174.15 49.44">
  <defs>
    <style>
      .cls-1 {
        fill: url(#linear-gradient);
      }

      .cls-1, .cls-2, .cls-3, .cls-4, .cls-5, .cls-6, .cls-7, .cls-8 {
        stroke-width: 0px;
      }

      .cls-2 {
        fill: #000;
      }

      .cls-3 {
        fill: url(#linear-gradient-5);
      }

      .cls-4 {
        fill: url(#linear-gradient-2);
      }

      .cls-5 {
        fill: url(#linear-gradient-3);
      }

      .cls-6, .cls-8 {
        fill: #fff;
      }

      .cls-7 {
        fill: url(#linear-gradient-4);
      }

      .cls-8 {
        isolation: isolate;
        opacity: .4;
      }
    </style>
    <linearGradient id="linear-gradient" x1="28.04" y1="69.66" x2="12.36" y2="57.98" gradientTransform="translate(0 81.03) scale(1 -1)" gradientUnits="userSpaceOnUse">
      <stop offset="0" stop-color="#1ea1db"/>
      <stop offset="1" stop-color="#40aae0"/>
    </linearGradient>
    <linearGradient id="linear-gradient-2" x1="17.31" y1="58.67" x2="17.51" y2="44.42" gradientTransform="translate(0 81.03) scale(1 -1)" gradientUnits="userSpaceOnUse">
      <stop offset="0" stop-color="#166d39"/>
      <stop offset="1" stop-color="#66ba46"/>
    </linearGradient>
    <linearGradient id="linear-gradient-3" x1="14.46" y1="38.09" x2="23.67" y2="38.09" gradientUnits="userSpaceOnUse">
      <stop offset="0" stop-color="#1d2d1b"/>
      <stop offset="1" stop-color="#286331"/>
    </linearGradient>
    <linearGradient id="linear-gradient-4" x1="22.4" y1="60.52" x2="45.32" y2="52.35" gradientTransform="translate(0 81.03) scale(1 -1)" gradientUnits="userSpaceOnUse">
      <stop offset="0" stop-color="#263d87"/>
      <stop offset="1" stop-color="#0097cd"/>
      <stop offset="1" stop-color="#283a84"/>
    </linearGradient>
    <linearGradient id="linear-gradient-5" x1="43.51" y1="41.45" x2="43.61" y2="34.71" gradientTransform="translate(0 81.03) scale(1 -1)" gradientUnits="userSpaceOnUse">
      <stop offset="0" stop-color="#1f7e8b"/>
      <stop offset="1" stop-color="#42c2ee"/>
    </linearGradient>
  </defs>
  <path class="cls-2" d="M69.29,24.55l.08.24c-2.06.89-3.95,1.34-5.66,1.34s-3.05-.39-4.03-1.17c-.97-.78-1.46-1.86-1.46-3.22,0-1.63.79-2.82,2.36-3.55.58-.26,1.75-.6,3.51-1,.89-.19,1.34-.56,1.34-1.11,0-.74-.6-1.11-1.81-1.11-.97,0-2.05.29-3.24.86-.65.31-1.38-.22-1.26-.93l.3-1.83c.05-.31.26-.57.55-.68,1.43-.54,2.79-.81,4.07-.81,1.57,0,2.81.39,3.7,1.16.56.47.93,1.04,1.1,1.68.11.42.16,1.11.16,2.05v6.13c0,.72.1,1.37.29,1.95ZM65.52,19.52c-.14.05-.37.13-.68.24-.19.05-.65.18-1.36.39-.96.28-1.44.72-1.44,1.32,0,.37.16.68.47.92.31.25.71.37,1.18.37.52,0,1.14-.18,1.86-.53v-.11s0-.11-.03-.24v-2.37Z"/>
  <path class="cls-2" d="M71.83,23.61v-15.41h3.68v17.58h-1.52c-1.2,0-2.16-.97-2.16-2.17Z"/>
  <path class="cls-2" d="M95.2,12.85c1.01,0,1.9.2,2.68.6.78.4,1.39,1.02,1.83,1.85.44.83.66,1.89.66,3.19v7.3h-3.68v-6.73c0-1.03-.21-1.78-.63-2.27-.42-.49-1-.73-1.76-.73-.55,0-1.04.12-1.46.37-.42.25-.75.61-.98,1.09-.23.48-.34,1.11-.34,1.88v6.4h-3.68v-6.73c0-1.03-.21-1.78-.63-2.27-.42-.49-1.02-.73-1.81-.73-.53,0-1.01.12-1.44.37-.42.25-.76.61-.99,1.09-.24.48-.35,1.11-.35,1.88v6.4h-3.68v-10.56c0-1.21.98-2.19,2.18-2.19h1.34v3.46l-.66-1c.42-.87,1.05-1.53,1.86-1.98.82-.45,1.74-.68,2.76-.68,1.16,0,2.19.3,3.07.89.88.59,1.46,1.5,1.75,2.71l-1.3-.36c.42-.98,1.1-1.77,2.03-2.36.93-.59,2.01-.89,3.23-.89Z"/>
  <path class="cls-2" d="M109.05,25.98c-1.07,0-2.01-.21-2.83-.62-.82-.41-1.46-1.04-1.91-1.9-.46-.85-.68-1.93-.68-3.22v-7.2h3.68v6.63c0,1.07.22,1.86.67,2.36.45.5,1.08.75,1.9.75.57,0,1.07-.13,1.51-.38.44-.25.79-.63,1.05-1.14.26-.51.39-1.14.39-1.9v-6.33h3.66v10.4c0,1.29-1.05,2.34-2.34,2.34h-1.16v-3.53l.64,1.04c-.44.88-1.07,1.55-1.89,2-.82.45-1.72.68-2.69.68Z"/>
  <path class="cls-2" d="M125.32,25.98c-1.2,0-2.27-.27-3.23-.82-.96-.54-1.72-1.3-2.27-2.27-.55-.97-.83-2.13-.83-3.47s.28-2.48.83-3.46c.55-.98,1.31-1.74,2.27-2.29.96-.54,2.04-.82,3.23-.82,1.12,0,2.07.24,2.87.71.79.47,1.4,1.19,1.83,2.16.42.96.64,2.2.64,3.7s-.22,2.71-.66,3.68c-.44.97-1.06,1.69-1.86,2.17s-1.74.71-2.81.71ZM125.93,22.94c.61,0,1.16-.14,1.65-.43.49-.28.88-.69,1.17-1.22.29-.53.44-1.16.44-1.88s-.15-1.37-.44-1.9c-.29-.52-.68-.92-1.17-1.2-.49-.28-1.04-.41-1.65-.41s-1.14.14-1.63.41c-.49.28-.88.68-1.17,1.2-.29.52-.44,1.15-.44,1.9s.15,1.35.44,1.88c.29.53.68.94,1.17,1.22.49.28,1.03.43,1.63.43ZM129.12,30.38v-7.18l.24-3.77-.07-3.79v-2.61h0c1.94,0,3.52,1.58,3.52,3.53v13.81h-3.68Z"/>
  <path class="cls-2" d="M142.5,25.98c-1.45,0-2.71-.28-3.8-.85-1.09-.57-1.93-1.35-2.53-2.33-.6-.99-.9-2.11-.9-3.38s.29-2.39.86-3.39c.57-1,1.38-1.77,2.41-2.33,1.03-.56,2.19-.84,3.48-.84s2.36.27,3.36.81c1,.54,1.79,1.3,2.37,2.27.58.98.87,2.16.87,3.53,0,.14,0,.3-.02.49-.02.18-.03.35-.05.51h-10.31v-2.16h8.38l-1.44.64c.02-.66-.11-1.24-.38-1.73-.27-.49-.64-.87-1.11-1.15-.47-.28-1.02-.41-1.65-.41s-1.18.14-1.66.41c-.48.28-.85.66-1.12,1.16-.27.5-.4,1.09-.4,1.77v.57c0,.71.16,1.33.47,1.85.31.52.75.92,1.3,1.2.55.28,1.21.41,1.98.41.66,0,1.25-.1,1.76-.31,0,0,.01,0,.02,0,.96-.39,2.05-.2,2.75.57l.59.65c-.58.66-1.31,1.17-2.2,1.53-.88.35-1.9.53-3.04.53Z"/>
  <path class="cls-2" d="M157.39,25.98c-1.45,0-2.71-.28-3.8-.85-1.09-.57-1.93-1.35-2.53-2.33-.6-.99-.9-2.11-.9-3.38s.29-2.39.86-3.39c.57-1,1.38-1.77,2.41-2.33,1.03-.56,2.19-.84,3.48-.84s2.36.27,3.36.81c1,.54,1.79,1.3,2.37,2.27.58.98.87,2.16.87,3.53,0,.14,0,.3-.02.49-.02.18-.03.35-.05.51h-10.31v-2.16h8.38l-1.44.64c.02-.66-.11-1.24-.38-1.73-.27-.49-.64-.87-1.11-1.15-.47-.28-1.02-.41-1.65-.41s-1.18.14-1.66.41c-.48.28-.85.66-1.12,1.16-.27.5-.4,1.09-.4,1.77v.57c0,.71.16,1.33.47,1.85.31.52.75.92,1.3,1.2.55.28,1.21.41,1.98.41.66,0,1.25-.1,1.76-.31,0,0,.01,0,.02,0,.96-.39,2.05-.2,2.75.57l.59.65c-.58.66-1.31,1.17-2.2,1.53-.88.35-1.9.53-3.04.53Z"/>
  <path class="cls-2" d="M164.47,16.17v-2.84h8.8c0,1.57-1.27,2.84-2.83,2.84h-5.97ZM171.18,25.98c-1.5,0-2.66-.38-3.49-1.15-.83-.77-1.25-1.91-1.25-3.42v-11.18h3.71v11.11c0,.54.14.96.41,1.26.28.3.65.45,1.12.45.6,0,1.1-.16,1.51-.47l.97,2.61c-.36.27-.81.47-1.33.6-.53.13-1.07.2-1.64.2Z"/>
  <g>
    <path class="cls-2" d="M60.35,40.12c.49.3,1.21.56,1.96.56,1.12,0,1.78-.59,1.78-1.45,0-.8-.45-1.25-1.6-1.69-1.39-.49-2.24-1.21-2.24-2.41,0-1.33,1.09-2.31,2.74-2.31.87,0,1.5.2,1.88.42l-.3.9c-.28-.15-.84-.41-1.61-.41-1.16,0-1.6.69-1.6,1.28,0,.8.52,1.19,1.69,1.64,1.44.56,2.17,1.25,2.17,2.5,0,1.31-.97,2.45-2.97,2.45-.82,0-1.71-.24-2.16-.54l.28-.92Z"/>
    <path class="cls-2" d="M79.81,41.46v-3.61l-2.68-4.91h1.25l1.2,2.35c.33.64.58,1.16.84,1.76h.02c.24-.56.53-1.11.86-1.76l1.22-2.35h1.25l-2.85,4.89v3.63h-1.11Z"/>
    <path class="cls-2" d="M95.64,40.12c.49.3,1.21.56,1.96.56,1.12,0,1.78-.59,1.78-1.45,0-.8-.45-1.25-1.6-1.69-1.38-.49-2.24-1.21-2.24-2.41,0-1.33,1.1-2.31,2.74-2.31.87,0,1.5.2,1.88.42l-.3.9c-.28-.15-.84-.41-1.61-.41-1.16,0-1.6.69-1.6,1.28,0,.8.52,1.19,1.69,1.64,1.44.56,2.16,1.25,2.16,2.5,0,1.31-.97,2.45-2.97,2.45-.82,0-1.71-.24-2.17-.54l.28-.92Z"/>
    <path class="cls-2" d="M114.82,33.87h-2.58v-.94h6.28v.94h-2.59v7.58h-1.11v-7.58Z"/>
    <path class="cls-2" d="M135.08,37.46h-3.3v3.07h3.68v.92h-4.77v-8.52h4.58v.92h-3.49v2.69h3.3v.91Z"/>
    <path class="cls-2" d="M155.25,37.72c-.06-1.19-.14-2.62-.12-3.68h-.04c-.29,1-.64,2.06-1.07,3.24l-1.5,4.13h-.83l-1.37-4.06c-.4-1.2-.74-2.3-.98-3.31h-.03c-.02,1.06-.09,2.49-.16,3.77l-.23,3.65h-1.04l.59-8.52h1.4l1.45,4.12c.35,1.05.64,1.98.86,2.87h.04c.22-.86.52-1.8.89-2.87l1.51-4.12h1.4l.53,8.52h-1.07l-.22-3.74Z"/>
    <path class="cls-2" d="M169.29,40.12c.49.3,1.21.56,1.96.56,1.12,0,1.78-.59,1.78-1.45,0-.8-.45-1.25-1.6-1.69-1.38-.49-2.24-1.21-2.24-2.41,0-1.33,1.1-2.31,2.74-2.31.87,0,1.5.2,1.88.42l-.3.9c-.28-.15-.84-.41-1.61-.41-1.16,0-1.6.69-1.6,1.28,0,.8.52,1.19,1.69,1.64,1.44.56,2.16,1.25,2.16,2.5,0,1.31-.97,2.45-2.97,2.45-.82,0-1.71-.24-2.17-.54l.28-.92Z"/>
  </g>
  <path class="cls-1" d="M13.62,2.64C5.55,6.67,0,15.03,0,24.69c0,3.45.71,6.73,1.98,9.71,1.04-10.92,8.28-19.77,17.77-21.71,1.47-.59,3.08-.92,4.77-.92,7,0,12.68,5.6,12.87,12.57-.21-11.7-10.66-21.18-23.77-21.71Z"/>
  <path class="cls-4" d="M33.18,49.44s0,0,0,0c0,0,0,0,.01,0-.32-.05-.64-.11-.95-.16-.52-.09-1.03-.19-1.54-.3-1-.23-1.99-.52-2.96-.86-1.88-.67-3.69-1.55-5.36-2.63-1.62-1.05-3.12-2.28-4.46-3.67-1.3-1.36-2.44-2.87-3.37-4.51-.92-1.61-1.63-3.34-2.11-5.13-.32-1.2-.48-2.43-.57-3.67-.18-2.43-.42-4.83.24-7.22.54-1.94,1.53-3.75,2.88-5.24,1.31-1.45,2.95-2.6,4.77-3.33C10.26,14.65,3.02,23.48,1.98,34.4c3.75,8.77,12.43,14.91,22.54,14.91l8.22.1s.17.01.37.02c.02,0,.05,0,.07,0Z"/>
  <path class="cls-6" d="M33.24,49.34c.43-.07.4-.45.39-.92.02.5.11.88-.39.92Z"/>
  <path class="cls-5" d="M33.24,49.34s-.05,0-.08,0c-12.73-1.56-21.65-11.2-21.43-22.53,0,.03.45,2.97,1.16,4.27.71,1.29,1.63,2.46,2.72,3.45,1.09,1,2.34,1.82,3.7,2.41.16.06.31.13.47.19,1.61.63,3.32.8,5.02.99,1.03.12,2.07.21,3.1.33.98.11,1.98,0,2.94.27.55.15,1.06.41,1.49.79.99.9,1.29,2.29,1.3,3.58v5.15c0,.05,0,.11,0,.16,0,.48.03.85-.39.92Z"/>
  <path class="cls-7" d="M24.53.07c-3.92,0-7.62.93-10.91,2.57,13.11.53,23.53,10.01,23.74,21.71,0,.12.23,13.3.23,13.3v10.33c0,.26-.05.49.1.68,6.48-3.22,10.33-9.68,11.27-17.03,0,0,.04-6.35.04-6.37,0-.19.03-.38.03-.57,0-13.6-10.96-24.62-24.51-24.62Z"/>
  <path class="cls-3" d="M48.96,31.28c-1.38,7.35-4.85,14.07-11.32,17.3.13.25.49.43.76.46.5.06.99,0,1.48-.09.5-.09.99-.22,1.47-.38.74-.24,1.46-.52,2.15-.87.64-.33,1.26-.71,1.83-1.15.55-.42,1.06-.89,1.51-1.4.45-.5.84-1.05,1.18-1.63.34-.58.62-1.2.84-1.84.23-.66.39-1.33.49-2.02.11-.77.17-1.51.09-2.29-.04-.44-.09-.88-.13-1.32-.11-1.11-.23-2.23-.34-3.34-.03-.27-.04-1.33-.02-1.42Z"/>
  <path class="cls-8" d="M3.9,27.01c-.9,2.3-1.5,4.78-1.74,7.38,3.75,8.77,12.43,14.91,22.54,14.91l8.22.1s-.31-.06-.31-.06c-3.98,0-6.94-1.71-10.09-3.61-10.09-.73-17.52-8.7-18.61-18.72Z"/>
  <path class="cls-8" d="M33.24,49.34c-4.01-.49-7.09-1.8-10.26-3.71.51.04.53.06,1.05.05,3.72,0,9.51-2.58,9.6-2.58v5.15c0,.05,0,.11,0,.16,0,.48.03.85-.39.92Z"/>
  <path class="cls-8" d="M48.97,31.65c0-.06.01-.12.01-.18,0-.79.06-6.67.06-6.85C49.04,11.02,38.06,0,24.52,0c-3.92,0-7.62.93-10.91,2.57,2.63.11,5.15.57,7.51,1.34,1.11-.18,2.25-.28,3.41-.28,11.56,0,21.03,9.41,21.03,21.01,0,6.74-3.02,12.74-7.97,16.58v6.68c0,.26-.04.45.05.67,6.45-3.21,10.37-9.62,11.33-16.93Z"/>
</svg>