<?xml version="1.0" encoding="UTF-8"?>
<svg width="662px" height="127px" viewBox="0 0 662 127" version="1.1" xmlns="http://www.w3.org/2000/svg" xmlns:xlink="http://www.w3.org/1999/xlink">
    <!-- Generator: Sketch 43.2 (39069) - http://www.bohemiancoding.com/sketch -->
    <title>ANDigital_LOGO_LONG_RGB_ON_WHITE</title>
    <desc>Created with Sketch.</desc>
    <defs>
        <polygon id="path-1" points="0.735 104.94 157.145 104.94 157.145 0.765 0.735 0.765 0.735 104.94"></polygon>
    </defs>
    <g id="Symbols" stroke="none" stroke-width="1" fill="none" fill-rule="evenodd">
        <g id="ANDigital-LOGO">
            <g id="ANDigital_LOGO_LONG_RGB_ON_WHITE">
                <g id="Group-4" transform="translate(345.000000, 22.000000)">
                    <mask id="mask-2" fill="white">
                        <use xlink:href="#path-1"></use>
                    </mask>
                    <g id="Clip-2"></g>
                    <path d="M46.729,22.762 C42.396,17.318 36.062,14.095 26.843,14.095 L15.733,14.095 L15.734,65.199 L26.844,65.199 C36.063,65.199 42.397,61.977 46.729,56.534 C50.286,52.091 52.394,46.09 52.394,39.647 C52.394,33.203 50.284,27.205 46.729,22.762 Z M25.178,0.765 C37.508,0.765 45.618,3.431 51.949,8.097 C61.504,15.206 67.393,26.761 67.393,39.647 C67.393,52.534 61.505,64.088 51.95,71.198 C45.619,75.865 37.509,78.53 25.179,78.53 L0.736,78.53 L0.735,0.765 L25.178,0.765 L25.178,0.765 Z" id="Fill-1" fill="#FF323C" mask="url(#mask-2)"></path>
                    <path d="M142.703,43.534 C139.705,39.537 134.928,36.871 129.372,36.871 C120.93,36.871 115.486,43.869 115.486,51.646 C115.486,60.089 121.596,66.31 129.707,66.31 C135.151,66.31 139.928,63.643 142.703,59.644 L142.703,43.534 Z M157.145,75.53 C157.145,85.195 155.48,89.669 152.259,94.223 C147.371,101.002 138.705,105 128.374,105 C117.819,105 107.821,100.111 102.488,93.891 L111.599,84.447 C114.487,87.558 119.488,92.225 128.374,92.225 C133.04,92.225 136.929,90.78 139.37,87.892 C141.594,85.447 142.703,82.114 142.703,75.226 L142.703,74.753 C138.372,78.086 133.707,79.641 128.263,79.641 C120.265,79.641 112.599,76.086 107.82,70.532 C103.6,65.643 101.044,58.977 101.044,51.646 C101.043,35.758 112.82,23.539 127.484,23.539 C133.596,23.539 139.039,25.539 143.261,28.981 L143.261,24.651 L157.145,24.651 L157.145,75.53 L157.145,75.53 Z" id="Fill-3" fill="#FF323C" mask="url(#mask-2)"></path>
                </g>
                <path d="M529.257,100.53 L514.814,100.53 L514.813,46.651 L529.256,46.651 L529.257,100.53 Z M522.033,21.585 C526.922,21.585 530.872,25.327 530.872,30.216 C530.872,35.104 526.922,38.846 522.033,38.846 C517.144,38.846 513.193,35.104 513.193,30.216 C513.193,25.327 517.144,21.585 522.033,21.585 L522.033,21.585 Z" id="Fill-5" fill="#FF323C"></path>
                <path d="M436.496,100.53 L422.053,100.53 L422.052,46.651 L436.495,46.651 L436.496,100.53 Z M429.273,21.585 C434.161,21.585 438.113,25.327 438.113,30.216 C438.113,35.104 434.161,38.847 429.273,38.847 C424.385,38.847 420.434,35.104 420.434,30.216 C420.434,25.327 424.384,21.585 429.273,21.585 L429.273,21.585 Z" id="Fill-6" fill="#FF323C"></path>
                <path d="M573.588,100.529 C571.697,101.196 567.365,101.641 564.588,101.641 C555.925,101.641 549.592,98.752 545.925,93.864 C543.147,90.197 541.927,85.422 541.927,77.755 L541.926,58.871 L541.926,31.652 L556.368,31.652 L556.368,46.651 L571.45,46.651 L571.45,58.87 L556.368,58.871 L556.369,79.422 C556.369,82.756 556.923,84.755 558.145,86.2 C559.588,87.865 561.922,88.864 565.477,88.864 C567.588,88.864 570.366,88.53 571.364,88.309 L573.588,100.529" id="Fill-7" fill="#FF323C"></path>
                <path d="M620.249,65.534 C617.246,61.536 612.471,58.87 606.916,58.87 C598.473,58.87 593.029,65.869 593.029,73.645 C593.029,82.089 599.139,88.309 607.248,88.309 C612.692,88.309 617.469,85.643 620.249,81.644 L620.249,65.534 Z M634.689,100.529 L620.803,100.529 L620.803,96.196 C616.358,99.975 611.249,101.641 605.805,101.641 C597.808,101.641 590.252,98.086 585.476,92.532 C581.255,87.643 578.589,80.976 578.589,73.645 C578.589,57.758 590.364,45.539 605.028,45.539 C611.138,45.539 616.582,47.539 620.803,50.981 L620.803,46.651 L634.689,46.651 L634.689,100.529 L634.689,100.529 Z" id="Fill-8" fill="#FF323C"></path>
                <g id="Group-12" fill="#FF323C">
                    <polygon id="Fill-9" points="647.358 100.529 647.357 22.765 661.801 22.765 661.802 100.529"></polygon>
                    <polygon id="Fill-11" points="0.06 123.017 323.247 123.017 323.247 0.276 0.06 0.276"></polygon>
                </g>
                <polyline id="Fill-13" fill="#FFFFFF" points="200.505 100.529 181.676 100.529 141.57 53.475 141.57 100.529 122.742 100.529 122.742 22.765 141.57 22.765 181.676 69.772 181.676 22.765 200.505 22.765 200.505 100.529"></polyline>
                <path d="M261.88,81.7 L251.743,81.7 L251.743,41.594 L261.88,41.594 C272.937,41.594 281.932,50.59 281.932,61.647 C281.932,72.704 272.937,81.7 261.88,81.7 Z M261.88,22.765 L222.994,22.765 L222.994,41.594 L232.914,41.594 L232.914,81.7 L222.994,81.7 L222.994,100.529 L261.88,100.529 C283.318,100.529 300.758,83.088 300.758,61.647 C300.758,40.208 283.318,22.765 261.88,22.765 L261.88,22.765 Z" id="Fill-14" fill="#FFFFFF"></path>
                <path d="M81.424,71.78 L41.318,71.78 L41.318,61.643 C41.318,50.585 50.314,41.591 61.372,41.591 C72.428,41.591 81.424,50.585 81.424,61.643 L81.424,71.78 Z M61.372,22.765 C39.932,22.765 22.489,40.205 22.489,61.643 L22.489,100.529 L41.318,100.529 L41.318,90.608 L81.424,90.608 L81.424,100.529 L100.252,100.529 L100.252,61.643 C100.252,40.205 82.811,22.765 61.372,22.765 L61.372,22.765 Z" id="Fill-15" fill="#FFFFFF"></path>
            </g>
        </g>
    </g>
</svg>