<?xml version="1.0" encoding="utf-8"?>
<!-- Generator: Adobe Illustrator 26.4.1, SVG Export Plug-In . SVG Version: 6.00 Build 0)  -->
<svg version="1.1" id="Layer_1" xmlns="http://www.w3.org/2000/svg" xmlns:xlink="http://www.w3.org/1999/xlink" x="0px" y="0px"
	 viewBox="0 0 1200 916.3" style="enable-background:new 0 0 1200 916.3;" xml:space="preserve">
<style type="text/css">
	.st0{fill:#68A2B9;}
	.st1{fill:#97BDCD;}
	.st2{fill:#D1E1E9;}
	.st3{fill:#7B868C;}
</style>
<g>
	<path class="st0" d="M103.5,916.3C47.7,916.3,0,870,0,811.1c0-60.6,46.3-106.8,103.5-106.8S207,750.6,207,811.1
		C207.1,870.2,162.6,916.3,103.5,916.3z M103.5,916.3C47.7,916.3,0,870,0,811.1c0-60.6,46.3-106.8,103.5-106.8S207,750.6,207,811.1
		C207.1,870.2,162.6,916.3,103.5,916.3z M103.5,916.3C47.7,916.3,0,870,0,811.1c0-60.6,46.3-106.8,103.5-106.8S207,750.6,207,811.1
		C207.1,870.2,162.6,916.3,103.5,916.3z"/>
	<path class="st1" d="M331.2,916.3c-55.8,0-103.5-46.3-103.5-105.2c0-60.6,46.3-106.8,103.5-106.8s103.5,46.3,103.5,106.8
		C434.9,870.2,390.3,916.3,331.2,916.3z M331.2,916.3c-55.8,0-103.5-46.3-103.5-105.2c0-60.6,46.3-106.8,103.5-106.8
		s103.5,46.3,103.5,106.8C434.9,870.2,390.3,916.3,331.2,916.3z M331.2,916.3c-55.8,0-103.5-46.3-103.5-105.2
		c0-60.6,46.3-106.8,103.5-106.8s103.5,46.3,103.5,106.8C434.9,870.2,390.3,916.3,331.2,916.3z"/>
	<path class="st2" d="M551.9,916.3c-55.8,0-103.5-46.3-103.5-105.2c0-60.6,46.3-106.8,103.5-106.8c57.2,0,103.5,46.3,103.5,106.8
		C655.6,870.2,610.8,916.3,551.9,916.3z M551.9,916.3c-55.8,0-103.5-46.3-103.5-105.2c0-60.6,46.3-106.8,103.5-106.8
		c57.2,0,103.5,46.3,103.5,106.8C655.6,870.2,610.8,916.3,551.9,916.3z M551.9,916.3c-55.8,0-103.5-46.3-103.5-105.2
		c0-60.6,46.3-106.8,103.5-106.8c57.2,0,103.5,46.3,103.5,106.8C655.6,870.2,610.8,916.3,551.9,916.3z"/>
</g>
<g>
	<path class="st3" d="M179.4,245c0,20.3,4.7,29,7.5,33.2h-50.5c-3.1-4.7-4.7-12.9-4.7-17.9c-18.4,14.8-39.9,22.6-64.4,22.6
		c-37.4,0-67.2-23.8-67.2-62.2c0-38.7,30.7-55.8,60.2-61.7l19.8-3.9c17.3-3.4,39.4-7.5,51.6-11.7v-5.9c0-19.5-16.8-25.1-37.4-25.1
		c-27.7,0.2-36.6,8.3-36.6,29.8L10,140.3c0-46.6,41-64.4,84.5-64.4c42.6,0,85.3,8.6,85.3,64.8L179.4,245L179.4,245L179.4,245z
		 M131.7,179.4c-6.2,3.1-14,5.5-22.6,7l-26,5.5c-17.9,3.4-32.7,8.6-32.7,27.3c0,14.8,13.7,24.6,30.7,24.6
		c22.3,0,50.8-10.9,50.8-36.3L131.7,179.4L131.7,179.4z"/>
	<path class="st3" d="M203.4,80.6h47.5v16.8h0.8C266.1,84,284.5,75.9,308,75.9c50,0,85.3,46.6,85.3,103.5s-35.2,103.5-86,103.5
		c-28.5,0-43.8-9.7-56.3-23.8v82.5h-47.5V80.6z M343.2,179.4c-0.5-28.5-10.9-59.7-46.9-59.7s-46.6,31.2-46.9,59.7
		c0.5,28.5,10.9,59.7,46.9,59.7C332.3,239.1,342.9,207.9,343.2,179.4z"/>
	<path class="st3" d="M410.5,0h47.7v48.5h-47.5V0H410.5z M410.5,80.6h47.7v197.6h-47.5V80.6H410.5z"/>
	<path class="st3" d="M617.1,142.9c-5.9-12.9-21.5-28.2-49.6-28.2c-22.3-0.5-36.3,7.5-36.3,19.2c0,34.4,124.7,5.1,124.7,79.8
		c0,47.5-42.6,69.2-87.9,69.2c-46.6,0-78.2-15.9-95.7-36l36-27.7c10.9,15.9,31.6,24.6,57,24.6c22.6,0,38.3-12.5,38.3-23.1
		c0-33.7-122.2-5.9-122.2-80.7c0-44.6,38.7-64.1,87.4-64.1c47.4,0,72.3,24.3,81.7,36L617.1,142.9z"/>
</g>
<g>
	<path class="st0" d="M452.9,586.5c0,20.3,4.7,29,7.5,33.2h-50.3c-3.1-4.7-4.7-12.9-4.7-17.9c-18.4,14.8-39.9,22.6-64.4,22.6
		c-37.4,0-67.2-23.8-67.2-62.2c0-38.7,30.7-55.8,60.2-61.7l19.8-3.9c17.1-3.4,39.4-7.5,51.6-11.7V479c0-19.5-16.8-25.1-37.4-25.1
		c-27.7,0-36.6,8.3-36.6,29.8l-47.7-1.9c0-46.6,41-64.4,84.5-64.4c42.6,0,85.3,8.6,85.3,64.8L452.9,586.5L452.9,586.5L452.9,586.5z
		 M405.4,520.9c-6.2,3.1-14,5.5-22.6,7l-26,5.5c-17.9,3.4-32.7,8.6-32.7,27.3c0,14.8,13.7,24.6,30.7,24.6
		c22.3,0,50.8-10.9,50.8-36.3L405.4,520.9L405.4,520.9z"/>
	<path class="st0" d="M472.6,341.5h47.5V390h-47.5V341.5z M472.6,422.1h47.5v197.6h-47.5V422.1z"/>
	<path class="st0" d="M745.8,341.5h47.5V390h-47.5V341.5L745.8,341.5z M745.8,422.1h47.5v197.6h-47.5V422.1L745.8,422.1z"/>
	<path class="st0" d="M1152.3,422.1v16.8h-0.8c-14.3-13.4-32.7-21.5-56.3-21.5c-50,0-85.3,46.6-85.3,103.5s35.2,103.5,86,103.5
		c28.5,0,43.8-9.7,56.3-23.8l-0.8,21.5c-1.2,10.1-4.1,21.5-9.7,25.9c-7.8,6.1-18.7,9-32.7,9c-11.4,0-20.6-1.9-27.6-5.3
		c-7-3.6-11.2-8.4-12.5-14.5h-51.7c0.9,8.7,3.4,16.7,8.3,23.8c4.5,7.2,10.8,13.2,18.7,18.4c7.9,5.1,17.1,8.9,27.9,11.8
		c10.8,2.8,22.8,4.1,36,4.1c15,0,26.5-1.7,39-3.4c12.3-1.9,23.8-5.5,32.3-12c8.4-6.7,15-14.8,17.8-26.5c2.8-12.5,2.8-19.5,2.8-30.9
		V422.1H1152.3z M1106.9,580.6c-36,0-46.6-31.2-46.9-59.7c0.5-28.5,10.9-59.7,46.9-59.7c36,0,46.6,31.2,46.9,59.7
		C1153.4,549.4,1142.8,580.6,1106.9,580.6z"/>
	<path class="st0" d="M542.9,422.1h50.7v31.8h3.1c4.5-11.2,11.8-20,21.7-26.5c9.8-6.4,22.1-9.5,36.8-9.5c22,0,38.8,6.5,50.3,19.5
		c11.5,12.9,17.3,31.2,17.3,54.9v128h-52.4V504.7c0-13.9-3-24.2-8.9-31c-5.9-7-15.1-10.4-27.6-10.4c-6.1,0-11.5,1.1-16.4,3
		c-4.8,1.9-8.9,5-12.3,8.6c-3.3,3.7-6.1,8.4-7.9,13.7c-1.9,5.3-2.8,11.2-2.8,17.8v114.1h-52.4L542.9,422.1L542.9,422.1z"/>
	<path class="st0" d="M816.3,422.1h50.7v31.8h3.1c4.5-11.2,11.8-20,21.7-26.5c9.8-6.4,22.1-9.5,36.8-9.5c22,0,38.8,6.5,50.3,19.5
		c11.5,12.9,17.3,31.2,17.3,54.9v128h-52.2V504.7c0-13.9-3-24.2-8.9-31c-5.9-7-15.1-10.4-27.6-10.4c-6.1,0-11.5,1.1-16.4,3
		c-4.8,1.9-8.9,5-12.3,8.6c-3.3,3.7-6.1,8.4-7.9,13.7c-1.9,5.3-2.8,11.2-2.8,17.8v114.1h-52.4V422.1H816.3z"/>
	<g>
		<path class="st0" d="M83.4,374.9v48.9h41v41.1H83.2v89c0,8.6,2,15,6.1,19c4.1,4.1,10.6,6.1,19.5,6.1c3.4,0,6.2,0,8.4-0.2
			c2.3-0.2,4.5-0.3,7-0.6v40.2c-3.1,0.6-7.2,1.2-11.8,1.7c-4.5,0.5-9.4,0.8-14.3,0.8c-12.2,0-22.4-1.1-30.9-3
			c-8.4-2-15.4-5.3-20.7-9.5c-5.3-4.4-9.2-10-11.8-16.8s-3.6-15-3.6-24.8V465.3H0.2v-41.1h31v-48.9L83.4,374.9L83.4,374.9z"/>
		<path class="st0" d="M145.7,422.1h50.7v31.5h3.1c1.4-4.8,3.4-9.4,6.7-13.9c3-4.2,6.9-7.9,11.4-11.1c4.4-3.1,9.4-5.6,15-7.5
			c5.6-1.9,11.5-2.8,17.9-2.8c3.6,0,7.3,0.2,11.2,0.6s7,1.1,9.2,1.9v47.5c-1.1-0.3-2.6-0.8-4.5-1.2c-1.9-0.5-4.1-0.8-6.4-1.1
			c-2.3-0.3-4.7-0.6-7.2-0.8s-4.7-0.3-7-0.3c-7.2,0-13.7,1.1-19.5,3c-5.9,2-10.9,5-15.1,8.9s-7.6,8.6-9.8,14
			c-2.3,5.5-3.4,11.7-3.4,18.7v109.9h-52.4L145.7,422.1L145.7,422.1z"/>
	</g>
</g>
</svg>
