<svg version="1.1" id="Layer_1" xmlns="http://www.w3.org/2000/svg" xmlns:xlink="http://www.w3.org/1999/xlink" x="0px" y="0px"
	 width="100%" viewBox="0 0 1664 548" enable-background="new 0 0 1664 548" xml:space="preserve">
<path fill="#FFFFFF" opacity="1.000000" stroke="none" 
	d="
M1199.000000,549.000000 
	C799.378357,549.000000 400.256744,549.000000 1.067558,549.000000 
	C1.067558,366.399017 1.067558,183.797974 1.067558,1.098474 
	C555.666687,1.098474 1110.333374,1.098474 1664.973267,1.098474 
	C1664.973267,183.743500 1664.973267,366.371765 1664.973267,549.000000 
	C1509.797729,549.000000 1354.648804,549.000000 1199.000000,549.000000 
M207.500000,162.983688 
	C162.552780,162.983688 117.605568,162.983688 72.565109,162.983688 
	C72.565109,237.339340 72.565109,311.178528 72.565109,385.105713 
	C73.811684,385.211395 74.632576,385.341827 75.453476,385.341949 
	C151.278107,385.352631 227.102783,385.325623 302.927246,385.442749 
	C306.445892,385.448181 307.414154,383.815216 308.253235,381.024994 
	C312.010986,368.529449 315.853516,356.058960 319.737793,343.601959 
	C329.830811,311.233429 339.956421,278.875000 350.079956,246.515945 
	C355.753693,228.380356 361.466003,210.256805 367.128387,192.117661 
	C370.113281,182.555725 373.028351,172.972015 376.102509,162.983688 
	C319.797852,162.983688 264.148926,162.983688 207.500000,162.983688 
M718.101685,380.587555 
	C719.441223,383.203247 721.426147,384.130615 724.490723,384.082520 
	C736.987000,383.886383 749.488159,384.000885 761.987488,384.000916 
	C767.548645,384.000946 773.109741,384.000916 779.516663,384.000916 
	C761.424622,358.385132 743.896240,333.567383 726.207458,308.522552 
	C746.763916,300.302338 756.429138,284.426361 757.737854,264.136780 
	C758.867126,246.631302 758.216553,228.890457 756.817810,211.376266 
	C755.413086,193.787003 746.286316,180.216721 730.096619,172.359558 
	C717.543335,166.267181 703.782959,164.488770 690.106201,164.267807 
	C659.115906,163.767120 628.112000,164.110245 597.113586,164.110275 
	C595.375122,164.110275 593.636719,164.110275 591.930054,164.110275 
	C591.930054,237.822281 591.930054,310.731506 591.930054,383.640442 
	C608.788086,383.640442 625.340576,383.640442 642.260010,383.640442 
	C642.260010,360.843323 642.260010,338.405151 642.260010,315.701447 
	C651.446899,315.701447 660.266052,315.607117 669.079041,315.797607 
	C670.489502,315.828125 672.376953,316.770508 673.193176,317.903931 
	C688.068542,338.559204 702.813599,359.308289 718.101685,380.587555 
M1514.714722,196.869690 
	C1511.298950,186.018661 1507.883179,175.167648 1504.402466,164.110153 
	C1482.966553,164.110153 1461.650879,164.182358 1440.336670,164.037430 
	C1436.876343,164.013901 1436.902710,166.246658 1436.241821,168.423874 
	C1428.952881,192.437897 1421.676758,216.455994 1414.297974,240.442474 
	C1408.814819,258.266541 1403.138306,276.031067 1397.635864,293.849335 
	C1391.791138,312.776245 1386.025391,331.727692 1380.273438,350.683044 
	C1376.939697,361.669159 1373.700928,372.684052 1370.324829,384.003082 
	C1386.454712,384.003082 1402.112305,383.859253 1417.763794,384.105804 
	C1421.601318,384.166229 1422.693848,382.820190 1423.596680,379.308411 
	C1426.879883,366.537598 1430.632812,353.887512 1434.273804,340.960571 
	C1436.144165,340.960571 1437.795654,340.960571 1439.447021,340.960571 
	C1460.608521,340.960541 1481.772827,341.147552 1502.929199,340.818268 
	C1507.734009,340.743500 1509.066162,342.790131 1510.135620,346.733765 
	C1513.242554,358.191742 1516.579346,369.590088 1520.056030,380.941437 
	C1520.439575,382.194031 1522.299561,383.854950 1523.492310,383.869293 
	C1539.640381,384.063538 1555.791382,383.999725 1572.388428,383.999725 
	C1572.003418,382.384491 1571.778442,381.115753 1571.398315,379.895294 
	C1565.355957,360.492676 1559.265381,341.105072 1553.242554,321.696472 
	C1544.329834,292.975098 1535.443726,264.245544 1526.583618,235.507980 
	C1522.692749,222.888123 1518.894287,210.239807 1514.714722,196.869690 
M360.128174,363.658325 
	C358.102081,370.324524 356.076019,376.990723 354.035248,383.705261 
	C371.695465,383.705261 388.780396,383.705261 405.955292,383.705261 
	C409.565521,370.725616 413.283508,358.041351 416.529419,345.237396 
	C417.407318,341.774292 418.719635,340.849884 422.166656,340.875946 
	C443.819000,341.039703 465.475098,341.105774 487.125244,340.832703 
	C491.369202,340.779205 492.768707,342.222839 493.758545,346.039429 
	C497.048157,358.723389 500.719513,371.308319 504.224396,383.859100 
	C521.799438,383.859100 538.764404,383.859100 556.222473,383.859100 
	C533.463684,310.442749 510.788513,237.295853 488.191528,164.401367 
	C465.808319,164.401367 443.889404,164.401367 421.733612,164.401367 
	C418.107666,175.902344 414.482697,187.189651 410.992737,198.518555 
	C405.613373,215.980988 400.376801,233.487488 394.986420,250.946518 
	C389.446655,268.889252 383.765747,286.788361 378.200317,304.723206 
	C372.190247,324.090973 366.242340,343.478027 360.128174,363.658325 
M1144.460205,291.961792 
	C1147.244995,291.961792 1150.029785,291.961792 1152.789795,291.961792 
	C1152.789795,277.236694 1152.789795,263.037292 1152.789795,248.469727 
	C1125.432617,248.469727 1098.485962,248.469727 1071.398682,248.469727 
	C1071.398682,234.867661 1071.398682,221.643753 1071.398682,208.059692 
	C1101.147583,208.059692 1130.591919,208.059692 1160.267822,208.059692 
	C1160.267822,193.290985 1160.267822,178.885864 1160.267822,164.456604 
	C1113.711792,164.456604 1067.482178,164.456604 1021.218872,164.456604 
	C1021.218872,237.727737 1021.218872,310.651367 1021.218872,383.729187 
	C1067.700806,383.729187 1113.930176,383.729187 1160.259277,383.729187 
	C1160.259277,369.051056 1160.259277,354.647614 1160.259277,339.727234 
	C1130.362183,339.727234 1100.796387,339.727234 1071.343018,339.727234 
	C1071.343018,323.598694 1071.343018,307.991760 1071.343018,291.961792 
	C1095.550659,291.961792 1119.509155,291.961792 1144.460205,291.961792 
M915.093079,206.154144 
	C915.552551,206.349625 915.999146,206.674484 916.473389,206.721741 
	C930.438110,208.113388 944.400818,209.534454 958.384949,210.697617 
	C959.184998,210.764160 960.721069,208.798264 960.958618,207.590256 
	C961.817871,203.220993 962.272339,198.771896 962.872803,194.352005 
	C964.085571,185.424591 965.293823,176.496582 966.590942,166.927933 
	C951.004944,165.221634 936.132996,163.394684 921.219788,162.013565 
	C904.377930,160.453857 887.507812,159.784317 870.747681,163.061874 
	C859.128357,165.334106 848.049622,168.983795 838.509033,176.287216 
	C821.275085,189.479919 814.196838,207.496185 814.068726,228.648254 
	C813.948730,248.472229 813.925720,268.298401 814.082214,288.121887 
	C814.196167,302.552734 813.859741,317.056641 815.200378,331.389893 
	C816.723816,347.676636 824.643311,361.016144 837.674988,371.287048 
	C853.765137,383.968628 872.895020,387.087524 892.267212,387.468872 
	C907.547791,387.769684 922.942261,385.735291 938.175476,383.845581 
	C949.531494,382.436890 960.710571,379.602203 971.645508,377.465668 
	C971.645508,342.297302 971.645508,308.236786 971.645508,274.180267 
	C956.031067,274.180267 940.767090,274.180267 925.022156,274.180267 
	C925.022156,296.469666 925.022156,318.531677 925.022156,340.770660 
	C921.803650,341.175751 919.042358,341.776611 916.271118,341.826508 
	C906.386414,342.004486 896.460266,342.557800 886.622864,341.890808 
	C877.666260,341.283630 870.298584,336.741821 867.236450,327.893494 
	C865.322754,322.363647 864.192566,316.294952 864.106201,310.447418 
	C863.761475,287.129333 863.936646,263.803131 863.990662,240.480072 
	C863.999817,236.503906 863.954895,232.458405 864.631409,228.565994 
	C866.627869,217.080521 871.867432,208.619827 884.893738,207.105209 
	C894.560425,205.981201 904.398071,206.327438 915.093079,206.154144 
M1212.276855,289.499939 
	C1212.276855,320.922485 1212.276855,352.345032 1212.276855,383.731171 
	C1258.603638,383.731171 1304.205078,383.731171 1349.828857,383.731171 
	C1349.828857,369.067261 1349.828857,354.677002 1349.828857,339.775970 
	C1320.460938,339.775970 1291.402466,339.775970 1261.945801,339.775970 
	C1261.945801,281.008728 1261.945801,222.755371 1261.945801,164.376694 
	C1245.292969,164.376694 1229.048218,164.376694 1212.276855,164.376694 
	C1212.276855,205.928864 1212.276855,247.214401 1212.276855,289.499939 
z"/>
<path fill="#EF7F32" opacity="1.000000" stroke="none" 
	d="
M208.000000,162.983688 
	C264.148926,162.983688 319.797852,162.983688 376.102509,162.983688 
	C373.028351,172.972015 370.113281,182.555725 367.128387,192.117661 
	C361.466003,210.256805 355.753693,228.380356 350.079956,246.515945 
	C339.956421,278.875000 329.830811,311.233429 319.737793,343.601959 
	C315.853516,356.058960 312.010986,368.529449 308.253235,381.024994 
	C307.414154,383.815216 306.445892,385.448181 302.927246,385.442749 
	C227.102783,385.325623 151.278107,385.352631 75.453476,385.341949 
	C74.632576,385.341827 73.811684,385.211395 72.565109,385.105713 
	C72.565109,311.178528 72.565109,237.339340 72.565109,162.983688 
	C117.605568,162.983688 162.552780,162.983688 208.000000,162.983688 
M207.441559,221.229187 
	C202.072327,214.334137 194.731705,210.684525 186.288971,211.165527 
	C170.816162,212.047012 160.401245,223.727371 161.767960,238.906555 
	C163.066315,253.326599 175.434784,262.020172 187.762421,260.756836 
	C208.327240,258.649323 218.112457,239.054108 207.441559,221.229187 
M292.908691,193.632050 
	C294.324768,194.462494 295.652222,195.547150 297.173004,196.077469 
	C302.520050,197.942062 307.106171,197.007690 311.024628,192.517853 
	C314.392120,188.659317 314.768768,184.452713 313.179901,180.032852 
	C311.407745,175.103073 306.233337,171.854309 301.172119,172.047607 
	C296.056549,172.242966 292.386932,174.831192 290.189117,179.344147 
	C287.747314,184.358185 288.825226,188.953033 292.908691,193.632050 
M234.321274,194.643707 
	C230.277725,195.993637 228.043869,198.694061 227.990036,203.057587 
	C227.940369,207.083832 229.578949,210.090363 233.354675,211.668381 
	C236.837738,213.124100 240.227661,212.784302 242.913544,210.037125 
	C245.566681,207.323456 247.052948,204.012146 245.468750,200.176407 
	C243.567810,195.573730 239.906296,193.903046 234.321274,194.643707 
M117.978867,274.440735 
	C113.002968,270.758301 107.973679,271.038788 104.333542,275.201782 
	C101.590965,278.338226 101.828812,283.375214 104.866493,286.487976 
	C108.592628,290.306183 113.565781,290.740753 117.251305,287.570190 
	C121.547516,283.874268 121.969688,279.737427 117.978867,274.440735 
M127.492531,213.845932 
	C124.029907,216.240662 122.235306,219.493820 124.265633,223.417801 
	C125.804932,226.392761 128.609436,227.703796 132.219711,226.245132 
	C135.641479,224.862640 137.422043,222.289841 136.603439,218.925339 
	C135.609070,214.838409 132.727997,212.527069 127.492531,213.845932 
z"/>
<path fill="#1E4269" opacity="1.000000" stroke="none" 
	d="
M717.843994,380.312500 
	C702.813599,359.308289 688.068542,338.559204 673.193176,317.903931 
	C672.376953,316.770508 670.489502,315.828125 669.079041,315.797607 
	C660.266052,315.607117 651.446899,315.701447 642.260010,315.701447 
	C642.260010,338.405151 642.260010,360.843323 642.260010,383.640442 
	C625.340576,383.640442 608.788086,383.640442 591.930054,383.640442 
	C591.930054,310.731506 591.930054,237.822281 591.930054,164.110275 
	C593.636719,164.110275 595.375122,164.110275 597.113586,164.110275 
	C628.112000,164.110245 659.115906,163.767120 690.106201,164.267807 
	C703.782959,164.488770 717.543335,166.267181 730.096619,172.359558 
	C746.286316,180.216721 755.413086,193.787003 756.817810,211.376266 
	C758.216553,228.890457 758.867126,246.631302 757.737854,264.136780 
	C756.429138,284.426361 746.763916,300.302338 726.207458,308.522552 
	C743.896240,333.567383 761.424622,358.385132 779.516663,384.000916 
	C773.109741,384.000916 767.548645,384.000946 761.987488,384.000916 
	C749.488159,384.000885 736.987000,383.886383 724.490723,384.082520 
	C721.426147,384.130615 719.441223,383.203247 717.843994,380.312500 
M683.328430,208.064789 
	C669.606812,208.064789 655.885193,208.064789 642.251953,208.064789 
	C642.251953,230.081299 642.251953,251.322449 642.251953,272.959930 
	C657.564575,272.959930 672.696716,273.636871 687.737366,272.754517 
	C700.728333,271.992432 707.070801,266.428650 707.740906,256.315674 
	C708.420532,246.060257 707.926331,235.720886 707.761414,225.421249 
	C707.730835,223.509796 706.981689,221.552933 706.293945,219.718353 
	C702.411133,209.362167 693.275757,208.823624 683.328430,208.064789 
z"/>
<path fill="#1F426A" opacity="1.000000" stroke="none" 
	d="
M1514.884277,197.237061 
	C1518.894287,210.239807 1522.692749,222.888123 1526.583618,235.507980 
	C1535.443726,264.245544 1544.329834,292.975098 1553.242554,321.696472 
	C1559.265381,341.105072 1565.355957,360.492676 1571.398315,379.895294 
	C1571.778442,381.115753 1572.003418,382.384491 1572.388428,383.999725 
	C1555.791382,383.999725 1539.640381,384.063538 1523.492310,383.869293 
	C1522.299561,383.854950 1520.439575,382.194031 1520.056030,380.941437 
	C1516.579346,369.590088 1513.242554,358.191742 1510.135620,346.733765 
	C1509.066162,342.790131 1507.734009,340.743500 1502.929199,340.818268 
	C1481.772827,341.147552 1460.608521,340.960541 1439.447021,340.960571 
	C1437.795654,340.960571 1436.144165,340.960571 1434.273804,340.960571 
	C1430.632812,353.887512 1426.879883,366.537598 1423.596680,379.308411 
	C1422.693848,382.820190 1421.601318,384.166229 1417.763794,384.105804 
	C1402.112305,383.859253 1386.454712,384.003082 1370.324829,384.003082 
	C1373.700928,372.684052 1376.939697,361.669159 1380.273438,350.683044 
	C1386.025391,331.727692 1391.791138,312.776245 1397.635864,293.849335 
	C1403.138306,276.031067 1408.814819,258.266541 1414.297974,240.442474 
	C1421.676758,216.455994 1428.952881,192.437897 1436.241821,168.423874 
	C1436.902710,166.246658 1436.876343,164.013901 1440.336670,164.037430 
	C1461.650879,164.182358 1482.966553,164.110153 1504.402466,164.110153 
	C1507.883179,175.167648 1511.298950,186.018661 1514.884277,197.237061 
M1459.958008,248.365402 
	C1455.212646,265.331024 1450.467285,282.296661 1445.648193,299.526245 
	C1462.940918,299.526245 1479.441406,299.526245 1496.517822,299.526245 
	C1488.212280,269.454987 1480.044800,239.883560 1471.877197,210.312134 
	C1471.453491,210.361176 1471.029663,210.410217 1470.605957,210.459259 
	C1467.123047,222.833374 1463.640137,235.207489 1459.958008,248.365402 
z"/>
<path fill="#1E426A" opacity="1.000000" stroke="none" 
	d="
M360.197754,363.257477 
	C366.242340,343.478027 372.190247,324.090973 378.200317,304.723206 
	C383.765747,286.788361 389.446655,268.889252 394.986420,250.946518 
	C400.376801,233.487488 405.613373,215.980988 410.992737,198.518555 
	C414.482697,187.189651 418.107666,175.902344 421.733612,164.401367 
	C443.889404,164.401367 465.808319,164.401367 488.191528,164.401367 
	C510.788513,237.295853 533.463684,310.442749 556.222473,383.859100 
	C538.764404,383.859100 521.799438,383.859100 504.224396,383.859100 
	C500.719513,371.308319 497.048157,358.723389 493.758545,346.039429 
	C492.768707,342.222839 491.369202,340.779205 487.125244,340.832703 
	C465.475098,341.105774 443.819000,341.039703 422.166656,340.875946 
	C418.719635,340.849884 417.407318,341.774292 416.529419,345.237396 
	C413.283508,358.041351 409.565521,370.725616 405.955292,383.705261 
	C388.780396,383.705261 371.695465,383.705261 354.035248,383.705261 
	C356.076019,376.990723 358.102081,370.324524 360.197754,363.257477 
M446.270813,238.761414 
	C440.658173,258.911957 435.045532,279.062469 429.348969,299.514343 
	C446.581940,299.514343 463.200684,299.514343 480.140930,299.514343 
	C471.862885,269.502563 463.706909,239.933411 455.550934,210.364258 
	C455.106079,210.402649 454.661255,210.441040 454.216400,210.479431 
	C451.701782,219.668640 449.187164,228.857864 446.270813,238.761414 
z"/>
<path fill="#1E426A" opacity="1.000000" stroke="none" 
	d="
M1143.963989,291.961792 
	C1119.509155,291.961792 1095.550659,291.961792 1071.343018,291.961792 
	C1071.343018,307.991760 1071.343018,323.598694 1071.343018,339.727234 
	C1100.796387,339.727234 1130.362183,339.727234 1160.259277,339.727234 
	C1160.259277,354.647614 1160.259277,369.051056 1160.259277,383.729187 
	C1113.930176,383.729187 1067.700806,383.729187 1021.218872,383.729187 
	C1021.218872,310.651367 1021.218872,237.727737 1021.218872,164.456604 
	C1067.482178,164.456604 1113.711792,164.456604 1160.267822,164.456604 
	C1160.267822,178.885864 1160.267822,193.290985 1160.267822,208.059692 
	C1130.591919,208.059692 1101.147583,208.059692 1071.398682,208.059692 
	C1071.398682,221.643753 1071.398682,234.867661 1071.398682,248.469727 
	C1098.485962,248.469727 1125.432617,248.469727 1152.789795,248.469727 
	C1152.789795,263.037292 1152.789795,277.236694 1152.789795,291.961792 
	C1150.029785,291.961792 1147.244995,291.961792 1143.963989,291.961792 
z"/>
<path fill="#1E426A" opacity="1.000000" stroke="none" 
	d="
M914.626343,206.086456 
	C904.398071,206.327438 894.560425,205.981201 884.893738,207.105209 
	C871.867432,208.619827 866.627869,217.080521 864.631409,228.565994 
	C863.954895,232.458405 863.999817,236.503906 863.990662,240.480072 
	C863.936646,263.803131 863.761475,287.129333 864.106201,310.447418 
	C864.192566,316.294952 865.322754,322.363647 867.236450,327.893494 
	C870.298584,336.741821 877.666260,341.283630 886.622864,341.890808 
	C896.460266,342.557800 906.386414,342.004486 916.271118,341.826508 
	C919.042358,341.776611 921.803650,341.175751 925.022156,340.770660 
	C925.022156,318.531677 925.022156,296.469666 925.022156,274.180267 
	C940.767090,274.180267 956.031067,274.180267 971.645508,274.180267 
	C971.645508,308.236786 971.645508,342.297302 971.645508,377.465668 
	C960.710571,379.602203 949.531494,382.436890 938.175476,383.845581 
	C922.942261,385.735291 907.547791,387.769684 892.267212,387.468872 
	C872.895020,387.087524 853.765137,383.968628 837.674988,371.287048 
	C824.643311,361.016144 816.723816,347.676636 815.200378,331.389893 
	C813.859741,317.056641 814.196167,302.552734 814.082214,288.121887 
	C813.925720,268.298401 813.948730,248.472229 814.068726,228.648254 
	C814.196838,207.496185 821.275085,189.479919 838.509033,176.287216 
	C848.049622,168.983795 859.128357,165.334106 870.747681,163.061874 
	C887.507812,159.784317 904.377930,160.453857 921.219788,162.013565 
	C936.132996,163.394684 951.004944,165.221634 966.590942,166.927933 
	C965.293823,176.496582 964.085571,185.424591 962.872803,194.352005 
	C962.272339,198.771896 961.817871,203.220993 960.958618,207.590256 
	C960.721069,208.798264 959.184998,210.764160 958.384949,210.697617 
	C944.400818,209.534454 930.438110,208.113388 916.473389,206.721741 
	C915.999146,206.674484 915.552551,206.349625 914.626343,206.086456 
z"/>
<path fill="#1F426A" opacity="1.000000" stroke="none" 
	d="
M1212.276855,288.999939 
	C1212.276855,247.214401 1212.276855,205.928864 1212.276855,164.376694 
	C1229.048218,164.376694 1245.292969,164.376694 1261.945801,164.376694 
	C1261.945801,222.755371 1261.945801,281.008728 1261.945801,339.775970 
	C1291.402466,339.775970 1320.460938,339.775970 1349.828857,339.775970 
	C1349.828857,354.677002 1349.828857,369.067261 1349.828857,383.731171 
	C1304.205078,383.731171 1258.603638,383.731171 1212.276855,383.731171 
	C1212.276855,352.345032 1212.276855,320.922485 1212.276855,288.999939 
z"/>
<path fill="#FFFDFC" opacity="1.000000" stroke="none" 
	d="
M207.634613,221.543121 
	C218.112457,239.054108 208.327240,258.649323 187.762421,260.756836 
	C175.434784,262.020172 163.066315,253.326599 161.767960,238.906555 
	C160.401245,223.727371 170.816162,212.047012 186.288971,211.165527 
	C194.731705,210.684525 202.072327,214.334137 207.634613,221.543121 
z"/>
<path fill="#FFFCF9" opacity="1.000000" stroke="none" 
	d="
M292.640015,193.359665 
	C288.825226,188.953033 287.747314,184.358185 290.189117,179.344147 
	C292.386932,174.831192 296.056549,172.242966 301.172119,172.047607 
	C306.233337,171.854309 311.407745,175.103073 313.179901,180.032852 
	C314.768768,184.452713 314.392120,188.659317 311.024628,192.517853 
	C307.106171,197.007690 302.520050,197.942062 297.173004,196.077469 
	C295.652222,195.547150 294.324768,194.462494 292.640015,193.359665 
z"/>
<path fill="#FFFCFA" opacity="1.000000" stroke="none" 
	d="
M234.702805,194.568085 
	C239.906296,193.903046 243.567810,195.573730 245.468750,200.176407 
	C247.052948,204.012146 245.566681,207.323456 242.913544,210.037125 
	C240.227661,212.784302 236.837738,213.124100 233.354675,211.668381 
	C229.578949,210.090363 227.940369,207.083832 227.990036,203.057587 
	C228.043869,198.694061 230.277725,195.993637 234.702805,194.568085 
z"/>
<path fill="#FFFBF8" opacity="1.000000" stroke="none" 
	d="
M118.257370,274.711914 
	C121.969688,279.737427 121.547516,283.874268 117.251305,287.570190 
	C113.565781,290.740753 108.592628,290.306183 104.866493,286.487976 
	C101.828812,283.375214 101.590965,278.338226 104.333542,275.201782 
	C107.973679,271.038788 113.002968,270.758301 118.257370,274.711914 
z"/>
<path fill="#FEFAF6" opacity="1.000000" stroke="none" 
	d="
M127.811218,213.639282 
	C132.727997,212.527069 135.609070,214.838409 136.603439,218.925339 
	C137.422043,222.289841 135.641479,224.862640 132.219711,226.245132 
	C128.609436,227.703796 125.804932,226.392761 124.265633,223.417801 
	C122.235306,219.493820 124.029907,216.240662 127.811218,213.639282 
z"/>
<path fill="#FEFEFE" opacity="1.000000" stroke="none" 
	d="
M683.803833,208.064789 
	C693.275757,208.823624 702.411133,209.362167 706.293945,219.718353 
	C706.981689,221.552933 707.730835,223.509796 707.761414,225.421249 
	C707.926331,235.720886 708.420532,246.060257 707.740906,256.315674 
	C707.070801,266.428650 700.728333,271.992432 687.737366,272.754517 
	C672.696716,273.636871 657.564575,272.959930 642.251953,272.959930 
	C642.251953,251.322449 642.251953,230.081299 642.251953,208.064789 
	C655.885193,208.064789 669.606812,208.064789 683.803833,208.064789 
z"/>
<path fill="#FBFBFC" opacity="1.000000" stroke="none" 
	d="
M1460.057617,247.973511 
	C1463.640137,235.207489 1467.123047,222.833374 1470.605957,210.459259 
	C1471.029663,210.410217 1471.453491,210.361176 1471.877197,210.312134 
	C1480.044800,239.883560 1488.212280,269.454987 1496.517822,299.526245 
	C1479.441406,299.526245 1462.940918,299.526245 1445.648193,299.526245 
	C1450.467285,282.296661 1455.212646,265.331024 1460.057617,247.973511 
z"/>
<path fill="#FCFDFD" opacity="1.000000" stroke="none" 
	d="
M446.471680,238.404236 
	C449.187164,228.857864 451.701782,219.668640 454.216400,210.479431 
	C454.661255,210.441040 455.106079,210.402649 455.550934,210.364258 
	C463.706909,239.933411 471.862885,269.502563 480.140930,299.514343 
	C463.200684,299.514343 446.581940,299.514343 429.348969,299.514343 
	C435.045532,279.062469 440.658173,258.911957 446.471680,238.404236 
z"/>
</svg>