<?xml version="1.0" encoding="UTF-8"?>
<svg version="1.1" viewBox="0 0 2048 790" width="1280" height="1280" xmlns="http://www.w3.org/2000/svg">
<path transform="translate(178,129)" d="m0 0h183l20 2 23 5 15 5 19 9 14 10 15 15 9 14 6 13 4 16 2 16v9l-3 21-5 15-7 14-9 12-12 12-10 7-7 4h-2l1 2 16 8 16 12 9 8 11 14 6 10 6 13 4 15 2 14v17l-3 21-4 15-8 17-9 13-9 10-12 11-14 9-21 10-15 5-22 5-16 2-17 1h-176zm51 45v134h110l28-2 23-5 12-5 11-6 8-7 7-10 5-15 1-6v-21l-3-13-6-12-9-11-13-9-13-6-14-4-15-2zm4 178-4 1v161l1 1h122l23-2 18-4 18-7 11-7 10-9 7-8 8-16 4-17v-22l-4-17-8-16-11-12-13-9-13-6-15-5-24-4-10-1-27-1z" fill="#666"/>
<path transform="translate(1501,349)" d="m0 0h8l6 2 19 14 19 12 18 10 25 12 25 9 26 6 15 2 15 1h61l24-3 10-2h8l8 2 4 5 2 4-1 9-6 10-9 10-8 8-9 11-12 14-11 14-13 22-11 19-13 26-10 16-8 12-8 8-11 7-13 5-16 3-11 1h-10l-14-4-20-8-19-10-15-10-13-10-12-11-15-15-13-17-10-15-10-18-10-23-4-12-4-25-1-10v-30l3-24 2-8 17-13 7-4z" fill="#20A1B7"/>
<path transform="translate(1519,70)" d="m0 0h42l26 3 23 5 21 7 18 8 16 9 14 10 12 11v6l-4 6-8 7-14 6-19 6-23 10-12 8-13 11-12 12-9 11-10 13-14 21-9 15-12 22-11 23-9 8-16 11-18 10-3 1h-11l-5-5-5-10-5-19-9-35-6-16-11-23-10-17-14-21-14-19-7-11-3-7 1-7 6-9 9-9 15-11 13-8 27-13 27-10 23-7 11-2z" fill="#F6721D"/>
<path transform="translate(725,123)" d="m0 0h40l29 3 17 3 1 1v47l-27-6-19-2h-43l-22 3-22 6-20 8-14 8-14 10-12 11-8 8-11 15-10 17-9 21-7 25-3 18-1 12v27l2 19 5 23 6 18 7 15 9 16 9 12 9 10 9 9 15 11 14 8 15 7 15 5 23 5 14 2 16 1h18l25-2 24-5 7-1v46l-6 2-28 4-27 2h-12l-29-2-27-4-27-7-22-8-23-11-11-7-14-10-15-13-13-13-13-17-11-18-11-23-8-24-5-22-2-15-1-13v-26l2-21 5-24 5-17 8-21 11-21 8-12 10-13 9-10 16-16 13-10 17-11 23-12 18-7 29-8 33-5z" fill="#666"/>
<path transform="translate(1732,140)" d="m0 0h10l22 6 29 11 33 9 27 5 26 3 21 1 8 4 6 8 8 20 6 22 2 13 1 22-1 17-4 20-6 17-8 16-8 12-9 11-10 10-14 11-14 10-13 8-27 14-6 2h-8l-9-7-4-44-3-25-4-19-7-23-9-21-9-17-13-20-14-19-13-17-9-10-6-8-7-16-1-4 5-5 11-8 15-8z" fill="#20A2B8"/>
<path transform="translate(838,129)" d="m0 0h359v45h-154v385l-1 1h-50l-1-1v-385h-152l-1-1z" fill="#666"/>
<path transform="translate(1215,129)" d="m0 0h51l1 1v429l-1 1h-51z" fill="#646767"/>
<path transform="translate(1483,353)" d="m0 0h1l-1 33 2 30 3 20 7 27 8 20 8 16 8 14 10 14 11 13 7 8 2 1v2h2v2l4 2 9 8 17 11 21 11 20 8 19 5 17 1 11-1 9-4 1 4-8 7-14 7-15 4-18 2h-10l-14-4-20-8-19-10-15-10-13-10-12-11-15-15-13-17-10-15-10-18-10-23-4-12-4-25-1-10v-30l3-24 2-8 17-13z" fill="#228A97"/>
<path transform="translate(1720,144)" d="m0 0h7l3 11 4 9 8 13 8 10 12 14 10 13 13 18 9 15 10 19 6 18 7 37 4 31 4 39 2 4 6 4v3l-19 9-3 1h-8l-9-7-4-44-3-25-4-19-7-23-9-21-9-17-13-20-14-19-13-17-9-10-6-8-7-16-1-4 5-5 11-8z" fill="#228A96"/>
<path transform="translate(1414,106)" d="m0 0h4l-2 4-5 5-4 6-1 9 5 14 10 21 14 23 7 10 10 15 7 14 8 20 8 24 7 20 4 9 5 18-2 5-14 7h-11l-5-5-5-10-5-19-9-35-6-16-11-23-10-17-14-21-14-19-7-11-3-7 1-7 6-9 9-9 15-11z" fill="#DB511E"/>
<path transform="translate(439,623)" d="m0 0h11l8 10 28 38 13 18 6 8 1-74h10v91h-11l-7-8-10-14-14-19-13-18-11-15-1 73-1 1h-9l-1-1v-89z" fill="#646869"/>
<path transform="translate(1391,645)" d="m0 0h9l1 1 1 8 4-5 8-4h15l10 6 4 6 8-8 8-4h15l9 5 6 7 3 8v49h-10l-1-46-4-9-7-4h-11l-7 4-4 7-1 47-1 1h-9l-1-1-1-47-5-8-6-3h-10l-6 3-4 5-2 5-1 45-1 1h-9z" fill="#656869"/>
<path transform="translate(650,645)" d="m0 0h10l3 8 13 44v3h2l1-8 14-45 1-2h11l3 8 14 45 2-3 14-48 1-2h11l-3 11-17 54-2 4h-11l-3-7-14-45-2 4-14 45-2 3h-11l-3-8-18-57z" fill="#666969"/>
<path transform="translate(1510,645)" d="m0 0h9l1 1v7l-1 2 9-7 7-3h18l12 6 7 8 4 9 1 5v13l-3 10-6 9-6 5-9 4-5 1h-10l-11-4-6-6-1 20v15l-1 1h-9l-1-1v-94zm26 9-8 4-6 7-3 9v11l4 11 9 8 3 1h15l8-4 6-8 3-10v-7l-3-10-5-7-10-5z" fill="#67696A"/>
<path transform="translate(1012,623)" d="m0 0h12l7 14 16 38 15 35 1 3-1 1h-10l-6-12-6-14h-45l-3 10-6 14-2 2h-10l1-5 16-38 20-47zm6 12-6 12-12 29v2h36l-3-9-14-34z" fill="#646869"/>
<path transform="translate(1075,623)" d="m0 0h39l11 1 9 4 8 7 4 9v16l-4 10-9 8-9 3h-39v32l-1 1h-9zm10 10v39h35l8-3 5-4 3-7v-11l-4-8-8-5-4-1z" fill="#676869"/>
<path transform="translate(557,645)" d="m0 0h18l10 4 7 6 5 8 3 11v9l-1 1h-56l4 11 5 5 7 4h15l8-4 4-6h11l-1 5-9 10-10 5-6 1h-10l-10-3-9-6-7-10-3-10v-14l4-11 7-9 10-6zm3 9-7 3-6 5-4 9v3h46l-1-6-6-9-10-5z" fill="#656868"/>
<path transform="translate(351,645)" d="m0 0h19l9 4 8 7 5 8 2 6 1 13-1 1-56 1 4 10 4 5 8 4h15l7-4 5-6h11l-2 6-8 9-8 4-8 2h-10l-10-3-9-6-6-8-4-10v-17l4-10 4-6 7-6zm3 9-8 4-6 7-3 9h47l-3-9-7-8-7-3z" fill="#656767"/>
<path transform="translate(1256,622)" d="m0 0h8l10 2 12 6 7 6 6 9 1 5h-11l-6-9-9-6-9-2h-8l-12 3-9 6-6 9-3 12v11l3 12 7 10 10 6 9 2h11l11-4 8-7 3-6h11l-2 6-6 9-9 7-12 5-6 1h-12l-11-3-10-6-7-7-5-8-3-9-1-5v-17l3-11 4-8 9-10 10-6z" fill="#666868"/>
<path transform="translate(1611,645)" d="m0 0h17l10 5 5 5 1-10h9l1 1v67l-1 1h-9v-10l-10 8-10 3h-10l-10-3-8-6-6-8-4-12v-13l4-12 7-9 10-6zm3 9-8 4-7 8-2 5-1 11 2 9 6 9 7 4 2 1h15l6-3 5-5 4-7 1-4v-13l-4-10-8-7-5-2z" fill="#646768"/>
<path transform="translate(884,618)" d="m0 0h10l1 1v58l7-6 26-26h13l-2 4-17 17-6 5 1 4 12 17 13 18 1 4h-12l-14-20-9-13-4 2-8 8-1 22-1 1h-9l-1-1z" fill="#636A6B"/>
<path transform="translate(254,618)" d="m0 0h10v37h2l2-4 10-6h16l10 5 6 7 4 11v46h-10l-1-43-3-9-5-5-5-2h-11l-8 4-5 7-1 4-1 43-1 1h-9z" fill="#656767"/>
<path transform="translate(780,645)" d="m0 0h19l9 4 7 5 6 10 3 12v8l-2 9-5 9-5 5-5 4-7 3-5 1h-11l-10-3-8-6-5-6-4-9-1-4v-15l4-11 6-8 9-6zm3 9-8 4-5 6-3 6-1 5v9l3 10 7 8 6 3h15l8-4 6-8 2-6v-15l-4-9-8-7-5-2z" fill="#656768"/>
<path transform="translate(1334,645)" d="m0 0h19l12 6 8 9 4 10v19l-5 12-8 8-8 4-8 2h-10l-10-3-6-4-8-9-4-11v-17l4-11 9-10zm3 9-8 4-6 7-3 9v12l4 10 7 7 5 2h15l6-3 5-5 4-7 1-4v-12l-3-9-7-8-7-3z" fill="#656767"/>
<path transform="translate(1741,645)" d="m0 0h11l5 12 17 43 21-52 2-3h10l-1 6-19 44-16 38-4 8h-10l1-5 9-21-1-7-19-46-6-15z" fill="#686A6A"/>
<path transform="translate(1672,645)" d="m0 0h10v10l10-8 4-2h16l10 5 7 8 3 9v46l-1 1h-9l-1-44-4-10-6-4-3-1h-11l-8 4-4 5-2 6-1 43-1 1h-9z" fill="#666767"/>
<path transform="translate(170,623)" d="m0 0h72l1 1v9l-31 1-1 80h-9l-1-1v-80h-31z" fill="#646A6B"/>
<path transform="translate(620,621)" d="m0 0h10l1 24h14l1 1v8l-15 1-1 59h-10l-1-59h-12l-1-1v-9h13z" fill="#686969"/>
<path transform="translate(1161,623)" d="m0 0h9l1 1v89l-1 1h-9l-1-1v-89z" fill="#63696A"/>
<path transform="translate(871,644)" d="m0 0 2 1v9l-1 1-10 2-6 4-6 10-2 8-1 35h-10v-69h9l1 1 1 13 4-6 6-5 6-3z" fill="#666868"/>
</svg>
