<svg xmlns="http://www.w3.org/2000/svg" width="2967" height="2363" viewBox="0 0 2967 2363" version="1.1"><path d="M 1439 0.670 C 1218.716 8.671, 1025.346 72.841, 932.951 168.603 C 903.670 198.952, 885.509 231.665, 879.282 265.276 C 876.714 279.138, 877.008 304.280, 879.899 318 C 889.651 364.279, 920.167 407.089, 970.500 445.103 C 1063.257 515.157, 1210.935 562.358, 1381.500 576.467 C 1445.271 581.742, 1520.529 581.736, 1586 576.449 C 1745.240 563.590, 1888.133 520.133, 1981.709 456.104 C 2024.076 427.115, 2056.099 392.954, 2073.410 358.283 C 2084.629 335.810, 2088.883 319.272, 2089.687 295 C 2090.147 281.108, 2089.906 276.603, 2088.162 266.500 C 2076.884 201.161, 2021.620 141.080, 1928.500 92.921 C 1812.179 32.763, 1649.329 -0.828, 1479 0.201 C 1461.125 0.309, 1443.125 0.520, 1439 0.670 M 23.300 1558.801 C 13.402 1562.337, 7.161 1568.079, 2.686 1577.767 L 0.500 1582.500 0.206 1853 C -0.010 2051.314, 0.214 2125.101, 1.044 2129.500 C 3.304 2141.477, 11.554 2151.663, 23.297 2156.973 C 45.952 2167.219, 83.144 2176.175, 121.500 2180.622 C 140.551 2182.831, 184.237 2183.137, 197.500 2181.155 C 246.936 2173.766, 283.942 2153.754, 308.600 2121.075 C 316.168 2111.044, 327.720 2088.421, 331.896 2075.452 C 340.820 2047.737, 344.953 2013.797, 344.983 1968 C 345.037 1883.966, 331.295 1835.982, 297.055 1800.637 C 284.556 1787.736, 273.359 1779.421, 257.951 1771.600 C 231.141 1757.991, 203.112 1751.826, 168 1751.815 C 142.792 1751.807, 124.111 1755.424, 99.348 1765.106 C 88.662 1769.284, 74.379 1777.308, 69.769 1781.723 L 67.037 1784.338 66.769 1682.919 L 66.500 1581.500 63.730 1575.858 C 60.468 1569.216, 53.721 1562.651, 47.176 1559.749 C 40.592 1556.830, 29.996 1556.409, 23.300 1558.801 M 550.500 1752.015 C 462.827 1758.444, 407.689 1808.694, 393.608 1895 C 390.894 1911.639, 389.965 1923.832, 389.343 1951 C 387.500 2031.467, 399.163 2084.737, 426.638 2121.346 C 456.423 2161.032, 506.614 2183, 567.500 2183 C 608.623 2183, 645.348 2172.964, 674.108 2153.866 C 685.512 2146.293, 705.444 2126.685, 712.321 2116.274 C 730.379 2088.937, 739.495 2059.690, 744.198 2014 C 745.943 1997.053, 745.925 1930.691, 744.172 1914 C 741.404 1887.650, 736.256 1865.655, 728.776 1848.215 C 708.683 1801.371, 672.234 1770.511, 622.208 1757.987 C 601.432 1752.786, 572.662 1750.390, 550.500 1752.015 M 2452.500 1751.994 C 2377.668 1757.475, 2327.111 1794.170, 2306.559 1857.922 C 2295.331 1892.752, 2291.025 1930.350, 2292.421 1981.371 C 2293.638 2025.887, 2297.617 2053.200, 2306.700 2079.399 C 2323.917 2129.056, 2361.811 2163.075, 2414.788 2176.433 C 2435.109 2181.558, 2445.096 2182.505, 2478 2182.432 C 2510.991 2182.359, 2526.946 2181.028, 2549.767 2176.445 C 2572.423 2171.895, 2593.165 2163.865, 2608.692 2153.634 C 2617.544 2147.802, 2621.393 2143.513, 2625.373 2135.047 C 2631.416 2122.192, 2628.785 2107.459, 2618.843 2098.477 C 2612.500 2092.747, 2606.807 2090.605, 2597.804 2090.563 C 2590.153 2090.527, 2590.019 2090.571, 2575.304 2098.135 C 2552.473 2109.868, 2539.830 2114.180, 2518.500 2117.506 C 2504.593 2119.675, 2468.310 2120.563, 2454.500 2119.073 C 2427.816 2116.195, 2407.548 2107.928, 2392.375 2093.734 C 2371.745 2074.436, 2363.607 2050.355, 2361.035 2001 C 2360.476 1990.275, 2360.015 1980.719, 2360.010 1979.765 C 2360.001 1978.127, 2367.432 1978.014, 2491.250 1977.765 L 2622.500 1977.500 2628.196 1974.830 C 2634.662 1971.799, 2641.928 1965.029, 2644.815 1959.345 C 2649.479 1950.163, 2649.935 1934.968, 2646.385 1907 C 2642.226 1874.228, 2630.586 1841.217, 2614.826 1817.500 C 2607.442 1806.386, 2589.710 1788.830, 2578.064 1781.101 C 2545.122 1759.239, 2499.136 1748.579, 2452.500 1751.994 M 2802.828 1752.049 C 2773.447 1754.118, 2745.864 1761.900, 2725.587 1773.840 C 2716.295 1779.312, 2702.673 1791.797, 2696.395 1800.595 C 2690.354 1809.061, 2684.478 1821.942, 2681.785 1832.623 C 2679.878 1840.182, 2679.546 1844.172, 2679.546 1859.500 C 2679.546 1874.827, 2679.879 1878.818, 2681.784 1886.375 C 2694.162 1935.464, 2736.718 1967.853, 2811.500 1985.102 C 2820.850 1987.259, 2832.775 1990.433, 2838 1992.157 C 2866.292 2001.491, 2885.943 2015.346, 2894.023 2031.654 C 2897.006 2037.674, 2897.463 2039.652, 2897.816 2048.053 C 2898.847 2072.626, 2886.407 2093.309, 2864 2104.275 C 2830.847 2120.499, 2785.373 2122.071, 2744 2108.423 C 2738.225 2106.518, 2727.425 2101.931, 2720 2098.230 L 2706.500 2091.500 2698 2091.524 C 2690.771 2091.544, 2688.752 2091.943, 2684.500 2094.188 C 2677.835 2097.706, 2672.683 2103.233, 2669.432 2110.352 C 2667.054 2115.560, 2666.809 2117.101, 2667.207 2124.352 C 2668.083 2140.300, 2676.206 2149.555, 2699.663 2161.332 C 2717.293 2170.184, 2740.433 2176.868, 2766.500 2180.639 C 2783.756 2183.135, 2818.627 2183.147, 2833.500 2180.662 C 2865.513 2175.312, 2895.430 2164.814, 2914.332 2152.298 C 2931.267 2141.085, 2948.936 2120.076, 2956.485 2102.177 C 2966.005 2079.604, 2969.526 2050.686, 2965.532 2027.881 C 2959.034 1990.775, 2934.397 1961.197, 2893.575 1941.492 C 2875.442 1932.739, 2859.731 1927.807, 2823.500 1919.496 C 2782.098 1909.998, 2754.722 1892.050, 2748.384 1870.248 C 2746.261 1862.947, 2746.886 1851.241, 2749.741 1844.824 C 2752.296 1839.083, 2758.593 1832.111, 2764.853 1828.095 C 2787.264 1813.713, 2832.061 1813.301, 2876.374 1827.068 C 2881.893 1828.782, 2890.254 1831.912, 2894.954 1834.024 C 2906.146 1839.051, 2911.762 1840.373, 2919.334 1839.765 C 2927.285 1839.127, 2932.547 1836.409, 2938.368 1829.936 C 2948.846 1818.281, 2948.271 1800.231, 2936.967 1785.958 C 2930.886 1778.281, 2914.681 1769.159, 2896.133 1762.974 C 2869.602 1754.126, 2833.450 1749.893, 2802.828 1752.049 M 1669 1753.058 C 1647.028 1755.776, 1624.137 1762.400, 1607.006 1770.997 C 1561.063 1794.052, 1535.696 1830.655, 1524.534 1890 C 1516.180 1934.415, 1516.470 2011.426, 1525.150 2053.500 C 1536.131 2106.726, 1568.786 2147.701, 1616.401 2168 C 1649.506 2182.114, 1695.030 2186.742, 1729.769 2179.526 C 1752.833 2174.735, 1776.723 2165.209, 1789.750 2155.610 L 1796 2151.004 1796 2184.430 C 1796 2228.864, 1794.405 2239.572, 1784.937 2258.687 C 1774.059 2280.650, 1755.605 2294.037, 1730.695 2298.038 C 1719.044 2299.910, 1693.798 2298.765, 1676.927 2295.600 C 1659.598 2292.349, 1649.056 2288.794, 1625.500 2278.255 C 1615.050 2273.580, 1604.700 2269.090, 1602.500 2268.277 C 1593.101 2264.806, 1577.715 2269.321, 1569.683 2277.908 C 1563.457 2284.564, 1561.639 2289.990, 1562.203 2300.226 C 1562.751 2310.178, 1565.587 2316.521, 1572.224 2322.638 C 1577.317 2327.333, 1602.356 2340.020, 1617.360 2345.508 C 1639.362 2353.557, 1667.384 2359.830, 1691.331 2362.069 C 1707.086 2363.542, 1735.118 2362.793, 1747.500 2360.567 C 1790.892 2352.769, 1826.064 2326.825, 1845.305 2288.424 C 1853.236 2272.593, 1859.964 2248.056, 1862.009 2227.500 C 1862.773 2219.815, 1863.012 2153.974, 1862.801 2009 L 1862.500 1801.500 1860.321 1796.783 C 1857.470 1790.612, 1849.699 1782.385, 1844.020 1779.523 C 1824.634 1769.758, 1786.795 1759.861, 1750 1754.933 C 1732.415 1752.578, 1682.265 1751.417, 1669 1753.058 M 810.734 1762.027 C 804.895 1763.498, 799.780 1766.455, 795.261 1770.974 C 790.161 1776.075, 787.228 1781.966, 785.972 1789.636 C 784.725 1797.252, 784.747 1953.111, 786 1987.500 C 787.842 2038.036, 793.904 2069.066, 807.570 2097.917 C 827.452 2139.888, 863.664 2167.184, 914.366 2178.419 C 933.505 2182.660, 943.378 2183.296, 980.915 2182.707 C 1027.786 2181.971, 1051.164 2178.761, 1081.750 2168.860 C 1092.855 2165.265, 1094.542 2164.392, 1099.798 2159.527 C 1102.987 2156.574, 1106.797 2151.952, 1108.265 2149.255 C 1114.321 2138.128, 1114 2148.689, 1114 1960.327 C 1114 1789.021, 1113.989 1788.045, 1111.946 1782.586 C 1109.228 1775.321, 1102.342 1767.803, 1095.207 1764.313 C 1090.428 1761.975, 1088.218 1761.523, 1081.505 1761.513 C 1067.884 1761.491, 1057.708 1767.755, 1051.771 1779.814 L 1048.500 1786.457 1048 1945.023 C 1047.529 2094.343, 1047.397 2103.745, 1045.736 2106.280 C 1043.176 2110.187, 1040.321 2111.744, 1031.655 2113.960 C 1017.364 2117.615, 997.441 2119.338, 968.500 2119.422 C 939.877 2119.505, 936.546 2119.141, 921.500 2114.296 C 904.797 2108.917, 891.814 2100.799, 880.067 2088.390 C 864.124 2071.547, 856.708 2049.862, 852.917 2009 C 852.178 2001.043, 851.528 1957.975, 851.128 1890.500 L 850.500 1784.500 848.262 1779.960 C 845.199 1773.743, 838.529 1767.193, 832.348 1764.330 C 826.522 1761.631, 816.532 1760.567, 810.734 1762.027 M 1176.951 1762.300 C 1160.607 1766.930, 1149.905 1784.652, 1153.891 1800.483 C 1155.840 1808.222, 1260.778 2085.872, 1265.458 2095.671 C 1271.493 2108.308, 1276.165 2115.325, 1283.897 2123.365 C 1291.488 2131.256, 1299.344 2136.893, 1308.989 2141.366 L 1315.745 2144.500 1283.168 2230.500 L 1250.592 2316.500 1250.561 2324.500 C 1250.524 2334.067, 1252.623 2339.466, 1259.121 2346.515 C 1265.264 2353.180, 1271.771 2356.227, 1281 2356.762 C 1286.992 2357.108, 1289.646 2356.763, 1294.202 2355.044 C 1301.106 2352.439, 1309.115 2345.488, 1311.851 2339.728 C 1316.319 2330.320, 1515.193 1803.324, 1516.074 1798.555 C 1519.341 1780.884, 1505.663 1763.293, 1487.153 1761.358 C 1476.486 1760.243, 1464.200 1765.766, 1457.919 1774.500 C 1456.106 1777.020, 1434.690 1831.955, 1400.028 1923 C 1369.770 2002.475, 1344.331 2068.987, 1343.497 2070.805 C 1341.742 2074.629, 1336.337 2077.374, 1332.473 2076.404 C 1326.048 2074.791, 1321.098 2064.836, 1301.609 2014.334 C 1287.184 1976.951, 1262.162 1909.409, 1237.581 1841.500 C 1226.233 1810.150, 1215.974 1782.344, 1214.784 1779.709 C 1212.186 1773.958, 1204.604 1766.597, 1198.494 1763.894 C 1192.798 1761.375, 1182.822 1760.636, 1176.951 1762.300 M 1937.718 1762.030 C 1929.161 1764.184, 1920.548 1771.148, 1916.161 1779.460 L 1913.500 1784.500 1913.500 1897 C 1913.500 1999.601, 1913.659 2010.776, 1915.312 2024 C 1920.569 2066.080, 1929.893 2093.909, 1947.231 2119.277 C 1970.378 2153.144, 2011.754 2175.745, 2061.974 2181.953 C 2072.755 2183.285, 2121.690 2183.313, 2138.605 2181.996 C 2165.015 2179.940, 2191.525 2174.879, 2211.402 2168.098 C 2225.631 2163.244, 2231.031 2158.492, 2237.257 2145.347 L 2240.500 2138.500 2240.761 1963.041 C 2241.057 1764.027, 2241.855 1782.278, 2232.415 1772.081 C 2225.153 1764.238, 2219.175 1761.613, 2208.500 1761.581 C 2201.940 1761.561, 2199.483 1762.028, 2194.852 1764.176 C 2184.584 1768.939, 2178.164 1777.251, 2176.091 1788.465 C 2175.333 1792.565, 2175 1841.625, 2175 1949.149 L 2175 2103.930 2171.906 2107.454 C 2166.575 2113.525, 2150.956 2116.959, 2119 2119.083 C 2093.299 2120.792, 2069.017 2119.861, 2056.926 2116.704 C 2024.103 2108.134, 2000.659 2088.674, 1990.474 2061.544 C 1986.862 2051.924, 1983.373 2036.819, 1981.340 2022 C 1979.838 2011.048, 1979.556 1995.692, 1979.063 1898 L 1978.500 1786.500 1975.852 1780.852 C 1970.585 1769.618, 1960.050 1762.342, 1947.848 1761.511 C 1944.357 1761.273, 1939.798 1761.507, 1937.718 1762.030 M 1686 1815.128 C 1667.170 1816.255, 1652.316 1820.112, 1638.257 1827.526 C 1608.668 1843.129, 1595.284 1865.907, 1589.503 1910.500 C 1585.638 1940.308, 1585.615 2005, 1589.460 2030.220 C 1593.791 2058.627, 1601.399 2075.469, 1616.952 2091.080 C 1635.008 2109.203, 1658.159 2118.266, 1690 2119.676 C 1709.961 2120.559, 1729.492 2117.911, 1747.065 2111.938 C 1771.720 2103.558, 1787.302 2087.778, 1793.028 2065.391 C 1794.932 2057.947, 1795 2053.889, 1795 1948.290 C 1795 1828.344, 1795.324 1834.770, 1789.119 1831.562 C 1784.405 1829.124, 1764.308 1823.358, 1751 1820.626 C 1727.975 1815.898, 1705.250 1813.976, 1686 1815.128 M 141.500 1816.454 C 106.764 1821.910, 85.633 1834.573, 75.076 1856.260 C 67.774 1871.258, 68 1867.067, 68 1987.557 C 68 2106.599, 67.652 2100.237, 74.327 2103.302 C 83.871 2107.684, 109.437 2114.110, 129 2117.043 C 167.039 2122.747, 199.418 2119.821, 222.429 2108.602 C 254.191 2093.115, 268.915 2068.656, 274.671 2021.820 C 276.903 2003.655, 277.246 1936.478, 275.204 1917.380 C 272.561 1892.658, 266.750 1871.608, 258.917 1858.376 C 254.216 1850.437, 242.073 1837.867, 233.772 1832.349 C 221.772 1824.371, 206.045 1818.743, 188.308 1816.080 C 178.817 1814.655, 151.571 1814.873, 141.500 1816.454 M 542.922 1816.552 C 500.794 1824.181, 473.518 1848.910, 463.449 1888.604 C 458.531 1907.990, 457.597 1920.005, 457.588 1964 C 457.580 2007.840, 458.609 2021.829, 463.404 2043 C 470.622 2074.868, 485.535 2094.682, 512.525 2108.263 C 528.355 2116.229, 544.348 2119.494, 567.500 2119.484 C 592.103 2119.475, 606.671 2116.331, 624.436 2107.199 C 656.376 2090.780, 670.483 2065.608, 676.206 2014.817 C 678.245 1996.724, 677.890 1925.880, 675.681 1910 C 671.564 1880.404, 663.913 1861.790, 649.439 1846.157 C 634.893 1830.446, 616.004 1820.771, 591.619 1816.541 C 580.555 1814.621, 553.548 1814.627, 542.922 1816.552 M 2441.500 1816.552 C 2412.223 1821.984, 2389.664 1837.700, 2375.523 1862.515 C 2368.078 1875.580, 2362.015 1898.107, 2362.004 1912.750 L 2362 1918 2471.117 1918 L 2580.235 1918 2579.540 1910.250 C 2575.366 1863.743, 2547.992 1829.335, 2506.429 1818.352 C 2497.316 1815.944, 2494.569 1815.701, 2473 1815.398 C 2455.298 1815.149, 2447.526 1815.433, 2441.500 1816.552 M 2566 2256.142 C 2553.588 2258.193, 2540.953 2267.121, 2536.254 2277.163 C 2533.251 2283.580, 2532.015 2292.277, 2532.015 2307 C 2532.015 2328.795, 2534.518 2337.569, 2543.227 2346.307 C 2562.786 2365.929, 2601.440 2361.134, 2613 2337.651 C 2617.397 2328.719, 2616.129 2326.620, 2605.588 2325.381 C 2600.965 2324.838, 2599.614 2325.040, 2597.983 2326.515 C 2596.892 2327.502, 2596 2328.834, 2596 2329.475 C 2596 2332.044, 2588.821 2338.903, 2584.342 2340.614 C 2571.409 2345.553, 2557.448 2339.728, 2553.357 2327.687 C 2551.136 2321.152, 2550.792 2296.249, 2552.814 2288.401 C 2557.350 2270.791, 2581.338 2265.668, 2593.001 2279.818 C 2594.651 2281.819, 2596 2283.958, 2596 2284.573 C 2596 2286.585, 2599.597 2289, 2602.579 2288.989 C 2608.963 2288.965, 2613.148 2287.704, 2614.698 2285.338 C 2616.158 2283.110, 2616.057 2282.559, 2613.086 2276.523 C 2607.815 2265.816, 2596.668 2258.231, 2583 2256.052 C 2575.585 2254.869, 2573.645 2254.879, 2566 2256.142 M 2723.510 2256.175 C 2709.648 2258.819, 2696.787 2269.475, 2693.116 2281.360 C 2688.506 2296.286, 2689.502 2325.336, 2695.011 2336.623 C 2700.410 2347.683, 2712.360 2355.875, 2726.515 2358.221 C 2743.726 2361.073, 2763.708 2352.189, 2771.196 2338.355 C 2775.282 2330.806, 2776.239 2323.489, 2775.831 2302.913 C 2775.478 2285.114, 2775.370 2284.291, 2772.582 2278.218 C 2764.853 2261.381, 2744.397 2252.192, 2723.510 2256.175 M 1914.200 2258.200 C 1913.529 2258.871, 1913 2262.089, 1913 2265.500 C 1913 2268.911, 1913.529 2272.129, 1914.200 2272.800 C 1915.017 2273.617, 1919.800 2274, 1929.200 2274 L 1943 2274 1943 2313.929 C 1943 2348.894, 1943.195 2354.052, 1944.571 2355.429 C 1945.670 2356.528, 1948.054 2357, 1952.500 2357 C 1956.946 2357, 1959.330 2356.528, 1960.429 2355.429 C 1961.805 2354.052, 1962 2348.894, 1962 2313.929 L 1962 2274 1975.943 2274 C 1989.218 2274, 1989.961 2273.893, 1991.443 2271.777 C 1992.299 2270.555, 1993 2267.730, 1993 2265.500 C 1993 2263.270, 1992.299 2260.445, 1991.443 2259.223 L 1989.887 2257 1952.643 2257 C 1925.010 2257, 1915.090 2257.310, 1914.200 2258.200 M 2073.571 2258.571 C 2072.188 2259.955, 2072 2265.736, 2072 2307 C 2072 2348.264, 2072.188 2354.045, 2073.571 2355.429 C 2074.936 2356.794, 2079.476 2357, 2108.137 2357 C 2128.969 2357, 2141.845 2356.618, 2143.066 2355.965 C 2144.662 2355.110, 2145 2353.835, 2145 2348.665 C 2145 2345.126, 2144.478 2341.878, 2143.800 2341.200 C 2142.929 2340.329, 2135.533 2340, 2116.800 2340 L 2091 2340 2091 2327.500 L 2091 2315 2112.429 2315 C 2137.253 2315, 2137 2315.087, 2137 2306.584 C 2137 2298.007, 2136.981 2298, 2112.171 2298 L 2091 2298 2091 2286 L 2091 2274 2116.800 2274 C 2135.533 2274, 2142.929 2273.671, 2143.800 2272.800 C 2144.478 2272.122, 2145 2268.874, 2145 2265.335 C 2145 2260.165, 2144.662 2258.890, 2143.066 2258.035 C 2141.845 2257.382, 2128.969 2257, 2108.137 2257 C 2079.476 2257, 2074.936 2257.206, 2073.571 2258.571 M 2234.200 2258.200 C 2233.300 2259.100, 2233 2271.311, 2233 2307 C 2233 2342.689, 2233.300 2354.900, 2234.200 2355.800 C 2235.086 2356.686, 2244.210 2357, 2269.045 2357 C 2307.671 2357, 2306 2357.396, 2306 2348.243 C 2306 2339.811, 2306.655 2340, 2277.429 2340 L 2252 2340 2252 2300.155 C 2252 2253.876, 2252.733 2257, 2241.871 2257 C 2238.171 2257, 2234.886 2257.514, 2234.200 2258.200 M 2381.571 2258.571 C 2380.188 2259.955, 2380 2265.736, 2380 2307 C 2380 2348.264, 2380.188 2354.045, 2381.571 2355.429 C 2382.937 2356.794, 2387.509 2357, 2416.500 2357 C 2445.491 2357, 2450.063 2356.794, 2451.429 2355.429 C 2453.335 2353.522, 2453.609 2343.009, 2451.800 2341.200 C 2450.929 2340.329, 2443.533 2340, 2424.800 2340 L 2399 2340 2399 2327.500 L 2399 2315 2420.429 2315 C 2445.253 2315, 2445 2315.087, 2445 2306.584 C 2445 2298.007, 2444.981 2298, 2420.171 2298 L 2399 2298 2399 2286 L 2399 2274 2424.800 2274 C 2443.533 2274, 2450.929 2273.671, 2451.800 2272.800 C 2453.609 2270.991, 2453.335 2260.478, 2451.429 2258.571 C 2450.063 2257.206, 2445.491 2257, 2416.500 2257 C 2387.509 2257, 2382.937 2257.206, 2381.571 2258.571 M 2850.557 2259.223 C 2849.202 2261.156, 2849 2267.442, 2849 2307.568 C 2849 2361.028, 2848.168 2357, 2859.206 2357 C 2863.437 2357, 2866.146 2356.529, 2866.859 2355.669 C 2867.581 2354.800, 2868.057 2345.923, 2868.232 2330.062 L 2868.500 2305.784 2878.918 2330.447 C 2885.023 2344.900, 2890.067 2355.501, 2891.102 2356.055 C 2893.660 2357.423, 2903.332 2357.215, 2905.275 2355.750 C 2906.187 2355.063, 2911.433 2343.700, 2916.934 2330.500 L 2926.936 2306.500 2926.968 2330.095 C 2927.005 2357.633, 2926.784 2357, 2936.394 2357 C 2946.922 2357, 2946 2361.801, 2946 2307 C 2946 2252.140, 2946.951 2257, 2936.221 2257 C 2931.844 2257, 2929.911 2257.454, 2928.771 2258.750 C 2927.925 2259.713, 2920.803 2276.137, 2912.944 2295.250 C 2905.086 2314.363, 2898.385 2330, 2898.054 2330 C 2897.722 2330, 2890.987 2314.588, 2883.086 2295.750 C 2875.186 2276.912, 2868.099 2260.488, 2867.338 2259.250 C 2866.118 2257.267, 2865.133 2257, 2859.034 2257 C 2853.016 2257, 2851.910 2257.290, 2850.557 2259.223 M 2726.821 2272.384 C 2720.456 2274.113, 2715.664 2278.007, 2712.867 2283.723 C 2710.800 2287.948, 2710.487 2290.245, 2710.162 2303.594 C 2709.666 2323.921, 2710.748 2329.012, 2716.867 2335.137 C 2728.631 2346.912, 2748.926 2343.123, 2754.738 2328.066 C 2757.001 2322.201, 2757.277 2294.172, 2755.142 2286.830 C 2751.938 2275.806, 2738.831 2269.120, 2726.821 2272.384" stroke="none" fill="#009dcc" fill-rule="evenodd"/><path d="M 700 492.627 C 664.129 497.484, 635.806 511.182, 611.419 535.468 C 582.327 564.440, 565.565 602.980, 558.343 657.500 C 556.162 673.971, 555.845 725.239, 557.808 744 C 567.348 835.143, 595.990 928.044, 645.522 1028.500 C 771.799 1284.607, 995.991 1499.432, 1175.500 1536.337 C 1196.959 1540.749, 1204.559 1541.502, 1227 1541.444 C 1244.780 1541.398, 1250.537 1541.006, 1260.272 1539.182 C 1291.795 1533.273, 1317.893 1519.825, 1338.978 1498.624 C 1351.149 1486.386, 1359.637 1474.336, 1367.946 1457.500 C 1385.053 1422.837, 1392.258 1386.265, 1392.178 1334.500 C 1392.028 1237.659, 1359.785 1120.808, 1299.792 999.681 C 1219.244 837.054, 1100.087 688.801, 973.155 593.286 C 874.169 518.800, 775.432 482.415, 700 492.627" stroke="none" fill="#0454a4" fill-rule="evenodd"/><path d="M 2217.761 492.085 C 2141.287 500.175, 2051.774 544.568, 1962 618.928 C 1931.368 644.300, 1884.886 689.225, 1856.905 720.500 C 1736.812 854.736, 1643.821 1018.632, 1600.166 1173 C 1588.858 1212.985, 1581.839 1249.010, 1577.369 1290 C 1575.229 1309.617, 1574.934 1357.297, 1576.849 1374 C 1585.021 1445.300, 1611.372 1493.760, 1656.500 1520.482 C 1700.434 1546.498, 1759.088 1548.861, 1826.500 1527.331 C 1866.833 1514.449, 1914.769 1490.307, 1959.500 1460.346 C 2096.143 1368.822, 2229.935 1210.949, 2317.422 1038 C 2409.725 855.532, 2436.460 680.665, 2387.521 579.500 C 2362.868 528.539, 2319.820 498.417, 2262.500 492.021 C 2252.106 490.861, 2229.018 490.894, 2217.761 492.085" stroke="none" fill="#ec5c0c" fill-rule="evenodd"/></svg>