<svg xmlns="http://www.w3.org/2000/svg" width="1860" height="740" viewBox="0 0 1860 740" version="1.1"><path d="M 292.500 246.579 C 291.745 246.897, 291.398 309.681, 291.990 339 C 292.010 340.016, 384.999 339.517, 385.019 338.500 C 385.486 314.901, 385.286 247.324, 384.750 247.655 C 384.337 247.910, 384 247.641, 384 247.059 C 384 246.328, 369.981 246.024, 338.750 246.079 C 313.863 246.122, 293.050 246.347, 292.500 246.579" stroke="none" fill="#04ac7c" fill-rule="evenodd"/><path d="M 267.500 185.051 C 258.211 185.937, 245.439 189.042, 238.410 192.123 C 233.073 194.462, 219.892 202.643, 218.862 204.257 C 218.511 204.806, 217.728 204.950, 217.123 204.576 C 216.443 204.156, 216.240 204.461, 216.590 205.374 C 216.929 206.256, 216.206 207.474, 214.795 208.399 C 212.143 210.136, 203.306 221.493, 200.081 227.308 C 194.649 237.102, 190.867 249.233, 186.769 270 C 184.512 281.438, 184.500 281.980, 184.514 371 C 184.525 437.968, 184.839 462.073, 185.764 466.750 C 186.444 470.188, 187.463 475.813, 188.029 479.250 C 191.996 503.338, 202.020 522.973, 217.527 537.029 C 220.812 540.007, 223.376 542.827, 223.225 543.296 C 223.074 543.765, 223.381 543.883, 223.906 543.558 C 224.432 543.233, 226.471 544.058, 228.437 545.392 C 234.205 549.307, 245.729 553.652, 257 556.162 C 266.050 558.177, 270.194 558.498, 287 558.489 C 303.449 558.479, 308.143 558.124, 317 556.219 C 322.775 554.977, 328.400 553.561, 329.500 553.072 C 341.544 547.717, 345.729 545.651, 347.171 544.345 C 348.108 543.497, 349.422 543.143, 350.091 543.557 C 350.792 543.990, 351.051 543.892, 350.702 543.327 C 350.368 542.786, 352.133 540.640, 354.625 538.557 C 364.073 530.660, 373.313 515.465, 377.840 500.384 C 383.102 482.855, 384.203 473.968, 384.868 443.664 C 385.215 427.804, 385.295 414.625, 385.045 414.375 C 384.410 413.744, 325.039 414.048, 323.363 414.691 C 322.240 415.122, 322 423.290, 322 461.119 L 322 507.024 284.750 506.762 L 247.500 506.500 247.246 377 L 246.993 247.500 268.246 247.241 C 279.936 247.099, 290.288 246.986, 291.250 246.991 C 292.880 246.999, 293 244.837, 293 215.500 L 293 184 284.250 184.144 C 279.438 184.223, 271.900 184.631, 267.500 185.051 M 414 369.500 L 414.500 554.500 445.750 554.764 L 477 555.028 477 447.514 L 477 340 499.250 340 L 521.500 340 521.228 445.524 C 521.045 516.413, 521.293 551.679, 521.984 552.970 C 522.962 554.798, 524.495 554.895, 553.506 554.971 L 584 555.051 584 443.339 C 584 332.777, 583.978 331.550, 581.892 324.064 C 577.353 307.778, 569.800 297.488, 558.191 291.774 C 551.626 288.542, 551.364 288.501, 538.020 288.602 C 526.432 288.689, 523.321 289.074, 516.251 291.299 C 507.175 294.154, 499.984 297.519, 493.257 302.059 C 490.837 303.693, 488.428 304.764, 487.903 304.440 C 487.379 304.116, 487.074 304.269, 487.225 304.779 C 487.376 305.290, 485.137 307.840, 482.250 310.446 L 477 315.185 477 249.843 L 477 184.500 445.250 184.500 L 413.500 184.500 414 369.500 M 1410.358 185.510 C 1410.144 186.066, 1410.089 200.129, 1410.235 216.760 L 1410.500 247 1441.750 247.250 L 1473 247.500 1473 216 L 1473 184.500 1441.873 184.500 C 1421.831 184.500, 1410.607 184.860, 1410.358 185.510 M 683.659 289.078 C 666.614 291.625, 651.074 298.238, 640.320 307.522 C 637.149 310.260, 634.092 312.520, 633.527 312.545 C 632.962 312.570, 632.633 313.195, 632.796 313.932 C 632.958 314.670, 632.213 316.225, 631.140 317.387 C 628.584 320.156, 622.510 331.324, 620.469 337.009 C 618.738 341.828, 615.169 356.575, 614.542 361.500 C 614.331 363.150, 614.116 391.136, 614.063 423.691 C 613.971 480.187, 614.062 483.322, 616.057 492.529 C 617.206 497.834, 617.865 502.909, 617.521 503.807 C 617.176 504.705, 617.227 505.106, 617.634 504.699 C 618.041 504.293, 619.928 507.906, 621.828 512.730 C 623.727 517.553, 625.556 521.725, 625.891 522 C 626.226 522.275, 628.262 525.116, 630.415 528.312 C 635.444 535.780, 645.295 544.773, 652.136 548.141 C 669.091 556.490, 678.062 558.382, 701 558.449 C 716.213 558.493, 719.741 558.189, 728 556.120 C 738.235 553.555, 751.067 547.687, 757.480 542.639 C 761.034 539.841, 762.985 537.862, 769.220 530.730 C 770.166 529.648, 771.211 527.909, 771.542 526.867 C 771.873 525.824, 772.631 525.272, 773.227 525.640 C 773.822 526.008, 774.032 525.860, 773.693 525.312 C 773.354 524.763, 774.374 521.655, 775.959 518.405 C 781.390 507.272, 783.391 496.477, 783.449 478 C 783.477 468.925, 783.163 461.387, 782.750 461.250 C 782.337 461.113, 768.163 461, 751.250 460.999 L 720.500 460.998 720.786 483.999 L 721.072 507 699.036 507 L 677 507 677 469.509 L 677 432.018 730.250 431.759 L 783.500 431.500 783.500 395 C 783.500 360.464, 783.376 357.962, 781.198 348.500 C 779.185 339.759, 773.115 323.393, 770.812 320.500 C 770.375 319.950, 768.127 317.025, 765.817 314 C 763.508 310.975, 760.826 307.927, 759.858 307.228 C 758.890 306.528, 757.514 305.382, 756.799 304.680 C 751.396 299.376, 740.134 293.973, 728 290.861 C 718.538 288.435, 694.449 287.466, 683.659 289.078 M 928 288.602 C 918.933 290.276, 908.572 293.761, 902.992 297.013 C 897.249 300.359, 884.387 309.291, 882.984 310.906 C 882.700 311.233, 881.125 312.714, 879.484 314.197 L 876.500 316.894 876.500 304.697 L 876.500 292.500 845.260 292 C 820.154 291.598, 813.922 291.756, 813.521 292.803 C 813.247 293.520, 813.130 352.695, 813.261 424.303 L 813.500 554.500 844.432 554.765 C 868.512 554.971, 875.542 554.749, 876.167 553.765 C 876.608 553.069, 876.976 504.688, 876.985 446.250 L 877 340 898.995 340 L 920.991 340 921.245 447.250 L 921.500 554.500 952.500 554.500 L 983.500 554.500 983.500 443.500 L 983.500 332.500 981.275 324.658 C 980.052 320.345, 977.700 314.322, 976.049 311.274 C 974.398 308.226, 973.331 305.273, 973.678 304.712 C 974.040 304.127, 973.816 303.996, 973.155 304.405 C 972.520 304.797, 972 304.685, 972 304.156 C 972 301.993, 961.633 293.455, 956.250 291.185 C 951.736 289.281, 948.350 288.693, 940.500 288.450 C 935 288.280, 929.375 288.349, 928 288.602 M 1081 288.992 C 1055.898 292.986, 1037.885 303.746, 1026.325 321.652 C 1024.248 324.869, 1022.500 327.725, 1022.441 328 C 1022.381 328.275, 1021.808 329.767, 1021.166 331.315 C 1020.525 332.863, 1020 334.577, 1020 335.124 C 1020 335.671, 1019.601 335.871, 1019.113 335.570 C 1018.625 335.268, 1018.283 335.579, 1018.354 336.261 C 1018.484 337.525, 1016.301 347.284, 1015.281 350 C 1013.768 354.025, 1013.500 365.238, 1013.500 424.500 C 1013.500 483.233, 1013.653 489.200, 1015.364 497 C 1017.637 507.367, 1021.187 516.447, 1026.230 524.795 C 1035.780 540.601, 1050.698 550.799, 1072 556.081 C 1079.807 558.017, 1084.174 558.443, 1096.500 558.469 C 1112.924 558.503, 1123.014 557.868, 1122.392 556.839 C 1122.172 556.475, 1123.906 555.862, 1126.246 555.476 C 1128.586 555.090, 1133.108 553.686, 1136.295 552.356 C 1139.482 551.026, 1142.589 550.246, 1143.199 550.623 C 1143.857 551.030, 1144.028 550.855, 1143.619 550.193 C 1143.207 549.526, 1144.482 548.284, 1146.786 547.109 C 1152.333 544.279, 1161.432 536.624, 1165.355 531.486 C 1167.212 529.054, 1169.089 527.387, 1169.526 527.782 C 1169.963 528.177, 1170.051 528.024, 1169.721 527.443 C 1169.391 526.862, 1170.258 524.387, 1171.649 521.943 C 1176.137 514.055, 1178.857 506.516, 1180.991 496.046 C 1182.981 486.278, 1183.076 482.869, 1183.022 422.767 L 1182.966 359.732 1180.526 348.921 C 1179.184 342.975, 1177.647 337.297, 1177.111 336.305 C 1176.576 335.312, 1174.769 331.565, 1173.097 327.979 C 1164.976 310.562, 1147.435 296.899, 1126.081 291.358 C 1118.512 289.394, 1113.350 288.793, 1101.500 288.494 C 1093.250 288.287, 1084.025 288.511, 1081 288.992 M 1281.500 288.650 C 1275.842 289.547, 1257.573 294.109, 1256.536 294.884 C 1255.966 295.310, 1253.030 296.694, 1250.012 297.960 C 1238.199 302.912, 1220.990 317.318, 1216.489 326.020 C 1215.642 327.659, 1214.510 329, 1213.974 329 C 1213.438 329, 1213 329.863, 1213 330.917 C 1213 331.971, 1212.169 334.784, 1211.154 337.167 C 1210.138 339.550, 1208.800 345.550, 1208.180 350.500 C 1206.081 367.254, 1210.434 386.465, 1218.561 396.317 C 1226.237 405.624, 1229.114 408.674, 1235.539 414.317 C 1245.770 423.304, 1246.848 424.158, 1270.821 442.281 C 1272.845 443.810, 1275.625 445.835, 1277 446.781 C 1278.374 447.726, 1280.174 449.025, 1281 449.668 C 1281.825 450.310, 1287.909 454.870, 1294.519 459.801 C 1308.827 470.475, 1319.623 481.449, 1320.502 486.213 C 1320.836 488.021, 1320.972 493.325, 1320.804 498 L 1320.500 506.500 1297.500 506.500 L 1274.500 506.500 1274.224 491.237 L 1273.948 475.973 1240.724 476.237 L 1207.500 476.500 1207.774 481 C 1208.539 493.547, 1211.145 503.657, 1216.152 513.500 C 1219.673 520.420, 1220.661 522.010, 1222.966 524.463 C 1224.288 525.871, 1224.898 527.357, 1224.450 528.080 C 1223.999 528.811, 1224.105 529.053, 1224.712 528.678 C 1225.664 528.090, 1229.308 531.159, 1228.752 532.081 C 1228.613 532.312, 1228.676 532.399, 1228.891 532.275 C 1229.107 532.152, 1231.357 533.762, 1233.891 535.853 C 1241.046 541.757, 1246.807 545.406, 1255.500 549.541 C 1259.900 551.633, 1263.950 553.470, 1264.500 553.623 C 1281.670 558.380, 1282.458 558.491, 1299 558.496 C 1322.539 558.502, 1337.229 554.681, 1355.210 543.874 C 1359.634 541.215, 1363.760 539.327, 1364.377 539.680 C 1364.995 540.032, 1365.179 539.965, 1364.786 539.530 C 1364.394 539.095, 1367.094 535.446, 1370.786 531.420 C 1380.474 520.858, 1385.289 510.780, 1387.083 497.311 C 1389.520 479.021, 1386.180 462.097, 1377.648 449.500 C 1374.361 444.647, 1358.475 428.128, 1353.139 424.014 C 1351.688 422.895, 1341.859 415.512, 1331.297 407.609 C 1320.736 399.705, 1312.411 392.888, 1312.797 392.459 C 1313.184 392.030, 1312.974 391.981, 1312.331 392.349 C 1311.687 392.717, 1310.561 392.452, 1309.827 391.759 C 1309.094 391.067, 1304.915 387.800, 1300.542 384.500 C 1290.792 377.143, 1287.416 374.051, 1287.775 372.805 C 1287.926 372.281, 1287.518 372.180, 1286.867 372.582 C 1285.138 373.651, 1277.321 364.348, 1275.515 359.072 C 1274.682 356.636, 1274 351.349, 1274 347.322 L 1274 340 1297.500 340 L 1321 340 1321 355 L 1321 370 1354.638 370 L 1388.275 370 1387.565 361.254 C 1384.930 328.776, 1359.390 301.131, 1323 291.367 C 1315.354 289.316, 1310.671 288.756, 1299 288.496 C 1291.025 288.319, 1283.150 288.388, 1281.500 288.650 M 1569.500 288.672 C 1544.148 293.703, 1529.652 300.104, 1516.805 311.941 C 1502.295 325.309, 1496.022 339.703, 1496.006 359.662 C 1495.992 376.755, 1501.242 390.522, 1512.500 402.909 C 1519.323 410.417, 1531.012 421.068, 1538.732 426.811 C 1541.609 428.952, 1543.634 431.032, 1543.232 431.435 C 1542.829 431.837, 1542.973 432.017, 1543.551 431.833 C 1544.491 431.536, 1558.078 440.864, 1563.669 445.645 C 1564.862 446.665, 1567.062 448.400, 1568.559 449.500 C 1576.826 455.576, 1586.648 463.166, 1592.670 468.133 C 1606.965 479.923, 1608.872 483.343, 1608.656 496.809 L 1608.500 506.500 1585.500 506.500 L 1562.500 506.500 1562.224 491.250 L 1561.948 476 1529.974 476 C 1512.388 476, 1497.662 475.887, 1497.250 475.750 C 1494.781 474.927, 1496.673 493.132, 1500.070 502.889 C 1501.102 505.853, 1501.664 508.735, 1501.319 509.293 C 1500.973 509.852, 1501.163 510.018, 1501.739 509.661 C 1502.318 509.303, 1503.057 510.093, 1503.392 511.427 C 1503.726 512.755, 1506.018 516.853, 1508.487 520.535 C 1510.956 524.217, 1512.684 527.740, 1512.328 528.365 C 1511.971 528.989, 1512.039 529.175, 1512.479 528.777 C 1512.919 528.380, 1515.761 530.323, 1518.794 533.095 C 1530.513 543.805, 1545.536 551.906, 1561.500 556.123 C 1569.236 558.166, 1572.817 558.500, 1587 558.500 C 1600.811 558.500, 1605.048 558.124, 1613 556.196 C 1618.225 554.928, 1622.900 553.954, 1623.388 554.031 C 1623.877 554.108, 1624.552 553.772, 1624.888 553.284 C 1625.225 552.796, 1627.583 551.616, 1630.129 550.662 C 1648.291 543.854, 1668.511 523.867, 1671.543 509.726 C 1671.924 507.952, 1672.507 506.050, 1672.839 505.500 C 1673.949 503.664, 1674.177 501.580, 1674.700 488.453 C 1675.305 473.268, 1674.012 466.432, 1668.534 455.869 C 1666.643 452.221, 1665.187 449.071, 1665.298 448.869 C 1665.409 448.666, 1665.337 448.588, 1665.139 448.695 C 1664.170 449.216, 1659.949 442.891, 1660.583 441.866 C 1660.993 441.203, 1660.880 440.956, 1660.324 441.300 C 1659.783 441.634, 1656.209 438.891, 1652.382 435.204 C 1641.930 425.133, 1639.277 422.913, 1623.248 410.830 C 1615.136 404.716, 1608.275 399.436, 1608 399.098 C 1607.725 398.759, 1605.846 397.376, 1603.825 396.023 C 1601.804 394.671, 1600.412 393.143, 1600.730 392.628 C 1601.048 392.113, 1600.850 391.975, 1600.288 392.322 C 1598.909 393.174, 1589.864 386.029, 1590.670 384.724 C 1591.039 384.127, 1590.821 383.992, 1590.155 384.404 C 1588.697 385.305, 1578.412 377.465, 1570.500 369.422 C 1563.504 362.310, 1562 358.435, 1562 347.516 L 1562 340 1585.500 340 L 1609 340 1609 354.973 L 1609 369.946 1641.596 370.223 C 1660.305 370.382, 1674.430 370.114, 1674.751 369.595 C 1675.058 369.097, 1675.207 365.512, 1675.081 361.629 C 1674.584 346.299, 1663.670 324.055, 1651.062 312.672 C 1643.496 305.841, 1621.051 293, 1616.679 293 C 1615.939 293, 1615.024 292.691, 1614.646 292.313 C 1614.268 291.935, 1613.181 291.527, 1612.230 291.407 C 1611.278 291.287, 1607.125 290.516, 1603 289.694 C 1596.182 288.335, 1574.525 287.674, 1569.500 288.672 M 1410.366 292.500 C 1410.157 293.050, 1410.101 352.225, 1410.243 424 L 1410.500 554.500 1441.432 554.765 C 1459.474 554.919, 1472.601 554.646, 1472.932 554.110 C 1473.244 553.605, 1473.384 494.311, 1473.243 422.346 L 1472.985 291.500 1441.865 291.500 C 1422.039 291.500, 1410.608 291.863, 1410.366 292.500 M 677 369.500 L 677 399 699 399 L 721 399 721 369.500 L 721 340 699 340 L 677 340 677 369.500 M 1076 423.519 L 1076 507.038 1098.001 506.769 C 1110.102 506.621, 1120.002 506.163, 1120.001 505.750 C 1120.001 505.337, 1120 467.875, 1120 422.500 L 1120 340 1098 340 L 1076 340 1076 423.519" stroke="none" fill="#040c1b" fill-rule="evenodd"/></svg>