<?xml version="1.0" encoding="UTF-8" standalone="no"?>
<!-- Created with Inkscape (http://www.inkscape.org/) -->

<svg
   width="999.99957"
   height="308.5899"
   viewBox="0 0 999.99957 308.5899"
   version="1.1"
   id="svg1"
   inkscape:version="1.3.2 (091e20e, 2023-11-25, custom)"
   sodipodi:docname="China Mobile.svg"
   xmlns:inkscape="http://www.inkscape.org/namespaces/inkscape"
   xmlns:sodipodi="http://sodipodi.sourceforge.net/DTD/sodipodi-0.dtd"
   xmlns="http://www.w3.org/2000/svg"
   xmlns:svg="http://www.w3.org/2000/svg">
  <sodipodi:namedview
     id="namedview1"
     pagecolor="#ffffff"
     bordercolor="#000000"
     borderopacity="0.25"
     inkscape:showpageshadow="2"
     inkscape:pageopacity="0.0"
     inkscape:pagecheckerboard="0"
     inkscape:deskcolor="#d1d1d1"
     inkscape:document-units="px"
     inkscape:zoom="0.33541667"
     inkscape:cx="894.40994"
     inkscape:cy="76.024845"
     inkscape:window-width="1366"
     inkscape:window-height="705"
     inkscape:window-x="-8"
     inkscape:window-y="-8"
     inkscape:window-maximized="1"
     inkscape:current-layer="svg1" />
  <defs
     id="defs1" />
  <g
     id="g147"
     transform="translate(-4.2522286e-4,-4.801313e-4)"
     style="fill:none">
    <path
       id="path4"
       d="m 303.94434,190.02541 c -27.51878,-36.39255 -68.62753,-73.63677 -79.99218,-82.84938 -7.95801,-6.44699 -15.87023,-9.688803 -23.68172,-9.578911 -7.83896,0.09158 -15.39403,3.333391 -22.09744,9.157661 -1.33702,1.16303 -3.26929,2.87551 -5.64112,4.99093 -16.34643,13.77312 -66.83262,60.18416 -67.97733,61.26476 -3.83706,3.58065 -8.736412,5.93417 -14.240168,5.74186 -4.862719,-0.20147 -10.174163,-2.381 -15.63213,-7.42687 C 70.92761,167.85471 53.674573,154.31053 33.518558,131.65447 21.109924,117.70735 10.871657,105.28956 10.871657,105.28956 c 0,0 -2.2711,4.67956 -3.5440151,7.94885 -1.0622889,2.71982 -0.1465226,4.42315 0.3663065,5.16492 6.7400396,9.66133 37.5006296,46.46598 79.8914506,83.00505 7.774855,6.69426 15.870231,9.68881 23.690871,9.58808 7.8298,-0.10074 15.40319,-3.33339 22.08829,-9.15766 1.33701,-1.17219 3.26928,-2.88467 5.65027,-5.00009 16.33727,-13.76397 46.93302,-41.80473 61.42961,-55.25734 3.10444,-2.80224 5.39386,-4.9085 6.54772,-6.00742 3.82791,-3.58065 8.73641,-5.93417 14.23101,-5.7327 4.86272,0.19231 9.98185,2.59162 15.64129,7.42686 9.06609,7.73823 23.75498,21.3282 41.15454,39.671 12.80241,13.48924 22.57364,26.09018 22.67437,26.22755 0,0 2.38099,-4.84441 3.64475,-8.15948 1.04397,-2.72898 0.14652,-4.27663 -0.39378,-4.98177"
       style="fill:#8ec320;fill-opacity:1;fill-rule:nonzero;stroke:none;stroke-width:9.15766" />
    <path
       id="path5"
       style="fill:#0086d0;fill-opacity:1;fill-rule:nonzero;stroke:none;stroke-width:9.15766"
       d="M 156.10156,0.03131407 C 137.03789,0.52973098 114.77341,7.1359501 93.236325,24.546939 64.362242,47.871483 27.182379,82.203304 17.749996,92.560611 c 0,0 7.032042,8.745959 18.076172,19.570309 2.133733,1.82237 4.385744,1.3185 6.253907,-0.65039 28.562721,-27.582854 59.508025,-55.725024 77.457035,-69.617185 30.29351,-23.416119 65.82473,-25.686148 100.45898,1.988282 12.89398,10.320675 24.34062,20.521892 41.0625,37.738281 21.38312,23.306232 35.33966,42.775662 50.60547,64.726562 0,0 -0.0636,-5.87932 -1.75781,-13.68164 -0.28389,-1.31871 -0.87122,-3.46178 -1.81446,-5.35742 -3.0678,-6.1631 -16.5557,-29.294843 -36.13476,-52.152346 C 233.13773,29.78552 208.6403,15.974983 192.92578,7.7422516 183.81906,2.9505093 170.92886,-0.35634353 156.10156,0.03131407 Z M 174.20312,44.796939 C 163.23454,44.687047 151.8957,47.985282 140.57226,56.250064 126.3779,66.625686 67.914597,120.91294 56.449215,133.8985 c 0,0 8.233,9.0834 20.56836,19.3125 3.19602,2.73814 7.079332,2.16165 10.421875,-1.19922 22.50952,-22.63771 68.45213,-63.150567 74.61523,-68.0957 17.32628,-14.707192 37.50228,-15.999325 55.98243,-2.16211 44.86334,33.60859 84.54217,86.49463 91.35546,96.35742 0,0 1.02645,-4.87142 1.63086,-9.23047 0.0366,-0.25642 0.87973,-4.18627 -1.37304,-7.49218 -42.07026,-60.76103 -86.85211,-98.241836 -104.04102,-107.591801 -9.8399,-5.370964 -20.43767,-8.890108 -31.40625,-9 z" />
    <path
       id="path7"
       style="fill:#0086d0;fill-opacity:1;fill-rule:nonzero;stroke:none;stroke-width:9.15766"
       d="m 2.2636683,130.48249 c 0,0 -1.0264543,4.87143 -1.63085941,9.23046 -0.027473,0.24726 -0.86997028,4.17578 1.38281251,7.5 42.0794186,60.74272 86.8527046,98.24319 104.0507786,107.58399 19.67064,10.73277 42.37131,14.06667 65.02735,-2.46289 14.19436,-10.36646 72.65766,-64.66228 84.12304,-77.63867 0,0 -8.2336,-9.0939 -20.57812,-19.30469 -3.19602,-2.7473 -7.07872,-2.1603 -10.41211,1.19141 -22.50952,22.63771 -68.45275,63.15056 -74.625,68.0957 -17.31712,14.70718 -37.49252,16.00787 -55.972657,2.15234 C 48.765558,193.22156 9.0952779,140.35444 2.2636683,130.48249 Z m -2.26171879,31.79492 c 0,0 -0.11950648,5.6687 1.75781249,13.68164 0.3022026,1.30955 0.8601041,3.46178 1.8125,5.35742 3.067814,6.16309 16.557047,29.29484 36.126953,52.15234 38.819293,45.33039 63.316715,59.14032 79.031255,67.37305 20.81534,10.96171 61.40325,14.15734 99.6914,-16.80469 28.86492,-23.31538 66.06176,-57.6466 75.49414,-68.0039 0,0 -7.03204,-8.75513 -18.07617,-19.57032 -2.13374,-1.82236 -4.3955,-1.32765 -6.26367,0.6504 -28.56272,27.5737 -59.50803,55.72381 -77.45703,69.59765 -30.29352,23.43444 -65.8339,25.70642 -100.458987,-1.98633 C 78.775334,254.41315 67.319528,244.21119 50.597653,227.00397 29.214531,203.68858 15.258601,184.23746 0.00194951,162.27741 Z" />
  </g>
  <g
     id="g148"
     style="fill:#0086d0;fill-opacity:1"
     transform="translate(-4.2522286e-4,-4.801313e-4)">
    <path
       id="path9"
       style="fill:#0086d0;fill-opacity:1;fill-rule:nonzero;stroke:none;stroke-width:9.15766"
       d="m 781.3418,15.791016 -0.51172,1.0625 c -7.17959,14.47825 -17.61958,27.327479 -30.95313,38.261718 -0.13736,0.119049 6.89468,5.513116 11.01563,8.123047 8.04042,-7.152128 14.6536,-14.2769 19.64453,-21.154297 h 39.14844 c -6.91404,8.992816 -13.68987,16.327529 -21.49219,21.4375 -5.16492,-4.587984 -9.61716,-8.250232 -16.26563,-13.460937 l -0.94335,-0.734375 -8.42383,9.140625 1.09961,0.861328 c 5.93416,4.871871 9.33907,7.892712 13.24023,11.601563 -10.23825,5.549537 -21.46383,9.935901 -34.27539,13.736328 0,0 8.3869,11.392965 8.625,11.310546 7.61001,-2.655719 23.06881,-9.523504 29.75391,-12.554687 -8.8463,17.463645 -28.24138,31.445845 -41.70313,38.808595 0,0 5.80411,6.22782 10.35547,9.83594 21.4747,-9.83532 36.20117,-28.92969 36.20117,-28.92969 h 29.63477 c -1.91396,10.20163 -10.81634,22.87679 -23.28907,30.52344 -4.9726,-4.92682 -9.79912,-9.77207 -15.6875,-15.04688 l -9.44921,8.22461 c 5.17407,4.78946 9.76168,9.71525 13.64453,13.78125 -18.91971,8.17779 -44.14063,9.33203 -44.14063,9.33203 l 5.23047,11.52149 c 0,0 74.07473,-1.87864 89.05664,-58.83008 l 0.10156,-12.363283 h -36.5664 c 2.37183,-3.168548 3.36133,-6.703125 3.36133,-6.703125 l -13.21485,-2.22461 c 2.51836,-1.382805 4.92578,-2.847883 7.2793,-4.322265 15.79695,-10.119207 26.91531,-22.079394 33.84766,-35.513672 l 0.16406,-0.310547 V 29.189453 h -46.51172 c 1.47438,-2.353517 2.83915,-4.798439 4.09375,-7.234375 l 0.67773,-1.328125 z M 436.50977,17.138672 V 44.335938 H 381.14258 V 120.4082 h 55.36719 v 41.29297 h 14.99218 V 120.4082 h 55.92578 V 44.335938 H 451.50195 V 17.138672 Z m 510.62304,0.300781 V 18.75 c 0.0275,9.661324 -8.3e-4,19.039133 -0.10156,28.160156 h -18.74414 v 13.625 h 18.54297 v 18.105469 c 0,27.546225 -4.72487,41.612575 -15.4668,57.958985 -6.39204,9.97268 -18.12305,16.75 -18.12305,16.75 l 10.7793,10.4668 c 0,0 36.7207,-19.23114 36.7207,-79.580082 l 0.28516,-23.701172 h 24.58789 c -0.27473,24.67072 -1.17188,48.948674 -2.55469,72.181644 -0.22894,7.27117 -3.32549,10.65039 -9.69921,10.65039 -5.36639,-0.10989 -16.17188,-0.13672 -16.17188,-0.13672 0.83334,4.34073 2.44531,14.45898 2.44531,14.45898 h 17.31641 c 12.24379,-0.20146 19.03914,-7.51923 20.1289,-21.84179 1.2546,-21.97837 2.21626,-51.501138 2.88477,-87.527348 L 1000,46.910156 h -38.70898 c 0.174,-9.276702 0.29284,-18.682851 0.32031,-28.115234 V 17.439453 Z M 541.71484,22.339844 V 158.01953 l 128.39844,-0.0742 V 22.339844 Z m 210.18555,0.667968 c 0,0 -12.52729,3.178015 -25.41211,4.917969 -16.5204,2.22531 -26.38281,3.195313 -26.38281,3.195313 L 701.57031,44.125 c 0,0 10.98938,-1.162815 19.47852,-2.673828 v 19.78125 H 698.3457 v 12.902344 h 20.74219 c -5.60448,17.298807 -14.11991,34.057594 -23.36914,47.281254 0,0 9.69675,10.47586 9.80664,10.34765 5.925,-8.35178 11.14608,-17.73735 15.52344,-27.90234 V 161.6543 H 734.3457 V 98.255859 c 4.92682,4.478091 9.4591,8.690861 13.72657,12.683591 l 0.9707,0.99024 9.41406,-10.52344 -0.9707,-0.87891 C 751.26828,95.041909 734.3457,81.296875 734.3457,81.296875 v -7.162109 h 19.95508 V 61.232422 H 734.3457 V 40.408203 c 14.10279,-2.316887 20.32032,-4.195312 20.32032,-4.195312 z m 114.58984,7.802735 v 13.296875 h 60.35743 V 30.810547 Z M 555.45898,35.197266 H 656.39453 V 145.0332 H 555.45898 Z M 565.45117,46.625 v 12.445312 h 33.63477 v 18.902344 h -30.87891 v 12.425782 h 30.87891 v 29.855472 h -35.88867 v 12.46289 h 85.25781 V 120.25391 H 612.38281 V 90.398438 h 30.90821 V 77.972656 H 612.38281 V 59.070312 h 33.78321 V 46.625 Z M 395.58008,57.632812 h 40.92969 v 49.423828 h -40.92969 z m 55.91797,0 h 41.43359 v 49.423828 h -41.43359 z m 409.0039,10.861329 v 13.341797 h 23.7168 c -1.41944,7.573379 -9.69655,32.703642 -20.92383,53.216792 -1.39197,2.53667 -3.33398,4.03711 -3.33398,4.03711 l 3.96484,9.56055 c 0,0 38.72781,-10.45791 50.36719,-12.20703 l 1.39258,3.49023 13.62695,-5.16601 C 925.01756,124.16302 918.4151,109.228 913.48828,98.541016 l -0.56836,-1.21875 -12.32617,5.531254 0.55859,1.24609 c 3.26012,7.26201 6.20931,13.85413 9.18555,21.33594 l -31.77734,7.50976 c 7.01476,-11.46539 15.77904,-37.29963 20.54101,-51.109372 h 33.49805 V 68.494141 Z m -233.88672,23.048828 -10.19335,7.693359 1.03515,1.072262 c 4.16673,4.36821 9.45038,10.78629 13.91016,16.77539 l 0.85156,1.08985 10.63281,-8.09571 L 642,108.99805 c -3.77295,-4.81693 -9.37852,-11.189522 -14.58008,-16.574222 z" />
    <path
       id="path18"
       style="fill:#0086d0;fill-opacity:1;fill-rule:nonzero;stroke:none;stroke-width:9.15766"
       d="m 470.48633,187.40625 v 86.41211 h 11.19922 v -40.01953 c 1.9231,-2.72899 4.25907,-4.95345 6.89648,-6.54688 2.69235,-1.60259 5.54794,-2.4375 8.50586,-2.4375 3.49823,0 5.91673,0.9802 7.42773,2.97657 1.52933,2.00552 2.30665,5.19372 2.30665,9.40625 v 36.62109 h 11.18164 v -38.0957 c 0,-4.18505 -0.57708,-7.63713 -1.76758,-10.32032 -1.19965,-2.7015 -2.76439,-4.84493 -4.6875,-6.39257 -1.89564,-1.52933 -3.97465,-2.58297 -6.18164,-3.21485 -4.31326,-1.14471 -8.78321,-1.14419 -12.51953,-0.10937 -1.78574,0.45788 -3.52389,1.14456 -5.08985,1.96875 -1.57512,0.78755 -3.04066,1.82269 -4.35937,2.97656 -0.59524,0.57693 -1.20922,1.11643 -1.71289,1.69336 v -34.91797 z m 375.20703,0 v 86.41211 h 8.68164 l 1.53906,-5.0918 c 0.20147,0.19231 0.37484,0.34858 0.54883,0.56836 0.80588,0.94324 1.88564,1.81276 3.22266,2.72852 1.33702,0.8883 2.97693,1.64802 4.83593,2.28906 1.93226,0.60441 4.14867,0.95312 6.59375,0.95312 3.26929,0 6.49213,-0.65178 9.55079,-1.8789 3.08612,-1.26376 5.83312,-3.19563 8.23242,-5.75977 2.37184,-2.56414 4.32275,-5.84237 5.74218,-9.73437 1.43775,-3.8279 2.16993,-8.49876 2.16993,-13.7461 0,-3.79126 -0.40142,-7.1788 -1.15235,-10.13671 -0.75093,-2.93046 -1.76736,-5.49505 -3.05859,-7.65625 -1.30955,-2.15205 -2.82073,-4.00158 -4.5332,-5.4668 -1.68501,-1.44692 -3.47949,-2.61879 -5.34766,-3.52539 -1.7949,-0.90661 -3.70007,-1.54728 -5.5957,-1.87695 -1.84985,-0.37546 -3.61739,-0.55079 -5.23828,-0.55079 -3.49823,0 -6.67641,0.60504 -9.45118,1.80469 -2.02383,0.94324 -3.89251,2.10596 -5.56836,3.52539 v -32.85742 z m 83.82031,0 v 86.41211 h 11.19922 v -86.41211 z m -506.96875,4.3125 c -22.80256,0 -41.39258,18.57305 -41.39258,41.38477 0,22.82087 18.59002,41.42968 41.39258,41.42968 16.5021,0 31.41114,-9.79929 37.98633,-24.92773 l 0.6875,-1.52149 h -11.91406 l -0.29297,0.50391 c -5.54039,9.37744 -15.64245,15.19336 -26.4668,15.19336 -16.88671,0 -30.64062,-13.74523 -30.64062,-30.67773 0,-16.88672 13.75391,-30.63282 30.64062,-30.63282 10.77856,0 20.85172,5.72256 26.35547,15.01758 l 0.33984,0.53125 h 11.89454 L 460.47656,216.5 c -6.63013,-15.05518 -21.5028,-24.78125 -37.93164,-24.78125 z m 107.54883,1.72266 v 12.28125 h 11.19922 v -12.28125 z m 375.58203,0 v 12.28125 h 11.20899 v -12.28125 z m -216.13867,0.38476 v 79.99219 h 11.68555 v -38.72852 c 0,-7.4177 -0.21182,-15.5218 -0.57813,-24.17578 2.10626,5.58617 4.20394,10.83294 6.24609,15.75977 l 19.9004,47.14453 h 5.80468 l 19.88282,-47.14453 c 1.97805,-4.64294 4.07437,-9.91779 6.2539,-15.76953 -0.35715,8.76388 -0.54883,16.91437 -0.54883,24.18554 v 38.72852 h 11.64844 V 193.82617 H 754.3457 l -18.58984,44.66992 c -1.63922,3.8279 -3.67296,9.11179 -6.07227,15.79688 -2.17951,-6.06237 -4.19312,-11.35481 -6.04297,-15.78711 l -18.5996,-44.67969 z m 118.29883,20.9336 c -16.61199,0 -30.06446,13.46296 -30.06446,30.05664 0,16.64861 13.45247,30.10937 30.06446,30.10937 16.62114,0 30.08203,-13.46076 30.08203,-30.10937 0,-16.59368 -13.46089,-30.05664 -30.08203,-30.05664 z m -176.45899,0.17382 c -1.58427,0 -3.18794,0.0839 -4.7539,0.23047 -1.60259,0.17399 -3.13196,0.40166 -4.56055,0.68555 -1.41028,0.29305 -2.80131,0.64967 -4.07422,1.08008 -1.33702,0.43042 -2.47265,0.8883 -3.44336,1.38281 l -0.61328,0.27539 v 9.80859 l 1.49219,-0.55859 c 2.38099,-0.87913 4.7888,-1.6024 7.19726,-2.11523 2.39015,-0.49451 4.94559,-0.7793 7.65625,-0.7793 3.5257,0 6.38289,0.59579 8.44336,1.68555 1.98721,1.13555 3.47109,2.55414 4.35938,4.19336 0.42126,0.77839 0.71467,1.72299 0.88867,2.75781 0.20147,1.10807 0.27344,2.40673 0.27344,3.82617 v 2.41016 c -1.64838,-0.55861 -3.4979,-0.97989 -5.4668,-1.38282 -2.48172,-0.45789 -5.23692,-0.72374 -8.1582,-0.76953 -3.14108,0 -6.01763,0.43949 -8.63672,1.26367 -2.58246,0.86998 -4.88037,2.0959 -6.78516,3.7168 -1.89564,1.59344 -3.38046,3.60976 -4.43359,5.88086 -1.02566,2.29858 -1.5918,4.94333 -1.5918,7.85547 0,2.91213 0.49366,5.5691 1.42774,7.9043 0.93409,2.33519 2.30779,4.35957 4.00195,5.98046 1.72164,1.62091 3.79102,2.90164 6.14453,3.74415 2.32605,0.81502 4.92688,1.25585 7.73828,1.25585 2.033,0 4.00185,-0.23877 5.82422,-0.6875 1.81322,-0.4304 3.50778,-1.04473 5.03711,-1.77734 1.53849,-0.75093 2.9118,-1.62903 4.08398,-2.57226 0.59524,-0.4762 1.11682,-0.95214 1.61133,-1.4375 l 0.80664,5.02734 h 9.59766 v -37.99609 c 0,-1.82237 -0.14715,-3.52598 -0.42188,-5.06446 -0.2381,-1.57512 -0.72298,-3.07644 -1.3457,-4.40429 -1.61175,-3.45244 -4.35951,-6.23689 -8.06836,-8.33399 -3.69969,-2.02385 -8.4703,-3.08594 -14.23047,-3.08594 z m 344.125,0.006 c -3.25096,0.0458 -6.54162,0.68095 -9.5957,1.93555 -3.13192,1.28207 -5.93517,3.24237 -8.37109,5.83398 -2.40847,2.5733 -4.35839,5.83434 -5.81446,9.63477 -1.38281,3.81874 -2.125,8.37818 -2.125,13.51563 0,5.21986 0.76916,9.78064 2.23438,13.50781 1.47439,3.77295 3.60027,6.85021 6.22851,9.21289 2.66488,2.3352 5.85148,4.06539 9.46875,5.10937 3.53485,1.04397 7.38066,1.57617 11.4375,1.57617 3.3517,0 6.58445,-0.28438 9.53321,-0.86132 3.00371,-0.57693 5.54878,-1.40099 7.63672,-2.38086 l 0.56835,-0.32032 v -9.67968 L 995.25586,262.5 c -2.39931,0.86998 -4.81688,1.5741 -7.20703,2.01367 -2.35352,0.4762 -5.03587,0.73242 -7.92969,0.73242 -2.78393,0 -5.37622,-0.37593 -7.74805,-1.00781 -2.30772,-0.67767 -4.37749,-1.7296 -6.0625,-3.1582 -1.73995,-1.40112 -3.08506,-3.26979 -4.10156,-5.56836 -0.86997,-2.07879 -1.36607,-4.57042 -1.4668,-7.45508 h 38.07813 l 0.0469,-1.07031 c 0.0275,-1.18134 0.0547,-1.94107 0.0547,-2.28906 v -1.18165 c 0,-4.9726 -0.58746,-9.3145 -1.78711,-12.90429 -1.16302,-3.59896 -2.80085,-6.59193 -4.86133,-8.91797 -2.08794,-2.33521 -4.57848,-4.06589 -7.4082,-5.14648 -2.8984,-1.10808 -6.11036,-1.65322 -9.36133,-1.60743 z m -393.27734,0.004 c -2.35008,-0.0504 -4.68563,0.20189 -6.74609,0.74219 -1.88648,0.46704 -3.63644,1.14356 -5.22071,2.04101 -1.57512,0.83335 -3.04813,1.86822 -4.30273,3.03125 -0.76925,0.67766 -1.49408,1.42095 -2.19922,2.17188 l -1.47461,-6.54883 h -8.94727 v 57.4375 h 11.17383 v -40.01953 c 1.98721,-2.72898 4.32132,-4.95345 7.01367,-6.54688 2.70151,-1.60259 5.56786,-2.4375 8.44336,-2.4375 3.24181,0 5.5965,0.92616 7.22657,2.78516 1.67584,1.88648 2.49023,5.11041 2.49023,9.59766 v 36.62109 h 11.19141 v -38.0957 c 0,-3.72717 -0.49609,-6.9975 -1.4668,-9.60743 -1.04397,-2.62824 -2.41629,-4.81646 -4.15625,-6.46484 -1.7308,-1.63922 -3.83789,-2.893 -6.19141,-3.63477 -2.11999,-0.6685 -4.4839,-1.02189 -6.83398,-1.07226 z m -52.14063,1.4375 v 57.4375 h 11.20899 v -57.4375 z m 375.5918,0 v 57.4375 h 11.20899 v -57.4375 z m -97.83984,8.16016 c 11.21813,0 20.29297,9.07558 20.29297,20.27539 0,11.23644 -9.07484,20.32031 -20.29297,20.32031 -11.20897,0 -20.29297,-9.08387 -20.29297,-20.32031 0,-11.19981 9.084,-20.27539 20.29297,-20.27539 z m 62.63086,0.29492 c 1.61318,0.0385 3.24823,0.31099 4.86914,0.83984 1.64837,0.51283 3.25218,1.47571 4.72656,2.9043 1.47438,1.41028 2.70958,3.41498 3.68945,5.98828 0.96155,2.58246 1.4668,6.07202 1.4668,10.27539 0,3.11361 -0.35823,5.95161 -1.01758,8.48828 -0.64103,2.5092 -1.64884,4.71743 -2.94922,6.52149 -1.24545,1.76742 -2.83825,3.13011 -4.69726,4.11914 -1.88647,0.93408 -4.11203,1.44726 -6.59375,1.44726 -1.63922,0 -3.17774,-0.23852 -4.56055,-0.74219 -1.39196,-0.49451 -2.68219,-1.0988 -3.80859,-1.82226 -1.13555,-0.69598 -2.12576,-1.46353 -2.93164,-2.29688 -0.72345,-0.69598 -1.33705,-1.38448 -1.79493,-1.99804 v -28.06836 c 1.7308,-1.64838 3.69927,-2.96714 5.90625,-4.00196 2.381,-1.13325 5.00669,-1.7185 7.69532,-1.65429 z m 104.91211,0.002 c 1.84183,-0.002 3.6364,0.36188 5.08789,1.07617 1.48355,0.7143 2.71153,1.73173 3.6914,2.98633 1.0165,1.30039 1.81152,2.8206 2.29688,4.56055 0.45788,1.46523 0.68759,3.03131 0.80664,4.67968 h -25.95313 c 0.25642,-1.61174 0.7153,-3.07848 1.31055,-4.52539 0.78756,-1.7491 1.77653,-3.26918 3.05859,-4.58789 1.21797,-1.28206 2.6817,-2.33379 4.33008,-3.0664 1.63923,-0.75093 3.52926,-1.12076 5.3711,-1.12305 z M 631.88086,247.5452 c 2.65572,0.009 5.15447,0.23696 7.33398,0.6582 1.89564,0.34799 3.57128,0.70644 5.02735,1.10938 v 9.72461 c -0.40294,0.42125 -0.94222,0.87888 -1.60157,1.4375 -0.86997,0.76009 -1.92251,1.48479 -3.16796,2.22656 -1.21796,0.74177 -2.6561,1.41821 -4.21289,1.92188 -2.69235,0.89745 -6.07155,1.08213 -8.85547,0.23047 -1.12639,-0.3663 -2.16228,-0.90801 -2.95899,-1.64063 -0.80588,-0.72345 -1.46447,-1.66596 -1.95898,-2.7832 -0.4762,-1.13555 -0.72266,-2.51035 -0.72266,-4.04883 0,-3.04951 0.93396,-5.19116 2.79297,-6.62891 1.99637,-1.47439 4.78021,-2.20703 8.32422,-2.20703 z" />
  </g>
</svg>
