<svg fill="none" height="114" viewBox="0 0 332 114" width="332" xmlns="http://www.w3.org/2000/svg"><g clip-rule="evenodd" fill-rule="evenodd"><path d="m64.1801 82.4337h-29.0486c-14.141 0-25.64566-11.522-25.64566-25.6844 0-14.1623 11.50466-25.6843 25.64566-25.6843h29.0486v8.8975h-29.0486c-9.2427 0-16.7615 7.5307-16.7615 16.7868 0 9.2567 7.5188 16.7869 16.7615 16.7869h29.0486z" fill="#002854"/><path d="m253.782 56.7853c0 9.2561-7.519 16.7868-16.761 16.7868-9.243 0-16.762-7.5307-16.762-16.7868v-.036c0-9.2561 7.519-16.7868 16.762-16.7868 9.242 0 16.761 7.5307 16.761 16.7868zm8.884-.036c0-14.1623-11.504-25.6843-25.645-25.6843s-25.646 11.522-25.646 25.6843v.036c0 14.1623 11.505 25.6843 25.646 25.6843s25.645-11.522 25.645-25.6843z" fill="#002854"/><path d="m322.932 82.878v-8.898h-.036c-9.243 0-16.762-7.5302-16.762-16.7868 0-9.2562 7.519-16.7869 16.762-16.7869h.036v-8.8975h-.036c-14.141 0-25.646 11.522-25.646 25.6844 0 14.1623 11.505 25.6848 25.646 25.6848z" fill="#00e07e"/><path d="m271.604 31.5088v8.8975h.036c9.243 0 16.762 7.5307 16.762 16.7869 0 9.2566-7.519 16.7868-16.762 16.7868h-.036v8.898h.036c14.141 0 25.646-11.5225 25.646-25.6848 0-14.1624-11.505-25.6844-25.646-25.6844z" fill="#0096fb"/><g fill="#002854"><path d="m142.314 82.4342h-8.884v-25.6849c0-9.2561-7.519-16.7868-16.761-16.7868-9.243 0-16.7619 7.5307-16.7619 16.7868v25.6849h-8.8846v-25.6849c0-14.1623 11.5055-25.6843 25.6465-25.6843s25.645 11.522 25.645 25.6843z"/><path d="m202.491 82.4342h-8.885v-25.6849c0-9.2561-7.519-16.7868-16.762-16.7868-9.242 0-16.761 7.5307-16.761 16.7868v25.6849h-8.884v-25.6849c0-14.1623 11.504-25.6843 25.645-25.6843 14.142 0 25.647 11.522 25.647 25.6843z"/><path d="m73.0645 82.4337h8.8841v-51.3687h-8.8841z"/></g></g></svg>