<svg width="70" height="24" viewBox="0 0 70 24" fill="none" xmlns="http://www.w3.org/2000/svg">
<path fill-rule="evenodd" clip-rule="evenodd" d="M13.5319 17.3545H7.40723C4.42568 17.3545 2 14.9288 2 11.9473C2 8.96572 4.42568 6.54004 7.40723 6.54004H13.5319V8.4132H7.40723C5.45845 8.4132 3.87316 9.9986 3.87316 11.9473C3.87316 13.896 5.45845 15.4813 7.40723 15.4813H13.5319V17.3545Z" fill="#002854"/>
<path fill-rule="evenodd" clip-rule="evenodd" d="M53.5082 11.9548C53.5082 13.9035 51.9228 15.4889 49.9741 15.4889C48.0255 15.4889 46.4401 13.9035 46.4401 11.9548V11.9473C46.4401 9.9986 48.0255 8.4132 49.9741 8.4132C51.9228 8.4132 53.5082 9.9986 53.5082 11.9473V11.9548ZM55.3814 11.9473C55.3814 8.96572 52.9557 6.54004 49.9741 6.54004C46.9926 6.54004 44.5669 8.96572 44.5669 11.9473V11.9548C44.5669 14.9364 46.9926 17.3621 49.9741 17.3621C52.9557 17.3621 55.3814 14.9364 55.3814 11.9548V11.9473Z" fill="#002854"/>
<path fill-rule="evenodd" clip-rule="evenodd" d="M68.0881 17.4481V15.5748H68.0806C66.1319 15.5748 64.5465 13.9895 64.5465 12.0408C64.5465 10.0921 66.1319 8.50671 68.0806 8.50671H68.0881V6.63354H68.0806C65.099 6.63354 62.6733 9.05923 62.6733 12.0408C62.6733 15.0223 65.099 17.4481 68.0806 17.4481H68.0881Z" fill="#00E07E"/>
<path fill-rule="evenodd" clip-rule="evenodd" d="M57.2661 6.63354V8.50671H57.2737C59.2223 8.50671 60.8077 10.0921 60.8077 12.0408C60.8077 13.9895 59.2223 15.5748 57.2737 15.5748H57.2661V17.4481H57.2737C60.2552 17.4481 62.6809 15.0223 62.6809 12.0408C62.6809 9.05923 60.2552 6.63354 57.2737 6.63354H57.2661Z" fill="#0096FB"/>
<path fill-rule="evenodd" clip-rule="evenodd" d="M30.006 17.3546H28.1327V11.9473C28.1327 9.9986 26.5474 8.4132 24.5987 8.4132C22.65 8.4132 21.0647 9.9986 21.0647 11.9473V17.3546H19.1914V11.9473C19.1914 8.96572 21.6172 6.54004 24.5987 6.54004C27.5803 6.54004 30.006 8.96572 30.006 11.9473V17.3546Z" fill="#002854"/>
<path fill-rule="evenodd" clip-rule="evenodd" d="M42.694 17.3546H40.8207V11.9473C40.8207 9.9986 39.2354 8.4132 37.2866 8.4132C35.338 8.4132 33.7527 9.9986 33.7527 11.9473V17.3546H31.8794V11.9473C31.8794 8.96572 34.3051 6.54004 37.2866 6.54004C40.2683 6.54004 42.694 8.96572 42.694 11.9473V17.3546Z" fill="#002854"/>
<path fill-rule="evenodd" clip-rule="evenodd" d="M15.4053 17.3545H17.2784V6.54004H15.4053V17.3545Z" fill="#002854"/>
</svg>
