<?xml version="1.0" encoding="utf-8"?>
<!-- Generator: Adobe Illustrator 19.0.0, SVG Export Plug-In . SVG Version: 6.00 Build 0)  -->
<svg version="1.1" id="Layer_1" xmlns="http://www.w3.org/2000/svg" xmlns:xlink="http://www.w3.org/1999/xlink" x="0px" y="0px"
	 viewBox="0 0 500 500" style="enable-background:new 0 0 500 500;" xml:space="preserve">
<style type="text/css">
	.st0{fill:#E32228;}
</style>
<g id="XMLID_1_">
	<path id="XMLID_2_" class="st0" d="M124.6,328.1h116.7c-16.2,12.3-36.5,19.6-58.4,19.6C161,347.7,140.8,340.4,124.6,328.1
		 M85.8,250c0-30.1,13.6-57,34.9-75V325C99.3,307,85.8,280.1,85.8,250 M183,152.3c22.5,0,43.1,7.7,59.6,20.5H123.4
		C139.9,160,160.5,152.3,183,152.3 M169.2,250l59.5,59.8h-89.9V191.1h89L169.2,250z M195,250l75.3-75.7
		c-21.2-24.7-52.5-40.3-87.4-40.3c-63.7,0-115.4,51.9-115.4,116c0,64.1,51.7,116,115.4,116c34.9,0,66.2-15.6,87.4-40.3L195,250z"/>
	<polyline id="XMLID_8_" class="st0" points="325.8,274.2 325.8,309.8 287.2,309.8 287.2,191.1 325.8,191.1 325.8,226 344,226 
		344,172.6 268.8,172.6 268.8,328.1 344,328.1 344,274.2 	"/>
	<polyline id="XMLID_9_" class="st0" points="375.5,274.2 375.5,309.8 414.1,309.8 414.1,191.1 375.5,191.1 375.5,226 357.3,226 
		357.3,172.6 432.5,172.6 432.5,328.1 357.3,328.1 357.3,274.2 	"/>
</g>
</svg>
