<?xml version="1.0" standalone="no"?>
<!DOCTYPE svg PUBLIC "-//W3C//DTD SVG 20010904//EN"
 "http://www.w3.org/TR/2001/REC-SVG-20010904/DTD/svg10.dtd">
<svg version="1.0" xmlns="http://www.w3.org/2000/svg"
 width="302.000000pt" height="55.000000pt" viewBox="0 0 302.000000 55.000000"
 preserveAspectRatio="xMidYMid meet">

<g transform="translate(0.000000,55.000000) scale(0.100000,-0.100000)"
fill="#000000" stroke="none">
<path d="M2458 539 c-27 -15 -24 -68 5 -78 24 -9 48 -4 59 13 14 21 8 55 -11
66 -24 12 -31 12 -53 -1z"/>
<path d="M340 310 l0 -230 35 0 35 0 0 230 0 230 -35 0 -35 0 0 -230z"/>
<path d="M1520 455 l0 -86 -30 23 c-39 28 -113 30 -160 2 -52 -30 -73 -66 -78
-131 -4 -73 26 -138 78 -165 49 -26 130 -24 164 3 l27 21 6 -21 c4 -16 13 -21
39 -21 l34 0 0 230 0 230 -40 0 -40 0 0 -85z m-35 -139 c65 -65 22 -166 -70
-166 -38 0 -85 50 -85 90 0 62 34 99 93 100 27 0 45 -7 62 -24z"/>
<path d="M2582 473 c2 -5 36 -56 76 -115 39 -59 72 -110 72 -114 0 -3 -33 -54
-73 -112 -41 -59 -77 -113 -81 -119 -5 -10 10 -13 62 -13 l70 0 51 80 c50 80
51 82 51 161 0 76 -2 82 -46 159 l-47 80 -69 0 c-38 0 -68 -3 -66 -7z"/>
<path d="M107 406 c-50 -18 -67 -34 -88 -81 -34 -74 -15 -175 40 -215 65 -45
166 -47 221 -2 l21 17 -25 24 c-22 21 -29 23 -51 13 -70 -32 -145 11 -145 83
0 70 79 117 142 84 16 -9 24 -7 44 12 13 12 24 26 24 30 0 13 -85 49 -116 49
-16 -1 -46 -7 -67 -14z"/>
<path d="M555 391 c-43 -26 -61 -50 -75 -98 -22 -72 9 -154 72 -193 47 -29
134 -27 178 3 58 39 75 71 75 142 0 71 -17 103 -75 143 -43 29 -131 31 -175 3z
m149 -82 c36 -43 35 -91 -3 -130 -37 -36 -79 -38 -118 -5 -38 33 -40 102 -4
140 36 38 91 36 125 -5z"/>
<path d="M870 303 c0 -126 19 -182 69 -207 41 -22 99 -20 139 4 40 25 42 25
42 0 0 -16 7 -20 35 -20 l35 0 0 165 0 165 -40 0 -40 0 0 -104 c0 -98 -1 -105
-26 -130 -34 -34 -77 -34 -109 -1 -23 23 -25 31 -25 130 l0 105 -40 0 -40 0 0
-107z"/>
<path d="M1740 391 c-105 -56 -105 -236 0 -292 51 -27 137 -25 180 4 100 67
100 217 0 284 -43 29 -129 31 -180 4z m137 -66 c34 -24 47 -76 29 -118 -16
-41 -41 -57 -86 -57 -73 0 -110 111 -55 165 28 29 79 33 112 10z"/>
<path d="M2050 245 l0 -165 40 0 40 0 0 96 c0 95 8 128 39 151 26 20 75 15 99
-10 18 -19 22 -36 24 -127 l3 -105 38 -3 37 -3 0 111 c0 161 -26 209 -119 218
-39 3 -58 0 -85 -16 -34 -20 -35 -20 -41 -1 -5 14 -15 19 -41 19 l-34 0 0
-165z"/>
<path d="M2442 248 l3 -163 38 -3 37 -3 0 165 0 166 -40 0 -40 0 2 -162z"/>
<path d="M2888 351 c-40 -71 -39 -143 3 -211 29 -48 33 -50 76 -50 l44 0 -56
80 -57 80 44 63 c66 92 65 87 16 87 -41 0 -44 -2 -70 -49z"/>
</g>
</svg>
