<?xml version="1.0" encoding="utf-8"?>
<!-- Generator: Adobe Illustrator 22.1.0, SVG Export Plug-In . SVG Version: 6.00 Build 0)  -->
<svg version="1.1" xmlns="http://www.w3.org/2000/svg" xmlns:xlink="http://www.w3.org/1999/xlink" x="0px" y="0px"
	 viewBox="0 0 2875 744" style="enable-background:new 0 0 2875 744;" xml:space="preserve">
<style type="text/css">
	.st0{fill:url(#SVGID_1_);}
	.st1{fill:url(#SVGID_2_);}
	.st2{fill:#7E0292;}
	.st3{fill:#DC1E85;}
	.st4{fill:url(#SVGID_3_);}
	.st5{fill:#24CDEC;}
	.st6{fill:url(#SVGID_4_);}
	.st7{fill:url(#SVGID_5_);}
	.st8{fill:url(#SVGID_6_);}
	.st9{fill:url(#SVGID_7_);}
	.st10{fill:url(#SVGID_8_);}
	.st11{fill:url(#SVGID_9_);}
	.st12{fill:#E20F81;}
	.st13{fill:#11B9EA;}
	.st14{fill:url(#SVGID_10_);}
	.st15{fill:url(#SVGID_11_);}
	.st16{fill:url(#SVGID_12_);}
	.st17{fill:url(#SVGID_13_);}
	.st18{fill:url(#SVGID_14_);}
	.st19{fill:url(#SVGID_15_);}
	.st20{fill:#2C2C2C;}
</style>
<g id="Layer_1_xA0_Image_1_">
	<linearGradient id="SVGID_1_" gradientUnits="userSpaceOnUse" x1="106.4707" y1="349.4594" x2="106.4707" y2="408.5406">
		<stop  offset="0" style="stop-color:#D0258B"/>
		<stop  offset="1" style="stop-color:#B63296"/>
	</linearGradient>
	<path class="st0" d="M76.9,379c0,16.3,13.3,29.5,29.5,29.5c16.3,0,29.5-13.2,29.5-29.5c0-16.3-13.2-29.5-29.5-29.5
		C90.3,349.5,76.9,362.7,76.9,379"/>
	<linearGradient id="SVGID_2_" gradientUnits="userSpaceOnUse" x1="158.4126" y1="425.2446" x2="187.9464" y2="476.3986">
		<stop  offset="0" style="stop-color:#AC379A"/>
		<stop  offset="1" style="stop-color:#9143A5"/>
	</linearGradient>
	<path class="st1" d="M143.7,450.8c0,16.3,13.2,29.5,29.5,29.5c16.3,0,29.5-13.2,29.5-29.5c0-16.4-13.2-29.5-29.5-29.5
		C156.9,421.3,143.7,434.5,143.7,450.8"/>
	<path class="st2" d="M339.1,116.9c0,16.3,13.2,29.5,29.5,29.5s29.5-13.2,29.5-29.5c0-16.3-13.2-29.5-29.5-29.5
		C352.4,87.3,339.1,100.6,339.1,116.9"/>
	<path class="st3" d="M143.7,307.2c0,16.3,13.2,29.5,29.5,29.5c16.3,0,29.5-13.2,29.5-29.5c0-16.3-13.2-29.6-29.5-29.6
		C156.9,277.6,143.7,290.9,143.7,307.2"/>
	<linearGradient id="SVGID_3_" gradientUnits="userSpaceOnUse" x1="601.2289" y1="379" x2="660.2789" y2="379">
		<stop  offset="0" style="stop-color:#23CCEC"/>
		<stop  offset="1" style="stop-color:#1AC2EB"/>
	</linearGradient>
	<path class="st4" d="M601.2,379c0,16.3,13.2,29.5,29.5,29.5c16.3,0,29.5-13.2,29.5-29.5c0-16.3-13.2-29.5-29.5-29.5
		C614.4,349.5,601.2,362.7,601.2,379"/>
	<path class="st5" d="M517.3,200.8c0,16.3,13.2,29.6,29.5,29.6c16.3,0,29.4-13.2,29.4-29.6c0-16.3-13.2-29.5-29.4-29.5
		C530.5,171.3,517.3,184.5,517.3,200.8"/>
	<linearGradient id="SVGID_4_" gradientUnits="userSpaceOnUse" x1="169.5853" y1="536.3259" x2="211.3312" y2="578.0719">
		<stop  offset="0" style="stop-color:#814AAB"/>
		<stop  offset="1" style="stop-color:#575CBB"/>
	</linearGradient>
	<path class="st6" d="M161,557.2c0,16.3,13.2,29.5,29.5,29.5c16.3,0,29.5-13.2,29.5-29.5c0-16.3-13.2-29.5-29.5-29.5
		C174.2,527.7,161,540.9,161,557.2"/>
	<path class="st5" d="M534.6,307.2c0,16.3,13.2,29.5,29.5,29.5c16.3,0,29.5-13.2,29.5-29.5c0-16.3-13.2-29.6-29.5-29.6
		C547.8,277.7,534.6,290.9,534.6,307.2"/>
	<linearGradient id="SVGID_5_" gradientUnits="userSpaceOnUse" x1="339.103" y1="641.1261" x2="398.1841" y2="641.1261">
		<stop  offset="0" style="stop-color:#1F77D2"/>
		<stop  offset="1" style="stop-color:#117FD8"/>
	</linearGradient>
	<path class="st7" d="M339.1,641.1c0,16.3,13.2,29.5,29.5,29.5s29.5-13.2,29.5-29.5c0-16.3-13.2-29.5-29.5-29.5
		S339.1,624.8,339.1,641.1"/>
	<linearGradient id="SVGID_6_" gradientUnits="userSpaceOnUse" x1="410.929" y1="183.5428" x2="469.9478" y2="183.5428">
		<stop  offset="0" style="stop-color:#7E0292"/>
		<stop  offset="1" style="stop-color:#58019B"/>
	</linearGradient>
	<path class="st8" d="M410.9,183.5c0,16.4,13.2,29.5,29.5,29.5c16.3,0,29.5-13.2,29.5-29.5c0-16.3-13.2-29.5-29.5-29.5
		C424.2,154,410.9,167.2,410.9,183.5"/>
	<linearGradient id="SVGID_7_" gradientUnits="userSpaceOnUse" x1="271.2512" y1="559.7264" x2="322.4186" y2="589.2679">
		<stop  offset="0" style="stop-color:#4763C2"/>
		<stop  offset="1" style="stop-color:#2B70CD"/>
	</linearGradient>
	<path class="st9" d="M267.3,574.5c0,16.3,13.2,29.6,29.5,29.6c16.3,0,29.5-13.2,29.5-29.6c0-16.3-13.2-29.5-29.5-29.5
		C280.6,545,267.3,558.1,267.3,574.5"/>
	<linearGradient id="SVGID_8_" gradientUnits="userSpaceOnUse" x1="236.6019" y1="469.3405" x2="278.3361" y2="511.0748">
		<stop  offset="0" style="stop-color:#814AAB"/>
		<stop  offset="1" style="stop-color:#575CBB"/>
	</linearGradient>
	<path class="st10" d="M228,490.2c0,16.3,13.2,29.5,29.5,29.5c16.3,0,29.5-13.2,29.5-29.5c0-16.3-13.2-29.5-29.5-29.5
		S228,473.9,228,490.2"/>
	<path class="st5" d="M450.3,267.8c0,16.3,13.3,29.5,29.5,29.5c16.3,0,29.5-13.2,29.5-29.5s-13.2-29.5-29.5-29.5
		C463.6,238.3,450.3,251.5,450.3,267.8"/>
	<linearGradient id="SVGID_9_" gradientUnits="userSpaceOnUse" x1="525.9423" y1="578.0582" x2="567.6824" y2="536.3181">
		<stop  offset="0" style="stop-color:#09ADE9"/>
		<stop  offset="1" style="stop-color:#099BE5"/>
	</linearGradient>
	<path class="st11" d="M517.3,557.2c0,16.3,13.2,29.5,29.5,29.5c16.3,0,29.4-13.2,29.4-29.5c0-16.3-13.2-29.6-29.4-29.6
		C530.5,527.6,517.3,540.9,517.3,557.2"/>
	<path class="st12" d="M161,200.8c0,16.3,13.2,29.6,29.5,29.6c16.4,0,29.5-13.2,29.5-29.6c0-16.3-13.2-29.5-29.5-29.5
		C174.2,171.3,161,184.5,161,200.8"/>
	<path class="st13" d="M534.6,450.8c0,16.3,13.2,29.5,29.5,29.5c16.3,0,29.5-13.2,29.5-29.5c0-16.4-13.2-29.5-29.5-29.5
		C547.8,421.3,534.6,434.5,534.6,450.8"/>
	<linearGradient id="SVGID_10_" gradientUnits="userSpaceOnUse" x1="188.4865" y1="349.4594" x2="188.4865" y2="408.5094">
		<stop  offset="0" style="stop-color:#D0258B"/>
		<stop  offset="1" style="stop-color:#B63296"/>
	</linearGradient>
	<path class="st14" d="M159,379c0,16.3,13.2,29.5,29.5,29.5c16.3,0,29.5-13.2,29.5-29.5c0-16.3-13.2-29.5-29.5-29.5
		C172.1,349.5,159,362.7,159,379"/>
	<linearGradient id="SVGID_11_" gradientUnits="userSpaceOnUse" x1="548.785" y1="408.5094" x2="548.785" y2="349.4594">
		<stop  offset="0" style="stop-color:#23CCEC"/>
		<stop  offset="1" style="stop-color:#1AC2EB"/>
	</linearGradient>
	<path class="st15" d="M519.2,379c0,16.3,13.2,29.5,29.5,29.5c16.3,0,29.5-13.2,29.5-29.5c0-16.3-13.2-29.5-29.5-29.5
		C532.5,349.5,519.2,362.7,519.2,379"/>
	<linearGradient id="SVGID_12_" gradientUnits="userSpaceOnUse" x1="410.929" y1="574.504" x2="469.9478" y2="574.504">
		<stop  offset="0" style="stop-color:#0B84DB"/>
		<stop  offset="1" style="stop-color:#0992E2"/>
	</linearGradient>
	<path class="st16" d="M410.9,574.5c0,16.3,13.2,29.6,29.5,29.6c16.3,0,29.5-13.2,29.5-29.6c0-16.3-13.2-29.5-29.5-29.5
		C424.2,545,410.9,558.1,410.9,574.5"/>
	<linearGradient id="SVGID_13_" gradientUnits="userSpaceOnUse" x1="267.3081" y1="183.5428" x2="326.358" y2="183.5428">
		<stop  offset="0" style="stop-color:#C60783"/>
		<stop  offset="1" style="stop-color:#AA0488"/>
	</linearGradient>
	<path class="st17" d="M267.3,183.5c0,16.4,13.2,29.5,29.5,29.5c16.3,0,29.5-13.2,29.5-29.5c0-16.3-13.2-29.5-29.5-29.5
		C280.5,154,267.3,167.2,267.3,183.5"/>
	<linearGradient id="SVGID_14_" gradientUnits="userSpaceOnUse" x1="458.9608" y1="511.0845" x2="500.7086" y2="469.3366">
		<stop  offset="0" style="stop-color:#09ADE9"/>
		<stop  offset="1" style="stop-color:#099BE5"/>
	</linearGradient>
	<path class="st18" d="M450.3,490.2c0,16.3,13.3,29.5,29.5,29.5c16.3,0,29.5-13.2,29.5-29.5c0-16.3-13.2-29.5-29.5-29.5
		C463.6,460.7,450.3,473.9,450.3,490.2"/>
	<path class="st12" d="M228,267.8c0,16.3,13.2,29.5,29.5,29.5c16.3,0,29.5-13.2,29.5-29.5s-13.2-29.5-29.5-29.5S228,251.5,228,267.8
		"/>
	<path class="st2" d="M339.1,198.8c0,16.3,13.2,29.5,29.5,29.5s29.5-13.2,29.5-29.5c0-16.3-13.2-29.5-29.5-29.5
		S339.1,182.6,339.1,198.8"/>
	<linearGradient id="SVGID_15_" gradientUnits="userSpaceOnUse" x1="339.103" y1="559.1727" x2="398.1841" y2="559.1727">
		<stop  offset="0" style="stop-color:#1F77D2"/>
		<stop  offset="1" style="stop-color:#117FD8"/>
	</linearGradient>
	<path class="st19" d="M339.1,559.2c0,16.3,13.2,29.5,29.5,29.5s29.5-13.2,29.5-29.5c0-16.3-13.2-29.6-29.5-29.6
		S339.1,542.9,339.1,559.2"/>
</g>
<g id="Colony">
	<g>
		<path class="st20" d="M1155.5,480.7l47.1,46.5c0,0-54.2,70.1-158.4,70.1c-119,0-209.1-91.3-209.1-213.2
			c0-121.9,90.1-213.2,209.1-213.2c98.9,0,152.5,64.8,152.5,64.8l-47.7,46.5c0,0-37.1-45.4-104.8-45.4
			C963,236.8,907,304.6,907,384.1s55.9,147.3,137.2,147.3C1116.7,531.4,1155.5,480.7,1155.5,480.7z"/>
		<path class="st20" d="M1542.4,450.7c0,81.9-66,146.7-149,146.7s-149-64.8-149-146.7c0-82.5,66-146.7,149-146.7
			S1542.4,368.2,1542.4,450.7z M1470.6,450.7c0-43.6-29.4-80.7-77.1-80.7s-77.1,37.1-77.1,80.7c0,43.6,29.4,80.7,77.1,80.7
			S1470.6,494.3,1470.6,450.7z"/>
		<path class="st20" d="M1617.2,144.9h70.7v445.3h-70.7V144.9z"/>
		<path class="st20" d="M2060.6,450.7c0,81.9-66,146.7-149,146.7c-83,0-149-64.8-149-146.7c0-82.5,66-146.7,149-146.7
			C1994.7,304,2060.6,368.2,2060.6,450.7z M1988.8,450.7c0-43.6-29.4-80.7-77.1-80.7c-47.7,0-77.1,37.1-77.1,80.7
			c0,43.6,29.4,80.7,77.1,80.7C1959.3,531.4,1988.8,494.3,1988.8,450.7z"/>
		<path class="st20" d="M2379.2,409.4v180.8h-70.7V427.1c0-40.1-24.7-57.1-55.4-57.1c-36.5,0-55.4,35.9-55.4,35.9v184.4h-70.7V311.1
			h66v40.6c0,0,24.7-47.7,83.6-47.7C2330.9,304,2379.2,342.3,2379.2,409.4z"/>
		<path class="st20" d="M2474,648.6c0,0,18.8,18.3,37.1,18.3c24.1,0,34.2-7.1,47.7-41.2l11.2-28.9l-136-285.7h78.3l94.2,204.4
			l73.6-204.4h76l-135.4,341.6c-24.1,61.3-63.6,80.1-104.8,80.1c-42.4,0-74.8-29.5-74.8-29.5L2474,648.6z"/>
	</g>
</g>
</svg>
