<svg xmlns="http://www.w3.org/2000/svg" width="2164" height="1513" viewBox="0 0 2164 1513" version="1.1"><path d="M 915 83.070 C 885.209 84.645, 866.492 89.181, 826.500 104.517 C 818.250 107.680, 804.525 112.581, 796 115.407 C 782.571 119.859, 778.992 121.529, 769.212 127.906 C 760.271 133.736, 756.112 135.772, 749.212 137.697 C 738.232 140.760, 727.339 146.069, 721.512 151.198 C 716.761 155.380, 715.706 157.545, 718.916 156.527 C 721.568 155.685, 722.606 157.834, 720.350 159.499 C 719.333 160.250, 715.585 161.825, 712.022 163 C 693.858 168.989, 652.138 194.739, 632 212.390 C 619.985 222.922, 618.292 224.679, 613.975 231.101 C 611.610 234.621, 602.386 244.700, 593.478 253.500 C 584.571 262.300, 571.608 276.517, 564.673 285.093 C 550.524 302.590, 545.574 307.530, 537.785 311.926 C 532.650 314.824, 532.302 315.286, 530.105 322.107 C 528.081 328.392, 527.026 329.980, 521.346 335.293 C 514.802 341.415, 510.757 347.253, 509.599 352.250 C 508.806 355.671, 510.239 355.811, 512.394 352.522 C 518.277 343.543, 542.322 320.683, 552.299 314.584 L 555.500 312.626 553.356 315.063 C 552.176 316.403, 549.151 321.628, 546.634 326.673 C 544.117 331.719, 541.581 336.141, 540.999 336.501 C 540.417 336.860, 536.726 341.957, 532.797 347.827 C 522.885 362.637, 520.663 365.232, 513.050 370.893 C 504.795 377.032, 494.077 388.280, 490.385 394.682 C 487.246 400.125, 477.616 413.501, 476.213 414.369 C 475.706 414.682, 474.247 413.827, 472.971 412.469 C 469.862 409.160, 468.378 409.359, 467.612 413.191 C 467.261 414.946, 465.517 417.785, 463.737 419.499 C 456.669 426.304, 452.247 432.578, 451.531 436.814 C 450.946 440.278, 449.848 441.880, 445.454 445.673 C 441.270 449.285, 439.512 451.752, 437.455 456.901 C 433.189 467.576, 425.310 475.424, 416.915 477.359 C 414.925 477.818, 414.041 478.940, 413.077 482.228 C 412.387 484.577, 408.930 491.981, 405.393 498.680 C 398.730 511.301, 398.394 514.303, 404.116 510.072 C 408.010 507.193, 409.410 508.280, 406.967 512.286 C 404.720 515.971, 404.192 524.426, 406.250 523.766 C 406.938 523.545, 410.571 517.545, 414.324 510.432 C 423.033 493.928, 428.846 484.662, 434.042 479 L 438.171 474.500 435.727 479 C 434.382 481.475, 430.578 488.450, 427.273 494.500 C 420.402 507.079, 386.471 572.779, 377.952 590 C 371.031 603.990, 364.648 612.819, 358.002 617.594 L 353 621.188 353 628.022 C 353 635.082, 351.627 638, 348.304 638 C 347.111 638, 346.889 637.303, 347.350 635 C 347.856 632.468, 347.638 632, 345.954 632 C 344.735 632, 343.486 633.072, 342.749 634.750 C 340.753 639.292, 338 640.474, 338 636.788 C 338 635.395, 340.034 632.684, 343.500 629.458 C 347.874 625.387, 349 623.707, 349 621.251 C 349 616.118, 348.222 615.076, 345.067 615.981 C 339.735 617.510, 337.839 619.185, 332.934 626.699 C 328.370 633.690, 326.196 635.780, 329.500 630 C 330.286 628.625, 330.945 626.263, 330.965 624.750 C 331.038 619.083, 325.587 622.520, 318.559 632.574 C 316.052 636.161, 314 639.247, 314 639.431 C 314 639.616, 314.900 640.002, 316 640.290 C 318.466 640.935, 318.675 645.140, 316.500 650.346 C 314.838 654.323, 314.510 659, 315.892 659 C 316.382 659, 317.075 657.836, 317.432 656.414 C 318.482 652.232, 322.415 649, 326.455 649 C 330.771 649, 330.936 650.232, 328 660.500 C 325.910 667.808, 325.368 678.452, 326.958 680.966 C 328.018 682.642, 328.778 681.053, 331.589 671.286 C 334.669 660.584, 339.492 653, 343.220 653 C 344.832 653, 345 653.519, 344.435 656.750 C 342.066 670.294, 333.945 687.072, 317.983 711.393 C 307.194 727.833, 306.839 728.553, 304.754 738.242 C 302.955 746.601, 302.251 748.334, 300.366 749.051 C 297.436 750.165, 295.680 753.557, 296.323 756.862 C 296.862 759.633, 291.795 775.561, 288.022 782.958 C 286.865 785.225, 284.875 787.556, 283.599 788.137 C 281.465 789.109, 281.237 789.971, 280.741 798.974 C 280.188 809.013, 279.298 811.808, 273.408 822 C 266.505 833.947, 265.218 837.442, 264.088 847.326 C 262.413 861.962, 259.874 866.497, 252.703 867.661 L 249.157 868.236 250.055 864.368 C 251.397 858.584, 251.182 851.371, 249.551 847.468 C 247.870 843.443, 247.019 843.218, 244.405 846.103 C 242.380 848.339, 242.234 851.371, 243.114 873 C 243.559 883.959, 241.899 889.807, 237.012 894.489 C 232.992 898.340, 232.236 896.123, 234.944 888.418 C 237.527 881.069, 237.540 877.799, 234.996 875.496 C 230.124 871.087, 230.294 862.910, 235.672 843.028 C 237.828 835.060, 238.129 832.360, 237.569 826.028 C 235.563 803.353, 235.034 807.059, 242.402 792.123 C 246.031 784.766, 249 777.689, 249 776.398 C 249 774.341, 249.359 774.122, 251.896 774.629 C 255.854 775.421, 258.514 772.565, 259.324 766.654 C 259.967 761.958, 263.106 754.670, 264.986 753.509 C 266.649 752.481, 266.154 756.904, 263.497 766.822 C 260.979 776.222, 260.219 785, 261.922 785 C 263.004 785, 263.794 782.614, 268.052 766.500 C 269.795 759.900, 272.283 752.405, 273.580 749.845 C 275.619 745.819, 275.728 745.110, 274.387 744.595 C 271.574 743.515, 270.242 743.971, 269.549 746.250 C 269.128 747.637, 268.666 748.015, 268.345 747.235 C 268.058 746.540, 269.374 742.940, 271.269 739.235 C 275.427 731.108, 276.656 726, 274.453 726 C 272.192 726, 267.198 734.607, 264.882 742.493 C 263.751 746.347, 261.646 751.525, 260.205 754 L 257.585 758.500 256.839 754.221 C 256.430 751.867, 255.138 748.598, 253.969 746.957 C 250.963 742.736, 243.142 737, 240.391 737 C 234.927 737, 225.027 750.027, 225.009 757.241 C 225.004 759.298, 226.876 765.823, 229.170 771.741 C 233.004 781.635, 233.329 783.204, 233.206 791.258 C 233.133 796.075, 232.573 801.925, 231.962 804.258 C 230.516 809.780, 226.258 816.313, 224.536 815.652 C 222.925 815.034, 212.595 819.807, 206.567 823.954 L 202.186 826.968 203.701 831.734 C 204.743 835.013, 205.360 842.428, 205.676 855.500 C 205.929 865.950, 206.335 875.111, 206.578 875.858 C 206.937 876.960, 207.496 876.905, 209.538 875.567 C 212.841 873.403, 214.273 874.411, 213.487 878.345 C 212.051 885.541, 206.703 907.573, 206.173 908.478 C 205.857 909.017, 205.127 907.005, 204.550 904.008 C 203.719 899.694, 202.934 898.244, 200.783 897.043 C 198.320 895.669, 197.946 895.683, 196.783 897.201 C 196.077 898.122, 194.164 899.016, 192.532 899.188 C 190.570 899.394, 189.070 900.383, 188.108 902.104 C 186.770 904.500, 186.941 905.581, 190.254 915.604 C 192.235 921.597, 194.825 929.182, 196.010 932.459 C 198.115 938.281, 198.149 939.217, 197.482 972.959 C 197.024 996.124, 197.171 1011.452, 197.930 1019.500 C 198.552 1026.100, 199.682 1039.179, 200.440 1048.565 C 201.856 1066.095, 202.912 1070.341, 207.325 1076.250 C 211.330 1081.612, 212.338 1086.324, 211.593 1096.195 L 210.923 1105.065 215.097 1114.283 C 217.393 1119.352, 222.097 1131.825, 225.550 1142 C 241.662 1189.475, 245.961 1200.128, 256.195 1217.954 C 262.331 1228.642, 268.738 1238.017, 276.726 1248 C 281.738 1254.264, 295.147 1274.523, 298.216 1280.469 C 299.342 1282.652, 301.734 1288.393, 303.532 1293.227 C 307.129 1302.902, 308.337 1304.249, 318.049 1309.414 C 326.071 1313.681, 327.278 1314.977, 329.987 1322.227 C 332.904 1330.036, 338.561 1333.831, 353.500 1338.003 C 363.059 1340.673, 375.485 1346.731, 380.584 1351.208 C 382.613 1352.989, 389.273 1356.950, 395.386 1360.009 C 401.499 1363.069, 412.575 1368.794, 420 1372.731 C 448.342 1387.761, 467.705 1393.562, 519 1402.389 C 558.930 1409.260, 584.809 1411.098, 604.500 1408.461 C 611.650 1407.503, 624.473 1406.445, 632.994 1406.110 L 648.489 1405.500 650.949 1401.693 C 653.105 1398.357, 653.724 1397.986, 655.954 1398.693 C 657.355 1399.137, 661.875 1399.459, 666 1399.408 C 672.198 1399.332, 674.975 1398.700, 682 1395.767 C 686.675 1393.815, 699.500 1389.435, 710.500 1386.034 C 721.500 1382.632, 734.067 1378.308, 738.426 1376.425 C 742.785 1374.541, 746.518 1373, 746.721 1373 C 746.924 1373, 746.796 1374.569, 746.437 1376.486 L 745.783 1379.972 749.141 1378.833 C 754.169 1377.128, 757.587 1374.411, 759.003 1370.994 C 759.699 1369.312, 760.038 1367.705, 759.756 1367.422 C 759.473 1367.140, 757.172 1367.914, 754.643 1369.143 C 752.113 1370.372, 749.734 1371.067, 749.355 1370.689 C 748.977 1370.310, 748.861 1369.805, 749.099 1369.568 C 750.201 1368.466, 778.433 1355.099, 778.826 1355.493 C 779.072 1355.738, 778.311 1358.174, 777.136 1360.905 C 774.428 1367.200, 774.457 1368, 777.396 1368 C 780.512 1368, 785.415 1362.416, 789.052 1354.726 C 791.613 1349.312, 791.877 1349.052, 792.175 1351.656 C 792.430 1353.890, 793.071 1354.566, 795.164 1354.808 C 797.139 1355.037, 797.999 1354.579, 798.487 1353.041 C 799.305 1350.464, 805.051 1347.471, 811 1346.522 C 817.924 1345.418, 830.726 1339.391, 864.500 1321.337 C 881.550 1312.222, 902.700 1300.923, 911.500 1296.228 C 941.298 1280.330, 949.458 1274.584, 973 1252.922 C 988.648 1238.523, 993.430 1234.706, 1016.500 1218.192 C 1039.741 1201.555, 1047.259 1195.008, 1055.471 1184.255 C 1061.761 1176.018, 1063.078 1174.834, 1068 1172.993 C 1071.025 1171.862, 1074.730 1170.449, 1076.234 1169.854 C 1077.944 1169.176, 1081.001 1165.723, 1084.395 1160.635 C 1091.742 1149.622, 1098.986 1141.848, 1112.305 1130.684 C 1118.470 1125.518, 1124.186 1120.472, 1125.007 1119.472 C 1128.415 1115.321, 1141.520 1105.862, 1152.141 1099.888 C 1165.434 1092.411, 1175.511 1083.081, 1181 1073.168 C 1190.830 1055.415, 1198.048 1047.010, 1212.047 1037.016 C 1217.864 1032.863, 1222.515 1028.776, 1223.061 1027.338 C 1223.582 1025.969, 1228.230 1020.702, 1233.391 1015.633 C 1247.646 1001.630, 1255.575 988.590, 1264.789 964 C 1271.062 947.258, 1271.987 943.832, 1271.994 937.327 C 1271.999 933.215, 1271.469 931.522, 1269.411 929.077 C 1266.282 925.358, 1263.450 925.158, 1260.843 928.472 C 1259.774 929.832, 1255.659 932.620, 1251.699 934.667 C 1246.162 937.531, 1241.960 940.956, 1233.500 949.501 C 1227.450 955.611, 1215.975 965.788, 1208 972.115 C 1199.796 978.625, 1186.987 990.251, 1178.500 998.892 C 1170.250 1007.292, 1160.750 1016.265, 1157.389 1018.832 C 1154.028 1021.400, 1147.258 1027.133, 1142.345 1031.573 C 1131.798 1041.105, 1125.491 1045.469, 1110.059 1053.915 C 1097.833 1060.607, 1091.640 1065.054, 1080.487 1075.151 C 1073.778 1081.224, 1053.667 1096.913, 1046.275 1101.839 C 1044.344 1103.125, 1034.664 1108.276, 1024.763 1113.284 C 1007.232 1122.152, 1006.667 1122.536, 1003.164 1127.945 C 994.925 1140.670, 990.184 1145.786, 984.709 1147.862 C 981.844 1148.949, 973.200 1152.841, 965.500 1156.511 C 957.800 1160.182, 949.250 1164.250, 946.500 1165.552 C 943.750 1166.854, 937 1170.934, 931.500 1174.618 C 917.295 1184.132, 906.840 1189.172, 888.283 1195.453 C 879.363 1198.472, 868.904 1202.534, 865.039 1204.480 C 854.069 1210.005, 835.895 1212.827, 823.973 1210.858 C 815.262 1209.420, 808.541 1210.856, 800 1215.980 C 785.901 1224.439, 744.452 1234.260, 706.500 1238.134 C 688.149 1240.008, 648.376 1239.749, 631 1237.642 C 590.273 1232.705, 555.297 1222.313, 522.146 1205.300 C 504.694 1196.344, 497.558 1191.614, 488.785 1183.188 C 468.982 1164.170, 457.313 1135.326, 454.120 1097.500 C 450.622 1056.062, 452.315 1007.817, 458.490 973 C 460.676 960.674, 460.391 951.547, 457.418 938.678 C 455.417 930.018, 454.981 926.129, 455.480 921.414 C 456.260 914.046, 461.743 897.999, 469.407 880.655 C 472.528 873.590, 476.018 863.915, 477.162 859.155 C 478.999 851.508, 479.147 848.986, 478.436 837.500 C 476.938 813.287, 477.055 812.830, 494.999 772.500 C 504.365 751.452, 509.719 737.128, 510.512 731 C 510.903 727.975, 513.417 719.553, 516.098 712.284 C 519.568 702.877, 521.263 696.506, 521.980 690.180 C 524.782 665.440, 528.122 654.311, 539.040 633.335 C 557.413 598.034, 562.686 587.326, 566.991 576.568 C 569.869 569.378, 573.006 563.558, 576.156 559.568 C 588.502 543.928, 589.999 541.660, 591.578 536.196 C 599.772 507.838, 605.874 494.044, 625.788 458.868 C 631.900 448.070, 638.239 436.474, 639.874 433.098 C 646.031 420.388, 675.810 383.304, 704.675 352.400 C 729.747 325.558, 774.284 281.499, 787 270.958 C 833.522 232.395, 895.907 194.214, 928.124 184.586 C 949.553 178.181, 967.351 176.361, 977.568 179.529 C 986.486 182.294, 997.362 188.291, 999.603 191.679 C 1000.771 193.445, 1001.956 197.286, 1002.269 200.317 C 1003.199 209.332, 1008.215 216.597, 1017.696 222.667 C 1020.554 224.496, 1024.006 227.457, 1025.367 229.246 C 1028.063 232.791, 1036 248.688, 1036 250.542 C 1036 252.454, 1043.382 263.096, 1049.497 270 C 1056.931 278.394, 1059.472 284.112, 1061.476 296.959 C 1062.407 302.924, 1065.214 313.664, 1068.011 321.959 C 1073.324 337.712, 1076.740 355.062, 1079.670 381.159 C 1082.211 403.798, 1082.243 465.741, 1079.721 478.500 C 1076.412 495.237, 1072.480 505.548, 1064.985 517.144 C 1061.768 522.121, 1061 524.222, 1061 528.042 C 1061 534.128, 1065.179 540.566, 1073.500 547.298 C 1080.592 553.036, 1113.450 569.570, 1119.765 570.579 C 1128.145 571.918, 1135.942 566.781, 1142.489 555.608 C 1145.776 550, 1158.941 514.219, 1165.341 493.500 C 1198.307 386.784, 1196.881 290.975, 1161.316 223 C 1148.330 198.180, 1129.230 172.180, 1109.522 152.495 C 1090.072 133.069, 1060.318 110.365, 1045.089 103.328 C 1028.123 95.489, 1004.115 89.019, 979.139 85.554 C 969.860 84.267, 931.827 81.640, 930 82.160 C 929.725 82.239, 922.975 82.648, 915 83.070 M 465.324 428.149 C 463.560 430.673, 463.367 431.615, 464.304 433.116 C 465.882 435.641, 467.862 433.627, 468.664 428.681 C 469.393 424.191, 468.220 424.005, 465.324 428.149 M 395 534.227 C 395 534.867, 393.829 536.612, 392.399 538.106 C 389.843 540.773, 389.833 540.840, 391.821 541.904 C 393.569 542.839, 394.128 542.529, 395.922 539.626 C 398.392 535.630, 398.510 534.410, 396.500 533.638 C 395.675 533.322, 395 533.587, 395 534.227 M 379.524 561.113 C 371.493 568.165, 355.991 592.474, 357.205 596.115 C 357.403 596.710, 359.891 595.105, 362.733 592.550 C 366.774 588.917, 369.331 585.134, 374.462 575.202 C 378.070 568.216, 381.747 561.487, 382.633 560.250 C 384.875 557.118, 383.704 557.443, 379.524 561.113 M 313.914 679.065 C 313.081 684.050, 312.722 688.328, 313.116 688.571 C 314.476 689.412, 319.647 684.109, 321.523 679.948 C 323.193 676.246, 323.235 675.642, 321.892 674.635 C 321.058 674.011, 320.081 672.712, 319.719 671.750 C 319.358 670.788, 318.245 670, 317.245 670 C 315.732 670, 315.172 671.524, 313.914 679.065 M 225.110 789.321 C 222.744 793.150, 222.435 795.533, 224.166 796.602 C 225.869 797.655, 230.096 791.981, 229.771 789.077 C 229.361 785.413, 227.464 785.512, 225.110 789.321 M 260.965 813.750 C 259.686 818.013, 258.490 824.200, 258.307 827.500 C 257.986 833.326, 258.077 833.152, 261.439 821.500 C 265.053 808.973, 265.572 806, 264.146 806 C 263.676 806, 262.245 809.487, 260.965 813.750 M 1436.106 823.901 C 1433.448 826.384, 1433.003 827.502, 1433.022 831.651 C 1433.057 839.129, 1437.137 843, 1444.984 843 C 1449.705 843, 1454.472 840.854, 1455.970 838.055 C 1456.537 836.997, 1457 834.042, 1457 831.489 C 1457 827.691, 1456.468 826.314, 1454.077 823.923 C 1451.499 821.345, 1450.449 821, 1445.183 821 C 1439.974 821, 1438.815 821.370, 1436.106 823.901 M 1761.106 823.901 C 1758.448 826.384, 1758.003 827.502, 1758.022 831.651 C 1758.057 839.129, 1762.137 843, 1769.984 843 C 1774.705 843, 1779.472 840.854, 1780.970 838.055 C 1781.537 836.997, 1782 834.042, 1782 831.489 C 1782 827.691, 1781.468 826.314, 1779.077 823.923 C 1776.499 821.345, 1775.449 821, 1770.183 821 C 1764.974 821, 1763.815 821.370, 1761.106 823.901 M 1187.138 826.334 C 1186.290 827.356, 1186.046 837.965, 1186.238 865.617 L 1186.500 903.500 1197.762 903.783 L 1209.023 904.066 1208.762 864.783 L 1208.500 825.500 1198.400 825.217 C 1190.693 825, 1188.025 825.265, 1187.138 826.334 M 1695.138 826.334 C 1694.290 827.356, 1694.046 837.965, 1694.238 865.617 L 1694.500 903.500 1705.762 903.783 L 1717.023 904.066 1716.762 864.783 L 1716.500 825.500 1706.400 825.217 C 1698.693 825, 1696.025 825.265, 1695.138 826.334 M 1727.138 826.334 C 1726.290 827.356, 1726.046 837.965, 1726.238 865.617 L 1726.500 903.500 1737.762 903.783 L 1749.023 904.066 1748.762 864.783 L 1748.500 825.500 1738.400 825.217 C 1730.693 825, 1728.025 825.265, 1727.138 826.334 M 621.205 829.850 C 611.030 833.449, 603.308 841.884, 599.892 853.129 C 597.143 862.180, 597.580 875.611, 600.902 884.202 C 603.804 891.704, 610.634 899.182, 617.797 902.700 C 623.039 905.274, 624.429 905.500, 635 905.500 C 644.749 905.500, 647.386 905.142, 652.319 903.152 C 655.519 901.861, 658.386 900.158, 658.689 899.368 C 659.408 897.493, 653.166 883.192, 651.131 882.053 C 650.124 881.490, 648.511 881.719, 646.629 882.692 C 644.576 883.754, 641.657 884.093, 636.897 883.824 C 631.364 883.512, 629.605 882.980, 627.454 880.970 C 623.388 877.172, 621.800 873.247, 621.800 867 C 621.800 860.753, 623.388 856.828, 627.454 853.030 C 629.605 851.020, 631.364 850.488, 636.897 850.176 C 641.657 849.907, 644.576 850.246, 646.629 851.308 C 648.511 852.281, 650.124 852.510, 651.131 851.947 C 653.166 850.808, 659.408 836.507, 658.689 834.632 C 658.386 833.842, 655.519 832.164, 652.319 830.903 C 644.206 827.706, 628.744 827.183, 621.205 829.850 M 872.748 829.427 C 863.443 832.747, 858.032 839.729, 857.255 849.418 C 856.168 862.957, 861.438 869.545, 879.307 876.984 C 885.151 879.417, 887 880.653, 887 882.126 C 887 886.252, 879.677 886.162, 870.084 881.919 C 867.642 880.839, 865.324 880.303, 864.932 880.728 C 863.340 882.455, 857.898 896.237, 858.188 897.809 C 858.360 898.739, 861.200 900.850, 864.500 902.500 C 870.167 905.333, 871.167 905.500, 882.500 905.500 C 892.891 905.500, 895.036 905.211, 898.500 903.342 C 903.605 900.587, 907.477 896.498, 909.447 891.782 C 911.364 887.192, 911.465 877.049, 909.637 872.673 C 907.450 867.440, 899.982 861.692, 889.985 857.548 C 882.184 854.315, 880.933 853.474, 881.195 851.639 C 881.660 848.379, 889.812 848.741, 896.911 852.338 C 899.886 853.845, 902.621 854.724, 902.988 854.289 C 904.376 852.647, 910 838.903, 910 837.153 C 910 835.170, 902.586 831.057, 895.500 829.110 C 890.055 827.614, 877.332 827.791, 872.748 829.427 M 667 867.033 L 667 904.066 678.250 903.783 L 689.500 903.500 689.783 892.250 L 690.066 881 696.495 881 C 708.387 881, 718.608 875.008, 722.451 865.782 C 723.315 863.709, 724 859.160, 724 855.500 C 724 847.619, 722.164 842.794, 717.242 837.744 C 710.908 831.244, 705.723 830, 684.962 830 L 667 830 667 867.033 M 953.539 833.253 C 951.080 839.137, 930 901.299, 930 902.665 C 930 904.529, 953.260 904.596, 954.804 902.737 C 955.380 902.042, 956.389 899.342, 957.045 896.737 L 958.237 892 968.001 892 L 977.764 892 979.632 897.750 L 981.500 903.500 992.939 903.785 C 999.230 903.941, 1004.952 903.849, 1005.654 903.579 C 1006.923 903.092, 1006.121 900.579, 987.353 846.250 L 981.740 830 968.319 830 L 954.898 830 953.539 833.253 M 1401.020 830.743 C 1394.821 831.289, 1394 832.268, 1394 839.122 L 1394 845 1390.454 845 L 1386.909 845 1387.204 851.750 L 1387.500 858.500 1390.731 858.812 L 1393.962 859.124 1394.231 881.312 L 1394.500 903.500 1405.750 903.783 L 1417 904.066 1417 881.590 L 1417 859.115 1421.250 858.807 L 1425.500 858.500 1426.380 853.311 C 1427.609 846.071, 1426.984 845, 1421.531 845 L 1417 845 1417 837.500 L 1417 830 1411.250 830.175 C 1408.088 830.271, 1403.484 830.527, 1401.020 830.743 M 1637.539 833.253 C 1635.080 839.137, 1614 901.299, 1614 902.665 C 1614 904.529, 1637.260 904.596, 1638.804 902.737 C 1639.380 902.042, 1640.389 899.342, 1641.045 896.737 L 1642.237 892 1652.001 892 L 1661.764 892 1663.632 897.750 L 1665.500 903.500 1676.939 903.785 C 1683.230 903.941, 1688.952 903.849, 1689.654 903.579 C 1690.923 903.092, 1690.121 900.579, 1671.353 846.250 L 1665.740 830 1652.319 830 L 1638.898 830 1637.539 833.253 M 1490.791 844.146 C 1480.651 845.517, 1472.295 851.198, 1467.974 859.657 C 1465.807 863.900, 1465.500 865.802, 1465.500 875 C 1465.500 884.198, 1465.807 886.100, 1467.974 890.343 C 1472.338 898.888, 1480.547 904.419, 1490.983 905.846 C 1506.622 907.985, 1520.082 902.027, 1526.010 890.343 C 1528.908 884.629, 1529.949 871.441, 1528.037 864.665 C 1523.904 850.020, 1508.819 841.710, 1490.791 844.146 M 1566.427 844.096 C 1563.636 844.449, 1559.680 845.533, 1557.635 846.503 C 1554.157 848.153, 1553.837 848.159, 1552.686 846.585 C 1551.685 845.217, 1550.063 844.959, 1543.978 845.202 L 1536.500 845.500 1536.500 874.500 L 1536.500 903.500 1547.750 903.783 L 1559 904.066 1559 887.168 C 1559 871.476, 1559.151 870.078, 1561.116 867.580 C 1562.745 865.508, 1563.946 864.961, 1566.343 865.195 C 1571.312 865.682, 1571.969 868.249, 1571.985 887.250 L 1572 904 1583 904 L 1594 904 1594 881.468 C 1594 857.948, 1593.463 854.379, 1589.214 849.684 C 1585.109 845.148, 1575.916 842.893, 1566.427 844.096 M 1886.427 844.096 C 1883.636 844.449, 1879.680 845.533, 1877.635 846.503 C 1874.157 848.153, 1873.837 848.159, 1872.686 846.585 C 1871.685 845.217, 1870.063 844.959, 1863.978 845.202 L 1856.500 845.500 1856.500 874.500 L 1856.500 903.500 1867.750 903.783 L 1879 904.066 1879 887.168 C 1879 871.476, 1879.151 870.078, 1881.116 867.580 C 1882.745 865.508, 1883.946 864.961, 1886.343 865.195 C 1891.312 865.682, 1891.969 868.249, 1891.985 887.250 L 1892 904 1903 904 L 1914 904 1914 881.468 C 1914 857.948, 1913.463 854.379, 1909.214 849.684 C 1905.109 845.148, 1895.916 842.893, 1886.427 844.096 M 742.500 845.399 C 736.705 847.232, 732 849.865, 732.001 851.276 C 732.002 853.068, 737.620 864.647, 738.860 865.413 C 739.442 865.773, 742.203 865.320, 744.995 864.407 C 753.898 861.495, 761 863.792, 761 869.583 L 761 871.784 757.289 869.892 C 751.745 867.066, 742.702 867.335, 736.446 870.513 C 728.933 874.329, 727.500 876.915, 727.500 886.657 C 727.500 894.245, 727.711 895.075, 730.525 898.552 C 735.635 904.865, 739.108 906.183, 749.558 905.777 C 756.658 905.501, 759.421 904.949, 762.344 903.225 C 765.484 901.372, 766.162 901.260, 766.643 902.512 C 767.086 903.666, 769.100 904, 775.607 904 L 784 904 784 884.038 C 784 866.321, 783.768 863.455, 781.937 858.562 C 779.562 852.214, 774.156 846.963, 768.142 845.161 C 763.080 843.644, 747.593 843.788, 742.500 845.399 M 807.500 845.399 C 801.705 847.232, 797 849.865, 797.001 851.276 C 797.002 853.068, 802.620 864.647, 803.860 865.413 C 804.442 865.773, 807.203 865.320, 809.995 864.407 C 818.898 861.495, 826 863.792, 826 869.583 L 826 871.784 822.289 869.892 C 816.745 867.066, 807.702 867.335, 801.446 870.513 C 793.933 874.329, 792.500 876.915, 792.500 886.657 C 792.500 894.245, 792.711 895.075, 795.525 898.552 C 800.635 904.865, 804.108 906.183, 814.558 905.777 C 821.658 905.501, 824.421 904.949, 827.344 903.225 C 830.484 901.372, 831.162 901.260, 831.643 902.512 C 832.086 903.666, 834.100 904, 840.607 904 L 849 904 849 884.038 C 849 866.321, 848.768 863.455, 846.937 858.562 C 844.562 852.214, 839.156 846.963, 833.142 845.161 C 828.080 843.644, 812.593 843.788, 807.500 845.399 M 1023.500 846.031 C 1016.203 848.843, 1011.525 853.189, 1007.924 860.502 C 1004.912 866.620, 1004.780 867.384, 1005.194 876.216 C 1005.692 886.824, 1007.466 891.218, 1013.665 897.201 C 1022.034 905.276, 1035.261 907.938, 1047.918 904.093 C 1051.859 902.897, 1055.968 901.032, 1057.050 899.950 C 1059.006 897.994, 1058.997 897.945, 1055.544 891.087 C 1053.634 887.294, 1051.511 884.004, 1050.827 883.776 C 1050.143 883.548, 1048.440 883.919, 1047.042 884.600 C 1041.590 887.257, 1034.786 886.674, 1030.917 883.218 C 1024.312 877.316, 1026.603 866.398, 1034.971 863.890 C 1038.925 862.706, 1041.654 863.009, 1049.757 865.534 C 1051.791 866.167, 1052.355 865.507, 1055.447 858.869 C 1058.693 851.901, 1058.787 851.405, 1057.166 849.754 C 1051.804 844.291, 1033.321 842.247, 1023.500 846.031 M 1079.500 846.031 C 1072.203 848.843, 1067.525 853.189, 1063.924 860.502 C 1060.912 866.620, 1060.780 867.384, 1061.194 876.216 C 1061.692 886.824, 1063.466 891.218, 1069.665 897.201 C 1078.034 905.276, 1091.261 907.938, 1103.918 904.093 C 1107.859 902.897, 1111.968 901.032, 1113.050 899.950 C 1115.006 897.994, 1114.997 897.945, 1111.544 891.087 C 1109.634 887.294, 1107.511 884.004, 1106.827 883.776 C 1106.143 883.548, 1104.440 883.919, 1103.042 884.600 C 1097.590 887.257, 1090.786 886.674, 1086.917 883.218 C 1080.312 877.316, 1082.603 866.398, 1090.971 863.890 C 1094.925 862.706, 1097.654 863.009, 1105.757 865.534 C 1107.791 866.167, 1108.355 865.507, 1111.447 858.869 C 1114.693 851.901, 1114.787 851.405, 1113.166 849.754 C 1107.804 844.291, 1089.321 842.247, 1079.500 846.031 M 1139 844.935 C 1133.884 846.497, 1128.217 849.989, 1125.174 853.455 C 1119.212 860.245, 1118.500 862.490, 1118.500 874.500 C 1118.500 884.814, 1118.684 885.833, 1121.454 890.833 C 1124.681 896.658, 1128.058 899.914, 1134.384 903.298 C 1137.970 905.216, 1140.046 905.500, 1150.500 905.500 C 1160.892 905.500, 1163.165 905.193, 1167.465 903.211 C 1170.196 901.952, 1172.735 900.428, 1173.109 899.824 C 1173.903 898.539, 1169.471 884.909, 1167.954 883.972 C 1167.386 883.621, 1164.577 884.144, 1161.711 885.134 C 1154.454 887.642, 1146.582 887.582, 1144 885 C 1142.900 883.900, 1142 882.550, 1142 882 C 1142 881.374, 1148.260 880.994, 1158.750 880.985 C 1167.963 880.976, 1176.122 880.576, 1176.881 880.095 C 1177.938 879.426, 1178.159 877.251, 1177.823 870.848 C 1177.129 857.632, 1171.511 849.208, 1160.890 845.461 C 1156.537 843.925, 1143.346 843.608, 1139 844.935 M 1238 844.935 C 1232.884 846.497, 1227.217 849.989, 1224.174 853.455 C 1218.212 860.245, 1217.500 862.490, 1217.500 874.500 C 1217.500 884.814, 1217.684 885.833, 1220.454 890.833 C 1223.681 896.658, 1227.058 899.914, 1233.384 903.298 C 1236.970 905.216, 1239.046 905.500, 1249.500 905.500 C 1259.892 905.500, 1262.165 905.193, 1266.465 903.211 C 1269.196 901.952, 1271.735 900.428, 1272.109 899.824 C 1272.903 898.539, 1268.471 884.909, 1266.954 883.972 C 1266.386 883.621, 1263.577 884.144, 1260.711 885.134 C 1253.454 887.642, 1245.582 887.582, 1243 885 C 1241.900 883.900, 1241 882.550, 1241 882 C 1241 881.374, 1247.260 880.994, 1257.750 880.985 C 1266.963 880.976, 1275.122 880.576, 1275.881 880.095 C 1276.938 879.426, 1277.159 877.251, 1276.823 870.848 C 1276.129 857.632, 1270.511 849.208, 1259.890 845.461 C 1255.537 843.925, 1242.346 843.608, 1238 844.935 M 1338.500 845.399 C 1332.705 847.232, 1328 849.865, 1328.001 851.276 C 1328.002 853.068, 1333.620 864.647, 1334.860 865.413 C 1335.442 865.773, 1338.203 865.320, 1340.995 864.407 C 1349.898 861.495, 1357 863.792, 1357 869.583 L 1357 871.784 1353.289 869.892 C 1347.745 867.066, 1338.702 867.335, 1332.446 870.513 C 1324.933 874.329, 1323.500 876.915, 1323.500 886.657 C 1323.500 894.245, 1323.711 895.075, 1326.525 898.552 C 1331.635 904.865, 1335.108 906.183, 1345.558 905.777 C 1352.658 905.501, 1355.421 904.949, 1358.344 903.225 C 1361.484 901.372, 1362.162 901.260, 1362.643 902.512 C 1363.086 903.666, 1365.100 904, 1371.607 904 L 1380 904 1380 884.038 C 1380 866.321, 1379.768 863.455, 1377.937 858.562 C 1375.562 852.214, 1370.156 846.963, 1364.142 845.161 C 1359.080 843.644, 1343.593 843.788, 1338.500 845.399 M 1805.500 845.399 C 1799.705 847.232, 1795 849.865, 1795.001 851.276 C 1795.002 853.068, 1800.620 864.647, 1801.860 865.413 C 1802.442 865.773, 1805.203 865.320, 1807.995 864.407 C 1816.898 861.495, 1824 863.792, 1824 869.583 L 1824 871.784 1820.289 869.892 C 1814.745 867.066, 1805.702 867.335, 1799.446 870.513 C 1791.933 874.329, 1790.500 876.915, 1790.500 886.657 C 1790.500 894.245, 1790.711 895.075, 1793.525 898.552 C 1798.635 904.865, 1802.108 906.183, 1812.558 905.777 C 1819.658 905.501, 1822.421 904.949, 1825.344 903.225 C 1828.484 901.372, 1829.162 901.260, 1829.643 902.512 C 1830.086 903.666, 1832.100 904, 1838.607 904 L 1847 904 1847 884.038 C 1847 866.321, 1846.768 863.455, 1844.937 858.562 C 1842.562 852.214, 1837.156 846.963, 1831.142 845.161 C 1826.080 843.644, 1810.593 843.788, 1805.500 845.399 M 1939.500 846.031 C 1932.203 848.843, 1927.525 853.189, 1923.924 860.502 C 1920.912 866.620, 1920.780 867.384, 1921.194 876.216 C 1921.692 886.824, 1923.466 891.218, 1929.665 897.201 C 1938.034 905.276, 1951.261 907.938, 1963.918 904.093 C 1967.859 902.897, 1971.968 901.032, 1973.050 899.950 C 1975.006 897.994, 1974.997 897.945, 1971.544 891.087 C 1969.634 887.294, 1967.511 884.004, 1966.827 883.776 C 1966.143 883.548, 1964.440 883.919, 1963.042 884.600 C 1957.590 887.257, 1950.786 886.674, 1946.917 883.218 C 1940.312 877.316, 1942.603 866.398, 1950.971 863.890 C 1954.925 862.706, 1957.654 863.009, 1965.757 865.534 C 1967.791 866.167, 1968.355 865.507, 1971.447 858.869 C 1974.693 851.901, 1974.787 851.405, 1973.166 849.754 C 1967.804 844.291, 1949.321 842.247, 1939.500 846.031 M 1999 844.935 C 1993.884 846.497, 1988.217 849.989, 1985.174 853.455 C 1979.212 860.245, 1978.500 862.490, 1978.500 874.500 C 1978.500 884.814, 1978.684 885.833, 1981.454 890.833 C 1984.681 896.658, 1988.058 899.914, 1994.384 903.298 C 1997.970 905.216, 2000.046 905.500, 2010.500 905.500 C 2020.892 905.500, 2023.165 905.193, 2027.465 903.211 C 2030.196 901.952, 2032.735 900.428, 2033.109 899.824 C 2033.903 898.539, 2029.471 884.909, 2027.954 883.972 C 2027.386 883.621, 2024.577 884.144, 2021.711 885.134 C 2014.454 887.642, 2006.582 887.582, 2004 885 C 2002.900 883.900, 2002 882.550, 2002 882 C 2002 881.374, 2008.260 880.994, 2018.750 880.985 C 2027.963 880.976, 2036.122 880.576, 2036.881 880.095 C 2037.938 879.426, 2038.159 877.251, 2037.823 870.848 C 2037.129 857.632, 2031.511 849.208, 2020.890 845.461 C 2016.537 843.925, 2003.346 843.608, 1999 844.935 M 1284.452 846.263 C 1284.186 846.958, 1284.087 860.121, 1284.234 875.513 L 1284.500 903.500 1295.750 903.783 L 1307 904.066 1307 885.572 C 1307 867.835, 1307.090 866.994, 1309.189 865.039 C 1310.571 863.751, 1312.736 863, 1315.066 863 C 1320.255 863, 1321.141 861.428, 1320.796 852.842 L 1320.500 845.500 1314.500 845.501 C 1309.830 845.502, 1307.780 846.016, 1305.251 847.819 L 1302.002 850.135 1301.026 847.567 C 1300.096 845.123, 1299.686 845, 1292.493 845 C 1287.328 845, 1284.784 845.400, 1284.452 846.263 M 1434 874.500 L 1434 904.066 1445.250 903.783 L 1456.500 903.500 1456.500 874.500 L 1456.500 845.500 1445.250 845.217 L 1434 844.934 1434 874.500 M 1759 874.500 L 1759 904.066 1770.250 903.783 L 1781.500 903.500 1781.500 874.500 L 1781.500 845.500 1770.250 845.217 L 1759 844.934 1759 874.500 M 690 855.557 L 690 861.115 694.218 860.807 C 697.565 860.563, 698.740 859.956, 699.909 857.865 C 701.227 855.505, 701.202 854.958, 699.667 852.615 C 698.295 850.521, 697.162 850, 693.977 850 L 690 850 690 855.557 M 215.148 858.177 C 213.800 864.021, 214.754 866.270, 217.778 864.376 C 220.283 862.807, 220.557 856.814, 218.220 854.699 C 216.415 853.066, 216.297 853.200, 215.148 858.177 M 967.820 859.525 C 967.504 860.061, 966.489 863.200, 965.566 866.500 C 964.642 869.800, 963.657 873.288, 963.376 874.250 C 962.936 875.756, 963.582 876, 968.012 876 C 973.107 876, 973.153 875.972, 972.553 873.250 C 971.079 866.561, 968.346 858.635, 967.820 859.525 M 1651.820 859.525 C 1651.504 860.061, 1650.489 863.200, 1649.566 866.500 C 1648.642 869.800, 1647.657 873.288, 1647.376 874.250 C 1646.936 875.756, 1647.582 876, 1652.012 876 C 1657.107 876, 1657.153 875.972, 1656.553 873.250 C 1655.079 866.561, 1652.346 858.635, 1651.820 859.525 M 1143.571 864.571 C 1140.240 867.903, 1141.585 869, 1149 869 C 1154.197 869, 1156 868.654, 1156 867.655 C 1156 863.583, 1146.834 861.309, 1143.571 864.571 M 1242.571 864.571 C 1239.240 867.903, 1240.585 869, 1248 869 C 1253.197 869, 1255 868.654, 1255 867.655 C 1255 863.583, 1245.834 861.309, 1242.571 864.571 M 2003.571 864.571 C 2000.240 867.903, 2001.585 869, 2009 869 C 2014.197 869, 2016 868.654, 2016 867.655 C 2016 863.583, 2006.834 861.309, 2003.571 864.571 M 1490.503 866.250 C 1485.493 870.572, 1485.569 879.943, 1490.647 883.937 C 1494.231 886.756, 1500.112 886.670, 1503.497 883.750 C 1508.507 879.428, 1508.431 870.057, 1503.353 866.063 C 1499.769 863.244, 1493.888 863.330, 1490.503 866.250 M 753.674 883.162 C 752.753 883.678, 752 884.955, 752 886 C 752 887.045, 752.753 888.322, 753.674 888.838 C 756.063 890.174, 761 888.262, 761 886 C 761 883.738, 756.063 881.826, 753.674 883.162 M 818.674 883.162 C 817.753 883.678, 817 884.955, 817 886 C 817 887.045, 817.753 888.322, 818.674 888.838 C 821.063 890.174, 826 888.262, 826 886 C 826 883.738, 821.063 881.826, 818.674 883.162 M 1349.674 883.162 C 1348.753 883.678, 1348 884.955, 1348 886 C 1348 887.045, 1348.753 888.322, 1349.674 888.838 C 1352.063 890.174, 1357 888.262, 1357 886 C 1357 883.738, 1352.063 881.826, 1349.674 883.162 M 1816.674 883.162 C 1815.753 883.678, 1815 884.955, 1815 886 C 1815 887.045, 1815.753 888.322, 1816.674 888.838 C 1819.063 890.174, 1824 888.262, 1824 886 C 1824 883.738, 1819.063 881.826, 1816.674 883.162 M 216.100 942.750 C 216.245 948.211, 217.267 951.101, 219.602 952.652 C 221.649 954.011, 221.656 953.975, 220.440 948.261 C 219.766 945.092, 218.893 941.712, 218.500 940.750 C 217.279 937.756, 215.995 938.825, 216.100 942.750 M 228.750 954.030 C 225.296 957.419, 223 960.527, 223 961.813 C 223 962.991, 224.125 966.943, 225.500 970.596 C 226.875 974.249, 228 977.586, 228 978.011 C 228 978.436, 226.875 979.066, 225.500 979.411 C 223.140 980.003, 223 980.419, 223 986.835 C 223 998.682, 225.502 1008.379, 229.831 1013.311 C 231.307 1014.993, 231.541 1014.313, 233.099 1003.811 C 234.022 997.590, 235.503 988.504, 236.389 983.619 C 237.275 978.734, 238 971.444, 238 967.418 C 238 960.256, 236.421 950.049, 235.143 948.944 C 234.789 948.639, 231.912 950.927, 228.750 954.030 M 203.920 1004.711 C 202.832 1007.572, 203.435 1012, 204.912 1012 C 205.393 1012, 206.045 1011.325, 206.362 1010.500 C 207.140 1008.470, 208.924 1008.605, 209.679 1010.750 C 210.018 1011.712, 210.948 1014.075, 211.746 1016 L 213.196 1019.500 214.583 1015 C 215.346 1012.525, 215.976 1009.059, 215.985 1007.297 C 215.998 1004.443, 215.591 1003.981, 212.250 1003.053 C 206.499 1001.455, 205.048 1001.744, 203.920 1004.711" stroke="none" fill="#deb51a" fill-rule="evenodd"/><path d="M 709 587.985 C 669.275 596.602, 643.207 622.513, 632.733 663.793 C 630.792 671.441, 630.523 675.114, 630.523 694 C 630.523 712.886, 630.792 716.559, 632.733 724.207 C 640.534 754.951, 656.567 776.679, 681.289 790.014 C 696.981 798.479, 712.196 802, 733.075 802 C 753.345 802, 769.105 798.615, 786.762 790.469 C 796.081 786.170, 800 783.348, 800 780.938 C 800 779.088, 782.390 740.876, 779.405 736.250 C 777.555 733.381, 775.917 733.421, 769.425 736.492 C 762.416 739.808, 754.841 741.704, 745.331 742.523 C 730.491 743.800, 718.002 739.898, 708.662 731.065 C 698.804 721.741, 694.592 710.645, 694.592 694 C 694.592 677.355, 698.804 666.259, 708.662 656.935 C 718.002 648.102, 730.491 644.200, 745.331 645.477 C 754.841 646.296, 762.416 648.192, 769.425 651.508 C 775.917 654.579, 777.555 654.619, 779.405 651.750 C 782.390 647.124, 800 608.912, 800 607.062 C 800 601.977, 777.184 591.877, 756.715 587.901 C 743.565 585.347, 720.978 585.386, 709 587.985 M 1448.500 587.660 C 1421.642 593.403, 1402.028 610.929, 1395.975 634.596 C 1393.518 644.203, 1393.306 660.913, 1395.531 669.458 C 1399.081 683.087, 1408.349 695.113, 1422.618 704.607 C 1430.365 709.762, 1438.750 713.708, 1462.824 723.532 C 1477.465 729.506, 1480.981 734.304, 1475.494 740.825 C 1471.720 745.310, 1465.144 746.590, 1455.810 744.657 C 1446.842 742.799, 1435.705 738.855, 1426.775 734.374 C 1423.076 732.518, 1419.201 731, 1418.163 731 C 1416.670 731, 1414.166 735.702, 1406.138 753.583 C 1400.562 766.004, 1396 777.237, 1396 778.546 C 1396 780.340, 1397.504 781.947, 1402.113 785.077 C 1413.153 792.574, 1425.670 797.254, 1443.500 800.552 C 1456.336 802.927, 1482.406 802.144, 1493 799.066 C 1516.058 792.368, 1532.684 777.738, 1539.695 757.977 C 1543.221 748.041, 1544.111 728.999, 1541.517 719 C 1535.570 696.067, 1519.949 682.790, 1480.500 667.140 C 1465.565 661.215, 1461.785 659.128, 1459.399 655.486 C 1457.798 653.042, 1457.795 652.653, 1459.355 649.383 C 1463.897 639.857, 1480.091 641.317, 1505.884 653.577 C 1512.233 656.595, 1518.061 658.937, 1518.835 658.782 C 1520.132 658.522, 1540.904 613.986, 1540.971 611.323 C 1541.053 608.044, 1523.623 598.083, 1508.234 592.614 C 1490.295 586.239, 1464.969 584.138, 1448.500 587.660 M 836.245 590.033 L 833.991 590.939 834.245 694.220 L 834.500 797.500 863.500 797.780 C 879.450 797.934, 893.513 797.813, 894.750 797.511 L 897 796.962 897 765.481 L 897 734 910.750 733.987 C 933.069 733.966, 950.131 729.482, 964.521 719.857 C 983.285 707.308, 992.658 690.011, 993.740 665.942 C 994.672 645.177, 989.212 628.164, 977.454 615.199 C 963.563 599.882, 944.889 591.941, 918.160 589.985 C 901.981 588.801, 839.219 588.838, 836.245 590.033 M 1622.096 591.750 C 1620.538 593.032, 1610.881 620.206, 1585.985 693.367 C 1567.293 748.293, 1552 794.306, 1552 795.617 L 1552 798 1585.443 798 C 1617.722 798, 1618.935 797.931, 1620.284 796.006 C 1621.052 794.909, 1623.665 786.806, 1626.090 777.999 L 1630.500 761.988 1658.426 762.244 L 1686.351 762.500 1690.778 778.500 C 1693.213 787.300, 1695.903 795.288, 1696.757 796.250 C 1698.177 797.850, 1701.134 798, 1731.186 798 C 1760.104 798, 1764.135 797.811, 1764.664 796.434 C 1765.601 793.992, 1697.327 593.878, 1694.831 591.750 C 1692.963 590.157, 1689.697 590, 1658.500 590 C 1627.330 590, 1624.029 590.159, 1622.096 591.750 M 1841.096 591.750 C 1839.538 593.032, 1829.881 620.206, 1804.985 693.367 C 1786.293 748.293, 1771 794.306, 1771 795.617 L 1771 798 1804.443 798 C 1836.722 798, 1837.935 797.931, 1839.284 796.006 C 1840.052 794.909, 1842.665 786.806, 1845.090 777.999 L 1849.500 761.988 1877.426 762.244 L 1905.351 762.500 1909.778 778.500 C 1912.213 787.300, 1914.903 795.288, 1915.757 796.250 C 1917.177 797.850, 1920.134 798, 1950.186 798 C 1979.104 798, 1983.135 797.811, 1983.664 796.434 C 1984.601 793.992, 1916.327 593.878, 1913.831 591.750 C 1911.963 590.157, 1908.697 590, 1877.500 590 C 1846.330 590, 1843.029 590.159, 1841.096 591.750 M 1069.097 629.559 C 1052.483 632.448, 1029.636 641.573, 1026.311 646.649 C 1024.923 648.766, 1025.403 650.114, 1033.977 668.204 C 1039.008 678.817, 1043.772 688.161, 1044.565 688.968 C 1045.802 690.227, 1046.468 690.243, 1049.254 689.076 C 1066.102 682.017, 1080.932 678.995, 1089.412 680.893 C 1100.981 683.482, 1105.573 689.555, 1106.650 703.690 L 1107.322 712.500 1103.033 708.637 C 1094.892 701.304, 1083.827 697.993, 1067.540 698.015 C 1054.783 698.032, 1046.665 699.680, 1037.621 704.090 C 1025.398 710.049, 1016.683 719.919, 1012.895 732.091 C 1010.523 739.709, 1010.346 755.067, 1012.531 763.458 C 1016.073 777.056, 1025.395 788.807, 1037.821 795.337 C 1047.248 800.290, 1055.187 801.968, 1069.292 801.985 C 1087.623 802.008, 1101.927 798.303, 1113.735 790.472 C 1116.614 788.562, 1119.151 787, 1119.373 787 C 1119.596 787, 1120.092 788.679, 1120.477 790.732 C 1121.916 798.400, 1120.573 798, 1144.913 798 C 1162.629 798, 1166.979 797.730, 1167.941 796.571 C 1168.835 795.494, 1169.026 782.115, 1168.716 742.321 C 1168.279 686.271, 1168.217 685.472, 1163.096 670.725 C 1155.898 649.997, 1141.086 636.288, 1119.500 630.377 C 1111.054 628.064, 1080.543 627.569, 1069.097 629.559 M 1261.097 629.559 C 1244.483 632.448, 1221.636 641.573, 1218.311 646.649 C 1216.923 648.766, 1217.403 650.114, 1225.977 668.204 C 1231.008 678.817, 1235.772 688.161, 1236.565 688.968 C 1237.802 690.227, 1238.468 690.243, 1241.254 689.076 C 1258.102 682.017, 1272.932 678.995, 1281.412 680.893 C 1292.981 683.482, 1297.573 689.555, 1298.650 703.690 L 1299.322 712.500 1295.033 708.637 C 1286.892 701.304, 1275.827 697.993, 1259.540 698.015 C 1246.783 698.032, 1238.665 699.680, 1229.621 704.090 C 1217.398 710.049, 1208.683 719.919, 1204.895 732.091 C 1202.523 739.709, 1202.346 755.067, 1204.531 763.458 C 1208.073 777.056, 1217.395 788.807, 1229.821 795.337 C 1239.248 800.290, 1247.187 801.968, 1261.292 801.985 C 1279.623 802.008, 1293.927 798.303, 1305.735 790.472 C 1308.614 788.562, 1311.151 787, 1311.373 787 C 1311.596 787, 1312.092 788.679, 1312.477 790.732 C 1313.916 798.400, 1312.573 798, 1336.913 798 C 1354.629 798, 1358.979 797.730, 1359.941 796.571 C 1360.835 795.494, 1361.026 782.115, 1360.716 742.321 C 1360.279 686.271, 1360.217 685.472, 1355.096 670.725 C 1347.898 649.997, 1333.086 636.288, 1311.500 630.377 C 1303.054 628.064, 1272.543 627.569, 1261.097 629.559 M 897 661.869 L 897 680 903.951 680 C 914.525 680, 920.562 678.371, 924.469 674.464 C 930.029 668.905, 930.903 658.360, 926.377 651.452 C 923.088 646.432, 918.534 644.696, 907.356 644.198 L 897 643.738 897 661.869 M 1651.050 689.662 C 1647.020 703.873, 1643.508 716.288, 1643.245 717.250 C 1642.804 718.862, 1643.996 719, 1658.402 719 L 1674.038 719 1673.464 716.750 C 1673.148 715.513, 1669.625 703.098, 1665.634 689.162 L 1658.378 663.824 1651.050 689.662 M 1870.050 689.662 C 1866.020 703.873, 1862.508 716.288, 1862.245 717.250 C 1861.804 718.862, 1862.996 719, 1877.402 719 L 1893.038 719 1892.464 716.750 C 1892.148 715.513, 1888.625 703.098, 1884.634 689.162 L 1877.378 663.824 1870.050 689.662 M 1083.775 738.502 C 1075.654 743.079, 1077.997 754.783, 1087.388 756.545 C 1092.483 757.501, 1096.903 756.447, 1102.386 752.970 C 1106.615 750.288, 1107.091 749.622, 1106.812 746.772 C 1106.121 739.698, 1091.174 734.332, 1083.775 738.502 M 1275.775 738.502 C 1267.654 743.079, 1269.997 754.783, 1279.388 756.545 C 1284.483 757.501, 1288.903 756.447, 1294.386 752.970 C 1298.615 750.288, 1299.091 749.622, 1298.812 746.772 C 1298.121 739.698, 1283.174 734.332, 1275.775 738.502" stroke="none" fill="#040404" fill-rule="evenodd"/></svg>