<svg xmlns="http://www.w3.org/2000/svg" width="5826" height="1101" viewBox="0 0 5826 1101" version="1.1"><path d="" stroke="none" fill="#e80474" fill-rule="evenodd"/><path d="M 0 187.500 L 0 375 33 375 C 58.718 375, 66.006 374.724, 66.028 373.750 C 66.457 354.654, 68.306 322.519, 69.524 313 C 74.318 275.525, 83.426 243.964, 97.950 214.500 C 121.127 167.480, 156.205 132.566, 203.500 109.448 C 233.298 94.882, 263.591 86.126, 300 81.554 C 311.801 80.072, 344.627 78.043, 357.280 78.014 L 363.060 78 362.720 486.250 C 362.343 938.929, 362.879 903.848, 355.907 932 C 345.239 975.075, 322.250 1000.755, 283 1013.439 C 260.355 1020.757, 241.768 1023, 203.756 1023 L 176 1023 176 1062 L 176 1101 462 1101 L 748 1101 748 1062 L 748 1023 720.244 1023 C 682.232 1023, 663.645 1020.757, 641 1013.439 C 601.750 1000.755, 578.761 975.075, 568.093 932 C 561.121 903.848, 561.657 938.929, 561.280 486.250 L 560.940 78 566.720 78.014 C 579.373 78.043, 612.199 80.072, 624 81.554 C 696.710 90.684, 756.069 120.303, 795.242 167 C 827.019 204.880, 846.919 253.929, 854.476 313 C 855.694 322.519, 857.543 354.654, 857.972 373.750 C 857.994 374.724, 865.282 375, 891 375 L 924 375 924 187.500 L 924 0 462 0 L 0 0 0 187.500 M 1364 550.500 L 1364 991 1529.750 990.990 C 1633.124 990.983, 1700.016 990.598, 1707.500 989.965 C 1796.162 982.474, 1867.923 952.008, 1922.839 898.546 C 1952.409 869.758, 1972.252 842.461, 1991.027 804.742 C 2025.592 735.298, 2042.990 650.342, 2042.990 551 C 2042.990 371.928, 1986.029 238.705, 1879.183 167.876 C 1827.235 133.440, 1765.034 114.576, 1691.699 111.016 C 1680.434 110.470, 1603.501 110.028, 1517.750 110.018 L 1364 110 1364 550.500 M 2948.750 188.811 L 2880 252.476 2880 303.729 L 2880 354.983 2825.750 355.241 L 2771.500 355.500 2771.243 428.250 L 2770.987 501 2825.468 501 L 2879.949 501 2880.248 668.250 C 2880.546 835.320, 2880.549 835.513, 2882.734 847.500 C 2892.922 903.383, 2916.397 941.885, 2956.893 969.128 C 2991.705 992.547, 3035.561 1003.268, 3090 1001.665 C 3129.638 1000.499, 3159.409 995.144, 3188.298 983.986 L 3199 979.852 3199 912.926 C 3199 867.736, 3198.666 846, 3197.971 846 C 3197.406 846, 3191.443 847.110, 3184.721 848.466 C 3155.084 854.448, 3120.064 856.225, 3103.500 852.588 C 3075.544 846.451, 3059.049 830.544, 3052.295 803.213 C 3050.796 797.148, 3050.602 782.243, 3050.281 648.750 L 3049.925 501 3130.963 501 L 3212 501 3212 428 L 3212 355 3131 355 L 3050 355 3050 240 L 3050 125 3033.750 125.074 L 3017.500 125.147 2948.750 188.811 M 1542 551.011 L 1542 826.156 1610.750 825.725 C 1686.027 825.254, 1689.020 825.054, 1712.929 818.890 C 1803.265 795.602, 1852.200 712.461, 1856.902 574.279 C 1859.331 502.882, 1851.228 441.770, 1833.263 396 C 1809.001 334.187, 1768.953 297.005, 1711 282.486 C 1688.495 276.848, 1685.897 276.686, 1611.250 276.260 L 1542 275.866 1542 551.011 M 2414 334.676 C 2286.087 340.396, 2195.106 413.011, 2158.517 538.585 C 2139.343 604.394, 2135.540 690.867, 2148.567 764.848 C 2171.774 896.643, 2249.049 983.539, 2363.452 1006.487 C 2383.509 1010.510, 2401.462 1012.125, 2426 1012.112 C 2458.470 1012.096, 2481.978 1009.300, 2511 1002.002 C 2597.713 980.197, 2663.895 920.951, 2690.556 841.263 C 2693.632 832.071, 2698.995 812.052, 2698.999 809.750 C 2698.999 809.337, 2660.306 809, 2613.013 809 L 2527.025 809 2523.396 816.250 C 2508.245 846.515, 2482.041 862.968, 2442.500 867.043 C 2427.686 868.570, 2410.823 867.817, 2397.074 865.015 C 2354.680 856.376, 2327.288 826.429, 2313.516 773.663 C 2309.260 757.358, 2304 725.505, 2304 716.039 C 2304 715.324, 2365.947 715, 2502.928 715 L 2701.856 715 2702.678 709.250 C 2703.130 706.087, 2703.491 683.925, 2703.481 660 C 2703.465 624.288, 2703.141 613.906, 2701.667 602.010 C 2691.001 515.918, 2661.823 451.420, 2611.900 403.582 C 2568.546 362.038, 2514.139 339.203, 2448.500 335.001 C 2434.150 334.083, 2428.465 334.029, 2414 334.676 M 3553 334.987 C 3422.152 343.633, 3332.275 421.660, 3299.524 555.043 C 3283.420 620.629, 3281.912 703.923, 3295.579 773 C 3302.505 808.009, 3311.537 835.189, 3325.983 864.500 C 3368.401 950.565, 3442.186 1001.202, 3539.500 1011.032 C 3553.501 1012.447, 3590.174 1012.452, 3604.500 1011.042 C 3644.348 1007.119, 3679.180 997.529, 3711.500 981.582 C 3737.464 968.771, 3755.789 955.982, 3775.374 937.005 C 3809.058 904.366, 3831.663 864.624, 3842.353 819.250 L 3844.768 809 3758.634 809.005 L 3672.500 809.009 3668.144 817.538 C 3654.974 843.323, 3634.203 858.226, 3601.802 865.139 C 3589.218 867.823, 3559.363 868.361, 3547 866.127 C 3531.438 863.314, 3517.607 857.871, 3506 849.993 C 3474.425 828.564, 3455.799 785.109, 3449.744 718.750 L 3449.402 715 3648.094 715 C 3829.507 715, 3846.840 714.861, 3847.401 713.396 C 3848.961 709.333, 3850.203 674.385, 3849.673 649.500 C 3848.198 580.228, 3836.323 526.743, 3811.485 477.500 C 3770.679 396.598, 3700.137 346.847, 3611.616 336.539 C 3595.618 334.676, 3568.547 333.959, 3553 334.987 M 4213 335.055 C 4071.669 343.624, 3976.557 439.471, 3953.563 596.500 C 3948.674 629.885, 3946.952 686.464, 3949.865 718 C 3958.425 810.657, 3986.989 882.189, 4035.747 933.072 C 4089.814 989.495, 4162.327 1015.878, 4252.327 1011.870 C 4373.786 1006.462, 4461.832 938.431, 4494.596 824.673 C 4498.216 812.107, 4503.361 787.855, 4504.553 777.744 L 4505.232 771.989 4418.460 772.244 L 4331.688 772.500 4328.934 783 C 4318.486 822.829, 4295.953 845.925, 4259.984 853.671 C 4247.151 856.435, 4220.628 856.188, 4208.623 853.192 C 4173.443 844.414, 4149.572 819.429, 4135.497 776.653 C 4126.998 750.823, 4123.098 723.300, 4122.297 683.500 C 4120.027 570.625, 4149.433 507.165, 4210.483 493.189 C 4220.428 490.912, 4249.741 490.912, 4260.003 493.189 C 4298.315 501.689, 4319.982 525.042, 4331.963 570.750 L 4333.077 575 4419.154 575 L 4505.230 575 4504.553 569.250 C 4503.361 559.144, 4498.215 534.891, 4494.596 522.327 C 4464.933 419.336, 4389.866 353.324, 4284.983 337.998 C 4261.053 334.501, 4237.809 333.551, 4213 335.055 M 4866 334.610 C 4787.199 338.935, 4724.357 366.116, 4675.766 416.893 C 4628.357 466.435, 4599.955 534.262, 4590.299 621 C 4587.789 643.544, 4587.803 703.080, 4590.323 726 C 4600.386 817.502, 4631.751 888.418, 4684.438 938.786 C 4731.315 983.601, 4793.180 1008.687, 4864.673 1011.870 C 4975.694 1016.814, 5063.990 974.970, 5119.014 891.335 C 5144.784 852.167, 5163.071 801.986, 5170.885 749 C 5174.934 721.545, 5175.500 712.280, 5175.500 673.500 C 5175.500 648.904, 5175.037 631.267, 5174.188 623.500 C 5165.879 547.513, 5144.901 489.123, 5108.328 440.184 C 5096.855 424.831, 5071.938 399.894, 5057 388.814 C 5017.317 359.379, 4973.353 342.503, 4921 336.609 C 4907.150 335.049, 4877.576 333.975, 4866 334.610 M 5613.072 335.088 C 5554.955 339.836, 5505.247 367.771, 5473.544 413.500 C 5470.112 418.450, 5465.998 424.862, 5464.402 427.749 C 5461.703 432.631, 5461.238 432.998, 5457.750 432.999 L 5454 433 5454 394 L 5454 355 5374 355 L 5294 355 5294 673 L 5294 991 5379.481 991 L 5464.961 991 5465.250 793.250 C 5465.519 608.869, 5465.658 594.908, 5467.305 586.738 C 5470.384 571.470, 5473.894 560.852, 5479.948 548.500 C 5498.904 509.822, 5533.233 489.589, 5577 491.300 C 5601.445 492.256, 5616.019 497.828, 5629.588 511.406 C 5638.834 520.659, 5643.518 528.375, 5647.855 541.500 C 5654.928 562.905, 5654.441 546.081, 5654.759 780.250 L 5655.045 991 5740.523 991 L 5826 991 5826 913.750 C 5826.001 871.263, 5826.163 761.800, 5826.361 670.500 C 5826.559 579.200, 5826.434 515.300, 5826.083 528.500 C 5825.732 541.700, 5825.340 548.900, 5825.212 544.500 C 5824.602 523.606, 5820.050 492.620, 5814.430 471.115 C 5793.432 390.767, 5742.346 345.209, 5663 336.069 C 5649.697 334.536, 5625.614 334.063, 5613.072 335.088 M 2409 480.125 C 2356.958 486.128, 2325.234 519.371, 2311.062 582.750 L 2309.217 591 2425.609 591 L 2542 591 2542 588.610 C 2542 584.847, 2538.209 567.334, 2535.384 558.050 C 2528.705 536.095, 2519.898 520.767, 2506.054 507 C 2495.007 496.015, 2485.974 490.421, 2471.158 485.389 C 2454.268 479.652, 2430.527 477.641, 2409 480.125 M 3554.204 480.173 C 3508.749 485.875, 3478.946 511.657, 3463.030 559.046 C 3460.161 567.588, 3455 587.478, 3455 589.992 C 3455 590.664, 3493.866 591, 3571.500 591 C 3635.575 591, 3688 590.719, 3688 590.376 C 3688 587.786, 3682.523 563.593, 3680.454 557.043 C 3665.825 510.733, 3637.220 485.543, 3593.026 480.053 C 3583.085 478.818, 3564.552 478.875, 3554.204 480.173 M 4860.729 492.446 C 4806.072 502.096, 4774.545 544.042, 4764.572 620.384 C 4760.585 650.901, 4760.580 696.060, 4764.559 726.520 C 4776.119 814.998, 4818.287 858.967, 4888.464 855.715 C 4906.765 854.867, 4919.217 851.842, 4933.500 844.776 C 4959.763 831.784, 4977.594 808.846, 4989.456 772.796 C 5007.313 718.526, 5007.297 627.457, 4989.420 573.466 C 4974.726 529.089, 4949.510 503.593, 4910.732 493.904 C 4899.976 491.217, 4872.267 490.409, 4860.729 492.446 M 1 616.500 L 1 727 110.500 727 L 220 727 220 616.500 L 220 506 110.500 506 L 1 506 1 616.500 M 704 616.500 L 704 727 814 727 L 924 727 924 616.500 L 924 506 814 506 L 704 506 704 616.500" stroke="none" fill="#e40474" fill-rule="evenodd"/></svg>