<svg width="85" height="10" xmlns="http://www.w3.org/2000/svg" xmlns:xlink="http://www.w3.org/1999/xlink" xml:space="preserve" overflow="hidden"><defs><clipPath id="clip0"><rect x="354" y="353" width="85" height="10"/></clipPath></defs><g clip-path="url(#clip0)" transform="translate(-354 -353)"><path d="M21.0663 2.13846C21.0685 1.77406 21.3054 1.45263 21.6528 1.34279 22.3166 1.12151 23.373 0.782028 24.4036 0.782028 26.2026 0.782028 27.7378 1.96871 27.7378 4.13294L27.7378 6.5048C27.7378 8.65539 26.4723 9.76327 24.4036 9.76327L21.6544 9.76327C21.3495 9.78308 21.0862 9.55202 21.0664 9.2472 21.0649 9.22374 21.0648 9.20017 21.0663 9.17672ZM24.4006 8.13401C25.4038 8.13401 25.8206 7.7036 25.8206 6.36079L25.8206 4.28904C25.8206 2.98566 25.2478 2.41126 24.4006 2.41126 23.916 2.41328 23.4354 2.49732 22.9789 2.65981L22.9789 8.13401Z" fill="#221C23" transform="matrix(1.02186 0 0 1 354 353.033)"/><path d="M28.8881 5.41055C28.8881 3.83286 30.1006 2.77651 31.6525 2.77651 31.8662 2.77579 32.0797 2.79302 32.2906 2.82804 32.5785 2.88108 32.9165 3.10236 32.8134 3.54641L32.721 3.94046C32.6749 4.23908 32.3954 4.44379 32.0968 4.39767 32.0742 4.39418 32.0518 4.38929 32.0299 4.38301 31.9094 4.36573 31.7878 4.35712 31.6661 4.35724 31.0797 4.35724 30.7402 4.79979 30.7402 5.41813L30.7402 9.17672C30.7589 9.48166 30.527 9.74409 30.2221 9.76292 30.2013 9.76419 30.1805 9.76431 30.1597 9.76327L29.4822 9.76327C29.1765 9.78221 28.9132 9.54971 28.8943 9.24396 28.8929 9.22155 28.8928 9.19913 28.8942 9.17672Z" fill="#221C23" transform="matrix(1.02186 0 0 1 354 353.033)"/><path d="M33.3424 1.01694C33.3965 0.433538 33.9134 0.00452268 34.4968 0.0587095 35.0052 0.105928 35.4078 0.508565 35.4551 1.01694 35.4009 1.60034 34.884 2.02936 34.3006 1.97518 33.7922 1.92795 33.3896 1.52532 33.3424 1.01694ZM33.4727 3.53277C33.4546 3.22696 33.6878 2.96437 33.9936 2.94625 34.0155 2.94496 34.0374 2.94496 34.0592 2.94625L34.7503 2.94625C35.0561 2.92814 35.3187 3.16137 35.3368 3.46718 35.3381 3.48902 35.3381 3.51093 35.3368 3.53277L35.3368 9.17672C35.3558 9.48166 35.1241 9.74426 34.8191 9.76327 34.7962 9.76465 34.7733 9.76465 34.7503 9.76327L34.0592 9.76327C33.7543 9.78227 33.4917 9.55046 33.4727 9.24558 33.4713 9.22264 33.4713 9.19965 33.4727 9.17672Z" fill="#221C23" transform="matrix(1.02186 0 0 1 354 353.033)"/><path d="M36.2219 3.66311C36.0794 3.19329 36.2871 2.94625 36.6524 2.94625L37.3692 2.94625C37.6951 2.93099 37.9855 3.1501 38.0603 3.4676L38.621 5.52726C38.7726 6.13349 38.9727 6.9746 39.1424 7.76876 39.3121 6.9746 39.494 6.12742 39.6638 5.52726L40.2245 3.4676C40.2943 3.14685 40.5881 2.92526 40.9156 2.94625L41.6325 2.94625C42.0235 2.94625 42.2054 3.19329 42.0629 3.66311L40.3685 9.16459C40.2817 9.50893 39.9792 9.75547 39.6244 9.77083L38.6468 9.77083C38.2964 9.76223 37.9938 9.5232 37.9042 9.18429Z" fill="#221C23" transform="matrix(1.02186 0 0 1 354 353.033)"/><path d="M42.5767 5.65759C42.5767 3.77981 43.8149 2.77802 45.3532 2.77802 46.8915 2.77802 48.1433 3.86013 48.1433 5.41207L48.1433 6.31083C48.1615 6.61663 47.9282 6.87923 47.6224 6.89731 47.6006 6.89864 47.5787 6.89864 47.5568 6.89731L44.4272 6.89731 44.4272 6.98824C44.4272 7.91427 44.8318 8.35224 45.6275 8.35224 46.0713 8.35068 46.5131 8.29419 46.943 8.18403 47.2825 8.09161 47.5492 8.23556 47.622 8.56141L47.7129 8.94029C47.8162 9.25875 47.6418 9.60072 47.3233 9.704 47.3183 9.70562 47.3133 9.70718 47.3083 9.70868 46.7627 9.86823 46.1958 9.9428 45.6275 9.92998 43.8012 9.92998 42.5767 8.90089 42.5767 6.98373ZM46.2792 5.59242 46.2792 5.41055C46.2792 4.82252 45.9397 4.34966 45.3532 4.34966 44.8061 4.34966 44.4272 4.80433 44.4272 5.41055L44.4272 5.59242Z" fill="#221C23" transform="matrix(1.02186 0 0 1 354 353.033)"/><path d="M49.2239 1.53829C49.2058 1.23248 49.439 0.969886 49.7449 0.951771 49.7667 0.950477 49.7886 0.950477 49.8105 0.951771L50.5546 0.951771C50.8604 0.933661 51.123 1.16689 51.1411 1.4727 51.1424 1.49455 51.1424 1.51645 51.1411 1.53829L51.1411 6.66845C51.1411 7.69904 51.7019 8.31134 52.5491 8.31134 53.3963 8.31134 53.954 7.69147 53.954 6.66845L53.954 1.53829C53.9359 1.23248 54.1691 0.969886 54.4749 0.951771 54.4968 0.950477 54.5187 0.950477 54.5405 0.951771L55.2831 0.951771C55.5889 0.933661 55.8515 1.16689 55.8697 1.4727 55.8709 1.49455 55.8709 1.51645 55.8697 1.53829L55.8697 6.82002C55.8697 8.67203 54.3541 9.93604 52.5461 9.93604 50.7379 9.93604 49.2239 8.66902 49.2239 6.82002Z" fill="#221C23" transform="matrix(1.02186 0 0 1 354 353.033)"/><path d="M58.1792 7.75663C58.7701 7.75328 59.253 8.22683 59.2617 8.81754 59.2836 9.41477 58.8181 9.91704 58.2208 9.93939 57.6234 9.96175 57.1212 9.49576 57.0988 8.89853 57.0978 8.87155 57.0978 8.84451 57.0988 8.81754 57.1071 8.22741 57.5892 7.75409 58.1792 7.75663Z" fill="#221C23" transform="matrix(1.02186 0 0 1 354 353.033)"/><path d="M62.794 5.47572 63.6414 5.47572 63.6414 5.32417C63.6414 4.69824 63.3295 4.36027 62.794 4.36027 62.3411 4.36832 61.8906 4.42936 61.4516 4.54214 61.1668 4.63585 60.8601 4.48109 60.7665 4.19646 60.759 4.1732 60.7526 4.14945 60.748 4.12536L60.6573 3.79951C60.5654 3.48279 60.7474 3.15153 61.0645 3.05962 61.0674 3.05868 61.0709 3.05777 61.0744 3.05689 61.6329 2.89114 62.2112 2.79892 62.794 2.78257 64.4114 2.78257 65.5055 3.81315 65.5055 5.32417L65.5055 7.59748C65.5055 8.95392 64.2555 9.94361 62.82 9.94361 61.2956 9.94361 60.1363 8.95392 60.1363 7.59748 60.1363 6.15319 61.2286 5.47572 62.794 5.47572ZM62.82 8.3553C63.2556 8.37304 63.6235 8.03419 63.6409 7.59841 63.6414 7.5946 63.6414 7.59073 63.6414 7.58691L63.6414 6.77913 62.7819 6.77913C62.1759 6.77913 62.0246 7.18227 62.0246 7.57328 62.0015 7.98278 62.3152 8.33324 62.7247 8.35611 62.7565 8.3579 62.7882 8.35761 62.82 8.3553Z" fill="#221C23" transform="matrix(1.02186 0 0 1 354 353.033)"/><path d="M66.5874 3.53277C66.5695 3.22696 66.8029 2.96437 67.1085 2.94625 67.1304 2.94496 67.1524 2.94496 67.1743 2.94625L67.8519 2.94625C68.1563 2.92725 68.4192 3.15902 68.4382 3.46395 68.4394 3.48687 68.4394 3.50985 68.4382 3.53277L68.4382 7.00037C68.4382 7.89913 68.8033 8.3553 69.3781 8.3553 69.9523 8.3553 70.3162 7.90063 70.3162 7.00037L70.3162 3.53277C70.2977 3.22696 70.5311 2.96437 70.8366 2.94625 70.8586 2.94496 70.8805 2.94496 70.9025 2.94625L71.5934 2.94625C71.8995 2.92814 72.1618 3.16137 72.1803 3.46718 72.1814 3.48902 72.1814 3.51093 72.1803 3.53277L72.1803 7.06553C72.1803 8.94335 70.9025 9.93298 69.3781 9.93298 67.8531 9.93298 66.5874 8.94179 66.5874 7.06553Z" fill="#221C23" transform="matrix(1.02186 0 0 1 354 353.033)"/><path d="M73.8884 4.18447 73.458 4.18447C73.1836 4.18447 73.0271 4.06777 72.9624 3.76769L72.885 3.41608C72.8197 3.12812 72.9624 2.94625 73.2368 2.94625L73.8884 2.94625 73.8884 1.6944C73.8699 1.35021 74.131 1.0549 74.4747 1.03058L75.0812 0.951771C75.4838 0.898725 75.7582 1.09424 75.7582 1.44736L75.7582 2.94625 76.3844 2.94625C76.6218 2.93246 76.8251 3.11366 76.839 3.35097 76.8402 3.36761 76.8402 3.38428 76.839 3.40092L76.839 3.72828C76.8529 3.9656 76.6715 4.16916 76.4341 4.18295 76.4179 4.18392 76.4011 4.18392 76.3844 4.18295L75.7461 4.18295 75.7461 9.17672C75.7652 9.48166 75.5329 9.74397 75.2279 9.76269 75.2095 9.76379 75.1904 9.76402 75.1719 9.76327L74.4747 9.76327C74.1697 9.78227 73.9074 9.55046 73.8884 9.24558 73.8866 9.22264 73.8866 9.19965 73.8884 9.17672Z" fill="#221C23" transform="matrix(1.02186 0 0 1 354 353.033)"/><path d="M77.3681 5.75914C77.3681 3.895 78.5939 2.77348 80.2749 2.77348 81.9553 2.77348 83.1816 3.895 83.1816 5.75914L83.1816 6.94584C83.1816 8.80997 81.957 9.92998 80.2749 9.92998 78.5928 9.92998 77.3681 8.80997 77.3681 6.94584ZM80.2749 8.35224C81.0582 8.35224 81.3354 7.77939 81.3354 6.87912L81.3354 5.81826C81.3354 4.918 81.0628 4.34512 80.2749 4.34512 79.487 4.34512 79.2137 4.918 79.2137 5.81826L79.2137 6.87912C79.2201 7.78239 79.4927 8.3553 80.2749 8.3553Z" fill="#221C23" transform="matrix(1.02186 0 0 1 354 353.033)"/><path d="M11.932 4.34209 5.57878 0.67291C5.11921 0.407573 4.53155 0.565034 4.26622 1.02461 4.18164 1.1711 4.13723 1.33732 4.13748 1.50647L4.13748 2.22939 7.79452 4.34209C8.25491 4.60605 8.41411 5.19324 8.15012 5.6536 8.06526 5.80163 7.94251 5.92432 7.79452 6.00918L4.13748 8.11737 4.13748 8.8418C4.13753 9.37249 4.56777 9.80261 5.09844 9.80255 5.26708 9.80255 5.43274 9.75813 5.57878 9.67385L11.932 6.00617C12.3915 5.74075 12.5489 5.15306 12.2835 4.69354 12.1992 4.54759 12.078 4.42638 11.932 4.34209Z" fill="#48A3DA" transform="matrix(1.02186 0 0 1 354 353.033)"/><path d="M1.4413 0.67291C0.981722 0.407573 0.394068 0.565034 0.128731 1.02461 0.0441556 1.1711-0.000250835 1.33732 3.5745e-08 1.50647L0 8.8418C5.03086e-05 9.37249 0.430286 9.80261 0.960955 9.80255 1.12959 9.80255 1.29525 9.75813 1.4413 9.67385L4.13748 8.11737 4.13748 2.22939Z" fill="#EE252F" transform="matrix(1.02186 0 0 1 354 353.033)"/><path d="M7.79452 4.34209 4.13748 2.22939 4.13748 8.11737 7.79452 6.00617C8.25404 5.74075 8.41139 5.15306 8.14596 4.69354 8.06168 4.54759 7.94049 4.42638 7.79452 4.34209Z" fill="#221C23" transform="matrix(1.02186 0 0 1 354 353.033)"/><path d="M8.78346 0.481948C9.07182 0.481948 9.30554 0.716043 9.30554 1.00482L9.30554 9.3283C9.30554 9.61706 9.07182 9.85113 8.78346 9.85113L8.78346 9.85113C8.49509 9.85113 8.26132 9.61706 8.26132 9.3283L8.26132 1.00482C8.26132 0.716043 8.49509 0.481948 8.78346 0.481948Z" fill="#221C23" transform="matrix(1.02186 0 0 1 354 353.033)"/><path d="M10.6051 1.52162C10.8935 1.52162 11.1273 1.75572 11.1273 2.04449L11.1273 8.28708C11.1273 8.57585 10.8935 8.80997 10.6051 8.80997L10.6051 8.80997C10.3168 8.80997 10.0831 8.57585 10.0831 8.28708L10.0831 2.04449C10.0831 1.75572 10.3168 1.52162 10.6051 1.52162Z" fill="#221C23" transform="matrix(1.02186 0 0 1 354 353.033)"/><path d="M12.4269 2.56281C12.7152 2.56281 12.9489 2.79691 12.9489 3.08569L12.9489 7.24743C12.9489 7.5362 12.7152 7.77026 12.4269 7.77026L12.4269 7.77026C12.1385 7.77026 11.9047 7.5362 11.9047 7.24743L11.9047 3.08569C11.9047 2.79691 12.1385 2.56281 12.4269 2.56281Z" fill="#221C23" transform="matrix(1.02186 0 0 1 354 353.033)"/><path d="M14.25 3.60249C14.5384 3.60249 14.7722 3.83658 14.7722 4.12536L14.7722 6.20621C14.7722 6.49498 14.5384 6.7291 14.25 6.7291L14.25 6.7291C13.9617 6.7291 13.728 6.49498 13.728 6.20621L13.728 4.12536C13.728 3.83659 13.9617 3.60249 14.25 3.60249Z" fill="#221C23" transform="matrix(1.02186 0 0 1 354 353.033)"/><path d="M16.0718 4.64368C16.3601 4.64368 16.5939 4.87744 16.5939 5.16579L16.5939 5.16579C16.5939 5.45415 16.3601 5.6879 16.0718 5.6879L16.0718 5.6879C15.7834 5.6879 15.5496 5.45415 15.5496 5.16579L15.5496 5.16579C15.5496 4.87744 15.7834 4.64368 16.0718 4.64368Z" fill="#221C23" transform="matrix(1.02186 0 0 1 354 353.033)"/></g></svg>