<svg xmlns="http://www.w3.org/2000/svg" viewBox="0 0 317.97 38.34"><defs><style>.cls-1{fill:#4ba8d1;}.cls-2{fill:#1c2951;}</style></defs><g id="Livello_2" data-name="Livello 2"><g id="Livello_1-2" data-name="Livello 1"><path class="cls-1" d="M58.11,11.1a3.11,3.11,0,0,0-4.17,1.38c-2.12,4.2-9.38,15.73-17.42,18.6-2.53.91-6.16,1.69-9.13.27-1.63-.77-2.36-1.83-2.64-4.12,5.66-.55,11.13-3.09,14.45-8.22a7.84,7.84,0,0,0,1.22-6c-.75-3.28-4.07-5.64-7.78-5.63a12.41,12.41,0,0,0-8.92,4.15,20.62,20.62,0,0,0-4.8,9.32,18.35,18.35,0,0,1-3.64-1A3.11,3.11,0,0,0,13,25.57a24.73,24.73,0,0,0,5.53,1.49c.31,3.75,1.48,7.65,6.22,9.9a14.79,14.79,0,0,0,6.42,1.38,22.5,22.5,0,0,0,7.48-1.4c12-4.29,20.52-21,20.87-21.66A3.11,3.11,0,0,0,58.11,11.1ZM28.24,15.79a6.3,6.3,0,0,1,4.51-2.21h0a1.77,1.77,0,0,1,1.59.82A1.92,1.92,0,0,1,34,15.63a12.48,12.48,0,0,1-8.64,5.25A13.75,13.75,0,0,1,28.24,15.79Z"/><circle class="cls-1" cx="314.93" cy="31.1" r="3.04"/><path class="cls-2" d="M101.15,33.81a10.41,10.41,0,0,1-8.1-3.23c-2-2.15-3-5.14-3-8.95s1-6.69,3-8.87a11.54,11.54,0,0,1,15.62-.46q2.91,2.82,2.91,8.19a24.35,24.35,0,0,1-.18,3.41H96.56a4.24,4.24,0,0,0,1.36,3.25,4.86,4.86,0,0,0,3.23,1.07,6.51,6.51,0,0,0,5.23-2.46l3.82,3.82A11.21,11.21,0,0,1,101.15,33.81ZM96.6,18.94h8.69a4,4,0,0,0-4.41-3.86,4.17,4.17,0,0,0-2.91,1A4.39,4.39,0,0,0,96.6,18.94Z"/><path class="cls-2" d="M131.61,33.81a10.18,10.18,0,0,1-7.91-3.23q-3-3.22-3-8.91t3-8.89a10.09,10.09,0,0,1,7.88-3.3q7.92,0,10.19,7.28l-6.27,2c-.76-2-2-3-3.82-3a3.66,3.66,0,0,0-3.07,1.64,6.91,6.91,0,0,0-1.21,4.23,7,7,0,0,0,1.18,4.21,3.6,3.6,0,0,0,3,1.61q2.87,0,3.92-3.36l6.32,1.81Q139.53,33.82,131.61,33.81Z"/><path class="cls-2" d="M161.63,33.81a10,10,0,0,1-7.89-3.23q-2.9-3.22-2.89-8.91t2.91-8.91a10,10,0,0,1,7.87-3.28,9.87,9.87,0,0,1,7.8,3.28q2.88,3.27,2.88,8.91t-2.86,8.91A9.9,9.9,0,0,1,161.63,33.81Zm0-6.36a3.47,3.47,0,0,0,3-1.53,7.31,7.31,0,0,0,1.07-4.25,7.43,7.43,0,0,0-1.07-4.27,3.46,3.46,0,0,0-3-1.55,3.6,3.6,0,0,0-3,1.55,7.06,7.06,0,0,0-1.14,4.27,7,7,0,0,0,1.14,4.25A3.6,3.6,0,0,0,161.63,27.45Z"/><path class="cls-2" d="M190.41,33.81a13.14,13.14,0,0,1-5.5-1.2,9.78,9.78,0,0,1-4-3.21l4.23-3.59a10.53,10.53,0,0,0,2.46,1.77,6.23,6.23,0,0,0,3,.82c2.16,0,3.23-.61,3.23-1.82a1.55,1.55,0,0,0-.84-1.34,20.83,20.83,0,0,0-3.11-1.39,19.44,19.44,0,0,1-6.28-3.11,5.8,5.8,0,0,1-2-4.66,5.62,5.62,0,0,1,2.48-4.82,10.36,10.36,0,0,1,6.16-1.78A11.22,11.22,0,0,1,199,13.35l-4.28,3.5a6.56,6.56,0,0,0-4.46-2c-1.81,0-2.72.49-2.72,1.5s1.51,1.78,4.54,2.54c1.09.37,2,.71,2.71,1a15.06,15.06,0,0,1,2.34,1.37,5.88,5.88,0,0,1,1.93,2.2,6.74,6.74,0,0,1,.66,3,6.28,6.28,0,0,1-2.52,5.32A11,11,0,0,1,190.41,33.81Z"/><path class="cls-2" d="M216.51,33.81q-5.87,0-5.86-6.36V15.8h-3.19V10h3.19V3.57L217.2.43V10h5V15.8h-5v11a1.24,1.24,0,0,0,.38,1,1.4,1.4,0,0,0,.93.34,9.74,9.74,0,0,0,4-.91l-.73,5.55A12.09,12.09,0,0,1,216.51,33.81Z"/><path class="cls-2" d="M242.34,33.81a10.4,10.4,0,0,1-8.09-3.23c-2-2.15-3-5.14-3-8.95s1-6.69,3-8.87a11.54,11.54,0,0,1,15.62-.46q2.91,2.82,2.91,8.19a24.35,24.35,0,0,1-.18,3.41H237.75a4.24,4.24,0,0,0,1.36,3.25,4.88,4.88,0,0,0,3.23,1.07,6.5,6.5,0,0,0,5.23-2.46l3.82,3.82A11.2,11.2,0,0,1,242.34,33.81Zm-4.55-14.87h8.69q-.49-3.86-4.41-3.86a4.2,4.2,0,0,0-2.91,1A4.43,4.43,0,0,0,237.79,18.94Z"/><path class="cls-2" d="M273,33.81a10.39,10.39,0,0,1-8.09-3.23c-2-2.15-3-5.14-3-8.95s1-6.69,3-8.87a11.54,11.54,0,0,1,15.62-.46q2.91,2.82,2.91,8.19a24.35,24.35,0,0,1-.18,3.41H268.4a4.24,4.24,0,0,0,1.36,3.25A4.88,4.88,0,0,0,273,28.22a6.51,6.51,0,0,0,5.23-2.46L282,29.58A11.21,11.21,0,0,1,273,33.81Zm-4.55-14.87h8.69a4,4,0,0,0-4.41-3.86,4.17,4.17,0,0,0-2.91,1A4.39,4.39,0,0,0,268.44,18.94Z"/><path class="cls-2" d="M293.72,33.27V10h6.6v2.09A5.13,5.13,0,0,1,302,10.35a4.53,4.53,0,0,1,2.77-.87,6.1,6.1,0,0,1,4.59,2l-.86,6a6.37,6.37,0,0,0-4.14-1.59q-4,0-4,4.82v12.6Z"/><circle class="cls-1" cx="61.57" cy="3.04" r="3.04"/><circle class="cls-2" cx="3.04" cy="18.53" r="3.04"/></g></g></svg>