<svg xmlns="http://www.w3.org/2000/svg" width="1022" height="605" viewBox="0 0 1022 605" version="1.1"><path d="M 499 102.382 C 502.025 103.646, 506.395 105.652, 508.710 106.840 C 511.026 108.028, 513.501 108.997, 514.210 108.994 C 515.744 108.987, 513.036 107.561, 503.241 103.218 C 499.249 101.448, 495.424 100.019, 494.741 100.042 C 494.059 100.066, 495.975 101.119, 499 102.382 M 606.167 373.881 C 606.489 374.734, 617.707 387.209, 629 399.273 C 632.025 402.505, 634.906 406.016, 635.403 407.075 C 635.899 408.134, 636.943 409, 637.721 409 C 638.519 409, 637.206 406.928, 634.710 404.250 C 619.624 388.061, 608 374.907, 608 374.024 C 608 373.461, 607.513 373, 606.917 373 C 606.321 373, 605.983 373.397, 606.167 373.881 M 366.845 446.021 C 350.678 448.751, 337.629 461.750, 333.508 479.231 C 328.064 502.319, 337.576 525.347, 356.308 534.426 C 366.901 539.561, 382.855 539.812, 393.701 535.014 C 403.759 530.565, 412.782 518.308, 414.517 506.735 L 415.227 502 405.303 502 L 395.378 502 394.140 506.832 C 392.579 512.923, 388.036 518.503, 383.389 520.037 C 377.442 521.999, 367.868 520.874, 363.242 517.668 C 348.971 507.778, 348.984 476.213, 363.264 466.317 C 368.695 462.553, 378.788 461.831, 384.587 464.790 C 389.379 467.236, 391.457 469.456, 393.475 474.287 L 395.027 478 404.513 478 C 413.927 478, 414 477.981, 414 475.538 C 414 470.466, 409.883 462.014, 404.944 456.942 C 395.628 447.378, 381.980 443.466, 366.845 446.021 M 618 455 L 618 463 627.500 463 L 637 463 637 455 L 637 447 627.500 447 L 618 447 618 455 M 169 463.674 L 169 479.349 166.750 477.291 C 162.780 473.661, 157.683 471.710, 150.899 471.225 C 135.633 470.133, 124.795 478.887, 121.424 495.033 C 117.731 512.724, 124.381 529.525, 137.500 535.647 C 146.402 539.801, 159.074 538.663, 166.182 533.072 L 168.864 530.962 169.182 533.731 C 169.496 536.462, 169.595 536.500, 176.500 536.500 L 183.500 536.500 183.760 492.250 L 184.021 448 176.510 448 L 169 448 169 463.674 M 579 462.500 L 579 472 573.500 472 L 568 472 568 478 L 568 484 573.500 484 L 579 484 579 505.352 C 579 525.941, 579.082 526.826, 581.287 530.102 C 584.717 535.196, 588.118 536.436, 599.750 536.833 L 610 537.182 610 529.641 L 610 522.100 604.256 521.800 C 598.773 521.514, 598.483 521.364, 597.874 518.500 C 597.524 516.850, 597.183 508.413, 597.118 499.750 L 597 484 603.500 484 L 610 484 610 478 L 610 472 603.500 472 L 597 472 597 462.500 L 597 453 588 453 L 579 453 579 462.500 M 446.500 471.341 C 437.459 474.332, 431.163 479.686, 426.910 488 C 423.496 494.674, 422.980 510.283, 425.915 518.079 C 430.550 530.388, 440.205 537.054, 454.483 537.804 C 473.787 538.817, 486.875 529.022, 489.971 511.245 C 492.909 494.373, 485.960 479.537, 472.155 473.211 C 465.401 470.116, 452.947 469.208, 446.500 471.341 M 530.764 470.996 C 527.157 472.082, 521 475.919, 521 477.082 C 521 477.587, 520.550 478, 520 478 C 519.450 478, 519 476.650, 519 475 L 519 472 510 472 L 501 472 501 504.538 L 501 537.075 510.250 536.788 L 519.500 536.500 520 514.452 C 520.544 490.461, 521.104 488.052, 526.617 485.955 C 529.911 484.703, 535.640 484.737, 538.043 486.023 C 542.025 488.154, 542.483 490.741, 543 514 L 543.500 536.500 552.837 536.789 L 562.175 537.077 561.808 511.289 C 561.400 482.551, 561.074 480.906, 554.676 475.289 C 552.684 473.540, 549.355 471.637, 547.277 471.060 C 542.889 469.841, 534.703 469.810, 530.764 470.996 M 679.994 470.934 C 675.461 472.313, 671.211 474.917, 669.088 477.615 L 667 480.270 667 476.135 L 667 472 658.500 472 L 650 472 650 504.500 L 650 537 659 537 L 668 537 668 517.943 C 668 496.277, 668.880 491.120, 673.199 487.486 C 676.689 484.550, 684.206 484.055, 687.739 486.529 C 691.240 488.982, 691.989 494.216, 691.994 516.288 L 692 537.075 701.250 536.788 L 710.500 536.500 710.433 512.500 C 710.359 486.038, 709.743 482.055, 704.864 476.498 C 700.167 471.148, 688.137 468.457, 679.994 470.934 M 896.200 472.588 C 893.344 474.011, 890.106 476.322, 889.004 477.722 L 887 480.270 887 476.135 L 887 472 878.500 472 L 870 472 870 504.500 L 870 537 879 537 L 888 537 888.024 517.750 C 888.037 507.163, 888.463 496.700, 888.971 494.500 C 890.956 485.896, 900.494 482.082, 906.694 487.412 L 909.500 489.824 909.816 513.412 L 910.133 537 918.956 537 L 927.780 537 928.183 515.250 C 928.510 497.610, 928.895 492.923, 930.218 490.445 C 933.291 484.692, 941.724 483.139, 946.694 487.412 L 949.500 489.824 949.816 513.412 L 950.133 537 959.066 537 L 968 537 967.978 511.250 C 967.958 488.265, 967.755 485.058, 966.087 481.384 C 960.457 468.986, 940.417 465.942, 929.777 475.867 L 925.806 479.571 922.131 475.895 C 915.738 469.503, 905.111 468.147, 896.200 472.588 M 71.882 472.321 C 57.974 477.522, 50.958 488.598, 51.042 505.225 C 51.141 524.924, 61.388 536.774, 79.216 537.806 C 83.673 538.064, 88.826 537.748, 91.254 537.068 C 99.610 534.726, 108 526.507, 110.464 518.250 C 111.115 516.066, 110.928 516, 104.093 516 C 97.258 516, 97.005 516.089, 95.477 519.044 C 94.611 520.719, 92.462 522.967, 90.701 524.040 C 86.357 526.689, 77.639 526.687, 73.290 524.035 C 69.741 521.872, 66 515.468, 66 511.559 L 66 509.038 88.750 508.769 L 111.500 508.500 111.295 501.189 C 110.955 489.030, 104.933 479.093, 94.723 473.841 C 89.449 471.128, 77.244 470.316, 71.882 472.321 M 213.071 472.165 C 200.959 475.644, 193 488.041, 193 503.430 C 193 523.821, 203.547 536.212, 221 536.325 C 228.029 536.370, 232.425 534.713, 237.250 530.199 L 240 527.626 239.996 534.063 C 239.990 545.079, 235.030 550, 223.933 550 C 217.435 550, 212.535 547.705, 210.971 543.930 C 209.782 541.060, 209.604 541, 202.299 541 L 194.841 541 195.512 544.250 C 196.715 550.077, 200.495 554.605, 206.699 557.652 C 212.097 560.302, 213.333 560.500, 224.500 560.500 C 236.062 560.500, 236.701 560.387, 242 557.407 C 248.147 553.950, 253.268 546.847, 254.355 540.268 C 254.698 538.196, 254.983 521.968, 254.989 504.206 L 255 471.912 247.750 472.206 L 240.500 472.500 240 475.865 L 239.500 479.230 237.500 476.974 C 232.846 471.724, 222.025 469.594, 213.071 472.165 M 282.909 472.494 C 280.384 473.305, 276.200 475.832, 273.612 478.111 C 255.423 494.121, 260.334 529.133, 281.795 536.446 C 284.359 537.319, 289.712 538, 294.018 538 C 300.570 538, 302.571 537.555, 307.826 534.929 C 314.768 531.460, 319.257 526.628, 321.411 520.306 L 322.879 516 315.625 516 L 308.370 516 306.675 519.555 C 302.596 528.109, 286.130 528.263, 280.610 519.798 C 279.786 518.534, 278.685 515.587, 278.162 513.250 L 277.213 509 300.039 509 C 326.034 509, 324.848 509.446, 323.546 500.151 C 321.879 488.249, 315.539 478.377, 306.613 473.785 C 301.308 471.055, 289.411 470.408, 282.909 472.494 M 618 504.500 L 618 537 627.500 537 L 637 537 637 504.500 L 637 472 627.500 472 L 618 472 618 504.500 M 723.175 497.750 C 723.479 521.822, 723.640 523.761, 725.644 527.500 C 728.419 532.680, 730.623 534.603, 735.925 536.474 C 745.305 539.783, 757.457 537.634, 763.494 531.597 L 766 529.091 766 533.045 L 766 537 775 537 L 784 537 784 504.500 L 784 472 774.500 472 L 765 472 765 492.532 C 765 514.595, 764.354 518.238, 759.883 521.369 C 757.556 522.999, 749.710 523.593, 746.545 522.379 C 745.654 522.037, 744.166 520.350, 743.238 518.629 C 741.840 516.038, 741.486 511.763, 741.177 493.750 L 740.804 472 731.827 472 L 722.851 472 723.175 497.750 M 796 493.864 C 796 505.888, 796.458 518.140, 797.017 521.090 C 799.092 532.034, 805.170 537.079, 817.159 537.809 C 824.969 538.286, 830.083 536.891, 835.187 532.894 L 838.874 530.007 839.187 533.254 L 839.500 536.500 848.250 536.789 L 857 537.078 857 504.539 L 857 472 848.134 472 L 839.267 472 838.799 492.750 C 838.422 509.472, 838.009 514.119, 836.671 516.689 C 834.251 521.340, 831.300 523, 825.452 523 C 821.260 523, 819.915 522.539, 817.924 520.422 C 815.525 517.869, 815.497 517.611, 815.198 494.922 L 814.895 472 805.448 472 L 796 472 796 493.864 M 74.218 484.606 C 70.313 486.599, 67.217 490.663, 66.367 494.916 L 65.750 498 81.305 498 L 96.860 498 96.040 495.139 C 94.864 491.038, 93.538 488.832, 90.600 486.083 C 87.217 482.919, 78.981 482.177, 74.218 484.606 M 144.395 484.842 C 138.989 488.241, 136.680 493.263, 136.185 502.697 C 135.674 512.433, 137.315 518.012, 142.017 522.516 C 146.035 526.366, 154.842 527.152, 159.710 524.094 C 165.452 520.488, 168.426 514.691, 168.851 506.279 C 169.304 497.317, 167.502 491.848, 162.499 486.999 C 159.523 484.114, 158.193 483.576, 153.261 483.259 C 148.817 482.974, 146.790 483.336, 144.395 484.842 M 215.957 485.250 C 205.769 492.116, 204.811 511.974, 214.243 520.774 C 219.412 525.597, 228.498 525.544, 233.882 520.661 C 240.256 514.879, 242.164 500.417, 237.675 491.907 C 233.331 483.673, 222.998 480.505, 215.957 485.250 M 285.304 484.956 C 281.662 487.177, 279.331 490.358, 278.035 494.877 L 277.140 498 292.695 498 L 308.250 498 307.633 494.916 C 306.813 490.814, 303.507 486.314, 299.971 484.485 C 295.942 482.402, 289.135 482.620, 285.304 484.956 M 451.020 485.698 C 446.273 488.156, 443.265 493.031, 442.445 499.595 C 440.619 514.211, 446.638 524, 457.451 524 C 462.458 524, 466.369 521.752, 469.153 517.274 C 472.384 512.079, 472.586 497.344, 469.500 492.105 C 465.296 484.968, 457.589 482.296, 451.020 485.698" stroke="none" fill="#00023d" fill-rule="evenodd"/><path d="M 586.500 42.104 C 578.800 42.506, 571.375 43.104, 570 43.433 C 568.625 43.761, 564.575 44.470, 561 45.008 C 557.425 45.546, 551.621 46.897, 548.102 48.011 C 544.583 49.125, 541.474 49.807, 541.194 49.527 C 540.913 49.247, 540.193 49.411, 539.592 49.893 C 538.991 50.374, 535.260 51.928, 531.299 53.345 C 527.339 54.762, 523.289 56.353, 522.299 56.881 C 521.310 57.409, 517.374 59.283, 513.553 61.046 C 509.733 62.808, 505.988 64.869, 505.232 65.625 C 504.476 66.381, 503.246 67, 502.500 67 C 501.754 67, 500.526 67.617, 499.773 68.370 C 499.019 69.124, 497.074 70.432, 495.451 71.276 C 493.828 72.121, 491.150 73.979, 489.500 75.405 C 487.850 76.831, 486.037 77.998, 485.471 77.999 C 484.905 77.999, 483.793 78.900, 483 80 C 482.207 81.100, 481.081 82, 480.497 82 C 479.913 82, 477.298 84.107, 474.686 86.683 C 469.149 92.141, 469.471 92.941, 478 94.922 C 486.272 96.844, 500.254 101.723, 508.198 105.460 C 512.085 107.288, 515.768 108.695, 516.383 108.586 C 516.997 108.477, 520.066 106.726, 523.202 104.694 C 526.338 102.662, 529.601 101, 530.452 101 C 531.303 101, 532 100.622, 532 100.159 C 532 99.403, 536.224 97.613, 550 92.533 C 556.149 90.266, 568.641 87.030, 573.500 86.446 C 584.827 85.085, 605.898 84.806, 613.861 85.912 C 628.641 87.966, 654.847 95.601, 655.833 98.141 C 656.017 98.614, 656.952 99, 657.912 99 C 658.872 99, 661.647 100.242, 664.079 101.761 C 666.510 103.279, 669.400 105.080, 670.500 105.763 C 671.600 106.446, 673.400 107.402, 674.500 107.888 C 675.600 108.373, 677.357 109.722, 678.405 110.885 C 679.453 112.048, 680.690 113, 681.155 113 C 681.620 113, 682.826 113.788, 683.835 114.750 C 684.844 115.713, 686.727 117.175, 688.018 118 C 689.309 118.825, 692.646 121.939, 695.433 124.920 C 698.220 127.901, 702.131 131.991, 704.123 134.010 C 707.805 137.738, 716.430 149.603, 721.036 157.276 C 723.188 160.861, 726.695 168.428, 729.946 176.500 C 730.389 177.600, 731.255 179.754, 731.870 181.286 C 737.355 194.936, 740.737 219.647, 739.590 237.704 C 739.002 246.969, 735.907 264.724, 734.476 267.039 C 734.157 267.554, 733.236 270.513, 732.428 273.614 C 730.800 279.866, 719.330 304, 717.987 304 C 717.518 304, 716.866 304.847, 716.538 305.881 C 716.209 306.916, 715.166 308.690, 714.220 309.824 C 713.274 310.958, 710.568 314.569, 708.206 317.847 C 703.230 324.755, 689.499 338.159, 682.986 342.466 C 680.519 344.098, 676.925 346.629, 675 348.092 C 669.431 352.323, 650.890 361.406, 642.500 364.013 C 640.300 364.696, 637.454 365.654, 636.176 366.140 C 633.193 367.276, 625.362 369.132, 621.500 369.620 C 619.850 369.829, 616.250 370.251, 613.500 370.559 C 606.630 371.327, 605.689 371.708, 606.886 373.238 C 607.882 374.511, 627.193 396.087, 633.971 403.500 C 640.144 410.251, 640.059 410.217, 646.112 408.383 C 656.675 405.182, 672.879 399.143, 677.500 396.684 C 696.435 386.610, 710.342 377.284, 719.827 368.299 C 721.685 366.538, 723.497 364.961, 723.853 364.793 C 724.788 364.352, 738.921 349.130, 742.731 344.460 C 747.580 338.517, 759.122 320.373, 762.744 313 C 773.130 291.857, 778.745 273.244, 782.003 249.159 C 783.243 239.990, 783.170 216.027, 781.877 207.755 C 781.425 204.865, 780.848 200.475, 780.594 198 C 779.718 189.463, 773.554 167.204, 770.383 161.127 C 769.629 159.682, 769.010 157.972, 769.006 157.328 C 768.987 153.658, 752.049 123.795, 746.311 117.313 C 745.246 116.111, 743.503 113.895, 742.438 112.391 C 738.664 107.061, 718.754 86, 717.490 86 C 717.210 86, 713.722 83.401, 709.740 80.225 C 702.214 74.222, 691.593 67.005, 690.265 66.993 C 689.844 66.988, 685.900 64.903, 681.500 62.358 C 670.820 56.180, 656.922 51.080, 640 47.129 C 623.897 43.369, 622.470 43.120, 613.500 42.502 C 608.550 42.161, 603.600 41.767, 602.500 41.627 C 601.400 41.487, 594.200 41.701, 586.500 42.104" stroke="none" fill="#00a5fe" fill-rule="evenodd"/><path d="M 429.883 91.047 C 404.523 93.306, 380.969 101.709, 358.500 116.513 C 347.307 123.888, 328.452 142.426, 320.506 153.869 C 314.966 161.847, 306.557 176.890, 307.250 177.583 C 307.430 177.763, 309.892 176.802, 312.722 175.448 C 324.670 169.730, 341.236 166.004, 354.717 166.001 L 362.933 166 367.736 161.750 C 383.680 147.640, 399.967 138.947, 419.227 134.267 C 424.797 132.914, 430.480 132.515, 443.500 132.565 C 458.678 132.623, 461.569 132.918, 470.477 135.315 C 514.871 147.262, 546.047 183.858, 551.184 230.055 C 553.349 249.522, 548.851 273.475, 539.942 289.923 C 538.324 292.911, 537 295.977, 537 296.736 C 537 297.496, 538.563 299.778, 540.474 301.809 C 542.385 303.839, 545.648 307.509, 547.724 309.964 C 555.400 319.039, 564.286 327.941, 565.142 327.412 C 568.489 325.344, 580.369 302.673, 584.903 289.699 C 594.221 263.042, 595.515 230.676, 588.365 203.099 C 580.345 172.164, 562.636 144.636, 537.500 124.033 C 529.177 117.211, 516.594 109, 514.461 109 C 513.626 109, 510.368 107.701, 507.221 106.114 C 499.917 102.430, 486.612 97.743, 477 95.469 C 472.875 94.492, 469.037 93.340, 468.470 92.907 C 467.423 92.108, 445.568 89.914, 441 90.150 C 439.625 90.221, 434.622 90.624, 429.883 91.047 M 605.137 374.257 C 606.381 376.041, 611.187 381.550, 615.816 386.500 C 620.445 391.450, 626.764 398.504, 629.858 402.175 C 635.024 408.307, 637.416 410.278, 635.342 406.697 C 634.558 405.342, 623.393 392.988, 611.279 380.068 C 608.407 377.006, 606.045 373.986, 606.029 373.357 C 606.013 372.728, 605.297 371.944, 604.437 371.614 C 603.292 371.175, 603.478 371.881, 605.137 374.257 M 412.825 373.750 C 437.204 373.899, 476.804 373.899, 500.825 373.750 C 524.846 373.600, 504.900 373.478, 456.500 373.479 C 408.100 373.479, 388.446 373.601, 412.825 373.750" stroke="none" fill="#8d00ee" fill-rule="evenodd"/><path d="M 364.993 164.549 C 363.477 165.388, 359.365 165.944, 354.500 165.966 C 339.205 166.036, 324.684 169.712, 307.611 177.836 C 307.106 178.077, 307.089 177.663, 307.572 176.880 C 308.197 175.867, 307.768 175.925, 305.961 177.099 C 304.608 177.978, 299.225 181.335, 294 184.559 C 282.566 191.614, 265.620 207.967, 258.731 218.597 C 250.861 230.738, 246.901 238.578, 247.651 240.532 C 248.074 241.636, 247.950 242.087, 247.329 241.704 C 245.916 240.830, 240.720 256.106, 241.626 258.468 C 242.087 259.668, 241.964 260.096, 241.281 259.674 C 239.151 258.357, 237.506 272.011, 237.569 290.500 C 237.620 305.694, 237.981 309.903, 239.879 317.500 C 251.642 364.564, 285.412 398.706, 332.427 411.064 C 335.137 411.776, 340.156 412.391, 343.581 412.429 C 347.006 412.468, 349.289 412.831, 348.654 413.235 C 346.811 414.408, 609.105 414.153, 619.500 412.971 C 629.694 411.813, 637.564 409.995, 636.260 409.101 C 635.778 408.770, 631.853 404.450, 627.539 399.500 C 623.225 394.550, 616.906 387.575, 613.498 384 C 607.210 377.404, 601.536 369.977, 603.903 371.440 C 604.936 372.079, 604.969 371.810, 604.065 370.121 C 603.440 368.954, 602.577 368, 602.146 368 C 601.716 368, 595.544 361.478, 588.432 353.506 C 581.319 345.534, 574.863 339.009, 574.083 339.006 C 573.304 339.003, 572.963 338.704, 573.325 338.342 C 574.306 337.361, 571.940 334.919, 570.732 335.666 C 570.160 336.019, 569.961 335.871, 570.292 335.337 C 570.623 334.802, 569.792 333.177, 568.446 331.726 C 567.101 330.275, 566 328.591, 566 327.985 C 566 327.378, 565.609 327.124, 565.130 327.420 C 564.285 327.942, 555.363 318.996, 547.724 309.964 C 545.648 307.509, 542.385 303.839, 540.474 301.809 C 538.563 299.778, 537 297.593, 537 296.952 C 537 295.566, 531.904 291.381, 530.695 291.775 C 530.231 291.926, 530.102 291.644, 530.409 291.148 C 530.715 290.652, 528.635 287.828, 525.786 284.873 C 522.936 281.918, 521.482 280.625, 522.553 282 L 524.500 284.500 522.274 282.616 C 521.049 281.580, 520.261 280.387, 520.522 279.965 C 521.101 279.028, 513.833 271.475, 512.676 271.810 C 512.222 271.942, 512.099 271.649, 512.402 271.158 C 513.148 269.951, 509.552 266.801, 508.509 267.748 C 508.052 268.162, 507.980 267.976, 508.346 267.335 C 509.174 265.890, 504.360 260, 502.352 260 C 501.544 260, 501.123 259.610, 501.418 259.132 C 501.713 258.655, 499.827 256.014, 497.227 253.262 C 494.627 250.511, 490.363 245.997, 487.750 243.231 C 485.137 240.465, 483 238.037, 483 237.835 C 483 236.819, 469.730 223.497, 468.699 223.478 C 468.040 223.465, 467.632 222.678, 467.794 221.728 C 467.955 220.777, 467.591 220, 466.985 220 C 466.378 220, 466.167 219.539, 466.515 218.975 C 466.864 218.412, 466.769 218.074, 466.305 218.225 C 465.841 218.376, 461.599 214.225, 456.878 209 C 446.288 197.281, 439.137 190.798, 437.746 191.657 C 437.156 192.022, 436.984 191.836, 437.355 191.235 C 438.221 189.833, 433.046 185.768, 431.266 186.451 C 430.513 186.741, 430.122 186.612, 430.397 186.167 C 431.145 184.957, 418.257 177.723, 416.875 178.577 C 416.128 179.039, 415.956 178.880, 416.409 178.147 C 416.827 177.471, 416.370 176.735, 415.313 176.386 C 414.316 176.056, 412.033 175.136, 410.239 174.341 C 408.445 173.546, 406.571 173.147, 406.074 173.454 C 405.577 173.761, 405.013 173.538, 404.819 172.958 C 404.259 171.277, 388.370 167.067, 378 165.852 C 372.775 165.240, 368.272 164.386, 367.993 163.954 C 367.715 163.522, 366.365 163.790, 364.993 164.549 M 348.004 207.122 C 348.002 207.464, 346.115 208.046, 343.812 208.414 C 341.509 208.782, 336.294 210.417, 332.224 212.047 C 328.155 213.676, 324.345 214.713, 323.758 214.350 C 323.171 213.988, 322.953 214.115, 323.273 214.633 C 323.594 215.151, 321.649 216.816, 318.953 218.331 C 316.256 219.847, 312.401 222.643, 310.385 224.544 C 308.369 226.445, 306.383 228, 305.970 228 C 304.529 228, 294.934 239.658, 290.465 246.839 C 284.951 255.699, 281.240 266.437, 279.352 278.995 C 277.523 291.157, 278.841 303.852, 283.194 316 C 284.869 320.675, 286.282 325.266, 286.334 326.202 C 286.386 327.139, 286.610 327.724, 286.831 327.503 C 287.052 327.281, 289.351 330.340, 291.939 334.300 C 300.777 347.824, 315.289 360.020, 329.662 366.003 C 344.387 372.133, 341.739 372, 449.065 372 C 502.929 372, 547 371.622, 547 371.160 C 547 370.698, 542.527 365.436, 537.060 359.466 C 531.594 353.497, 527.326 348.281, 527.577 347.876 C 527.827 347.470, 527.575 346.856, 527.016 346.510 C 526.457 346.165, 525.998 346.471, 525.996 347.191 C 525.994 347.911, 525.154 347.150, 524.129 345.500 C 523.105 343.850, 521.095 341.422, 519.664 340.105 C 518.233 338.787, 517.306 337.314, 517.605 336.830 C 517.904 336.346, 517.778 336.059, 517.324 336.191 C 515.805 336.634, 486.120 304.466, 486.750 303.059 C 486.887 302.751, 486.548 302.500, 485.996 302.500 C 484.176 302.500, 464.850 280.504, 465.774 279.483 C 466.173 279.041, 465.972 278.982, 465.327 279.351 C 464.618 279.757, 461.141 276.470, 456.529 271.034 C 452.334 266.090, 447.976 261.396, 446.843 260.602 C 445.594 259.728, 445.084 258.674, 445.546 257.925 C 446.012 257.171, 445.897 256.946, 445.248 257.346 C 444.170 258.013, 435.538 248.507, 435.455 246.563 C 435.430 245.978, 434.903 245.601, 434.284 245.724 C 433.665 245.846, 430.377 242.809, 426.977 238.974 C 423.576 235.138, 421.106 232, 421.487 232 C 421.868 232, 419.876 230.179, 417.060 227.953 C 414.244 225.727, 412.212 223.466, 412.544 222.928 C 412.877 222.390, 412.778 222.064, 412.324 222.202 C 411.248 222.530, 398.847 215.487, 399.446 214.887 C 399.698 214.635, 399.139 214.376, 398.202 214.312 C 397.266 214.249, 393.496 213.047, 389.825 211.642 C 380.728 208.161, 366.921 205.914, 356.590 206.234 C 351.870 206.380, 348.006 206.780, 348.004 207.122 M 412.825 373.750 C 437.204 373.899, 476.804 373.899, 500.825 373.750 C 524.846 373.600, 504.900 373.478, 456.500 373.479 C 408.100 373.479, 388.446 373.601, 412.825 373.750" stroke="none" fill="#ff008b" fill-rule="evenodd"/></svg>