<?xml version="1.0" encoding="UTF-8" standalone="no"?>
<!DOCTYPE svg PUBLIC "-//W3C//DTD SVG 1.1//EN" "http://www.w3.org/Graphics/SVG/1.1/DTD/svg11.dtd">
<svg xmlns="http://www.w3.org/2000/svg" version="1.1" viewBox="0.00 0.00 3108.00 837.00">
<g stroke-width="2.00" fill="none" stroke-linecap="butt">
<path stroke="#11b3b3" vector-effect="non-scaling-stroke" d="
  M 553.98 286.71
  Q 539.63 275.66 525.45 261.98
  Q 438.55 178.15 289.13 34.89
  Q 280.15 26.27 273.01 18.26
  Q 266.85 11.35 262.66 2.14"
/>
<path stroke="#11b3b3" vector-effect="non-scaling-stroke" d="
  M 2114.45 239.02
  Q 2119.15 262.02 2118.35 285.39
  Q 2118.06 293.78 2117.70 302.24"
/>
<path stroke="#1ab2a4" vector-effect="non-scaling-stroke" d="
  M 2146.68 239.01
  C 2148.92 260.11 2148.79 281.07 2148.26 302.24"
/>
<path stroke="#27b193" vector-effect="non-scaling-stroke" d="
  M 2210.77 239.01
  Q 2209.52 270.64 2210.70 302.24"
/>
<path stroke="#11b3b3" vector-effect="non-scaling-stroke" d="
  M 2088.39 392.26
  Q 2092.89 415.08 2091.85 438.08
  Q 2091.46 446.70 2090.78 455.50"
/>
<path stroke="#1ab2a4" vector-effect="non-scaling-stroke" d="
  M 2168.48 392.24
  C 2168.97 413.38 2168.92 434.44 2170.81 455.49"
/>
<path stroke="#27b193" vector-effect="non-scaling-stroke" d="
  M 2234.52 392.25
  Q 2234.46 407.05 2234.60 421.66
  Q 2234.76 438.76 2239.08 455.48"
/>
<path stroke="#11b3b3" vector-effect="non-scaling-stroke" d="
  M 2114.34 545.52
  Q 2117.75 577.18 2114.44 608.74"
/>
<path stroke="#1ab2a4" vector-effect="non-scaling-stroke" d="
  M 2137.68 545.51
  C 2140.26 566.74 2140.01 587.29 2138.24 608.75"
/>
<path stroke="#27b193" vector-effect="non-scaling-stroke" d="
  M 2220.77 545.52
  Q 2222.16 556.94 2222.27 565.91
  Q 2222.54 589.09 2224.18 608.74"
/>
<path stroke="#11b3b3" vector-effect="non-scaling-stroke" d="
  M 615.00 406.49
  Q 628.48 421.14 642.70 434.83
  Q 721.76 510.92 800.91 586.90
  Q 808.79 594.47 816.89 602.06"
/>
<path stroke="#1ab2a4" vector-effect="non-scaling-stroke" d="
  M 797.43 660.31
  Q 784.82 647.65 780.51 643.50
  Q 697.24 563.38 593.82 463.93
  Q 578.31 449.01 568.20 440.33
  A 0.64 0.64 0.0 0 0 567.33 440.36
  L 553.00 454.69
  A 0.65 0.64 -51.8 0 1 552.21 454.79
  C 539.01 446.92 529.92 437.94 516.69 425.21
  Q 503.16 412.20 493.98 403.29
  Q 480.44 390.15 473.87 376.65
  A 0.47 0.46 62.9 0 1 474.06 376.04
  L 491.78 366.53
  A 1.37 1.35 -6.2 0 0 492.44 365.72
  C 495.48 355.40 488.95 348.56 481.88 341.71
  Q 435.90 297.22 187.00 58.01
  Q 175.76 47.21 164.16 36.42"
/>
<path stroke="#27b193" vector-effect="non-scaling-stroke" d="
  M 703.17 740.35
  Q 687.01 726.13 681.05 720.40
  Q 634.06 675.25 528.92 574.10
  C 521.50 566.97 513.13 559.21 508.12 552.64
  Q 502.30 545.01 500.25 539.88
  Q 497.47 532.92 494.96 526.15
  C 494.49 524.89 492.60 521.91 490.72 521.97
  Q 488.15 522.05 486.54 524.01
  Q 480.88 530.92 476.21 540.28"
/>
<path stroke="#27b193" vector-effect="non-scaling-stroke" d="
  M 409.30 491.34
  Q 399.45 482.24 389.91 473.09
  Q 234.87 324.28 80.18 175.11
  Q 69.95 165.24 59.83 154.99"
/>
<path stroke="#27b193" vector-effect="non-scaling-stroke" d="
  M 509.26 684.20
  Q 502.89 675.59 499.75 670.73
  Q 494.49 662.57 487.76 649.40
  A 1.08 1.08 0.0 0 0 487.01 648.84
  Q 463.39 644.19 432.95 637.72
  Q 416.97 634.32 400.03 628.85
  C 385.37 624.12 372.78 626.88 358.55 631.54
  Q 282.33 656.46 196.53 685.23
  Q 173.28 693.02 154.78 696.78"
/>
<path stroke="#1fb29d" vector-effect="non-scaling-stroke" d="
  M 75.39 585.60
  L 68.98 582.96"
/>
<path stroke="#27b193" vector-effect="non-scaling-stroke" d="
  M 68.98 582.96
  C 72.96 582.24 78.17 581.63 81.42 580.06
  Q 89.65 576.08 92.92 566.77
  A 1.65 1.62 -42.5 0 0 92.97 565.82
  Q 87.51 543.21 85.05 535.89
  Q 74.85 505.46 64.63 474.70"
/>
<path stroke="#1ab2a4" vector-effect="non-scaling-stroke" d="
  M 68.98 582.96
  Q 65.95 577.28 64.58 573.19
  Q 48.98 526.48 32.74 479.65"
/>
<path stroke="#11b3b3" vector-effect="non-scaling-stroke" d="
  M 51.98 588.48
  Q 37.73 545.96 27.50 516.58
  Q 23.20 504.27 16.94 490.68"
/>
<path stroke="#1ab2a4" vector-effect="non-scaling-stroke" d="
  M 445.31 683.55
  Q 439.55 681.95 433.53 681.36
  C 425.11 680.53 420.29 684.14 413.58 688.79
  C 405.87 694.14 398.41 697.33 387.51 700.98
  Q 281.33 736.59 174.67 771.48"
/>
<path stroke="#11b3b3" vector-effect="non-scaling-stroke" d="
  M 432.79 707.95
  Q 427.76 715.64 423.48 721.14
  C 414.51 732.66 402.26 738.70 388.41 743.33
  Q 295.91 774.21 203.19 804.89"
/>
</g>
<path fill="#10b3b8" d="
  M 308.56 0.00
  Q 400.60 5.17 468.80 65.14
  Q 474.02 69.73 479.95 75.65
  C 535.70 131.34 562.28 208.61 553.98 286.71
  Q 539.63 275.66 525.45 261.98
  Q 438.55 178.15 289.13 34.89
  Q 280.15 26.27 273.01 18.26
  Q 266.85 11.35 262.66 2.14
  L 285.42 0.00
  L 308.56 0.00
  Z"
/>
<path fill="#12b2ad" d="
  M 262.66 2.14
  Q 266.85 11.35 273.01 18.26
  Q 280.15 26.27 289.13 34.89
  Q 438.55 178.15 525.45 261.98
  Q 539.63 275.66 553.98 286.71
  Q 547.20 347.36 514.35 398.51
  A 4.92 4.81 65.5 0 0 513.63 400.50
  Q 513.10 404.71 513.75 409.99
  C 515.46 423.86 524.60 429.85 537.64 430.40
  Q 542.71 430.62 550.74 429.50
  Q 555.25 428.88 557.89 427.35
  Q 584.61 411.87 615.00 406.49
  Q 628.48 421.14 642.70 434.83
  Q 721.76 510.92 800.91 586.90
  Q 808.79 594.47 816.89 602.06
  Q 812.32 632.89 797.43 660.31
  Q 784.82 647.65 780.51 643.50
  Q 697.24 563.38 593.82 463.93
  Q 578.31 449.01 568.20 440.33
  A 0.64 0.64 0.0 0 0 567.33 440.36
  L 553.00 454.69
  A 0.65 0.64 -51.8 0 1 552.21 454.79
  C 539.01 446.92 529.92 437.94 516.69 425.21
  Q 503.16 412.20 493.98 403.29
  Q 480.44 390.15 473.87 376.65
  A 0.47 0.46 62.9 0 1 474.06 376.04
  L 491.78 366.53
  A 1.37 1.35 -6.2 0 0 492.44 365.72
  C 495.48 355.40 488.95 348.56 481.88 341.71
  Q 435.90 297.22 187.00 58.01
  Q 175.76 47.21 164.16 36.42
  Q 209.92 9.24 262.66 2.14
  Z"
/>
<path fill="#22b19a" d="
  M 164.16 36.42
  Q 175.76 47.21 187.00 58.01
  Q 435.90 297.22 481.88 341.71
  C 488.95 348.56 495.48 355.40 492.44 365.72
  A 1.37 1.35 -6.2 0 1 491.78 366.53
  L 474.06 376.04
  A 0.47 0.46 62.9 0 0 473.87 376.65
  Q 480.44 390.15 493.98 403.29
  Q 503.16 412.20 516.69 425.21
  C 529.92 437.94 539.01 446.92 552.21 454.79
  A 0.65 0.64 -51.8 0 0 553.00 454.69
  L 567.33 440.36
  A 0.64 0.64 0.0 0 1 568.20 440.33
  Q 578.31 449.01 593.82 463.93
  Q 697.24 563.38 780.51 643.50
  Q 784.82 647.65 797.43 660.31
  Q 766.88 714.67 709.10 738.06
  Q 706.06 739.29 703.17 740.35
  Q 687.01 726.13 681.05 720.40
  Q 634.06 675.25 528.92 574.10
  C 521.50 566.97 513.13 559.21 508.12 552.64
  Q 502.30 545.01 500.25 539.88
  Q 497.47 532.92 494.96 526.15
  C 494.49 524.89 492.60 521.91 490.72 521.97
  Q 488.15 522.05 486.54 524.01
  Q 480.88 530.92 476.21 540.28
  Q 479.62 524.20 485.62 510.12
  A 10.84 10.79 58.7 0 0 486.45 506.68
  C 487.19 496.33 486.35 485.44 482.47 475.58
  Q 477.33 462.56 463.51 457.48
  A 2.01 2.00 35.0 0 0 461.55 457.82
  Q 437.74 477.66 409.30 491.34
  Q 399.45 482.24 389.91 473.09
  Q 234.87 324.28 80.18 175.11
  Q 69.95 165.24 59.83 154.99
  Q 93.63 79.45 164.16 36.42
  Z"
/>
<path fill="#2cb18c" d="
  M 59.83 154.99
  Q 69.95 165.24 80.18 175.11
  Q 234.87 324.28 389.91 473.09
  Q 399.45 482.24 409.30 491.34
  C 316.27 536.00 205.87 521.22 127.99 454.11
  A 0.43 0.42 42.5 0 0 127.40 454.13
  Q 119.75 462.12 116.14 472.83
  Q 109.36 492.93 112.31 513.54
  Q 112.74 516.54 113.77 523.16
  Q 116.35 539.81 109.27 555.33
  A 1.05 1.04 -47.2 0 0 109.30 556.25
  C 124.75 585.17 152.03 605.35 182.74 616.15
  A 0.99 0.99 0.0 0 0 183.85 615.83
  C 210.73 581.42 252.87 561.74 296.27 563.31
  Q 343.25 565.02 380.33 595.51
  Q 382.09 596.95 388.64 603.12
  Q 394.11 608.27 400.80 612.64
  C 419.59 624.91 444.21 635.19 462.09 615.47
  Q 468.46 608.44 472.45 596.03
  Q 472.53 595.78 472.83 595.53
  A 1.06 1.04 67.2 0 0 473.18 594.64
  Q 470.35 567.12 476.21 540.28
  Q 480.88 530.92 486.54 524.01
  Q 488.15 522.05 490.72 521.97
  C 492.60 521.91 494.49 524.89 494.96 526.15
  Q 497.47 532.92 500.25 539.88
  Q 502.30 545.01 508.12 552.64
  C 513.13 559.21 521.50 566.97 528.92 574.10
  Q 634.06 675.25 681.05 720.40
  Q 687.01 726.13 703.17 740.35
  Q 681.37 747.99 658.49 749.63
  Q 609.82 753.11 567.32 731.68
  Q 533.65 714.70 509.26 684.20
  Q 502.89 675.59 499.75 670.73
  Q 494.49 662.57 487.76 649.40
  A 1.08 1.08 0.0 0 0 487.01 648.84
  Q 463.39 644.19 432.95 637.72
  Q 416.97 634.32 400.03 628.85
  C 385.37 624.12 372.78 626.88 358.55 631.54
  Q 282.33 656.46 196.53 685.23
  Q 173.28 693.02 154.78 696.78
  Q 155.19 683.15 157.95 670.76
  A 6.78 6.74 -46.2 0 0 157.89 667.52
  Q 149.73 636.87 126.16 615.33
  Q 104.62 595.65 75.39 585.60
  L 68.98 582.96
  C 72.96 582.24 78.17 581.63 81.42 580.06
  Q 89.65 576.08 92.92 566.77
  A 1.65 1.62 -42.5 0 0 92.97 565.82
  Q 87.51 543.21 85.05 535.89
  Q 74.85 505.46 64.63 474.70
  L 70.07 475.56
  A 1.31 1.29 33.6 0 0 70.96 475.39
  C 86.77 465.85 102.44 452.13 105.92 433.28
  A 1.07 1.05 -60.7 0 0 105.67 432.37
  Q 62.56 384.19 47.12 325.12
  Q 24.49 238.52 59.83 154.99
  Z"
/>
<path fill="#7f8080" d="
  M 1050.25 388.05
  A 0.43 0.43 0.0 0 0 1050.67 388.48
  Q 1138.07 388.53 1226.25 388.48
  C 1230.28 388.48 1231.92 391.55 1231.79 395.60
  Q 1231.73 397.57 1231.76 451.00
  Q 1231.76 455.08 1227.83 456.39
  A 1.92 1.90 35.0 0 1 1227.19 456.50
  L 1050.57 456.50
  A 0.32 0.31 -0.0 0 0 1050.25 456.81
  L 1050.25 542.34
  A 0.41 0.41 0.0 0 0 1050.66 542.75
  Q 1130.68 542.76 1250.33 542.74
  Q 1253.89 542.74 1255.41 543.74
  Q 1257.69 545.24 1257.72 548.33
  Q 1257.78 557.07 1257.76 602.85
  C 1257.76 607.47 1256.87 610.80 1251.75 610.79
  Q 1215.00 610.71 980.75 610.76
  Q 976.94 610.76 975.64 606.96
  A 2.82 2.68 -55.6 0 1 975.50 606.09
  L 975.50 241.85
  A 1.62 1.59 58.5 0 1 975.66 241.15
  Q 977.40 237.51 980.51 237.51
  Q 1115.42 237.51 1250.33 237.50
  A 1.60 1.44 47.9 0 1 1250.63 237.53
  Q 1253.86 238.33 1254.89 241.36
  A 2.19 2.04 37.7 0 1 1255.00 242.03
  Q 1255.01 298.71 1254.98 300.22
  Q 1254.89 304.41 1250.44 305.51
  A 1.40 0.90 -39.0 0 1 1250.17 305.54
  L 1050.58 305.54
  A 0.33 0.33 0.0 0 0 1050.25 305.87
  L 1050.25 388.05
  Z"
/>
<path fill="#7f8080" d="
  M 3108.00 603.93
  L 3108.00 606.40
  C 3106.91 610.00 3104.70 610.77 3100.96 610.76
  Q 3053.73 610.74 3035.50 610.76
  C 3032.41 610.76 3031.16 608.75 3029.97 605.91
  Q 2999.36 533.04 2995.76 524.48
  A 0.80 0.78 -11.1 0 0 2995.03 524.00
  L 2833.71 524.00
  A 0.84 0.83 -78.0 0 0 2832.95 524.50
  Q 2816.60 562.86 2797.73 607.21
  C 2796.63 609.80 2794.79 610.77 2791.87 610.76
  Q 2772.10 610.74 2727.09 610.75
  A 2.21 2.04 -33.2 0 1 2726.38 610.63
  Q 2722.69 609.29 2722.24 605.85
  Q 2722.06 604.49 2724.08 599.87
  Q 2735.82 573.04 2880.67 241.43
  Q 2882.17 238.01 2885.49 238.01
  Q 2929.01 237.99 2943.49 237.99
  C 2947.00 237.99 2948.47 238.79 2949.83 241.90
  Q 3028.85 422.91 3108.00 603.93
  Z
  M 2861.15 456.66
  A 0.31 0.31 0.0 0 0 2861.43 457.09
  L 2967.23 456.91
  A 0.31 0.31 0.0 0 0 2967.52 456.47
  L 2914.40 333.64
  A 0.31 0.31 0.0 0 0 2913.83 333.64
  L 2861.15 456.66
  Z"
/>
<path fill="#7f8080" d="
  M 1378.87 239.02
  C 1381.91 239.03 1384.24 241.43 1384.24 244.50
  Q 1384.27 326.17 1384.24 444.04
  Q 1384.24 458.73 1385.10 466.89
  C 1387.07 485.59 1392.52 503.76 1403.93 518.54
  C 1422.03 541.96 1452.02 548.48 1480.06 546.16
  Q 1495.25 544.91 1507.54 539.81
  C 1543.75 524.78 1554.74 487.95 1554.75 451.82
  Q 1554.76 250.65 1554.73 246.25
  C 1554.70 241.10 1556.40 238.99 1561.40 238.99
  Q 1596.46 239.01 1622.30 238.99
  C 1626.50 238.99 1629.01 240.54 1629.01 244.75
  Q 1628.97 433.62 1629.02 439.07
  Q 1629.23 463.10 1627.93 474.91
  C 1624.78 503.62 1617.12 531.79 1600.59 555.67
  Q 1574.84 592.87 1529.60 607.16
  Q 1511.85 612.76 1493.09 614.61
  C 1423.11 621.53 1352.88 600.75 1323.87 530.34
  C 1313.71 505.69 1309.99 479.04 1309.99 452.68
  Q 1310.00 379.59 1310.00 243.55
  A 1.82 1.78 -37.1 0 1 1310.08 243.02
  Q 1311.32 239.02 1315.51 239.01
  Q 1359.34 238.97 1378.87 239.02
  Z"
/>
<path fill="#7f8080" d="
  M 1757.76 485.69
  Q 1757.76 526.25 1757.76 604.76
  Q 1757.76 609.23 1753.73 610.66
  A 1.45 1.39 33.6 0 1 1753.23 610.75
  L 1687.91 610.75
  A 2.13 2.00 -31.3 0 1 1687.06 610.57
  Q 1683.25 608.90 1683.25 605.49
  Q 1683.23 428.88 1683.25 244.51
  Q 1683.25 241.38 1685.53 239.95
  Q 1687.02 239.02 1690.69 239.01
  Q 1778.32 238.93 1852.99 239.07
  C 1896.72 239.15 1945.62 254.10 1970.53 292.70
  Q 1988.21 320.11 1988.96 353.52
  Q 1989.25 366.46 1988.20 375.72
  C 1982.78 423.70 1951.71 456.92 1907.03 471.55
  A 0.37 0.36 63.4 0 0 1906.85 472.11
  Q 1922.05 493.46 1999.28 601.72
  C 2001.29 604.54 2000.65 608.51 1997.67 610.14
  Q 1996.41 610.83 1993.23 610.77
  Q 1991.33 610.74 1919.26 610.75
  C 1917.78 610.75 1916.07 609.14 1915.11 607.77
  Q 1892.41 575.57 1828.78 485.30
  A 0.71 0.70 -17.3 0 0 1828.20 485.00
  L 1758.45 485.00
  A 0.69 0.69 0.0 0 0 1757.76 485.69
  Z
  M 1758.10 417.75
  Q 1806.88 417.74 1845.66 417.76
  C 1877.91 417.77 1911.35 403.53 1913.43 366.74
  C 1915.97 322.06 1881.64 307.84 1844.00 307.76
  Q 1833.04 307.74 1758.05 307.75
  A 0.30 0.29 -90.0 0 0 1757.76 308.05
  L 1757.76 417.42
  A 0.34 0.33 0.0 0 0 1758.10 417.75
  Z"
/>
<path fill="#10b3b8" d="
  M 2114.45 239.02
  Q 2119.15 262.02 2118.35 285.39
  Q 2118.06 293.78 2117.70 302.24
  Q 2093.37 302.25 2069.03 302.26
  Q 2064.44 302.26 2063.18 301.45
  Q 2060.59 299.77 2060.53 296.22
  Q 2060.47 292.56 2060.49 246.85
  C 2060.49 242.70 2061.17 240.11 2065.18 239.11
  A 2.52 2.52 0.0 0 1 2065.81 239.03
  L 2114.45 239.02
  Z"
/>
<path fill="#12b2ad" d="
  M 2146.68 239.01
  C 2148.92 260.11 2148.79 281.07 2148.26 302.24
  L 2117.70 302.24
  Q 2118.06 293.78 2118.35 285.39
  Q 2119.15 262.02 2114.45 239.02
  L 2146.68 239.01
  Z"
/>
<path fill="#22b19a" d="
  M 2210.77 239.01
  Q 2209.52 270.64 2210.70 302.24
  L 2148.26 302.24
  C 2148.79 281.07 2148.92 260.11 2146.68 239.01
  L 2210.77 239.01
  Z"
/>
<path fill="#2cb18c" d="
  M 2210.70 302.24
  Q 2209.52 270.64 2210.77 239.01
  L 2287.11 239.03
  A 2.70 2.56 51.8 0 1 2287.86 239.14
  Q 2292.25 240.42 2292.25 245.01
  Q 2292.25 274.14 2292.25 296.25
  Q 2292.25 300.79 2287.94 302.15
  A 1.75 1.75 0.0 0 1 2287.45 302.22
  L 2210.70 302.24
  Z"
/>
<path fill="#7f8080" d="
  M 2436.01 411.31
  A 0.27 0.27 0.0 0 0 2436.48 411.49
  Q 2448.20 399.09 2598.12 240.62
  C 2599.24 239.43 2600.71 239.00 2602.46 239.00
  Q 2643.21 238.99 2680.75 239.01
  C 2682.37 239.01 2684.41 240.67 2685.09 242.36
  Q 2686.48 245.84 2683.71 248.71
  Q 2668.78 264.17 2537.59 399.86
  A 0.35 0.34 49.1 0 0 2537.56 400.31
  Q 2688.88 598.91 2691.01 601.73
  C 2693.67 605.24 2691.84 609.79 2687.63 610.71
  A 1.56 1.39 -48.4 0 1 2687.29 610.75
  Q 2686.14 610.75 2609.75 610.75
  Q 2607.05 610.75 2605.51 608.74
  Q 2592.67 591.88 2486.33 451.70
  A 0.19 0.19 0.0 0 0 2486.04 451.68
  L 2436.31 502.78
  A 1.06 1.06 0.0 0 0 2436.00 503.53
  L 2436.00 606.36
  A 1.78 1.76 56.8 0 1 2435.86 607.05
  C 2434.65 609.91 2432.83 610.77 2429.56 610.77
  Q 2398.36 610.72 2367.74 610.77
  C 2362.18 610.78 2361.50 607.09 2361.50 602.15
  Q 2361.51 567.38 2361.51 245.00
  Q 2361.51 241.76 2363.72 240.14
  Q 2365.35 238.96 2369.04 238.97
  Q 2402.47 239.02 2431.29 239.00
  A 2.56 2.54 -34.6 0 1 2432.18 239.16
  Q 2436.02 240.59 2436.01 245.23
  Q 2435.97 350.14 2436.01 411.31
  Z"
/>
<path fill="#10b3b8" d="
  M 2088.39 392.26
  Q 2092.89 415.08 2091.85 438.08
  Q 2091.46 446.70 2090.78 455.50
  Q 2079.95 455.51 2069.10 455.50
  Q 2064.63 455.50 2063.07 454.56
  Q 2060.53 453.03 2060.52 449.25
  Q 2060.48 439.08 2060.49 400.18
  C 2060.49 394.62 2062.05 392.26 2067.53 392.25
  Q 2078.04 392.23 2088.39 392.26
  Z"
/>
<path fill="#12b2ad" d="
  M 2168.48 392.24
  C 2168.97 413.38 2168.92 434.44 2170.81 455.49
  L 2090.78 455.50
  Q 2091.46 446.70 2091.85 438.08
  Q 2092.89 415.08 2088.39 392.26
  L 2168.48 392.24
  Z"
/>
<path fill="#22b19a" d="
  M 2234.52 392.25
  Q 2234.46 407.05 2234.60 421.66
  Q 2234.76 438.76 2239.08 455.48
  L 2170.81 455.49
  C 2168.92 434.44 2168.97 413.38 2168.48 392.24
  L 2234.52 392.25
  Z"
/>
<path fill="#2cb18c" d="
  M 2239.08 455.48
  Q 2234.76 438.76 2234.60 421.66
  Q 2234.46 407.05 2234.52 392.25
  Q 2259.75 392.21 2285.02 392.27
  C 2290.06 392.28 2292.27 394.06 2292.26 398.91
  Q 2292.20 443.87 2292.29 446.58
  C 2292.44 451.68 2291.65 455.42 2286.00 455.44
  Q 2262.49 455.52 2239.08 455.48
  Z"
/>
<path fill="#10b3b8" d="
  M 816.89 602.06
  Q 808.79 594.47 800.91 586.90
  Q 721.76 510.92 642.70 434.83
  Q 628.48 421.14 615.00 406.49
  C 695.63 392.16 774.66 435.92 805.67 511.12
  Q 823.34 553.96 816.89 602.06
  Z"
/>
<path fill="#22b19a" d="
  M 64.63 474.70
  Q 74.85 505.46 85.05 535.89
  Q 87.51 543.21 92.97 565.82
  A 1.65 1.62 -42.5 0 1 92.92 566.77
  Q 89.65 576.08 81.42 580.06
  C 78.17 581.63 72.96 582.24 68.98 582.96
  Q 65.95 577.28 64.58 573.19
  Q 48.98 526.48 32.74 479.65
  Q 47.91 472.48 64.63 474.70
  Z"
/>
<path fill="#12b2ad" d="
  M 32.74 479.65
  Q 48.98 526.48 64.58 573.19
  Q 65.95 577.28 68.98 582.96
  L 75.39 585.60
  Q 63.71 589.80 51.98 588.48
  Q 37.73 545.96 27.50 516.58
  Q 23.20 504.27 16.94 490.68
  Q 23.72 483.75 32.74 479.65
  Z"
/>
<path fill="#10b3b8" d="
  M 51.98 588.48
  Q 40.44 587.45 31.33 582.67
  Q 4.28 568.47 0.00 537.22
  L 0.00 526.04
  C 1.49 512.85 7.23 499.86 16.94 490.68
  Q 23.20 504.27 27.50 516.58
  Q 37.73 545.96 51.98 588.48
  Z"
/>
<path fill="#10b3b8" d="
  M 2114.34 545.52
  Q 2117.75 577.18 2114.44 608.74
  Q 2090.62 608.76 2066.75 608.75
  Q 2062.90 608.74 2061.39 606.03
  Q 2060.46 604.37 2060.47 599.83
  Q 2060.52 567.69 2060.48 552.98
  C 2060.47 548.15 2062.06 545.52 2066.89 545.51
  Q 2090.76 545.48 2114.34 545.52
  Z"
/>
<path fill="#12b2ad" d="
  M 2137.68 545.51
  C 2140.26 566.74 2140.01 587.29 2138.24 608.75
  L 2114.44 608.74
  Q 2117.75 577.18 2114.34 545.52
  L 2137.68 545.51
  Z"
/>
<path fill="#22b19a" d="
  M 2220.77 545.52
  Q 2222.16 556.94 2222.27 565.91
  Q 2222.54 589.09 2224.18 608.74
  L 2138.24 608.75
  C 2140.01 587.29 2140.26 566.74 2137.68 545.51
  L 2220.77 545.52
  Z"
/>
<path fill="#2cb18c" d="
  M 2224.18 608.74
  Q 2222.54 589.09 2222.27 565.91
  Q 2222.16 556.94 2220.77 545.52
  L 2287.23 545.52
  A 2.23 2.21 52.4 0 1 2287.82 545.60
  C 2291.42 546.62 2292.26 548.91 2292.26 552.79
  Q 2292.21 595.40 2292.30 600.04
  C 2292.41 605.40 2291.40 608.72 2285.50 608.73
  Q 2254.88 608.77 2224.18 608.74
  Z"
/>
<path fill="#22b19a" d="
  M 509.26 684.20
  Q 508.75 685.18 508.52 684.95
  C 499.63 676.27 488.08 667.85 475.51 666.35
  C 463.09 664.88 452.34 673.15 445.31 683.55
  Q 439.55 681.95 433.53 681.36
  C 425.11 680.53 420.29 684.14 413.58 688.79
  C 405.87 694.14 398.41 697.33 387.51 700.98
  Q 281.33 736.59 174.67 771.48
  Q 154.05 737.06 154.78 696.78
  Q 173.28 693.02 196.53 685.23
  Q 282.33 656.46 358.55 631.54
  C 372.78 626.88 385.37 624.12 400.03 628.85
  Q 416.97 634.32 432.95 637.72
  Q 463.39 644.19 487.01 648.84
  A 1.08 1.08 0.0 0 1 487.76 649.40
  Q 494.49 662.57 499.75 670.73
  Q 502.89 675.59 509.26 684.20
  Z"
/>
<path fill="#12b2ad" d="
  M 445.31 683.55
  Q 437.81 695.01 432.79 707.95
  Q 427.76 715.64 423.48 721.14
  C 414.51 732.66 402.26 738.70 388.41 743.33
  Q 295.91 774.21 203.19 804.89
  Q 186.23 790.51 174.67 771.48
  Q 281.33 736.59 387.51 700.98
  C 398.41 697.33 405.87 694.14 413.58 688.79
  C 420.29 684.14 425.11 680.53 433.53 681.36
  Q 439.55 681.95 445.31 683.55
  Z"
/>
<path fill="#10b3b8" d="
  M 432.79 707.95
  C 430.19 714.87 427.62 721.50 425.94 728.82
  C 418.94 759.30 403.43 785.59 380.02 805.29
  Q 347.43 832.72 302.88 837.00
  L 280.55 837.00
  Q 236.69 832.82 203.19 804.89
  Q 295.91 774.21 388.41 743.33
  C 402.26 738.70 414.51 732.66 423.48 721.14
  Q 427.76 715.64 432.79 707.95
  Z"
/>
</svg>
