<?xml version="1.0" encoding="UTF-8"?><svg id="Layer_1" xmlns="http://www.w3.org/2000/svg" viewBox="0 0 193.88 40.21"><defs><style>.cls-1{fill:#00c072;stroke-width:0px;}</style></defs><path class="cls-1" d="m191.81,15.13c-.59-.57-1.4-1.06-2.39-1.46-.97-.39-1.93-.69-2.84-.89-.9-.19-2.02-.38-3.33-.56-.75-.11-1.33-.19-1.72-.24-.39-.05-.86-.13-1.41-.24-.53-.1-.93-.22-1.18-.35-.26-.13-.54-.31-.82-.53-.26-.2-.43-.43-.53-.69-.1-.27-.16-.61-.16-1,0-1.02.43-1.8,1.31-2.39.9-.6,2.12-.91,3.63-.91s2.7.37,3.67,1.11c.95.73,1.51,1.71,1.67,2.91l.03.22h5.7l-.02-.27c-.17-2.78-1.28-4.98-3.31-6.54-2.02-1.55-4.65-2.33-7.83-2.33-3.09-.04-5.64.75-7.6,2.34-1.97,1.6-2.96,3.73-2.96,6.34,0,1.38.27,2.58.79,3.56.53.99,1.33,1.79,2.38,2.36,1.03.55,2.1.98,3.2,1.27,1.08.28,2.46.54,4.1.75h.03c.05,0,.16.01.34.05h.02c1.13.14,1.97.27,2.48.37.5.1,1.06.28,1.64.52.54.22.92.53,1.12.91.21.4.32.93.32,1.55,0,1.01-.45,1.79-1.38,2.38-.95.61-2.23.91-3.81.91-1.79,0-3.24-.43-4.3-1.27-1.06-.84-1.63-1.93-1.72-3.32l-.02-.24h-5.7v.26c.07,2.96,1.19,5.32,3.34,7,2.13,1.67,4.96,2.52,8.4,2.52,3.15,0,5.78-.8,7.81-2.39,2.05-1.6,3.09-3.73,3.09-6.34,0-1.19-.2-2.26-.58-3.17-.39-.91-.89-1.66-1.48-2.23Z"/><path class="cls-1" d="m158.74.94c-3.83,0-6.71,1.44-8.56,4.29-1.52-2.85-4.13-4.29-7.77-4.29-3.08.03-5.9,1.19-7.68,3.13V1.24h-5.13v27.66h5.81v-15.73c-.01-2.63.32-4.11,1.37-5.35,1.18-1.39,2.52-1.8,4.25-1.8,3.39,0,5.04,2.11,5.04,6.46v16.41h5.86v-15.87c0-2.18.52-3.92,1.53-5.16,1.01-1.22,2.4-1.84,4.14-1.84,3.36,0,4.99,2.11,4.99,6.46v16.41h5.81V11.79c0-3.81-.9-6.31-2.67-8.12-1.78-1.81-4.13-2.73-7-2.73Z"/><path class="cls-1" d="m119.59,3.77c-2.31-1.75-5.14-2.67-8.23-2.67-3.82,0-7.28,1.48-9.72,4.16-2.37,2.6-3.68,6.16-3.68,10.02,0,8.13,5.64,14.04,13.4,14.04,3.01,0,5.82-.87,8.16-2.54h.04c-.06.92-.25,1.82-.55,2.66,0,.02-.02.05-.03.08-1.25,3.27-4.01,5.27-7.41,5.35-.02,0-.04,0-.07,0h-.01c-3.23,0-5.92-1.73-7.31-4.66h-5.68c.75,2.82,2.24,5.22,4.35,6.99,2.33,1.96,5.27,2.99,8.5,2.99.05,0,.1,0,.15,0,.08,0,.15,0,.21,0,3.15-.04,6.02-1.08,8.29-2.99,3.11-2.61,4.9-6.69,4.9-11.19V1.24h-5.32v2.53Zm0,11.6c0,1.08-.16,2.15-.52,3.17-1.19,3.35-4.07,5.46-7.71,5.46-2.37,0-4.41-.88-5.89-2.54-1.41-1.59-2.19-3.78-2.19-6.17s.79-4.63,2.23-6.27c1.48-1.67,3.56-2.6,5.85-2.6,3.86,0,6.88,2.44,7.91,6.22.22.81.32,1.65.32,2.49v.24Z"/><path class="cls-1" d="m73.53,0c-7.06,0-12.99,4.86-14.62,11.41-1.63-6.56-7.56-11.41-14.62-11.41s-12.99,4.86-14.62,11.41C28.05,4.86,22.13,0,15.07,0,6.74,0,0,6.74,0,15.07s6.74,15.07,15.07,15.07c7.06,0,12.99-4.86,14.62-11.41,1.63,6.56,7.56,11.41,14.62,11.41s12.99-4.86,14.62-11.41c1.63,6.56,7.56,11.41,14.62,11.41,8.32,0,15.07-6.74,15.07-15.07S81.85,0,73.53,0Z"/></svg>