<?xml version="1.0" encoding="UTF-8"?>
<svg id="Layer_1" data-name="Layer 1" xmlns="http://www.w3.org/2000/svg" viewBox="0 0 926.0409 216.0079">
  <defs>
    <style>
      .cls-1 {
        fill: #4f1da7;
      }
    </style>
  </defs>
  <path class="cls-1" d="M59.1664,156.8415V22.9704h16.8594v51.5811l9.6338-9.6338c2.8105-2.8096,6.1533-4.2148,10.0352-4.2148h26.3098c3.8799,0,7.1572,1.3389,9.835,4.0146l8.8311,8.8311c2.8096,2.8096,4.2148,6.2217,4.2148,10.2354v73.0576h-16.8594v-70.4482c0-1.0693-.335-1.9375-1.0029-2.6094l-5.6201-5.6191c-.6709-.668-1.54-1.0039-2.6094-1.0039h-22.095c-1.0723,0-1.9414.3359-2.6094,1.0039l-17.0596,17.0596c-.6709.6709-1.0039,1.54-1.0039,2.6094v59.0078h-16.8594Z"/>
  <path class="cls-1" d="M260.7443,156.8415V22.9704h16.8594v77.4727l39.0228-39.7402h21.2754l-44.6429,45.1592,50.0619,50.9795h-21.877l-43.8402-44.7578v44.7578h-16.8594Z"/>
  <path class="cls-1" d="M425.8101,120.5997v12.9596c0,4.1494-1.4053,7.627-4.2148,10.4365l-8.8311,8.8311c-2.6777,2.6787-5.9551,4.0146-9.835,4.0146h-40.1406c-3.8828,0-7.1602-1.3359-9.835-4.0146l-13.0459-13.0459,11.6406-11.6406,11.0391,11.0391c.8027.8027,1.6055,1.2041,2.4092,1.2041h34.9229c.9346,0,1.8057-.4014,2.6084-1.2041l5.4189-5.4189c.668-.5332,1.0039-1.4053,1.0039-2.6094v-4.9323c0-1.0693-.3701-1.9717-1.1035-2.709-.7373-.7344-1.5742-1.1699-2.5088-1.3047l-49.7754-11.4118c-3.4686-.9018-6.623-2.1074-9.0322-4.7168-2.4082-2.6084-3.6123-5.7197-3.6123-9.332v-12.9606c0-4.0137,1.4053-7.4258,4.2148-10.2354l8.8311-8.8311c2.6748-2.6758,5.9521-4.0146,9.835-4.0146h37.7324c3.8789,0,7.1562,1.3389,9.835,4.0146l13.0459,13.0459-11.6416,11.6406-11.2393-11.2393c-.6709-.668-1.4736-1.0039-2.4082-1.0039h-32.3145c-.9375,0-1.7402.3359-2.4082,1.0039l-5.4189,5.4189c-.8027.8027-1.2041,1.6748-1.2041,2.6094v4.9313c0,1.0723.3672,1.9756,1.1035,2.71.7344.7363,1.5713,1.1729,2.5088,1.3037l49.7754,11.4118c3.6123.8231,6.623,2.1074,9.0322,4.7168,2.4082,2.6094,3.6123,5.7197,3.6123,9.333Z"/>
  <path class="cls-1" d="M540.305,178.1159l12.043-12.042,11.4404,11.6406c.668.668,1.4707,1.0039,2.4082,1.0039h35.9258c.9346,0,1.7373-.3359,2.4092-1.0039l5.6191-5.6191c.8027-.8037,1.2041-1.6748,1.2041-2.6094v-26.4932l-9.6338,9.6338c-2.8096,2.8096-6.1553,4.2148-10.0352,4.2148h-27.0947c-3.8828,0-7.1602-1.3359-9.835-4.0146l-8.8311-8.8311c-2.8096-2.8096-4.2148-6.2217-4.2148-10.2354v-49.9766c0-4.0137,1.4053-7.4258,4.2148-10.2354l8.8311-8.8311c2.6748-2.6758,5.9521-4.0146,9.835-4.0146h27.0947c3.8799,0,7.2256,1.4053,10.0352,4.2148l10.4375,10.4365,3.2109-14.6514h17.0596l-4.2148,18.8662v92.5264c0,4.0137-1.4043,7.4258-4.2148,10.2354l-8.8311,8.8311c-2.6777,2.6748-5.9551,4.0146-9.834,4.0146h-42.1484c-3.8828,0-7.1592-1.3398-9.835-4.0146l-13.0459-13.0459ZM559.5736,133.7605l5.4189,5.4189c.8027.8027,1.6709,1.2041,2.6084,1.2041h23.2822c.9346,0,1.8066-.4014,2.6094-1.2041l16.8594-16.8594c.668-.668,1.0029-1.4707,1.0029-2.4092v-22.2783c0-.9346-.335-1.7373-1.0029-2.4082l-16.8594-16.8594c-.8027-.8027-1.6748-1.2041-2.6094-1.2041h-23.0811c-.9375,0-1.8066.4014-2.6094,1.2041l-5.6191,5.6201c-.6719.6709-1.0039,1.4736-1.0039,2.4082v44.958c0,.9375.332,1.7412,1.0039,2.4092Z"/>
  <path class="cls-1" d="M656.3372,152.8269l-8.8311-8.8311c-2.8096-2.8096-4.2148-6.2217-4.2148-10.2354v-49.9766c0-4.0137,1.4053-7.4258,4.2148-10.2354l8.8311-8.8311c2.6748-2.6758,5.9521-4.0146,9.835-4.0146h39.9404c3.8789,0,7.1562,1.3389,9.834,4.0146l8.8311,8.8311c2.8105,2.8096,4.2148,6.2217,4.2148,10.2354v49.9766c0,4.0137-1.4043,7.4258-4.2148,10.2354l-8.8311,8.8311c-2.6777,2.6787-5.9551,4.0146-9.834,4.0146h-39.9404c-3.8828,0-7.1602-1.3359-9.835-4.0146ZM661.1546,133.7605l5.6191,5.6191c.668.6709,1.5371,1.0039,2.6094,1.0039h33.7188c.9346,0,1.7373-.333,2.4082-1.0039l5.4189-5.4189c.8027-.8027,1.2041-1.6719,1.2041-2.6094v-45.1582c0-.9346-.4014-1.8066-1.2041-2.6094l-5.4189-5.4189c-.6709-.668-1.4736-1.0039-2.4082-1.0039h-33.7188c-1.0723,0-1.9414.3359-2.6094,1.0039l-5.6191,5.6191c-.6719.6719-1.0039,1.54-1.0039,2.6094v44.7578c0,1.0723.332,1.9414,1.0039,2.6094Z"/>
  <path class="cls-1" d="M744.0443,156.8415v-77.0713l-4.2148-19.0674h16.8594l3.6133,14.4512,10.2354-10.2363c2.8105-2.8096,6.1533-4.2148,10.0352-4.2148h26.3288c3.8799,0,7.1572,1.3389,9.835,4.0146l8.8311,8.8311c2.8096,2.8096,4.2148,6.2217,4.2148,10.2354v73.0576h-16.8594v-70.4482c0-1.0693-.335-1.9375-1.0029-2.6094l-5.6201-5.6191c-.6709-.668-1.54-1.0039-2.6094-1.0039h-21.9128c-1.2051,0-2.208.4014-3.0107,1.2041l-16.6592,16.6592c-.8027.8027-1.2041,1.7402-1.2041,2.8096v59.0078h-16.8594Z"/>
  <path class="cls-1" d="M848.6983,49.8871l12.9197-7.441c1.2357-.7117,2.7568-.7117,3.9925,0l12.921,7.4411c1.2397.714,2.0038,2.0357,2.0038,3.4663v14.8651c0,1.4306-.7641,2.7523-2.0038,3.4663l-12.921,7.4411c-1.2357.7116-2.7568.7116-3.9925,0l-12.9197-7.441c-1.2397-.714-2.0037-2.0356-2.0037-3.4662v-14.8653c0-1.4306.764-2.7522,2.0037-3.4662Z"/>
  <path class="cls-1" d="M527.621,136.2928c-.6719-.668-1.0039-1.6055-1.0039-2.8096v-49.7754c0-4.0137-1.4053-7.4258-4.2148-10.2354l-8.8311-8.8311c-2.9443-2.6758-6.2217-4.0146-9.835-4.0146h-39.9601c-3.8828,0-7.1592,1.3389-9.835,4.0146l-11.0381,11.2393,11.6406,11.6406,9.2324-9.2324c.8027-.8027,1.6055-1.2041,2.4082-1.2041h34.1398c1.0703,0,1.9385.3359,2.6094,1.0039l5.6201,5.6191c.8027.8027,1.2041,1.6064,1.2041,2.4092v40.1406c0,.9375-.4014,1.8066-1.2041,2.6094l-10.2363,10.2363c-.8027.8027-1.6748,1.2041-2.6094,1.2041h-29.1222c-.8027,0-1.4736-.2666-2.0068-.8027l-5.8203-5.8203c-.6709-.668-1.0039-1.4717-1.0039-2.4092v-8.6299c0-1.0693.333-1.9385,1.0039-2.6094l5.6201-5.6201c.668-.668,1.5361-1.0029,2.6084-1.0029h34.341v-16.458h-37.5519c-4.0146,0-7.3604,1.3389-10.0352,4.0137l-8.6309,8.6309c-2.8096,2.8096-4.2148,6.1562-4.2148,10.0352v14.0498c0,4.0137,1.4053,7.4258,4.2148,10.2354l8.8311,8.8311c2.6758,2.6787,5.9521,4.0146,9.835,4.0146h33.9396c3.8789,0,7.1562-1.3359,9.834-4.0146l6.2227-6.0205,10.2354,10.0352,12.2432-12.043-8.6299-8.4297Z"/>
  <path class="cls-1" d="M245.6457,83.7078c0-4.0137-1.4043-7.4258-4.2148-10.2354l-8.8311-8.8311c-2.6777-2.6758-5.9551-4.0146-9.834-4.0146h-39.9404c-3.8828,0-7.1602,1.3389-9.835,4.0146l-8.8311,8.8311c-2.8096,2.8096-4.2148,6.2217-4.2148,10.2354v49.9766c0,4.0137,1.4053,7.4258,4.2148,10.2354l8.8311,8.8311c2.6748,2.6787,5.9521,4.0146,9.835,4.0146h39.9404c3.8789,0,7.1562-1.3359,9.834-4.0146l13.0459-13.0459-11.8418-11.6406-11.0381,11.0391c-.8027.8027-1.6055,1.2041-2.4092,1.2041h-34.5215c-.9375,0-1.8057-.4014-2.6084-1.2041l-5.4189-5.4189c-.6719-.668-1.0039-1.4717-1.0039-2.4092v-44.958c0-1.0693.332-1.9375,1.0039-2.6094l5.6191-5.6191c.668-.668,1.5371-1.0039,2.6094-1.0039h33.5176c.9346,0,1.7373.3359,2.4092,1.0039l5.6191,5.6191c.8027.8027,1.2041,1.6748,1.2041,2.6094v11.4404h-43.5781v16.458h60.4375v-30.5078Z"/>
</svg>