<?xml version="1.0" encoding="utf-8"?>
<!-- Generator: Adobe Illustrator 19.2.1, SVG Export Plug-In . SVG Version: 6.00 Build 0)  -->
<svg version="1.1" id="Layer_1" xmlns="http://www.w3.org/2000/svg" xmlns:xlink="http://www.w3.org/1999/xlink" x="0px" y="0px"
	 viewBox="0 0 395.3 95.1" style="enable-background:new 0 0 395.3 95.1;" xml:space="preserve">
<style type="text/css">
	.st0{fill:#A28B60;}
</style>
<g>
	<path class="st0" d="M0,0h16.4v28.6h30.2V0H63v74.6H46.6V42.4H16.4v32.2H0V0z"/>
	<path class="st0" d="M82.3,51.2c0.4,9.5,4.9,13.7,13.3,13.7c6,0,10.8-3.7,11.7-7h13.1c-4.2,12.9-13.1,18.2-25.3,18.2
		c-17,0-27.6-11.7-27.6-28.4c0-16.2,11.2-28.5,27.6-28.5c18.4,0,27.4,15.5,26.2,32.1h-39V51.2z M106.5,41.8
		c-1.4-7.5-4.6-11.5-11.8-11.5c-9.6,0-12,7.3-12.3,11.5H106.5z"/>
	<path class="st0" d="M175.1,37.2c0.8-13.8,13.3-18.1,25.4-18.1c10.8,0,23.7,2.4,23.7,15.4v28.1c0,4.9,0.5,9.8,1.9,12H211
		c-0.5-1.7-0.9-3.4-1-5.2c-4.7,4.9-11.5,6.7-18.2,6.7c-10.3,0-18.4-5.1-18.4-16.2c0.2-24.6,36.6-11.4,35.9-23.5
		c0-6.3-4.4-7.3-9.6-7.3c-5.7,0-9.3,2.3-9.8,8.1C189.9,37.2,175.1,37.2,175.1,37.2z M209.3,48.2c-2.5,2.2-7.7,2.3-12.3,3.1
		s-8.8,2.5-8.8,7.9s4.3,6.9,9.1,6.9c11.6,0,12-9.1,12-12.4V48.2z"/>
	<path class="st0" d="M281.2,71.2c0,8.9-3.2,23.9-28,23.9c-10.7,0-23-5.1-23.8-17.3h14.7c1.4,5.5,5.7,7.4,11.1,7.4
		c8.3,0,12-5.5,11.9-13.4v-7.1h-0.2c-3.2,5.8-9.6,8.4-16.2,8.4c-16.3,0-23.1-12.3-23.1-27.2c0-14,8.1-26.8,23.2-26.8
		c7.1,0,12.4,2.4,16.1,8.7h0.2v-7.2h14.1V71.2z M267.1,46.9c0-8.8-3-16.6-12.6-16.6c-8.4,0-12,7.3-12,15.4c0,7.7,2.8,16.2,12,16.2
		C262.9,61.9,267.1,54.7,267.1,46.9z"/>
	<path class="st0" d="M312.5,19.1c17,0,28,11.3,28,28.5c0,17.1-11,28.4-28,28.4c-16.9,0-27.9-11.3-27.9-28.4
		C284.6,30.4,295.6,19.1,312.5,19.1z M312.5,64.9c10.1,0,13.2-8.6,13.2-17.2c0-8.7-3-17.3-13.2-17.3c-10,0-13.1,8.7-13.1,17.3
		C299.5,56.3,302.5,64.9,312.5,64.9z"/>
	<path class="st0" d="M344.6,20.6h14.1v7.5h0.3c3.8-6.2,10.3-9,16.5-9c15.8,0,19.7,8.9,19.7,22.3v33.2h-14.8V44.1
		c0-8.9-2.5-13.3-9.5-13.3c-8,0-11.5,4.5-11.5,15.5v28.3h-14.8L344.6,20.6L344.6,20.6z"/>
	<polygon points="164.2,34.7 174.2,20.6 157.8,20.6 148.4,34.7 148.4,34.7 	"/>
	<path class="st0" d="M137.4,46.2l-17.8-25.6h16.9l37.5,54h-16.9l-11.3-17l-11.3,17H118L137.4,46.2z"/>
</g>
</svg>
