<?xml version="1.0" encoding="UTF-8"?>
<svg id="Layer_2" data-name="Layer 2" xmlns="http://www.w3.org/2000/svg" xmlns:xlink="http://www.w3.org/1999/xlink" viewBox="0 0 388.27 75.74">
  <defs>
    <style>
      .cls-1 {
        fill: url(#radial-gradient);
      }

      .cls-1, .cls-2 {
        stroke-width: 0px;
      }

      .cls-2 {
        fill: #17c3ff;
      }
    </style>
    <radialGradient id="radial-gradient" cx="38.99" cy="37.87" fx="38.99" fy="37.87" r="38.43" gradientUnits="userSpaceOnUse">
      <stop offset="0" stop-color="#fff"/>
      <stop offset=".7" stop-color="#1fc5ff"/>
      <stop offset="1" stop-color="#17c3ff"/>
    </radialGradient>
  </defs>
  <g id="Layer_1-2" data-name="Layer 1">
    <g>
      <path class="cls-2" d="M105.53,10.42c0-2.74,2.16-4.97,4.9-4.97s5.04,2.23,5.04,4.97-2.23,4.97-5.04,4.97-4.9-2.23-4.9-4.97ZM106.17,26.98c0-.79.65-1.37,1.37-1.37h5.98c.72,0,1.37.58,1.37,1.37v26.07c0,.72-.65,1.37-1.37,1.37h-5.98c-.72,0-1.37-.65-1.37-1.37v-26.07Z"/>
      <path class="cls-2" d="M132.96,36.2c2.88,0,5.26.79,5.26.79.07-3.67-1.08-4.97-3.75-4.97s-6.41.58-8.06,1.08c-1.01.29-1.51-.36-1.66-1.3l-.65-3.74c-.22-1.08.36-1.58,1.01-1.8.58-.22,5.18-1.37,9.79-1.37,9,0,11.09,4.68,11.09,12.53v15.62c0,.72-.65,1.37-1.37,1.37h-2.59c-.5,0-.86-.22-1.22-1.01l-.87-1.94c-1.66,1.51-4.32,3.67-8.78,3.67-5.76,0-9.72-3.74-9.72-9.86,0-5.11,4.18-9.07,11.52-9.07ZM133.1,49.02c2.3,0,4.54-1.94,4.97-2.81v-3.96s-1.95-.86-4.03-.86c-2.81,0-4.68,1.58-4.68,3.89,0,2.16,1.51,3.74,3.74,3.74Z"/>
      <path class="cls-2" d="M154.27,26.98c0-.79.65-1.37,1.37-1.37h2.66c.65,0,1.08.36,1.22.79l1.01,2.74c1.22-1.37,4.54-4.25,9.65-4.25,4.1,0,6.98,1.58,9.36,4.46,1.22-1.3,4.97-4.46,10.15-4.46,9.22,0,12.6,6.84,12.6,14.4v13.75c0,.72-.58,1.37-1.37,1.37h-5.83c-.79,0-1.37-.65-1.37-1.37v-14.26c0-3.75-1.8-6.12-5.4-6.12-4.18,0-6.05,3.02-6.05,3.02,0,0,.07,1.44.07,2.74v14.62c0,.72-.65,1.37-1.37,1.37h-5.4c-.79,0-1.37-.65-1.37-1.37v-14.26c0-3.75-1.66-6.12-5.33-6.12s-5.33,2.59-6.05,4.54v15.84c0,.72-.65,1.37-1.37,1.37h-5.83c-.72,0-1.37-.65-1.37-1.37v-26.07Z"/>
      <path class="cls-2" d="M223.46,24.9c4.46,0,7.92,1.8,10.66,5.11.5.65.36,1.51-.36,2.02l-3.31,3.17c-.65.58-1.3.22-1.8-.22-1.15-1.3-2.95-2.3-4.97-2.3-3.89,0-7.06,3.31-7.06,7.34s3.1,7.34,6.98,7.34c3.1,0,4.46-1.51,5.76-2.74.5-.5,1.22-.65,1.8-.22l3.1,2.66c.72.58,1.01,1.3.5,2.02-2.45,3.82-6.27,6.05-11.38,6.05-8.14,0-15.27-6.48-15.27-15.12s7.27-15.12,15.34-15.12Z"/>
      <path class="cls-2" d="M241.03,26.98c0-.79.65-1.37,1.37-1.37h2.74c.65,0,1.08.36,1.3.94l1.01,2.81c1.01-1.44,3.67-4.46,8.14-4.46,3.38,0,6.41,1.08,5.54,2.88l-2.66,4.68c-.36.65-1.08.94-1.66.65-.22-.07-1.3-.43-2.09-.43-2.88,0-4.61,1.94-5.11,2.95v17.43c0,1.01-.65,1.37-1.66,1.37h-5.54c-.72,0-1.37-.65-1.37-1.37v-26.07Z"/>
      <path class="cls-2" d="M263.06,27.68c-.43-.94.14-1.87,1.22-1.87h6.48c.65,0,1.01.36,1.22.79l7.27,16.27h.07l7.2-16.27c.36-.72.86-.79,1.73-.79h5.76c1.15,0,1.73.94,1.22,1.87l-22.03,47.2c-.22.43-.65.86-1.22.86h-6.19c-1.08,0-1.73-.94-1.22-1.94l10.22-21.21-11.74-24.91Z"/>
      <path class="cls-2" d="M308.99,74.37c0,.86-.43,1.37-1.73,1.37h-5.76c-.72,0-1.37-.65-1.37-1.37V26.98c0-.79.65-1.37,1.37-1.37h2.81c.5,0,1.01.29,1.22.86l.94,2.38c1.08-1.44,4.61-3.96,9.29-3.96,7.92,0,13.9,6.84,13.9,15.12s-6.48,15.12-14.26,15.12c-2.81,0-5.4-1.01-6.41-1.58v20.82ZM314.25,47.36c4.03,0,6.98-3.31,6.98-7.34s-2.74-7.34-6.7-7.34c-3.67,0-5.47,2.88-5.9,4.39v8.64s2.02,1.66,5.62,1.66Z"/>
      <path class="cls-2" d="M337.65,33.18h-2.45c-.72,0-1.3-.65-1.3-1.37v-4.82c0-.79.58-1.37,1.3-1.37h2.45v-7.99c0-.72.65-1.37,1.37-1.37l5.91-.07c.72,0,1.3.65,1.3,1.37v8.06h6.34c.79,0,1.37.58,1.37,1.37v4.82c0,.72-.58,1.37-1.37,1.37h-6.34v11.52c0,2.02,1.08,2.3,2.23,2.3,1.22,0,2.74-.5,3.53-.79s1.37.07,1.58.79l1.44,4.54c.29.72-.07,1.44-.79,1.73-.36.22-5.04,1.87-8.57,1.87-5.54,0-7.99-3.46-7.99-9.29v-12.67Z"/>
      <path class="cls-2" d="M373.51,24.9c8.14,0,14.76,6.91,14.76,15.05s-6.62,15.19-14.76,15.19-14.76-6.91-14.76-15.19,6.62-15.05,14.76-15.05ZM373.51,47.36c3.82,0,6.91-3.31,6.91-7.42s-3.1-7.27-6.91-7.27-6.91,3.24-6.91,7.27,3.02,7.42,6.91,7.42Z"/>
    </g>
    <path class="cls-1" d="M66.83,17.35l-7.71-2.55c-.9-.3-1.68-.86-2.24-1.62l-4.81-6.55c-6.49-8.83-19.68-8.83-26.17,0l-4.81,6.55c-.56.76-1.34,1.33-2.24,1.62l-7.71,2.55C.74,20.79-3.34,33.34,3.06,42.23l4.74,6.6c.55.77.85,1.68.85,2.63l.04,8.12c.05,10.96,10.73,18.72,21.17,15.38l7.74-2.47c.9-.29,1.86-.29,2.76,0l7.74,2.47c10.44,3.33,21.11-4.42,21.17-15.38l.04-8.12c0-.94.3-1.86.85-2.63l4.74-6.6c6.4-8.9,2.32-21.45-8.09-24.89ZM51.24,44.55l-4.22,3.3c-.1.08-.19.17-.27.27l-3.3,4.22c-2.27,2.9-6.67,2.9-8.94,0l-3.3-4.22c-.08-.1-.17-.19-.27-.27l-4.22-3.3c-2.9-2.27-2.9-6.67,0-8.94l4.22-3.3c.1-.08.19-.17.27-.27l3.3-4.22c2.27-2.9,6.67-2.9,8.94,0l3.3,4.22c.08.1.17.19.27.27l4.22,3.3c2.9,2.27,2.9,6.67,0,8.94Z"/>
  </g>
</svg>