<svg xmlns="http://www.w3.org/2000/svg" width="800" height="552" viewBox="0 0 800 552" version="1.1"><path d="M 427 102.489 C 419.162 104.252, 405.993 110.703, 400.500 115.470 L 396.500 118.941 400.181 122.635 L 403.862 126.328 407.474 123.157 C 412.398 118.834, 421.694 114.285, 429.240 112.506 C 445.124 108.760, 462.371 112.639, 474.841 122.760 L 479.183 126.284 482.841 122.595 L 486.500 118.907 483 116.005 C 477.209 111.205, 467.893 106.072, 461 103.883 C 452.418 101.158, 435.923 100.482, 427 102.489 M 429.286 125.396 C 424.179 127.058, 417.129 131.095, 414.761 133.712 C 413.095 135.552, 413.162 135.765, 416.376 138.880 L 419.728 142.129 424.579 139.052 C 435.679 132.013, 448.530 132.259, 459.307 139.717 L 463.115 142.352 466.689 138.778 L 470.263 135.203 465.882 131.990 C 458.114 126.293, 453.408 124.723, 443 124.357 C 436.802 124.139, 432.035 124.500, 429.286 125.396 M 462.203 162.253 C 449.117 187.986, 447.920 193.543, 453.348 203.348 C 461.136 217.414, 485.645 214.971, 491.537 199.542 C 494.153 192.691, 493.274 182.359, 489.674 177.639 C 485.972 172.785, 482.209 171, 475.682 171 L 470.264 171 477.625 157.250 C 481.673 149.688, 484.989 143.162, 484.993 142.750 C 484.997 142.338, 482.188 142.001, 478.750 142.003 L 472.500 142.005 462.203 162.253 M 518 142.889 C 510.189 144.570, 502.166 151.167, 499.791 157.861 C 498.936 160.272, 498.500 167.068, 498.500 178 C 498.500 193.198, 498.682 194.868, 500.800 199.170 C 505.700 209.117, 517.603 214.470, 529.382 212.025 C 536.301 210.588, 542.079 206.428, 545.675 200.292 C 548.188 196.006, 548.523 194.365, 548.853 184.750 L 549.221 174 536.111 174 L 523 174 523 179 L 523 184 530 184 L 537 184 537 188.618 C 537 192.648, 536.506 193.729, 533.118 197.118 C 529.669 200.566, 528.691 201, 524.368 200.996 C 518.261 200.992, 513.386 198.169, 511.440 193.510 C 509.446 188.738, 509.446 166.262, 511.440 161.490 C 515.436 151.925, 530.632 151.587, 535.477 160.956 C 536.931 163.768, 537.456 164, 542.359 164 C 545.278 164, 547.927 163.739, 548.246 163.421 C 549.299 162.368, 545.995 154.450, 542.973 150.784 C 537.742 144.437, 526.833 140.988, 518 142.889 M 376.144 144.086 C 370.928 145.681, 365.421 149.766, 362.464 154.234 C 358.983 159.494, 357.594 169.814, 358.422 184.278 C 359.168 197.305, 360.797 201.771, 366.699 206.967 C 372.454 212.032, 376.481 213.295, 385.431 212.843 C 394.644 212.378, 400.987 208.806, 405.474 201.557 C 408.300 196.990, 408.522 195.916, 408.837 185.303 L 409.174 173.939 396.337 174.219 L 383.500 174.500 383.198 179.750 L 382.895 185 390.448 185 C 396.976 185, 397.999 185.237, 397.994 186.750 C 397.982 190.690, 395.840 195.779, 393.082 198.421 C 387.246 204.013, 375.930 202.489, 372.239 195.615 C 370.130 191.688, 369.249 170.502, 370.934 164.244 C 372.722 157.606, 378.313 154.277, 386.715 154.849 C 389.332 155.027, 396 160.596, 396 162.604 C 396 163.657, 397.613 164, 402.567 164 C 408.917 164, 409.112 163.925, 408.441 161.750 C 406.230 154.584, 401.657 148.926, 395.529 145.776 C 390.945 143.419, 381.127 142.563, 376.144 144.086 M 315 163 L 315 182 319.955 182 C 323.906 182, 325.415 181.494, 327.409 179.500 C 330.110 176.799, 336.375 176.060, 340.022 178.012 C 343.542 179.896, 345.190 191.287, 342.895 197.872 C 341.542 201.751, 339.381 203, 334.020 203 C 329.662 203, 325 199.664, 325 196.545 C 325 195.339, 323.794 195, 319.500 195 C 313.180 195, 312.807 195.777, 315.880 202.541 C 322.572 217.275, 344.911 217.861, 352.411 203.500 C 354.149 200.172, 354.500 197.708, 354.500 188.835 C 354.500 178.593, 354.381 178.003, 351.500 173.939 C 347.165 167.824, 342.895 165.783, 335.500 166.293 C 332.200 166.521, 328.712 167.046, 327.750 167.460 C 326.184 168.135, 326 167.520, 326 161.607 L 326 155 339.500 155 L 353 155 353 149.500 L 353 144 334 144 L 315 144 315 163 M 467.110 181.396 C 461.932 184.266, 460.223 193.472, 463.982 198.251 C 467.902 203.233, 477.677 202.460, 480.530 196.941 C 485.743 186.861, 476.521 176.179, 467.110 181.396 M 177 347 L 177 355 192 355 L 207 355 207 403 L 207 451 215.500 451 L 224 451 224 403 L 224 355 239 355 L 254 355 254 347 L 254 339 215.500 339 L 177 339 177 347 M 415 395 L 415 451 423 451 L 431 451 431 447.449 L 431 443.898 434.319 446.429 C 445.326 454.826, 460.966 453.453, 470.129 443.288 C 475.949 436.832, 476.500 434.038, 476.500 411 C 476.500 386.664, 475.753 383.661, 467.961 376.655 C 458.146 367.830, 444.548 367.741, 434.250 376.434 L 431 379.178 431 359.089 L 431 339 423 339 L 415 339 415 395 M 604 358.432 L 604 377.865 598.988 374.492 C 592.954 370.431, 586.584 369.259, 579.090 370.828 C 569.056 372.930, 562.160 380.093, 559.958 390.703 C 558.148 399.419, 559.116 431.441, 561.342 436.500 C 567.944 451.506, 587.460 456.641, 601.066 446.953 L 604 444.864 604 447.932 L 604 451 612.500 451 L 621 451 621 395 L 621 339 612.500 339 L 604 339 604 358.432 M 380 359 L 380 371 376.500 371 L 373 371 373 377.500 L 373 384 376.427 384 L 379.855 384 380.177 410.750 C 380.544 441.116, 380.947 442.951, 388.333 447.839 C 391.639 450.027, 393.744 450.563, 400.177 450.856 L 408 451.212 408 443.106 L 408 435 403.700 435 C 401.335 435, 398.860 434.460, 398.200 433.800 C 397.333 432.933, 397 425.867, 397 408.300 L 397 384 402.500 384 L 408 384 408 377.500 L 408 371 402.500 371 L 397 371 397 359 L 397 347 388.500 347 L 380 347 380 359 M 261.500 371.338 C 255.108 373.456, 251.519 375.645, 248.155 379.477 C 236.931 392.260, 234.672 416.923, 243.098 434.673 C 246.315 441.449, 249.646 444.735, 257.393 448.773 C 261.912 451.129, 263.652 451.440, 272.500 451.468 C 281.379 451.496, 283.117 451.197, 288 448.799 C 291.025 447.313, 295.169 444.388, 297.209 442.299 L 300.917 438.500 295.345 433.587 C 289.793 428.693, 289.763 428.681, 287.136 430.397 C 285.686 431.344, 282.522 433.043, 280.103 434.171 C 268.778 439.457, 255 431.971, 255 420.532 L 255 418 278.600 418 L 302.201 418 301.816 405.250 C 301.471 393.837, 301.155 391.976, 298.802 387.500 C 293.327 377.086, 283.779 370.976, 272.016 370.356 C 268.318 370.162, 263.770 370.586, 261.500 371.338 M 328.500 370.976 C 320.238 373.100, 313.798 378.036, 310.865 384.491 C 307.192 392.577, 308.960 404.186, 314.803 410.342 C 319.608 415.404, 324.327 417.071, 337.829 418.477 C 348.724 419.611, 350.649 420.084, 352.205 422.004 C 354.554 424.906, 354.478 428.122, 351.984 431.293 C 346.111 438.760, 327.177 437.038, 317.723 428.177 L 314.947 425.575 309.261 431.261 L 303.575 436.947 306.397 439.892 C 309.961 443.612, 319.683 448.830, 326.368 450.610 C 339.154 454.014, 354.728 451.047, 362.747 443.679 C 368.334 438.546, 370.002 434.772, 369.994 427.282 C 369.986 418.552, 368.360 414.048, 363.540 409.405 C 358.654 404.698, 354.816 403.491, 341.500 402.472 C 327.690 401.414, 323.361 398.441, 325.902 391.759 C 328.496 384.936, 341.810 384.020, 352.626 389.920 L 358.500 393.124 363.239 387.812 C 365.845 384.890, 367.983 382.022, 367.989 381.438 C 368.016 378.819, 357.014 372.779, 349.201 371.123 C 343.291 369.871, 333.082 369.798, 328.500 370.976 M 506.205 371.834 C 498.334 374.642, 494.023 378.632, 489.730 387.081 C 486.686 393.071, 485.803 396.137, 485.144 403 C 482.899 426.391, 489.320 442.033, 503.994 448.917 C 508.704 451.127, 510.873 451.500, 519 451.500 C 527.183 451.500, 529.262 451.137, 534 448.880 C 537.025 447.439, 541.300 444.628, 543.500 442.634 L 547.500 439.008 541.531 433.599 L 535.562 428.191 532.531 430.747 C 520.746 440.686, 503.601 435.640, 501.316 421.559 L 500.744 418.037 524.622 417.768 L 548.500 417.500 548.805 410.500 C 549.180 401.901, 547.549 391.996, 544.904 386.811 C 538.096 373.468, 520.600 366.696, 506.205 371.834 M 263 387.752 C 259.274 389.613, 255 396.537, 255 400.712 C 255 402.998, 255.013 403, 270.579 403 L 286.159 403 285.480 399.750 C 283.127 388.480, 272.692 382.910, 263 387.752 M 508.886 387.999 C 505.200 389.946, 502.507 394.217, 501.366 399.920 L 500.750 403 516.375 403 C 531.989 403, 532 402.998, 532 400.712 C 532 396.663, 527.727 389.767, 524.016 387.824 C 519.564 385.494, 513.493 385.564, 508.886 387.999 M 438.873 388.684 C 434.979 391.100, 433.146 394.922, 431.998 403.012 C 430.772 411.657, 432.105 424.677, 434.659 429.001 C 437.264 433.410, 441.743 435.375, 447.852 434.788 C 453.417 434.254, 456.151 432.440, 458.839 427.502 C 460.112 425.165, 460.476 421.618, 460.487 411.478 C 460.502 396.163, 458.973 391.164, 453.471 388.553 C 449.242 386.546, 442.215 386.609, 438.873 388.684 M 583.388 387.980 C 577.985 390.163, 575 398.354, 575 411 C 575 420.657, 576.700 427.633, 579.937 431.255 C 582.201 433.789, 583.599 434.385, 588.168 434.764 C 600.348 435.774, 603.956 430.343, 603.956 411 C 603.956 396.571, 602.340 391.261, 597.128 388.566 C 593.881 386.887, 586.837 386.586, 583.388 387.980" stroke="none" fill="#049cac" fill-rule="evenodd"/><path d="M 435.500 147.997 C 432.528 148.921, 432.335 149.449, 415.069 203.715 C 405.482 233.847, 394.967 266.825, 391.702 277 L 385.767 295.500 377.023 270 L 368.279 244.500 358.639 244.214 C 352.948 244.045, 349 244.321, 349 244.888 C 349 245.747, 371.719 311.207, 375.677 321.750 L 377.272 326 385.440 326 L 393.607 326 421.783 237.313 C 437.280 188.535, 449.791 148.458, 449.585 148.252 C 448.675 147.341, 438.216 147.152, 435.500 147.997 M 130.364 170.640 C 130.714 173.191, 130.999 186.129, 130.998 199.390 L 130.995 223.500 138.365 223.176 L 145.734 222.851 145.817 194.426 L 145.901 166 137.814 166 L 129.728 166 130.364 170.640 M 154 194.500 L 154 223 172 223 L 190 223 190.002 217.250 L 190.004 211.500 179.502 211.814 L 169 212.129 169 205.564 L 169 199 177.875 199 L 186.750 199 187.375 195.875 C 188.969 187.907, 189.074 188, 178.500 188 L 169 188 169 182.500 L 169 177 179 177 L 189 177 189 173.082 C 189 170.927, 189.273 168.452, 189.607 167.582 C 190.147 166.175, 188.207 166, 172.107 166 L 154 166 154 194.500 M 195 194.500 L 195 223 213 223 L 231 223 231 219.082 C 231 216.927, 231.273 214.452, 231.607 213.582 C 232.138 212.198, 230.824 212, 221.107 212 L 210 212 210 205.500 L 210 199 218.893 199 C 228.793 199, 229 198.855, 229 191.918 L 229 188 219.500 188 L 210 188 210 182.500 L 210 177 220 177 L 230 177 230.014 173.750 C 230.021 171.963, 230.299 169.488, 230.630 168.250 L 231.233 166 213.117 166 L 195 166 195 194.500 M 236.484 194.500 L 236.468 223 254.234 223 L 272 223 272.179 219.500 C 272.618 210.885, 273.769 211.720, 261.750 211.927 L 251 212.111 251 205.593 L 251 199.075 260.250 198.788 L 269.500 198.500 269.802 193.250 L 270.105 188 260.552 188 L 251 188 251 182.500 L 251 177 261 177 C 269.853 177, 271.001 176.799, 271.011 175.250 C 271.017 174.287, 271.301 171.813, 271.642 169.750 L 272.262 166 254.381 166 L 236.500 166 236.484 194.500 M 100 273 L 100 326 109 326 L 118 326 118 273 L 118 220 109 220 L 100 220 100 273 M 494.667 220.667 C 494.300 221.033, 494 225.983, 494 231.667 L 494 242 490 242 L 486 242 486 249 L 486 256 489.930 256 L 493.861 256 494.180 284.250 C 494.529 315.041, 494.601 315.453, 500.661 321.186 C 504.666 324.976, 508.049 326, 516.565 326 L 524 326 524 318 L 524 310 519.934 310 C 511.645 310, 512 311.253, 512 281.965 L 512 256 518.046 256 L 524.091 256 523.796 249.250 L 523.500 242.500 517.750 242.200 L 512 241.900 512 230.950 L 512 220 503.667 220 C 499.083 220, 495.033 220.300, 494.667 220.667 M 532 229 L 532 238 540.500 238 L 549 238 549 229 L 549 220 540.500 220 L 532 220 532 229 M 159.942 241.897 C 155.876 243.212, 152.710 245.048, 149.750 247.809 L 147 250.374 147 246.187 L 147 242 138.500 242 L 130 242 130 284 L 130 326 138.500 326 L 147 326 147.022 298.750 C 147.042 274.043, 147.223 271.105, 148.964 267.271 C 154 256.176, 170.723 256.023, 176.248 267.020 C 177.787 270.083, 177.997 273.826, 177.998 298.250 L 178 326 187.074 326 L 196.149 326 195.821 294.250 C 195.500 263.277, 195.434 262.370, 193.104 257.206 C 190.583 251.617, 185.234 246.312, 179.145 243.362 C 175.148 241.426, 164.024 240.577, 159.942 241.897 M 236.367 242.367 C 234.094 243.111, 230.606 244.961, 228.617 246.479 L 225 249.237 225 245.619 L 225 242 216 242 L 207 242 207 284 L 207 326 216 326 L 225 326 225.004 297.750 C 225.007 271.325, 225.136 269.289, 226.995 266.241 C 229.876 261.514, 234.557 259.007, 240.500 259.007 C 247.029 259.007, 251.533 261.757, 254.036 267.271 C 255.777 271.105, 255.958 274.043, 255.978 298.750 L 256 326 264.551 326 L 273.101 326 272.801 293.250 C 272.525 263.223, 272.339 260.175, 270.563 256.597 C 268.061 251.553, 263.041 246.572, 257.723 243.857 C 252.493 241.186, 242.172 240.466, 236.367 242.367 M 303.332 242.792 C 294.311 246.013, 288.276 251.804, 283.780 261.555 C 281.690 266.088, 281.500 267.917, 281.500 283.500 C 281.500 303.738, 282.619 308.135, 289.798 316.120 C 296.612 323.699, 304.125 326.998, 314.572 326.999 C 326.076 327, 331.142 325.013, 338.589 317.579 C 347.382 308.800, 348.500 305.013, 348.500 284 C 348.500 264.440, 347.319 259.795, 340.382 252.080 C 333.975 244.954, 326.843 241.716, 316.608 241.287 C 310.578 241.034, 307.176 241.420, 303.332 242.792 M 436.718 242.092 C 434.637 242.581, 431.606 243.670, 429.981 244.510 C 426.045 246.545, 419.994 251.920, 420.025 253.354 C 420.039 253.984, 422.919 256.662, 426.426 259.304 L 432.802 264.107 435.289 261.620 C 438.338 258.571, 442.833 257.652, 452.124 258.177 C 458.640 258.545, 459.475 258.848, 462.117 261.805 C 464.537 264.513, 465 265.895, 465 270.409 L 465 275.786 449.750 276.182 C 437.022 276.513, 433.756 276.920, 430 278.642 C 420.803 282.860, 415.748 290.945, 415.753 301.427 C 415.757 308.603, 417.866 314.212, 422.301 318.838 C 427.826 324.602, 432.352 326.331, 443.145 326.803 C 453.809 327.269, 458.356 326.253, 462.403 322.502 L 465 320.095 465 323.048 L 465 326 473.550 326 L 482.100 326 481.800 292.720 L 481.500 259.440 478.951 254.470 C 474.429 245.653, 463.229 240.879, 447.583 241.100 C 443.687 241.156, 438.798 241.602, 436.718 242.092 M 581.332 242.792 C 572.311 246.013, 566.276 251.804, 561.780 261.555 C 559.690 266.088, 559.500 267.917, 559.500 283.500 C 559.500 303.738, 560.619 308.135, 567.798 316.120 C 574.612 323.699, 582.125 326.998, 592.572 326.999 C 602.894 327, 608.642 325.027, 615.020 319.292 C 621.618 313.360, 624.608 308.032, 626.062 299.616 C 627.678 290.267, 626.770 268.052, 624.515 261.756 C 622.199 255.289, 615.127 247.698, 608.311 244.364 C 600.900 240.738, 589.024 240.046, 581.332 242.792 M 664.994 241.874 C 661.080 243.158, 656.712 245.630, 654.250 247.954 L 652 250.078 652 246.039 L 652 242 643 242 L 634 242 634 284 L 634 326 643 326 L 652 326 652 298.234 C 652 273.132, 652.178 270.135, 653.852 266.984 C 659.599 256.169, 675.807 256.190, 681.248 267.020 C 682.787 270.083, 682.997 273.826, 682.998 298.250 L 683 326 692.075 326 L 701.151 326 700.745 294.750 C 700.476 274.095, 699.929 262.237, 699.129 259.775 C 695.823 249.591, 685.458 241.954, 674.175 241.387 C 670.504 241.203, 666.372 241.422, 664.994 241.874 M 532 284 L 532 326 540.500 326 L 549 326 549 284 L 549 242 540.500 242 L 532 242 532 284 M 307 260.788 C 305.035 261.861, 302.405 264.629, 301.003 267.099 C 298.724 271.116, 298.505 272.548, 298.503 283.500 C 298.501 290.883, 299.007 296.930, 299.817 299.217 C 302.442 306.629, 311.554 311.349, 318.955 309.132 C 324.271 307.539, 328.585 303.730, 330.183 299.217 C 330.993 296.932, 331.500 290.876, 331.500 283.500 C 331.500 270.260, 330.059 265.626, 324.695 261.621 C 320.820 258.728, 311.572 258.293, 307 260.788 M 585 260.788 C 583.035 261.861, 580.405 264.629, 579.003 267.099 C 576.724 271.116, 576.505 272.548, 576.503 283.500 C 576.500 297.125, 577.670 301.703, 582.112 305.441 C 588.545 310.854, 596.868 311.038, 603.385 305.912 C 608.510 301.880, 609.420 298.674, 609.462 284.500 C 609.504 270.169, 608.189 265.723, 602.695 261.621 C 598.820 258.728, 589.572 258.293, 585 260.788 M 439.333 291.695 C 435.509 292.440, 432 296.561, 432 300.306 C 432 308.654, 442.410 312.821, 455.987 309.909 C 462.369 308.541, 464.058 306.150, 464.752 297.500 L 465.274 291 453.387 291.136 C 446.849 291.211, 440.525 291.463, 439.333 291.695 M 627 339.952 C 627 340.529, 627.675 341, 628.500 341 C 629.583 341, 630 342.111, 630 345 C 630 347.889, 630.417 349, 631.500 349 C 632.583 349, 633 347.889, 633 345 C 633 342.800, 633.450 341, 634 341 C 634.550 341, 635 342.800, 635 345 C 635 347.889, 635.417 349, 636.500 349 C 637.325 349, 638.007 348.438, 638.015 347.750 C 638.026 346.881, 638.255 346.837, 638.765 347.605 C 639.169 348.212, 640.962 348.744, 642.750 348.788 C 645.988 348.866, 646 348.848, 646 343.933 C 646 339.761, 645.708 339, 644.108 339 C 642.894 339, 641.948 339.984, 641.465 341.750 L 640.713 344.500 640.065 342 C 639.473 339.716, 638.880 339.474, 633.209 339.202 C 629.358 339.018, 627 339.303, 627 339.952" stroke="none" fill="#04649c" fill-rule="evenodd"/></svg>