<?xml version="1.0" encoding="UTF-8"?><svg id="Layer_2" xmlns="http://www.w3.org/2000/svg" viewBox="0 0 3505.43 971.96"><defs><style>.cls-1{fill:#f8951d;}</style></defs><g id="Layer_1-2"><g><path class="cls-1" d="M2713,0V971.96h792.43V0h-792.43Zm458.2,383.65h64.24V180.37h-64.24v-53.91h202.16v53.91h-64.24v203.28h64.24v54.13h-202.16v-54.13Zm-163.43-257.19h77.27l-88.05,139.72,96.59,171.61h-85.36l-85.58-166.22,85.13-145.11Zm-161.06,0h73.68V437.79h-73.68V126.46Zm244.39,459.27h-83.34v254.95h-73.68v-254.95h-87.38v-56.38h252.03l-7.64,56.38Zm283.04,254.69h-203.73v-311.33h203.51l-7.41,52.56h-122.42v74.8h107.82v51.66h-107.82v79.52h130.06v52.79Z"/><g><path class="cls-1" d="M1660.34,295.99c-14.15-16.37-30.78-27.62-49.87-33.76-19.1-6.14-39.73-9.21-61.9-9.21h-35.8v465.99h35.8c23.19,0,44.42-3.66,63.69-10.99,19.26-7.33,35.89-19.77,49.87-37.34,13.98-17.57,24.72-41.69,32.23-72.39,7.5-30.69,11.25-69.39,11.25-116.11s-4.01-86.62-12.02-116.63c-8.01-30-19.1-53.2-33.25-69.57Z"/><path class="cls-1" d="M0,0V971.53H2579.28V0H0ZM591.64,254.04h-146.3v462.93h146.3v123.28H131.28v-123.28h146.29V254.04H131.28v-122.76h460.36v122.76Zm638.26,586.2h-211.96l-194.4-570.35c2.49,15.35,5.24,33.85,8.26,55.5,3.01,21.66,5.95,45.7,8.78,72.12,2.84,26.43,5.15,54.48,6.93,84.15,1.77,29.66,2.66,60.02,2.66,91.05v267.52h-148.59V131.28h217.82l188.54,567.28c-3.92-21.48-7.91-47.14-11.99-76.99-4.08-29.84-7.54-63.17-10.38-100-2.85-36.83-4.27-76.39-4.27-118.68V131.28h148.59V840.25Zm621.24-180.06c-18.93,46.73-44.59,83.12-76.99,109.21-32.4,26.08-69.14,44.42-110.23,54.99-41.09,10.57-83.63,15.86-127.62,15.86h-191.31V131.28h179.04c45.34,0,89.26,4.69,131.71,14.06,42.46,9.39,80.48,26.6,114.07,51.67,33.59,25.06,60.28,60.53,80.06,106.4,19.76,45.87,29.67,105.46,29.67,178.77s-9.46,131.29-28.39,178.01Zm412.27-85.94v265.99h-167.77v-264.96l-202.98-444h175.58l114.35,293.27,115.39-293.27h168.4l-202.97,442.97Z"/></g></g></g></svg>