<svg xmlns="http://www.w3.org/2000/svg" width="2446" height="2542" viewBox="0 0 2446 2542" version="1.1"><path d="M 883.302 378.746 C 888.693 378.926, 897.243 378.925, 902.302 378.744 C 907.361 378.563, 902.950 378.416, 892.500 378.417 C 882.050 378.418, 877.911 378.566, 883.302 378.746 M 1314.250 810.747 C 1321.263 810.919, 1332.737 810.919, 1339.750 810.747 C 1346.763 810.575, 1341.025 810.435, 1327 810.435 C 1312.975 810.435, 1307.237 810.575, 1314.250 810.747 M 484.439 923 C 484.439 938.125, 484.578 944.313, 484.748 936.750 C 484.917 929.188, 484.917 916.813, 484.748 909.250 C 484.578 901.688, 484.439 907.875, 484.439 923 M 1931.419 950 C 1931.419 960.725, 1931.566 965.112, 1931.746 959.750 C 1931.925 954.388, 1931.925 945.612, 1931.746 940.250 C 1931.566 934.888, 1931.419 939.275, 1931.419 950 M 801.500 1516 C 808.634 1523.150, 814.696 1529, 814.971 1529 C 815.246 1529, 809.634 1523.150, 802.500 1516 C 795.366 1508.850, 789.304 1503, 789.029 1503 C 788.754 1503, 794.366 1508.850, 801.500 1516 M 1215.206 1674.741 C 1218.895 1674.932, 1225.195 1674.934, 1229.206 1674.743 C 1233.218 1674.553, 1230.200 1674.396, 1222.500 1674.395 C 1214.800 1674.393, 1211.518 1674.549, 1215.206 1674.741 M 346.300 1840.802 C 335.919 1844.509, 327.847 1852.343, 324.532 1861.928 C 322.265 1868.481, 322.552 1879.726, 325.163 1886.705 C 328.152 1894.695, 336.388 1902.877, 344.507 1905.923 C 352.736 1909.009, 365.200 1908.619, 372.474 1905.047 C 379.134 1901.777, 385.574 1895.142, 388.830 1888.196 C 391.107 1883.339, 391.499 1881.175, 391.491 1873.500 C 391.484 1865.715, 391.111 1863.740, 388.727 1858.874 C 385.437 1852.156, 377.827 1844.734, 371.259 1841.838 C 364.496 1838.856, 353.078 1838.382, 346.300 1840.802 M 840.500 1875.524 C 836.650 1876.826, 826.188 1880.206, 817.250 1883.036 L 801 1888.181 801 1918.090 L 801 1948 771.500 1948 L 742 1948 742 1968 L 742 1988 771.500 1988 L 801 1988 801 2067.428 C 801 2118.801, 801.381 2149.618, 802.080 2154.678 C 806.285 2185.139, 823.847 2204.761, 853.540 2212.175 C 861.080 2214.058, 865.274 2214.416, 880 2214.437 C 897.824 2214.462, 899.399 2214.241, 919.250 2208.927 L 923 2207.923 923 2186.947 L 923 2165.971 917.170 2168.914 C 907.793 2173.648, 899.954 2175.255, 888.500 2174.793 C 875.747 2174.279, 869.603 2171.579, 861.657 2162.996 C 855.963 2156.846, 852.726 2150.100, 850.933 2140.647 C 850.408 2137.881, 850 2103.392, 850 2061.864 L 850 1988 884.500 1988 L 919 1988 919 1968 L 919 1948 884.500 1948 L 850 1948 850 1910.500 C 850 1881.125, 849.729 1873.017, 848.750 1873.079 C 848.063 1873.122, 844.350 1874.223, 840.500 1875.524 M 583.835 1943.543 C 557.232 1947.688, 533.132 1962.264, 520.226 1982.016 L 516 1988.483 516 1968.242 L 516 1948 492 1948 L 468 1948 468 2078.500 L 468 2209 492.424 2209 L 516.849 2209 517.284 2137.750 C 517.694 2070.730, 517.844 2065.847, 519.807 2055.500 C 523.365 2036.747, 527.698 2024.950, 535.387 2013.075 C 549.014 1992.032, 571.842 1980.727, 597.500 1982.313 C 612.476 1983.239, 623.084 1987.935, 631.840 1997.516 C 640.992 2007.529, 646.707 2023.576, 648.902 2045.424 C 649.594 2052.310, 650 2084.561, 650 2132.674 L 650 2209 674.549 2209 L 699.098 2209 698.741 2118.750 L 698.384 2028.500 695.808 2017 C 688.494 1984.349, 674.426 1964.305, 650.500 1952.442 C 631.990 1943.265, 607.020 1939.932, 583.835 1943.543 M 1069 1942.624 C 1032.815 1947.234, 1005.900 1962.242, 986.225 1988.777 C 967.086 2014.590, 958.769 2047.592, 961.125 2088.373 C 964.338 2143.986, 987.241 2182.778, 1028.195 2201.970 C 1037.734 2206.440, 1049.972 2210.179, 1063.264 2212.684 C 1070.414 2214.031, 1077.922 2214.426, 1096.500 2214.432 C 1127.689 2214.441, 1139.449 2212.418, 1167.139 2202.280 L 1177.500 2198.486 1177.767 2173.765 L 1178.035 2149.044 1173.565 2152.061 C 1167.071 2156.444, 1149.915 2164.367, 1139.336 2167.870 C 1123.008 2173.276, 1115.138 2174.503, 1097 2174.470 C 1081.020 2174.440, 1080.201 2174.336, 1071 2171.178 C 1065.775 2169.384, 1057.916 2165.798, 1053.535 2163.208 C 1044.078 2157.618, 1032.044 2146.093, 1026.169 2137 C 1018.898 2125.748, 1013.823 2110.135, 1012.760 2095.750 L 1012.335 2090 1105.322 2090 L 1198.308 2090 1197.635 2075.909 C 1193.942 1998.542, 1166.146 1956.066, 1111.957 1944.984 C 1101.774 1942.901, 1077.353 1941.559, 1069 1942.624 M 1362.500 1943.427 C 1340.709 1948.558, 1321.485 1962.825, 1310.686 1981.879 L 1307.500 1987.500 1307.229 1967.750 L 1306.958 1948 1283.979 1948 L 1261 1948 1261 2078.500 L 1261 2209 1285.440 2209 L 1309.879 2209 1310.286 2137.750 C 1310.735 2058.885, 1310.653 2060.017, 1317.545 2038.429 C 1319.489 2032.341, 1323.200 2023.572, 1325.790 2018.943 C 1331.142 2009.380, 1341.795 1997.884, 1349.380 1993.486 C 1365.253 1984.285, 1384.250 1982.603, 1404.770 1988.582 L 1407.040 1989.244 1406.770 1967.379 L 1406.500 1945.514 1400 1944.281 C 1389.320 1942.255, 1369.403 1941.801, 1362.500 1943.427 M 1510.608 1943.066 C 1463.112 1949.654, 1436 1978.246, 1436 2021.748 C 1436 2040.256, 1440.796 2051.805, 1453.985 2065.054 C 1464.259 2075.374, 1473.389 2081.184, 1501.154 2095.069 C 1531.949 2110.470, 1540.622 2116.793, 1545.638 2127.500 C 1548.713 2134.064, 1548.834 2143.695, 1545.939 2151.433 C 1542.098 2161.700, 1530.911 2170.158, 1516.760 2173.494 C 1498.632 2177.769, 1470.986 2172.947, 1448.850 2161.651 L 1440.201 2157.237 1439.638 2162.369 C 1439.329 2165.191, 1438.813 2173.350, 1438.492 2180.500 C 1438.171 2187.650, 1437.678 2195.109, 1437.396 2197.075 C 1436.883 2200.649, 1436.885 2200.651, 1443.692 2203.753 C 1459.247 2210.841, 1475.464 2213.961, 1500.500 2214.684 C 1514.169 2215.078, 1520.786 2214.826, 1528 2213.635 C 1558.541 2208.594, 1580.652 2193.703, 1592.050 2170.500 C 1597.537 2159.332, 1599.121 2152.490, 1599.693 2137.500 C 1600.601 2113.682, 1595.828 2100.723, 1580.539 2085.500 C 1569.766 2074.774, 1562.613 2070.376, 1534.956 2057.479 C 1511.360 2046.476, 1504.462 2042.418, 1497.473 2035.429 C 1485.039 2022.996, 1484.717 2003.479, 1496.772 1992.896 C 1504.250 1986.329, 1518.047 1982.050, 1531.843 1982.017 C 1543.686 1981.989, 1569.044 1987.951, 1579.347 1993.185 C 1581.463 1994.260, 1583.375 1994.959, 1583.596 1994.737 C 1584.171 1994.163, 1588.212 1952.879, 1587.740 1952.406 C 1586.939 1951.606, 1564.196 1946.015, 1555.500 1944.481 C 1544.499 1942.540, 1519.972 1941.767, 1510.608 1943.066 M 1745.099 1943.045 C 1699.546 1948.775, 1663.791 1977.938, 1648.623 2021.735 C 1635.056 2060.907, 1637.938 2114.434, 1655.541 2150.211 C 1672.290 2184.255, 1701.393 2205.142, 1742.500 2212.620 C 1754.951 2214.885, 1792.771 2215.227, 1806 2213.194 C 1817.836 2211.375, 1834.584 2206.873, 1847 2202.174 L 1857.500 2198.201 1857.768 2174.100 C 1857.935 2159.053, 1857.672 2150, 1857.068 2150 C 1856.536 2150, 1854.066 2151.373, 1851.579 2153.051 C 1845.059 2157.452, 1831.891 2163.425, 1819.902 2167.420 C 1777.513 2181.547, 1743.596 2176.140, 1717.685 2151.126 C 1703.007 2136.956, 1694.305 2118.486, 1692.400 2097.455 L 1691.724 2090 1784.509 2090 L 1877.293 2090 1876.699 2073.250 C 1874.066 1999.011, 1844.688 1955.398, 1789.971 1944.496 C 1780.644 1942.637, 1754.945 1941.806, 1745.099 1943.045 M 2038 1942.666 C 1976.063 1948.779, 1932.861 1988.999, 1921.349 2051.264 C 1918.726 2065.454, 1919.001 2093.273, 1921.901 2107 C 1931.227 2151.139, 1957.246 2185.187, 1995.266 2203.003 C 2014.719 2212.119, 2033.225 2215.448, 2060 2214.646 C 2079.143 2214.074, 2090.402 2212.359, 2103.381 2208.040 C 2113.789 2204.576, 2113.177 2206.604, 2111.039 2182.673 C 2110.016 2171.218, 2109.001 2161.668, 2108.784 2161.451 C 2108.567 2161.234, 2104.815 2162.825, 2100.445 2164.987 C 2087.214 2171.532, 2076.586 2174.158, 2061 2174.733 C 2039.970 2175.509, 2025.712 2171.988, 2010.622 2162.294 C 1962.966 2131.676, 1957.438 2045.179, 2000.475 2003.500 C 2016.813 1987.678, 2035.032 1981.146, 2059.500 1982.339 C 2072.715 1982.984, 2084.347 1985.301, 2097.639 1989.936 C 2102.434 1991.608, 2106.448 1992.869, 2106.560 1992.738 C 2106.671 1992.607, 2107.498 1984.850, 2108.396 1975.500 C 2109.294 1966.150, 2110.256 1957.103, 2110.533 1955.395 C 2111.031 1952.321, 2110.964 1952.267, 2103.930 1950.047 C 2084.448 1943.899, 2056.833 1940.807, 2038 1942.666 M 333 2078.500 L 333 2209 357.500 2209 L 382 2209 382 2078.500 L 382 1948 357.500 1948 L 333 1948 333 2078.500 M 1066.072 1983.553 C 1052.165 1986.569, 1038.462 1995.297, 1030.345 2006.310 C 1021.952 2017.697, 1014.846 2034.952, 1013.367 2047.538 L 1012.725 2053 1079.480 2053 L 1146.235 2053 1145.511 2045.250 C 1142.520 2013.254, 1123.387 1989.149, 1096.500 1983.504 C 1087.840 1981.686, 1074.583 1981.707, 1066.072 1983.553 M 1747.490 1982.953 C 1745.284 1983.426, 1740.815 1984.750, 1737.558 1985.895 C 1714.431 1994.024, 1697.845 2017.361, 1692.534 2049.250 L 1691.909 2053 1758.455 2053 L 1825 2053 1825 2047.565 C 1825 2026.185, 1812.458 2002.295, 1795.567 1991.504 C 1785.935 1985.350, 1776.934 1982.803, 1763.500 1982.427 C 1756.900 1982.243, 1749.695 1982.480, 1747.490 1982.953" stroke="none" fill="#2c2b2b" fill-rule="evenodd"/><path d="M 1287.416 217.137 C 1331.114 259.137, 1360.839 294.141, 1392.339 340.691 C 1469.306 454.434, 1518.929 594.635, 1533.796 740.356 L 1535.516 757.212 1565.008 766.990 C 1642.861 792.802, 1708.524 823.482, 1770.513 863.008 C 1826.575 898.755, 1880.047 944.347, 1918.922 989.546 C 1924.104 995.571, 1928.646 1000.627, 1929.015 1000.781 C 1930.060 1001.219, 1931 976.267, 1931 948.075 C 1931 785.918, 1877.233 625.807, 1778.776 494.773 C 1661.118 338.183, 1486.928 234.404, 1295 206.548 C 1285.375 205.151, 1276.656 204.006, 1275.624 204.004 C 1274.390 204.001, 1278.428 208.498, 1287.416 217.137 M 854.500 380.132 C 794.601 385.266, 732.930 402.933, 677.088 430.956 L 667.177 435.929 654.384 451.215 C 579.828 540.294, 527.346 647.439, 502.129 762.052 C 495.357 792.831, 491.216 819.323, 487.289 857 C 484.742 881.434, 484.758 964.215, 487.314 988.976 C 488.306 998.587, 489.220 1006.553, 489.344 1006.677 C 489.468 1006.801, 492.926 1003.015, 497.029 998.264 C 524.161 966.845, 564.161 930.161, 603 901.077 C 736.649 800.997, 915.957 735.947, 1107.500 718.052 C 1150.734 714.013, 1163.516 713.499, 1219.500 713.552 C 1275.524 713.606, 1293.037 714.375, 1334.310 718.597 C 1343.005 719.486, 1350.366 719.967, 1350.667 719.666 C 1351.617 718.716, 1338.174 688.366, 1326.896 666 C 1278.438 569.896, 1208.815 493.340, 1123.500 442.349 C 1064.328 406.984, 998.421 385.921, 928.500 380.031 C 914.380 378.842, 868.827 378.904, 854.500 380.132 M 1284 811.601 C 1281.525 811.801, 1272.300 812.442, 1263.500 813.025 C 1154.905 820.222, 1045.302 849.794, 954.500 896.397 C 848.313 950.896, 769.065 1026.015, 725.063 1113.878 C 680.269 1203.323, 677.333 1300.519, 716.648 1392.500 C 728.828 1420.996, 748.846 1453.839, 770.588 1481 C 783.384 1496.985, 817.770 1531.810, 834 1545.222 C 872.961 1577.419, 927.928 1611.959, 960.194 1624.519 L 969.888 1628.293 986.526 1622.596 C 1047.756 1601.628, 1105.420 1568.134, 1161 1521.255 C 1176.267 1508.378, 1213.907 1470.715, 1227.570 1454.644 C 1262.655 1413.378, 1294.529 1365.358, 1319.052 1316.821 C 1385.204 1185.892, 1411.443 1034.341, 1393.472 887 C 1390.504 862.668, 1382.021 816.269, 1379.918 812.867 C 1379.243 811.776, 1370.545 811.495, 1333.793 811.380 C 1308.882 811.302, 1286.475 811.402, 1284 811.601 M 1539 858.370 C 1539 892.251, 1536.506 928.972, 1531.417 970 C 1512.325 1123.935, 1457.259 1271.817, 1372.231 1397.500 C 1299.652 1504.783, 1203.502 1594.786, 1099.745 1652.565 L 1084.990 1660.781 1096.245 1662.870 C 1158.029 1674.337, 1228.293 1677.039, 1293.500 1670.457 C 1413.835 1658.311, 1531.300 1614.072, 1630 1543.727 C 1767.783 1445.526, 1865.708 1301.118, 1908.459 1133.089 C 1911.035 1122.963, 1913.175 1113.513, 1913.214 1112.089 C 1913.348 1107.171, 1900.413 1083.549, 1884.417 1059.500 C 1866.645 1032.782, 1850.820 1013.842, 1826.285 989.927 C 1766.338 931.496, 1685.291 883.863, 1593.500 853.115 C 1577.933 847.900, 1550.348 839.635, 1541.750 837.610 L 1539 836.962 1539 858.370" stroke="none" fill="#f37323" fill-rule="evenodd"/></svg>