<?xml version="1.0" encoding="UTF-8"?>
<svg version="1.1" xmlns="http://www.w3.org/2000/svg" width="1181" height="267">
<path d="M0 0 C1.10555649 -0.00352842 2.21111298 -0.00705684 3.35017118 -0.01069218 C4.57214066 -0.0094944 5.79411013 -0.00829663 7.05310899 -0.00706255 C8.35084474 -0.00971438 9.64858049 -0.01236621 10.98564157 -0.01509839 C14.61132256 -0.02235178 18.23698288 -0.02332766 21.86267014 -0.02332116 C25.79830316 -0.02438842 29.7339269 -0.03117633 33.66955483 -0.03722787 C41.4859816 -0.04831582 49.30240388 -0.05395516 57.11883713 -0.05793675 C66.4769711 -0.06294088 75.83509634 -0.07366757 85.19322516 -0.08441848 C107.81417122 -0.11006326 130.43512069 -0.12508638 153.05607713 -0.13792895 C160.54654341 -0.1421821 168.03700944 -0.14674779 175.52747542 -0.15151227 C215.3344364 -0.17676967 255.14139779 -0.19882304 294.94836503 -0.21124041 C304.17358891 -0.21416186 313.39881277 -0.21712935 322.62403661 -0.22014582 C323.77018107 -0.22051673 324.91632552 -0.22088764 326.09720163 -0.22126979 C363.27064707 -0.23342942 400.4440452 -0.26437981 437.61746842 -0.30606735 C475.81746327 -0.34882815 514.01743314 -0.37547797 552.21745258 -0.38071512 C557.60969767 -0.38145561 563.00194271 -0.3823663 568.39418775 -0.3833729 C569.98610877 -0.38365882 569.98610877 -0.38365882 571.61018982 -0.38395052 C588.70903306 -0.38746792 605.80781717 -0.40778333 622.90663868 -0.43416954 C640.08480949 -0.46027906 657.26291179 -0.46805647 674.44109961 -0.45706825 C684.65306729 -0.45107977 694.86480301 -0.45906425 705.07673571 -0.48689909 C711.89384366 -0.5041093 718.71079286 -0.5032375 725.52790408 -0.4875314 C729.41504303 -0.4790941 733.30173832 -0.47862661 737.18883672 -0.50014286 C741.37357262 -0.52312102 745.55727479 -0.5075415 749.74202806 -0.48808062 C750.9522917 -0.50092984 752.16255535 -0.51377906 753.40949365 -0.52701765 C760.41966075 -0.45496009 765.36444292 0.38230997 770.71217138 5.12995183 C775.82891704 11.30357084 775.29425797 17.75112446 775.24342138 25.50885808 C775.24724828 26.79429006 775.25107518 28.07972204 775.25501806 29.4041065 C775.26089049 32.11492086 775.25242309 34.8252053 775.23365575 37.53595769 C775.21084321 40.9983713 775.22401602 44.459546 775.24794561 47.92191446 C775.26592893 51.24265995 775.25331515 54.56307748 775.24342138 57.88385808 C775.2515183 59.12148397 775.25961522 60.35910985 775.26795751 61.63423955 C775.15180832 72.30322006 775.15180832 72.30322006 770.71217138 77.12995183 C766.45080458 80.88401306 764.16517117 82.25441417 758.53341585 82.258753 C757.42672737 82.2620252 756.32003889 82.26529739 755.1798144 82.26866874 C753.95143752 82.26718512 752.72306064 82.26570149 751.45746022 82.26417291 C749.50662345 82.26770126 749.50662345 82.26770126 747.51637584 82.27130088 C743.87813065 82.27772794 740.23990745 82.27786036 736.60165766 82.27702347 C732.65417467 82.27719244 728.70669969 82.28309258 724.75922066 82.28826433 C716.91718117 82.29760995 709.07514732 82.30151567 701.23310296 82.3037833 C691.84521733 82.30674026 682.45733925 82.31543463 673.06945756 82.32419758 C650.37608809 82.34506312 627.68271729 82.35551482 604.98934046 82.36432719 C594.2596205 82.36853042 583.5299011 82.37375282 572.80018161 82.37901172 C536.09084967 82.39690312 499.38151756 82.41190066 462.6721819 82.41933191 C460.36664549 82.41980667 458.06110908 82.42028256 455.75557266 82.42075957 C454.04051867 82.42111413 454.04051867 82.42111413 452.29081713 82.42147586 C446.49767479 82.42267709 440.70453246 82.42389253 434.91139013 82.42511785 C433.18687231 82.42547808 433.18687231 82.42547808 431.42751574 82.42584558 C394.13641203 82.43374181 356.8453401 82.45717971 319.55425027 82.48967379 C280.15307809 82.52394402 240.7519245 82.54368042 201.35073715 82.54697615 C197.02839245 82.54739371 192.70604775 82.54787327 188.38370305 82.54839933 C186.78721056 82.54858412 186.78721056 82.54858412 185.15846569 82.54877264 C168.00432265 82.55110811 150.85021642 82.56678733 133.69608652 82.58724118 C116.46518412 82.60746119 99.23432608 82.61299464 82.00341401 82.60347054 C71.75773697 82.59824073 61.51220726 82.60420263 51.26655132 82.62600521 C44.4294872 82.6394589 37.59252511 82.63848467 30.75546011 82.62560326 C26.85531364 82.61867023 22.95544993 82.61816014 19.0553281 82.63516334 C14.86008294 82.65330487 10.66550142 82.6407203 6.47024709 82.62493646 C5.25123488 82.63515867 4.03222266 82.64538088 2.77627069 82.65591285 C-3.56435787 82.60341755 -7.47762861 82.41259546 -12.28782862 78.12995183 C-13.03032862 77.51120183 -13.77282862 76.89245183 -14.53782862 76.25495183 C-19.3314042 70.43418149 -18.60964149 63.15312067 -18.62376612 56.01276433 C-18.63375132 54.25607931 -18.63375132 54.25607931 -18.64393824 52.46390569 C-18.65404539 49.99111279 -18.65875586 47.51829272 -18.65843409 45.04547918 C-18.66280538 41.27499974 -18.69914282 37.50569299 -18.73704737 33.73542058 C-18.74291636 31.32787249 -18.74688521 28.92031885 -18.74876612 26.51276433 C-18.76313716 25.39169286 -18.77750819 24.27062139 -18.79231471 23.11557806 C-18.75046773 15.89892628 -17.94794634 9.96317356 -12.80501002 4.57700384 C-8.61067756 0.90077431 -5.43838134 0.0054761 0 0 Z " fill="#9A9A9C" transform="translate(406.2878286242485,184.87004816532135)"/>
<path d="M0 0 C1.19520755 0.74130176 2.38647534 1.48898436 3.57421875 2.2421875 C4.21794434 2.64405273 4.86166992 3.04591797 5.52490234 3.45996094 C9.07840525 5.69105128 12.59555547 7.97232038 16.09375 10.2890625 C20.67068564 13.31955934 25.30286822 16.25706771 29.94921875 19.1796875 C31.13584106 19.92738403 31.13584106 19.92738403 32.34643555 20.69018555 C33.95308624 21.70246835 35.55993894 22.71443062 37.16699219 23.72607422 C41.13858816 26.22745465 45.10623524 28.73508209 49.07421875 31.2421875 C53.78824278 34.22005093 58.50262116 37.19734588 63.21875 40.171875 C72.61819693 46.10172743 82.00170335 52.0560325 91.37548828 58.02636719 C97.33048736 61.8179083 103.29231133 65.5983746 109.26171875 69.3671875 C110.02444092 69.84937744 110.78716309 70.33156738 111.57299805 70.82836914 C115.63065414 73.39184546 119.69549146 75.94310158 123.76953125 78.48046875 C124.62587158 79.01591309 125.48221191 79.55135742 126.36450195 80.10302734 C127.9935518 81.12136089 129.62475584 82.13626011 131.25854492 83.14697266 C142.99201148 90.4955657 142.99201148 90.4955657 144.57421875 95.2421875 C144.93842968 100.88745699 144.82465887 103.48259838 141.57421875 108.2421875 C139.48266602 110.01782227 139.48266602 110.01782227 137.078125 111.62109375 C136.18754395 112.21809082 135.29696289 112.81508789 134.37939453 113.43017578 C129.78676664 116.39679755 125.16478345 119.30881309 120.51171875 122.1796875 C111.88763542 127.53412305 103.30437576 132.9462519 94.76171875 138.4296875 C86.72790161 143.58510132 78.68034032 148.71650564 70.60424805 153.80541992 C64.58333814 157.60063926 58.57688429 161.41818613 52.57421875 165.2421875 C45.39346177 169.8153823 38.2079444 174.38086521 31.01171875 178.9296875 C29.84286133 179.66928711 29.84286133 179.66928711 28.65039062 180.42382812 C26.62780685 181.70115517 24.60163565 182.97255212 22.57421875 184.2421875 C21.61644531 184.84675781 20.65867188 185.45132813 19.671875 186.07421875 C17.57421875 187.2421875 17.57421875 187.2421875 15.57421875 187.2421875 C15.56875031 185.76213478 15.56875031 185.76213478 15.56317139 184.25218201 C15.52617862 174.9388474 15.46835921 165.62584214 15.39031601 156.31275845 C15.35086084 151.52514238 15.31866275 146.7377097 15.30322266 141.94995117 C15.28804315 137.32668735 15.25357468 132.70392776 15.20590973 128.08088875 C15.19110926 126.31996107 15.1831785 124.5589614 15.1823349 122.79797173 C15.17995941 120.32497716 15.15283481 117.85336953 15.12011719 115.38061523 C15.12514755 114.65772308 15.13017792 113.93483093 15.13536072 113.19003296 C15.00994701 107.03550141 12.96733804 103.00795796 8.96875 98.38671875 C-2.16462922 89.01268834 -14.41582402 88.16630252 -28.42578125 89.2421875 C-36.7934302 90.81505384 -44.61971391 94.18396413 -49.84257507 101.12509155 C-54.60069108 109.42412977 -54.15769859 118.01881718 -54.1328125 127.28125 C-54.14594746 129.01575442 -54.16125716 130.75024359 -54.17863464 132.48471069 C-54.21828761 137.01878011 -54.22866229 141.5524476 -54.23266602 146.08666992 C-54.24203485 150.72587118 -54.27947163 155.36483993 -54.31445312 160.00390625 C-54.37882797 169.08332265 -54.41223272 178.1625628 -54.42578125 187.2421875 C-57.85342144 185.90696948 -60.8585141 184.47121199 -63.953125 182.4765625 C-65.24802856 181.64680908 -65.24802856 181.64680908 -66.5690918 180.80029297 C-67.95221558 179.90528076 -67.95221558 179.90528076 -69.36328125 178.9921875 C-71.34759092 177.7186482 -73.33196781 176.44521364 -75.31640625 175.171875 C-76.33025391 174.51928711 -77.34410156 173.86669922 -78.38867188 173.19433594 C-83.12028883 170.15301687 -87.86670746 167.13508906 -92.61328125 164.1171875 C-93.527146 163.53549805 -94.44101074 162.95380859 -95.38256836 162.35449219 C-101.99308149 158.14796251 -108.61554794 153.96066359 -115.24291992 149.78076172 C-122.2487692 145.35978638 -129.23685006 140.91112778 -136.22338867 136.4597168 C-141.43030156 133.14364627 -146.64381885 129.83853004 -151.86743164 126.54882812 C-154.95443478 124.60335812 -158.03670459 122.6504493 -161.11914062 120.69775391 C-163.5129991 119.18715016 -165.91464092 117.68939973 -168.31640625 116.19140625 C-169.8739862 115.20879015 -171.43128889 114.22573439 -172.98828125 113.2421875 C-173.70927002 112.79721924 -174.43025879 112.35225098 -175.1730957 111.89379883 C-176.16635864 111.26187622 -176.16635864 111.26187622 -177.1796875 110.6171875 C-177.76049072 110.25367187 -178.34129395 109.89015625 -178.93969727 109.515625 C-181.52243537 107.30245563 -182.32846671 104.92953543 -182.796875 101.62109375 C-182.81878906 100.69167969 -182.84070313 99.76226562 -182.86328125 98.8046875 C-182.90324219 97.87785156 -182.94320312 96.95101562 -182.984375 95.99609375 C-182.07635756 91.5195043 -179.22753073 89.50726602 -175.58813477 86.9519043 C-173.41195648 85.52768196 -171.20734924 84.16109051 -168.98828125 82.8046875 C-167.28089599 81.74405925 -165.57387951 80.68283717 -163.8671875 79.62109375 C-162.97660645 79.06953613 -162.08602539 78.51797852 -161.16845703 77.94970703 C-156.56451847 75.08341308 -151.9968357 72.16052461 -147.42578125 69.2421875 C-138.21599839 63.37476825 -128.98878565 57.53545381 -119.75244141 51.70996094 C-115.8091788 49.22235393 -111.86757357 46.73212336 -107.92578125 44.2421875 C-106.34245565 43.24217526 -104.75912232 42.24217525 -103.17578125 41.2421875 C-102.39203125 40.7471875 -101.60828125 40.2521875 -100.80078125 39.7421875 C-92.09244792 34.2421875 -83.38411458 28.7421875 -74.67578125 23.2421875 C-73.89114502 22.74662354 -73.10650879 22.25105957 -72.2980957 21.74047852 C-70.72372968 20.74615061 -69.14934831 19.751847 -67.57495117 18.75756836 C-63.47928816 16.17099017 -59.38393783 13.58391879 -55.2890625 10.99609375 C-54.020625 10.19461914 -54.020625 10.19461914 -52.7265625 9.37695312 C-51.12359776 8.36409079 -49.52072592 7.35108139 -47.91796875 6.33789062 C-46.45909088 5.41615672 -44.9990041 4.49633287 -43.53759766 3.57861328 C-42.12109481 2.68220443 -40.71191307 1.77412853 -39.31005859 0.85498047 C-26.8272771 -7.23708101 -12.8583226 -7.30153325 0 0 Z M-49.42578125 28.2421875 C-54.6606675 34.66293574 -56.86439321 39.9612832 -56.765625 48.2578125 C-56.03101933 54.70883239 -52.97540381 60.1543272 -48.23828125 64.5546875 C-37.44606408 72.83654111 -25.81278206 75.38393597 -12.42578125 74.2421875 C-1.76130151 72.13325668 7.51561127 67.71957027 14.35546875 59.09375 C17.81734003 53.83436863 19.33438779 48.54073096 18.57421875 42.2421875 C16.30090714 33.53497509 11.74999151 27.47088384 4.11328125 22.70703125 C-13.04008467 13.655332 -34.80635467 14.70470404 -49.42578125 28.2421875 Z " fill="#C4081C" transform="translate(182.42578125,4.7578125)"/>
<path d="M0 0 C10.84875 -0.0825 21.6975 -0.165 32.875 -0.25 C36.28183105 -0.28641602 39.68866211 -0.32283203 43.19873047 -0.36035156 C45.92154308 -0.3720422 48.64436272 -0.38223313 51.3671875 -0.390625 C52.40892624 -0.40630524 52.40892624 -0.40630524 53.47171021 -0.42230225 C66.57309557 -0.6093923 75.24387723 1.50602803 84.86328125 10.6875 C91.85205444 18.25121797 92.45827576 25.99186829 92.27734375 35.875 C91.90575758 43.93527704 89.07006314 50.76923081 83.51953125 56.62890625 C80.94618383 58.95087269 78.55605052 61 75 61 C77.23612592 64.40357664 79.47826049 67.80310476 81.72607422 71.19897461 C82.49011355 72.35509957 83.25249331 73.51232304 84.01318359 74.6706543 C85.10599268 76.33408925 86.20524986 77.99328245 87.3046875 79.65234375 C87.96452637 80.65257568 88.62436523 81.65280762 89.30419922 82.68334961 C90.79214589 85.08672841 90.79214589 85.08672841 93 86 C93.24532471 84.77128174 93.49064941 83.54256348 93.7434082 82.27661133 C95.09197137 76.22631484 97.09337559 70.43087017 99.10546875 64.57421875 C99.50776199 63.39140823 99.91005524 62.20859772 100.32453918 60.98994446 C101.39192569 57.85487448 102.46346298 54.72128693 103.5369873 51.58831787 C104.60470894 48.46840278 105.66618768 45.34636433 106.72851562 42.22460938 C109.14013003 35.14552419 111.56603045 28.07142749 114 21 C114.36144104 19.94878967 114.72288208 18.89757935 115.09527588 17.81451416 C116.07675088 14.96489105 117.06266798 12.1168583 118.05078125 9.26953125 C118.48235786 8.01676643 118.48235786 8.01676643 118.9226532 6.73869324 C120.88390828 1.11609172 120.88390828 1.11609172 122 0 C123.44289787 -0.09295815 124.89029785 -0.11746513 126.33618164 -0.11352539 C127.2570607 -0.11344986 128.17793976 -0.11337433 129.12672424 -0.11329651 C130.12775681 -0.10813522 131.12878937 -0.10297394 132.16015625 -0.09765625 C133.68956093 -0.09553383 133.68956093 -0.09553383 135.24986267 -0.09336853 C138.52077107 -0.08775097 141.79161213 -0.0751955 145.0625 -0.0625 C147.27408756 -0.05748726 149.48567618 -0.05292396 151.69726562 -0.04882812 C157.13153357 -0.03777584 162.56576197 -0.02102063 168 0 C174.65569664 16.2576354 180.7815839 32.70275505 186.86151123 49.18151855 C188.38637096 53.31274376 189.91472767 57.44267634 191.44283676 61.5727005 C192.66295454 64.87052618 193.88222594 68.16865755 195.09918213 71.46765137 C197.06007857 76.77908188 199.02427332 82.08829425 201.04589844 87.37695312 C201.33443695 88.1335321 201.62297546 88.89011108 201.92025757 89.6696167 C202.63810501 91.54418238 203.36239216 93.41627887 204.08740234 95.28808594 C205 98 205 98 205 101 C190.15 101 175.3 101 160 101 C159.01 97.04 158.02 93.08 157 89 C149.08 89 141.16 89 133 89 C132.01 92.96 131.02 96.92 130 101 C120.36006882 101.30187973 110.7217747 101.5325117 101.07814026 101.67355824 C96.59938083 101.74127553 92.12386475 101.83300831 87.64697266 101.98071289 C83.32188416 102.12250768 78.99990237 102.19979294 74.67266846 102.23340416 C73.0264593 102.25733523 71.38041143 102.3040797 69.73553467 102.37449074 C64.54705679 102.58765306 59.98384782 102.56898757 55 101 C51.13119215 97.07364128 49.20432363 93.06136566 47 88 C45.84980547 85.8867842 44.68434741 83.7817659 43.5 81.6875 C42.675 80.140625 41.85 78.59375 41 77 C40.67 84.92 40.34 92.84 40 101 C26.8 101 13.6 101 0 101 C0 67.67 0 34.34 0 0 Z M40 28 C38.93276039 31.46222615 38.89826514 34.64039266 38.9375 38.25 C38.94652344 39.32765625 38.95554687 40.4053125 38.96484375 41.515625 C38.97644531 42.33546875 38.98804688 43.1553125 39 44 C42.97365037 45.20153575 45.15214289 44.637386 49 43 C51 42 51 42 52 40 C52.39289183 36.9059768 52.62437655 34.95538235 52 32 C50.06873898 29.32161427 50.06873898 29.32161427 47 28 C43.29059225 27.66534111 43.29059225 27.66534111 40 28 Z M144 36 C143.15984843 39.74850603 142.32906781 43.49902832 141.5 47.25 C141.26152344 48.31347656 141.02304687 49.37695312 140.77734375 50.47265625 C140.55175781 51.49746094 140.32617188 52.52226563 140.09375 53.578125 C139.88427734 54.52075195 139.67480469 55.46337891 139.45898438 56.43457031 C138.8825901 59.22188558 138.8825901 59.22188558 139 63 C142.96 63 146.92 63 151 63 C150.36921693 57.26442607 149.38717295 51.73885562 148.0625 46.125 C147.89298828 45.36703125 147.72347656 44.6090625 147.54882812 43.828125 C146.60023305 39.49083601 146.60023305 39.49083601 144 36 Z " fill="#C4081C" transform="translate(635,51)"/>
<path d="M0 0 C14.85 0 29.7 0 45 0 C51.89814815 21.8441358 51.89814815 21.8441358 54.375 30.1875 C54.84315584 31.75955302 55.31142544 33.33157216 55.77978516 34.90356445 C56.18652344 36.26904297 56.59326172 37.63452148 57 39 C57.32798584 37.854104 57.65597168 36.70820801 57.99389648 35.52758789 C59.20755667 31.29063386 60.42550438 27.05492255 61.64477539 22.81958008 C62.1726464 20.98365544 62.69934206 19.14739244 63.22485352 17.31079102 C63.9788695 14.67635441 64.73705519 12.04314948 65.49609375 9.41015625 C65.73154404 8.58411392 65.96699432 7.75807159 66.20957947 6.90699768 C67.88612829 1.11387171 67.88612829 1.11387171 69 0 C70.38160115 -0.0927833 71.76788038 -0.11747043 73.15258789 -0.11352539 C74.03342545 -0.11344986 74.914263 -0.11337433 75.8217926 -0.11329651 C76.77907761 -0.10813522 77.73636261 -0.10297394 78.72265625 -0.09765625 C80.18547279 -0.09553383 80.18547279 -0.09553383 81.67784119 -0.09336853 C84.80609143 -0.08775133 87.93427123 -0.07519593 91.0625 -0.0625 C93.17773334 -0.05748722 95.29296781 -0.05292393 97.40820312 -0.04882812 C102.60549296 -0.03777631 107.80274145 -0.02102146 113 0 C114.58940898 5.19243002 115.65931071 10.31104617 116.51220703 15.66992188 C116.71747009 16.92743004 116.71747009 16.92743004 116.92687988 18.21034241 C117.37485445 20.96246281 117.81659709 23.71553851 118.2578125 26.46875 C118.56862477 28.39257181 118.87965314 30.31635872 119.19088745 32.2401123 C119.84087822 36.26427763 120.48767497 40.28894051 121.13232422 44.31396484 C121.95733269 49.46294162 122.79116257 54.61044478 123.62750435 59.75759125 C124.27136985 63.72729773 124.91009366 67.69781868 125.54732895 71.66859436 C125.85264087 73.56660543 126.15964181 75.46434563 126.4683876 77.36180115 C126.89974191 80.01707618 127.32403683 82.673389 127.74658203 85.33007812 C127.93823441 86.49610313 127.93823441 86.49610313 128.13375854 87.6856842 C128.24866638 88.41722214 128.36357422 89.14876007 128.48196411 89.90246582 C128.58260729 90.52848946 128.68325047 91.15451309 128.78694344 91.79950714 C129.08257788 94.85288168 129 97.93234686 129 101 C115.8 101 102.6 101 89 101 C87.02 87.14 85.04 73.28 83 59 C80.61476711 64.4688368 80.61476711 64.4688368 78.6496582 70.00756836 C78.42965652 70.70776596 78.20965485 71.40796356 77.98298645 72.12937927 C77.75785873 72.85883255 77.53273102 73.58828583 77.30078125 74.33984375 C77.0608696 75.10680069 76.82095795 75.87375763 76.57377625 76.66395569 C75.81655861 79.08740759 75.0644494 81.51240895 74.3125 83.9375 C73.7965623 85.59190243 73.28028947 87.24620038 72.76367188 88.90039062 C71.50461045 92.93221655 70.25248566 96.96610306 69 101 C61.08 101 53.16 101 45 101 C42.61210757 95.03026894 40.37768525 89.35855866 38.45703125 83.27734375 C38.24310226 82.60578751 38.02917328 81.93423126 37.8087616 81.24232483 C37.13984456 79.14180675 36.47564648 77.03984636 35.8125 74.9375 C35.13839137 72.80310325 34.46317048 70.66909484 33.78410339 68.53627014 C33.1757227 66.62531757 32.57175038 64.71296318 31.96801758 62.80053711 C31.27220546 60.12643703 31.27220546 60.12643703 30 59 C29.85377197 60.16571533 29.70754395 61.33143066 29.55688477 62.5324707 C29.01389372 66.85463875 28.46690429 71.17629293 27.91870117 75.49780273 C27.6819309 77.36875847 27.44624728 79.23985205 27.21166992 81.11108398 C26.8744361 83.79968599 26.53330604 86.48776912 26.19140625 89.17578125 C26.03509483 90.43217155 26.03509483 90.43217155 25.87562561 91.71394348 C25.46278626 94.9355867 25.02986449 97.91040652 24 101 C10.99013539 102.05740554 -1.95386159 102.10549151 -15 102 C-14.37049765 90.93824722 -12.56620905 80.07048473 -10.83984375 69.140625 C-10.52701789 67.14001169 -10.21456989 65.13933926 -9.90248108 63.13861084 C-9.08590157 57.91029436 -8.26424005 52.68278927 -7.44146729 47.45544434 C-6.45219735 41.16327062 -5.46933126 34.87009372 -4.48537445 28.5770874 C-2.99511713 19.05062 -1.49680152 9.52545172 0 0 Z " fill="#C4081C" transform="translate(1052,51)"/>
<path d="M0 0 C12.54 0 25.08 0 38 0 C46.57999449 9.97511554 46.57999449 9.97511554 47.9453125 14.4375 C49.90128936 20.0504724 52.70151742 24.5658904 56.0625 29.4375 C56.95316888 30.78776726 57.84016269 32.14046923 58.72265625 33.49609375 C59.09140869 34.05482178 59.46016113 34.6135498 59.84008789 35.18920898 C61.27498106 37.42928531 62.63131941 39.71886568 64 42 C64.33 28.14 64.66 14.28 65 0 C77.54 0 90.08 0 103 0 C103 33.33 103 66.66 103 101 C90.79 101 78.58 101 66 101 C61.53260211 94.61800301 57.18485457 88.27992938 53.0625 81.6875 C52.3519043 80.55924805 52.3519043 80.55924805 51.62695312 79.40820312 C47.36994533 72.63440244 43.19334042 65.81417818 39 59 C38.67 72.86 38.34 86.72 38 101 C25.46 101 12.92 101 0 101 C0 67.67 0 34.34 0 0 Z " fill="#C4081C" transform="translate(437,51)"/>
<path d="M0 0 C0.92353271 0.00563965 1.84706543 0.0112793 2.79858398 0.01708984 C18.97260164 0.30405968 32.87821401 6.16039181 44.6875 17.3125 C55.14005312 28.18756406 59.25573265 40.43322071 58.96484375 55.32421875 C58.02735876 68.80551695 51.78301243 80.0971393 42.09765625 89.28125 C31.4153371 98.284177 18.47794656 103.0230037 4.6875 104.3125 C3.56988281 104.42078125 3.56988281 104.42078125 2.4296875 104.53125 C-15.62047509 105.35483156 -32.09788959 98.09703613 -45.3125 86.3125 C-54.05863818 77.13424037 -58.71691228 65.07333328 -58.625 52.5 C-58.62008545 51.70537354 -58.6151709 50.91074707 -58.61010742 50.09204102 C-58.49046137 44.08826337 -57.79002852 38.83929439 -55.3125 33.3125 C-54.98378906 32.57128906 -54.65507813 31.83007812 -54.31640625 31.06640625 C-47.58258519 17.62206456 -36.10026403 8.95880415 -22.46484375 3.35546875 C-14.94941075 0.86895002 -7.90674852 -0.05072609 0 0 Z M-15.3125 41.3125 C-18.80507104 46.37070633 -19.14406516 51.35924939 -18.3125 57.3125 C-16.45591455 63.03697179 -12.4524857 66.42647555 -7.3125 69.3125 C-1.88464968 71.12178344 3.56151484 71.12301295 8.875 68.875 C13.63859056 66.15431201 16.52648137 62.30789813 18.6875 57.3125 C19.98916098 51.70128576 19.14534582 47.38472956 16.25 42.4375 C12.85430328 37.91257394 9.12124469 35.73992855 3.6875 34.3125 C-3.78135574 33.41108638 -9.96389653 36.11246885 -15.3125 41.3125 Z " fill="#C4081C" transform="translate(978.3125,49.6875)"/>
<path d="M0 0 C9.55407087 -0.27444369 17.93995439 1.77875243 26.86328125 5.125 C26.86328125 17.665 26.86328125 30.205 26.86328125 43.125 C22.90328125 41.145 18.94328125 39.165 14.86328125 37.125 C8.50686325 35.006194 0.48713297 34.95616735 -5.69921875 37.6875 C-10.26219494 40.43106163 -12.25176564 44.05839167 -13.69921875 49.07421875 C-14.67862448 54.26710957 -13.81664948 58.57399036 -11.13671875 63.125 C-6.08728634 68.40395207 -0.93656304 70.13802824 6.23828125 70.4375 C14.81159722 70.20421249 19.86348452 67.12485481 26.86328125 62.125 C26.86328125 74.665 26.86328125 87.205 26.86328125 100.125 C10.7996593 106.14885823 -6.7841252 106.9500819 -23.13671875 101.125 C-36.31544047 95.12777064 -47.84877622 86.64925304 -53.57421875 72.875 C-57.66555347 61.94031168 -58.40868334 45.34634421 -54.23046875 34.33984375 C-46.50262802 18.69096627 -35.54003419 8.8178921 -19.11328125 3.06640625 C-12.78854015 1.21504646 -6.55738765 0.38361317 0 0 Z " fill="#C4081C" transform="translate(887.13671875,48.875)"/>
<path d="M0 0 C27.06 0 54.12 0 82 0 C82 10.89 82 21.78 82 33 C75.07 33 68.14 33 61 33 C61 55.44 61 77.88 61 101 C48.46 101 35.92 101 23 101 C23 78.56 23 56.12 23 33 C15.41 33 7.82 33 0 33 C0 22.11 0 11.22 0 0 Z " fill="#C4081C" transform="translate(545,51)"/>
<path d="M0 0 C13.2 0 26.4 0 40 0 C40 33.33 40 66.66 40 101 C26.8 101 13.6 101 0 101 C0 67.67 0 34.34 0 0 Z " fill="#C4081C" transform="translate(388,51)"/>
<path d="M0 0 C0.74886475 0.00523682 1.49772949 0.01047363 2.26928711 0.01586914 C3.07817383 0.0190918 3.88706055 0.02231445 4.72045898 0.02563477 C5.5705957 0.03401367 6.42073242 0.04239258 7.29663086 0.05102539 C8.15063477 0.05553711 9.00463867 0.06004883 9.88452148 0.06469727 C12.00108749 0.07652166 14.11761771 0.0944577 16.23413086 0.11352539 C16.49891235 1.05989868 16.49891235 1.05989868 16.76904297 2.02539062 C17.56648844 4.86824047 18.36898954 7.70963837 19.17163086 10.55102539 C19.58832031 12.04085937 19.58832031 12.04085937 20.01342773 13.56079102 C20.2809082 14.5050293 20.54838867 15.44926758 20.82397461 16.42211914 C21.19317017 17.73394165 21.19317017 17.73394165 21.56982422 19.07226562 C22.0540888 21.08467385 22.0540888 21.08467385 23.23413086 22.11352539 C23.61504883 20.86249023 23.61504883 20.86249023 24.00366211 19.58618164 C25.99810427 13.06502807 28.04485519 6.57188863 30.23413086 0.11352539 C36.17413086 0.11352539 42.11413086 0.11352539 48.23413086 0.11352539 C49.54663086 7.17602539 49.54663086 7.17602539 49.98901367 9.55712891 C50.86864123 14.25534216 51.81793238 18.93474747 52.79663086 23.61352539 C54.37904998 31.41735022 55.32441454 39.20599123 56.23413086 47.11352539 C50.62413086 47.11352539 45.01413086 47.11352539 39.23413086 47.11352539 C38.77840169 44.31404622 38.32267253 41.51456706 37.86694336 38.71508789 C37.06777809 34.1667522 36.13979727 29.64185743 35.23413086 25.11352539 C32.92413086 32.37352539 30.61413086 39.63352539 28.23413086 47.11352539 C24.60413086 47.11352539 20.97413086 47.11352539 17.23413086 47.11352539 C14.92413086 39.85352539 12.61413086 32.59352539 10.23413086 25.11352539 C8.91413086 32.37352539 7.59413086 39.63352539 6.23413086 47.11352539 C0.62413086 47.11352539 -4.98586914 47.11352539 -10.76586914 47.11352539 C-9.25760731 35.45208637 -7.4422397 23.89703177 -5.14086914 12.36352539 C-4.81372925 10.71235718 -4.81372925 10.71235718 -4.47998047 9.02783203 C-2.67745526 0.17213006 -2.67745526 0.17213006 0 0 Z " fill="#FDFDFD" transform="translate(1072.765869140625,202.886474609375)"/>
<path d="M0 0 C5.03144346 4.34772814 8.58382099 9.08143142 9.30078125 15.83203125 C9.33379666 24.22895027 8.6654709 30.3600702 2.9375 36.75 C-2.6731872 41.89018932 -8.99604354 44.18352104 -16.5625 44.4375 C-26.07770762 44.00864557 -32.47563504 40.95420548 -39 34 C-43.62835344 27.58002587 -43.68420195 20.70470897 -43 13 C-41.22712052 6.30370999 -36.56645945 1.86077371 -31 -2 C-20.98464203 -7.77572791 -9.56925817 -5.67067151 0 0 Z " fill="#FDFDFD" transform="translate(990,207)"/>
<path d="M0 0 C10.89 0 21.78 0 33 0 C33 4.29 33 8.58 33 13 C28.05 13 23.1 13 18 13 C18 14.32 18 15.64 18 17 C22.62 17 27.24 17 32 17 C32 20.96 32 24.92 32 29 C27.38 29 22.76 29 18 29 C18 30.65 18 32.3 18 34 C23.28 34 28.56 34 34 34 C34 38.29 34 42.58 34 47 C22.78 47 11.56 47 0 47 C0 31.49 0 15.98 0 0 Z " fill="#FBFBFB" transform="translate(744,203)"/>
<path d="M0 0 C10.89 0 21.78 0 33 0 C33 4.29 33 8.58 33 13 C27.72 13 22.44 13 17 13 C17 14.32 17 15.64 17 17 C21.62 17 26.24 17 31 17 C31 20.96 31 24.92 31 29 C26.38 29 21.76 29 17 29 C17 30.65 17 32.3 17 34 C22.28 34 27.56 34 33 34 C33 38.29 33 42.58 33 47 C22.11 47 11.22 47 0 47 C0 31.49 0 15.98 0 0 Z " fill="#FCFCFC" transform="translate(545,203)"/>
<path d="M0 0 C0 5.61 0 11.22 0 17 C-2.31 16.01 -4.62 15.02 -7 14 C-11.1150616 13.50335463 -13.24107205 13.61246233 -16.9375 15.5 C-19.29738696 18.36046904 -19.73661074 20.32366903 -19.48046875 24.02734375 C-18.62130844 27.55479057 -16.93602134 29.00100675 -14 31 C-8.08727974 31.87595856 -5.82953798 30.49837342 0 28 C0 33.61 0 39.22 0 45 C-7.29505451 47.9180218 -15.53377726 48.67123174 -23.02734375 45.8671875 C-29.97748311 41.87477662 -34.94851305 36.91738228 -37.48828125 29.1953125 C-39.23380557 21.70687991 -38.22502104 15.88209062 -34.4765625 9.19140625 C-26.4659309 -2.69738826 -12.65012956 -4.21670985 0 0 Z " fill="#FCFCFC" transform="translate(881,204)"/>
<path d="M0 0 C5.94 0 11.88 0 18 0 C18 10.56 18 21.12 18 32 C23.94 32 29.88 32 36 32 C36 36.95 36 41.9 36 47 C24.12 47 12.24 47 0 47 C0 31.49 0 15.98 0 0 Z " fill="#FBFBFB" transform="translate(644,203)"/>
<path d="M0 0 C12.21 0 24.42 0 37 0 C37 4.95 37 9.9 37 15 C33.7 15 30.4 15 27 15 C27 25.56 27 36.12 27 47 C21.39 47 15.78 47 10 47 C10 36.77 10 26.54 10 16 C6.7 16 3.4 16 0 16 C0 10.72 0 5.44 0 0 Z " fill="#FDFDFD" transform="translate(442,203)"/>
<path d="M0 0 C2.5 1.4375 2.5 1.4375 4 4 C4.75551032 8.28909505 4.71240656 11.73005787 2.5625 15.5625 C-1.25685207 17.70506335 -4.72503181 17.76917041 -9 17 C-11.0625 15.5625 -11.0625 15.5625 -12 13 C-12.61905666 8.67453999 -12.74082727 5.26557992 -10.5 1.4375 C-6.9497563 -0.60389013 -3.99714672 -0.77813307 0 0 Z " fill="#9B9B9D" transform="translate(977,218)"/>
</svg>
