<svg width="44" height="51" viewBox="0 0 44 51" fill="none" xmlns="http://www.w3.org/2000/svg">
<path d="M15.1622 11.8703C10.2439 14.3645 6.8609 19.4687 6.8609 25.3472C6.8609 28.8821 8.08683 32.136 10.1313 34.7131V21.0894L28.734 38.8407C33.67 36.3528 37.0676 31.2384 37.0676 25.3479C37.0676 21.8074 35.8378 18.549 33.7877 15.97V29.6051L15.1622 11.8709V11.8703Z" fill="#161616"/>
<path d="M1.87242 25.3466C1.87242 18.1391 5.67482 11.8146 11.3813 8.26964L10.1319 7.07977L2.69603 0H0V43.6704L7.36 50.6938H10.1313V41.5816C5.12638 37.9266 1.87242 32.0152 1.87242 25.3472V25.3466Z" fill="#E93636"/>
<path d="M43.9277 0H41.1545L33.7875 7.02284V9.1059C38.7975 12.7609 42.0559 18.6748 42.0559 25.3472C42.0559 32.5693 38.2383 38.9046 32.5123 42.4463L33.7869 43.6628L41.1558 50.6945H43.9277V0Z" fill="#161616"/>
</svg>
