<?xml version="1.0" encoding="UTF-8"?>
<svg version="1.1" xmlns="http://www.w3.org/2000/svg" width="714" height="190">
<path d="M0 0 C235.62 0 471.24 0 714 0 C714 62.7 714 125.4 714 190 C478.38 190 242.76 190 0 190 C0 127.3 0 64.6 0 0 Z " fill="#FDFEFE" transform="translate(0,0)"/>
<path d="M0 0 C0 30.36 0 60.72 0 92 C5.61 92 11.22 92 17 92 C17 92.66 17 93.32 17 94 C10.01949444 100.9516207 3.25989377 106.64450339 -6.9206543 106.83935547 C-10.64445689 106.71035294 -14.29836526 106.43453973 -18 106 C-18.33 101.38 -18.66 96.76 -19 92 C-19.804375 93.19625 -20.60875 94.3925 -21.4375 95.625 C-25.86902022 101.54769527 -31.93907696 105.75194925 -39 108 C-49.72282721 109.00017694 -59.6544428 108.53517989 -68.68359375 102.08203125 C-78.41867369 93.90919297 -84.81639537 82.54602932 -87 70 C-88.23707927 52.07685421 -87.45022929 36.62952051 -76 22 C-73.7583751 19.62489025 -71.68518778 17.91061438 -69 16 C-68.01 16 -67.02 16 -66 16 C-66 15.34 -66 14.68 -66 14 C-59.94500934 11.37524488 -55.07024825 10.5300847 -48.5 10.625 C-47.69691406 10.61339844 -46.89382813 10.60179688 -46.06640625 10.58984375 C-40.41049041 10.61734415 -36.18772009 11.75119473 -31 14 C-31 14.66 -31 15.32 -31 16 C-30.29875 16.185625 -29.5975 16.37125 -28.875 16.5625 C-24.90359949 18.54820026 -22.6926582 21.53933276 -20 25 C-20.07863281 24.24976562 -20.15726562 23.49953125 -20.23828125 22.7265625 C-20.43021065 14.70593396 -20.43021065 14.70593396 -17.74121094 11.49853516 C-14.13651167 8.22860627 -10.08340285 5.62753761 -6 3 C-5.24332031 2.41347656 -4.48664063 1.82695313 -3.70703125 1.22265625 C-2 0 -2 0 0 0 Z " fill="#0463A4" transform="translate(439,71)"/>
<path d="M0 0 C8.4858822 7.3175361 11.97758626 16.13793132 14.125 26.875 C14.125 34.795 14.125 42.715 14.125 50.875 C-5.015 50.875 -24.155 50.875 -43.875 50.875 C-40.31727287 63.2308793 -40.31727287 63.2308793 -32.19921875 71.66015625 C-27.9206379 73.22377393 -24.20865571 73.36632328 -19.6875 73.3125 C-18.84832031 73.30927734 -18.00914062 73.30605469 -17.14453125 73.30273438 C-11.24243062 73.17066577 -6.32335978 72.21855635 -0.90625 69.75 C1.125 68.875 1.125 68.875 4.125 68.875 C4.9644882 70.97671867 5.79639656 73.08146625 6.625 75.1875 C7.0890625 76.35925781 7.553125 77.53101563 8.03125 78.73828125 C9.125 81.875 9.125 81.875 9.125 84.875 C7.30000537 85.86962207 5.46448897 86.84494701 3.625 87.8125 C2.09359375 88.63041016 2.09359375 88.63041016 0.53125 89.46484375 C-10.03273194 93.83823536 -27.22453048 93.85347893 -38.0625 90.4375 C-47.80632156 86.02112446 -55.45603593 77.49826128 -59.875 67.875 C-65.88883151 50.86099427 -65.81003063 32.04806704 -58.25 15.5 C-52.64966709 5.25111489 -44.6525855 -1.26927869 -33.59375 -4.8671875 C-22.3925952 -7.74635757 -9.55878807 -6.9240969 0 0 Z " fill="#0563A3" transform="translate(650.875,87.125)"/>
<path d="M0 0 C11.40875689 10.08332778 11.40875689 10.08332778 12.28125 15.97265625 C12.94125 15.97265625 13.60125 15.97265625 14.28125 15.97265625 C23.22347851 32.65889903 29.92374872 49.69769458 29.28125 68.97265625 C27.0035449 68.3134616 24.74121235 67.63097981 22.484375 66.90234375 C19.2062589 65.88921082 19.2062589 65.88921082 15.453125 65.29296875 C11.14719838 64.41708851 7.99983156 63.41215124 4.28125 60.97265625 C1.43151085 56.16069725 0.66358487 50.47187019 -0.31103516 45.03662109 C-1.89664927 37.00980571 -6.94008879 29.45877413 -11.71875 22.97265625 C-14.43985498 20.79098854 -14.43985498 20.79098854 -17.03125 20.84765625 C-24.25237769 23.87045389 -27.31754212 32.63753883 -30.23803711 39.42651367 C-38.66043029 60.20396265 -39.68593751 83.47244921 -31.34375 104.47265625 C-29.46011345 108.6993529 -27.27311123 112.52119301 -24.5390625 116.25390625 C-23.71875 117.97265625 -23.71875 117.97265625 -23.859375 119.97265625 C-26.42970368 125.95451209 -34.01002658 130.33786083 -39.71875 132.97265625 C-41.6796875 132.9453125 -41.6796875 132.9453125 -43.71875 131.97265625 C-59.60826025 110.58293092 -64.81644865 80.5371039 -61.03515625 54.6171875 C-57.40425841 33.59756802 -48.6177621 12.68922666 -31.71875 -1.02734375 C-21.67689988 -6.55960228 -9.48672568 -7.0741532 0 0 Z " fill="#67BBDF" transform="translate(116.71875,8.02734375)"/>
<path d="M0 0 C0.10957031 0.59425781 0.21914063 1.18851562 0.33203125 1.80078125 C1.41333323 7.45344118 2.76840718 12.94164189 4.4140625 18.45703125 C5.03143015 21.13640687 5.31197389 23.26457676 5 26 C3.78515625 27.5625 3.78515625 27.5625 2.0625 29 C-5.39567081 35.9438142 -15.01589849 48.06244444 -16.296875 58.39453125 C-16.35073226 60.81972177 -16.35073226 60.81972177 -16 64 C-2.49545799 70.00201867 13.59778454 63.77219607 26.625 59 C27.2756543 58.7632959 27.92630859 58.5265918 28.59667969 58.28271484 C32.80719494 56.66959537 36.28564633 54.5270676 40 52 C40.66 52 41.32 52 42 52 C42 51.34 42 50.68 42 50 C43.50390625 48.73828125 43.50390625 48.73828125 45.5625 47.3125 C55.935995 39.70527034 63.48216136 29.61190726 69 18 C75.39499212 18.14211094 79.32814108 20.84934755 84.546875 24.40625 C86.97941934 26.13295394 86.97941934 26.13295394 90 27 C89.67 28.65 89.34 30.3 89 32 C88.34 32 87.68 32 87 32 C86.731875 32.86625 86.46375 33.7325 86.1875 34.625 C85.02888013 37.91791964 83.61790161 40.91127875 82 44 C81.34 44 80.68 44 80 44 C79.75121094 44.71800781 79.50242187 45.43601563 79.24609375 46.17578125 C71.52942133 63.66529272 50.58971291 77.08757385 33.32885742 83.79980469 C30.23793067 84.93380999 27.13186685 85.98320612 24 87 C22.96230469 87.35707031 21.92460938 87.71414062 20.85546875 88.08203125 C12.17385976 90.87297258 3.42930662 91.22426409 -5.625 91.3125 C-6.59042725 91.33006348 -7.55585449 91.34762695 -8.55053711 91.36572266 C-19.93501816 91.35601639 -28.31498279 88.42986389 -36.53515625 80.5234375 C-42.14941042 74.4017726 -42.4529804 67.40306216 -42.31640625 59.47265625 C-41.45136916 49.97860725 -37.66703354 41.21974728 -33 33 C-32.52046875 32.14019531 -32.0409375 31.28039062 -31.546875 30.39453125 C-26.24569696 21.47774392 -11.37071462 0 0 0 Z " fill="#92C58A" transform="translate(46,96)"/>
<path d="M0 0 C20.01153197 -0.63866591 36.02422284 1.98651705 54 11 C54.75893555 11.37785645 55.51787109 11.75571289 56.29980469 12.14501953 C58.20152245 13.09337285 60.10099345 14.04622929 62 15 C62 15.66 62 16.32 62 17 C62.73605469 17.26425781 63.47210938 17.52851562 64.23046875 17.80078125 C68.74044439 19.75361978 72.22231412 22.90280636 76 26 C76.66257812 26.51433594 77.32515625 27.02867188 78.0078125 27.55859375 C91.04265783 38.1395107 99.54038491 53.41240331 105 69 C105.55107422 70.485 105.55107422 70.485 106.11328125 72 C108.23961906 79.19395347 108.04939089 86.70049335 104.8125 93.5 C100.56885883 100.86677035 94.2114167 106.45837102 86 109 C63.02093478 113.33567268 41.78737096 107.42033907 21 98 C22.54131544 94.55555799 24.31005635 92.83107436 27.28515625 90.49609375 C29.93077306 88.18795881 32.07600548 85.48650031 34.2890625 82.76953125 C36.14903295 80.84586318 37.51307759 79.96619533 40 79 C42.01123047 79.21606445 42.01123047 79.21606445 44.1171875 79.86328125 C44.88933594 80.09080078 45.66148437 80.31832031 46.45703125 80.55273438 C47.25496094 80.80345703 48.05289063 81.05417969 48.875 81.3125 C59.28781159 84.4635221 70.51278824 87.53501049 81 83 C81.34776847 77.04200431 80.65041312 73.00784964 77.6875 67.75 C77.16095825 66.78827881 77.16095825 66.78827881 76.6237793 65.80712891 C72.69717831 58.96713401 67.58689004 53.5284323 62 48 C61.15953125 47.14019531 60.3190625 46.28039062 59.453125 45.39453125 C57.20325709 43.19840222 54.92187647 41.23519135 52.4375 39.3125 C51.69371094 38.73113281 50.94992188 38.14976563 50.18359375 37.55078125 C48.18002423 36.12785263 46.22785976 35.02552274 44 34 C44 33.34 44 32.68 44 32 C42.00320334 31.32251542 40.00442517 30.65066384 38 29.99609375 C35.80289819 29.26658729 33.61670066 28.50401438 31.4375 27.72265625 C21.56942251 24.29125658 12.4270228 23.14195204 2 23 C0.04596958 15.27111181 -0.22428282 7.94957992 0 0 Z " fill="#C5BC04" transform="translate(90,77)"/>
<path d="M0 0 C0 13.86 0 27.72 0 42 C5.94 42 11.88 42 18 42 C18 47.94 18 53.88 18 60 C12.06 60 6.12 60 0 60 C0 85.08 0 110.16 0 136 C-6.27 136 -12.54 136 -19 136 C-19 110.92 -19 85.84 -19 60 C-23.95 60 -28.9 60 -34 60 C-34 54.06 -34 48.12 -34 42 C-29.05 42 -24.1 42 -19 42 C-19.16242188 40.03417969 -19.32484375 38.06835938 -19.4921875 36.04296875 C-20.64928926 16.01185125 -20.64928926 16.01185125 -17.67431641 10.57910156 C-14.10298481 6.58889094 -9.79654458 4.26146747 -5 2 C-2 0 -2 0 0 0 Z " fill="#0563A3" transform="translate(316,42)"/>
<path d="M0 0 C0.66 0 1.32 0 2 0 C2 13.53 2 27.06 2 41 C8.27 41 14.54 41 21 41 C21 46.94 21 52.88 21 59 C14.73 59 8.46 59 2 59 C2 83.75 2 108.5 2 134 C-4.27 134 -10.54 134 -17 134 C-17 109.25 -17 84.5 -17 59 C-21.62 59 -26.24 59 -31 59 C-31 53.06 -31 47.12 -31 41 C-26.38 41 -21.76 41 -17 41 C-17.185625 39.11796875 -17.37125 37.2359375 -17.5625 35.296875 C-18.88528553 16.0177599 -18.88528553 16.0177599 -15.44580078 10.51220703 C-11.26549663 6.25742085 -6.33166017 3.57610073 -1 1 C-0.67 0.67 -0.34 0.34 0 0 Z " fill="#0462A1" transform="translate(549,43)"/>
<path d="M0 0 C6.27 0 12.54 0 19 0 C19 48.84 19 97.68 19 148 C12.73 148 6.46 148 0 148 C0 99.16 0 50.32 0 0 Z " fill="#0162A4" transform="translate(235,29)"/>
<path d="M0 0 C0 48.84 0 97.68 0 148 C-5.94 148 -11.88 148 -18 148 C-18.25489053 130.40619566 -18.45106371 112.81313112 -18.56993389 95.21790314 C-18.6266007 87.04762329 -18.70381946 78.87851321 -18.82983398 70.70898438 C-18.9396472 63.58637815 -19.01047956 56.46461911 -19.03497344 49.34118986 C-19.04928806 45.57055464 -19.08279402 41.80234243 -19.16303062 38.03248596 C-19.23803984 34.47924704 -19.26066666 30.92941323 -19.24418449 27.37545776 C-19.2486264 25.45856104 -19.30766034 23.54203091 -19.36862183 21.62609863 C-19.30201738 16.53727927 -19.25898783 13.31559674 -15.64295387 9.53697205 C-12.84374469 7.49277816 -9.98866949 5.75065124 -7 4 C-6.09797694 3.26960762 -5.19595388 2.53921524 -4.26659679 1.78668976 C-2 0 -2 0 0 0 Z " fill="#0162A5" transform="translate(712,29)"/>
<path d="M0 0 C0 48.18 0 96.36 0 146 C-5.94 146 -11.88 146 -18 146 C-18.3014503 128.70160069 -18.53318211 111.40425633 -18.67355824 94.10383034 C-18.74048238 86.07009884 -18.83164684 78.03803302 -18.98071289 70.00537109 C-19.11064016 63.00066942 -19.19423648 55.99717414 -19.22315043 48.99130094 C-19.24004496 45.28386518 -19.27947714 41.57987912 -19.37449074 37.87355423 C-19.97606392 13.49211361 -19.97606392 13.49211361 -15.12484741 7.97821045 C-12.02539734 5.26371342 -8.77467022 3.60890515 -5 2 C-2 0 -2 0 0 0 Z " fill="#0162A4" transform="translate(491,31)"/>
<path d="M0 0 C8.09599043 4.67768336 12.08856149 10.13582559 15.26171875 18.8359375 C17.93723103 29.75061012 16.56192865 39.95645305 11.26171875 49.8359375 C7.57916185 54.90929379 3.34723055 58.11170916 -2.73828125 59.8359375 C-8.87470278 60.57194008 -14.52087775 60.4527256 -19.95703125 57.2890625 C-25.71328121 52.59317437 -29.51524332 45.09262923 -30.73828125 37.8359375 C-31.7335552 26.24810511 -31.43702607 15.1992758 -23.73828125 5.8359375 C-16.67850075 -0.25205135 -9.23585522 -3.92622661 0 0 Z " fill="#F8FCFD" transform="translate(402.73828125,101.1640625)"/>
<path d="M0 0 C4.72925352 3.28776915 6.79678037 5.62462149 8.23046875 11.359375 C8.66975571 14.43955182 8.5625 17.57615587 8.5625 20.6875 C-4.6375 20.6875 -17.8375 20.6875 -31.4375 20.6875 C-28.66625817 6.83129085 -28.66625817 6.83129085 -23.0625 1.375 C-16.02222222 -3.15089286 -7.34729867 -4.49227101 0 0 Z " fill="#FBFDFD" transform="translate(638.4375,102.3125)"/>
<path d="M0 0 C1.32 0.33 2.64 0.66 4 1 C4 50.17 4 99.34 4 150 C0.59623106 151.70188447 -3.18675899 151.18458114 -6.9375 151.1875 C-7.76185547 151.19974609 -8.58621094 151.21199219 -9.43554688 151.22460938 C-10.22896484 151.22654297 -11.02238281 151.22847656 -11.83984375 151.23046875 C-12.56550537 151.23457764 -13.29116699 151.23868652 -14.03881836 151.24291992 C-16 151 -16 151 -19 149 C-19.35911274 146.65114594 -19.35911274 146.65114594 -19.33625793 143.64782715 C-19.33485809 142.51205734 -19.33345825 141.37628754 -19.33201599 140.20610046 C-19.31502151 138.9540834 -19.29802704 137.70206635 -19.28051758 136.41210938 C-19.27441467 135.09829788 -19.26831177 133.78448639 -19.26202393 132.43086243 C-19.24465243 128.82125592 -19.20831387 125.21206329 -19.16811585 121.60264778 C-19.12873354 117.83066895 -19.10482551 114.05858911 -19.07878113 110.28649902 C-19.0326274 103.95113012 -18.97445423 97.61595821 -18.90893555 91.28076172 C-18.83323923 83.94973889 -18.77519137 76.61874143 -18.72690278 69.28749037 C-18.68020804 62.24371931 -18.62227004 55.20008651 -18.55875206 48.15644836 C-18.53181106 45.15490768 -18.50861555 42.15337214 -18.48835182 39.15177917 C-18.45936991 34.96364672 -18.41383783 30.77585526 -18.36645508 26.58789062 C-18.35958176 25.33587357 -18.35270844 24.08385651 -18.34562683 22.79389954 C-18.33012787 21.65812973 -18.31462891 20.52235992 -18.29866028 19.35217285 C-18.28923306 18.36107765 -18.27980585 17.36998245 -18.27009296 16.34885406 C-18 14 -18 14 -16 12 C-13.875 12.375 -13.875 12.375 -12 13 C-13.98 13.99 -13.98 13.99 -16 15 C-16 59.22 -16 103.44 -16 149 C-10.06 149 -4.12 149 2 149 C2 100.82 2 52.64 2 3 C1.01 3.33 0.02 3.66 -1 4 C-0.67 2.68 -0.34 1.36 0 0 Z " fill="#B3D6E7" transform="translate(489,28)"/>
<path d="M0 0 C0.99 0 1.98 0 3 0 C3.02332758 19.54029795 3.04097848 39.08059309 3.05181217 58.62090206 C3.05697543 67.69315493 3.06401869 76.76539916 3.07543945 85.83764648 C3.08538538 93.74208712 3.09185321 101.64652151 3.09408849 109.55096823 C3.09539576 113.73894719 3.09848259 117.92690827 3.10573006 122.11488152 C3.11248884 126.05215298 3.11461725 129.98939908 3.11310768 133.9266758 C3.11338407 135.37594617 3.11539004 136.82521735 3.11920547 138.27448273 C3.12414043 140.24470414 3.12239809 142.21493898 3.12025452 144.18516541 C3.12117631 145.29039519 3.1220981 146.39562498 3.12304783 147.53434658 C3 150 3 150 2 151 C-4.6 151 -11.2 151 -18 151 C-18 105.79 -18 60.58 -18 14 C-17.67 14 -17.34 14 -17 14 C-17 58.55 -17 103.1 -17 149 C-11.06 149 -5.12 149 1 149 C0.67 99.83 0.34 50.66 0 0 Z " fill="#A4CDDD" transform="translate(711,28)"/>
<path d="M0 0 C6.27 0 12.54 0 19 0 C19 48.84 19 97.68 19 148 C12.73 148 6.46 148 0 148 C0 99.16 0 50.32 0 0 Z M1 2 C0.97667212 20.75799498 0.95902137 39.51598703 0.94818783 58.27399349 C0.94302463 66.9830416 0.93598149 75.69208071 0.92456055 84.40112305 C0.91461442 91.98913741 0.90814674 99.57714526 0.90591151 107.16516596 C0.90460428 111.18547119 0.90151766 115.20575778 0.89426994 119.22605705 C0.88751085 123.00573984 0.88538281 126.7853962 0.88689232 130.56508446 C0.88661594 131.95630283 0.88461015 133.34752203 0.88079453 134.7387352 C0.87585909 136.63013326 0.87760202 138.52154532 0.87974548 140.41294861 C0.87882369 141.47393233 0.8779019 142.53491606 0.87695217 143.6280508 C0.73229815 145.95547297 0.73229815 145.95547297 2 147 C4.69654854 147.07319621 7.36691458 147.09242537 10.0625 147.0625 C11.20041992 147.05573242 11.20041992 147.05573242 12.36132812 147.04882812 C14.24091871 147.0370068 16.12046899 147.01907078 18 147 C18.02332788 128.24200502 18.04097863 109.48401297 18.05181217 90.72600651 C18.05697537 82.0169584 18.06401851 73.30791929 18.07543945 64.59887695 C18.08538558 57.01086259 18.09185326 49.42285474 18.09408849 41.83483404 C18.09539572 37.81452881 18.09848234 33.79424222 18.10573006 29.77394295 C18.11248915 25.99426016 18.11461719 22.2146038 18.11310768 18.43491554 C18.11338406 17.04369717 18.11538985 15.65247797 18.11920547 14.2612648 C18.12414091 12.36986674 18.12239798 10.47845468 18.12025452 8.58705139 C18.12117631 7.52606767 18.1220981 6.46508394 18.12304783 5.3719492 C18.26770185 3.04452703 18.26770185 3.04452703 17 2 C14.30345146 1.92680379 11.63308542 1.90757463 8.9375 1.9375 C7.79958008 1.94426758 7.79958008 1.94426758 6.63867188 1.95117188 C4.75908129 1.9629932 2.87953101 1.98092922 1 2 Z " fill="#1A5E90" transform="translate(235,29)"/>
<path d="M0 0 C0 48.84 0 97.68 0 148 C-5.94 148 -11.88 148 -18 148 C-18 103.12 -18 58.24 -18 12 C-16.68 11.34 -15.36 10.68 -14 10 C-14.33 10.99 -14.66 11.98 -15 13 C-15.66 13 -16.32 13 -17 13 C-17 57.22 -17 101.44 -17 147 C-11.72 147 -6.44 147 -1 147 C-1 99.81 -1 52.62 -1 4 C-2.32 4.33 -3.64 4.66 -5 5 C-5 5.66 -5 6.32 -5 7 C-7.5 8.625 -7.5 8.625 -10 10 C-10.66 9.34 -11.32 8.68 -12 8 C-10.37982158 6.66081194 -8.75370657 5.3288031 -7.125 4 C-6.22007812 3.2575 -5.31515625 2.515 -4.3828125 1.75 C-2 0 -2 0 0 0 Z " fill="#125E8F" transform="translate(712,29)"/>
<path d="M0 0 C0 48.18 0 96.36 0 146 C-5.94 146 -11.88 146 -18 146 C-18.3014503 128.70160069 -18.53318211 111.40425633 -18.67355824 94.10383034 C-18.74048238 86.07009884 -18.83164684 78.03803302 -18.98071289 70.00537109 C-19.11064016 63.00066942 -19.19423648 55.99717414 -19.22315043 48.99130094 C-19.24004496 45.28386518 -19.27947714 41.57987912 -19.37449074 37.87355423 C-19.97606392 13.49211361 -19.97606392 13.49211361 -15.12484741 7.97821045 C-12.02539734 5.26371342 -8.77467022 3.60890515 -5 2 C-2 0 -2 0 0 0 Z M-3 2 C-3.33 2.99 -3.66 3.98 -4 5 C-5.3153341 5.70151152 -6.65117592 6.36525925 -8 7 C-8.474375 7.474375 -8.94875 7.94875 -9.4375 8.4375 C-11.40188059 10.40188059 -13.6042186 11.61296866 -16 13 C-17.67965818 14.67965818 -17.12607522 16.74432964 -17.12698364 19.04882812 C-17.12980347 20.14259766 -17.13262329 21.23636719 -17.13552856 22.36328125 C-17.13350433 23.57371094 -17.1314801 24.78414062 -17.12939453 26.03125 C-17.13114685 27.29775391 -17.13289917 28.56425781 -17.13470459 29.86914062 C-17.13927845 33.35251819 -17.13748956 36.83586627 -17.1343255 40.31924438 C-17.13180166 43.95697105 -17.13413951 47.59469512 -17.13571167 51.23242188 C-17.13753329 57.34245255 -17.13512725 63.45247116 -17.13037109 69.5625 C-17.12492849 76.63627845 -17.12669115 83.71002809 -17.1321975 90.78380585 C-17.13672884 96.84663897 -17.13737908 102.9094634 -17.13475883 108.97229767 C-17.13319617 112.59799167 -17.13300199 116.2236721 -17.13629532 119.84936523 C-17.13970819 123.88917765 -17.13498396 127.92894003 -17.12939453 131.96875 C-17.13141876 133.17917969 -17.13344299 134.38960937 -17.13552856 135.63671875 C-17.13270874 136.73048828 -17.12988892 137.82425781 -17.12698364 138.95117188 C-17.12660662 139.90761597 -17.12622959 140.86406006 -17.12584114 141.8494873 C-17.24010491 143.98142585 -17.24010491 143.98142585 -16 145 C-11.05 145 -6.1 145 -1 145 C-1 97.81 -1 50.62 -1 2 C-1.66 2 -2.32 2 -3 2 Z " fill="#155E90" transform="translate(491,31)"/>
<path d="M0 0 C0.33 0 0.66 0 1 0 C1 24.75 1 49.5 1 75 C7.27 75 13.54 75 20 75 C20 50.25 20 25.5 20 0 C26.27 0 32.54 0 39 0 C39 0.33 39 0.66 39 1 C38.01257813 1.06058594 37.02515625 1.12117188 36.0078125 1.18359375 C34.72648438 1.26738281 33.44515625 1.35117188 32.125 1.4375 C30.84882812 1.51871094 29.57265625 1.59992188 28.2578125 1.68359375 C25.11699848 1.79206027 25.11699848 1.79206027 23 3 C23.00222061 3.89980087 23.00444122 4.79960175 23.00672913 5.72666931 C23.02672944 14.18813967 23.0419728 22.64960214 23.05181217 31.11109066 C23.05704065 35.46168459 23.06413765 39.81225907 23.07543945 44.1628418 C23.08626959 48.35790258 23.0922771 52.55294459 23.09487724 56.74801826 C23.09673126 58.35206968 23.10035144 59.95612003 23.10573006 61.5601635 C23.11294219 63.79916515 23.11399087 66.0380883 23.11352539 68.27709961 C23.115746 69.55395126 23.11796661 70.83080292 23.12025452 72.14634705 C23 75 23 75 22 76 C14.74 76 7.48 76 0 76 C0 50.92 0 25.84 0 0 Z " fill="#C4E5F6" transform="translate(531,102)"/>
<path d="M0 0 C0 30.36 0 60.72 0 92 C5.61 92 11.22 92 17 92 C17 92.66 17 93.32 17 94 C15.25 95.2890625 15.25 95.2890625 13 96.625 C12.2575 97.07101563 11.515 97.51703125 10.75 97.9765625 C9.88375 98.48316406 9.88375 98.48316406 9 99 C9 97.68 9 96.36 9 95 C8.28972656 94.93941406 7.57945312 94.87882812 6.84765625 94.81640625 C5.46900391 94.69072266 5.46900391 94.69072266 4.0625 94.5625 C2.68771484 94.44068359 2.68771484 94.44068359 1.28515625 94.31640625 C-1 94 -1 94 -2 93 C-2.09517803 90.23061034 -2.12554265 87.48622841 -2.11352539 84.71655273 C-2.11367142 83.84833893 -2.11381744 82.98012512 -2.1139679 82.08560181 C-2.11326846 79.20157414 -2.10547463 76.3176102 -2.09765625 73.43359375 C-2.09579218 71.43962133 -2.09436823 69.44564845 -2.09336853 67.45167542 C-2.08954248 62.19254298 -2.07971145 56.93343797 -2.06866455 51.67431641 C-2.0584523 46.31217825 -2.05387131 40.95003569 -2.04882812 35.58789062 C-2.03808926 25.05858167 -2.0210118 14.52929311 -2 4 C-2.763125 4.515625 -3.52625 5.03125 -4.3125 5.5625 C-5.199375 6.036875 -6.08625 6.51125 -7 7 C-7.99 6.67 -8.98 6.34 -10 6 C-8.71283353 4.99421411 -7.42011342 3.99553202 -6.125 3 C-5.40570313 2.443125 -4.68640625 1.88625 -3.9453125 1.3125 C-2 0 -2 0 0 0 Z " fill="#0E5D8F" transform="translate(439,71)"/>
<path d="M0 0 C0.66 1.32 1.32 2.64 2 4 C0.73548068 5.31858428 -0.53685475 6.62967631 -1.8125 7.9375 C-2.52019531 8.66839844 -3.22789063 9.39929688 -3.95703125 10.15234375 C-6 12 -6 12 -9 13 C-9.33 13.99 -9.66 14.98 -10 16 C-8.35 16 -6.7 16 -5 16 C-5 16.66 -5 17.32 -5 18 C-4.13117188 18.19335938 -3.26234375 18.38671875 -2.3671875 18.5859375 C-1.21476562 18.84632813 -0.06234375 19.10671875 1.125 19.375 C2.26195313 19.63023437 3.39890625 19.88546875 4.5703125 20.1484375 C7.78398288 20.94636477 10.87566034 21.90790559 14 23 C14 23.66 14 24.32 14 25 C19.10863896 25.0246501 24.21724359 25.04283607 29.32592773 25.05493164 C31.06519168 25.05997204 32.80445136 25.0668043 34.54370117 25.07543945 C37.03825937 25.08751792 39.53276173 25.09323108 42.02734375 25.09765625 C43.2007859 25.10539818 43.2007859 25.10539818 44.39793396 25.11329651 C46.26567114 25.11349226 48.13329204 25.06199694 50 25 C50.495 24.505 50.495 24.505 51 24 C52.66617115 23.95936168 54.33388095 23.957279 56 24 C44.67988836 31.54674109 25.92714862 28.61621645 13.12890625 26.265625 C3.67882488 24.18917475 -5.22174571 19.97809478 -14 16 C-12.45393147 12.53593136 -10.6508438 10.79161334 -7.6640625 8.4375 C-4.76800864 5.93574455 -2.40798528 2.96301735 0 0 Z " fill="#C2BC2E" transform="translate(125,159)"/>
<path d="M0 0 C4.95 0 9.9 0 15 0 C15 25.08 15 50.16 15 76 C14.01 75.67 13.02 75.34 12 75 C12.33 50.91 12.66 26.82 13 2 C8.71 1.67 4.42 1.34 0 1 C0 0.67 0 0.34 0 0 Z " fill="#B9DBEB" transform="translate(282,102)"/>
<path d="M0 0 C1.32 0.33 2.64 0.66 4 1 C4 31.36 4 61.72 4 93 C9.61 93 15.22 93 21 93 C21.495 93.99 21.495 93.99 22 95 C21.01 96.32 20.02 97.64 19 99 C17.515 98.505 17.515 98.505 16 98 C17.98 97.01 17.98 97.01 20 96 C20 95.34 20 94.68 20 94 C14.39 94 8.78 94 3 94 C3 63.64 3 33.28 3 2 C0.69 3.32 -1.62 4.64 -4 6 C-3.67 4.68 -3.34 3.36 -3 2 C-2.01 2 -1.02 2 0 2 C0 1.34 0 0.68 0 0 Z " fill="#DEFAFC" transform="translate(436,69)"/>
<path d="M0 0 C19.14 0 38.28 0 58 0 C58 0.66 58 1.32 58 2 C39.52 2 21.04 2 2 2 C2.99 4.64 3.98 7.28 5 10 C4.67 11.32 4.34 12.64 4 14 C3.32739649 12.23141309 2.66211605 10.46003984 2 8.6875 C1.62875 7.70136719 1.2575 6.71523437 0.875 5.69921875 C0 3 0 3 0 0 Z " fill="#B7DAE8" transform="translate(607,138)"/>
<path d="M0 0 C0.33 0 0.66 0 1 0 C1.19237782 4.80944561 0.8373281 9.13407186 0 13.875 C-1.06582026 20.96002102 -1.25972565 27.96494119 -1.3125 35.125 C-1.33860352 36.75091064 -1.33860352 36.75091064 -1.36523438 38.40966797 C-1.36117411 45.11011923 -0.51133257 50.99713758 1.35473633 57.43701172 C2 60 2 60 2 64 C2.66 64 3.32 64 4 64 C4.33 66.64 4.66 69.28 5 72 C-4.65243242 62.34756758 -4.25161964 41.6751901 -4.33007812 28.88427734 C-4.23120664 18.96581968 -2.33367068 9.60555521 0 0 Z " fill="#80BBD3" transform="translate(59,48)"/>
<path d="M0 0 C-0.33 1.32 -0.66 2.64 -1 4 C-1.99 3.34 -2.98 2.68 -4 2 C-6.4413266 1.69974951 -6.4413266 1.69974951 -9 3 C-22.43289159 15.31658481 -26.03691983 39.00629539 -26.84912109 56.2265625 C-26.90983486 57.81734479 -26.95663897 59.40865017 -27 61 C-27.33 61 -27.66 61 -28 61 C-28.22366479 58.31300008 -28.42927009 55.62656203 -28.625 52.9375 C-28.68945312 52.18533203 -28.75390625 51.43316406 -28.8203125 50.65820312 C-29.16775671 45.64197737 -28.63625168 41.82498788 -27 37 C-26.68160156 35.85660156 -26.36320312 34.71320312 -26.03515625 33.53515625 C-23.54628891 24.64920016 -21.22902661 16.653652 -16.140625 8.8984375 C-14.63361923 6.39020187 -13.77325255 3.81182747 -13 1 C-11.39796533 0.63631108 -9.79325797 0.28438048 -8.1875 -0.0625 C-7.29417969 -0.25972656 -6.40085937 -0.45695312 -5.48046875 -0.66015625 C-3 -1 -3 -1 0 0 Z " fill="#78B8D2" transform="translate(106,27)"/>
<path d="M0 0 C0.495 1.98 0.495 1.98 1 4 C-3.27828642 7.25149768 -6.73829306 9.58832253 -12 11 C-12 11.66 -12 12.32 -12 13 C-26.24933724 14.64334585 -40.55436894 14.85768161 -54.75 12.625 C-55.5536499 12.49899414 -56.3572998 12.37298828 -57.18530273 12.24316406 C-62.72716004 11.27283996 -62.72716004 11.27283996 -65 9 C-67.06874034 8.3574765 -67.06874034 8.3574765 -69 8 C-69 7.34 -69 6.68 -69 6 C-68.24783203 6.27263672 -68.24783203 6.27263672 -67.48046875 6.55078125 C-50.20966016 12.28810267 -26.46109773 16.3409618 -9.5625 7.9375 C-8.94503906 7.59589844 -8.32757813 7.25429687 -7.69140625 6.90234375 C-6 6 -6 6 -3 5 C-1.8499169 3.03327085 -1.8499169 3.03327085 -1 1 C-0.67 0.67 -0.34 0.34 0 0 Z " fill="#F8F6B8" transform="translate(192,174)"/>
<path d="M0 0 C2.87506421 -0.02712325 5.74986908 -0.04689851 8.625 -0.0625 C9.83736328 -0.07506836 9.83736328 -0.07506836 11.07421875 -0.08789062 C15.50341918 -0.1058955 19.63883424 0.10377338 24 1 C24 1.33 24 1.66 24 2 C13.605 2.495 13.605 2.495 3 3 C3 8.94 3 14.88 3 21 C6.155625 20.938125 6.155625 20.938125 9.375 20.875 C12.9609375 20.8046875 12.9609375 20.8046875 16 21 C16.66 21.66 17.32 22.32 18 23 C12.72 23 7.44 23 2 23 C0.1384868 15.20491347 -0.22573052 8.00089303 0 0 Z " fill="#C5C03B" transform="translate(90,77)"/>
<path d="M0 0 C0.66 0 1.32 0 2 0 C6.43578362 12.0399841 5 22.65518803 5 36 C-14.14 36 -33.28 36 -53 36 C-53 35.67 -53 35.34 -53 35 C-34.19 35 -15.38 35 4 35 C4.51706779 20.91000021 4.51706779 20.91000021 0 5 C-0.04063832 3.33382885 -0.042721 1.66611905 0 0 Z " fill="#155C8B" transform="translate(660,102)"/>
<path d="M0 0 C2.57877584 4.02933725 2 5.51534435 2 11 C-11.2 11 -24.4 11 -38 11 C-37.34 7.7 -36.68 4.4 -36 1 C-35.67 1 -35.34 1 -35 1 C-35.33 3.64 -35.66 6.28 -36 9 C-18.675 8.505 -18.675 8.505 -1 8 C-0.67 5.36 -0.34 2.72 0 0 Z " fill="#C9E9F8" transform="translate(645,112)"/>
<path d="M0 0 C0 30.36 0 60.72 0 92 C-0.33 92 -0.66 92 -1 92 C-1 62.63 -1 33.26 -1 3 C-2.32 2.67 -3.64 2.34 -5 2 C-2 0 -2 0 0 0 Z " fill="#5087A5" transform="translate(439,71)"/>
<path d="M0 0 C0.33 0 0.66 0 1 0 C0.67 2.64 0.34 5.28 0 8 C12.87 8 25.74 8 39 8 C39 8.66 39 9.32 39 10 C25.8 10 12.6 10 -1 10 C-2.38125018 7.23749964 -2.19079306 5.05268901 -2 2 C-1.34 1.34 -0.68 0.68 0 0 Z " fill="#105F94" transform="translate(607,115)"/>
<path d="M0 0 C0 13.86 0 27.72 0 42 C-0.66 41.67 -1.32 41.34 -2 41 C-2.33 29.12 -2.66 17.24 -3 5 C-4.32 5 -5.64 5 -7 5 C-2.25 0 -2.25 0 0 0 Z " fill="#3174A0" transform="translate(316,42)"/>
<path d="M0 0 C0.33 0 0.66 0 1 0 C1.66 7.26 2.32 14.52 3 22 C6.8053125 21.87625 6.8053125 21.87625 10.6875 21.75 C18.80581816 21.62111286 25.39621015 23.03782795 33 26 C29.67613793 27.09518958 27.50712394 26.84892092 24.125 26.0625 C18.32159232 24.88772112 12.77480453 24.87861938 6.87109375 25.02734375 C4 25 4 25 2 24 C2 23.34 2 22.68 2 22 C1.34 22 0.68 22 0 22 C0 14.74 0 7.48 0 0 Z " fill="#FCFBD2" transform="translate(89,78)"/>
<path d="M0 0 C0.66 0 1.32 0 2 0 C2 13.53 2 27.06 2 41 C1.34 40.67 0.68 40.34 0 40 C0 28.12 0 16.24 0 4 C-1.98 4.66 -3.96 5.32 -6 6 C-4 4 -2 2 0 0 Z " fill="#0F629B" transform="translate(549,43)"/>
<path d="M0 0 C3.30816963 3.79423841 5.51774952 7.72057659 7.5 12.3125 C7.80043213 13.00529053 8.10086426 13.69808105 8.41040039 14.41186523 C12.35617199 23.84620407 15.33145669 33.69832596 15 44 C13.10197519 41.15296278 12.54486695 39.64314861 11.8515625 36.39453125 C11.65046875 35.49283203 11.449375 34.59113281 11.2421875 33.66210938 C10.83511922 31.78263904 10.43139739 29.90244036 10.03125 28.02148438 C8.71998452 22.17473419 6.94148035 17.21666274 4 12 C3.25 10.58333333 2.5 9.16666667 1.75 7.75 C1.24726563 6.81414063 1.24726563 6.81414063 0.734375 5.859375 C0 4 0 4 0 0 Z " fill="#83BED6" transform="translate(130,24)"/>
<path d="M0 0 C0.66 0.33 1.32 0.66 2 1 C-0.43496969 6.00521548 -1.46531182 6.23265591 -7 9 C-7.33 17.91 -7.66 26.82 -8 36 C-8.99 36.495 -8.99 36.495 -10 37 C-10.24929412 33.01743052 -10.42955244 29.03793567 -10.54931641 25.04931641 C-10.62370148 23.03516049 -10.75085072 21.02317568 -10.87890625 19.01171875 C-11.12178421 9.34517607 -11.12178421 9.34517607 -7.72949219 5.27734375 C-5.23654185 3.28298348 -2.77757209 1.56821657 0 0 Z " fill="#0F5E95" transform="translate(307,47)"/>
<path d="M0 0 C0.66 0 1.32 0 2 0 C2 9.57 2 19.14 2 29 C-2.95 29 -7.9 29 -13 29 C-13 28.34 -13 27.68 -13 27 C-8.71 27 -4.42 27 0 27 C0 18.09 0 9.18 0 0 Z " fill="#BCDEEE" transform="translate(295,55)"/>
<path d="M0 0 C3.32699578 1.03968618 4.11440456 2.18322605 6 5.203125 C6.68263189 6.54407494 7.34847225 7.893665 8 9.25 C8.34812744 9.95858154 8.69625488 10.66716309 9.05493164 11.3972168 C12.22964363 18.07295746 14.22395335 24.82557426 16 32 C16.7763932 35.0745356 16.7763932 35.0745356 19 37 C19 37.66 19 38.32 19 39 C17.68 38.67 16.36 38.34 15 38 C14.68546875 36.80503906 14.3709375 35.61007813 14.046875 34.37890625 C10.70187899 21.86838441 6.34531789 11.31581691 0 0 Z " fill="#7BBAD3" transform="translate(106,31)"/>
<path d="M0 0 C3 1 3 1 4.24609375 3.3359375 C5.50749221 6.5535375 6.76114133 9.7736472 8 13 C8.39960938 13.91910156 8.79921875 14.83820313 9.2109375 15.78515625 C12.07157482 22.67300285 13.21609462 29.56100679 12 37 C11.01 37.66 10.02 38.32 9 39 C9.06960937 37.58460938 9.06960937 37.58460938 9.140625 36.140625 C9.48319958 23.95475793 6.75221841 14.75563547 0.953125 3.9609375 C0 2 0 2 0 0 Z " fill="#FCFAC9" transform="translate(187,128)"/>
<path d="M0 0 C13.98616914 -0.43878178 25.86628069 6.89196256 38 13 C38 13.66 38 14.32 38 15 C39.2065625 15.433125 39.2065625 15.433125 40.4375 15.875 C43 17 43 17 44 19 C40.53214592 17.70949346 37.54831425 16.18242149 34.4375 14.1875 C23.69962864 7.68161324 11.9995659 4.34111136 0 1 C0 0.67 0 0.34 0 0 Z " fill="#C0BB30" transform="translate(114,79)"/>
<path d="M0 0 C4.62 0 9.24 0 14 0 C14 0.33 14 0.66 14 1 C10.04 1 6.08 1 2 1 C2 5.95 2 10.9 2 16 C6.62 16 11.24 16 16 16 C15.67 16.66 15.34 17.32 15 18 C10.05 18 5.1 18 0 18 C0 12.06 0 6.12 0 0 Z " fill="#236794" transform="translate(282,84)"/>
<path d="M0 0 C5.18090434 6.08193118 4.39551439 13.99923642 4.75 21.625 C4.81832031 22.7696875 4.88664062 23.914375 4.95703125 25.09375 C5.00730469 26.18945312 5.05757813 27.28515625 5.109375 28.4140625 C5.16061523 29.4138916 5.21185547 30.4137207 5.26464844 31.44384766 C5 34 5 34 3.49316406 35.84912109 C2.75404785 36.41880615 2.75404785 36.41880615 2 37 C1.01 36.67 0.02 36.34 -1 36 C-0.7834375 35.35675781 -0.566875 34.71351563 -0.34375 34.05078125 C3.1966418 22.5608986 2.82506815 12.36136314 -1 1 C-0.67 0.67 -0.34 0.34 0 0 Z " fill="#196392" transform="translate(416,113)"/>
<path d="M0 0 C1.03898438 0.26554688 2.07796875 0.53109375 3.1484375 0.8046875 C7.42686397 1.89215301 11.71155185 2.9528086 16 4 C16.95777344 4.23460937 17.91554687 4.46921875 18.90234375 4.7109375 C26.88751799 6.49692461 34.9709339 6.73601429 43 5 C43 5.66 43 6.32 43 7 C39.48179793 8.17273402 36.28724496 8.19179538 32.625 8.1875 C31.91617676 8.18669434 31.20735352 8.18588867 30.47705078 8.18505859 C21.6881531 8.08467029 13.30666044 6.93321244 5 4 C5 3.34 5 2.68 5 2 C2.69 2.33 0.38 2.66 -2 3 C-1.34 2.01 -0.68 1.02 0 0 Z " fill="#C4BE39" transform="translate(128,156)"/>
<path d="M0 0 C0.66 0 1.32 0 2 0 C0.61806082 3.24790781 -0.85418609 4.97508798 -3.6875 7.0625 C-4.33074219 7.54847656 -4.97398437 8.03445312 -5.63671875 8.53515625 C-11.53129791 12.18882102 -16.39984642 13.47183459 -23.1875 13.3125 C-24.23454102 13.31733398 -24.23454102 13.31733398 -25.30273438 13.32226562 C-29.0168738 13.28339261 -31.84683302 13.04507729 -35 11 C-33.80503906 11.04640625 -32.61007812 11.0928125 -31.37890625 11.140625 C-19.06373271 11.76551634 -19.06373271 11.76551634 -8 7 C-7.67 6.34 -7.34 5.68 -7 5 C-5.34467377 3.98133771 -3.67739862 2.98189187 -2 2 C-1.34 1.34 -0.68 0.68 0 0 Z " fill="#1D6594" transform="translate(415,166)"/>
<path d="M0 0 C0.99 0.33 1.98 0.66 3 1 C2.73445313 1.64066406 2.46890625 2.28132813 2.1953125 2.94140625 C1.84210938 3.80636719 1.48890625 4.67132813 1.125 5.5625 C0.77695312 6.40941406 0.42890625 7.25632812 0.0703125 8.12890625 C-0.28289062 9.07636719 -0.63609375 10.02382812 -1 11 C-1.37125 11.969375 -1.7425 12.93875 -2.125 13.9375 C-3.77861166 19.90760829 -3.20550034 26.30399312 -3.125 32.4375 C-3.11597656 33.74138672 -3.10695313 35.04527344 -3.09765625 36.38867188 C-3.07418397 39.59263832 -3.04134727 42.79622264 -3 46 C-3.66 45.67 -4.32 45.34 -5 45 C-5.07471341 40.58922656 -5.12886513 36.17879816 -5.16479492 31.76757812 C-5.17978888 30.27011693 -5.20019105 28.77269895 -5.22631836 27.27539062 C-5.48531431 12.0403349 -5.48531431 12.0403349 -2 5 C-1.4121875 3.515 -1.4121875 3.515 -0.8125 2 C-0.544375 1.34 -0.27625 0.68 0 0 Z " fill="#D9F2FA" transform="translate(356,99)"/>
<path d="M0 0 C3.39576062 -0.05830787 6.7913915 -0.09369946 10.1875 -0.125 C11.14720703 -0.14175781 12.10691406 -0.15851563 13.09570312 -0.17578125 C14.02705078 -0.18222656 14.95839844 -0.18867187 15.91796875 -0.1953125 C16.77156982 -0.20578613 17.6251709 -0.21625977 18.50463867 -0.22705078 C21.32876752 0.02991427 23.4163446 0.85587386 26 2 C27.99620166 2.67795528 29.99538701 3.34733531 32 4 C29.29400209 5.35299896 27.95618164 4.72444794 25 4.125 C16.7175016 2.63011005 8.39262594 2.35435532 0 2 C0 1.34 0 0.68 0 0 Z " fill="#FBFACC" transform="translate(90,75)"/>
<path d="M0 0 C0.944198 0.1071936 0.944198 0.1071936 1.9074707 0.21655273 C9.68422164 1.01997959 17.37459437 1.11725352 25.1875 1.0625 C26.42564453 1.05798828 27.66378906 1.05347656 28.93945312 1.04882812 C31.95968785 1.03716699 34.97981677 1.02080236 38 1 C35.84078962 3.43575354 35.34034284 3.95942066 31.953125 4.36328125 C21.12271865 4.21476302 10.627095 3.22567461 0 1 C0 0.67 0 0.34 0 0 Z " fill="#FEFEEC" transform="translate(137,186)"/>
<path d="M0 0 C6.33393082 -0.34548714 11.10261508 0.70657253 17 3 C17 3.66 17 4.32 17 5 C17.86625 5.0825 18.7325 5.165 19.625 5.25 C23.51107778 6.11357284 25.88500021 7.55250016 29 10 C29 10.66 29 11.32 29 12 C27.68 11.67 26.36 11.34 25 11 C25 10.34 25 9.68 25 9 C16.71170852 6.18790111 8.35825056 3.59464711 0 1 C0 0.67 0 0.34 0 0 Z " fill="#C5BF37" transform="translate(109,100)"/>
<path d="M0 0 C-1.33817805 3.97968575 -3.00337714 6.38748762 -6 9.3125 C-6.70125 10.00988281 -7.4025 10.70726562 -8.125 11.42578125 C-10 13 -10 13 -12 13 C-12.4021875 14.2065625 -12.4021875 14.2065625 -12.8125 15.4375 C-13.204375 16.283125 -13.59625 17.12875 -14 18 C-14.99 18.33 -15.98 18.66 -17 19 C-15.60305639 14.80165873 -13.62717931 12.16409471 -10.625 8.9375 C-9.85414062 8.10089844 -9.08328125 7.26429687 -8.2890625 6.40234375 C-7.53367187 5.60957031 -6.77828125 4.81679687 -6 4 C-5.28585938 3.23816406 -4.57171875 2.47632813 -3.8359375 1.69140625 C-2 0 -2 0 0 0 Z " fill="#7BBCD7" transform="translate(87,7)"/>
<path d="M0 0 C0 2 0 2 -1.0625 3.5625 C-5.5394516 6.88410925 -12.44067711 6.18573093 -17.8125 6.25 C-19.11832031 6.27578125 -20.42414063 6.3015625 -21.76953125 6.328125 C-23.36861328 6.16570312 -23.36861328 6.16570312 -25 6 C-25.66 5.01 -26.32 4.02 -27 3 C-25.78183594 3.03480469 -24.56367188 3.06960937 -23.30859375 3.10546875 C-21.68490972 3.13362512 -20.06121065 3.16092329 -18.4375 3.1875 C-17.63763672 3.21263672 -16.83777344 3.23777344 -16.01367188 3.26367188 C-10.14762115 3.33550107 -5.32704637 0 0 0 Z " fill="#CEEAF4" transform="translate(409,175)"/>
<path d="M0 0 C0.33 0 0.66 0 1 0 C1.33 6.27 1.66 12.54 2 19 C7.28 19.33 12.56 19.66 18 20 C18 20.66 18 21.32 18 22 C12.06 22 6.12 22 0 22 C0 14.74 0 7.48 0 0 Z " fill="#D6F3FC" transform="translate(316,62)"/>
<path d="M0 0 C1.125 1.75 1.125 1.75 2 4 C1.375 6.125 1.375 6.125 0 8 C-0.66 8.28875 -1.32 8.5775 -2 8.875 C-4.34687631 9.9199192 -4.34687631 9.9199192 -5.25 13.125 C-5.4975 14.07375 -5.745 15.0225 -6 16 C-6.66 16 -7.32 16 -8 16 C-7.46148032 10.72250715 -6.22656164 6.74354436 -4 2 C-3.34 2.33 -2.68 2.66 -2 3 C-1.34 2.01 -0.68 1.02 0 0 Z " fill="#186AA2" transform="translate(597,100)"/>
<path d="M0 0 C1.77734375 0.1484375 1.77734375 0.1484375 4 1 C6.75172028 4.75180787 8.83384502 8.88744489 11 13 C11.36867187 13.68320313 11.73734375 14.36640625 12.1171875 15.0703125 C14.2792695 19.49743278 14.25313593 23.19041724 14 28 C13.01 27.67 12.02 27.34 11 27 C11.11794922 25.25976562 11.11794922 25.25976562 11.23828125 23.484375 C11.23506999 18.62466497 9.597526 15.37785538 7.1875 11.25 C6.65286133 10.28126953 6.65286133 10.28126953 6.10742188 9.29296875 C4.27649529 6.02081738 2.34397123 2.92811548 0 0 Z " fill="#C1BB2D" transform="translate(160,133)"/>
<path d="M0 0 C0.86689453 -0.00773437 1.73378906 -0.01546875 2.62695312 -0.0234375 C3.45517578 -0.02085938 4.28339844 -0.01828125 5.13671875 -0.015625 C5.89041748 -0.01336914 6.64411621 -0.01111328 7.4206543 -0.00878906 C9.3125 0.25 9.3125 0.25 11.3125 2.25 C10.55066406 2.22679688 9.78882813 2.20359375 9.00390625 2.1796875 C3.19097494 2.0780882 -1.9507085 2.34483658 -7.57421875 3.8046875 C-10.97543572 4.52139496 -14.22366038 4.3759578 -17.6875 4.25 C-11.72140386 0.27260257 -7.00393864 -0.0633363 0 0 Z " fill="#1D6797" transform="translate(390.6875,81.75)"/>
<path d="M0 0 C-4.27834038 2.0428866 -8.39286048 2.48463093 -13.0625 2.75 C-14.12307617 2.83314453 -14.12307617 2.83314453 -15.20507812 2.91796875 C-19.02056597 3.15442152 -21.77375504 3.17876283 -25 1 C-25 0.67 -25 0.34 -25 0 C-21.58382503 -0.1972935 -18.16705407 -0.38112295 -14.75 -0.5625 C-13.29787109 -0.64661133 -13.29787109 -0.64661133 -11.81640625 -0.73242188 C-10.88183594 -0.78076172 -9.94726562 -0.82910156 -8.984375 -0.87890625 C-8.12553711 -0.9260376 -7.26669922 -0.97316895 -6.38183594 -1.02172852 C-4.07335735 -1.00066921 -2.20243733 -0.66206871 0 0 Z " fill="#CAE7F1" transform="translate(644,179)"/>
<path d="M0 0 C0.66 0 1.32 0 2 0 C2.04898437 1.12277344 2.09796875 2.24554688 2.1484375 3.40234375 C2.52202856 11.13386692 2.95321159 18.49510917 5 26 C4.01 25.67 3.02 25.34 2 25 C0.08041738 16.60182604 -0.22588024 8.59599799 0 0 Z " fill="#1B6493" transform="translate(370,122)"/>
<path d="M0 0 C-5.73796891 2.00161706 -11.24923469 2.41595957 -17.3046875 2.75390625 C-19.915759 2.70246459 -19.915759 2.70246459 -21 4 C-23.33297433 4.04092937 -25.66705225 4.04241723 -28 4 C-28 3.34 -28 2.68 -28 2 C-28.99 1.67 -29.98 1.34 -31 1 C-30.32420898 0.97494385 -29.64841797 0.9498877 -28.95214844 0.92407227 C-25.8845832 0.80789258 -22.81730842 0.68526563 -19.75 0.5625 C-18.68652344 0.52318359 -17.62304688 0.48386719 -16.52734375 0.44335938 C-14.99013672 0.38051758 -14.99013672 0.38051758 -13.421875 0.31640625 C-12.00793457 0.26141968 -12.00793457 0.26141968 -10.56542969 0.20532227 C-1.59485269 -0.51263122 -1.59485269 -0.51263122 0 0 Z " fill="#F0FBEE" transform="translate(60,186)"/>
<path d="M0 0 C0.33 0 0.66 0 1 0 C1.15855469 1.01578125 1.31710938 2.0315625 1.48046875 3.078125 C2.81694332 11.12442754 4.56447019 18.2782334 8.01171875 25.7421875 C9 28 9 28 9 30 C8.34 30 7.68 30 7 30 C1.04458534 21.58027583 -0.62223678 10.16320074 0 0 Z " fill="#84BFD8" transform="translate(79,90)"/>
<path d="M0 0 C0.33 0 0.66 0 1 0 C1.10957031 1.19496094 1.21914063 2.38992187 1.33203125 3.62109375 C2.13657885 11.8534324 3.13974343 19.19930026 6 27 C6.1875 30.5625 6.1875 30.5625 6 33 C3.20159124 30.20159124 2.75512842 26.99217867 1.875 23.25 C1.69614258 22.49662354 1.51728516 21.74324707 1.33300781 20.96704102 C-0.22596985 13.90487222 -0.41249545 7.23012859 0 0 Z " fill="#2E6F97" transform="translate(587,124)"/>
<path d="M0 0 C0.66 0 1.32 0 2 0 C2 12.87 2 25.74 2 39 C1.67 39 1.34 39 1 39 C1 27.12 1 15.24 1 3 C0.01 2.67 -0.98 2.34 -2 2 C-1.34 1.34 -0.68 0.68 0 0 Z " fill="#1E5D89" transform="translate(549,43)"/>
<path d="M0 0 C0.86109375 0.35320312 1.7221875 0.70640625 2.609375 1.0703125 C3.91648438 1.59238281 3.91648438 1.59238281 5.25 2.125 C7.359375 3.1953125 7.359375 3.1953125 8.359375 5.1953125 C4.11804161 4.74088392 0.10358503 4.18687493 -4.015625 3.0703125 C-7.44699598 1.8299158 -7.44699598 1.8299158 -9.640625 3.1953125 C-9.640625 2.2053125 -9.640625 1.2153125 -9.640625 0.1953125 C-6.31340308 -1.46829846 -3.50109567 -1.06690194 0 0 Z " fill="#FBFAD2" transform="translate(135.640625,154.8046875)"/>
<path d="M0 0 C0.79921875 0.00644531 1.5984375 0.01289062 2.421875 0.01953125 C3.246875 0.03628906 4.071875 0.05304688 4.921875 0.0703125 C5.76234375 0.07933594 6.6028125 0.08835937 7.46875 0.09765625 C9.53658104 0.12115433 11.60426495 0.15702342 13.671875 0.1953125 C13.671875 1.1853125 13.671875 2.1753125 13.671875 3.1953125 C14.661875 3.5253125 15.651875 3.8553125 16.671875 4.1953125 C15.681875 4.6903125 15.681875 4.6903125 14.671875 5.1953125 C13.434375 4.48375 13.434375 4.48375 12.171875 3.7578125 C7.0391575 1.46642076 1.8855107 1.2021107 -3.52734375 2.875 C-5.16254329 3.5715353 -6.75233698 4.37316223 -8.328125 5.1953125 C-8.328125 4.2053125 -8.328125 3.2153125 -8.328125 2.1953125 C-5.40988256 0.52856929 -3.35218121 -0.0478883 0 0 Z " fill="#196294" transform="translate(391.328125,98.8046875)"/>
<path d="M0 0 C0.66 0 1.32 0 2 0 C0.8829081 3.01614813 -0.6125776 4.64508669 -3.0625 6.625 C-6.00824713 8.67119397 -6.00824713 8.67119397 -7 11 C-4.69 11.66 -2.38 12.32 0 13 C0 13.33 0 13.66 0 14 C-6.75 13.125 -6.75 13.125 -9 12 C-9 10.68 -9 9.36 -9 8 C-8.34 8 -7.68 8 -7 8 C-7 7.01 -7 6.02 -7 5 C-5.68 5 -4.36 5 -3 5 C-2.67 4.01 -2.34 3.02 -2 2 C-1.34 2 -0.68 2 0 2 C0 1.34 0 0.68 0 0 Z " fill="#F8F6C4" transform="translate(118,164)"/>
<path d="M0 0 C0.52207031 0.28875 1.04414063 0.5775 1.58203125 0.875 C9.61829555 4.9283172 17.26884205 4.88781793 26 3 C26 3.66 26 4.32 26 5 C20.09876226 7.7866956 14.2522939 7.16720369 8 6 C5.08130514 4.89767946 2.69398775 3.60603116 0 2 C0 1.34 0 0.68 0 0 Z " fill="#186191" transform="translate(380,156)"/>
<path d="M0 0 C5.61 0 11.22 0 17 0 C17 0.66 17 1.32 17 2 C15.25 3.2890625 15.25 3.2890625 13 4.625 C12.2575 5.07101563 11.515 5.51703125 10.75 5.9765625 C9.88375 6.48316406 9.88375 6.48316406 9 7 C9 5.33333333 9 3.66666667 9 2 C6.03 1.67 3.06 1.34 0 1 C0 0.67 0 0.34 0 0 Z " fill="#36749A" transform="translate(439,163)"/>
<path d="M0 0 C0.66 0 1.32 0 2 0 C3.32 2.31 4.64 4.62 6 7 C10.41522109 5.73025028 10.41522109 5.73025028 14 3 C14.99 3.33 15.98 3.66 17 4 C15.59447701 5.03612271 14.17508306 6.05344925 12.75 7.0625 C11.56664063 7.91521484 11.56664063 7.91521484 10.359375 8.78515625 C8 10 8 10 5.84375 9.8984375 C2.46429444 8.2516689 1.61798302 5.29375114 0 2 C0 1.34 0 0.68 0 0 Z " fill="#7AB8D1" transform="translate(69,131)"/>
<path d="M0 0 C3 0.3125 3 0.3125 6 1 C6.33 1.66 6.66 2.32 7 3 C4.69 2.67 2.38 2.34 0 2 C-0.226875 2.721875 -0.45375 3.44375 -0.6875 4.1875 C-2.24831013 7.53209313 -4.3031287 9.51603959 -7 12 C-7.33 11.34 -7.66 10.68 -8 10 C-6.85500893 8.52018126 -5.708983 7.04116318 -4.5625 5.5625 C-3.60537109 4.32693359 -3.60537109 4.32693359 -2.62890625 3.06640625 C-1 1 -1 1 0 0 Z " fill="#D8F4FB" transform="translate(98,28)"/>
<path d="M0 0 C3.31603762 2.21069174 3.88244393 3.40687281 5.5 6.9375 C7.02073995 10.24705906 8.40538874 12.47327101 11 15 C11 15.66 11 16.32 11 17 C11.66 17 12.32 17 13 17 C12.67 17.99 12.34 18.98 12 20 C7.05141268 14.89454104 0 7.57786499 0 0 Z " fill="#17618E" transform="translate(355,150)"/>
<path d="M0 0 C0.66 0.33 1.32 0.66 2 1 C1.27683594 2.62808594 1.27683594 2.62808594 0.5390625 4.2890625 C-0.09909985 5.73431252 -0.73711277 7.17962853 -1.375 8.625 C-1.69210938 9.33785156 -2.00921875 10.05070312 -2.3359375 10.78515625 C-4.10596512 14.80459396 -5.68866374 18.80107481 -7 23 C-9.15581602 17.0471661 -5.35234082 10.90958176 -2.83984375 5.50390625 C-1.92054837 3.65543059 -0.96434943 1.8253757 0 0 Z " fill="#E5FAFE" transform="translate(66,28)"/>
<path d="M0 0 C0.66 1.32 1.32 2.64 2 4 C1.01 4.495 1.01 4.495 0 5 C-0.33 5.66 -0.66 6.32 -1 7 C-1.99 7 -2.98 7 -4 7 C-4.33 7.99 -4.66 8.98 -5 10 C-7.0625 10.6875 -7.0625 10.6875 -9 11 C-7.59155282 7.78475695 -5.89655214 5.67816132 -3.375 3.25 C-2.74335937 2.63640625 -2.11171875 2.0228125 -1.4609375 1.390625 C-0.73777344 0.70226562 -0.73777344 0.70226562 0 0 Z " fill="#286F9E" transform="translate(605,88)"/>
<path d="M0 0 C0.33 0 0.66 0 1 0 C1.66 7.26 2.32 14.52 3 22 C2.01 22 1.02 22 0 22 C0 14.74 0 7.48 0 0 Z " fill="#F4F2B4" transform="translate(89,78)"/>
<path d="M0 0 C0 4.22225848 -1.82726441 5.29347556 -4.75 8.25 C-5.63171875 9.16265625 -6.5134375 10.0753125 -7.421875 11.015625 C-8.27265625 11.67046875 -9.1234375 12.3253125 -10 13 C-11.32 12.67 -12.64 12.34 -14 12 C-9.38 8.04 -4.76 4.08 0 0 Z " fill="#EBF8E7" transform="translate(115,155)"/>
<path d="M0 0 C0.33 0 0.66 0 1 0 C1.96891192 5.37305699 1.96891192 5.37305699 2 8 C0.5625 10 0.5625 10 -1 11 C-1.99 10.67 -2.98 10.34 -4 10 C-2.25 2.25 -2.25 2.25 0 0 Z " fill="#196A9F" transform="translate(419,139)"/>
<path d="M0 0 C0.33 0.99 0.66 1.98 1 3 C-3.625 7.875 -3.625 7.875 -7 9 C-7.99 8.34 -8.98 7.68 -10 7 C-8.68 6.67 -7.36 6.34 -6 6 C-6 5.34 -6 4.68 -6 4 C-4.03852126 2.61061923 -2.03833424 1.2739589 0 0 Z " fill="#9FC799" transform="translate(94,142)"/>
<path d="M0 0 C0.66 0 1.32 0 2 0 C2.53414112 1.89212702 3.05178329 3.78891636 3.5625 5.6875 C3.85253906 6.74324219 4.14257812 7.79898438 4.44140625 8.88671875 C5.00124767 12.00695382 4.84690764 13.97693234 4 17 C3.67 17 3.34 17 3 17 C2.86722656 16.21753906 2.73445312 15.43507813 2.59765625 14.62890625 C2.42105469 13.61699219 2.24445312 12.60507813 2.0625 11.5625 C1.88847656 10.55316406 1.71445312 9.54382813 1.53515625 8.50390625 C1.25248903 6.0712562 1.25248903 6.0712562 0 5 C-0.04063832 3.33382885 -0.042721 1.66611905 0 0 Z " fill="#276D9A" transform="translate(660,102)"/>
<path d="M0 0 C1.31538327 4.15771494 0.34433068 6.8879297 -1 11 C-1.99 11 -2.98 11 -4 11 C-4.33 11.99 -4.66 12.98 -5 14 C-5.33 13.34 -5.66 12.68 -6 12 C-4.78515625 9.1796875 -4.78515625 9.1796875 -3.0625 5.875 C-2.49660156 4.77929688 -1.93070312 3.68359375 -1.34765625 2.5546875 C-0.90292969 1.71164063 -0.45820312 0.86859375 0 0 Z " fill="#7FBDD6" transform="translate(69,26)"/>
<path d="M0 0 C0.6290625 0.19335938 1.258125 0.38671875 1.90625 0.5859375 C7.24216385 2.2092125 12.57759268 3.69460565 18 5 C18 5.33 18 5.66 18 6 C13.0401459 6.16813065 9.53061639 6.20408365 5 4 C4.071875 3.62875 3.14375 3.2575 2.1875 2.875 C1.465625 2.58625 0.74375 2.2975 0 2 C0 1.34 0 0.68 0 0 Z " fill="#FBF9C8" transform="translate(123,180)"/>
<path d="M0 0 C0.33 1.32 0.66 2.64 1 4 C-7.19910847 10.03417533 -7.19910847 10.03417533 -10 11 C-11.34279852 10.70711603 -12.67851173 10.37756808 -14 10 C-12.730447 9.35165346 -11.45930294 8.70642185 -10.1875 8.0625 C-9.47980469 7.70285156 -8.77210938 7.34320313 -8.04296875 6.97265625 C-6 6 -6 6 -3 5 C-1.8499169 3.03327085 -1.8499169 3.03327085 -1 1 C-0.67 0.67 -0.34 0.34 0 0 Z " fill="#F1EFAF" transform="translate(192,174)"/>
<path d="M0 0 C4.81412645 5.96034703 6.39025198 10.45512842 6 18 C5.67 18 5.34 18 5 18 C4.731875 16.989375 4.46375 15.97875 4.1875 14.9375 C3.43934828 12.27860109 2.52203151 9.82400975 1.375 7.3125 C0 4 0 4 0 0 Z " fill="#F8F5B7" transform="translate(166,142)"/>
<path d="M0 0 C0.33 0.99 0.66 1.98 1 3 C-2.3 6.63 -5.6 10.26 -9 14 C-9 10.02785867 -7.56892582 8.89680688 -5.0625 5.875 C-4.33160156 4.98554688 -3.60070313 4.09609375 -2.84765625 3.1796875 C-1 1 -1 1 0 0 Z " fill="#E5F5E3" transform="translate(47,125)"/>
<path d="M0 0 C1.98 0.495 1.98 0.495 4 1 C4 8.59 4 16.18 4 24 C3.67 24 3.34 24 3 24 C3 16.74 3 9.48 3 2 C1.02 2.99 1.02 2.99 -1 4 C-0.67 2.68 -0.34 1.36 0 0 Z " fill="#E2F7FA" transform="translate(489,28)"/>
<path d="M0 0 C0.66 0.33 1.32 0.66 2 1 C-1.46941158 6.46695158 -4.18619408 9.15009514 -10 12 C-10.33 11.34 -10.66 10.68 -11 10 C-10.01 10 -9.02 10 -8 10 C-8 9.01 -8 8.02 -8 7 C-6.68 7 -5.36 7 -4 7 C-3.71125 6.21625 -3.4225 5.4325 -3.125 4.625 C-2 2 -2 2 0 0 Z " fill="#C2BB2E" transform="translate(192,171)"/>
<path d="M0 0 C2.0625 1.75 2.0625 1.75 4 4 C4 6.96930008 3.00273133 7.99682814 1.0625 10.25 C-1 12 -1 12 -3 12 C-3 11.34 -3 10.68 -3 10 C-2.34 10 -1.68 10 -1 10 C-0.37542727 6.56484998 0 3.50935186 0 0 Z " fill="#87BFD5" transform="translate(89,122)"/>
<path d="M0 0 C9.80843419 0.61970499 9.80843419 0.61970499 14 4 C14 4.66 14 5.32 14 6 C12.41375765 5.57316761 10.8310902 5.13303842 9.25 4.6875 C8.36828125 4.44386719 7.4865625 4.20023437 6.578125 3.94921875 C3.94227495 2.97874669 2.14592674 1.78994356 0 0 Z " fill="#F7F5BE" transform="translate(126,80)"/>
<path d="M0 0 C1.93912584 0.78767592 3.87624766 1.5802867 5.8125 2.375 C6.89144531 2.81585938 7.97039063 3.25671875 9.08203125 3.7109375 C12 5 12 5 15 7 C13.02 7.33 11.04 7.66 9 8 C9 7.34 9 6.68 9 6 C8.443125 5.896875 7.88625 5.79375 7.3125 5.6875 C4.5230899 4.85821592 2.3860936 3.65700944 0 2 C0 1.34 0 0.68 0 0 Z " fill="#D8F2FA" transform="translate(604,172)"/>
<path d="M0 0 C0.99 0 1.98 0 3 0 C4.08318169 5.3212615 5.152874 10.63486869 6 16 C5.34 15.67 4.68 15.34 4 15 C3.5 13 3.5 13 3 11 C2.34 10.67 1.68 10.34 1 10 C1 7.36 1 4.72 1 2 C0.34 1.67 -0.32 1.34 -1 1 C-0.67 0.67 -0.34 0.34 0 0 Z " fill="#A5C9A0" transform="translate(43,96)"/>
<path d="M0 0 C5.94 0 11.88 0 18 0 C18.33 0.99 18.66 1.98 19 3 C18.48953125 2.83628906 17.9790625 2.67257813 17.453125 2.50390625 C14.18708172 1.83301519 11.0813253 1.9066544 7.75 1.9375 C5.85507812 1.95103516 5.85507812 1.95103516 3.921875 1.96484375 C2.95765625 1.97644531 1.9934375 1.98804687 1 2 C0.67 1.34 0.34 0.68 0 0 Z " fill="#1D6795" transform="translate(619,99)"/>
<path d="M0 0 C0.66 0.66 1.32 1.32 2 2 C1.34 3.03125 0.68 4.0625 0 5.125 C-1.96619301 8.5502055 -2.46437576 11.0063685 -2 15 C-1.67 15.66 -1.34 16.32 -1 17 C-1.99 16.67 -2.98 16.34 -4 16 C-4.46450943 9.49686791 -3.32575612 5.5825192 0 0 Z " fill="#ECFAE9" transform="translate(33,144)"/>
<path d="M0 0 C0.99 0 1.98 0 3 0 C2.835 0.495 2.67 0.99 2.5 1.5 C1.78038093 5.09809533 1.8221964 8.32539233 2 12 C2.66 12.66 3.32 13.32 4 14 C2.68 13.67 1.36 13.34 0 13 C-0.19466332 11.20909747 -0.38051213 9.41723495 -0.5625 7.625 C-0.66691406 6.62726563 -0.77132813 5.62953125 -0.87890625 4.6015625 C-1 2 -1 2 0 0 Z " fill="#A6CAA1" transform="translate(28,148)"/>
<path d="M0 0 C0.89203125 0.00902344 1.7840625 0.01804687 2.703125 0.02734375 C3.37859375 0.03894531 4.0540625 0.05054687 4.75 0.0625 C4.75 0.3925 4.75 0.7225 4.75 1.0625 C3.82767578 1.13597656 3.82767578 1.13597656 2.88671875 1.2109375 C2.07847656 1.28570312 1.27023437 1.36046875 0.4375 1.4375 C-0.76326172 1.54191406 -0.76326172 1.54191406 -1.98828125 1.6484375 C-4.52224441 1.95814426 -4.52224441 1.95814426 -7.25 4.0625 C-10.4375 4.1875 -10.4375 4.1875 -13.25 4.0625 C-8.88011742 0.4729536 -5.58532401 -0.07349111 0 0 Z " fill="#C0E0F0" transform="translate(629.25,99.9375)"/>
<path d="M0 0 C0.66 0.33 1.32 0.66 2 1 C0.60369274 3.65298379 -0.46969463 5.62365425 -2.9375 7.375 C-5 8 -5 8 -9 7 C-6.03 4.69 -3.06 2.38 0 0 Z " fill="#216999" transform="translate(307,47)"/>
<path d="M0 0 C3.95820859 0.56545837 6.6659053 1.80902348 10 4 C9.67 4.99 9.34 5.98 9 7 C7.4972763 6.02501855 5.99788037 5.04490611 4.5 4.0625 C3.6646875 3.51722656 2.829375 2.97195312 1.96875 2.41015625 C1.3190625 1.94480469 0.669375 1.47945313 0 1 C0 0.67 0 0.34 0 0 Z " fill="#F6F4BD" transform="translate(154,94)"/>
<path d="M0 0 C1 4 1 4 1 7 C0.34 7 -0.32 7 -1 7 C-1.33 7.66 -1.66 8.32 -2 9 C-2.99 8.67 -3.98 8.34 -5 8 C-3.35 5.36 -1.7 2.72 0 0 Z " fill="#14659D" transform="translate(414,149)"/>
<path d="M0 0 C1.46067199 0.45082469 2.91848032 0.91093537 4.375 1.375 C5.18710938 1.63023438 5.99921875 1.88546875 6.8359375 2.1484375 C9 3 9 3 11 5 C6.12335991 5.34833144 3.22949995 4.41685712 -1 2 C-0.67 1.34 -0.34 0.68 0 0 Z " fill="#F5F3BA" transform="translate(123,105)"/>
<path d="M0 0 C0.99 3.3 1.98 6.6 3 10 C2.34 10 1.68 10 1 10 C0.7525 8.88625 0.505 7.7725 0.25 6.625 C-0.61005339 2.95384802 -0.61005339 2.95384802 -3.125 1.5625 C-3.74375 1.376875 -4.3625 1.19125 -5 1 C-3 0 -3 0 0 0 Z " fill="#306F99" transform="translate(655,156)"/>
<path d="M0 0 C0.33 1.32 0.66 2.64 1 4 C-0.4375 6.25 -0.4375 6.25 -2 8 C-2.33 7.67 -2.66 7.34 -3 7 C-3.99 8.485 -3.99 8.485 -5 10 C-5.66 9.67 -6.32 9.34 -7 9 C-4.69 6.03 -2.38 3.06 0 0 Z " fill="#A7CBA1" transform="translate(109,125)"/>
<path d="M0 0 C0.66 0 1.32 0 2 0 C1.67 1.65 1.34 3.3 1 5 C1.66 5 2.32 5 3 5 C3 5.66 3 6.32 3 7 C1.02 6.34 -0.96 5.68 -3 5 C-1.125 1.125 -1.125 1.125 0 0 Z " fill="#C4BF41" transform="translate(114,170)"/>
<path d="M0 0 C1.32 0.33 2.64 0.66 4 1 C2.35 2.98 0.7 4.96 -1 7 C-1.66 6.01 -2.32 5.02 -3 4 C-2.34 4 -1.68 4 -1 4 C-0.67 2.68 -0.34 1.36 0 0 Z " fill="#99C291" transform="translate(45,122)"/>
<path d="M0 0 C4 1 4 1 5.8125 3.3125 C7 6 7 6 6 10 C4.02 6.7 2.04 3.4 0 0 Z " fill="#FCFBD0" transform="translate(180,118)"/>
<path d="M0 0 C3.28788824 3.11016455 5.83735988 6.01618925 8 10 C7.34 10 6.68 10 6 10 C6 9.34 6 8.68 6 8 C5.01 7.67 4.02 7.34 3 7 C3 6.34 3 5.68 3 5 C2.01 4.67 1.02 4.34 0 4 C0 2.68 0 1.36 0 0 Z " fill="#CBC347" transform="translate(172,109)"/>
<path d="M0 0 C1 3 1 3 0 6 C-0.99 6.66 -1.98 7.32 -3 8 C-3.33 8.99 -3.66 9.98 -4 11 C-4.66 11 -5.32 11 -6 11 C-4.54955729 6.89041233 -2.48889248 3.56741255 0 0 Z " fill="#2C719B" transform="translate(363,93)"/>
<path d="M0 0 C2.25 0.25 2.25 0.25 4 1 C1.03 3.475 1.03 3.475 -2 6 C-2.66 5.34 -3.32 4.68 -4 4 C-2.25 1.9375 -2.25 1.9375 0 0 Z " fill="#9EC698" transform="translate(114,152)"/>
<path d="M0 0 C0.66 0.33 1.32 0.66 2 1 C0.75453595 4.73639216 -0.63404953 5.18756513 -4 7 C-4.66 6.34 -5.32 5.68 -6 5 C-4.02 3.35 -2.04 1.7 0 0 Z " fill="#226C99" transform="translate(706,32)"/>
<path d="M0 0 C0.33 0.66 0.66 1.32 1 2 C-0.32 3.65 -1.64 5.3 -3 7 C-4.32 6.67 -5.64 6.34 -7 6 C-4.69 4.02 -2.38 2.04 0 0 Z " fill="#D8F0F9" transform="translate(416,168)"/>
<path d="M0 0 C0.8353125 0.556875 0.8353125 0.556875 1.6875 1.125 C-4.9375 4.125 -4.9375 4.125 -8.3125 4.125 C-7.3125 1.125 -7.3125 1.125 -5 -0.1875 C-2.3125 -0.875 -2.3125 -0.875 0 0 Z " fill="#DEF4FA" transform="translate(653.3125,154.875)"/>
<path d="M0 0 C0.66 0.33 1.32 0.66 2 1 C0.02 3.31 -1.96 5.62 -4 8 C-4.33 7.01 -4.66 6.02 -5 5 C-3.35 3.35 -1.7 1.7 0 0 Z " fill="#DDF4FB" transform="translate(413,148)"/>
<path d="M0 0 C1 2 1 2 0.375 5 C-1 8 -1 8 -3.625 9.375 C-4.40875 9.58125 -5.1925 9.7875 -6 10 C-5.01 8.02 -4.02 6.04 -3 4 C-2.34 4 -1.68 4 -1 4 C-0.67 2.68 -0.34 1.36 0 0 Z " fill="#E1F4DE" transform="translate(129,136)"/>
<path d="M0 0 C2.72107452 2.3500189 3.96702492 4.55674975 5 8 C4.67 8.99 4.34 9.98 4 11 C3.32591692 9.73308493 2.66099503 8.46129251 2 7.1875 C1.62875 6.47980469 1.2575 5.77210937 0.875 5.04296875 C0 3 0 3 0 0 Z " fill="#85BDD6" transform="translate(64,120)"/>
<path d="M0 0 C0.99 0 1.98 0 3 0 C3 1.65 3 3.3 3 5 C0 5 0 5 -3 4 C-1.6875 2 -1.6875 2 0 0 Z " fill="#1E6897" transform="translate(312,43)"/>
<path d="M0 0 C0.99 0.33 1.98 0.66 3 1 C1.37660195 2.70884005 -0.29319053 4.37446717 -2 6 C-2.66 6 -3.32 6 -4 6 C-3.67 4.35 -3.34 2.7 -3 1 C-2.01 1 -1.02 1 0 1 C0 0.67 0 0.34 0 0 Z " fill="#216E9E" transform="translate(445,169)"/>
<path d="M0 0 C0.66 0.33 1.32 0.66 2 1 C-2.39453125 5.00390625 -2.39453125 5.00390625 -4 6 C-4.99 5.67 -5.98 5.34 -7 5 C-4.63707344 2.47411298 -3.33537489 1.11179163 0 0 Z " fill="#DBF1F9" transform="translate(542,47)"/>
<path d="M0 0 C2.31 0.33 4.62 0.66 7 1 C7 1.99 7 2.98 7 4 C6.67 3.34 6.34 2.68 6 2 C3.69 2.66 1.38 3.32 -1 4 C-0.67 2.68 -0.34 1.36 0 0 Z " fill="#A8C9A3" transform="translate(115,114)"/>
<path d="M0 0 C0.33 0.99 0.66 1.98 1 3 C-0.65 4.65 -2.3 6.3 -4 8 C-4 4.09161134 -2.49432124 2.88405893 0 0 Z " fill="#C9E6F3" transform="translate(615,104)"/>
<path d="M0 0 C0.66 1.32 1.32 2.64 2 4 C1.01 4.495 1.01 4.495 0 5 C-0.33 5.66 -0.66 6.32 -1 7 C-1.99 6.67 -2.98 6.34 -4 6 C-2.68 4.02 -1.36 2.04 0 0 Z " fill="#186DA5" transform="translate(605,88)"/>
<path d="M0 0 C0.33 0.99 0.66 1.98 1 3 C0.67 3.66 0.34 4.32 0 5 C-3.0625 5.625 -3.0625 5.625 -6 6 C-4 4 -2 2 0 0 Z " fill="#2C74A0" transform="translate(370,87)"/>
<path d="M0 0 C3.08089673 2.77280706 4.68775452 5.06326356 6 9 C5.01 8.34 4.02 7.68 3 7 C3 6.34 3 5.68 3 5 C2.01 4.67 1.02 4.34 0 4 C0 2.68 0 1.36 0 0 Z " fill="#C9C449" transform="translate(180,119)"/>
<path d="M0 0 C0 2.97 0 5.94 0 9 C-0.33 9 -0.66 9 -1 9 C-1 7.02 -1 5.04 -1 3 C-2.32 2.67 -3.64 2.34 -5 2 C-2 0 -2 0 0 0 Z " fill="#457998" transform="translate(439,71)"/>
</svg>
