<svg xmlns="http://www.w3.org/2000/svg" width="3888" height="1412" viewBox="0 0 3888 1412" version="1.1"><path d="M 571.293 354.038 C 458.331 362.376, 357.123 423.512, 296.770 519.867 C 270.516 561.783, 253.829 608.512, 246.340 661.088 C 244.096 676.844, 243.753 732.067, 245.806 747 C 255.625 818.412, 280.528 876.874, 323.710 929.885 C 334.823 943.528, 360.658 969.301, 373.514 979.569 C 420.470 1017.071, 470.587 1040.623, 527.500 1051.932 C 551.651 1056.731, 568.591 1058.336, 595.500 1058.374 C 621.011 1058.410, 633.785 1057.382, 656.845 1053.436 C 793.738 1030.013, 905.110 926.469, 938.585 791.500 C 950.727 742.543, 952.256 689.354, 942.932 640.205 C 913.941 487.374, 786.630 370.599, 632 355.005 C 616.943 353.487, 585.542 352.987, 571.293 354.038 M 580 535.373 C 572.763 537.480, 567.707 540.509, 563.116 545.490 C 556.269 552.918, 554.541 557.746, 554.525 569.500 C 554.512 578.240, 554.844 580.213, 557.157 585.155 C 563.872 599.509, 579.987 607.223, 600.029 605.677 C 623.822 603.842, 637.577 588.378, 635.669 565.604 C 634.582 552.622, 626.333 541.593, 614.202 536.903 C 607.109 534.161, 587.220 533.271, 580 535.373 M 473.109 567.129 C 461.685 569.026, 452.939 576.437, 449.312 587.294 C 447.745 591.986, 447.517 599.850, 447 667 C 446.483 734.150, 446.255 742.014, 444.688 746.706 C 442.063 754.562, 437.447 760.026, 430.500 763.500 C 424.793 766.353, 423.889 766.500, 412 766.500 C 401.534 766.500, 398.411 766.124, 392.810 764.188 C 384.250 761.231, 375.100 755.304, 368.229 748.267 L 362.813 742.719 359.656 744.255 C 351.545 748.204, 343.960 757.168, 339.988 767.500 C 336.721 775.999, 336.669 790.101, 339.875 798.240 C 349.436 822.513, 378.040 835, 424.082 835 C 476.695 835, 509.561 813.896, 521.944 772.162 C 527.247 754.292, 527.284 753.669, 527.715 674.500 C 527.996 622.955, 527.781 598.562, 527.006 594.111 C 525.008 582.641, 518.837 573.585, 510.505 569.899 C 502.404 566.316, 485.533 565.066, 473.109 567.129 M 748 626.648 C 728.312 629.605, 710.372 636.144, 697.330 645.117 C 679.368 657.475, 665.493 677.696, 659.278 700.571 C 656.754 709.863, 656.582 711.815, 656.603 731 C 656.625 749.995, 656.822 752.234, 659.291 761.500 C 670.472 803.464, 701.632 829.174, 748.430 835.046 C 759.990 836.497, 780.595 835.766, 791.975 833.502 C 832.712 825.396, 861.349 799.235, 871.064 761.251 C 878.516 732.114, 874.271 698.091, 860.240 674.500 C 845.156 649.138, 820.741 633.059, 789.047 627.615 C 780.459 626.139, 755.327 625.547, 748 626.648 M 576.500 629.729 C 569.558 632.079, 561.914 639.816, 559.403 647.032 C 557.596 652.223, 557.500 656.394, 557.500 729.500 C 557.500 812.284, 557.416 810.851, 562.766 818.818 C 569.123 828.282, 577.422 831.438, 596 831.453 C 615 831.469, 623.803 827.323, 629.398 815.724 C 633.779 806.643, 634.144 798.929, 633.768 723.500 C 633.452 660.322, 633.249 652.993, 631.683 648.294 C 629.251 640.995, 624.366 635.014, 617.964 631.500 C 612.627 628.570, 612.139 628.495, 597 628.268 C 584.615 628.083, 580.495 628.376, 576.500 629.729 M 755 685.390 C 744.425 687.742, 736.312 693.117, 730.212 701.813 C 716.994 720.657, 718.642 748.168, 733.960 764.365 C 746.604 777.733, 767.984 780.845, 785.850 771.917 C 811.368 759.166, 817.040 719.062, 796.440 697.039 C 786.518 686.432, 770.529 681.938, 755 685.390" stroke="none" fill="#0c247c" fill-rule="evenodd"/><path d="M 3503 531.011 C 3477.543 533.495, 3452.616 542.915, 3436.026 556.321 C 3415.961 572.535, 3406 593.718, 3406 620.170 C 3406 635.669, 3407.975 645.122, 3413.696 657 C 3421.257 672.702, 3435.556 685.346, 3454.962 693.491 C 3458.516 694.983, 3479.261 701.086, 3501.062 707.054 C 3522.863 713.022, 3543.586 718.991, 3547.113 720.318 C 3563.827 726.609, 3574.096 734.128, 3577.802 742.786 C 3583.932 757.106, 3580.308 770.004, 3567.775 778.480 C 3544.266 794.380, 3489.529 790.997, 3471.586 772.535 C 3467.008 767.824, 3463.012 759.311, 3462.986 754.212 C 3462.979 752.721, 3462.701 750.487, 3462.370 749.250 L 3461.767 747 3428.734 747 L 3395.701 747 3396.324 755.750 C 3397.788 776.276, 3404.453 791.468, 3417.973 805.093 C 3433.480 820.720, 3449.962 829.616, 3474.429 835.567 C 3515.579 845.575, 3565.041 841.597, 3596.500 825.749 C 3618.223 814.805, 3635.037 796.150, 3641.480 775.841 C 3645.360 763.613, 3646.294 756.018, 3645.753 741.126 C 3644.977 719.774, 3640.238 707.650, 3627.311 693.947 C 3611.627 677.321, 3589.280 667.382, 3537.500 654 C 3496.376 643.372, 3483.859 638.845, 3477.500 632.297 C 3473.018 627.682, 3471.609 623.232, 3471.549 613.500 C 3471.506 606.483, 3471.845 604.913, 3474.309 600.721 C 3477.659 595.023, 3484.712 590.077, 3494 586.915 C 3499.080 585.186, 3503.558 584.602, 3514.500 584.244 C 3548.694 583.123, 3565.914 592.050, 3570.450 613.250 L 3571.038 616 3603.519 616 L 3636 616 3636 610.565 C 3636 598.925, 3631.546 584.250, 3624.886 573.945 C 3616.778 561.400, 3605.933 551.920, 3591.304 544.590 C 3568.946 533.387, 3533.897 527.997, 3503 531.011 M 2501.500 532.422 C 2448.396 540.344, 2409.747 572.004, 2390.602 623.267 C 2378.644 655.287, 2376.444 699.106, 2385.082 733.248 C 2398.116 784.772, 2435.504 823.448, 2484.354 835.938 C 2513.680 843.437, 2548.829 842.455, 2575.934 833.380 C 2610.457 821.820, 2638.990 796.330, 2655.029 762.719 C 2678.068 714.436, 2677.411 652.401, 2653.366 605.846 C 2633.810 567.982, 2600.813 543.067, 2558.116 533.928 C 2545.621 531.254, 2514.823 530.434, 2501.500 532.422 M 1070 686 L 1070 834 1104 834 L 1138 834 1138 782.073 L 1138 730.147 1182.250 729.748 C 1226.254 729.352, 1226.557 729.335, 1236.705 726.701 C 1256.422 721.584, 1268.743 715.088, 1281.070 703.310 C 1294.205 690.762, 1301.873 676.251, 1305.956 656.217 C 1308.378 644.331, 1308.665 624.589, 1306.583 613 C 1300.543 579.370, 1280.036 555.252, 1248.262 544.409 C 1229.649 538.057, 1228.736 538, 1145.369 538 L 1070 538 1070 686 M 1355 686 L 1355 834 1460.500 834 L 1566 834 1566 805 L 1566 776 1494.500 776 L 1423 776 1423 657 L 1423 538 1389 538 L 1355 538 1355 686 M 1635.159 683.737 C 1604.782 763.907, 1579.665 830.518, 1579.344 831.763 L 1578.760 834.027 1612.995 833.763 L 1647.231 833.500 1658.313 802.242 L 1669.395 770.983 1723.836 771.242 L 1778.277 771.500 1784.434 789 C 1787.820 798.625, 1792.758 812.688, 1795.408 820.250 L 1800.225 834 1835.113 834 C 1854.301 834, 1870 833.650, 1870 833.222 C 1870 832.794, 1845.294 766.306, 1815.098 685.472 L 1760.197 538.500 1725.294 538.237 L 1690.390 537.975 1635.159 683.737 M 1852.235 566.750 L 1852.500 595.500 1896.250 595.761 L 1940 596.021 1940 715.011 L 1940 834 1974 834 L 2008 834 2008 714.500 L 2008 595 2052 595 L 2096 595 2096 566.500 L 2096 538 1973.985 538 L 1851.969 538 1852.235 566.750 M 2137 686 L 2137 834 2171 834 L 2205 834 2205 773.500 L 2205 713 2266.500 713 L 2328 713 2328 686.500 L 2328 660 2266.500 660 L 2205 660 2205 627.500 L 2205 595 2276.500 595 L 2348 595 2348 566.500 L 2348 538 2242.500 538 L 2137 538 2137 686 M 2724 685.969 L 2724 834 2758 834 L 2792 834 2792 777 L 2792 720 2828.290 720 C 2868.973 720, 2872.494 720.433, 2881.800 726.584 C 2887.636 730.441, 2893.627 738.707, 2896.855 747.354 C 2901.067 758.637, 2907.869 792.634, 2912.291 824.500 L 2913.540 833.500 2946.770 833.763 C 2965.047 833.908, 2980 833.763, 2980 833.440 C 2980 831.698, 2971.608 783.179, 2969.421 772.279 C 2963.893 744.720, 2958.153 726.593, 2951.837 716.748 C 2946.121 707.838, 2936.603 700.938, 2924.636 697.031 L 2920.771 695.769 2927.136 693.230 C 2946.605 685.461, 2961.661 667.213, 2968.166 643.500 C 2971.107 632.782, 2971.377 607.994, 2968.663 598 C 2965.447 586.161, 2958.540 573.740, 2950.303 564.984 C 2938.956 552.922, 2928.372 546.506, 2911 541.161 L 2902.500 538.545 2813.250 538.242 L 2724 537.938 2724 685.969 M 3030 685.990 L 3030 834 3061.995 834 L 3093.991 834 3094.245 732.295 L 3094.500 630.590 3129.447 732.295 L 3164.394 834 3190.447 833.987 L 3216.500 833.973 3251.500 731.237 L 3286.500 628.500 3286.755 731.250 L 3287.009 834 3319.005 834 L 3351 834 3351 686 L 3351 538 3303.250 538.015 L 3255.500 538.030 3224.004 637.515 C 3206.681 692.232, 3192.280 737, 3192 737 C 3191.721 737, 3176.608 692.337, 3158.415 637.750 L 3125.337 538.500 3077.669 538.240 L 3030 537.981 3030 685.990 M 2515.404 589.001 C 2494.725 591.238, 2475.667 602.743, 2464.319 619.839 C 2444.165 650.203, 2441.428 707.564, 2458.463 742.581 C 2468.537 763.291, 2483.642 776.542, 2503.535 782.123 C 2513.892 785.028, 2532.931 785.240, 2543.500 782.567 C 2563.878 777.413, 2580.827 764.189, 2590.452 745.936 C 2599.143 729.455, 2603.152 711.034, 2603.170 687.500 C 2603.198 651.836, 2594.719 626.720, 2576.500 608.499 C 2567.936 599.934, 2562.125 596.284, 2551.071 592.524 C 2541.219 589.173, 2526.891 587.758, 2515.404 589.001 M 2791 631 L 2791 671 2828.750 670.992 C 2849.567 670.988, 2869.316 670.528, 2872.778 669.966 C 2886.086 667.806, 2896.893 659.577, 2900.680 648.720 C 2903.295 641.220, 2903.256 620.673, 2900.613 613.079 C 2898.316 606.481, 2892.281 599.683, 2885.809 596.403 C 2876.081 591.474, 2871.472 591.031, 2829.750 591.015 L 2791 591 2791 631 M 1138 633.922 L 1138 676 1170.042 676 C 1205.703 676, 1212.765 675.200, 1223.697 669.920 C 1231.197 666.298, 1237.071 659.963, 1240.178 652.147 C 1242.084 647.353, 1242.423 644.611, 1242.423 634 C 1242.423 623.430, 1242.081 620.639, 1240.204 615.921 C 1237.149 608.242, 1231.921 602.495, 1224.634 598.807 C 1212.953 592.894, 1211.579 592.719, 1173.250 592.263 L 1138 591.843 1138 633.922 M 1706.243 666.346 C 1696.201 695.031, 1687.989 718.837, 1687.993 719.250 C 1687.997 719.663, 1704.404 720, 1724.453 720 L 1760.905 720 1743.460 668.424 C 1733.865 640.057, 1725.674 616.251, 1725.257 615.520 C 1724.801 614.720, 1717.248 634.908, 1706.243 666.346" stroke="none" fill="#241c24" fill-rule="evenodd"/></svg>