<?xml version="1.0" encoding="UTF-8" standalone="no"?>
<svg
   viewBox="0 0 362.08 100.47"
   version="1.1"
   id="svg28"
   sodipodi:docname="logo-dark.svg"
   inkscape:version="1.2.2 (b0a8486541, 2022-12-01)"
   xmlns:inkscape="http://www.inkscape.org/namespaces/inkscape"
   xmlns:sodipodi="http://sodipodi.sourceforge.net/DTD/sodipodi-0.dtd"
   xmlns="http://www.w3.org/2000/svg"
   xmlns:svg="http://www.w3.org/2000/svg"
   xmlns:rdf="http://www.w3.org/1999/02/22-rdf-syntax-ns#"
   xmlns:cc="http://creativecommons.org/ns#"
   xmlns:dc="http://purl.org/dc/elements/1.1/">
  <sodipodi:namedview
     id="namedview30"
     pagecolor="#505050"
     bordercolor="#eeeeee"
     borderopacity="1"
     inkscape:showpageshadow="0"
     inkscape:pageopacity="0"
     inkscape:pagecheckerboard="0"
     inkscape:deskcolor="#505050"
     showgrid="false"
     inkscape:zoom="3.7477907"
     inkscape:cx="162.36232"
     inkscape:cy="50.162887"
     inkscape:window-width="2560"
     inkscape:window-height="1403"
     inkscape:window-x="2560"
     inkscape:window-y="0"
     inkscape:window-maximized="1"
     inkscape:current-layer="Layer_1-2" />
  <defs
     id="defs4">
    <style
       id="style2">.cls-1{fill:#fff;}.cls-2{fill:#31a9ba;}</style>
  </defs>
  <title
     id="title6">JLINC Logo H White</title>
  <g
     id="Layer_2"
     data-name="Layer 2">
    <g
       id="Layer_1-2"
       data-name="Layer 1">
      <path
         class="cls-1"
         d="M157.32,29.36h8.35V57.2q0,13.9-13.92,13.91H137.84q-14.22,0-14-13.91l0-1.4h8.35v.25q0,6.72,6.68,6.71h11.66q6.7,0,6.71-6.73Z"
         id="path8"
         style="fill:#333333" />
      <path
         class="cls-1"
         d="M223.12,62.76v8.35H181.37V29.36h8.35v33.4Z"
         id="path10"
         style="fill:#333333" />
      <path
         class="cls-1"
         d="M247.18,71.11h-8.35V29.36h8.35Z"
         id="path12"
         style="fill:#333333" />
      <path
         class="cls-1"
         d="M271.23,42V71.11h-8.35V29.36h8.51l24.89,29.09V29.36h8.35V71.11h-8.49Z"
         id="path14"
         style="fill:#333333" />
      <path
         class="cls-1"
         d="M362.08,62.76v8.35H334.25q-13.92,0-13.92-13.91V43.28q0-13.92,13.92-13.92h27.83v8.35H335.39q-6.7,0-6.71,6.68V56.05q0,6.72,6.74,6.71Z"
         id="path16"
         style="fill:#333333" />
      <path
         class="cls-2"
         d="M8.52,41.22l9,9L36.46,69.16l7.76-7.76L25.3,42.48l-9.42-9.42q-4.5-4.52-5.14-9.26c-.48-3.11,1-6.36,4.35-9.73Q19.22,9.95,23.64,10t9.26,4.83l4,4,7.2-7.21L38.52,6a20.93,20.93,0,0,0-7.91-4.9A17.1,17.1,0,0,0,20,.61Q14,2,8.05,8a28.56,28.56,0,0,0-6.33,9.5,18.2,18.2,0,0,0-.79,11.4Q2.34,35,8.52,41.22Z"
         id="path18" />
      <path
         class="cls-2"
         d="M61.4,56.25,42.48,75.17l-9.42,9.42q-4.52,4.51-9.26,5.14t-9.73-4.35Q9.95,81.27,10,76.83t4.83-9.26l4-3.95-7.21-7.21L6,62a21,21,0,0,0-4.9,7.92A17.09,17.09,0,0,0,.61,80.48q1.43,6,7.36,12a28.87,28.87,0,0,0,9.5,6.33,18.2,18.2,0,0,0,11.4.79Q35,98.13,41.22,92l9-9L69.16,64Z"
         id="path20" />
      <path
         class="cls-2"
         d="M92,59.26l-9-9L64,31.31l-7.76,7.76L75.17,58l9.42,9.42q4.51,4.52,5.14,9.26t-4.35,9.74c-2.74,2.74-5.59,4.12-8.55,4.11s-6-1.55-9.26-4.83l-3.95-4-7.21,7.2L62,94.48a21.11,21.11,0,0,0,7.92,4.91,17.06,17.06,0,0,0,10.6.47q6-1.42,12-7.36A28.87,28.87,0,0,0,98.76,83a18.16,18.16,0,0,0,.79-11.39Q98.13,65.43,92,59.26Z"
         id="path22" />
      <path
         class="cls-2"
         d="M39.07,44.22,58,25.3l9.42-9.42q4.52-4.5,9.26-5.14c3.12-.48,6.36,1,9.74,4.35,2.74,2.75,4.11,5.59,4.11,8.55s-1.55,6-4.83,9.26l-4,4,7.2,7.2,5.54-5.54a21.07,21.07,0,0,0,4.91-7.91A17.17,17.17,0,0,0,99.86,20Q98.44,14,92.5,8.05A28.56,28.56,0,0,0,83,1.72,18.19,18.19,0,0,0,71.6.93Q65.44,2.34,59.26,8.52l-9,9L31.31,36.46Z"
         id="path24" />
      <path
         style="fill:none;stroke-width:2.01694"
         d="m 135.54652,70.848218 c -7.51755,-0.73046 -11.45579,-5.107468 -11.46948,-12.747321 l -0.004,-2.201297 h 3.96503 3.96502 l 0.14795,1.433485 c 0.28415,2.753158 1.78689,4.626485 4.1972,5.232255 0.80048,0.20118 3.83821,0.274733 9.09369,0.220181 l 7.89168,-0.08191 1.29783,-0.802852 c 0.92097,-0.569728 1.49577,-1.187337 1.9795,-2.126949 l 0.68167,-1.324095 0.0795,-14.482837 0.0795,-14.482839 h 4.00125 4.00124 l -0.0834,16.076138 c -0.0812,15.646031 -0.0986,16.116159 -0.65116,17.571993 -1.51311,3.986687 -3.9361,6.139862 -8.24407,7.326041 -1.27585,0.351298 -3.24639,0.453166 -10.12261,0.523298 -4.6961,0.0479 -9.55896,-0.01209 -10.80637,-0.133289 z"
         id="path382" />
      <path
         style="fill:none;stroke-width:2.01694"
         d="M 181.44023,50.296299 V 29.484037 h 4.13577 4.13577 v 16.676492 16.676492 h 16.67649 16.67649 v 4.135769 4.13577 h -20.81226 -20.81226 z"
         id="path453" />
      <path
         style="fill:none;stroke-width:2.01694"
         d="m 134.87946,70.668773 c -2.91871,-0.435104 -5.27425,-1.507672 -7.13637,-3.249461 -2.26723,-2.120724 -3.23897,-4.666474 -3.50603,-9.185003 L 124.09907,55.8996 h 3.84387 3.84387 l 0.16348,1.000589 c 0.35105,2.148549 0.44606,2.441049 1.14094,3.512723 0.46657,0.71956 1.1806,1.337794 2.03925,1.765681 l 1.32129,0.658428 8.55268,-0.0089 8.55269,-0.0089 1.06729,-0.733549 c 0.58701,-0.403451 1.45753,-1.313563 1.93447,-2.022469 l 0.86718,-1.288922 10e-4,-11.643389 c 5.4e-4,-6.403875 0.0789,-12.994196 0.17406,-14.645168 l 0.17296,-3.001769 h 3.78524 3.78524 l -0.0926,12.207192 c -0.15847,20.890433 -0.12631,20.230556 -1.08594,22.281247 -1.45251,3.103954 -3.65132,5.011315 -7.08338,6.144516 -1.53551,0.506998 -2.38797,0.552043 -11.53058,0.60929 -5.42987,0.034 -10.2327,0.0081 -10.67296,-0.05751 z"
         id="path455" />
      <path
         style="fill:none;stroke-width:2.01694"
         d="m 134.87946,70.668773 c -2.91871,-0.435104 -5.27425,-1.507672 -7.13637,-3.249461 -2.26723,-2.120724 -3.23897,-4.666474 -3.50603,-9.185003 L 124.09907,55.8996 h 3.84387 3.84387 l 0.16348,1.000589 c 0.35105,2.148549 0.44606,2.441049 1.14094,3.512723 0.46657,0.71956 1.1806,1.337794 2.03925,1.765681 l 1.32129,0.658428 8.55268,-0.0089 8.55269,-0.0089 1.06729,-0.733549 c 0.58701,-0.403451 1.45753,-1.313563 1.93447,-2.022469 l 0.86718,-1.288922 10e-4,-11.643389 c 5.4e-4,-6.403875 0.0789,-12.994196 0.17406,-14.645168 l 0.17296,-3.001769 h 3.78524 3.78524 l -0.0926,12.207192 c -0.15847,20.890433 -0.12631,20.230556 -1.08594,22.281247 -1.45251,3.103954 -3.65132,5.011315 -7.08338,6.144516 -1.53551,0.506998 -2.38797,0.552043 -11.53058,0.60929 -5.42987,0.034 -10.2327,0.0081 -10.67296,-0.05751 z"
         id="path457" />
      <path
         style="fill:none;stroke-width:2.01694"
         d="m 134.87946,70.668773 c -2.91871,-0.435104 -5.27425,-1.507672 -7.13637,-3.249461 -2.26723,-2.120724 -3.23897,-4.666474 -3.50603,-9.185003 L 124.09907,55.8996 h 3.84387 3.84387 l 0.16348,1.000589 c 0.35105,2.148549 0.44606,2.441049 1.14094,3.512723 0.46657,0.71956 1.1806,1.337794 2.03925,1.765681 l 1.32129,0.658428 8.55268,-0.0089 8.55269,-0.0089 1.06729,-0.733549 c 0.58701,-0.403451 1.45753,-1.313563 1.93447,-2.022469 l 0.86718,-1.288922 10e-4,-11.643389 c 5.4e-4,-6.403875 0.0789,-12.994196 0.17406,-14.645168 l 0.17296,-3.001769 h 3.78524 3.78524 l -0.0926,12.207192 c -0.15847,20.890433 -0.12631,20.230556 -1.08594,22.281247 -1.45251,3.103954 -3.65132,5.011315 -7.08338,6.144516 -1.53551,0.506998 -2.38797,0.552043 -11.53058,0.60929 -5.42987,0.034 -10.2327,0.0081 -10.67296,-0.05751 z"
         id="path459" />
    </g>
  </g>
  <metadata
     id="metadata477">
    <rdf:RDF>
      <cc:Work
         rdf:about="">
        <dc:title>JLINC Logo H White</dc:title>
      </cc:Work>
    </rdf:RDF>
  </metadata>
</svg>
