<svg xmlns="http://www.w3.org/2000/svg" width="4900" height="3849" viewBox="0 0 4900 3849" version="1.1"><path d="M 2393.136 3373.080 C 2339.306 3376.504, 2296.403 3394.592, 2266.056 3426.657 C 2240.731 3453.417, 2225.873 3487.170, 2220.422 3530.325 C 2218.360 3546.652, 2217.327 3638.917, 2218.874 3668.500 C 2222 3728.242, 2236.406 3765.529, 2268.934 3798.072 C 2301.926 3831.081, 2343.138 3846.580, 2403.500 3848.681 C 2469.255 3850.969, 2525.639 3832.829, 2562.903 3797.398 C 2589.744 3771.876, 2604.523 3741.574, 2608.094 3704.739 C 2609.239 3692.936, 2609.196 3692, 2607.354 3688.450 C 2603.519 3681.060, 2603.153 3681, 2562.016 3681.002 C 2515.102 3681.004, 2517.920 3679.814, 2511.063 3702.500 C 2506.131 3718.816, 2503.227 3725.389, 2496.421 3735.642 C 2484.650 3753.375, 2468.138 3763.722, 2443 3769.116 C 2428.899 3772.142, 2399.943 3772.438, 2387.127 3769.687 C 2346.388 3760.941, 2324.856 3736.575, 2316.294 3689.530 C 2314.922 3681.990, 2314.581 3670.432, 2314.229 3619.500 C 2313.942 3577.905, 2314.179 3554.291, 2314.974 3545.270 C 2320.273 3485.174, 2347.941 3454.567, 2401.141 3449.948 C 2424.820 3447.891, 2450.043 3451.884, 2467.429 3460.440 C 2490.236 3471.664, 2502.282 3488.464, 2512.519 3523.325 C 2516.076 3535.441, 2519.124 3538.710, 2528.159 3540.102 C 2532.030 3540.699, 2548.151 3540.997, 2566.659 3540.814 C 2597.733 3540.508, 2598.588 3540.445, 2602.144 3538.234 C 2607.771 3534.735, 2609.368 3530.350, 2608.564 3520.604 C 2604.051 3465.877, 2575.137 3423.144, 2525.077 3397.214 C 2496.480 3382.402, 2469.048 3375.343, 2431 3373.005 C 2413.764 3371.946, 2410.876 3371.951, 2393.136 3373.080 M 4194.136 3373.080 C 4143.443 3376.304, 4102.996 3392.174, 4073.156 3420.547 C 4039.594 3452.458, 4023.290 3492.190, 4019.898 3550.327 C 4018.508 3574.150, 4019.276 3675.248, 4020.952 3689 C 4024.164 3715.364, 4030.436 3737.339, 4040.501 3757.500 C 4048.679 3773.880, 4057.542 3786.257, 4069.851 3798.485 C 4082.299 3810.851, 4094.311 3819.426, 4110.500 3827.503 C 4140.712 3842.577, 4170.699 3848.554, 4215.500 3848.432 C 4242.278 3848.360, 4254.408 3847.147, 4275.683 3842.416 C 4344.534 3827.106, 4393.977 3781.784, 4406.502 3722.500 C 4407.316 3718.650, 4408.472 3710.245, 4409.072 3703.823 C 4410.294 3690.741, 4409.492 3687.383, 4404.217 3683.500 C 4401.638 3681.602, 4399.671 3681.485, 4365.500 3681.200 C 4345.700 3681.034, 4328.028 3681.169, 4326.229 3681.499 C 4321.146 3682.431, 4316.527 3687.144, 4314.735 3693.227 C 4309.264 3711.800, 4307.625 3716.432, 4303.673 3724.500 C 4293.824 3744.604, 4281.629 3756.004, 4261.356 3764.057 C 4240.222 3772.453, 4206.141 3774.269, 4182.006 3768.287 C 4146.628 3759.518, 4125.054 3733.657, 4117.528 3691 C 4113.719 3669.407, 4113.624 3553.603, 4117.398 3531.470 C 4126.164 3480.052, 4153.054 3454.210, 4202.237 3449.939 C 4221.940 3448.228, 4245.485 3451.085, 4261 3457.069 C 4276.958 3463.224, 4289.003 3472.759, 4297.591 3486.035 C 4303.522 3495.203, 4307.150 3503.497, 4312.107 3519.221 C 4317.204 3535.387, 4319.625 3538.503, 4328.309 3540.073 C 4331.851 3540.713, 4346.879 3541.002, 4366.809 3540.812 C 4398.770 3540.507, 4399.581 3540.449, 4403.144 3538.234 C 4409.344 3534.378, 4410.378 3530.752, 4409.077 3517.427 C 4406.413 3490.138, 4399.421 3470.167, 4385.018 3448.699 C 4373.037 3430.843, 4357.889 3416.331, 4338.903 3404.523 C 4308.324 3385.504, 4274.856 3375.615, 4232.351 3373.040 C 4213.930 3371.924, 4212.275 3371.926, 4194.136 3373.080 M 10.001 3380.123 C 6.774 3381.410, 3.182 3384.786, 1.405 3388.200 C -0.710 3392.264, -0.704 3828.752, 1.411 3832.800 C 2.187 3834.285, 4.241 3836.850, 5.976 3838.500 L 9.131 3841.500 158.903 3841.760 L 308.676 3842.019 311.996 3839.760 C 313.822 3838.517, 316.257 3836.229, 317.408 3834.676 C 319.419 3831.961, 319.500 3830.715, 319.500 3802.499 C 319.500 3774.281, 319.419 3773.036, 317.408 3770.323 C 316.257 3768.770, 313.828 3766.488, 312.010 3765.250 L 308.704 3763 201.352 3763 L 94 3763 93.978 3577.250 C 93.957 3395.435, 93.915 3391.409, 92.012 3387.216 C 90.528 3383.946, 89.054 3382.472, 85.784 3380.988 C 81.800 3379.180, 79.086 3379.047, 47 3379.085 C 26.520 3379.110, 11.484 3379.532, 10.001 3380.123 M 548.115 3380.501 C 541.696 3382.503, 537.464 3387.167, 534.096 3395.951 C 505.785 3469.790, 374.562 3823.673, 374.227 3827.084 C 373.669 3832.778, 375.699 3837.033, 380.344 3839.903 C 383.613 3841.924, 384.962 3842, 417.552 3842 C 449.969 3842, 451.550 3841.912, 455.750 3839.879 C 458.244 3838.672, 461.148 3836.194, 462.491 3834.129 C 463.788 3832.133, 471.232 3813.850, 479.033 3793.500 C 486.835 3773.150, 493.892 3754.813, 494.717 3752.750 L 496.217 3749 593.859 3749.020 L 691.500 3749.041 707.461 3790.726 C 724.192 3834.421, 725.905 3837.809, 732.702 3840.649 C 735.200 3841.693, 743.575 3842, 769.518 3842 C 806.617 3842, 807.259 3841.903, 811.040 3835.701 C 815.355 3828.625, 818.680 3838.284, 733.020 3609.042 C 689.032 3491.319, 652.145 3393.244, 651.049 3391.097 C 648.443 3385.987, 642.826 3381.445, 637.436 3380.088 C 630.679 3378.387, 553.756 3378.742, 548.115 3380.501 M 831.450 3380.402 C 827.434 3382.158, 823.227 3387.262, 822.485 3391.279 C 822.158 3393.051, 822.027 3407.180, 822.195 3422.679 C 822.485 3449.450, 822.605 3450.999, 824.592 3453.679 C 825.743 3455.230, 828.172 3457.512, 829.990 3458.750 L 833.296 3461 896.640 3461 L 959.984 3461 960.242 3646.427 L 960.500 3831.854 962.592 3834.677 C 963.743 3836.230, 966.195 3838.528, 968.041 3839.785 L 971.398 3842.069 1007.949 3841.785 C 1048.928 3841.466, 1047.459 3841.730, 1051.932 3833.864 L 1054 3830.228 1054 3645.614 L 1054 3461 1117.352 3461 L 1180.704 3461 1184.078 3458.726 C 1185.934 3457.476, 1188.476 3454.934, 1189.726 3453.078 C 1191.965 3449.757, 1192 3449.241, 1192 3420 C 1192 3390.842, 1191.959 3390.235, 1189.750 3386.990 C 1188.513 3385.172, 1186.230 3382.743, 1184.677 3381.592 L 1181.854 3379.500 1008.177 3379.285 C 865.313 3379.107, 833.959 3379.306, 831.450 3380.402 M 1300.500 3380.412 C 1296.822 3382.046, 1293.486 3385.568, 1292.067 3389.315 C 1291.323 3391.278, 1291 3458.522, 1291 3611.417 L 1291 3830.704 1293.274 3834.078 C 1294.524 3835.934, 1297.066 3838.476, 1298.922 3839.726 L 1302.296 3842 1455.413 3842 C 1602.526 3842, 1608.667 3841.927, 1611.983 3840.149 C 1613.882 3839.130, 1616.350 3837.072, 1617.468 3835.575 C 1619.400 3832.987, 1619.500 3831.445, 1619.500 3804.177 C 1619.500 3775.752, 1619.480 3775.471, 1617.171 3772.235 C 1612.009 3764.998, 1621.319 3765.530, 1494.750 3765.233 L 1381 3764.967 1381 3705.510 L 1381 3646.054 1484.750 3645.777 C 1587.357 3645.503, 1588.539 3645.477, 1591.997 3643.446 C 1593.920 3642.316, 1596.507 3639.887, 1597.747 3638.048 C 1599.942 3634.790, 1600 3634.031, 1600 3608.500 C 1600 3582.969, 1599.942 3582.211, 1597.750 3578.999 C 1596.513 3577.187, 1593.932 3574.870, 1592.016 3573.852 C 1588.689 3572.084, 1583.838 3572, 1484.766 3572 L 1381 3572 1381 3514.013 L 1381 3456.026 1492.927 3455.763 C 1604.208 3455.502, 1604.870 3455.488, 1607.615 3453.438 C 1609.134 3452.304, 1611.304 3450.135, 1612.438 3448.617 C 1614.382 3446.016, 1614.516 3444.326, 1614.783 3419.179 C 1615.060 3393.096, 1615.015 3392.400, 1612.783 3388.004 C 1611.278 3385.040, 1609.137 3382.746, 1606.500 3381.271 L 1602.500 3379.033 1453 3379.056 C 1330.619 3379.074, 1302.956 3379.320, 1300.500 3380.412 M 1742.761 3381.062 C 1740.476 3382.269, 1738.240 3384.569, 1737.011 3386.978 C 1735.014 3390.892, 1735 3392.493, 1735 3610.559 C 1735 3853.873, 1734.456 3834.335, 1741.373 3839.270 C 1744.434 3841.453, 1745.198 3841.506, 1777.500 3841.793 C 1795.650 3841.954, 1811.478 3841.841, 1812.673 3841.543 C 1815.688 3840.790, 1820.939 3836.196, 1822.336 3833.089 C 1823.196 3831.176, 1823.631 3793.245, 1824 3687.846 L 1824.500 3545.192 1918.416 3688.555 C 1970.070 3767.405, 2013.945 3833.490, 2015.916 3835.411 C 2022.519 3841.844, 2023.510 3842, 2057.820 3842 C 2088.206 3842, 2088.758 3841.964, 2092.048 3839.747 C 2093.887 3838.507, 2096.316 3835.920, 2097.446 3833.997 L 2099.500 3830.500 2099.500 3610.500 L 2099.500 3390.500 2097.212 3386.821 C 2095.869 3384.661, 2093.158 3382.287, 2090.647 3381.071 C 2086.598 3379.111, 2084.683 3379, 2055 3379 C 2025.788 3379, 2023.350 3379.136, 2019.544 3380.979 C 2017.296 3382.067, 2014.566 3384.430, 2013.478 3386.229 C 2011.537 3389.438, 2011.491 3392.270, 2011 3536.646 L 2010.500 3683.792 1916 3536.699 C 1864.025 3455.798, 1820.154 3388.049, 1818.509 3386.146 C 1812.580 3379.289, 1811.130 3379.041, 1777 3379.066 C 1748.588 3379.087, 1746.244 3379.224, 1742.761 3381.062 M 2728.415 3380.416 C 2724.523 3382.117, 2721.298 3386.178, 2719.994 3391.021 C 2719.322 3393.517, 2719.069 3467.961, 2719.241 3612.640 C 2719.500 3830.379, 2719.501 3830.502, 2721.554 3833.997 C 2722.684 3835.920, 2725.113 3838.507, 2726.952 3839.747 L 2730.296 3842 2884 3842 L 3037.704 3842 3041.010 3839.750 C 3048.453 3834.684, 3048.463 3834.642, 3048.826 3807.066 C 3049.045 3790.355, 3048.771 3780.865, 3047.986 3777.948 C 3046.537 3772.567, 3041.652 3767.552, 3036.453 3766.109 C 3033.693 3765.342, 2998.921 3765.009, 2921.250 3765.006 L 2810 3765 2810 3705.527 L 2810 3646.054 2913.250 3645.777 C 3015.231 3645.503, 3016.549 3645.475, 3020.500 3643.442 C 3023.220 3642.043, 3025.234 3639.962, 3026.792 3636.942 C 3029.029 3632.606, 3029.077 3631.897, 3028.792 3607.321 C 3028.471 3579.612, 3028.489 3579.694, 3021.615 3574.562 C 3018.873 3572.514, 3018.132 3572.498, 2914.427 3572.236 L 2810 3571.973 2810 3513.986 L 2810 3456 2920.343 3456 L 3030.685 3456 3034.987 3453.725 C 3042.744 3449.623, 3043 3448.463, 3043 3417.413 C 3043 3390.938, 3042.947 3390.218, 3040.750 3386.990 C 3039.512 3385.172, 3037.230 3382.743, 3035.677 3381.592 L 3032.854 3379.500 2882.177 3379.284 C 2757.612 3379.105, 2730.965 3379.302, 2728.415 3380.416 M 3137.001 3380.123 C 3135.626 3380.672, 3133.446 3382.106, 3132.155 3383.310 C 3127.124 3388.008, 3127 3388.897, 3127 3420.302 C 3127 3449.228, 3127.037 3449.759, 3129.274 3453.078 C 3130.524 3454.934, 3133.066 3457.476, 3134.922 3458.726 L 3138.296 3461 3201.648 3461 L 3265 3461 3265 3645.550 C 3265 3847.689, 3264.525 3832.365, 3270.975 3838.500 L 3274.129 3841.500 3310.865 3841.785 L 3347.602 3842.069 3350.959 3839.785 C 3352.805 3838.528, 3355.257 3836.230, 3356.408 3834.677 L 3358.500 3831.854 3358.758 3646.427 L 3359.016 3461 3422.360 3461 L 3485.704 3461 3489.010 3458.750 C 3490.828 3457.512, 3493.257 3455.230, 3494.408 3453.677 C 3496.424 3450.956, 3496.500 3449.738, 3496.500 3420.099 L 3496.500 3389.344 3493.806 3385.813 C 3488.163 3378.413, 3503.780 3378.993, 3311.849 3379.063 C 3199.822 3379.105, 3138.625 3379.476, 3137.001 3380.123 M 3603.761 3381.062 C 3601.476 3382.269, 3599.240 3384.569, 3598.011 3386.978 C 3596.014 3390.892, 3596 3392.493, 3596 3610.559 C 3596 3853.873, 3595.456 3834.335, 3602.373 3839.270 L 3605.500 3841.500 3759.271 3841.759 C 3913.010 3842.019, 3913.044 3842.018, 3917.097 3839.951 C 3924.380 3836.235, 3924.953 3833.628, 3924.978 3804.066 C 3924.999 3780.360, 3924.859 3778.341, 3922.929 3774.353 C 3921.713 3771.842, 3919.339 3769.131, 3917.179 3767.788 L 3913.500 3765.500 3799.750 3765.233 L 3686 3764.967 3686 3705.510 L 3686 3646.054 3789.750 3645.777 C 3891.443 3645.505, 3893.567 3645.460, 3896.895 3643.500 C 3898.763 3642.400, 3901.238 3640.231, 3902.395 3638.679 C 3904.388 3636.008, 3904.516 3634.479, 3904.797 3609.930 C 3905.138 3580.198, 3904.841 3578.750, 3897.532 3574.466 L 3893.324 3572 3789.662 3572 L 3686 3572 3686 3514 L 3686 3456 3796.288 3456 L 3906.576 3456 3911.015 3453.750 C 3919.250 3449.576, 3919.500 3448.508, 3919.500 3417.500 C 3919.500 3390.725, 3919.480 3390.468, 3917.095 3386.632 C 3915.614 3384.248, 3913.120 3382.050, 3910.595 3380.904 C 3906.661 3379.117, 3900.639 3379.045, 3757 3379.066 C 3610.107 3379.088, 3607.435 3379.123, 3603.761 3381.062 M 4529.415 3380.402 C 4525.518 3382.124, 4522.296 3386.185, 4520.994 3391.020 C 4520.322 3393.517, 4520.069 3468.151, 4520.241 3613.218 L 4520.500 3831.656 4523.302 3835.329 C 4528.440 3842.065, 4528.011 3842, 4567.082 3842 C 4601.081 3842, 4602.378 3841.929, 4605.663 3839.899 C 4607.533 3838.744, 4609.948 3836.062, 4611.031 3833.939 C 4612.947 3830.184, 4613 3827.630, 4613 3739.540 L 4613 3649 4710 3649 L 4807 3649 4807 3739.550 C 4807 3838.614, 4806.629 3832.463, 4812.975 3838.500 L 4816.129 3841.500 4852.365 3841.785 L 4888.600 3842.070 4891.958 3839.785 C 4893.805 3838.528, 4896.257 3836.230, 4897.408 3834.677 L 4899.500 3831.853 4899.500 3611.104 L 4899.500 3390.354 4896.804 3386.280 C 4892.055 3379.103, 4890.603 3378.878, 4851.322 3379.211 C 4818.600 3379.488, 4817.026 3379.588, 4814.383 3381.562 C 4812.866 3382.696, 4810.696 3384.866, 4809.562 3386.385 C 4807.521 3389.118, 4807.497 3390.030, 4807.234 3477.573 L 4806.968 3566 4710 3566 L 4613.032 3566 4612.766 3477.573 C 4612.503 3390.030, 4612.479 3389.118, 4610.438 3386.385 C 4609.304 3384.866, 4607.134 3382.696, 4605.616 3381.562 C 4602.966 3379.582, 4601.459 3379.491, 4567.678 3379.270 C 4539.770 3379.087, 4531.863 3379.321, 4529.415 3380.402 M 592.273 3473.545 C 591.688 3475.170, 575.165 3520.316, 555.557 3573.870 C 535.949 3627.423, 520.080 3671.414, 520.293 3671.626 C 520.506 3671.839, 553.746 3671.898, 594.160 3671.756 L 667.640 3671.500 631.328 3573 C 611.357 3518.825, 594.639 3473.620, 594.178 3472.545 C 593.415 3470.769, 593.241 3470.860, 592.273 3473.545" stroke="none" fill="#242444" fill-rule="evenodd"/><path d="M 2856.688 1.502 C 2838.930 6.383, 2823.094 22.605, 2819.079 40.028 C 2818.444 42.784, 2818.040 64.504, 2818.024 96.645 C 2818.001 145.683, 2818.117 149.168, 2819.964 155.145 C 2825.034 171.554, 2836.252 183.467, 2852.621 189.827 L 2859.500 192.500 2927.250 192.789 L 2995 193.079 2995 268.468 L 2995 343.856 2989.750 344.431 C 2986.863 344.747, 2975.950 345.933, 2965.500 347.067 C 2741.553 371.360, 2525.817 462.182, 2349.500 606.395 C 2326.679 625.061, 2307.163 642.342, 2275.744 671.705 C 2248.087 697.551, 2236.086 707.656, 2216.063 721.955 C 2130.644 782.955, 1998.167 825.765, 1856.500 838.148 C 1848.136 838.879, 1794.469 839.533, 1706 839.980 C 1555.835 840.740, 1565.783 840.331, 1547.379 846.509 C 1494.575 864.235, 1458 915.147, 1458 970.925 C 1458 1004.195, 1470.306 1033.885, 1494.449 1058.865 C 1510.893 1075.878, 1530.211 1088.131, 1552.060 1095.404 C 1575.042 1103.054, 1547.708 1102.381, 1861 1103.011 C 2124.511 1103.541, 2141.942 1103.682, 2148.805 1105.340 C 2176.907 1112.131, 2199.619 1124.548, 2218.536 1143.465 C 2236.805 1161.733, 2248.193 1182.706, 2253.576 1208 C 2256.241 1220.527, 2256.045 1243.190, 2253.154 1256.734 C 2240.834 1314.438, 2195.607 1355.071, 2137.144 1360.957 C 2130.041 1361.672, 1844.493 1362, 1228.070 1362 C 408.329 1362, 328.524 1362.141, 319.926 1363.602 C 294.125 1367.988, 271.503 1379.357, 251.945 1397.767 C 206.873 1440.196, 197.529 1507.531, 229.619 1558.645 C 250.643 1592.132, 283.681 1614.424, 324.500 1622.665 C 333.143 1624.409, 366.882 1624.502, 1175.500 1624.991 L 2017.500 1625.500 2027.536 1628.255 C 2040.818 1631.901, 2051.694 1636.146, 2061.690 1641.584 C 2096.807 1660.689, 2122.160 1694.686, 2129.655 1732.725 C 2131.962 1744.430, 2131.970 1765.530, 2129.673 1777.182 C 2120.328 1824.577, 2086.513 1863.556, 2041.824 1878.443 C 2022.324 1884.939, 2053 1884.346, 1703.500 1884.982 L 1386.500 1885.558 1377.218 1887.708 C 1363.888 1890.794, 1353.409 1894.472, 1343.423 1899.567 C 1307.867 1917.710, 1282.271 1951.457, 1273.872 1991.266 C 1270.833 2005.672, 1270.833 2028.328, 1273.872 2042.734 C 1279.395 2068.909, 1290.818 2089.897, 1309.960 2109.040 C 1328.872 2127.951, 1349.389 2139.144, 1377 2145.613 C 1383.937 2147.238, 1397.214 2147.420, 1554 2148.027 C 1668.933 2148.472, 1728.007 2149.059, 1737.500 2149.850 C 1786.641 2153.945, 1814.417 2157.209, 1850 2163.071 C 1997.274 2187.331, 2117.849 2237.453, 2201.889 2309.349 C 2214.787 2320.383, 2240.610 2345.546, 2254.376 2360.493 C 2272.950 2380.661, 2307.230 2412.493, 2338.500 2438.610 C 2429.534 2514.642, 2533.204 2577.496, 2643.500 2623.528 C 2724.995 2657.540, 2810.384 2682.214, 2899.500 2697.503 C 2927.817 2702.361, 2951.602 2705.501, 2990.500 2709.517 C 3027.866 2713.374, 3116.372 2715.264, 3157.524 2713.082 C 3305.360 2705.246, 3441.413 2673.030, 3574.992 2614.229 C 3602.737 2602.016, 3655.618 2575.324, 3682.021 2560.205 C 3757.544 2516.960, 3824.901 2468.298, 3890.872 2409.322 C 3913.518 2389.077, 3960.077 2342.518, 3980.322 2319.872 C 4092.718 2194.146, 4175.675 2051.275, 4227.310 1894.500 C 4276.235 1745.952, 4294.844 1590.072, 4282.464 1432.500 C 4263.853 1195.638, 4173.869 969.168, 4024.594 783.500 C 3891.508 617.967, 3714.751 489.698, 3517.500 415.510 C 3476.574 400.117, 3425.397 384.267, 3383.500 374.009 C 3324.757 359.627, 3279.012 351.922, 3207.750 344.410 L 3202 343.804 3202 268.402 L 3202 193 3267.250 192.985 C 3321.246 192.973, 3333.580 192.716, 3338.760 191.494 C 3359.062 186.708, 3375.563 169.398, 3378.939 149.348 C 3379.734 144.631, 3380 126.938, 3379.796 92.500 L 3379.500 42.500 3376.862 35.284 C 3370.712 18.461, 3357.087 5.862, 3340.320 1.495 C 3335.299 0.187, 3304.934 0.011, 3098.040 0.089 C 2905.166 0.162, 2860.612 0.423, 2856.688 1.502 M 3055.703 518.069 C 3034.178 519.046, 3011.161 520.832, 3003.500 522.120 C 2985.085 525.218, 2967.928 540.127, 2961.498 558.619 C 2957.376 570.476, 2957.370 575.674, 2961.448 603 C 2965.784 632.048, 2966.118 633.456, 2970.839 642.500 C 2975.899 652.195, 2984.604 660.676, 2994.661 665.710 C 3007.085 671.928, 3012.401 672.559, 3038.455 670.902 C 3067.366 669.063, 3133.801 669.074, 3162.884 670.922 C 3180.746 672.057, 3186.504 672.100, 3191.384 671.136 C 3211.859 667.089, 3229.399 650.124, 3234.430 629.500 C 3236 623.064, 3238.008 594.132, 3237.988 578.216 C 3237.967 561.049, 3233.061 548.863, 3221.583 537.470 C 3213.794 529.738, 3205.505 524.834, 3196.387 522.562 C 3179.039 518.240, 3104.454 515.858, 3055.703 518.069 M 3486.275 607.539 C 3472.894 611.143, 3457.455 623.233, 3451.690 634.621 C 3445.409 647.026, 3431.841 683.649, 3430.740 691.169 C 3428.263 708.075, 3434.353 725.624, 3447.040 738.145 C 3453.217 744.241, 3455.702 745.744, 3477.137 756.348 C 3516.269 775.708, 3546.911 793.474, 3582.500 817.438 C 3601.980 830.554, 3608.554 833.502, 3620.750 834.586 C 3634.232 835.786, 3651.390 829.834, 3662.087 820.247 C 3667.640 815.270, 3694.253 776.261, 3697.854 767.820 C 3706.539 747.460, 3702.130 722.351, 3687.200 707.143 C 3677.976 697.747, 3629.790 666.572, 3590.500 644.582 C 3570.934 633.631, 3523.443 610.217, 3516.357 608.029 C 3508.525 605.610, 3494.298 605.378, 3486.275 607.539 M 717 840.660 C 698.882 843.589, 687.480 847.199, 673 854.592 C 629.165 876.972, 601.907 921.321, 601.760 970.500 C 601.676 998.326, 608.772 1021.791, 624.286 1044.992 C 630.741 1054.645, 649.355 1073.259, 659.008 1079.714 C 674.612 1090.148, 692.076 1097.302, 710.442 1100.783 C 718.837 1102.374, 736.273 1102.500, 948.500 1102.500 C 1165.332 1102.500, 1177.972 1102.404, 1186.374 1100.695 C 1220.597 1093.732, 1248.381 1076.591, 1268.267 1050.173 C 1307.909 997.508, 1302.897 925.168, 1256.379 878.589 C 1238.317 860.504, 1217.860 849.301, 1190 842.239 C 1184.065 840.735, 1163.319 840.577, 951.500 840.424 C 823.900 840.331, 718.375 840.438, 717 840.660 M 3183.045 892.157 C 3174.916 896.385, 3170.750 901.680, 3167.993 911.286 C 3166.854 915.254, 3145.480 980.375, 3120.495 1056 C 3072.061 1202.601, 3063.534 1228.838, 3043.150 1294 C 3006.457 1411.298, 2980.437 1504.601, 2976.915 1531.500 C 2970.429 1581.047, 2997.440 1627.144, 3044.850 1647.436 C 3074.525 1660.137, 3111.484 1661.777, 3143 1651.790 C 3185.814 1638.224, 3214.300 1607.564, 3223.636 1565 C 3225.433 1556.804, 3225.500 1544.949, 3225.500 1233 L 3225.500 909.500 3222.799 904.380 C 3217.732 894.775, 3209.543 889.871, 3197.500 889.227 C 3189.964 888.825, 3189.125 888.995, 3183.045 892.157 M 3868.131 923.541 C 3864.628 924.301, 3859.003 926.221, 3855.631 927.808 C 3848.536 931.146, 3813.407 958.529, 3806.817 965.859 C 3797.571 976.142, 3793 988.482, 3793 1003.158 C 3793 1017.974, 3795.499 1023.914, 3812.440 1049.359 C 3835.935 1084.648, 3849.931 1108.918, 3870.980 1150.873 C 3881.963 1172.763, 3883.835 1175.870, 3889.354 1181.373 C 3900.078 1192.064, 3912.992 1197.327, 3928.500 1197.327 C 3940.974 1197.327, 3945.827 1195.661, 3972.500 1182.225 C 3993.842 1171.474, 3996.013 1170.129, 4002.612 1163.569 C 4017.038 1149.230, 4022.789 1130.159, 4018.446 1111.062 C 4016.744 1103.581, 4000.585 1069.937, 3985.516 1042.500 C 3962.807 1001.154, 3929.037 948.835, 3918.063 938 C 3904.757 924.861, 3886.461 919.564, 3868.131 923.541 M 4019.500 1389.574 C 4006.011 1391.647, 3994.792 1393.939, 3990.500 1395.499 C 3972.033 1402.213, 3958.097 1419.603, 3954.955 1439.852 C 3954.181 1444.838, 3954.176 1450.089, 3954.934 1458.171 C 3955.519 1464.402, 3956.526 1482.662, 3957.172 1498.750 C 3958.380 1528.872, 3957.427 1570.472, 3954.882 1598.679 C 3953.573 1613.180, 3954.998 1622.462, 3960.150 1633 C 3964.500 1641.899, 3976.150 1653.441, 3985.219 1657.837 C 3994.789 1662.477, 4002.279 1663.681, 4030 1665.038 C 4051.966 1666.113, 4055.217 1666.067, 4061.435 1664.590 C 4080.959 1659.953, 4097.497 1645.049, 4103.065 1627.072 C 4109.391 1606.651, 4110.955 1505.378, 4105.885 1444.500 C 4104.113 1423.220, 4099.314 1412.030, 4087.131 1400.771 C 4080.314 1394.472, 4069.644 1388.845, 4061.201 1387.097 C 4052.839 1385.366, 4043.141 1385.942, 4019.500 1389.574 M 3914 1859.579 C 3901.836 1862.780, 3889.373 1871.237, 3882.851 1880.716 C 3881.134 1883.212, 3874.905 1894.984, 3869.009 1906.877 C 3850.385 1944.441, 3835.115 1970.826, 3810.930 2007.233 C 3803.354 2018.636, 3796.165 2030.561, 3794.954 2033.733 C 3792.190 2040.967, 3791.191 2056.366, 3792.981 2064.132 C 3794.927 2072.572, 3800.519 2083.311, 3806.248 2089.604 C 3809.900 2093.618, 3817.592 2099.390, 3831.500 2108.556 C 3842.500 2115.805, 3853.858 2122.926, 3856.741 2124.380 C 3873.399 2132.785, 3895.362 2131.412, 3911.527 2120.955 C 3914.841 2118.811, 3918.966 2115.581, 3920.693 2113.778 C 3928.311 2105.826, 3955.452 2064.084, 3974.825 2030.527 C 3988.182 2007.390, 4014.700 1955.283, 4017.895 1945.895 C 4022.549 1932.219, 4021.426 1916.731, 4014.800 1903.219 C 4010.505 1894.460, 3999.708 1883.370, 3991.415 1879.198 C 3983.333 1875.133, 3945.584 1860.373, 3939.949 1859.074 C 3933.640 1857.620, 3920.470 1857.876, 3914 1859.579 M 851 1886.118 C 840.265 1887.346, 825.630 1891.311, 815.149 1895.830 C 780.095 1910.942, 752.981 1940.846, 741.565 1976.984 C 733.139 2003.656, 733.703 2033.987, 743.121 2060.688 C 759.065 2105.895, 799.733 2139.384, 847.254 2146.441 C 862.725 2148.738, 981.229 2148.737, 996.872 2146.439 C 1044.897 2139.385, 1086.424 2104.457, 1102.017 2058 C 1108.628 2038.301, 1110.290 2011.275, 1106.117 1991.312 C 1102.159 1972.379, 1096.567 1958.959, 1086.140 1943.370 C 1064.698 1911.313, 1030.170 1890.363, 991.718 1886.075 C 980.223 1884.793, 862.260 1884.829, 851 1886.118 M 3612.317 2221.438 C 3602.705 2223.629, 3598.055 2226.094, 3576.545 2240.405 C 3540.772 2264.205, 3513.343 2280.003, 3474.506 2299.173 C 3454.290 2309.151, 3451.001 2311.119, 3445.591 2316.466 C 3431.889 2330.009, 3425.872 2351.176, 3430.503 2369.540 C 3431.330 2372.818, 3437.292 2386.074, 3443.753 2398.997 C 3454.925 2421.344, 3455.867 2422.862, 3463 2430.030 C 3474.859 2441.948, 3487.334 2447.262, 3503.500 2447.283 C 3514.067 2447.297, 3520.120 2445.415, 3539.490 2436.094 C 3579.891 2416.651, 3624.423 2390.936, 3665 2363.618 C 3683.531 2351.142, 3693.050 2342.373, 3697.693 2333.500 C 3706.038 2317.549, 3706.187 2298.218, 3698.088 2282.173 C 3694.511 2275.088, 3666.657 2239.632, 3660.176 2233.914 C 3655.057 2229.398, 3646.246 2224.591, 3639.086 2222.407 C 3632.075 2220.268, 3619.455 2219.811, 3612.317 2221.438 M 3004.634 2383.515 C 2989.950 2387.249, 2975.189 2399.380, 2968.759 2413 C 2966.812 2417.125, 2964.717 2422.750, 2964.104 2425.500 C 2962.427 2433.026, 2960.084 2477.553, 2961.016 2484.205 C 2962.680 2496.086, 2967.476 2506.155, 2975.718 2515.074 C 2988.320 2528.710, 2997.608 2532.187, 3027.500 2534.458 C 3057.841 2536.763, 3109.587 2537.509, 3140 2536.079 C 3169.765 2534.680, 3194.831 2532.551, 3200.500 2530.940 C 3216.452 2526.408, 3232.118 2511.458, 3237.388 2495.736 C 3241.393 2483.792, 3241.473 2478.990, 3238.057 2455.426 C 3236.309 2443.367, 3234.248 2430.427, 3233.477 2426.672 C 3229.031 2405.015, 3213.025 2388.875, 3190.475 2383.311 C 3184.272 2381.780, 3181.942 2381.744, 3165.566 2382.934 C 3140.065 2384.786, 3073.375 2385.456, 3052 2384.075 C 3019.982 2382.007, 3010.985 2381.900, 3004.634 2383.515" stroke="none" fill="#0caca4" fill-rule="evenodd"/></svg>