<svg xmlns="http://www.w3.org/2000/svg" width="500" height="500" viewBox="0 0 500 500" version="1.1"><path d="M 51.035 204.934 C 50.466 205.998, 50 209.628, 50 213 C 50 223.987, 45.067 223, 100 223 C 154.933 223, 150 223.987, 150 213 C 150 202.013, 154.933 203, 100 203 C 53.637 203, 52.037 203.063, 51.035 204.934 M 213 217.500 C 213 219.611, 213.467 220, 216 220 L 219 220 219 229 L 219 238 222 238 L 225 238 225 229 L 225 220 228.500 220 C 231.567 220, 232 219.690, 232 217.500 C 232 215.009, 231.967 215, 222.500 215 C 213.033 215, 213 215.009, 213 217.500 M 234 226.461 L 234 238 243 238 C 251.933 238, 252 237.981, 252 235.500 C 252 233.111, 251.733 233, 246 233 C 240.667 233, 240 232.778, 240 231 C 240 229.239, 240.667 229, 245.570 229 C 250.773 229, 251.118 228.852, 250.820 226.750 C 250.541 224.790, 249.824 224.461, 245.250 224.198 C 240.817 223.943, 240 223.592, 240 221.948 C 240 220.231, 240.721 220, 246.070 220 C 251.792 220, 252.121 219.871, 251.820 217.750 C 251.520 215.639, 250.961 215.482, 242.750 215.211 L 234 214.922 234 226.461 M 259.314 216.950 C 255.285 219.407, 254 221.818, 254 226.918 C 254 235.088, 262.428 239.994, 271.383 237.038 C 274.887 235.882, 275 235.692, 275 230.922 C 275 226.373, 274.816 226, 272.563 226 C 270.545 226, 270.073 226.558, 269.813 229.250 C 269.543 232.058, 269.085 232.541, 266.449 232.799 C 262.369 233.198, 259.751 230.306, 260.180 225.875 C 260.623 221.286, 264.573 219.023, 269.135 220.745 C 271.482 221.631, 272.704 221.661, 273.673 220.856 C 275.671 219.198, 275.300 218.206, 272.050 216.526 C 268.038 214.451, 263.145 214.614, 259.314 216.950 M 279 226.500 L 279 238 282 238 C 284.667 238, 285 237.667, 285 235 C 285 232.680, 285.447 232, 286.974 232 C 288.157 232, 289.571 233.204, 290.500 235 C 291.980 237.862, 292.347 238, 298.490 238 C 303.906 238, 305.100 237.682, 306 236 C 306.823 234.462, 308.094 234, 311.500 234 C 314.906 234, 316.177 234.462, 317 236 C 318.215 238.270, 324.611 238.985, 323.709 236.750 C 323.432 236.063, 321.304 231.113, 318.980 225.750 C 314.914 216.366, 314.637 216, 311.597 216 C 308.536 216, 308.299 216.327, 303.969 226.495 C 301.511 232.267, 299.207 236.992, 298.848 236.995 C 298.490 236.998, 297.298 235.582, 296.201 233.848 C 294.240 230.751, 294.238 230.660, 296.103 228.660 C 298.157 226.454, 298.586 221.964, 297.021 219.039 C 295.694 216.560, 290.801 215, 284.351 215 L 279 215 279 226.500 M 324 217.500 C 324 219.611, 324.467 220, 327 220 L 330 220 330 229 L 330 238 333 238 L 336 238 336 229 L 336 220 339.500 220 C 342.567 220, 343 219.690, 343 217.500 C 343 215.009, 342.967 215, 333.500 215 C 324.033 215, 324 215.009, 324 217.500 M 345 226.461 L 345 238 354 238 C 362.933 238, 363 237.981, 363 235.500 C 363 233.111, 362.733 233, 357 233 C 351.667 233, 351 232.778, 351 231 C 351 229.239, 351.667 229, 356.570 229 C 361.773 229, 362.118 228.852, 361.820 226.750 C 361.541 224.790, 360.824 224.461, 356.250 224.198 C 351.817 223.943, 351 223.592, 351 221.948 C 351 220.231, 351.721 220, 357.070 220 C 362.792 220, 363.121 219.871, 362.820 217.750 C 362.520 215.639, 361.961 215.482, 353.750 215.211 L 345 214.922 345 226.461 M 366 226.500 L 366 238 372.550 238 C 380.191 238, 384.309 236.236, 386.483 232.033 C 388.414 228.299, 388.399 225.643, 386.423 221.479 C 384.457 217.336, 379.070 215, 371.480 215 L 366 215 366 226.500 M 180 227 L 180 238 183 238 L 186 238 186 227 L 186 216 183 216 L 180 216 180 227 M 190 227 L 190 238 192.500 238 C 194.915 238, 195 237.775, 195 231.368 L 195 224.736 200.120 231.368 C 204.332 236.824, 205.750 238, 208.120 238 L 211 238 211 227 L 211 216 208 216 L 205 216 205 222.649 L 205 229.298 199.966 222.649 C 196.150 217.608, 194.336 216, 192.466 216 L 190 216 190 227 M 285 223.500 C 285 226.989, 285.123 227.115, 288.250 226.813 C 291.125 226.536, 291.500 226.154, 291.500 223.500 C 291.500 220.846, 291.125 220.464, 288.250 220.187 C 285.123 219.885, 285 220.011, 285 223.500 M 372 226.500 L 372 233 375.477 233 C 378.079 233, 379.365 232.373, 380.587 230.507 C 383.559 225.971, 380.344 220, 374.929 220 L 372 220 372 226.500 M 310.140 225.029 C 308.552 229.583, 308.666 230, 311.500 230 C 314.377 230, 314.506 229.433, 312.640 224.995 L 311.280 221.759 310.140 225.029 M 66.200 234.200 C 65.451 234.949, 65 238.665, 65 244.093 C 65 251.097, 65.307 252.904, 66.582 253.393 C 67.452 253.727, 86.037 254, 107.882 254 C 137.440 254, 147.907 253.693, 148.800 252.800 C 150.676 250.924, 150.382 236.525, 148.429 234.571 C 147.053 233.196, 141.912 233, 107.129 233 C 77.562 233, 67.093 233.307, 66.200 234.200 M 182.661 243.993 C 178.623 247.538, 177.489 251.841, 179.391 256.394 C 183.432 266.065, 197.076 266.681, 201.484 257.393 C 203.363 253.432, 203.379 251.842, 201.579 247.534 C 198.683 240.604, 188.658 238.727, 182.661 243.993 M 205 249.577 C 205 257.723, 205.147 258.301, 207.923 261.077 C 210.213 263.367, 211.743 264, 214.989 264 C 223.248 264, 226 260.139, 226 248.550 L 226 241 223 241 L 220 241 220 248.066 C 220 256.172, 218.879 259, 215.665 259 C 211.860 259, 211 257.119, 211 248.800 L 211 241 208 241 L 205 241 205 249.577 M 227.180 243.250 C 227.425 244.975, 228.259 245.573, 230.750 245.813 L 234 246.127 234 255.063 L 234 264 237 264 L 240 264 240 255 L 240 246 243.500 246 C 246.567 246, 247 245.690, 247 243.500 L 247 241 236.930 241 C 227.060 241, 226.867 241.044, 227.180 243.250 M 252.763 242.565 C 245.228 246.653, 245.350 258.544, 252.967 262.483 C 256.742 264.435, 260.345 264.405, 264.599 262.386 C 268.480 260.545, 268.580 260.299, 266.426 257.918 C 264.962 256.301, 264.653 256.292, 262.030 257.797 C 256.574 260.929, 251.135 255.389, 253.839 249.454 C 255.270 246.314, 259.308 245.316, 262.397 247.340 C 264.583 248.773, 264.912 248.755, 266.390 247.122 C 268.577 244.705, 268.455 244.287, 265.050 242.526 C 261.354 240.615, 256.328 240.631, 252.763 242.565 M 274.763 242.508 C 269.498 245.475, 267.604 252.400, 270.517 258.033 C 274.053 264.870, 284.929 266.002, 290.218 260.083 C 294.140 255.693, 294.128 249.294, 290.191 244.887 C 287.908 242.333, 286.455 241.670, 282.441 241.354 C 279.202 241.099, 276.557 241.497, 274.763 242.508 M 296 252.500 L 296 264 298.500 264 C 300.911 264, 301.003 263.759, 301.092 257.250 L 301.184 250.500 303.746 256.250 C 307.111 263.800, 309.240 263.922, 312.499 256.750 L 314.885 251.500 314.942 257.750 L 315 264 318 264 L 321 264 321 252.500 L 321 241 317.633 241 C 314.446 241, 314.109 241.354, 311.285 247.671 L 308.303 254.343 305.652 248.550 C 304.193 245.365, 303 242.363, 303 241.879 C 303 241.396, 301.425 241, 299.500 241 L 296 241 296 252.500 M 325 252.500 L 325 264 334.070 264 C 342.903 264, 343.131 263.941, 342.820 261.750 C 342.536 259.757, 341.844 259.466, 336.750 259.200 C 331.818 258.943, 331 258.623, 331 256.950 C 331 255.277, 331.709 255, 336 255 C 340.667 255, 341 254.833, 341 252.500 C 341 250.167, 340.667 250, 336 250 C 331.667 250, 331 249.733, 331 248 C 331 246.242, 331.667 246, 336.500 246 C 341.700 246, 342 245.864, 342 243.500 C 342 241.029, 341.900 241, 333.500 241 L 325 241 325 252.500 M 348.195 242.526 C 346.382 243.835, 345.956 244.969, 346.195 247.845 C 346.472 251.169, 346.975 251.726, 351.746 254 C 354.632 255.375, 356.994 257.063, 356.996 257.750 C 357.001 259.444, 352.538 259.330, 349.090 257.546 C 346.436 256.174, 346.218 256.226, 345.200 258.461 C 344.226 260.599, 344.446 260.984, 347.461 262.415 C 353.946 265.492, 361.254 264.093, 363.025 259.435 C 364.543 255.442, 362.366 252.212, 356.831 250.246 C 351.211 248.250, 350.134 245.519, 355.250 246.238 C 357.038 246.490, 359.247 247.021, 360.160 247.420 C 362.164 248.295, 363.804 244.404, 362.135 242.735 C 360.218 240.818, 350.757 240.676, 348.195 242.526 M 186.655 247.829 C 183.134 251.719, 185.703 259.024, 190.579 258.985 C 193.086 258.965, 194.430 258.013, 195.906 255.212 C 199.072 249.202, 191.141 242.872, 186.655 247.829 M 277 248 C 275.900 249.100, 275 251.125, 275 252.500 C 275 258.106, 282.392 261.134, 285.443 256.777 C 290.167 250.033, 282.715 242.285, 277 248 M 88.080 265.403 C 87.342 266.293, 87.023 269.859, 87.208 275.153 L 87.500 283.500 118.500 283.500 L 149.500 283.500 149.792 275.153 C 149.977 269.859, 149.658 266.293, 148.920 265.403 C 147.969 264.257, 142.386 264, 118.500 264 C 94.614 264, 89.031 264.257, 88.080 265.403 M 179 294.500 C 179 299.944, 179.030 300, 182 300 C 183.650 300, 185 299.550, 185 299 C 185 298.450, 184.100 298, 183 298 C 181.296 298, 181 297.333, 181 293.500 C 181 291.025, 180.550 289, 180 289 C 179.450 289, 179 291.475, 179 294.500 M 189 294.500 C 189 297.525, 189.450 300, 190 300 C 190.550 300, 191 299.100, 191 298 C 191 296.889, 191.667 296, 192.500 296 C 193.325 296, 194 295.550, 194 295 C 194 294.450, 193.325 294, 192.500 294 C 191.675 294, 191 293.325, 191 292.500 C 191 291.667, 191.889 291, 193 291 C 194.100 291, 195 290.550, 195 290 C 195 289.450, 193.650 289, 192 289 C 189.030 289, 189 289.056, 189 294.500 M 200.750 290.080 C 198.258 291.532, 198.384 297.600, 200.934 298.965 C 205.014 301.148, 209 298.942, 209 294.500 C 209 290.050, 204.730 287.762, 200.750 290.080 M 213 294.500 C 213 299.738, 213.122 300, 215.566 300 C 219.982 300, 222 298.275, 222 294.500 C 222 290.725, 219.982 289, 215.566 289 C 213.122 289, 213 289.262, 213 294.500 M 231 294.500 C 231 297.525, 231.450 300, 232 300 C 232.550 300, 233 297.525, 233 294.500 C 233 291.475, 232.550 289, 232 289 C 231.450 289, 231 291.475, 231 294.500 M 238 294.500 C 238 297.525, 238.450 300, 239 300 C 239.550 300, 240.012 298.538, 240.027 296.750 L 240.054 293.500 242.777 296.759 C 244.275 298.551, 245.838 300.014, 246.250 300.009 C 246.662 300.004, 247 297.525, 247 294.500 C 247 288.352, 245.293 286.944, 244.810 292.693 L 244.500 296.387 242 292.700 C 240.625 290.673, 239.162 289.011, 238.750 289.007 C 238.338 289.003, 238 291.475, 238 294.500 M 250.500 290 C 250.840 290.550, 251.766 291, 252.559 291 C 253.600 291, 254 292.249, 254 295.500 C 254 297.975, 254.450 300, 255 300 C 255.550 300, 256 297.975, 256 295.500 C 256 292.167, 256.389 291, 257.500 291 C 258.325 291, 259 290.550, 259 290 C 259 289.450, 256.948 289, 254.441 289 C 251.656 289, 250.122 289.389, 250.500 290 M 262 294.500 L 262 300 265.559 300 C 267.677 300, 268.868 299.595, 268.500 299 C 268.160 298.450, 267.009 298, 265.941 298 C 263.241 298, 263.499 295.238, 266.250 294.697 L 268.500 294.254 266.250 293.510 C 263.489 292.598, 263.293 291, 265.941 291 C 267.009 291, 268.160 290.550, 268.500 290 C 268.868 289.405, 267.677 289, 265.559 289 L 262 289 262 294.500 M 273.421 291.481 C 272.043 293.583, 271.933 294.559, 272.849 296.569 C 274.209 299.553, 276.144 300.432, 279.502 299.589 C 281.082 299.192, 282 298.256, 282 297.040 C 282 294.618, 280.176 293.424, 278.713 294.887 C 277.896 295.704, 277.919 296, 278.800 296 C 279.460 296, 280 296.450, 280 297 C 280 298.977, 275.153 298.056, 274.485 295.952 C 273.600 293.166, 275.816 290.732, 278.729 291.288 C 280.176 291.565, 280.938 291.308, 280.713 290.619 C 280.511 290.004, 279.171 289.360, 277.735 289.190 C 275.826 288.963, 274.668 289.577, 273.421 291.481 M 286 294.500 C 286 300.170, 287.588 302.131, 288.227 297.250 L 288.588 294.500 289.954 297.250 C 290.706 298.762, 291.934 300, 292.684 300 C 293.773 300, 293.728 299.515, 292.463 297.583 C 291.130 295.549, 291.086 294.832, 292.190 293.053 C 293.293 291.273, 293.263 290.788, 292 289.985 C 291.175 289.460, 289.488 289.024, 288.250 289.015 C 286.188 289.001, 286 289.458, 286 294.500 M 298.580 294.049 C 297.581 296.826, 297.032 299.365, 297.359 299.692 C 297.685 300.019, 298.237 299.547, 298.583 298.643 C 298.930 297.739, 300.243 297, 301.500 297 C 302.757 297, 304.070 297.739, 304.417 298.643 C 304.763 299.547, 305.315 300.019, 305.641 299.692 C 306.549 298.784, 302.759 289, 301.500 289 C 300.892 289, 299.578 291.272, 298.580 294.049 M 309 290 C 309 290.550, 309.675 291, 310.500 291 C 311.611 291, 312 292.167, 312 295.500 C 312 297.975, 312.450 300, 313 300 C 313.550 300, 314 297.975, 314 295.500 C 314 292.167, 314.389 291, 315.500 291 C 316.325 291, 317 290.550, 317 290 C 317 289.450, 315.200 289, 313 289 C 310.800 289, 309 289.450, 309 290 M 321 294.500 C 321 297.525, 321.450 300, 322 300 C 322.550 300, 323 297.525, 323 294.500 C 323 291.475, 322.550 289, 322 289 C 321.450 289, 321 291.475, 321 294.500 M 328.655 290.829 C 326.457 293.258, 326.562 296.293, 328.918 298.425 C 331.511 300.773, 335.115 300.069, 336.907 296.865 C 338.228 294.504, 338.203 293.959, 336.667 291.615 C 334.646 288.530, 331.055 288.177, 328.655 290.829 M 342.206 294.500 C 342.304 299.005, 342.437 299.513, 342.741 296.539 L 343.146 292.578 346.535 296.539 L 349.925 300.500 349.794 294.500 C 349.696 289.995, 349.563 289.487, 349.259 292.461 L 348.854 296.422 345.465 292.461 L 342.075 288.500 342.206 294.500 M 360.667 289.667 C 359.319 291.014, 360.056 293.960, 362 295 C 364.794 296.495, 364.492 297.800, 361.250 298.243 C 358.841 298.573, 358.734 298.725, 360.386 299.469 C 362.597 300.465, 365.352 299.038, 365.821 296.654 C 366.013 295.680, 365.105 294.549, 363.571 293.850 C 360.281 292.351, 360.275 291, 363.559 291 C 365.010 291, 365.851 290.567, 365.500 290 C 364.802 288.870, 361.679 288.655, 360.667 289.667 M 370 294.500 C 370 299.944, 370.030 300, 373 300 C 374.650 300, 376 299.550, 376 299 C 376 298.450, 375.100 298, 374 298 C 372.889 298, 372 297.333, 372 296.500 C 372 295.675, 372.675 295, 373.500 295 C 374.325 295, 375 294.550, 375 294 C 375 293.450, 374.325 293, 373.500 293 C 372.675 293, 372 292.550, 372 292 C 372 291.450, 372.900 291, 374 291 C 375.100 291, 376 290.550, 376 290 C 376 289.450, 374.650 289, 373 289 C 370.030 289, 370 289.056, 370 294.500 M 381 294.500 C 381 300.170, 382.588 302.131, 383.227 297.250 L 383.588 294.500 384.954 297.250 C 385.706 298.762, 386.934 300, 387.684 300 C 388.773 300, 388.728 299.515, 387.463 297.583 C 386.130 295.549, 386.086 294.832, 387.190 293.053 C 388.293 291.273, 388.263 290.788, 387 289.985 C 386.175 289.460, 384.488 289.024, 383.250 289.015 C 381.188 289.001, 381 289.458, 381 294.500 M 393.342 294.498 C 394.529 297.522, 395.957 299.997, 396.515 299.998 C 397.074 299.999, 398.311 297.802, 399.265 295.116 C 401.243 289.548, 401.323 289, 400.158 289 C 399.695 289, 398.735 290.913, 398.025 293.250 L 396.732 297.500 394.907 293.250 C 392.211 286.973, 390.823 288.080, 393.342 294.498 M 405 294.500 C 405 297.525, 405.450 300, 406 300 C 406.550 300, 407 297.525, 407 294.500 C 407 291.475, 406.550 289, 406 289 C 405.450 289, 405 291.475, 405 294.500 M 412.333 291.615 C 410.797 293.959, 410.772 294.504, 412.093 296.865 C 413.668 299.682, 417.531 300.869, 419.315 299.085 C 420.095 298.305, 419.519 298, 417.267 298 C 414.989 298, 413.958 297.442, 413.485 295.952 C 412.643 293.301, 414.593 291, 417.681 291 C 419.051 291, 419.847 290.562, 419.500 290 C 418.274 288.016, 414.070 288.963, 412.333 291.615 M 424 294.500 C 424 299.944, 424.030 300, 427 300 C 428.650 300, 430 299.550, 430 299 C 430 298.450, 429.100 298, 428 298 C 426.889 298, 426 297.333, 426 296.500 C 426 295.675, 426.675 295, 427.500 295 C 428.325 295, 429 294.550, 429 294 C 429 293.450, 428.325 293, 427.500 293 C 426.675 293, 426 292.550, 426 292 C 426 291.450, 426.900 291, 428 291 C 429.100 291, 430 290.550, 430 290 C 430 289.450, 428.650 289, 427 289 C 424.030 289, 424 289.056, 424 294.500 M 435.250 289.662 C 433.051 290.550, 433.858 293.995, 436.500 295 C 439.809 296.258, 439.778 298.382, 436.460 297.748 C 434.858 297.441, 434.056 297.675, 434.289 298.381 C 434.954 300.404, 438.805 300.233, 439.930 298.130 C 440.749 296.600, 440.633 295.776, 439.427 294.569 C 438.563 293.706, 437.439 293, 436.929 293 C 436.418 293, 436 292.550, 436 292 C 436 291.450, 436.927 291, 438.059 291 C 439.191 291, 439.840 290.550, 439.500 290 C 438.848 288.945, 437.327 288.824, 435.250 289.662 M 201.411 292.371 C 200.299 295.268, 201.432 297.500, 204.014 297.500 C 206.110 297.500, 206.500 297.029, 206.500 294.500 C 206.500 292.148, 206.013 291.431, 204.246 291.180 C 202.923 290.992, 201.751 291.485, 201.411 292.371 M 215 294.500 C 215 297.702, 215.270 298.101, 217.250 297.820 C 219.012 297.569, 219.500 296.850, 219.500 294.500 C 219.500 292.150, 219.012 291.431, 217.250 291.180 C 215.270 290.899, 215 291.298, 215 294.500 M 288 292.583 C 288 293.454, 288.534 293.989, 289.188 293.771 C 291.042 293.153, 291.349 291, 289.583 291 C 288.712 291, 288 291.712, 288 292.583 M 329.384 292.442 C 328.319 295.217, 329.456 297.500, 331.905 297.500 C 335.059 297.500, 336.846 294.724, 335.070 292.584 C 333.428 290.606, 330.120 290.523, 329.384 292.442 M 383 292.583 C 383 293.454, 383.534 293.989, 384.188 293.771 C 386.042 293.153, 386.349 291, 384.583 291 C 383.712 291, 383 291.712, 383 292.583 M 300.639 293.498 C 299.746 295.825, 299.807 296, 301.500 296 C 303.183 296, 303.373 295.137, 302.124 293.166 C 301.449 292.102, 301.149 292.169, 300.639 293.498 M 100.614 296.564 C 99.381 299.777, 99.949 312.713, 101.375 313.897 C 102.340 314.697, 109.593 314.958, 125.625 314.769 L 148.500 314.500 148.500 305 L 148.500 295.500 124.864 295.232 C 103.964 294.995, 101.157 295.150, 100.614 296.564" stroke="none" fill="#2e7c80" fill-rule="evenodd"/><path d="M 0 250.002 L 0 500.004 250.250 499.752 L 500.500 499.500 500.752 249.750 L 501.004 0 250.502 0 L 0 0 0 250.002 M 0.492 250.500 C 0.492 388, 0.608 444.101, 0.750 375.170 C 0.892 306.238, 0.892 193.738, 0.750 125.170 C 0.608 56.601, 0.492 113, 0.492 250.500 M 51.035 204.934 C 50.466 205.998, 50 209.628, 50 213 C 50 223.987, 45.067 223, 100 223 C 154.933 223, 150 223.987, 150 213 C 150 202.013, 154.933 203, 100 203 C 53.637 203, 52.037 203.063, 51.035 204.934 M 213 217.500 C 213 219.611, 213.467 220, 216 220 L 219 220 219 229 L 219 238 222 238 L 225 238 225 229 L 225 220 228.500 220 C 231.567 220, 232 219.690, 232 217.500 C 232 215.009, 231.967 215, 222.500 215 C 213.033 215, 213 215.009, 213 217.500 M 234 226.461 L 234 238 243 238 C 251.933 238, 252 237.981, 252 235.500 C 252 233.111, 251.733 233, 246 233 C 240.667 233, 240 232.778, 240 231 C 240 229.239, 240.667 229, 245.570 229 C 250.773 229, 251.118 228.852, 250.820 226.750 C 250.541 224.790, 249.824 224.461, 245.250 224.198 C 240.817 223.943, 240 223.592, 240 221.948 C 240 220.231, 240.721 220, 246.070 220 C 251.792 220, 252.121 219.871, 251.820 217.750 C 251.520 215.639, 250.961 215.482, 242.750 215.211 L 234 214.922 234 226.461 M 259.314 216.950 C 255.285 219.407, 254 221.818, 254 226.918 C 254 235.088, 262.428 239.994, 271.383 237.038 C 274.887 235.882, 275 235.692, 275 230.922 C 275 226.373, 274.816 226, 272.563 226 C 270.545 226, 270.073 226.558, 269.813 229.250 C 269.543 232.058, 269.085 232.541, 266.449 232.799 C 262.369 233.198, 259.751 230.306, 260.180 225.875 C 260.623 221.286, 264.573 219.023, 269.135 220.745 C 271.482 221.631, 272.704 221.661, 273.673 220.856 C 275.671 219.198, 275.300 218.206, 272.050 216.526 C 268.038 214.451, 263.145 214.614, 259.314 216.950 M 279 226.500 L 279 238 282 238 C 284.667 238, 285 237.667, 285 235 C 285 232.680, 285.447 232, 286.974 232 C 288.157 232, 289.571 233.204, 290.500 235 C 291.980 237.862, 292.347 238, 298.490 238 C 303.906 238, 305.100 237.682, 306 236 C 306.823 234.462, 308.094 234, 311.500 234 C 314.906 234, 316.177 234.462, 317 236 C 318.215 238.270, 324.611 238.985, 323.709 236.750 C 323.432 236.063, 321.304 231.113, 318.980 225.750 C 314.914 216.366, 314.637 216, 311.597 216 C 308.536 216, 308.299 216.327, 303.969 226.495 C 301.511 232.267, 299.207 236.992, 298.848 236.995 C 298.490 236.998, 297.298 235.582, 296.201 233.848 C 294.240 230.751, 294.238 230.660, 296.103 228.660 C 298.157 226.454, 298.586 221.964, 297.021 219.039 C 295.694 216.560, 290.801 215, 284.351 215 L 279 215 279 226.500 M 324 217.500 C 324 219.611, 324.467 220, 327 220 L 330 220 330 229 L 330 238 333 238 L 336 238 336 229 L 336 220 339.500 220 C 342.567 220, 343 219.690, 343 217.500 C 343 215.009, 342.967 215, 333.500 215 C 324.033 215, 324 215.009, 324 217.500 M 345 226.461 L 345 238 354 238 C 362.933 238, 363 237.981, 363 235.500 C 363 233.111, 362.733 233, 357 233 C 351.667 233, 351 232.778, 351 231 C 351 229.239, 351.667 229, 356.570 229 C 361.773 229, 362.118 228.852, 361.820 226.750 C 361.541 224.790, 360.824 224.461, 356.250 224.198 C 351.817 223.943, 351 223.592, 351 221.948 C 351 220.231, 351.721 220, 357.070 220 C 362.792 220, 363.121 219.871, 362.820 217.750 C 362.520 215.639, 361.961 215.482, 353.750 215.211 L 345 214.922 345 226.461 M 366 226.500 L 366 238 372.550 238 C 380.191 238, 384.309 236.236, 386.483 232.033 C 388.414 228.299, 388.399 225.643, 386.423 221.479 C 384.457 217.336, 379.070 215, 371.480 215 L 366 215 366 226.500 M 180 227 L 180 238 183 238 L 186 238 186 227 L 186 216 183 216 L 180 216 180 227 M 190 227 L 190 238 192.500 238 C 194.915 238, 195 237.775, 195 231.368 L 195 224.736 200.120 231.368 C 204.332 236.824, 205.750 238, 208.120 238 L 211 238 211 227 L 211 216 208 216 L 205 216 205 222.649 L 205 229.298 199.966 222.649 C 196.150 217.608, 194.336 216, 192.466 216 L 190 216 190 227 M 285 223.500 C 285 226.989, 285.123 227.115, 288.250 226.813 C 291.125 226.536, 291.500 226.154, 291.500 223.500 C 291.500 220.846, 291.125 220.464, 288.250 220.187 C 285.123 219.885, 285 220.011, 285 223.500 M 372 226.500 L 372 233 375.477 233 C 378.079 233, 379.365 232.373, 380.587 230.507 C 383.559 225.971, 380.344 220, 374.929 220 L 372 220 372 226.500 M 310.140 225.029 C 308.552 229.583, 308.666 230, 311.500 230 C 314.377 230, 314.506 229.433, 312.640 224.995 L 311.280 221.759 310.140 225.029 M 66.200 234.200 C 65.451 234.949, 65 238.665, 65 244.093 C 65 251.097, 65.307 252.904, 66.582 253.393 C 67.452 253.727, 86.037 254, 107.882 254 C 137.440 254, 147.907 253.693, 148.800 252.800 C 150.676 250.924, 150.382 236.525, 148.429 234.571 C 147.053 233.196, 141.912 233, 107.129 233 C 77.562 233, 67.093 233.307, 66.200 234.200 M 182.661 243.993 C 178.623 247.538, 177.489 251.841, 179.391 256.394 C 183.432 266.065, 197.076 266.681, 201.484 257.393 C 203.363 253.432, 203.379 251.842, 201.579 247.534 C 198.683 240.604, 188.658 238.727, 182.661 243.993 M 205 249.577 C 205 257.723, 205.147 258.301, 207.923 261.077 C 210.213 263.367, 211.743 264, 214.989 264 C 223.248 264, 226 260.139, 226 248.550 L 226 241 223 241 L 220 241 220 248.066 C 220 256.172, 218.879 259, 215.665 259 C 211.860 259, 211 257.119, 211 248.800 L 211 241 208 241 L 205 241 205 249.577 M 227.180 243.250 C 227.425 244.975, 228.259 245.573, 230.750 245.813 L 234 246.127 234 255.063 L 234 264 237 264 L 240 264 240 255 L 240 246 243.500 246 C 246.567 246, 247 245.690, 247 243.500 L 247 241 236.930 241 C 227.060 241, 226.867 241.044, 227.180 243.250 M 252.763 242.565 C 245.228 246.653, 245.350 258.544, 252.967 262.483 C 256.742 264.435, 260.345 264.405, 264.599 262.386 C 268.480 260.545, 268.580 260.299, 266.426 257.918 C 264.962 256.301, 264.653 256.292, 262.030 257.797 C 256.574 260.929, 251.135 255.389, 253.839 249.454 C 255.270 246.314, 259.308 245.316, 262.397 247.340 C 264.583 248.773, 264.912 248.755, 266.390 247.122 C 268.577 244.705, 268.455 244.287, 265.050 242.526 C 261.354 240.615, 256.328 240.631, 252.763 242.565 M 274.763 242.508 C 269.498 245.475, 267.604 252.400, 270.517 258.033 C 274.053 264.870, 284.929 266.002, 290.218 260.083 C 294.140 255.693, 294.128 249.294, 290.191 244.887 C 287.908 242.333, 286.455 241.670, 282.441 241.354 C 279.202 241.099, 276.557 241.497, 274.763 242.508 M 296 252.500 L 296 264 298.500 264 C 300.911 264, 301.003 263.759, 301.092 257.250 L 301.184 250.500 303.746 256.250 C 307.111 263.800, 309.240 263.922, 312.499 256.750 L 314.885 251.500 314.942 257.750 L 315 264 318 264 L 321 264 321 252.500 L 321 241 317.633 241 C 314.446 241, 314.109 241.354, 311.285 247.671 L 308.303 254.343 305.652 248.550 C 304.193 245.365, 303 242.363, 303 241.879 C 303 241.396, 301.425 241, 299.500 241 L 296 241 296 252.500 M 325 252.500 L 325 264 334.070 264 C 342.903 264, 343.131 263.941, 342.820 261.750 C 342.536 259.757, 341.844 259.466, 336.750 259.200 C 331.818 258.943, 331 258.623, 331 256.950 C 331 255.277, 331.709 255, 336 255 C 340.667 255, 341 254.833, 341 252.500 C 341 250.167, 340.667 250, 336 250 C 331.667 250, 331 249.733, 331 248 C 331 246.242, 331.667 246, 336.500 246 C 341.700 246, 342 245.864, 342 243.500 C 342 241.029, 341.900 241, 333.500 241 L 325 241 325 252.500 M 348.195 242.526 C 346.382 243.835, 345.956 244.969, 346.195 247.845 C 346.472 251.169, 346.975 251.726, 351.746 254 C 354.632 255.375, 356.994 257.063, 356.996 257.750 C 357.001 259.444, 352.538 259.330, 349.090 257.546 C 346.436 256.174, 346.218 256.226, 345.200 258.461 C 344.226 260.599, 344.446 260.984, 347.461 262.415 C 353.946 265.492, 361.254 264.093, 363.025 259.435 C 364.543 255.442, 362.366 252.212, 356.831 250.246 C 351.211 248.250, 350.134 245.519, 355.250 246.238 C 357.038 246.490, 359.247 247.021, 360.160 247.420 C 362.164 248.295, 363.804 244.404, 362.135 242.735 C 360.218 240.818, 350.757 240.676, 348.195 242.526 M 186.655 247.829 C 183.134 251.719, 185.703 259.024, 190.579 258.985 C 193.086 258.965, 194.430 258.013, 195.906 255.212 C 199.072 249.202, 191.141 242.872, 186.655 247.829 M 277 248 C 275.900 249.100, 275 251.125, 275 252.500 C 275 258.106, 282.392 261.134, 285.443 256.777 C 290.167 250.033, 282.715 242.285, 277 248 M 88.080 265.403 C 87.342 266.293, 87.023 269.859, 87.208 275.153 L 87.500 283.500 118.500 283.500 L 149.500 283.500 149.792 275.153 C 149.977 269.859, 149.658 266.293, 148.920 265.403 C 147.969 264.257, 142.386 264, 118.500 264 C 94.614 264, 89.031 264.257, 88.080 265.403 M 179 294.500 C 179 299.944, 179.030 300, 182 300 C 183.650 300, 185 299.550, 185 299 C 185 298.450, 184.100 298, 183 298 C 181.296 298, 181 297.333, 181 293.500 C 181 291.025, 180.550 289, 180 289 C 179.450 289, 179 291.475, 179 294.500 M 189 294.500 C 189 297.525, 189.450 300, 190 300 C 190.550 300, 191 299.100, 191 298 C 191 296.889, 191.667 296, 192.500 296 C 193.325 296, 194 295.550, 194 295 C 194 294.450, 193.325 294, 192.500 294 C 191.675 294, 191 293.325, 191 292.500 C 191 291.667, 191.889 291, 193 291 C 194.100 291, 195 290.550, 195 290 C 195 289.450, 193.650 289, 192 289 C 189.030 289, 189 289.056, 189 294.500 M 200.750 290.080 C 198.258 291.532, 198.384 297.600, 200.934 298.965 C 205.014 301.148, 209 298.942, 209 294.500 C 209 290.050, 204.730 287.762, 200.750 290.080 M 213 294.500 C 213 299.738, 213.122 300, 215.566 300 C 219.982 300, 222 298.275, 222 294.500 C 222 290.725, 219.982 289, 215.566 289 C 213.122 289, 213 289.262, 213 294.500 M 231 294.500 C 231 297.525, 231.450 300, 232 300 C 232.550 300, 233 297.525, 233 294.500 C 233 291.475, 232.550 289, 232 289 C 231.450 289, 231 291.475, 231 294.500 M 238 294.500 C 238 297.525, 238.450 300, 239 300 C 239.550 300, 240.012 298.538, 240.027 296.750 L 240.054 293.500 242.777 296.759 C 244.275 298.551, 245.838 300.014, 246.250 300.009 C 246.662 300.004, 247 297.525, 247 294.500 C 247 288.352, 245.293 286.944, 244.810 292.693 L 244.500 296.387 242 292.700 C 240.625 290.673, 239.162 289.011, 238.750 289.007 C 238.338 289.003, 238 291.475, 238 294.500 M 250.500 290 C 250.840 290.550, 251.766 291, 252.559 291 C 253.600 291, 254 292.249, 254 295.500 C 254 297.975, 254.450 300, 255 300 C 255.550 300, 256 297.975, 256 295.500 C 256 292.167, 256.389 291, 257.500 291 C 258.325 291, 259 290.550, 259 290 C 259 289.450, 256.948 289, 254.441 289 C 251.656 289, 250.122 289.389, 250.500 290 M 262 294.500 L 262 300 265.559 300 C 267.677 300, 268.868 299.595, 268.500 299 C 268.160 298.450, 267.009 298, 265.941 298 C 263.241 298, 263.499 295.238, 266.250 294.697 L 268.500 294.254 266.250 293.510 C 263.489 292.598, 263.293 291, 265.941 291 C 267.009 291, 268.160 290.550, 268.500 290 C 268.868 289.405, 267.677 289, 265.559 289 L 262 289 262 294.500 M 273.421 291.481 C 272.043 293.583, 271.933 294.559, 272.849 296.569 C 274.209 299.553, 276.144 300.432, 279.502 299.589 C 281.082 299.192, 282 298.256, 282 297.040 C 282 294.618, 280.176 293.424, 278.713 294.887 C 277.896 295.704, 277.919 296, 278.800 296 C 279.460 296, 280 296.450, 280 297 C 280 298.977, 275.153 298.056, 274.485 295.952 C 273.600 293.166, 275.816 290.732, 278.729 291.288 C 280.176 291.565, 280.938 291.308, 280.713 290.619 C 280.511 290.004, 279.171 289.360, 277.735 289.190 C 275.826 288.963, 274.668 289.577, 273.421 291.481 M 286 294.500 C 286 300.170, 287.588 302.131, 288.227 297.250 L 288.588 294.500 289.954 297.250 C 290.706 298.762, 291.934 300, 292.684 300 C 293.773 300, 293.728 299.515, 292.463 297.583 C 291.130 295.549, 291.086 294.832, 292.190 293.053 C 293.293 291.273, 293.263 290.788, 292 289.985 C 291.175 289.460, 289.488 289.024, 288.250 289.015 C 286.188 289.001, 286 289.458, 286 294.500 M 298.580 294.049 C 297.581 296.826, 297.032 299.365, 297.359 299.692 C 297.685 300.019, 298.237 299.547, 298.583 298.643 C 298.930 297.739, 300.243 297, 301.500 297 C 302.757 297, 304.070 297.739, 304.417 298.643 C 304.763 299.547, 305.315 300.019, 305.641 299.692 C 306.549 298.784, 302.759 289, 301.500 289 C 300.892 289, 299.578 291.272, 298.580 294.049 M 309 290 C 309 290.550, 309.675 291, 310.500 291 C 311.611 291, 312 292.167, 312 295.500 C 312 297.975, 312.450 300, 313 300 C 313.550 300, 314 297.975, 314 295.500 C 314 292.167, 314.389 291, 315.500 291 C 316.325 291, 317 290.550, 317 290 C 317 289.450, 315.200 289, 313 289 C 310.800 289, 309 289.450, 309 290 M 321 294.500 C 321 297.525, 321.450 300, 322 300 C 322.550 300, 323 297.525, 323 294.500 C 323 291.475, 322.550 289, 322 289 C 321.450 289, 321 291.475, 321 294.500 M 328.655 290.829 C 326.457 293.258, 326.562 296.293, 328.918 298.425 C 331.511 300.773, 335.115 300.069, 336.907 296.865 C 338.228 294.504, 338.203 293.959, 336.667 291.615 C 334.646 288.530, 331.055 288.177, 328.655 290.829 M 342.206 294.500 C 342.304 299.005, 342.437 299.513, 342.741 296.539 L 343.146 292.578 346.535 296.539 L 349.925 300.500 349.794 294.500 C 349.696 289.995, 349.563 289.487, 349.259 292.461 L 348.854 296.422 345.465 292.461 L 342.075 288.500 342.206 294.500 M 360.667 289.667 C 359.319 291.014, 360.056 293.960, 362 295 C 364.794 296.495, 364.492 297.800, 361.250 298.243 C 358.841 298.573, 358.734 298.725, 360.386 299.469 C 362.597 300.465, 365.352 299.038, 365.821 296.654 C 366.013 295.680, 365.105 294.549, 363.571 293.850 C 360.281 292.351, 360.275 291, 363.559 291 C 365.010 291, 365.851 290.567, 365.500 290 C 364.802 288.870, 361.679 288.655, 360.667 289.667 M 370 294.500 C 370 299.944, 370.030 300, 373 300 C 374.650 300, 376 299.550, 376 299 C 376 298.450, 375.100 298, 374 298 C 372.889 298, 372 297.333, 372 296.500 C 372 295.675, 372.675 295, 373.500 295 C 374.325 295, 375 294.550, 375 294 C 375 293.450, 374.325 293, 373.500 293 C 372.675 293, 372 292.550, 372 292 C 372 291.450, 372.900 291, 374 291 C 375.100 291, 376 290.550, 376 290 C 376 289.450, 374.650 289, 373 289 C 370.030 289, 370 289.056, 370 294.500 M 381 294.500 C 381 300.170, 382.588 302.131, 383.227 297.250 L 383.588 294.500 384.954 297.250 C 385.706 298.762, 386.934 300, 387.684 300 C 388.773 300, 388.728 299.515, 387.463 297.583 C 386.130 295.549, 386.086 294.832, 387.190 293.053 C 388.293 291.273, 388.263 290.788, 387 289.985 C 386.175 289.460, 384.488 289.024, 383.250 289.015 C 381.188 289.001, 381 289.458, 381 294.500 M 393.342 294.498 C 394.529 297.522, 395.957 299.997, 396.515 299.998 C 397.074 299.999, 398.311 297.802, 399.265 295.116 C 401.243 289.548, 401.323 289, 400.158 289 C 399.695 289, 398.735 290.913, 398.025 293.250 L 396.732 297.500 394.907 293.250 C 392.211 286.973, 390.823 288.080, 393.342 294.498 M 405 294.500 C 405 297.525, 405.450 300, 406 300 C 406.550 300, 407 297.525, 407 294.500 C 407 291.475, 406.550 289, 406 289 C 405.450 289, 405 291.475, 405 294.500 M 412.333 291.615 C 410.797 293.959, 410.772 294.504, 412.093 296.865 C 413.668 299.682, 417.531 300.869, 419.315 299.085 C 420.095 298.305, 419.519 298, 417.267 298 C 414.989 298, 413.958 297.442, 413.485 295.952 C 412.643 293.301, 414.593 291, 417.681 291 C 419.051 291, 419.847 290.562, 419.500 290 C 418.274 288.016, 414.070 288.963, 412.333 291.615 M 424 294.500 C 424 299.944, 424.030 300, 427 300 C 428.650 300, 430 299.550, 430 299 C 430 298.450, 429.100 298, 428 298 C 426.889 298, 426 297.333, 426 296.500 C 426 295.675, 426.675 295, 427.500 295 C 428.325 295, 429 294.550, 429 294 C 429 293.450, 428.325 293, 427.500 293 C 426.675 293, 426 292.550, 426 292 C 426 291.450, 426.900 291, 428 291 C 429.100 291, 430 290.550, 430 290 C 430 289.450, 428.650 289, 427 289 C 424.030 289, 424 289.056, 424 294.500 M 435.250 289.662 C 433.051 290.550, 433.858 293.995, 436.500 295 C 439.809 296.258, 439.778 298.382, 436.460 297.748 C 434.858 297.441, 434.056 297.675, 434.289 298.381 C 434.954 300.404, 438.805 300.233, 439.930 298.130 C 440.749 296.600, 440.633 295.776, 439.427 294.569 C 438.563 293.706, 437.439 293, 436.929 293 C 436.418 293, 436 292.550, 436 292 C 436 291.450, 436.927 291, 438.059 291 C 439.191 291, 439.840 290.550, 439.500 290 C 438.848 288.945, 437.327 288.824, 435.250 289.662 M 201.411 292.371 C 200.299 295.268, 201.432 297.500, 204.014 297.500 C 206.110 297.500, 206.500 297.029, 206.500 294.500 C 206.500 292.148, 206.013 291.431, 204.246 291.180 C 202.923 290.992, 201.751 291.485, 201.411 292.371 M 215 294.500 C 215 297.702, 215.270 298.101, 217.250 297.820 C 219.012 297.569, 219.500 296.850, 219.500 294.500 C 219.500 292.150, 219.012 291.431, 217.250 291.180 C 215.270 290.899, 215 291.298, 215 294.500 M 288 292.583 C 288 293.454, 288.534 293.989, 289.188 293.771 C 291.042 293.153, 291.349 291, 289.583 291 C 288.712 291, 288 291.712, 288 292.583 M 329.384 292.442 C 328.319 295.217, 329.456 297.500, 331.905 297.500 C 335.059 297.500, 336.846 294.724, 335.070 292.584 C 333.428 290.606, 330.120 290.523, 329.384 292.442 M 383 292.583 C 383 293.454, 383.534 293.989, 384.188 293.771 C 386.042 293.153, 386.349 291, 384.583 291 C 383.712 291, 383 291.712, 383 292.583 M 300.639 293.498 C 299.746 295.825, 299.807 296, 301.500 296 C 303.183 296, 303.373 295.137, 302.124 293.166 C 301.449 292.102, 301.149 292.169, 300.639 293.498 M 100.614 296.564 C 99.381 299.777, 99.949 312.713, 101.375 313.897 C 102.340 314.697, 109.593 314.958, 125.625 314.769 L 148.500 314.500 148.500 305 L 148.500 295.500 124.864 295.232 C 103.964 294.995, 101.157 295.150, 100.614 296.564" stroke="none" fill="#fbfbfb" fill-rule="evenodd"/></svg>