<svg xmlns="http://www.w3.org/2000/svg" width="139.866" height="38.548">
  <path fill="#C00C3F" d="M19.29 38.548c10.644 0 19.289-8.62 19.289-19.269C38.578 8.629 29.934 0 19.29 0 8.629 0 0 8.629 0 19.279c0 10.649 8.629 19.269 19.29 19.269"></path>
  <path fill="#FFF" d="M18.515 10.818V27.73h5.375v-1.521h-3.826V10.818zM13.13 15.433c1.28 0 2.311-1.04 2.311-2.31 0-1.271-1.031-2.316-2.311-2.316-1.278 0-2.31 1.044-2.31 2.316 0 1.271 1.032 2.31 2.31 2.31"></path>
  <path fill="#FFF" d="M20.063 3.147c-.202-.009-.584-.022-.768-.022-8.904 0-16.149 7.248-16.149 16.145 0 4.323 1.68 8.374 4.722 11.42 3.054 3.039 7.106 4.719 11.427 4.719 4.304 0 8.356-1.68 11.405-4.719 3.048-3.046 4.735-7.097 4.735-11.42v-.717H23.904v1.485h9.993c0 .033 0 .19-.006.232-.508 7.607-6.862 13.632-14.597 13.632-3.916 0-7.587-1.523-10.35-4.289-2.772-2.753-4.299-6.423-4.299-10.344 0-3.895 1.527-7.584 4.299-10.345 2.763-2.762 6.435-4.285 10.35-4.285.168 0 .58 0 .768.011V3.147z"></path>
  <path fill="#6D6E71" d="M53.1 6.506h-5.795v25.09h17.801v-4.884H53.1V6.506zm24.757 15.529h4.72v4.388c-.871.331-2.567.662-4.182.662-5.217 0-6.955-2.651-6.955-8.03 0-5.134 1.655-8.157 6.872-8.157 2.899 0 4.555.909 5.919 2.649l3.603-3.314c-2.195-3.144-6.046-4.097-9.647-4.097-8.116 0-12.378 4.431-12.378 12.875 0 8.404 3.849 12.958 12.337 12.958 3.892 0 7.7-.993 9.769-2.441V17.355H77.857v4.68zM133.659 6.467V.146h-4.664v6.321h-6.165v4.459h6.165v6.247h4.664v-6.247h6.207V6.467z"></path>
  <path fill="#6D6E71" d="M113.16 6.495V20.99c0 4.006-1.989 5.976-5.354 5.976s-5.354-1.97-5.354-5.976V6.495h-5.688v14.58c0 7.912 4.209 10.882 10.838 10.882.069 0 .136-.001.204-.001.069 0 .136.001.204.001 6.63 0 10.84-2.971 10.84-10.882V6.495h-5.69z"></path>
</svg>
