<svg width="533" height="107" viewBox="0 0 533 107" fill="none" xmlns="http://www.w3.org/2000/svg">
<path d="M117.549 74V26.7992H123.653V67.6119H137.849V74H117.549ZM160.061 74.3549C157.647 74.3549 155.352 73.8817 153.176 72.9353C150.999 71.9889 149.083 70.6877 147.427 69.0315C145.77 67.3753 144.469 65.4589 143.523 63.2822C142.576 61.1055 142.103 58.8106 142.103 56.3973C142.103 53.9367 142.576 51.5944 143.523 49.3704C144.469 47.1464 145.77 45.2063 147.427 43.5501C149.083 41.894 150.999 40.6164 153.176 39.7173C155.352 38.7709 157.647 38.2977 160.061 38.2977C162.521 38.2977 164.864 38.7709 167.088 39.7173C169.312 40.6164 171.252 41.894 172.908 43.5501C174.564 45.2063 175.842 47.1464 176.741 49.3704C177.687 51.5944 178.16 53.9367 178.16 56.3973C178.16 58.8106 177.687 61.1055 176.741 63.2822C175.842 65.4589 174.564 67.3753 172.908 69.0315C171.252 70.6877 169.312 71.9889 167.088 72.9353C164.864 73.8817 162.521 74.3549 160.061 74.3549ZM160.061 44.6148C156.89 44.6148 154.169 45.7505 151.898 48.0218C150.81 49.1101 149.958 50.3878 149.343 51.8547C148.728 53.3215 148.42 54.8358 148.42 56.3973C148.42 57.9588 148.728 59.4494 149.343 60.8689C149.958 62.2885 150.81 63.5425 151.898 64.6308C152.987 65.7192 154.217 66.5709 155.589 67.186C157.009 67.8012 158.499 68.1088 160.061 68.1088C161.622 68.1088 163.136 67.8012 164.603 67.186C166.07 66.5709 167.324 65.7192 168.365 64.6308C169.406 63.5425 170.234 62.2885 170.849 60.8689C171.465 59.4494 171.772 57.9588 171.772 56.3973C171.772 54.8358 171.465 53.3215 170.849 51.8547C170.234 50.3878 169.406 49.1101 168.365 48.0218C167.324 46.9335 166.07 46.1054 164.603 45.5375C163.184 44.9224 161.67 44.6148 160.061 44.6148ZM201.609 74.3549C199.195 74.3549 196.901 73.9054 194.724 73.0063C192.594 72.0599 190.702 70.7586 189.046 69.1025C187.437 67.4936 186.159 65.6009 185.213 63.4242C184.314 61.2002 183.864 58.8815 183.864 56.4683C183.864 54.055 184.314 51.76 185.213 49.5833C186.159 47.3593 187.437 45.4429 189.046 43.8341C190.702 42.1779 192.594 40.9003 194.724 40.0012C196.901 39.0548 199.195 38.5816 201.609 38.5816C207.192 38.5816 211.924 40.9476 215.804 45.6795L210.268 48.8735C207.808 46.271 204.921 44.9697 201.609 44.9697C200.047 44.9697 198.557 45.2773 197.137 45.8924C195.765 46.4603 194.558 47.2647 193.517 48.3057C192.476 49.3467 191.648 50.577 191.033 51.9966C190.418 53.4162 190.11 54.9067 190.11 56.4683C190.11 58.0298 190.418 59.5203 191.033 60.9399C191.648 62.3595 192.476 63.5898 193.517 64.6308C194.558 65.6718 195.765 66.4999 197.137 67.1151C198.557 67.6829 200.047 67.9668 201.609 67.9668C204.921 67.9668 207.808 66.6655 210.268 64.063L215.804 67.257C211.924 71.9889 207.192 74.3549 201.609 74.3549ZM250.229 74V68.6056C248.715 70.3564 246.964 71.7523 244.977 72.7934C242.989 73.8344 240.884 74.3549 238.66 74.3549C236.199 74.3549 233.88 73.9054 231.704 73.0063C229.574 72.1072 227.682 70.8296 226.025 69.1734C224.369 67.5646 223.068 65.6718 222.122 63.4952C221.223 61.2712 220.773 58.9525 220.773 56.5392C220.773 54.126 221.223 51.831 222.122 49.6543C223.068 47.4303 224.369 45.4902 226.025 43.8341C227.682 42.1779 229.574 40.9003 231.704 40.0012C233.88 39.1021 236.199 38.6526 238.66 38.6526C240.931 38.6526 243.06 39.1258 245.048 40.0722C247.082 41.0186 248.81 42.3435 250.229 44.047V39.3624H256.617V74H250.229ZM238.66 44.9697C237.098 44.9697 235.584 45.2773 234.117 45.8924C232.697 46.4603 231.467 47.2647 230.426 48.3057C229.385 49.3467 228.557 50.6007 227.942 52.0676C227.374 53.4872 227.09 54.9777 227.09 56.5392C227.09 58.1008 227.374 59.5913 227.942 61.0109C228.557 62.4305 229.385 63.6608 230.426 64.7018C231.467 65.7428 232.697 66.5709 234.117 67.186C235.584 67.7539 237.098 68.0378 238.66 68.0378C240.221 68.0378 241.712 67.7539 243.131 67.186C244.551 66.5709 245.781 65.7428 246.822 64.7018C247.863 63.6608 248.668 62.4305 249.235 61.0109C249.851 59.5913 250.158 58.1008 250.158 56.5392C250.158 54.9777 249.851 53.4872 249.235 52.0676C248.668 50.6007 247.863 49.3467 246.822 48.3057C245.781 47.2647 244.551 46.4603 243.131 45.8924C241.712 45.2773 240.221 44.9697 238.66 44.9697ZM275.762 44.8987V74H269.729V44.8987H264.405V38.5107H269.729V26.7992H275.762V38.5107H281.085V44.8987H275.762ZM292.189 33.4002C291.29 33.4002 290.509 33.0926 289.846 32.4775C289.231 31.815 288.924 31.0342 288.924 30.1352C288.924 29.2361 289.231 28.479 289.846 27.8639C290.509 27.2014 291.29 26.8702 292.189 26.8702C293.088 26.8702 293.845 27.2014 294.46 27.8639C295.122 28.479 295.454 29.2361 295.454 30.1352C295.454 31.0342 295.122 31.815 294.46 32.4775C293.845 33.0926 293.088 33.4002 292.189 33.4002ZM289.279 74V38.5107H295.241V74H289.279ZM319.097 74.3549C316.684 74.3549 314.389 73.8817 312.212 72.9353C310.036 71.9889 308.119 70.6877 306.463 69.0315C304.807 67.3753 303.506 65.4589 302.559 63.2822C301.613 61.1055 301.14 58.8106 301.14 56.3973C301.14 53.9367 301.613 51.5944 302.559 49.3704C303.506 47.1464 304.807 45.2063 306.463 43.5501C308.119 41.894 310.036 40.6164 312.212 39.7173C314.389 38.7709 316.684 38.2977 319.097 38.2977C321.558 38.2977 323.9 38.7709 326.124 39.7173C328.348 40.6164 330.288 41.894 331.944 43.5501C333.601 45.2063 334.878 47.1464 335.777 49.3704C336.724 51.5944 337.197 53.9367 337.197 56.3973C337.197 58.8106 336.724 61.1055 335.777 63.2822C334.878 65.4589 333.601 67.3753 331.944 69.0315C330.288 70.6877 328.348 71.9889 326.124 72.9353C323.9 73.8817 321.558 74.3549 319.097 74.3549ZM319.097 44.6148C315.927 44.6148 313.206 45.7505 310.935 48.0218C309.846 49.1101 308.995 50.3878 308.38 51.8547C307.764 53.3215 307.457 54.8358 307.457 56.3973C307.457 57.9588 307.764 59.4494 308.38 60.8689C308.995 62.2885 309.846 63.5425 310.935 64.6308C312.023 65.7192 313.253 66.5709 314.626 67.186C316.045 67.8012 317.536 68.1088 319.097 68.1088C320.659 68.1088 322.173 67.8012 323.64 67.186C325.107 66.5709 326.361 65.7192 327.402 64.6308C328.443 63.5425 329.271 62.2885 329.886 60.8689C330.501 59.4494 330.809 57.9588 330.809 56.3973C330.809 54.8358 330.501 53.3215 329.886 51.8547C329.271 50.3878 328.443 49.1101 327.402 48.0218C326.361 46.9335 325.107 46.1054 323.64 45.5375C322.22 44.9224 320.706 44.6148 319.097 44.6148ZM366.929 74V52.7064C366.929 50.577 366.148 48.7316 364.587 47.1701C363.073 45.6558 361.227 44.8987 359.051 44.8987C356.921 44.8987 355.076 45.6795 353.514 47.241C352.804 47.9508 352.237 48.8026 351.811 49.7963C351.385 50.7427 351.172 51.7127 351.172 52.7064V74H344.997V39.3624H351.172V42.2725C352.071 41.1842 353.254 40.2851 354.721 39.5753C356.188 38.8656 357.631 38.5107 359.051 38.5107C360.943 38.5107 362.741 38.8892 364.445 39.6463C366.196 40.3561 367.734 41.3735 369.059 42.6984C370.336 43.976 371.33 45.4902 372.04 47.241C372.797 48.9445 373.175 50.7663 373.175 52.7064V74H366.929ZM418.126 69.4574C417.038 70.2618 415.95 70.9479 414.861 71.5157C411.407 73.3612 407.74 74.2839 403.86 74.2839C401.446 74.2839 399.128 73.929 396.904 73.2192C393.97 72.3675 391.297 70.9479 388.883 68.9605C386.47 66.9731 384.506 64.5598 382.992 61.7207C381.194 58.4557 380.295 54.8358 380.295 50.861C380.295 49.6307 380.342 48.6843 380.437 48.0218C380.721 45.4193 381.383 42.9587 382.424 40.64C383.513 38.2741 384.908 36.192 386.612 34.3939C388.315 32.5958 390.255 31.0816 392.432 29.8513C394.656 28.621 397.022 27.7692 399.53 27.296C400.95 27.0121 402.416 26.8702 403.931 26.8702C407.858 26.8702 411.596 27.8639 415.145 29.8513C417.795 31.4128 420.185 33.4239 422.314 35.8845L417.417 40.0012C415.098 37.446 412.661 35.6242 410.106 34.5359C407.976 33.7314 405.823 33.3292 403.647 33.3292C400.855 33.3292 398.205 33.9917 395.697 35.3166C392.574 36.9728 390.161 39.528 388.457 42.9823C387.227 45.3483 386.612 47.8798 386.612 50.577C386.612 52.0912 386.825 53.6055 387.251 55.1197C388.15 58.8106 390.185 61.8626 393.355 64.2759C394.822 65.4116 396.454 66.287 398.252 66.9021C400.051 67.5173 401.896 67.8249 403.789 67.8249C406.297 67.8249 408.639 67.328 410.816 66.3343C413.04 65.2933 415.003 63.85 416.707 62.0046V57.249H410.177V50.861H423.024V64.3469C421.557 66.4289 419.925 68.1324 418.126 69.4574ZM452.862 73.7871V70.806C451.916 71.7997 450.709 72.6277 449.242 73.2902C447.823 73.9527 446.403 74.2839 444.984 74.2839C443.091 74.2839 441.269 73.929 439.518 73.2192C437.815 72.4621 436.3 71.4211 434.976 70.0962C433.698 68.7712 432.681 67.257 431.923 65.5535C431.214 63.8027 430.859 61.9573 430.859 60.0172V38.5107H437.105V60.0172C437.105 62.1939 437.886 64.063 439.447 65.6245C441.009 67.186 442.854 67.9668 444.984 67.9668C445.977 67.9668 446.971 67.7539 447.965 67.328C448.958 66.9021 449.81 66.3343 450.52 65.6245C452.081 64.063 452.862 62.1939 452.862 60.0172V38.5107H459.037V73.7871H452.862ZM483.405 45.3246C482.269 44.8041 481.252 44.5438 480.353 44.5438C478.46 44.5438 476.898 45.2063 475.668 46.5313C474.343 47.9508 473.681 49.5833 473.681 51.4288V74H467.576V51.4288C467.576 48.8735 468.215 46.5313 469.493 44.4019C470.818 42.2725 472.616 40.6164 474.887 39.4334C476.591 38.629 478.412 38.2267 480.353 38.2267C481.914 38.2267 483.405 38.5107 484.824 39.0785C486.244 39.6463 487.734 40.569 489.296 41.8467L483.405 45.3246ZM517.045 73.7871V70.806C516.099 71.7997 514.892 72.6277 513.425 73.2902C512.006 73.9527 510.586 74.2839 509.167 74.2839C507.274 74.2839 505.452 73.929 503.701 73.2192C501.998 72.4621 500.484 71.4211 499.159 70.0962C497.881 68.7712 496.864 67.257 496.106 65.5535C495.397 63.8027 495.042 61.9573 495.042 60.0172V38.5107H501.288V60.0172C501.288 62.1939 502.069 64.063 503.63 65.6245C505.192 67.186 507.037 67.9668 509.167 67.9668C510.16 67.9668 511.154 67.7539 512.148 67.328C513.141 66.9021 513.993 66.3343 514.703 65.6245C516.264 64.063 517.045 62.1939 517.045 60.0172V38.5107H523.22V73.7871H517.045Z" fill="#330C89"/>
<path fill-rule="evenodd" clip-rule="evenodd" d="M2.00373 30.9413C6.31082 16.3929 18.1135 5.22943 32.8164 1.48636L32.8156 1.48709C62.4352 -6.05322 89 16.1214 89 44.5003C89 49.7347 88.0915 54.7545 86.4283 59.4177C85.0489 63.2857 78.7371 63.3586 78.3363 56.9478C78.2734 55.9346 78.4424 54.9228 78.7125 53.9443C79.5416 50.9378 79.9843 47.771 79.9843 44.501C79.9843 24.4554 63.3632 8.29222 43.1508 9.04184C24.8796 9.71997 9.93041 24.5059 9.05801 42.7692C8.69764 50.3131 10.706 57.3602 14.3913 63.2532C15.2998 64.7062 17.3335 64.925 18.5453 63.7132L23.9162 58.3424C25.0089 57.2497 25.2674 55.5887 24.5893 54.2006C22.9911 50.932 22.1728 47.2135 22.3837 43.2834C22.973 32.3026 31.767 23.2717 42.7305 22.4203C56.3667 21.3615 67.6559 32.6615 66.5777 46.3021C65.7378 56.9348 57.1987 65.5851 46.5761 66.5543C42.3398 66.9407 38.3252 66.1304 34.8248 64.426C33.2475 63.6583 31.3655 63.9205 30.1248 65.1612L22.7556 72.5303L19.6676 75.6184L19.0104 76.2756C17.4722 77.8138 14.9698 77.8565 13.4135 76.3363C2.22183 65.4075 -3.23354 48.6312 2.00373 30.9413ZM57.4941 46.2025C58.5744 37.6323 51.3671 30.4249 42.7969 31.5053C36.9574 32.2412 32.2422 36.9564 31.5063 42.7959C30.4259 51.3661 37.6333 58.5735 46.2035 57.4931C52.043 56.7572 56.7582 52.042 57.4941 46.2025ZM68.633 68.5821C69.145 65.9006 71.4134 63.8013 74.131 63.5362L74.1317 63.5355C78.0553 63.1527 81.3261 66.4083 80.9686 70.3269C80.7642 72.5678 79.2722 74.5119 77.2205 75.437C76.2925 75.8552 75.3934 76.004 74.5405 75.9729C73.9021 75.9491 73.2759 76.1556 72.8238 76.6077L51.4118 98.0197C50.9496 98.4819 50.6767 99.1174 50.7287 99.7681C50.7409 99.9234 50.7474 100.081 50.7474 100.24C50.7474 104.23 46.9986 107.346 42.8302 106.256C41.4558 105.897 40.2772 105 39.4727 103.829C38.5108 102.429 38.2118 101.108 38.2855 99.888C38.3317 99.121 38.0609 98.37 37.5178 97.8269L29.2192 89.5283C28.7238 89.0329 28.0399 88.7721 27.3408 88.8227C26.4872 88.8848 25.5823 88.7664 24.6369 88.3663C22.3389 87.3942 20.7119 85.1786 20.6801 82.6827C20.6317 78.8826 23.9841 75.8509 27.886 76.4394C30.1457 76.7796 32.0436 78.4153 32.7998 80.5718C33.1392 81.5409 33.2143 82.4755 33.1045 83.3529C33.0265 83.9754 33.2085 84.6008 33.6519 85.0442L42.0957 93.488C42.5398 93.9314 43.1631 94.1235 43.7863 94.0477C44.0239 94.0188 44.2651 94.0036 44.5107 94.0036C44.8927 94.0036 45.2661 94.0398 45.6286 94.1069C46.197 94.2124 46.7798 94.0549 47.1885 93.6462L67.7209 73.1138C68.3976 72.4364 68.6994 71.4831 68.5745 70.5334C68.4922 69.9095 68.5045 69.2552 68.633 68.5821Z" fill="#E72B77"/>
</svg>
