<?xml version="1.0" standalone="no"?>
<!DOCTYPE svg PUBLIC "-//W3C//DTD SVG 20010904//EN"
 "http://www.w3.org/TR/2001/REC-SVG-20010904/DTD/svg10.dtd">
<svg version="1.0" xmlns="http://www.w3.org/2000/svg"
 width="2000.000000pt" height="1161.000000pt" viewBox="0 0 2000.000000 1161.000000"
 preserveAspectRatio="xMidYMid meet">

<g transform="translate(0.000000,1161.000000) scale(0.100000,-0.100000)"
fill="#000000" stroke="none">
<path d="M17135 11518 c-158 -659 -498 -1218 -940 -1547 -270 -201 -538 -317
-942 -406 l-23 -5 0 -429 0 -428 84 -17 c405 -80 836 -279 1121 -517 191 -160
321 -324 425 -534 93 -190 145 -350 241 -747 l33 -138 453 0 452 0 11 39 c5
21 28 125 50 232 115 551 186 723 403 971 236 269 578 486 962 613 98 32 334
90 433 105 l72 12 -2 411 -3 411 -95 17 c-319 56 -577 161 -824 336 -116 83
-374 344 -482 488 -240 321 -399 658 -508 1075 l-33 125 -435 3 -435 2 -18
-72z m561 -1540 c181 -296 439 -562 728 -752 49 -32 84 -61 79 -66 -4 -4 -56
-39 -115 -79 -257 -174 -470 -391 -655 -669 l-81 -123 -67 103 c-189 288 -411
515 -693 706 l-102 69 79 52 c191 124 382 292 523 461 83 99 188 244 229 317
13 24 27 43 30 43 3 0 23 -28 45 -62z"/>
<path d="M10 6563 c0 -3255 -2 -3085 54 -3298 96 -359 336 -651 640 -778 208
-87 349 -107 761 -107 l321 0 55 518 c31 284 56 518 55 518 -1 1 -76 7 -167
13 -198 13 -256 28 -314 82 -75 69 -107 179 -124 429 -7 95 -11 1095 -11 2883
l0 2737 -635 0 -635 0 0 -2997z"/>
<path d="M9065 8964 c-324 -34 -591 -63 -592 -63 -2 -1 -3 -291 -3 -646 l0
-645 -310 0 c-292 0 -310 -1 -310 -18 0 -21 -97 -928 -105 -984 l-5 -38 365 0
364 0 4 -1527 c3 -1509 3 -1529 24 -1623 59 -267 185 -510 356 -688 119 -124
336 -249 517 -297 194 -51 252 -55 842 -55 l547 0 6 33 c7 44 105 959 105 984
0 19 -10 20 -327 26 -382 7 -504 21 -601 68 -96 47 -139 113 -167 262 -29 149
-36 518 -33 1677 l3 1135 563 3 562 2 0 520 0 520 -562 2 -563 3 -3 708 -2
707 -43 -1 c-23 -1 -307 -30 -632 -65z"/>
<path d="M13920 7614 c-139 -19 -299 -58 -440 -106 -135 -46 -397 -172 -523
-252 -49 -31 -90 -56 -92 -56 -2 0 -6 48 -9 108 -4 59 -9 137 -12 175 l-6 67
-594 0 -594 0 0 -2565 0 -2565 635 0 635 0 0 1863 0 1863 93 90 c151 148 294
237 472 293 151 48 214 56 420 55 172 -1 200 -3 290 -27 55 -15 143 -48 195
-73 80 -40 109 -61 185 -138 50 -50 105 -117 123 -148 110 -187 176 -433 201
-747 7 -88 11 -646 11 -1583 l0 -1448 635 0 636 0 -4 1593 c-4 1652 -4 1632
-48 1907 -109 684 -436 1218 -907 1484 -171 97 -352 159 -582 201 -133 24
-573 30 -720 9z"/>
<path d="M2083 7583 c35 -67 2120 -4758 2120 -4768 0 -5 -251 -631 -558 -1390
-306 -759 -561 -1390 -566 -1402 l-9 -23 638 0 638 0 1602 3798 c881 2088
1602 3801 1602 3805 0 4 -318 7 -707 7 l-708 -1 -648 -1607 c-356 -884 -656
-1625 -666 -1647 -13 -28 -20 -36 -25 -25 -3 8 -298 749 -654 1645 l-648 1630
-712 3 -713 2 14 -27z"/>
</g>
</svg>
