<?xml version="1.0" encoding="UTF-8"?>
<svg xmlns="http://www.w3.org/2000/svg" version="1.1" viewBox="0 0 500 500">
  <defs>
    <style>
      .cls-1 {
        fill: #ff9e1b;
      }

      .cls-2 {
        fill: #fff;
      }
    </style>
  </defs>
  <!-- Generator: Adobe Illustrator 28.7.1, SVG Export Plug-In . SVG Version: 1.2.0 Build 142)  -->
  <g>
    <g id="Layer_1">
      <path class="cls-2" d="M250,1.96c-66.25,0-128.54,25.8-175.38,72.65C27.77,121.45,1.97,183.74,1.97,249.99s25.8,128.55,72.65,175.4c46.85,46.85,109.13,72.65,175.38,72.65s128.54-25.8,175.39-72.65c46.85-46.85,72.64-109.14,72.64-175.4s-25.8-128.54-72.65-175.38C378.54,27.76,316.25,1.96,250,1.96h0Z"/>
      <path class="cls-1" d="M250,10.82c132.1,0,239.17,107.08,239.17,239.17s-107.08,239.19-239.17,239.19S10.83,382.09,10.83,249.99,117.91,10.82,250,10.82"/>
      <g>
        <polygon class="cls-2" points="387.68 350.3 387.68 113.2 327.55 113.2 287.65 177.46 337.87 177.46 337.87 350.3 319.28 350.3 319.28 392.14 321.36 392.14 337.87 392.14 387.68 392.14 404.83 392.14 406.92 392.14 406.92 350.3 387.68 350.3"/>
        <polygon class="cls-2" points="248.38 247.23 162.13 113.2 109.08 113.2 109.08 392.14 158.08 392.14 158.08 194.19 246.76 327.01 248.38 327.01 324.27 214.46 269.43 214.46 248.38 247.23"/>
      </g>
    </g>
  </g>
</svg>