<svg width="226" height="114" viewBox="0 0 226 114" fill="none" xmlns="http://www.w3.org/2000/svg">
<g clip-path="url(#clip0_7670_331)">
<path fill-rule="evenodd" clip-rule="evenodd" d="M88.7422 112.528H95.6283L95.6052 61.2162L88.7422 112.528Z" fill="#AB1E2C"/>
<path fill-rule="evenodd" clip-rule="evenodd" d="M66.3672 112.528H73.6684L66.3918 62.1158L66.3672 112.528Z" fill="#AB1E2C"/>
<path fill-rule="evenodd" clip-rule="evenodd" d="M1.2041 1.5276V112.528H27.8767H45.9029V26.6153H75.7457L75.8041 26.9527C76.665 32.1551 77.5629 38.3573 78.4746 45.3883L81.2404 64.488L86.0771 26.6153H114.306V25.9236V1.5276H1.2041Z" fill="#AB1E2C"/>
<path fill-rule="evenodd" clip-rule="evenodd" d="M131.931 71.6619C131.931 75.3931 134.314 78.7238 140.058 81.5014C142.23 79.9947 143.422 76.661 143.422 72.8528C143.422 67.3777 140.41 64.2828 137.606 64.2828C134.385 64.2828 131.931 67.3777 131.931 71.6619ZM143.843 101.419C143.843 95.1506 139.987 91.8184 134.172 88.7219C131.65 91.5796 130.6 94.9934 130.6 98.8001C130.6 104.355 133.473 108.878 138.028 108.878C141.111 108.878 143.843 106.179 143.843 101.419ZM121.561 99.6736C121.561 93.7225 125.274 89.6739 130.81 86.502C126.464 83.8029 123.381 79.9146 123.381 74.2809C123.381 66.5042 129.059 60.6332 137.747 60.6332C145.665 60.6332 151.27 65.472 151.27 73.0115C151.27 78.6452 147.347 81.5815 143.632 83.9616C148.889 86.9765 153.021 91.1837 153.021 98.8001C153.021 106.259 147.908 112.528 136.904 112.528C128.707 112.528 121.561 108.322 121.561 99.6736Z" fill="#252728"/>
<path fill-rule="evenodd" clip-rule="evenodd" d="M173.695 108.879C179.02 108.879 179.651 93.6411 179.651 86.5793C179.651 79.5175 179.02 64.2831 173.695 64.2831C168.371 64.2831 167.74 79.5175 167.74 86.5793C167.74 93.6411 168.371 108.879 173.695 108.879ZM189.881 86.5793C189.881 99.355 185.047 112.528 173.695 112.528C162.342 112.528 157.51 99.355 157.51 86.5793C157.51 74.2812 162.342 60.6335 173.695 60.6335C185.047 60.6335 189.881 74.2812 189.881 86.5793Z" fill="#252728"/>
<path fill-rule="evenodd" clip-rule="evenodd" d="M210.134 108.879C215.459 108.879 216.09 93.6411 216.09 86.5793C216.09 79.5175 215.459 64.2831 210.134 64.2831C204.81 64.2831 204.179 79.5175 204.179 86.5793C204.179 93.6411 204.81 108.879 210.134 108.879ZM226.319 86.5793C226.319 99.355 221.486 112.528 210.134 112.528C198.783 112.528 193.949 99.355 193.949 86.5793C193.949 74.2812 198.783 60.6335 210.134 60.6335C221.486 60.6335 226.319 74.2812 226.319 86.5793Z" fill="#252728"/>
</g>
<defs>
<clipPath id="clip0_7670_331">
<rect width="226" height="114" fill="white"/>
</clipPath>
</defs>
</svg>
