<svg width="30" height="15" viewBox="0 0 30 15" fill="none" xmlns="http://www.w3.org/2000/svg">
<g clip-path="url(#clip0_3786_430)">
<path fill-rule="evenodd" clip-rule="evenodd" d="M17.0189 7.95064C17.0189 8.10449 17.0227 8.11544 17.1216 8.11544H17.3744C17.5643 8.11544 17.6085 8.07713 17.6452 7.81321L17.6636 7.67598C17.689 7.63199 17.7804 7.63199 17.7991 7.68145C17.7916 7.8572 17.7881 8.05503 17.7881 8.26382C17.7881 8.4726 17.7916 8.67044 17.7991 8.84638C17.7804 8.89584 17.689 8.90132 17.6636 8.85186L17.6452 8.71463C17.6085 8.45071 17.5643 8.40672 17.3744 8.40672H17.1216C17.0227 8.40672 17.0189 8.41219 17.0189 8.57699V9.23091C17.0189 9.48388 17.0336 9.65963 17.0776 9.75307C17.1251 9.85199 17.1948 9.89598 17.4622 9.89598C17.7804 9.89598 17.9051 9.87936 18.1066 9.25848C18.1355 9.19787 18.2274 9.21997 18.2418 9.28584C18.2274 9.57186 18.1394 10.0168 18.0883 10.1652C17.8939 10.1542 17.5428 10.1487 17.2426 10.1487H16.7663C16.5905 10.1487 16.4111 10.1542 16.1365 10.1652C16.1075 10.1323 16.1075 10.0004 16.1365 9.97301L16.3088 9.93429C16.4736 9.89598 16.4955 9.86294 16.4955 9.3574V7.30767C16.4955 6.8076 16.4736 6.77476 16.3088 6.7253L16.2174 6.69774C16.1841 6.6649 16.188 6.53841 16.2245 6.50537C16.3968 6.51652 16.5759 6.52199 16.7519 6.52199H17.5278C17.7622 6.52199 17.9709 6.51652 18.0184 6.50537C18.0222 6.59334 18.0476 6.98902 18.0662 7.35713C18.0518 7.41774 17.9675 7.42868 17.9306 7.37922C17.8905 7.18686 17.8392 7.02186 17.7916 6.94503C17.7222 6.84064 17.6122 6.77476 17.4328 6.77476H17.1399C17.0189 6.77476 17.0189 6.78571 17.0189 6.98902V7.95064Z" fill="#252728"/>
<path fill-rule="evenodd" clip-rule="evenodd" d="M19.0592 7.02765C19.0592 7.29137 18.9236 7.4288 18.7844 7.4288C18.6234 7.4288 18.528 7.26401 18.528 7.0386C18.528 6.79678 18.6563 6.63745 18.8028 6.63745C18.9563 6.63745 19.0592 6.80792 19.0592 7.02765ZM19.0296 9.51137C19.0296 9.8961 19.0444 9.94556 19.165 9.96198L19.2346 9.97313C19.264 10.006 19.264 10.1325 19.2311 10.1653C19.103 10.1543 18.9601 10.1489 18.7919 10.1489C18.6271 10.1489 18.4732 10.1543 18.3526 10.1653C18.3194 10.1325 18.3194 10.006 18.3486 9.97313L18.4185 9.96198C18.5393 9.94556 18.5537 9.8961 18.5537 9.51137V8.68171C18.5537 8.46198 18.5537 8.3959 18.4842 8.33002L18.4329 8.28056C18.4071 8.24752 18.4071 8.1486 18.4329 8.11576C18.6052 8.04421 18.8648 7.89583 18.9747 7.79691C19.0043 7.79691 19.026 7.81333 19.0408 7.84637C19.0333 8.01137 19.0296 8.25299 19.0296 8.50029V9.51137Z" fill="#252728"/>
<path fill-rule="evenodd" clip-rule="evenodd" d="M20.1611 9.34094C20.2749 9.34094 20.3699 9.18162 20.3699 8.78047C20.3699 8.33533 20.2637 8.12655 20.1318 8.12655C20.0184 8.12655 19.9086 8.29135 19.9086 8.66513C19.9086 9.0827 20.0146 9.34094 20.1611 9.34094ZM20.0809 10.4564C19.9818 10.4564 19.9086 10.4895 19.8759 10.5278C19.8388 10.5772 19.8245 10.6488 19.8245 10.7201C19.8245 11.0939 20.0111 11.3355 20.3004 11.3355C20.5311 11.3355 20.6847 11.1653 20.6847 10.9015C20.6847 10.5827 20.5274 10.4564 20.3261 10.4564H20.0809ZM21.113 8.07709C21.1388 8.11013 21.1461 8.15391 21.1461 8.21432C21.1461 8.30229 21.1278 8.40121 21.0911 8.43425H20.8203C20.8274 8.48371 20.8315 8.53317 20.8315 8.62662C20.8315 9.0606 20.6592 9.58824 20.0809 9.58824C20.0221 9.58824 19.9712 9.57729 19.9307 9.57182C19.894 9.59371 19.8686 9.6375 19.8686 9.70358C19.8686 9.82459 19.9453 9.90141 20.0551 9.90141C20.1796 9.90141 20.3296 9.89027 20.5019 9.89027C20.7763 9.89027 21.0693 10.0003 21.0693 10.5553C21.0693 10.9015 20.9304 11.2093 20.7399 11.385C20.5495 11.5555 20.3113 11.6268 20.0989 11.6268C19.5719 11.6268 19.3813 11.2642 19.3813 10.9236C19.3813 10.7917 19.4363 10.7037 19.4987 10.6488C19.5719 10.5827 19.6378 10.5113 19.6781 10.4783C19.7219 10.4398 19.7109 10.4124 19.6818 10.4015C19.5463 10.3356 19.4545 10.1542 19.4545 9.96182C19.4545 9.91804 19.4622 9.87385 19.4805 9.84648C19.5828 9.74756 19.6925 9.62108 19.7146 9.58824C19.7474 9.54973 19.7622 9.51689 19.7438 9.46723C19.5607 9.35736 19.4326 9.09364 19.4326 8.75837C19.4326 8.30229 19.6706 7.87378 20.1468 7.87378C20.3626 7.87378 20.5566 7.96723 20.692 8.07709H21.113Z" fill="#252728"/>
<path fill-rule="evenodd" clip-rule="evenodd" d="M21.3775 7.09362C21.3775 6.87389 21.3775 6.81348 21.3045 6.7474L21.2423 6.69247C21.2166 6.65943 21.2166 6.56071 21.2423 6.52767C21.396 6.47274 21.6082 6.34078 21.8024 6.21997C21.8245 6.21997 21.85 6.23092 21.8648 6.25828C21.8571 6.48369 21.8539 6.71436 21.8539 7.06058V8.07186C21.8539 8.12112 21.8612 8.13774 21.8794 8.13774C21.8831 8.13774 21.9015 8.1268 21.9378 8.09375C22.0183 8.01125 22.176 7.87403 22.3586 7.87403C22.6663 7.87403 22.8204 8.1872 22.8204 8.56625V9.51146C22.8204 9.89619 22.8348 9.93997 22.9669 9.96207L23.0253 9.97321C23.0545 10.0061 23.0545 10.1325 23.0214 10.1654C22.9079 10.1544 22.7543 10.149 22.5787 10.149C22.421 10.149 22.2637 10.1544 22.1835 10.1654C22.1502 10.1325 22.1502 10.0061 22.1794 9.97321L22.2455 9.95659C22.3296 9.9345 22.3444 9.89619 22.3444 9.59375V8.64328C22.3444 8.45092 22.2676 8.27517 22.0878 8.27517C21.9856 8.27517 21.9123 8.34652 21.8831 8.40693C21.8612 8.44544 21.8539 8.51153 21.8539 8.61024V9.59375C21.8539 9.89619 21.8683 9.9345 21.9526 9.95659L22.0183 9.97321C22.0477 10.0061 22.0477 10.1325 22.0148 10.1654C21.9015 10.1544 21.7841 10.149 21.6082 10.149C21.458 10.149 21.3045 10.1544 21.1797 10.1654C21.147 10.1325 21.147 10.0061 21.1764 9.97321L21.2423 9.96207C21.3631 9.93997 21.3775 9.89619 21.3775 9.51146V7.09362Z" fill="#252728"/>
<path fill-rule="evenodd" clip-rule="evenodd" d="M23.9152 8.2474C23.8678 8.2474 23.8642 8.25288 23.8642 8.37389V9.19788C23.8642 9.50578 23.8642 9.84652 24.1208 9.84652C24.1719 9.84652 24.2304 9.80801 24.2742 9.76402C24.3107 9.78065 24.333 9.84105 24.3251 9.90693C24.2229 10.0717 24.0251 10.2256 23.7985 10.2256C23.4944 10.2256 23.388 9.96186 23.388 9.59923V8.37389C23.388 8.25855 23.3846 8.2474 23.3185 8.2474H23.2052C23.1648 8.22551 23.1537 8.11565 23.1831 8.07713C23.2966 8.01673 23.399 7.91781 23.4871 7.82983C23.553 7.75828 23.6444 7.64294 23.7581 7.40132C23.7835 7.37923 23.8496 7.3847 23.8678 7.42869V7.84098C23.8678 7.94517 23.8715 7.95065 23.9373 7.95065H24.2633C24.2815 7.97274 24.2925 8.00558 24.2925 8.05504C24.2925 8.11565 24.2815 8.21436 24.2448 8.2474H23.9152Z" fill="#252728"/>
<path fill-rule="evenodd" clip-rule="evenodd" d="M17.0887 12.949C16.9385 12.949 16.9349 12.9544 16.9349 13.1083V13.8996C16.9349 14.4106 16.957 14.4601 17.1218 14.4931L17.2387 14.515C17.2679 14.5481 17.2679 14.6746 17.2387 14.7074C17.0299 14.6965 16.8469 14.691 16.6821 14.691C16.5066 14.691 16.3237 14.6965 16.1366 14.7074C16.1074 14.6746 16.1074 14.5481 16.1366 14.515L16.2244 14.4986C16.3929 14.4656 16.4111 14.4106 16.4111 13.8996V11.8554C16.4111 11.3444 16.3929 11.2894 16.2244 11.2564L16.1366 11.24C16.1074 11.2071 16.1074 11.0806 16.1366 11.0476C16.3158 11.0586 16.5066 11.0642 16.6821 11.0642C16.8469 11.0642 17.0299 11.0586 17.1911 11.0476C17.2203 11.0806 17.2203 11.2071 17.1911 11.24L17.1141 11.2564C16.957 11.2894 16.9349 11.3444 16.9349 11.8554V12.4929C16.9349 12.6522 16.9385 12.6577 17.0887 12.6577H17.8503C18.0039 12.6577 18.0039 12.6522 18.0039 12.4929V11.8554C18.0039 11.3444 17.9859 11.3006 17.817 11.2621L17.7181 11.24C17.6889 11.2071 17.6889 11.0806 17.7181 11.0476C17.92 11.0586 18.0992 11.0642 18.2749 11.0642C18.4539 11.0642 18.6228 11.0586 18.791 11.0476C18.8204 11.0806 18.8204 11.2071 18.791 11.24L18.7181 11.2564C18.5496 11.2949 18.5275 11.3444 18.5275 11.8554V13.8996C18.5275 14.4106 18.5496 14.4492 18.7181 14.4931L18.8058 14.515C18.8354 14.5481 18.8354 14.6746 18.8058 14.7074C18.6228 14.6965 18.4434 14.691 18.2749 14.691C18.0917 14.691 17.9121 14.6965 17.7366 14.7074C17.7074 14.6746 17.7074 14.5481 17.7366 14.515L17.817 14.4986C17.9859 14.4656 18.0039 14.4106 18.0039 13.8996V13.1083C18.0039 12.9544 18.0039 12.949 17.8503 12.949H17.0887Z" fill="#252728"/>
<path fill-rule="evenodd" clip-rule="evenodd" d="M20.601 13.9657C20.601 14.29 20.612 14.4327 20.6999 14.4327C20.7476 14.4327 20.8025 14.4108 20.8465 14.3887C20.8793 14.3999 20.8832 14.5977 20.8351 14.6251C20.4768 14.647 20.1693 14.8229 20.1581 14.8229C20.1322 14.8174 20.1178 14.7899 20.1141 14.757C20.1214 14.6912 20.1251 14.6032 20.1251 14.5592C20.1251 14.5264 20.1068 14.5043 20.0847 14.5043C19.9422 14.6415 19.8137 14.768 19.5867 14.768C19.283 14.768 19.1584 14.5316 19.1584 14.0646V13.1303C19.1584 12.8391 19.1365 12.8117 19.0489 12.7732L19.0011 12.7513C18.9751 12.7018 18.979 12.5974 19.0157 12.5589C19.1365 12.5534 19.2648 12.5368 19.3708 12.5095C19.4809 12.4819 19.5867 12.416 19.6015 12.416C19.6236 12.416 19.642 12.4545 19.6453 12.4819C19.6382 12.6193 19.6343 12.7677 19.6343 12.9655V13.8722C19.6343 14.1362 19.6603 14.3668 19.8944 14.3668C19.9972 14.3668 20.0555 14.2953 20.0847 14.2624C20.1105 14.2351 20.1251 14.1524 20.1251 14.0974V13.059C20.1251 12.8391 20.0993 12.7898 19.9678 12.7622L19.9163 12.7513C19.8873 12.7128 19.8907 12.581 19.9347 12.5589C20.0663 12.548 20.1986 12.5259 20.3152 12.504C20.4435 12.4766 20.5538 12.416 20.5753 12.416C20.5903 12.416 20.6085 12.4436 20.612 12.4819C20.6085 12.581 20.601 12.7622 20.601 12.9655V13.9657Z" fill="#252728"/>
<path fill-rule="evenodd" clip-rule="evenodd" d="M21.1944 13.2239C21.1944 13.0042 21.1944 12.9381 21.1247 12.8722L21.0734 12.8228C21.0478 12.7897 21.0478 12.6908 21.0734 12.658C21.2455 12.5864 21.5094 12.4382 21.6152 12.3391C21.6446 12.3391 21.6665 12.3557 21.6813 12.3886C21.6813 12.4656 21.6705 12.5974 21.6705 12.6359C21.6705 12.6689 21.6778 12.6799 21.6888 12.6799C21.6997 12.6799 21.736 12.6525 21.7581 12.6359C21.839 12.5645 22.0107 12.4161 22.1789 12.4161C22.483 12.4161 22.637 12.7293 22.637 13.1086V14.0536C22.637 14.4383 22.6514 14.4823 22.7834 14.5042L22.842 14.5153C22.871 14.5482 22.871 14.6747 22.8381 14.7075C22.7246 14.6965 22.5712 14.6911 22.3952 14.6911C22.2487 14.6911 22.106 14.6965 22.0001 14.7075C21.9667 14.6747 21.9667 14.5482 21.9961 14.5153L22.0622 14.4989C22.1463 14.4768 22.1609 14.4383 22.1609 14.1361V13.2075C22.1609 12.993 22.0875 12.8173 21.9047 12.8173C21.8021 12.8173 21.7289 12.8886 21.6997 12.9492C21.6778 12.9876 21.6705 13.0536 21.6705 13.1526V14.1361C21.6705 14.4383 21.6849 14.4878 21.7764 14.5042L21.8349 14.5153C21.8645 14.5482 21.8645 14.6747 21.8313 14.7075C21.7182 14.6965 21.6008 14.6911 21.4249 14.6911C21.2712 14.6911 21.1212 14.6965 20.9931 14.7075C20.9601 14.6747 20.9601 14.5482 20.9889 14.5153L21.0478 14.5042C21.1798 14.4823 21.1944 14.4383 21.1944 14.0536V13.2239Z" fill="#252728"/>
<path fill-rule="evenodd" clip-rule="evenodd" d="M24.1501 13.059C24.1501 12.971 24.1389 12.9161 24.1241 12.8721C24.0804 12.7568 23.9997 12.6688 23.9154 12.6688C23.7287 12.6688 23.5456 12.9601 23.5456 13.537C23.5456 13.8996 23.6557 14.3997 23.9557 14.3997C24.0072 14.3997 24.0583 14.3778 24.1057 14.3338C24.146 14.2953 24.1501 14.2239 24.1501 14.125V13.059ZM24.626 13.7897C24.626 14.3062 24.6404 14.4327 24.7102 14.4327C24.776 14.4327 24.8052 14.4218 24.8675 14.3887C24.9078 14.4382 24.9078 14.5754 24.8713 14.6251C24.5087 14.6581 24.2229 14.8227 24.2123 14.8227C24.1866 14.8227 24.1572 14.7899 24.1501 14.7459L24.1608 14.5754C24.1572 14.5316 24.1424 14.5152 24.128 14.5316C23.9997 14.6524 23.8681 14.768 23.7323 14.768C23.315 14.768 23.0332 14.2789 23.0332 13.6853C23.0332 12.9106 23.4212 12.416 23.9042 12.416C23.9851 12.416 24.0731 12.427 24.1134 12.4434C24.1389 12.427 24.1501 12.3832 24.1501 12.339V11.6358C24.1501 11.4159 24.1501 11.3555 24.0765 11.2896L24.0143 11.2347C23.9851 11.2016 23.9889 11.1027 24.0143 11.0699C24.1718 11.0147 24.3954 10.8828 24.5746 10.762C24.6003 10.762 24.622 10.7731 24.6368 10.8005C24.6297 11.0257 24.626 11.2566 24.626 11.6028V13.7897Z" fill="#252728"/>
<path fill-rule="evenodd" clip-rule="evenodd" d="M25.2124 13.2349C25.2124 13.0151 25.2124 12.949 25.1429 12.8832L25.0916 12.8337C25.0659 12.8007 25.0659 12.7019 25.0916 12.6689C25.2598 12.5974 25.5124 12.4492 25.6259 12.3391C25.6555 12.3391 25.6774 12.3557 25.6918 12.3886C25.6847 12.4984 25.6774 12.5755 25.6774 12.6249C25.6774 12.6634 25.6847 12.6799 25.7141 12.6908C25.8126 12.5974 25.9188 12.4161 26.0727 12.4161C26.1718 12.4161 26.274 12.5315 26.274 12.7403C26.274 12.993 26.157 13.0974 26.0396 13.0974C25.9886 13.0974 25.9444 13.0644 25.8971 12.9985C25.8126 12.8941 25.78 12.8886 25.7577 12.8886C25.7066 12.8886 25.6886 13.0097 25.6886 13.2182V14.0536C25.6886 14.4383 25.7029 14.4823 25.8238 14.4987L25.9411 14.5151C25.9703 14.5482 25.9703 14.6747 25.9373 14.7075C25.7615 14.6965 25.6152 14.6911 25.4431 14.6911C25.2929 14.6911 25.1319 14.6965 25.0111 14.7075C24.9781 14.6747 24.9781 14.5482 25.0073 14.5151L25.0768 14.5042C25.1978 14.4878 25.2124 14.4383 25.2124 14.0536V13.2349Z" fill="#252728"/>
<path fill-rule="evenodd" clip-rule="evenodd" d="M27.1093 13.147C27.1604 13.147 27.219 13.1359 27.2593 13.0975C27.2778 13.0809 27.2849 13.0262 27.2849 12.9713C27.2849 12.7898 27.2155 12.669 27.0909 12.669C26.937 12.669 26.8053 12.8888 26.8053 13.0645C26.8053 13.1415 26.8568 13.147 26.9737 13.147H27.1093ZM26.8679 13.3886C26.7834 13.3886 26.7759 13.3998 26.7759 13.4877C26.7759 13.8998 26.952 14.3008 27.2922 14.3008C27.3949 14.3008 27.5342 14.2679 27.6327 14.0152C27.673 14.0042 27.7282 14.0482 27.7282 14.1417C27.5778 14.6087 27.3072 14.768 27.0874 14.768C26.5928 14.768 26.3257 14.2459 26.3257 13.6471C26.3257 12.9546 26.6589 12.4163 27.1166 12.4163C27.4973 12.4163 27.7024 12.7842 27.7024 13.2074C27.7024 13.3118 27.6842 13.3886 27.5703 13.3886H26.8679Z" fill="#252728"/>
<path fill-rule="evenodd" clip-rule="evenodd" d="M28.9951 13.059C28.9951 12.971 28.984 12.9161 28.9694 12.8721C28.9254 12.7568 28.8451 12.6688 28.761 12.6688C28.5743 12.6688 28.3911 12.9601 28.3911 13.537C28.3911 13.8996 28.5009 14.3997 28.8007 14.3997C28.8524 14.3997 28.9035 14.3778 28.9509 14.3338C28.9913 14.2953 28.9951 14.2239 28.9951 14.125V13.059ZM29.4711 13.7897C29.4711 14.3062 29.4859 14.4327 29.5552 14.4327C29.6211 14.4327 29.6504 14.4218 29.7129 14.3887C29.7528 14.4382 29.7528 14.5754 29.7163 14.6251C29.3537 14.6581 29.0683 14.8227 29.0573 14.8227C29.0318 14.8227 29.0024 14.7899 28.9951 14.7459L29.0063 14.5754C29.0024 14.5316 28.988 14.5152 28.9734 14.5316C28.8451 14.6524 28.7127 14.768 28.5773 14.768C28.1606 14.768 27.8784 14.2789 27.8784 13.6853C27.8784 12.9106 28.2666 12.416 28.7496 12.416C28.8303 12.416 28.9183 12.427 28.9584 12.4434C28.984 12.427 28.9951 12.3832 28.9951 12.339V11.6358C28.9951 11.4159 28.9951 11.3555 28.9217 11.2896L28.8595 11.2347C28.8303 11.2016 28.834 11.1027 28.8595 11.0699C29.0168 11.0147 29.2406 10.8828 29.4198 10.762C29.4455 10.762 29.4676 10.7731 29.482 10.8005C29.4747 11.0257 29.4711 11.2566 29.4711 11.6028V13.7897Z" fill="#252728"/>
<path fill-rule="evenodd" clip-rule="evenodd" d="M10.7112 8.38612L10.3465 5.87301C10.2263 4.94808 10.1079 4.132 9.99461 3.44747L9.98691 3.40308H6.05225V14.7074H8.75022L8.75346 8.07416L9.71285 14.7074H11.7004L12.6052 7.95578L12.6083 14.7074H15.0709V3.40308H11.3489L10.7112 8.38612Z" fill="white"/>
<path fill-rule="evenodd" clip-rule="evenodd" d="M11.7002 14.7074H12.6081L12.6051 7.95581L11.7002 14.7074Z" fill="#AB1E2C"/>
<path fill-rule="evenodd" clip-rule="evenodd" d="M8.75 14.7075H9.71264L8.75324 8.07422L8.75 14.7075Z" fill="#AB1E2C"/>
<path fill-rule="evenodd" clip-rule="evenodd" d="M0.158691 0.102051V14.7074H3.67538H6.05207V3.40306H9.98673L9.99443 3.44746C10.1079 4.13198 10.2263 4.94806 10.3465 5.8732L10.7112 8.38631L11.3489 3.40306H15.0707V3.31205V0.102051H0.158691Z" fill="#AB1E2C"/>
</g>
<defs>
<clipPath id="clip0_3786_430">
<rect width="29.7973" height="15" fill="white"/>
</clipPath>
</defs>
</svg>
