<?xml version="1.0" encoding="UTF-8"?>
<svg id="Layer_1" xmlns="http://www.w3.org/2000/svg" version="1.1" viewBox="0 0 1232 564">
  <!-- Generator: Adobe Illustrator 29.5.0, SVG Export Plug-In . SVG Version: 2.1.0 Build 137)  -->
  <defs>
    <style>
      .st0 {
        fill: #1f1f59;
      }
    </style>
  </defs>
  <path class="st0" d="M155,129.7l-38.9,287.4c-2.1,16,55.1,23.8,57.2,7.8l38.9-287.4c2.1-16-55.1-23.8-57.3-7.8"/>
  <path class="st0" d="M250.7,137.8v289.8c0,16.1,57.8,16.1,57.8,0V137.8c0-16.1-57.8-16.1-57.8,0"/>
  <path class="st0" d="M347,137.5l38.9,287.4c2.1,16,59.4,8.2,57.3-7.8l-38.9-287.4c-2.1-16-59.4-8.2-57.3,7.8"/>
  <path class="st0" d="M510.4,208.2l216.9-29.4c15.9-2.1,8.1-59.9-7.8-57.7l-216.9,29.5c-15.9,2.2-8.1,59.9,7.8,57.7"/>
  <path class="st0" d="M729.1,251.4h-218.9c-16,0-16,58.2,0,58.2h218.9c16,0,16-58.2,0-58.2"/>
  <path class="st0" d="M727.2,382.9l-216.9-29.4c-15.9-2.1-23.6,55.6-7.8,57.8l216.9,29.4c15.9,2.2,23.6-55.6,7.8-57.7"/>
  <path class="st0" d="M949.5,115.5c-92,0-166.5,74.6-166.5,166.5s74.6,166.5,166.5,166.5,166.5-74.5,166.5-166.5-74.6-166.5-166.5-166.5M949.5,175.2c58.9,0,106.8,47.9,106.8,106.8s-47.9,106.8-106.8,106.8-106.8-47.9-106.8-106.8,47.9-106.8,106.8-106.8"/>
</svg>