<?xml version="1.0" standalone="no"?>
<!DOCTYPE svg PUBLIC "-//W3C//DTD SVG 20010904//EN"
 "http://www.w3.org/TR/2001/REC-SVG-20010904/DTD/svg10.dtd">
<svg version="1.0" xmlns="http://www.w3.org/2000/svg"
 width="384.000000pt" height="131.000000pt" viewBox="0 0 384.000000 131.000000"
 preserveAspectRatio="xMidYMid meet">

<g transform="translate(0.000000,131.000000) scale(0.100000,-0.100000)"
fill="#000000" stroke="none">
<path d="M383 1261 c-59 -27 -88 -78 -158 -275 l-59 -165 -66 -20 c-107 -33
-127 -75 -57 -120 l37 -24 0 -244 0 -243 45 0 45 0 0 211 c0 115 4 208 9 205
4 -3 45 -59 91 -125 l83 -120 88 122 c49 67 94 124 99 125 6 2 10 -72 10 -207
l0 -211 45 0 45 0 0 248 1 247 32 20 c43 28 43 62 -1 91 -18 12 -50 25 -72 29
-21 4 -43 12 -49 18 -5 7 -29 87 -52 178 -42 160 -43 167 -26 192 11 16 33 30
59 38 102 27 96 43 -17 46 -72 2 -99 -1 -132 -16z m11 -253 c8 -13 8 -23 -1
-37 -9 -14 -9 -29 -3 -53 14 -48 14 -48 -31 -48 l-42 0 7 39 c3 22 2 50 -3 63
-13 34 4 60 36 56 14 -2 31 -11 37 -20z m64 -388 c-7 -16 -94 -139 -98 -140
-3 0 -29 33 -57 74 l-51 73 104 0 c58 0 103 -3 102 -7z"/>
<path d="M3440 475 l0 -305 45 0 45 0 0 169 0 169 31 11 c57 20 113 14 140
-15 23 -24 24 -32 27 -180 l3 -154 45 0 44 0 0 134 c0 173 -11 233 -49 268
-47 42 -134 47 -225 12 -14 -5 -16 6 -16 95 l0 101 -45 0 -45 0 0 -305z"/>
<path d="M1312 758 c-31 -31 5 -97 47 -83 24 7 38 51 24 74 -13 20 -54 26 -71
9z"/>
<path d="M2135 593 c-32 -82 -75 -193 -97 -248 -22 -55 -46 -117 -53 -137
l-14 -38 48 0 c44 0 49 3 55 25 4 14 16 50 27 80 l20 55 114 0 114 0 14 -27
c8 -16 22 -52 31 -80 l18 -53 49 0 c27 0 49 2 49 4 0 2 -28 78 -63 168 -35 89
-84 216 -108 280 l-44 118 -51 0 -51 0 -58 -147z m148 -59 c21 -59 41 -113 44
-120 4 -11 -13 -14 -87 -14 -74 0 -91 3 -87 14 3 7 23 61 44 120 21 58 40 106
43 106 3 0 22 -48 43 -106z"/>
<path d="M3130 660 l0 -60 -35 0 c-33 0 -35 -2 -35 -34 0 -32 3 -35 33 -38
l32 -3 5 -152 c5 -143 6 -153 29 -177 28 -29 75 -41 126 -32 32 6 35 10 35 41
0 34 -1 35 -39 35 -21 0 -44 6 -50 14 -8 9 -11 56 -9 142 l3 129 53 3 52 3 0
35 0 34 -55 0 -55 0 0 60 0 60 -45 0 -45 0 0 -60z"/>
<path d="M876 595 c-49 -17 -92 -59 -108 -104 -7 -20 -12 -72 -12 -116 0 -104
27 -159 94 -192 49 -25 147 -31 197 -12 40 15 91 67 105 108 17 49 13 178 -6
222 -39 91 -160 133 -270 94z m165 -95 c16 -16 30 -46 34 -70 23 -139 -60
-232 -170 -190 -56 21 -85 161 -49 236 19 39 25 44 68 55 47 11 88 0 117 -31z"/>
<path d="M1615 595 c-81 -31 -115 -96 -115 -217 0 -147 67 -218 204 -218 91 0
143 29 179 100 26 50 28 63 25 135 -5 99 -34 158 -91 188 -50 26 -150 31 -202
12z m158 -77 c27 -14 47 -70 47 -133 0 -71 -20 -119 -59 -139 -83 -44 -163 4
-176 105 -12 96 23 170 85 182 30 5 78 -2 103 -15z"/>
<path d="M1300 363 c0 -260 -5 -283 -56 -283 -22 0 -24 -4 -24 -41 l0 -42 43
7 c50 8 80 27 104 63 16 24 18 55 18 278 l0 250 -42 3 -43 3 0 -238z"/>
<path d="M2600 438 c0 -188 9 -218 75 -256 34 -19 52 -22 122 -20 92 3 126 20
155 79 15 28 18 62 18 197 l0 162 -40 0 -40 0 0 -132 c0 -73 -5 -150 -11 -170
-16 -61 -86 -86 -149 -53 -40 21 -50 64 -50 223 l0 132 -40 0 -40 0 0 -162z"/>
</g>
</svg>
