<?xml version="1.0" encoding="UTF-8"?>
<svg xmlns="http://www.w3.org/2000/svg" version="1.1" viewBox="0 0 164.8 60">
  <defs>
    <style>
      .cls-1, .cls-2 {
        fill: #0072bc;
      }

      .cls-2 {
        fill-rule: evenodd;
      }
    </style>
  </defs>
  <!-- Generator: Adobe Illustrator 28.7.1, SVG Export Plug-In . SVG Version: 1.2.0 Build 142)  -->
  <g>
    <g id="_レイヤー_1" data-name="レイヤー_1">
      <g>
        <path class="cls-1" d="M131.6,13.1v7.4h-11.3v27.7h-8v-27.7h-11.3v-7.4h30.5ZM134.2,13.1v7.4h11.3v27.7h8v-27.7h11.3v-7.4h-30.5ZM89.9,39.9c-.2-.3-10.8-21.1-12.1-23.1-1.5-2.4-3.3-4-6.8-4s-7.1,1.4-7.1,9.3v26.3h7.9v-21.9c0-1.6,0-3.9-.1-4.4,0-.4,0-.8.2-.9.2-.1.5,0,.6.4.2.3,10,19.8,12.1,23.1,1.5,2.4,3.3,4,6.8,4s7.1-1.4,7.1-9.3V13.1h-7.9v21.9c0,1.6,0,3.9.1,4.4,0,.4,0,.8-.2.9-.2.1-.4,0-.6-.4Z"/>
        <path class="cls-2" d="M33.1,5.6c-2.4,0-4.8.5-6.4,1.2-1.7-.7-4-1.2-6.4-1.2C9.7,5.6.1,15.6.1,29.3s12.2,26.5,26.5,26.5,26.5-11.6,26.5-26.5S43.6,5.6,33.1,5.6h0ZM26.6,13.7c2,1.2,4.7,4.7,4.7,8.7s-1.9,5.2-4.7,5.2-4.7-2.3-4.7-5.2,2.7-7.5,4.7-8.7h0ZM26.6,49.2c-10.9,0-20-8.8-20-20.1s7.4-17.3,13.3-17.1c-2.8,2.8-4.4,6.8-4.4,10.7,0,6.7,5.3,11.4,11.2,11.4s11.2-4.7,11.2-11.4-1.7-7.9-4.4-10.7c5.8-.3,13.3,6.8,13.3,17.1s-9.1,20.1-20,20.1Z"/>
      </g>
    </g>
  </g>
</svg>