<svg xmlns="http://www.w3.org/2000/svg" width="1449" height="474" viewBox="0 0 1449 474" version="1.1"><path d="M 30.391 300.177 C 29.043 302.357, 28.702 331.525, 29.923 340.143 C 39.023 404.352, 89 453.967, 154.277 463.594 C 177.095 466.959, 204.979 464.132, 225.967 456.324 C 261.749 443.012, 288.331 420.292, 303.261 390.258 C 308.487 379.743, 308.500 379.695, 308.500 370.088 C 308.500 361.244, 308.235 359.919, 305.250 353.856 C 295.325 333.696, 270.411 326.932, 251.680 339.314 C 248.580 341.363, 243.881 346.425, 238.512 353.500 C 214.069 385.707, 191.003 398.986, 159.500 398.986 C 140.932 398.986, 126.349 394.682, 110.443 384.507 C 102.887 379.673, 92.023 369.240, 86.461 361.475 C 82.214 355.545, 74 339.709, 74 337.450 C 74 336.814, 70.737 334.136, 66.750 331.499 C 55.999 324.390, 44.851 314.682, 37.891 306.370 C 34.497 302.316, 31.585 299, 31.419 299 C 31.254 299, 30.791 299.529, 30.391 300.177" stroke="none" fill="#dca852" fill-rule="evenodd"/><path d="M 357.324 214.393 C 342.551 219.178, 332 233.896, 332 249.719 C 332 258.344, 334.724 265.487, 341.766 275.332 C 360.249 301.172, 366.777 319.736, 365.715 343.434 C 365.097 357.237, 362.847 366.360, 357.360 377.321 C 343.066 405.874, 314.398 425.311, 283.125 427.653 L 274.500 428.299 264.672 435.676 C 256.279 441.976, 239.250 451.285, 228 455.724 C 225.595 456.673, 225.728 456.826, 231.500 459.740 C 239.112 463.584, 253.415 468.384, 264.164 470.702 C 275.970 473.248, 306.028 473.240, 318 470.688 C 347.967 464.298, 371.584 451.505, 393.037 430.042 C 414.720 408.349, 427.349 384.670, 434.127 353 C 437.380 337.802, 437.411 309.065, 434.190 294.250 C 428.448 267.835, 417.073 246.232, 399.458 228.290 C 387.866 216.483, 382.286 213.641, 370 213.286 C 364.903 213.138, 359.828 213.582, 357.324 214.393" stroke="none" fill="#8ed1c4" fill-rule="evenodd"/><path d="M 314.908 72.483 C 291.792 75.809, 268.357 84.972, 258.521 94.531 C 240.648 111.902, 244.987 141.186, 267.187 153.019 C 272.500 155.851, 274.794 156.452, 281.668 156.813 C 288.917 157.194, 291.185 156.831, 301.855 153.585 C 318.870 148.408, 327.765 146.892, 341.500 146.828 C 361.045 146.738, 375.825 151.229, 391.391 161.990 C 408.893 174.089, 421.846 193.154, 427.201 214.699 C 430.120 226.443, 430.134 246.746, 427.232 258.247 L 425.276 265.995 428.573 274.773 C 432.376 284.897, 435.622 299.855, 436.610 311.808 L 437.297 320.116 441.238 316.308 C 448.062 309.715, 457.842 295.899, 463.526 284.825 C 474.426 263.590, 479.278 243.467, 479.278 219.500 C 479.278 156.374, 439.902 101.880, 378.302 79.754 C 358.372 72.596, 333.755 69.772, 314.908 72.483" stroke="none" fill="#8151a0" fill-rule="evenodd"/><path d="M 112 65.562 C 58.869 77.028, 17.218 118.648, 4.205 173.275 C 1.741 183.620, 1.531 186.185, 1.519 206 C 1.505 229.322, 2.408 235.865, 8.005 253 C 19.355 287.745, 44.374 318.973, 74.211 335.638 C 96.031 347.825, 122.838 354.197, 137.049 350.574 C 153.970 346.260, 164.505 332.526, 164.337 315 C 164.245 305.457, 161.399 297.773, 155.545 291.261 C 150.277 285.401, 143.898 281.804, 131.864 277.903 C 86.217 263.107, 60.642 231.509, 60.716 190 C 60.766 161.832, 72.536 137.717, 96.250 117.196 C 98.313 115.412, 100 113.232, 100 112.352 C 100 111.473, 101.549 106.124, 103.442 100.467 C 107.090 89.564, 112.094 78.904, 117.634 70.231 C 119.485 67.332, 121 64.745, 121 64.481 C 121 63.783, 119.289 63.989, 112 65.562" stroke="none" fill="#034ea1" fill-rule="evenodd"/><path d="M 215.771 1.981 C 163.204 13.065, 120.359 50.898, 103.585 101.043 C 99.066 114.551, 97.007 127.538, 97.012 142.500 C 97.018 164.846, 100.224 176.888, 108.566 185.898 C 116.421 194.383, 123.664 197.500, 135.521 197.500 C 143.678 197.500, 145.175 197.189, 151.144 194.250 C 159.005 190.380, 165.158 184.076, 168.784 176.175 C 171.151 171.020, 171.461 168.850, 172.172 152.500 C 172.644 141.651, 173.709 130.916, 174.852 125.478 C 183.538 84.193, 215.745 56.445, 257.500 54.273 C 263.039 53.985, 270.846 54.271, 275 54.915 C 285.391 56.524, 300.076 61.748, 309 67.009 L 316.500 71.431 331.500 71.600 C 345.747 71.761, 363.036 74.162, 370.570 77.027 L 373.019 77.958 370.869 73.729 C 362.715 57.688, 342.426 34.854, 326.957 24.309 C 311.659 13.880, 292.333 5.736, 274.031 2.006 C 260.519 -0.747, 228.777 -0.761, 215.771 1.981" stroke="none" fill="#bc3c38" fill-rule="evenodd"/><path d="M 604.477 99.923 C 585.564 102.948, 568.283 113.116, 556.534 128.132 C 549.945 136.553, 546.508 143.612, 543.819 154.244 C 540.786 166.237, 541.540 185.164, 545.518 196.901 C 552.479 217.441, 570.551 235.502, 591.010 242.366 C 611.351 249.190, 633.466 248.505, 649.500 240.555 C 662.589 234.065, 674.453 221.753, 681.454 207.395 C 691.279 187.246, 691.708 159.055, 682.485 139.560 C 674.208 122.064, 655.482 107.110, 635.425 101.981 C 626.644 99.735, 611.816 98.749, 604.477 99.923 M 752.402 99.997 C 736.914 102.268, 724.390 110.265, 715.911 123.298 C 709.263 133.515, 709 136.187, 709 193.447 L 709 244 722.448 244 L 735.896 244 736.220 194.750 C 736.511 150.720, 736.730 145.030, 738.292 141.069 C 742.685 129.926, 749.225 125.544, 761.500 125.517 C 768.482 125.502, 770.107 125.857, 774.272 128.305 C 779.393 131.315, 782.877 135.808, 785.669 143 C 787.225 147.009, 787.455 152.765, 787.776 195.750 L 788.137 244 801.525 244 L 814.913 244 815.206 194.250 C 815.532 139.086, 815.382 140.381, 822.301 133.162 C 827.861 127.361, 832.459 125.535, 841.500 125.535 C 853.767 125.535, 860.310 129.914, 864.708 141.069 C 866.270 145.030, 866.489 150.720, 866.780 194.750 L 867.104 244 880.552 244 L 894 244 893.992 194.750 C 893.988 165.448, 893.563 142.902, 892.944 139.086 C 891.527 130.354, 887.855 123.038, 881.379 116.043 C 870.516 104.309, 860.199 99.789, 844 99.665 C 828.032 99.542, 816.418 103.708, 806.453 113.133 L 801.241 118.062 795.635 112.589 C 784.570 101.786, 769.714 97.459, 752.402 99.997 M 972.500 100.002 C 929.192 105.411, 904.346 143.094, 913.160 190 C 916.981 210.331, 932.491 230.721, 951.122 239.907 C 962.444 245.489, 971.678 247.335, 985 246.679 C 996.979 246.090, 1002.374 244.491, 1012.500 238.532 L 1019.500 234.412 1019.776 218.023 L 1020.051 201.634 1013.588 207.840 C 1009.537 211.730, 1004.581 215.251, 1000.312 217.273 C 993.982 220.271, 992.756 220.500, 983 220.500 C 973.251 220.500, 972.014 220.270, 965.712 217.285 C 948.981 209.360, 938.035 191.450, 938.035 172 C 938.035 165.420, 940.621 154.296, 943.535 148.340 C 946.666 141.940, 956.036 133.065, 963.206 129.708 C 986.476 118.812, 1016.137 127.319, 1026.213 147.779 L 1029.500 154.453 1029.806 199.226 L 1030.113 244 1043.556 244 L 1057 244 1056.983 200.250 C 1056.963 151.619, 1056.606 147.969, 1050.643 135.529 C 1042.513 118.570, 1027.874 106.955, 1008.327 101.956 C 999.463 99.689, 982.441 98.760, 972.500 100.002 M 603.500 126.447 C 592.096 129.361, 584.339 134.745, 578.113 144.069 C 571.726 153.633, 569.612 161.927, 570.261 174.876 C 571.414 197.906, 582.248 213.373, 601.276 219.152 C 610.428 221.932, 626.670 221.435, 635.202 218.113 C 649.956 212.367, 658.811 197.568, 660.556 175.736 C 662.520 151.165, 649.820 132.356, 627.307 126.492 C 620.461 124.708, 610.380 124.690, 603.500 126.447 M 572.604 315.038 C 569.169 316.066, 564.475 320.319, 562.161 324.500 C 560.752 327.044, 560.451 331.638, 560.178 354.750 L 559.857 382 562.428 382 L 565 382 565 366 L 565 350 579 350 C 592.333 350, 593 349.905, 593 348 C 593 346.094, 592.333 346, 578.859 346 L 564.718 346 565.237 337.687 C 566.166 322.797, 570.020 319.010, 584.250 319.004 C 592.916 319, 593 318.976, 593 316.500 C 593 314.017, 592.940 314.001, 584.250 314.086 C 579.438 314.133, 574.197 314.562, 572.604 315.038 M 801.929 315.367 C 784.739 320.002, 775.127 335.682, 778.113 354.220 C 780.797 370.887, 792.573 380.714, 811.130 381.772 L 820 382.277 820 379.761 C 820 377.298, 819.814 377.235, 811.250 376.801 C 801.199 376.292, 796.601 374.383, 790.860 368.335 C 784.615 361.755, 783.500 358.673, 783.503 348 C 783.506 337.131, 785.046 333.143, 791.665 326.860 C 797.663 321.168, 801.442 319.689, 811.250 319.195 C 819.673 318.772, 820 318.667, 820 316.378 C 820 314.102, 819.710 314.003, 813.250 314.067 C 809.538 314.105, 804.443 314.690, 801.929 315.367 M 1172.826 339.250 C 1172.471 366.743, 1172.306 367.605, 1166.339 373.128 C 1162.275 376.889, 1159.693 378, 1155.016 378 C 1149.912 378, 1146.211 376.143, 1142.191 371.564 C 1134.608 362.928, 1136.362 348.759, 1145.786 342.523 C 1152.800 337.881, 1159.625 338.289, 1166.100 343.738 L 1169.149 346.303 1168.825 342.926 C 1168.383 338.333, 1162.718 335.040, 1155.218 335.016 C 1139.909 334.969, 1129.676 348.489, 1132.979 364.399 C 1135.348 375.812, 1143.405 382.397, 1155.078 382.463 C 1163.988 382.513, 1170.169 378.848, 1174.206 371.120 L 1177 365.772 1177 339.886 C 1177 315.007, 1176.925 314, 1175.076 314 C 1173.236 314, 1173.137 315.111, 1172.826 339.250 M 1213.022 341.250 C 1213.047 372.418, 1213.503 374.658, 1220.813 379.495 C 1229.318 385.123, 1241.348 383.803, 1248.374 376.470 L 1252.602 372.057 1254.314 374.955 C 1257.416 380.205, 1262.513 382.500, 1271.073 382.500 C 1277.661 382.500, 1279.187 382.142, 1282.803 379.749 C 1290.655 374.553, 1291 372.944, 1291 341.540 L 1291 314 1288.500 314 L 1286 314 1285.996 340.750 C 1285.993 365.678, 1285.857 367.722, 1284.005 370.759 C 1278.081 380.476, 1264.827 380.436, 1257.592 370.679 C 1255.610 368.007, 1255.484 366.438, 1255.204 340.929 L 1254.908 314 1252.454 314 L 1250 314 1250 335.864 C 1250 358.998, 1249.130 366.932, 1246.149 371 C 1238.994 380.761, 1224.894 380.216, 1219.752 369.980 C 1218.220 366.931, 1218.003 363.246, 1218.002 340.250 L 1218 314 1215.500 314 L 1213 314 1213.022 341.250 M 1381 348 C 1381 381.333, 1381.039 382, 1383 382 C 1384.961 382, 1385 381.333, 1385 348 C 1385 314.667, 1384.961 314, 1383 314 C 1381.039 314, 1381 314.667, 1381 348 M 1433.812 339.250 L 1433.500 364.500 1430.848 369.011 C 1424.493 379.821, 1411.116 381.029, 1403.264 371.504 C 1397.331 364.307, 1396.986 355.153, 1402.341 347.060 C 1405.021 343.012, 1411.897 338.984, 1416.066 339.022 C 1419.152 339.050, 1426.074 342.168, 1427.872 344.342 C 1429.879 346.766, 1431.001 346.374, 1430.993 343.250 C 1430.983 339.181, 1425.423 335.731, 1418.012 335.195 C 1410.935 334.683, 1405.970 336.210, 1401.257 340.347 C 1396.127 344.852, 1394.048 350.107, 1394.022 358.636 C 1393.992 368.255, 1397.442 375.142, 1404.466 379.485 C 1408.612 382.048, 1410.341 382.500, 1416 382.500 C 1425.001 382.500, 1431.184 378.842, 1435.494 370.969 L 1438.487 365.500 1438.842 339.750 L 1439.197 314 1436.661 314 L 1434.125 314 1433.812 339.250 M 1057.056 346.750 C 1057.094 362.442, 1057.518 371.656, 1058.306 373.906 C 1060.111 379.057, 1063.914 381.336, 1071.511 381.820 C 1077.948 382.230, 1078 382.212, 1078 379.616 C 1078 377.109, 1077.769 377, 1072.455 377 C 1067.900 377, 1066.470 376.561, 1064.455 374.545 C 1062.052 372.143, 1062 371.748, 1062 356.045 L 1062 340 1070 340 C 1077.333 340, 1078 339.833, 1078 338 C 1078 336.167, 1077.333 336, 1070 336 L 1062 336 1062 329.500 C 1062 323.233, 1061.910 323, 1059.500 323 L 1057 323 1057.056 346.750 M 613.500 336.389 C 602.849 341.042, 597.035 353.138, 599.927 364.625 C 603.298 378.010, 616.074 385.464, 629.124 381.658 C 650.159 375.523, 651.619 344.871, 631.282 336.348 C 627.221 334.647, 617.437 334.669, 613.500 336.389 M 715.030 336.113 C 700.095 342.073, 696.074 364.292, 707.764 376.269 C 712.413 381.032, 719.810 383.555, 726.278 382.586 C 732.342 381.676, 737.408 378.221, 737.816 374.718 C 738.190 371.512, 737 371.238, 734.534 373.962 C 730.153 378.803, 719.512 379.154, 713.609 374.651 C 706.595 369.301, 703.941 357.935, 707.903 350.210 C 713.525 339.247, 725.460 336.075, 733.738 343.343 C 739.826 348.688, 740.953 352.566, 740.978 368.250 L 741 382 743.500 382 L 746 382 745.994 368.750 C 745.991 361.462, 745.500 353.741, 744.904 351.591 C 742.065 341.367, 733.705 334.952, 723.365 335.063 C 720.139 335.098, 716.388 335.570, 715.030 336.113 M 836.444 336.886 C 831.191 339.272, 825.569 345.895, 823.981 351.568 C 817.591 374.391, 843.378 392.352, 860.946 377.314 C 873.956 366.178, 871.930 345.158, 857.093 337.326 C 851.522 334.386, 842.378 334.191, 836.444 336.886 M 887.500 336.412 C 883.636 338.129, 880.493 341.577, 878.548 346.232 C 877.369 349.052, 877 353.760, 877 365.968 L 877 382 879.500 382 L 882 382 882 365.648 C 882 350.329, 882.143 349.081, 884.263 345.898 C 889.181 338.515, 897.843 337.289, 904.402 343.049 C 908.919 347.014, 910 351.919, 910 368.443 C 910 381.333, 910.098 382, 912 382 C 913.921 382, 914 381.333, 914 365.157 C 914 349.504, 913.837 348.007, 911.697 343.960 C 907.602 336.216, 896.049 332.612, 887.500 336.412 M 932.450 336.407 C 928.458 338.146, 924.336 343.131, 923.044 347.781 C 922.476 349.826, 922.009 358.363, 922.006 366.750 L 922 382 924.500 382 L 927 382 927 366.468 C 927 349.446, 927.807 345.870, 932.480 342.194 C 939.220 336.892, 949.031 339.300, 952.852 347.194 C 954.760 351.136, 955 353.326, 955 366.816 C 955 381.333, 955.088 382, 957 382 C 958.923 382, 958.999 381.339, 958.984 364.750 C 958.968 348.713, 958.809 347.220, 956.713 343.520 C 953.616 338.052, 948 335.027, 941 335.056 C 937.975 335.068, 934.128 335.676, 932.450 336.407 M 980.239 336.335 C 971.135 339.636, 965.574 348.251, 965.611 358.991 C 965.644 368.637, 970 375.830, 978.500 380.275 C 984.202 383.257, 994.983 383.254, 1000.624 380.270 C 1007.652 376.551, 1013 368.641, 1013 361.963 C 1013 359.332, 1012.664 358.909, 1010.787 359.180 C 1009.246 359.403, 1008.386 360.410, 1007.954 362.500 C 1006.877 367.717, 1004.078 371.920, 999.795 374.754 C 996.302 377.066, 994.581 377.500, 988.916 377.500 C 982.878 377.500, 981.790 377.180, 978.343 374.394 C 972.723 369.852, 970.533 365.533, 970.533 358.994 C 970.533 351.097, 974.227 345.062, 981.182 341.597 C 984.048 340.169, 987.317 339.003, 988.446 339.006 C 992.208 339.016, 997.967 341.067, 1000.496 343.297 L 1002.996 345.500 988.519 355 C 980.556 360.225, 974.046 364.725, 974.052 365 C 974.059 365.275, 974.698 366.337, 975.473 367.360 C 976.801 369.114, 977.788 368.604, 992.691 358.478 C 1001.386 352.569, 1008.927 347.346, 1009.448 346.870 C 1010.805 345.630, 1004.329 339.141, 999.500 336.900 C 994.910 334.770, 985.328 334.489, 980.239 336.335 M 1033.500 336.061 C 1021.164 339.682, 1015.088 356.757, 1021.533 369.691 C 1025.585 377.822, 1033.436 381.982, 1044.750 381.994 C 1049.685 382, 1050 381.850, 1050 379.500 C 1050 377.126, 1049.711 376.999, 1044.250 376.978 C 1035.105 376.943, 1027.675 372.569, 1025.067 365.685 C 1023.239 360.862, 1023.773 353.177, 1026.239 348.788 C 1029.572 342.858, 1035.133 340, 1043.338 340 C 1049.777 340, 1050 339.916, 1050 337.500 C 1050 335.071, 1049.807 335.003, 1043.250 335.090 C 1039.537 335.140, 1035.150 335.577, 1033.500 336.061 M 1094.500 336.900 C 1085.983 340.851, 1080.993 348.922, 1081.010 358.718 C 1081.029 369.858, 1087.287 378.476, 1097.614 381.584 C 1103.586 383.382, 1106.408 383.365, 1112.706 381.495 C 1119.491 379.480, 1125.480 373.491, 1127.495 366.706 C 1129.502 359.945, 1129.406 359, 1126.707 359 C 1124.819 359, 1124.192 359.833, 1123.151 363.726 C 1121.555 369.691, 1114.749 376.581, 1109.474 377.571 C 1096.793 379.950, 1086 371.247, 1086 358.644 C 1086 350.180, 1091.885 342.237, 1099.781 340.044 C 1104.906 338.621, 1106.871 338.758, 1111.500 340.863 C 1119.551 344.526, 1119.421 344.772, 1104.003 354.998 C 1096.301 360.106, 1090 364.841, 1090 365.520 C 1090 366.199, 1090.600 367.253, 1091.333 367.862 C 1092.363 368.716, 1096.346 366.456, 1108.833 357.930 C 1117.725 351.860, 1125 346.528, 1125 346.081 C 1125 343.984, 1120.164 339.519, 1115.579 337.384 C 1109.198 334.413, 1100.300 334.209, 1094.500 336.900 M 1310.500 336.846 C 1301.924 340.940, 1296.985 348.955, 1297.022 358.718 C 1297.076 372.855, 1306.352 382.426, 1320 382.426 C 1333.921 382.426, 1343 373.039, 1343 358.646 C 1343 345.061, 1334.397 335.860, 1321.119 335.244 C 1316.182 335.014, 1313.483 335.422, 1310.500 336.846 M 652 359 L 652 382 654.500 382 L 657 382 657 367.712 C 657 354.881, 657.229 352.970, 659.250 348.970 C 661.923 343.678, 667.007 340, 671.648 340 C 674.333 340, 675 339.602, 675 338 C 675 336.292, 674.333 336, 670.434 336 C 665.540 336, 662.824 337.044, 659.250 340.299 L 657 342.349 657 339.174 C 657 336.455, 656.642 336, 654.500 336 L 652 336 652 359 M 1351 359 C 1351 380.828, 1351.096 382, 1352.876 382 C 1354.606 382, 1354.787 380.851, 1355.197 367.250 C 1355.574 354.726, 1355.961 351.882, 1357.763 348.403 C 1360.287 343.528, 1363.871 340.961, 1369.138 340.255 C 1372.058 339.863, 1373 339.281, 1373 337.868 C 1373 336.313, 1372.225 336, 1368.368 336 C 1363.543 336, 1357.874 338.679, 1356.037 341.828 C 1355.276 343.131, 1355.054 342.672, 1355.030 339.750 C 1355.005 336.677, 1354.639 336, 1353 336 C 1351.058 336, 1351 336.667, 1351 359 M 617.211 340.085 C 612.682 341.451, 606.701 347.717, 605.226 352.640 C 603.546 358.248, 603.717 361.794, 605.896 366.500 C 611.854 379.369, 626.669 381.974, 635.660 371.735 C 641.927 364.596, 642.590 355.146, 637.346 347.685 C 632.531 340.834, 624.624 337.849, 617.211 340.085 M 839.459 340.825 C 825.091 347.546, 824.175 368.110, 837.900 375.824 C 845.161 379.905, 853.960 378.227, 859.724 371.662 C 865.638 364.926, 866.247 356.627, 861.434 348.337 C 856.862 340.461, 847.256 337.177, 839.459 340.825 M 1314.007 340.593 C 1302.615 345.533, 1298.457 359.536, 1305.308 369.890 C 1315.404 385.146, 1338.487 377.165, 1338.326 358.474 C 1338.276 352.619, 1336.482 348.725, 1331.835 344.384 C 1326.248 339.164, 1320.245 337.888, 1314.007 340.593" stroke="none" fill="#041a36" fill-rule="evenodd"/></svg>