<svg xmlns="http://www.w3.org/2000/svg" width="842" height="158" viewBox="0 0 842 158" version="1.1"><path d="" stroke="none" fill="#3c049c" fill-rule="evenodd"/><path d="M 716.709 28.624 C 716.319 29.014, 715.995 36.346, 715.989 44.917 L 715.978 60.500 713.395 57.222 C 704.905 46.450, 686.623 46.927, 676.451 58.186 C 670.210 65.094, 668.537 70.029, 668.549 81.500 C 668.558 89.795, 668.957 92.389, 670.887 96.714 C 678.814 114.469, 701.764 119.658, 713.941 106.449 L 718 102.045 718 107.022 L 718 112 724.011 112 L 730.022 112 729.761 70.250 L 729.500 28.500 723.459 28.208 C 720.136 28.047, 717.099 28.234, 716.709 28.624 M 138.746 50.027 C 128.453 52.614, 119.919 59.602, 115.577 69 L 113.036 74.500 120.132 74.796 L 127.229 75.092 130.715 71.020 C 135.370 65.582, 139.335 63.677, 146 63.677 C 152.665 63.677, 156.630 65.582, 161.285 71.020 L 164.771 75.092 171.887 74.796 L 179.004 74.500 176.152 68.478 C 172.686 61.158, 164.961 53.860, 158.244 51.559 C 152.210 49.491, 143.577 48.813, 138.746 50.027 M 216.764 49.934 C 211.998 51.477, 207.016 55.083, 204.467 58.834 L 202 62.464 202 56.732 L 202 51 196.500 51 L 191 51 191 92.500 L 191 134 197.500 134 L 204 134 204 118.003 L 204 102.007 208.750 106.903 C 215.597 113.962, 222.478 115.532, 232.941 112.425 C 240.037 110.318, 246.926 103.487, 249.857 95.653 C 254.259 83.886, 252.143 67.473, 245.126 58.966 C 239.104 51.666, 225.145 47.220, 216.764 49.934 M 282.951 50.303 C 273.340 53.020, 265.450 60.309, 262.289 69.391 C 259.785 76.584, 259.992 88.998, 262.718 95.122 C 270.914 113.539, 294.167 119.557, 311.549 107.759 C 318.834 102.814, 319.175 101.708, 314.771 97.304 L 311.061 93.594 308.780 95.735 C 305.105 99.186, 297.915 101.954, 292.566 101.978 C 283.844 102.017, 276.935 97.137, 274.547 89.250 L 273.865 87 296.433 87 L 319 87 318.990 78.750 C 318.982 72.156, 318.504 69.496, 316.610 65.500 C 313.804 59.583, 307.977 53.713, 302.744 51.533 C 297.485 49.342, 288.355 48.775, 282.951 50.303 M 358.589 50.118 C 353.642 51.279, 348.665 54.336, 346.075 57.805 L 344.063 60.500 344.032 55.750 L 344 51 337.500 51 L 331 51 331 81.500 L 331 112 338 112 L 345 112 345 93.212 C 345 75.714, 345.155 74.118, 347.250 69.970 C 351.750 61.063, 362.139 57.985, 367.983 63.829 C 372.212 68.058, 372.988 72.615, 372.994 93.250 L 373 112 379.500 112 L 386 112 386 89.366 C 386 63.792, 385.403 60.403, 379.933 54.933 C 374.700 49.700, 367.395 48.053, 358.589 50.118 M 489.994 49.934 C 485.097 51.424, 481.139 54.008, 478.090 57.707 L 475 61.456 475 56.228 L 475 51 469 51 L 463 51 463 92.500 L 463 134 470 134 L 477 134 477.017 117.750 L 477.034 101.500 479.131 104.774 C 480.284 106.575, 483.314 109.275, 485.864 110.774 C 491.897 114.321, 502.251 114.547, 508.500 111.268 C 513.966 108.400, 519.443 102.497, 522.201 96.500 C 525.549 89.220, 525.515 73.784, 522.135 66.286 C 516.546 53.888, 501.747 46.359, 489.994 49.934 M 553.734 50.030 C 545.512 52.095, 540.396 55.859, 536.109 63 C 532.953 68.256, 533.360 69.375, 539.192 71.472 C 544.256 73.293, 544.410 73.293, 545.442 71.476 C 546.024 70.451, 548.155 67.788, 550.178 65.557 C 553.705 61.667, 554.105 61.500, 559.906 61.500 C 567.843 61.500, 571.034 64.302, 571.765 71.911 L 572.254 77 562.943 77 C 543.274 77, 532 84.105, 532 96.500 C 532 114.554, 558.383 120.053, 571.497 104.732 L 575 100.640 575 103.865 C 575 105.957, 575.863 107.954, 577.455 109.545 C 579.519 111.610, 580.869 112, 585.955 112 L 592 112 592 107.063 C 592 102.225, 591.935 102.120, 588.750 101.813 L 585.500 101.500 585 82.917 C 584.501 64.382, 584.492 64.320, 581.491 59.471 C 579.452 56.177, 577.035 53.868, 573.991 52.308 C 568.858 49.677, 559.382 48.611, 553.734 50.030 M 627.248 50.823 C 621.416 52.901, 618.622 55.030, 615.861 59.500 L 614.007 62.500 614.004 56.750 L 614 51 608 51 L 602 51 602 81.500 L 602 112 608.500 112 L 615 112 615 96.049 C 615 87.276, 615.490 77.813, 616.089 75.020 C 618.456 63.985, 628.441 58.074, 637.128 62.566 C 642.320 65.251, 643 68.598, 643 91.468 L 643 112 650 112 L 657 112 657 89.626 C 657 65.107, 656.306 61.037, 651.211 55.675 C 645.338 49.493, 636.184 47.640, 627.248 50.823 M 395 51.626 C 395 51.971, 399.735 58.750, 405.521 66.692 L 416.043 81.131 413.838 84.316 C 412.626 86.067, 407.891 92.750, 403.317 99.167 C 398.743 105.584, 395 111.096, 395 111.417 C 395 111.738, 398.127 112, 401.950 112 L 408.899 112 416.047 101.500 C 419.978 95.725, 423.488 91.010, 423.847 91.023 C 424.206 91.035, 427.861 95.760, 431.969 101.523 L 439.439 112 446.719 112 C 450.724 112, 453.994 111.662, 453.986 111.250 C 453.978 110.838, 449.223 104.040, 443.420 96.145 C 437.616 88.249, 433.089 81.211, 433.360 80.505 C 433.631 79.798, 437.969 73.496, 443 66.500 C 448.031 59.504, 452.387 53.154, 452.681 52.390 C 453.104 51.286, 451.789 51, 446.283 51 L 439.351 51 432.500 61 C 428.732 66.500, 425.311 71, 424.899 71 C 424.486 71, 420.888 66.500, 416.901 61 L 409.654 51 402.327 51 C 398.297 51, 395 51.282, 395 51.626 M 283.149 62.640 C 279.533 64.483, 275.528 69.829, 274.452 74.250 L 273.783 77 290.017 77 L 306.250 77 305.613 73.750 C 303.706 64.012, 291.907 58.177, 283.149 62.640 M 212.898 64.258 C 203.098 70.770, 202.127 89.353, 211.153 97.661 C 216.690 102.757, 226.570 102.523, 232.373 97.157 C 236.475 93.364, 238.002 89.043, 237.984 81.282 C 237.964 73.308, 235.450 67.893, 230.087 64.280 C 225.438 61.147, 217.594 61.137, 212.898 64.258 M 487.500 63.164 C 477.642 68.603, 474.250 82.555, 480.207 93.155 C 483.187 98.457, 487.884 101.231, 493.881 101.231 C 505.031 101.231, 511.736 92.858, 510.813 80.091 C 509.993 68.755, 503.907 61.975, 494.602 62.030 C 491.796 62.047, 488.600 62.557, 487.500 63.164 M 691.218 63.663 C 679.003 69.684, 679.025 93.308, 691.252 99.630 C 695.653 101.906, 703.151 101.688, 707.233 99.165 C 712.662 95.810, 715.492 89.761, 715.496 81.500 C 715.503 69.318, 709.221 61.968, 698.849 62.023 C 696.457 62.035, 693.023 62.773, 691.218 63.663 M 112.391 87.671 C 113.791 99.583, 121.172 109.560, 132.268 114.540 C 137.694 116.975, 139.114 117.187, 147.378 116.797 C 154.702 116.451, 157.486 115.854, 161.500 113.767 C 171.811 108.408, 178.619 98.485, 179.199 87.972 L 179.500 82.500 172.385 82.209 L 165.269 81.918 164.755 86.477 C 162.727 104.477, 138.143 109.053, 129.176 93.100 C 127.979 90.970, 127 87.601, 127 85.614 L 127 82 119.362 82 L 111.725 82 112.391 87.671 M 553 88.172 C 542.592 91.120, 542.492 100.317, 552.854 101.707 C 558.287 102.436, 565.260 99.005, 569.090 93.717 C 573.580 87.519, 573.191 86.986, 564.250 87.090 C 559.987 87.140, 554.925 87.626, 553 88.172" stroke="none" fill="#3c04a4" fill-rule="evenodd"/></svg>