<?xml version="1.0" encoding="UTF-8" standalone="no"?>
<!DOCTYPE svg PUBLIC "-//W3C//DTD SVG 1.1//EN" "http://www.w3.org/Graphics/SVG/1.1/DTD/svg11.dtd">
<svg xmlns="http://www.w3.org/2000/svg" version="1.1" viewBox="0 0 416 416" width="416.0pt" height="416.0pt">
<path d="M 0.00 0.00 L 416.00 0.00 L 416.00 416.00 L 0.00 416.00 L 0.00 0.00 Z" fill="#ffffff" />
<path d="M 340.14 161.87 C 347.89 170.35 351.72 182.55 349.84 193.90 C 348.46 196.27 345.16 197.81 342.97 199.41 C 340.78 195.91 338.06 193.48 338.62 188.97 C 339.17 175.90 329.49 163.90 316.78 161.20 C 312.06 160.03 307.69 160.95 302.96 160.96 C 300.56 161.06 298.43 159.29 297.90 156.98 C 297.23 153.98 298.82 150.89 301.84 150.03 C 315.61 146.60 330.66 151.35 340.14 161.87 Z" fill="#288cc8" />
<path d="M 172.01 163.24 C 176.59 163.24 181.17 163.24 185.75 163.25 C 185.75 166.42 185.76 169.58 185.76 172.74 C 189.69 172.75 193.62 172.75 197.55 172.76 C 196.53 176.82 195.54 180.89 194.59 184.98 C 191.64 184.99 188.70 185.01 185.76 185.01 C 185.97 191.25 185.24 197.71 186.18 203.88 C 187.60 208.18 192.23 206.84 195.67 206.64 C 197.54 210.06 199.35 213.51 201.14 216.97 C 196.80 218.18 192.58 219.55 188.00 219.14 C 183.43 218.75 179.12 217.56 176.06 213.93 C 172.41 209.73 172.10 204.32 171.99 199.01 C 172.01 187.09 171.99 175.17 172.01 163.24 Z" fill="#288cc8" />
<path d="M 84.46 172.63 C 93.20 170.77 102.58 172.49 109.09 178.89 C 117.90 187.17 118.33 202.41 110.34 211.38 C 101.27 221.73 83.81 222.40 73.61 213.36 C 65.35 206.23 63.68 193.32 68.94 183.95 C 72.25 178.17 78.00 174.14 84.46 172.63 Z" fill="#288cc8" />
<path d="M 163.57 181.42 C 169.67 189.50 169.81 201.62 163.79 209.78 C 159.97 214.99 154.11 218.29 147.77 219.31 C 142.25 220.27 136.93 219.27 131.73 217.38 C 131.77 222.67 131.75 227.95 131.75 233.24 C 127.25 233.26 122.75 233.26 118.25 233.24 C 118.25 220.49 118.24 207.69 118.24 194.95 C 118.21 187.03 122.64 179.42 129.52 175.50 C 140.28 169.17 155.87 171.17 163.57 181.42 Z" fill="#288cc8" />
<path d="M 233.74 174.33 C 234.08 173.79 234.41 173.26 234.75 172.73 C 239.00 172.75 243.25 172.75 247.50 172.75 C 247.51 188.08 247.51 203.41 247.50 218.74 C 243.42 218.65 239.28 219.02 235.23 218.64 C 234.67 218.35 234.15 217.88 233.68 217.25 C 222.35 223.27 206.19 217.68 200.96 205.94 C 197.67 198.78 198.09 189.97 202.22 183.23 C 208.37 173.01 223.20 168.79 233.74 174.33 Z" fill="#288cc8" />
<path d="M 297.23 172.23 C 305.32 170.38 315.08 171.64 320.93 178.06 C 326.24 183.92 327.14 191.66 326.53 199.26 C 315.43 199.27 304.33 199.21 293.23 199.29 C 294.05 201.32 294.74 204.03 296.41 205.53 C 298.96 207.76 302.69 208.61 305.99 208.03 C 308.39 207.62 310.50 206.04 312.54 204.77 C 316.60 206.15 320.63 207.60 324.65 209.08 C 316.35 221.21 296.73 222.63 286.21 212.80 C 279.37 206.25 278.12 196.03 280.53 187.23 C 282.88 179.54 289.49 174.02 297.23 172.23 Z" fill="#288cc8" />
<path d="M 281.48 173.26 C 279.97 177.34 278.43 181.41 276.83 185.45 C 274.31 185.61 270.75 185.11 268.66 186.70 C 266.95 187.88 267.13 190.13 266.99 191.96 C 266.97 200.72 267.03 209.49 266.99 218.25 C 262.41 218.26 257.83 218.25 253.25 218.24 C 253.32 207.93 253.10 197.59 253.34 187.28 C 253.54 181.72 256.17 176.68 261.51 174.54 C 267.55 172.22 275.08 173.60 281.48 173.26 Z" fill="#288cc8" />
<path d="M 309.65 184.34 C 311.63 185.72 312.13 188.34 313.05 190.44 C 306.46 190.52 299.85 190.55 293.26 190.42 C 294.27 188.48 295.07 186.20 296.83 184.81 C 300.42 181.99 305.90 181.64 309.65 184.34 Z" fill="#ffffff" />
<path d="M 87.46 184.63 C 91.61 183.42 96.45 184.32 99.34 187.69 C 103.50 192.46 103.26 200.27 98.63 204.64 C 93.90 209.01 85.72 208.38 82.01 203.01 C 77.56 196.79 79.77 186.95 87.46 184.63 Z" fill="#ffffff" />
<path d="M 140.39 184.43 C 144.56 183.48 149.18 184.66 151.89 188.09 C 155.90 193.16 155.26 201.11 150.15 205.19 C 144.82 209.32 136.36 207.88 133.34 201.65 C 130.00 195.06 132.73 186.16 140.39 184.43 Z" fill="#ffffff" />
<path d="M 220.45 184.57 C 224.40 183.53 228.87 184.15 231.64 187.39 C 235.49 192.10 235.39 199.80 231.43 204.43 C 226.38 209.74 216.63 207.98 213.80 201.18 C 210.82 194.94 213.46 186.54 220.45 184.57 Z" fill="#ffffff" />
<path d="M 199.36 232.42 C 200.48 232.28 201.61 232.17 202.73 232.08 C 202.78 243.64 202.74 255.20 202.75 266.75 C 201.58 266.75 200.42 266.75 199.25 266.75 C 199.34 255.32 199.07 243.84 199.36 232.42 Z" fill="#10456b" />
<path d="M 237.75 232.25 C 238.92 232.25 240.08 232.25 241.25 232.25 C 241.25 234.25 241.25 236.24 241.26 238.24 C 243.76 238.25 246.26 238.25 248.76 238.26 C 248.76 239.34 248.75 240.42 248.75 241.50 C 246.25 241.50 243.75 241.50 241.25 241.51 C 241.47 248.09 240.81 254.89 241.55 261.42 C 242.69 264.65 246.32 263.51 248.88 263.27 C 248.81 264.41 248.74 265.55 248.67 266.70 C 245.37 266.98 242.54 267.56 239.84 265.14 C 237.52 263.19 237.81 260.75 237.71 258.00 C 237.77 249.42 237.74 240.83 237.75 232.25 Z" fill="#10456b" />
<path d="M 156.76 239.27 C 159.50 240.82 160.38 243.32 161.69 246.00 C 160.60 246.42 159.51 246.84 158.42 247.26 C 157.26 245.16 156.62 242.81 154.27 241.76 C 151.46 240.49 147.26 240.70 144.98 242.97 C 143.46 244.82 143.79 246.92 145.75 248.26 C 149.58 250.35 154.86 249.95 158.69 252.28 C 163.65 255.15 163.03 263.61 157.95 266.05 C 154.08 267.92 148.24 267.67 144.48 265.58 C 141.98 264.25 140.90 262.07 139.41 259.80 C 140.58 259.35 141.75 258.91 142.93 258.47 C 144.27 260.25 145.45 262.52 147.66 263.34 C 150.28 264.28 153.60 264.38 156.11 263.08 C 158.88 261.56 159.48 257.07 156.60 255.34 C 152.49 253.19 146.27 253.39 142.60 250.39 C 139.23 247.62 139.96 241.77 143.59 239.56 C 147.20 237.27 153.06 237.13 156.76 239.27 Z" fill="#10456b" />
<path d="M 174.47 238.62 C 179.49 236.87 185.63 237.80 189.68 241.32 C 195.34 246.20 196.01 255.75 191.71 261.69 C 186.29 269.11 173.65 269.13 167.96 262.03 C 164.92 258.28 164.36 252.77 165.49 248.21 C 166.62 243.73 170.15 240.14 174.47 238.62 Z" fill="#10456b" />
<path d="M 209.00 238.24 C 210.17 238.24 211.33 238.25 212.50 238.25 C 212.61 244.60 212.30 250.98 212.61 257.32 C 212.85 260.30 213.94 263.19 217.17 263.88 C 222.66 264.98 227.80 260.91 228.50 255.47 C 229.07 249.78 228.61 243.97 228.75 238.25 C 229.92 238.25 231.08 238.25 232.25 238.25 C 232.25 247.76 232.26 257.28 232.24 266.79 C 231.21 266.75 230.17 266.70 229.14 266.66 C 229.01 265.10 228.89 263.54 228.77 261.97 C 226.92 263.88 225.32 265.87 222.70 266.73 C 219.22 267.82 214.86 267.44 212.07 264.91 C 209.88 262.85 209.05 260.03 209.01 257.09 C 208.93 250.81 209.04 244.52 209.00 238.24 Z" fill="#10456b" />
<path d="M 253.36 238.41 C 254.56 238.27 255.77 238.17 256.97 238.09 C 257.03 247.65 256.99 257.20 256.99 266.76 C 255.75 266.76 254.50 266.75 253.25 266.75 C 253.34 257.31 253.06 247.84 253.36 238.41 Z" fill="#10456b" />
<path d="M 271.43 238.47 C 276.72 236.84 283.03 238.03 286.95 242.06 C 292.32 247.54 292.36 257.55 287.06 263.07 C 281.37 268.80 270.70 268.72 265.17 262.81 C 261.34 258.83 260.63 252.38 262.28 247.28 C 263.66 243.02 267.21 239.82 271.43 238.47 Z" fill="#10456b" />
<path d="M 295.75 238.26 C 296.74 238.25 297.74 238.24 298.73 238.23 C 298.87 239.84 299.00 241.45 299.12 243.05 C 300.88 241.34 302.43 239.56 304.76 238.60 C 307.97 237.33 311.83 237.46 314.88 239.10 C 318.02 240.97 319.46 244.39 319.48 247.95 C 319.59 254.22 319.45 260.49 319.50 266.75 C 318.33 266.75 317.17 266.76 316.01 266.76 C 315.90 260.50 316.19 254.21 315.89 247.96 C 315.74 245.01 314.58 242.28 311.58 241.31 C 305.78 239.79 299.69 244.28 299.35 250.26 C 299.06 255.74 299.35 261.26 299.25 266.75 C 298.08 266.75 296.92 266.75 295.75 266.75 C 295.75 257.25 295.75 247.75 295.75 238.26 Z" fill="#10456b" />
<path d="M 341.33 239.68 C 343.65 241.18 344.46 243.61 345.62 245.98 C 344.53 246.42 343.44 246.85 342.35 247.29 C 341.48 245.74 340.78 243.75 339.43 242.55 C 336.69 240.48 332.26 240.48 329.47 242.44 C 327.46 244.14 327.45 246.83 329.73 248.30 C 333.59 250.46 339.58 249.96 343.28 252.69 C 347.79 256.14 346.61 264.32 341.26 266.35 C 337.30 267.82 332.18 267.63 328.44 265.59 C 325.94 264.25 324.80 262.07 323.36 259.75 C 324.52 259.33 325.67 258.92 326.82 258.52 C 328.21 260.28 329.46 262.54 331.66 263.34 C 334.27 264.32 337.61 264.36 340.12 263.08 C 342.97 261.56 343.27 256.23 339.99 255.02 C 336.04 253.33 330.75 253.27 327.13 250.85 C 323.17 248.41 323.69 241.83 327.54 239.54 C 331.58 237.17 337.36 237.06 341.33 239.68 Z" fill="#10456b" />
<path d="M 176.42 241.48 C 180.33 240.33 184.86 241.32 187.70 244.31 C 191.54 248.25 191.79 255.26 188.73 259.71 C 184.59 265.58 174.50 265.48 170.54 259.46 C 166.45 253.21 168.79 243.59 176.42 241.48 Z" fill="#ffffff" />
<path d="M 272.48 241.61 C 276.41 240.29 280.93 241.15 283.95 244.04 C 288.12 248.06 288.38 255.48 284.98 260.04 C 280.65 265.71 270.55 265.32 266.84 259.13 C 263.11 253.01 265.33 243.98 272.48 241.61 Z" fill="#ffffff" />
</svg>