<?xml version="1.0" encoding="UTF-8"?>
<svg id="Layer_1" data-name="Layer 1" xmlns="http://www.w3.org/2000/svg" viewBox="0 0 1366 483">
  <defs>
    <style>
      .cls-1 {
        stroke-width: 0px;
      }
    </style>
  </defs>
  <path class="cls-1" d="m191.48,8.34c101.26,0,183.93,83.13,183.31,185.47-.57,94.47-75.51,182.78-185.1,182.59-101.11-.18-184.22-82.7-183.91-183.39C6.08,97.56,78.86,9.06,191.48,8.34Zm-126.08,183.63c-.57,68.15,54.94,124.62,123.2,125.34,69.17.73,126.49-55.1,127.15-123.82.64-67.76-55.53-125.1-123.19-125.74-69.56-.66-126.59,55.05-127.16,124.23Z"/>
  <path class="cls-1" d="m452.43,349.63c0,21.64,0,42.57,0,63.51s0,41.83,0,63.07h-61.68v-5.7c0-74.03-.06-148.06.02-222.08.07-61.86,44.39-112.46,105.4-120.58,68.81-9.16,128.51,35.47,137.8,104.2,6.41,47.43-7.6,88.3-44.84,119.55-33.52,28.12-82.75,32.46-118.26,11.29-6.21-3.7-11.79-8.44-18.44-13.26Zm0-101.57c0,16.08,3.11,28.19,9.35,39.46,21.17,38.22,70.39,42.84,97.23,9.13,19.14-24.04,20.38-61.13,2.87-86.36-20.66-29.79-60.19-34.73-87.21-10.59-15.27,13.64-21.86,31.34-22.25,48.37Z"/>
  <path class="cls-1" d="m1358.25,370.84h-57.63v-24.25c-1.81,1.61-2.51,2.2-3.18,2.83-20.84,20.04-46.25,27.69-74.51,26.36-54.11-2.55-97.04-44.88-106.75-98.42-7.67-42.32,1.66-80.69,31.09-112.97,19.11-20.96,43.4-32.78,71.44-36.4,32.65-4.22,63.19,1.99,89.89,21.82,32.79,24.35,48.87,57.9,49.73,98.23.84,39.23.18,78.5.17,117.75,0,1.62-.15,3.24-.25,5.04Zm-182.82-119.03c-.44.12-.87.24-1.31.36,2.27,9.46,3.4,19.38,7.03,28.28,9.12,22.32,25.8,36.42,50.3,38.55,24.66,2.15,43.13-9.28,55.79-29.91,16.4-26.72,12.55-62.55-8.67-85.69-21.34-23.28-55.57-25.61-79.52-5.1-16.34,13.99-23.02,32.48-23.62,53.5Z"/>
  <path class="cls-1" d="m1127.21,132.79c-.68,2.08-1.12,3.62-1.68,5.12-28.72,76.11-57.48,152.2-86.08,228.35-1.41,3.75-3.12,4.95-7.12,4.9-18.49-.24-36.99-.25-55.48,0-4.11.06-5.66-1.38-7.04-5.05-28.75-76.09-57.65-152.13-86.51-228.18-.57-1.5-1.02-3.04-1.72-5.14,11.67,0,22.63,0,33.59,0,8.5,0,17,.18,25.49-.08,3.79-.12,5.34,1.11,6.57,4.81,18.43,55.66,37.06,111.25,55.66,166.86.46,1.38.97,2.75,1.82,5.11,3.64-10.76,7-20.62,10.32-30.5,15.9-47.19,31.84-94.37,47.57-141.61,1.24-3.73,2.89-4.72,6.63-4.68,17.49.2,34.99.09,52.48.09,1.63,0,3.25,0,5.5,0Z"/>
  <path class="cls-1" d="m664.44,185.37c-5.51,0-10.47.18-15.4-.11-1.45-.08-3.61-1.14-4.12-2.31-8.41-19.72-20.78-36.25-38.4-48.71-.21-.15-.22-.56-.51-1.4h58.33v-59.95h61.29v59.69h42.7v54.25h-41.93c-.3,1.28-.58,1.9-.58,2.52.03,29.27.03,58.53.18,87.8.02,3.46.6,6.97,1.37,10.35,4.06,17.74,15.61,26.73,34.87,27.29,2.8.08,5.61.01,8.81.01v55.45c-11.38,1.72-22.83,1.52-34.15-.52-40.21-7.23-66.07-35.43-70.88-77.26-.98-8.56-1.46-17.22-1.53-25.85-.2-24.94-.07-49.89-.07-74.83v-6.42Z"/>
  <path class="cls-1" d="m800.57,133.06h60.43v237.73h-60.43v-237.73Z"/>
  <path class="cls-1" d="m830.7,96.86c-17.8,0-31.62-13.83-31.58-31.61.04-17.28,14.12-31.37,31.45-31.45,17.48-.08,31.76,14.06,31.88,31.59.13,17.59-13.87,31.47-31.75,31.47Z"/>
</svg>