<?xml version="1.0" encoding="UTF-8"?><svg xmlns="http://www.w3.org/2000/svg" viewBox="0 0 283.04 133.5"><defs><style>.cls-1{fill:#f3a529;mix-blend-mode:multiply;}.cls-1,.cls-2,.cls-3{stroke-width:0px;}.cls-2{fill:none;}.cls-4{isolation:isolate;}</style></defs><g class="cls-4"><g id="Layer_1"><path class="cls-3" d="M159.75,121.54h4.44c2.87,0,3.97,1.43,3.97,3.06s-1.19,2.5-2.93,2.67c2.19.08,3.34,1.01,3.34,2.79,0,2.13-1.6,3.27-4.38,3.27h-4.44v-11.79ZM164.19,126.55c1.47,0,2.34-.54,2.34-1.8s-.87-1.82-2.34-1.82h-2.87v3.62h2.87ZM164.24,131.93c1.82,0,2.7-.7,2.7-1.99s-.88-2-2.7-2h-2.92v3.99h2.92Z"/><path class="cls-3" d="M173.71,128.27l-4.49-6.73h1.78l3.48,5.23,3.48-5.23h1.8l-4.49,6.73v5.06h-1.57v-5.06Z"/><path class="cls-3" d="M185.1,121.54h4.35c2.79,0,4.49,1.32,4.49,3.69s-1.69,3.69-4.49,3.69h-2.78v4.41h-1.57v-11.79ZM189.49,127.53c1.82,0,2.81-.75,2.81-2.3s-.99-2.3-2.81-2.3h-2.82v4.59h2.82Z"/><path class="cls-3" d="M203.95,127.95h-6.18v5.39h-1.57v-11.79h1.57v5.01h6.18v-5.01h1.57v11.79h-1.57v-5.39Z"/><path class="cls-3" d="M208.77,121.54h1.57v11.79h-1.57v-11.79Z"/><path class="cls-3" d="M213.6,121.54h3.24l5.32,11.73v-11.73h1.57v11.79h-3.24l-5.32-11.73v11.73h-1.57v-11.79Z"/><path class="cls-3" d="M226.98,121.54h7.68v1.4h-6.11v3.62h6.01v1.4h-6.01v3.99h6.25v1.4h-7.82v-11.79Z"/><path class="cls-3" d="M237.18,131.47h1.83v1.86h-1.83v-1.86Z"/><path class="cls-3" d="M243.43,122.93h-3.93v-1.4h9.42v1.4h-3.93v10.4h-1.57v-10.4Z"/><path class="cls-3" d="M250.98,121.54h7.68v1.4h-6.11v3.62h6.01v1.4h-6.01v3.99h6.25v1.4h-7.82v-11.79Z"/><path class="cls-3" d="M260.62,127.43c0-3.63,2.33-6.07,5.51-6.07,2.7,0,4.63,1.65,5.23,4h-1.63c-.56-1.54-1.71-2.68-3.6-2.68-2.34,0-3.88,1.96-3.88,4.75s1.61,4.75,3.83,4.75c1.91,0,3.15-.99,3.74-2.7h1.63c-.79,2.67-2.7,4.02-5.37,4.02-3.1,0-5.46-2.42-5.46-6.07Z"/><path class="cls-3" d="M281.47,127.95h-6.18v5.39h-1.57v-11.79h1.57v5.01h6.18v-5.01h1.57v11.79h-1.57v-5.39Z"/><path class="cls-3" d="M0,.54h6.92s15.99,47.06,15.99,47.06L38.64.46h6.92s-16.1,47.38-16.1,47.38l-13.15.03L0,.54Z"/><path class="cls-3" d="M53.04.43h6.29s.1,47.35.1,47.35h-6.29s-.1-47.35-.1-47.35Z"/><path class="cls-3" d="M127.58,5.88l-15.77.03V.31s37.81-.08,37.81-.08v5.61s-15.75.03-15.75.03l.09,41.75h-6.29s-.09-41.74-.09-41.74Z"/><path class="cls-3" d="M157.48,28.69v-.13s-.06-28.35-.06-28.35h6.29s.06,28.71.06,28.71v.13c.02,9.47,4.2,13.89,12.37,13.87,8.16-.02,12.27-4.51,12.25-14.05l-.06-28.73h6.29s.06,28.34.06,28.34c.03,12.34-5.26,19.7-18.53,19.73s-18.65-7.25-18.67-19.53Z"/><path class="cls-3" d="M217.69.09l12.9-.03,17.11,47.32h-6.73s-5.14-14.31-5.14-14.31l-23.24.05-5.08,14.34h-6.73S217.69.09,217.69.09ZM233.82,27.48L224.17.33l-9.6,27.19,19.25-.04Z"/><path class="cls-3" d="M254.96.01h6.29s.09,41.74.09,41.74l21.69-.04v5.61s-27.97.06-27.97.06L254.96.01Z"/><path class="cls-2" d="M100.36,14.35c-.01-5.42-3.94-8.4-10.36-8.39l-11.28.02.03,16.83,11.28-.02c6.42-.01,10.34-3.01,10.33-8.43Z"/><path class="cls-3" d="M96.78,27.45c6.35-1.88,10.14-6.63,10.13-13.11-.02-8.54-6.57-14.01-17.04-13.98l-17.45.04.1,47.36h6.29s-.04-19.33-.04-19.33l11.15-.02,16.28,19.97h.77s-.02-8.52-.02-8.52l-10.18-12.4ZM90.04,22.79l-11.28.02-.03-16.83,11.28-.02c6.42-.01,10.35,2.97,10.36,8.39s-3.91,8.42-10.33,8.43Z"/><path class="cls-3" d="M0,95.6h6.36c.51,4.85,4.57,8.26,10.55,8.25s10.77-3.89,10.76-11.61c-.02-7.91-5.38-11.52-10.68-11.51s-8.91,2.76-10.7,6.94l-5.98-.61,2.31-26.3,28.54-.06v5.11s-22.92.05-22.92.05l-1.52,17.51c1.8-3.99,6.09-7.55,12.14-7.57,7.48-.02,15.15,5.58,15.18,16.42.02,10.84-8,16.53-16.98,16.55S1.08,104.08,0,95.6Z"/><path class="cls-3" d="M41.17,84.36c-.03-14.52,9.17-24.38,22.2-24.41,11.03-.02,18.46,5.82,20.91,15.29h-6.54c-2.13-5.96-6.81-10.01-14.35-9.99-9.41.02-15.69,7.88-15.66,19.1.02,11.28,6.46,19.05,15.99,19.03,8.66-.02,14.82-5.45,14.99-15.3l-17.07.04v-5.61s23.36-.05,23.36-.05l.05,25.49h-5.48s-.02-11.95-.02-11.95c-1.92,6.42-6.95,12.66-16.55,12.68-12.28.03-21.77-9.8-21.8-24.32Z"/><path class="cls-3" d="M159.75,60.43h6.29s.09,41.74.09,41.74l21.69-.04v5.61s-27.97.06-27.97.06l-.1-47.36Z"/><path class="cls-3" d="M210.3,60.33l12.9-.03,17.11,47.32h-6.73s-5.14-14.31-5.14-14.31l-23.24.05-5.08,14.34h-6.73s16.91-47.38,16.91-47.38ZM226.43,87.71l-9.65-27.15-9.6,27.19,19.25-.04Z"/><path class="cls-3" d="M247.57,60.25l17.82-.04c11.53-.02,15.96,5.7,15.98,12.24.01,6.23-4.78,10.04-11.76,10.74,8.79.29,13.41,4.02,13.42,11.19.02,8.54-6.39,13.16-17.55,13.18l-17.82.04-.1-47.36ZM265.43,80.34c5.92-.01,9.41-2.2,9.39-7.25s-3.51-7.28-9.42-7.27l-11.53.02.03,14.52,11.53-.02ZM265.67,101.96c7.29-.02,10.84-2.83,10.83-8s-3.57-8.03-10.86-8.02l-11.71.02.03,16.02,11.71-.02Z"/><path class="cls-1" d="M123.36,60.47v3.18c7.09,4.08,11.87,11.72,11.89,20.48.02,8.77-4.73,16.42-11.8,20.53v3.18c13.09-.03,23.67-10.65,23.64-23.74-.03-13.08-10.65-23.66-23.74-23.64Z"/><path class="cls-1" d="M99.68,60.52l.1,47.37c4.32,0,8.36-1.18,11.84-3.2l-.09-41.02c-3.49-2.01-7.53-3.16-11.85-3.15Z"/><path class="cls-1" d="M123.41,84.16l-.04-20.51c-3.49-2.01-7.53-3.16-11.85-3.15v3.18c7.09,4.08,11.87,11.72,11.89,20.48Z"/><path class="cls-1" d="M111.61,104.69v3.18c4.32,0,8.36-1.18,11.84-3.2l-.04-20.51c.02,8.77-4.73,16.42-11.8,20.53Z"/><path class="cls-1" d="M135.26,84.13c-.02-8.77-4.8-16.4-11.89-20.48l.04,20.51.04,20.51c7.07-4.11,11.82-11.77,11.8-20.53Z"/><path class="cls-1" d="M135.26,84.13c-.02-8.77-4.8-16.4-11.89-20.48l.04,20.51.04,20.51c7.07-4.11,11.82-11.77,11.8-20.53Z"/><path class="cls-1" d="M123.41,84.16c-.02-8.77-4.8-16.4-11.89-20.48l.09,41.02c7.07-4.11,11.82-11.77,11.8-20.53Z"/><path class="cls-1" d="M123.41,84.16c-.02-8.77-4.8-16.4-11.89-20.48l.09,41.02c7.07-4.11,11.82-11.77,11.8-20.53Z"/></g></g></svg>