<?xml version="1.0" encoding="UTF-8"?>
<svg id="Layer_1" data-name="Layer 1" xmlns="http://www.w3.org/2000/svg" xmlns:xlink="http://www.w3.org/1999/xlink" version="1.1" viewBox="0 0 1926.77 1080">
  <defs>
    <style>
      .cls-1 {
        fill: #414042;
      }

      .cls-1, .cls-2, .cls-3, .cls-4 {
        stroke-width: 0px;
      }

      .cls-5 {
        clip-path: url(#clippath);
      }

      .cls-2 {
        fill: none;
      }

      .cls-3 {
        fill: url(#linear-gradient);
      }

      .cls-6 {
        clip-path: url(#clippath-1);
      }

      .cls-4 {
        fill: url(#linear-gradient-2);
      }
    </style>
    <clipPath id="clippath">
      <path class="cls-2" d="M739.4,463.7h-32.33c-32.99,0-69.66,24.73-85.86,56.57h176.43c32.99,0,69.66-24.73,85.85-56.57h-144.1Z"/>
    </clipPath>
    <linearGradient id="linear-gradient" x1="2.35" y1="1079.97" x2="3.35" y2="1079.97" gradientTransform="translate(1183.63 -156615.39) rotate(-180) scale(145.47 -145.47)" gradientUnits="userSpaceOnUse">
      <stop offset="0" stop-color="#43bc8d"/>
      <stop offset="1" stop-color="#067b8c"/>
      <stop offset="1" stop-color="#067b8c"/>
    </linearGradient>
    <clipPath id="clippath-1">
      <path class="cls-2" d="M756.14,437.02l-8.11,11.89-10.11,14.82-81.24,119.02c35.43,4.57,76.53-11.77,95.13-39.02l8.11-11.89,10.11-14.82,81.23-119.02c-3.98-.51-8.03-.76-12.12-.76-32.26,0-66.5,15.6-83.01,39.78"/>
    </clipPath>
    <linearGradient id="linear-gradient-2" x1="-1.76" y1="1080.01" x2="-.76" y2="1080.01" gradientTransform="translate(999.07 210649.82) scale(194.59 -194.59)" gradientUnits="userSpaceOnUse">
      <stop offset="0" stop-color="#fd2ed3"/>
      <stop offset="1" stop-color="#ffdf1d"/>
      <stop offset="1" stop-color="#ffdf1d"/>
    </linearGradient>
  </defs>
  <g class="cls-5">
    <rect class="cls-3" x="621.21" y="463.7" width="262.29" height="56.57"/>
  </g>
  <g class="cls-6">
    <rect class="cls-4" x="656.68" y="397.24" width="194.59" height="190.08"/>
  </g>
  <g>
    <path class="cls-1" d="M817.89,582.79h16.68l.37,5.15c.12,2.45-.37,4.17-.24,4.17h.24c2.82-6.01,10.92-11.04,19.87-11.04,15.82,0,28.57,12.26,28.57,32.38s-12.75,32.38-28.08,32.38c-8.95,0-16.06-4.41-19.25-9.44h-.25s.37,1.72.37,5.15v29.55h-18.27v-88.3ZM866.08,613.45c0-10.06-6.13-16.92-14.59-16.92-7.36,0-14.72,5.64-14.72,16.92s7.36,16.92,14.72,16.92c8.46,0,14.59-6.75,14.59-16.92"/>
    <path class="cls-1" d="M893.19,555.81h18.27v66.72c0,5.64,2.45,7.6,6.13,7.6,2.45,0,5.03-.74,6.13-1.23v15.08c-1.59.74-5.89,1.84-11.65,1.84-10.42,0-18.89-5.27-18.89-19.26v-70.76Z"/>
    <path class="cls-1" d="M973.15,644.11l-.49-6.99c-.12-2.21.24-3.68.49-4.29h-.25c-2.57,5.64-10.67,13-20.85,13-13.86,0-21.34-8.46-21.34-24.65v-38.38h18.4v35.32c0,6.13,1.72,11.04,8.34,11.04,8.34,0,14.1-6.62,14.1-15.82v-30.54h18.27v61.32h-16.68Z"/>
    <path class="cls-1" d="M1020.13,619.7c-11.41-3.19-19.5-7.97-19.5-19.87s9.07-18.76,23.3-18.76c8.83,0,16.19,2.21,19.87,3.8v15.7c-4.05-2.08-10.18-4.05-15.57-4.54-1.96-.12-3.92-.12-5.64.24-2.58.49-5.15,1.72-5.15,4.41,0,3.07,3.07,4.66,9.56,6.62,13.98,3.92,20.6,8.83,20.6,19.87,0,11.77-9.69,18.64-25.26,18.64-9.32,0-16.43-2.09-20.85-4.05v-16.07c5.76,3.07,14.59,5.64,20.6,5.64,4.54,0,8.71-1.23,8.71-4.91,0-3.31-3.68-4.66-10.67-6.74"/>
    <path class="cls-1" d="M1070.78,582.79l.24,8.58c0,2.58-.37,4.41-.49,4.66h.24c3.31-8.46,12.14-14.72,22.44-14.72,8.95,0,16.43,5.03,18.4,13.98h.12c3.8-7.6,11.9-13.98,21.34-13.98,15.21,0,21.46,8.83,21.46,24.28v38.51h-11.41v-36.3c0-8.83-2.21-15.94-11.53-15.94-13.12,0-18.52,12.26-18.52,23.79v28.45h-11.41v-36.42c0-8.22-1.59-15.82-11.28-15.82-12.88,0-18.88,12.02-18.88,23.79v28.45h-11.41v-61.32h10.67Z"/>
    <path class="cls-1" d="M1225.55,613.45c0,18.52-13.37,32.13-31.64,32.13s-31.52-13.61-31.52-32.13,13.37-32.13,31.52-32.13,31.64,13.61,31.64,32.13M1214.52,613.45c0-13-8.71-22.2-20.6-22.2s-20.48,9.2-20.48,22.2,8.71,22.2,20.48,22.2,20.6-9.2,20.6-22.2"/>
  </g>
</svg>