<?xml version="1.0" encoding="UTF-8"?>
<svg xmlns="http://www.w3.org/2000/svg" xmlns:xlink="http://www.w3.org/1999/xlink" viewBox="0 0 1919.09 437.11">
  <defs>
    <style>
      .cls-1 {
        fill: #ce009f;
      }

      .cls-1, .cls-2, .cls-3, .cls-4, .cls-5, .cls-6, .cls-7 {
        fill-rule: evenodd;
      }

      .cls-2 {
        fill: url(#linear-gradient-3);
      }

      .cls-2, .cls-5, .cls-7 {
        mix-blend-mode: multiply;
      }

      .cls-3 {
        fill: #7b817f;
      }

      .cls-4 {
        fill: #009ade;
      }

      .cls-8 {
        fill: none;
      }

      .cls-5 {
        fill: url(#linear-gradient);
      }

      .cls-9 {
        fill: #131c26;
      }

      .cls-6 {
        fill: #e1251b;
      }

      .cls-10 {
        isolation: isolate;
      }

      .cls-11 {
        fill: #1320bc;
      }

      .cls-7 {
        fill: url(#linear-gradient-2);
      }
    </style>
    <linearGradient id="linear-gradient" x1="1274.76" y1="218.91" x2="1254.52" y2="156.61" gradientUnits="userSpaceOnUse">
      <stop offset=".72" stop-color="#3d4543" stop-opacity="0"/>
      <stop offset=".78" stop-color="#3e4644" stop-opacity=".03"/>
      <stop offset=".83" stop-color="#424a48" stop-opacity=".13"/>
      <stop offset=".88" stop-color="#49514f" stop-opacity=".3"/>
      <stop offset=".93" stop-color="#535b59" stop-opacity=".53"/>
      <stop offset=".98" stop-color="#606766" stop-opacity=".83"/>
      <stop offset="1" stop-color="#686f6e"/>
    </linearGradient>
    <linearGradient id="linear-gradient-2" x1="1248.67" y1="141.8" x2="1343.36" y2="167.17" gradientUnits="userSpaceOnUse">
      <stop offset=".74" stop-color="#3d4543" stop-opacity="0"/>
      <stop offset=".8" stop-color="#3e4644" stop-opacity=".03"/>
      <stop offset=".85" stop-color="#414947" stop-opacity=".11"/>
      <stop offset=".89" stop-color="#474f4d" stop-opacity=".25"/>
      <stop offset=".93" stop-color="#505856" stop-opacity=".46"/>
      <stop offset=".96" stop-color="#5b6361" stop-opacity=".72"/>
      <stop offset=".99" stop-color="#686f6e"/>
    </linearGradient>
    <linearGradient id="linear-gradient-3" x1="1340.51" y1="178.93" x2="1296.03" y2="242.46" gradientUnits="userSpaceOnUse">
      <stop offset=".72" stop-color="#3d4543" stop-opacity="0"/>
      <stop offset=".79" stop-color="#3e4644" stop-opacity=".03"/>
      <stop offset=".84" stop-color="#414947" stop-opacity=".12"/>
      <stop offset=".88" stop-color="#48504e" stop-opacity=".26"/>
      <stop offset=".93" stop-color="#515857" stop-opacity=".47"/>
      <stop offset=".97" stop-color="#5c6462" stop-opacity=".74"/>
      <stop offset="1" stop-color="#686f6e"/>
    </linearGradient>
  </defs>
  <g class="cls-10">
    <g id="Layer_2" data-name="Layer 2">
      <g id="OUTLINE">
        <g>
          <rect class="cls-8" width="1919.09" height="437.11"/>
          <g>
            <g>
              <path class="cls-9" d="M825.36,324.89c0,5.61-4.21,9.1-10.94,9.1h-5.07v6.94h-5.83v-25.19h10.9c6.73,0,10.94,3.49,10.94,9.14ZM819.46,324.89c0-2.77-1.8-4.39-5.36-4.39h-4.75v8.75h4.75c3.56,0,5.36-1.62,5.36-4.35Z"/>
              <path class="cls-9" d="M841.14,321.29v5.18c-.47-.04-.83-.07-1.26-.07-3.1,0-5.15,1.69-5.15,5.4v9.14h-5.61v-19.36h5.36v2.55c1.37-1.87,3.67-2.84,6.66-2.84Z"/>
              <path class="cls-9" d="M842.87,331.26c0-5.83,4.5-9.97,10.65-9.97s10.61,4.14,10.61,9.97-4.46,9.97-10.61,9.97-10.65-4.14-10.65-9.97ZM858.45,331.26c0-3.35-2.12-5.36-4.93-5.36s-4.96,2.02-4.96,5.36,2.16,5.36,4.96,5.36,4.93-2.02,4.93-5.36Z"/>
              <path class="cls-9" d="M879.59,340.94l-4.25-5.94-4.39,5.94h-6.12l7.45-9.75-7.2-9.61h6.3l4.1,5.65,4.21-5.65h5.97l-7.2,9.46,7.48,9.89h-6.37Z"/>
              <path class="cls-9" d="M888.02,315.75c0-1.76,1.4-3.13,3.49-3.13s3.49,1.29,3.49,3.02c0,1.87-1.4,3.24-3.49,3.24s-3.49-1.37-3.49-3.13ZM888.7,321.58h5.61v19.36h-5.61v-19.36Z"/>
              <path class="cls-9" d="M932.24,329.85v11.08h-5.61v-10.22c0-3.13-1.4-4.57-3.67-4.57-2.52,0-4.28,1.62-4.28,5.07v9.71h-5.61v-10.22c0-3.13-1.33-4.57-3.67-4.57-2.48,0-4.25,1.62-4.25,5.07v9.71h-5.61v-19.36h5.36v2.23c1.44-1.66,3.6-2.52,6.08-2.52,2.7,0,5,1.05,6.37,3.17,1.55-1.98,4.07-3.17,6.98-3.17,4.61,0,7.92,2.66,7.92,8.56Z"/>
              <path class="cls-9" d="M956.8,321.58v19.36h-5.32v-2.3c-1.48,1.69-3.63,2.59-6.01,2.59-4.86,0-8.27-2.73-8.27-8.71v-10.94h5.61v10.11c0,3.24,1.44,4.68,3.92,4.68s4.46-1.66,4.46-5.21v-9.57h5.61Z"/>
              <path class="cls-9" d="M960.16,339.14l1.87-4.03c1.73,1.12,4.35,1.87,6.73,1.87,2.59,0,3.56-.68,3.56-1.76,0-3.16-11.69.07-11.69-7.66,0-3.67,3.31-6.26,8.96-6.26,2.66,0,5.61.61,7.45,1.69l-1.87,3.99c-1.9-1.08-3.81-1.44-5.58-1.44-2.52,0-3.6.79-3.6,1.8,0,3.31,11.7.11,11.7,7.73,0,3.6-3.35,6.15-9.14,6.15-3.27,0-6.58-.9-8.38-2.09Z"/>
              <path class="cls-9" d="M1008.75,327.95h5.33v10.22c-2.77,2.09-6.59,3.2-10.18,3.2-7.92,0-13.74-5.43-13.74-13.02s5.83-13.03,13.85-13.03c4.43,0,8.09,1.51,10.54,4.35l-3.74,3.45c-1.83-1.94-3.96-2.84-6.51-2.84-4.9,0-8.24,3.27-8.24,8.06s3.35,8.06,8.17,8.06c1.58,0,3.06-.29,4.53-1.08v-7.38Z"/>
              <path class="cls-9" d="M1019.09,314.24h5.61v26.7h-5.61v-26.7Z"/>
              <path class="cls-9" d="M1028.49,331.26c0-5.83,4.49-9.97,10.65-9.97s10.61,4.14,10.61,9.97-4.46,9.97-10.61,9.97-10.65-4.14-10.65-9.97ZM1044.07,331.26c0-3.35-2.13-5.36-4.93-5.36s-4.97,2.02-4.97,5.36,2.16,5.36,4.97,5.36,4.93-2.02,4.93-5.36Z"/>
              <path class="cls-9" d="M1074.59,331.26c0,6.08-4.21,9.97-9.64,9.97-2.59,0-4.68-.83-6.08-2.52v2.23h-5.36v-26.7h5.61v9.39c1.44-1.58,3.42-2.34,5.83-2.34,5.43,0,9.64,3.89,9.64,9.97ZM1068.91,331.26c0-3.35-2.12-5.36-4.93-5.36s-4.93,2.02-4.93,5.36,2.12,5.36,4.93,5.36,4.93-2.02,4.93-5.36Z"/>
              <path class="cls-9" d="M1095.15,329.89v11.04h-5.25v-2.41c-1.04,1.76-3.06,2.7-5.9,2.7-4.54,0-7.23-2.52-7.23-5.87s2.41-5.79,8.31-5.79h4.46c0-2.41-1.44-3.81-4.46-3.81-2.05,0-4.17.69-5.58,1.8l-2.02-3.92c2.12-1.51,5.25-2.34,8.35-2.34,5.9,0,9.32,2.74,9.32,8.6ZM1089.54,334.82v-1.98h-3.85c-2.63,0-3.45.97-3.45,2.26,0,1.4,1.19,2.34,3.17,2.34,1.87,0,3.49-.86,4.14-2.63Z"/>
              <path class="cls-9" d="M1100.23,314.24h5.61v26.7h-5.61v-26.7Z"/>
            </g>
            <g>
              <g>
                <path class="cls-9" d="M1072.52,214.59c0-12.59-10.37-16.48-21.66-18.88-10-2.04-16.66-4.81-16.66-10.92,0-4.63,4.26-9.44,13.51-9.44,7.77,0,13.51,4.26,15.92,6.29l5.92-5.92c-2.59-2.41-10.18-8.33-21.84-8.33-13.7,0-22.4,8.89-22.4,17.03,0,10,6.85,15.73,22.4,18.88,8.15,1.67,15.73,4.07,15.73,11.48,0,5.92-7.77,9.26-15.18,9.26-8.15,0-14.07-4.26-17.22-7.22l-5.92,5.92c4.07,3.89,11.85,9.26,23.14,9.26,12.03-.19,24.25-6.11,24.25-17.4Z"/>
                <rect class="cls-9" x="914.99" y="168.68" width="7.96" height="62.2"/>
                <path class="cls-9" d="M948.68,199.41c0,17.77,14.44,32.4,32.4,32.4,8.52,0,16.48-3.33,22.58-9.26l-5.55-5.55c-4.63,4.44-10.74,6.85-17.03,6.85-13.51.19-24.62-10.92-24.62-24.44s10.92-24.44,24.44-24.44c6.11,0,11.85,2.22,16.29,6.29l5.55-5.55c-5.92-5.55-13.7-8.52-21.84-8.52-17.77,0-32.21,14.44-32.21,32.21Z"/>
                <path class="cls-9" d="M859.08,167.2c-4.44,0-8.7.93-12.77,2.59l-1.85.74v-26.66h-7.96v31.1l6.11,6.11c4.44-4.07,10.18-6.29,16.29-6.29,13.51,0,24.44,10.92,24.44,24.44s-10.74,24.81-24.25,24.81c-6.29,0-12.4-2.41-16.85-6.85l-5.55,5.55c6.11,5.92,14.07,9.07,22.4,9.07,17.77,0,32.4-14.44,32.4-32.4s-14.44-32.21-32.4-32.21Z"/>
              </g>
              <g>
                <path class="cls-4" d="M1314.79,245.98c-44.82,27.88-58.68,5.59-58.68,5.59-11.19-15.45-12.83-49.98-12.37-70.58.18-7.35,1.18-16.64,1.18-16.64l9.45-10.75s11.38-5.01,27.23,1.24l.55.15.5.14c-3.67-.68-6.54.83-8.11,6.19-5.96,22.61-6.96,58.7,14.18,73.87,6.43,4.61,13.8,8.24,21.5,9.96,0,0,1.19.29,4.58.83"/>
                <g>
                  <path class="cls-9" d="M1396.14,212.74h-11.92v-24.67c0-11.25,5.7-14.77,16.94-14.77,2.92,0,5.4-.07,9,.15l-1.8,9.67c-.9-.07-3.67-.15-6-.15-5.47,0-6.22,1.87-6.22,6.37v23.39Z"/>
                  <path class="cls-9" d="M1448.99,191.08v4.12c0,14.17-5.25,18.74-19.27,18.74s-19.34-4.57-19.34-18.74v-4.12c0-14.4,5.32-18.74,19.34-18.74s19.27,4.35,19.27,18.74ZM1436.92,190.7c0-7.72-1.42-9-7.2-9s-7.27,1.27-7.27,9v4.8c0,7.8,1.57,9.07,7.27,9.07s7.2-1.27,7.2-9.07v-4.8Z"/>
                  <path class="cls-9" d="M1453.64,199.1v-25.57h11.92v25.04c0,4.2.82,6,6.52,6s6.45-1.8,6.45-6v-25.04h11.92v25.57c0,11.17-5.47,14.84-18.37,14.84s-18.44-3.67-18.44-14.84Z"/>
                  <path class="cls-9" d="M1507.7,182.9v14.17c0,5.17.97,6.37,6.07,6.37,1.57,0,6.15-.07,7.12-.07l-1.8,9.37c-.9,0-5.17.08-6.82.08-13.5,0-16.49-3.3-16.49-15.52v-32.84l11.92-1.72v10.8h13.65l-1.8,9.37h-11.85Z"/>
                  <path class="cls-9" d="M1534.84,197.15c.23,5.1,1.65,6.37,7.5,6.37,4.12,0,8.7,0,14.62-.07l-1.72,9.3c-5.02.23-8.92.15-14.02.15-14.17,0-18.29-5.77-18.29-17.77v-4.12c0-12.52,4.65-18.67,18.67-18.67,12.6,0,17.54,5.55,17.54,14.92v1.57c0,6.52-1.5,8.32-6.6,8.32h-17.69ZM1534.84,188.9h12.97c0-6.3-1.2-7.8-6.52-7.8s-6.45,1.5-6.45,7.8Z"/>
                  <path class="cls-9" d="M1565.28,212.74v-27.14c0-9.07,5.17-12.6,14.1-12.6,6.52,0,10.5,2.25,12.07,5.77,1.72-3.52,5.85-5.77,12.07-5.77,8.77,0,14.1,3.07,14.1,12.6v27.14h-4.35v-26.77c0-6.82-2.85-9.15-9.75-9.15s-9.82,2.25-9.82,8.85v27.07h-4.42v-26.77c0-6.82-3-9.15-9.9-9.15-7.27,0-9.75,2.85-9.75,9.22v26.69h-4.35Z"/>
                  <path class="cls-9" d="M1658.92,190.63v5.7c0,13.42-5.1,17.62-16.94,17.62s-16.94-4.2-16.94-17.62v-5.7c0-13.42,5.1-17.62,16.94-17.62s16.94,4.12,16.94,17.62ZM1654.5,190.63c0-11.1-3.45-13.8-12.52-13.8s-12.52,2.47-12.52,13.8v5.7c0,11.1,3.37,13.8,12.52,13.8s12.52-2.47,12.52-13.8v-5.7Z"/>
                  <path class="cls-9" d="M1700.16,190.48v6c0,13.12-5.32,17.47-16.94,17.47s-16.87-4.42-16.87-17.39v-39.51h4.35v21.07c2.17-3.67,6.82-5.1,13.12-5.1,11.17,0,16.34,4.5,16.34,17.47ZM1670.69,188.15v8.32c0,11.02,3.45,13.65,12.67,13.65s12.37-2.62,12.37-13.65v-5.85c0-11.47-4.05-13.8-12.22-13.8-6.97,0-12.82,1.57-12.82,11.32Z"/>
                  <path class="cls-9" d="M1709.75,166.64c-2.1,0-3.22-.9-3.22-3.3,0-2.17.9-3.3,3.22-3.3s3.22,1.12,3.22,3.3c0,2.4-1.12,3.3-3.22,3.3ZM1707.58,174.21h4.35v38.54h-4.35v-38.54Z"/>
                  <path class="cls-9" d="M1720.85,157.04h4.35v55.71h-4.35v-55.71Z"/>
                  <path class="cls-9" d="M1736.97,194.6c0,11.32,2.32,14.47,12.22,14.47,4.27,0,8.1-.07,12.67-.15l-.82,3.82c-3.37.08-7.95.15-11.85.15-13.2,0-16.57-6-16.57-17.62v-4.72c0-12.6,4.95-17.54,16.19-17.54s15.82,4.65,15.82,15.14v1.8c0,4.12-.9,4.65-3.97,4.65h-23.69ZM1736.97,190.93h23.62v-2.55c0-9-3.45-11.7-11.85-11.7s-11.77,2.62-11.77,14.25Z"/>
                </g>
                <g>
                  <path class="cls-3" d="M1289.54,189.65c0,2.7-2.14,4.89-4.78,4.89s-4.78-2.19-4.78-4.89,2.14-4.88,4.78-4.88,4.78,2.19,4.78,4.88Z"/>
                  <path class="cls-3" d="M1303.42,189.65c0,2.7-2.14,4.89-4.78,4.89s-4.78-2.19-4.78-4.89c0-2.7,2.14-4.88,4.78-4.88s4.78,2.19,4.78,4.88Z"/>
                  <path class="cls-3" d="M1317.29,189.65c0,2.7-2.14,4.89-4.78,4.89s-4.78-2.19-4.78-4.89,2.14-4.88,4.78-4.88,4.78,2.19,4.78,4.88Z"/>
                </g>
                <path class="cls-5" d="M1314.79,245.98c-44.82,27.88-58.68,5.59-58.68,5.59-11.19-15.45-12.83-49.98-12.37-70.58.18-7.35,1.18-16.64,1.18-16.64l9.45-10.75s11.38-5.01,27.23,1.24l.55.15.5.14c-3.67-.68-6.54.83-8.11,6.19-5.96,22.61-6.96,58.7,14.18,73.87,6.43,4.61,13.8,8.24,21.5,9.96,0,0,1.19.29,4.58.83"/>
                <path class="cls-1" d="M1244.92,164.4s1.5-46.56,27.85-48.03c0,0,19.23-3.63,68.5,34.31,0,0,5.72,10.17-.37,24.14,0,0-1.72,8.88-14.15,21.31,2.88-4.74,2.78-9.14-1.66-13.62,0,0-17.55-19.06-39.87-26.56-.31-.12-.81-.3-1.41-.46-3.94-1.23-8.02-2.08-12.17-2.4,0,0-15.42-2.16-26.73,11.31Z"/>
                <path class="cls-7" d="M1244.92,164.4s1.5-46.56,27.85-48.03c0,0,19.23-3.63,68.5,34.31,0,0,5.72,10.17-.37,24.14,0,0-1.72,8.88-14.15,21.31,2.88-4.74,2.78-9.14-1.66-13.62,0,0-17.55-19.06-39.87-26.56-.31-.12-.81-.3-1.41-.46-3.94-1.23-8.02-2.08-12.17-2.4,0,0-15.42-2.16-26.73,11.31Z"/>
                <path class="cls-6" d="M1292.17,229.71c17.61-12.71,60.17-52.97,49.11-79.04,0,0,28.91,21.79,29.84,38.38,0,0,3.17,20.01-56.32,56.93,0,0-31.14-.51-40.66-32.34,0,0,.33,1.74,1.65,3.49.83,1.23,1.97,2.04,3.14,2.58.73.35,1.58.63,2.54.79,3.17.54,6.25-.8,9.13-1.95,1.1-.44,2.29-.99,3.49-.97,3.51.04,1.17,5.53.47,7.06,0,0-1.29,2.99-2.39,5.08Z"/>
                <path class="cls-2" d="M1292.17,229.71c17.61-12.71,60.17-52.97,49.11-79.04,0,0,28.91,21.79,29.84,38.38,0,0,3.17,20.01-56.32,56.93,0,0-31.14-.51-40.66-32.34,0,0,.33,1.74,1.65,3.49.83,1.23,1.97,2.04,3.14,2.58.73.35,1.58.63,2.54.79,3.17.54,6.25-.8,9.13-1.95,1.1-.44,2.29-.99,3.49-.97,3.51.04,1.17,5.53.47,7.06,0,0-1.29,2.99-2.39,5.08Z"/>
              </g>
              <rect class="cls-9" x="1154.98" y="102.13" width="6" height="171.6"/>
              <g>
                <g>
                  <path class="cls-11" d="M338.65,198.7v-26.72h-6.44v-10h6.44v-13.94h11.63v13.94h13.65v10h-13.65v24.89c0,4.52,2.31,6.34,6.25,6.34,2.6,0,4.9-.58,7.21-1.73v9.52c-2.88,1.63-6.06,2.6-10.48,2.6-8.55,0-14.61-3.75-14.61-14.9Z"/>
                  <path class="cls-11" d="M368.18,187.55v-.19c0-14.51,10.28-26.43,24.8-26.43,16.15,0,24.32,12.69,24.32,27.3,0,1.06-.1,2.11-.19,3.27h-37.29c1.25,8.27,7.11,12.88,14.61,12.88,5.67,0,9.71-2.11,13.74-6.06l6.82,6.06c-4.81,5.77-11.44,9.52-20.76,9.52-14.71,0-26.05-10.67-26.05-26.33ZM405.76,183.8c-.77-7.5-5.19-13.36-12.88-13.36-7.11,0-12.11,5.48-13.17,13.36h26.05Z"/>
                  <path class="cls-11" d="M423.93,142.57h11.63v70.16h-11.63v-70.16Z"/>
                  <path class="cls-11" d="M442.19,187.55v-.19c0-14.51,10.28-26.43,24.8-26.43,16.15,0,24.32,12.69,24.32,27.3,0,1.06-.1,2.11-.19,3.27h-37.29c1.25,8.27,7.11,12.88,14.61,12.88,5.67,0,9.71-2.11,13.74-6.06l6.82,6.06c-4.81,5.77-11.44,9.52-20.76,9.52-14.71,0-26.05-10.67-26.05-26.33ZM479.77,183.8c-.77-7.5-5.19-13.36-12.88-13.36-7.11,0-12.11,5.48-13.17,13.36h26.05Z"/>
                  <path class="cls-11" d="M493.12,206.1l5.19-7.88c5.57,4.13,11.44,6.25,16.63,6.25s7.88-2.11,7.88-5.48v-.19c0-3.94-5.38-5.29-11.34-7.11-7.5-2.11-15.86-5.19-15.86-14.9v-.19c0-9.61,7.98-15.47,18.07-15.47,6.34,0,13.26,2.21,18.65,5.77l-4.61,8.27c-4.9-2.98-10.09-4.81-14.32-4.81-4.52,0-7.11,2.11-7.11,5v.19c0,3.75,5.48,5.29,11.44,7.21,7.4,2.31,15.76,5.67,15.76,14.8v.19c0,10.67-8.27,15.95-18.84,15.95-7.21,0-15.19-2.6-21.53-7.59Z"/>
                  <path class="cls-11" d="M540.31,161.98h11.63v50.75h-11.63v-50.75ZM552.39,148.88c0,3.53-2.86,6.39-6.39,6.39s-6.39-2.86-6.39-6.39,2.86-6.39,6.39-6.39,6.39,2.86,6.39,6.39Z"/>
                  <path class="cls-11" d="M561.26,222.24l4.33-8.75c5.48,3.36,11.15,5.38,18.07,5.38,10.38,0,16.05-5.38,16.05-15.57v-3.94c-4.23,5.48-9.52,9.32-17.88,9.32-11.92,0-23.07-8.84-23.07-23.74v-.19c0-14.99,11.24-23.84,23.07-23.84,8.55,0,13.84,3.94,17.78,8.65v-7.59h11.63v40.37c0,8.55-2.21,14.9-6.44,19.13-4.61,4.61-11.73,6.82-20.86,6.82-8.36,0-16.15-2.11-22.68-6.06ZM599.81,184.86v-.19c0-8.27-6.82-13.94-14.9-13.94s-14.42,5.57-14.42,13.94v.19c0,8.27,6.44,13.94,14.42,13.94s14.9-5.67,14.9-13.94Z"/>
                  <path class="cls-11" d="M620.08,161.98h11.63v7.79c3.27-4.71,7.98-8.84,15.86-8.84,11.44,0,18.07,7.69,18.07,19.41v32.39h-11.63v-28.83c0-7.88-3.94-12.4-10.86-12.4s-11.44,4.71-11.44,12.59v28.64h-11.63v-50.75Z"/>
                </g>
                <g>
                  <path class="cls-11" d="M305.28,175.36c-.76-3.76-1.91-7.37-3.41-10.8-1.67-3.82-3.76-7.4-6.22-10.7-.03-.03-.05-.07-.08-.1-3.07-4.09-6.7-7.72-10.79-10.79,0,0,0,0-.01,0-3.32-2.49-6.94-4.62-10.79-6.3-3.43-1.5-7.05-2.65-10.8-3.42-3.49-.71-7.1-1.08-10.8-1.08h-.01c-3.7,0-7.3.37-10.79,1.08-1.47.3-2.91.65-4.33,1.07-2.22.65-4.38,1.43-6.47,2.34-1.86.81-3.66,1.73-5.4,2.73-1.88,1.08-3.68,2.28-5.4,3.57h0s-.01.01-.01.01c-1.5,1.13-2.93,2.33-4.3,3.6-2.37,2.2-4.54,4.6-6.49,7.19h0s-.01.01-.01.01c-.37.49-.72.98-1.07,1.48-2.03,2.91-3.79,6.03-5.23,9.32-.06.14-.12.29-.18.43-1.41,3.3-2.5,6.77-3.23,10.37,0,.02,0,.03-.01.05-.35-.03-.71-.05-1.07-.05-5.97,0-10.8,4.84-10.8,10.8s4.84,10.8,10.8,10.8c.36,0,.72-.02,1.07-.05,5.25-.52,9.4-4.79,9.71-10.1h0c0-.22,0-.43,0-.65s0-.43,0-.65h0c0-.27.01-.53.02-.79.11-3.22.56-6.36,1.34-9.36.5-1.93,1.13-3.82,1.88-5.64.73-1.79,1.58-3.51,2.54-5.17.87-1.5,1.83-2.95,2.87-4.33.69-.92,1.42-1.81,2.18-2.67,1.19-1.34,2.46-2.61,3.8-3.8.52-.46,1.05-.9,1.59-1.33,1.7-1.37,3.51-2.6,5.41-3.7,1.39-.8,2.83-1.53,4.31-2.18,2.08-.91,4.25-1.66,6.49-2.23,1.76-.45,3.56-.8,5.39-1.02,1.76-.22,3.56-.33,5.38-.33h.02c3.73,0,7.35.48,10.8,1.37,3.83.99,7.46,2.49,10.8,4.43,2.48,1.44,4.81,3.12,6.95,5.01,1.36,1.2,2.65,2.49,3.85,3.85,1.88,2.14,3.56,4.47,5,6.95,1.93,3.34,3.43,6.97,4.42,10.8.89,3.45,1.36,7.07,1.36,10.8s-.47,7.35-1.36,10.8c-.99,3.83-2.48,7.46-4.42,10.8-1.44,2.48-3.11,4.81-5,6.95-1.2,1.36-2.49,2.65-3.85,3.85-2.14,1.89-4.47,3.57-6.95,5.01-3.34,1.94-6.97,3.44-10.8,4.43-3.45.89-7.07,1.37-10.8,1.37h-5.7c-1.6,1.79-3.31,3.5-5.1,5.1-1.38,1.24-2.82,2.42-4.31,3.54,1.41.41,2.85.77,4.31,1.06,3.49.71,7.09,1.08,10.79,1.08h.01c3.7,0,7.31-.37,10.8-1.08,3.76-.76,7.37-1.92,10.8-3.42,3.84-1.68,7.45-3.79,10.76-6.28.01-.01.03-.02.04-.03,4.08-3.07,7.71-6.69,10.77-10.77.03-.04.06-.09.1-.13,2.46-3.29,4.55-6.87,6.21-10.67,1.5-3.43,2.65-7.05,3.42-10.8.71-3.49,1.08-7.1,1.08-10.8h0c0-3.71-.37-7.32-1.08-10.8ZM230.77,142.96h0s0,0,.01,0h-.01Z"/>
                  <path class="cls-11" d="M252.38,175.36h-.02c-.35,0-.7.02-1.04.05-5.24.5-9.39,4.75-9.73,10.04v1.43s0-.05,0-.07c-.05,3.5-.52,6.9-1.36,10.16-.5,1.93-1.13,3.82-1.88,5.64-.73,1.79-1.58,3.51-2.54,5.17-.87,1.5-1.83,2.95-2.87,4.33-.68.91-1.4,1.79-2.15,2.64-1.19,1.35-2.47,2.63-3.83,3.83-.52.46-1.05.9-1.59,1.33-1.7,1.36-3.5,2.59-5.39,3.69-1.39.8-2.82,1.53-4.3,2.18-2.09.91-4.26,1.67-6.5,2.24-1.76.45-3.56.8-5.4,1.03-1.77.22-3.57.33-5.4.33-3.73,0-7.35-.47-10.8-1.36-3.83-.99-7.46-2.48-10.8-4.42-2.49-1.44-4.83-3.13-6.98-5.02-1.35-1.19-2.63-2.47-3.83-3.83-1.89-2.15-3.58-4.48-5.02-6.98-1.93-3.34-3.43-6.97-4.42-10.8-.89-3.45-1.36-7.07-1.36-10.8s.47-7.35,1.36-10.8c.99-3.83,2.48-7.46,4.42-10.8,1.44-2.49,3.13-4.83,5.02-6.98,1.19-1.35,2.47-2.63,3.83-3.83,2.15-1.89,4.48-3.58,6.98-5.02,3.34-1.93,6.97-3.43,10.8-4.42,3.45-.89,7.07-1.36,10.8-1.36h5.7c1.6-1.79,3.31-3.5,5.1-5.1,1.39-1.25,2.84-2.43,4.33-3.56-1.42-.41-2.87-.77-4.33-1.07-3.49-.71-7.09-1.08-10.79-1.08h-.01c-3.7,0-7.31.37-10.8,1.08-3.76.76-7.37,1.92-10.8,3.42-3.85,1.69-7.47,3.81-10.79,6.3,0,0,0,0-.01,0-4.09,3.07-7.72,6.71-10.79,10.79,0,0,0,.01-.01.02-2.49,3.32-4.61,6.93-6.29,10.78-1.5,3.43-2.65,7.05-3.41,10.8-.71,3.49-1.08,7.09-1.08,10.79h0c0,3.71.37,7.32,1.08,10.81.76,3.76,1.92,7.37,3.42,10.8,1.68,3.84,3.79,7.45,6.28,10.76.01.01.02.03.03.04,3.07,4.08,6.69,7.71,10.77,10.77.01.01.03.02.04.03,3.31,2.48,6.92,4.6,10.76,6.28,3.43,1.5,7.05,2.65,10.8,3.42,3.49.71,7.1,1.08,10.8,1.08h.01c3.7,0,7.3-.37,10.79-1.08,1.46-.3,2.9-.65,4.31-1.06,2.23-.65,4.4-1.43,6.49-2.35,1.86-.81,3.66-1.73,5.4-2.73,1.87-1.08,3.67-2.27,5.38-3.56h.02c1.49-1.13,2.92-2.33,4.29-3.6,2.38-2.2,4.55-4.61,6.5-7.2,0,0,0,0,0-.01.36-.48.72-.97,1.07-1.47,2.04-2.91,3.8-6.03,5.24-9.32.06-.14.12-.29.18-.43,1.41-3.3,2.5-6.77,3.23-10.37,0-.02,0-.03.01-.05.35.03.69.05,1.05.05h.02c5.96-.01,10.78-4.84,10.78-10.8s-4.82-10.79-10.78-10.8ZM219.97,229.37h0s.01,0,.02,0h-.02Z"/>
                  <path class="cls-11" d="M284.76,186.17c0,3.79-.65,7.42-1.84,10.8-1.42,4.03-3.62,7.69-6.41,10.8-.79.89-1.64,1.73-2.52,2.53-3.12,2.79-6.78,4.99-10.8,6.42-2.73.97-5.62,1.58-8.63,1.78,1.96-3.39,3.62-6.98,4.94-10.73.16-.46.32-.92.47-1.38,1.12-.42,2.2-.93,3.22-1.53,3.27-1.89,6-4.62,7.89-7.9,1.84-3.18,2.89-6.87,2.89-10.8s-1.05-7.62-2.89-10.8c-1.89-3.27-4.62-6-7.89-7.9-1.02-.59-2.1-1.11-3.22-1.53-2.36-.89-4.91-1.37-7.58-1.38h-.02c-1.47,0-2.9.15-4.28.43-2.32.47-4.51,1.31-6.5,2.45-1.15.66-2.24,1.43-3.24,2.29-1.87,1.59-3.46,3.5-4.7,5.64-1.68,2.9-2.7,6.24-2.87,9.79,0,.08,0,.16,0,.23-.01.26-.01.52-.01.78s0,.52.01.78c-.08,3.51-.72,6.88-1.83,10.03-.9,2.54-2.1,4.93-3.57,7.13-.86,1.29-1.81,2.52-2.84,3.67-.8.9-1.65,1.75-2.55,2.55-.7.63-1.43,1.22-2.18,1.79-2.6,1.95-5.5,3.52-8.63,4.62-.35.12-.71.24-1.07.36-3.07.97-6.34,1.49-9.73,1.49-.73,0-1.46-.02-2.17-.07-3.01-.2-5.9-.81-8.63-1.77-4.03-1.42-7.69-3.62-10.8-6.41-.9-.8-1.75-1.65-2.55-2.55-2.79-3.12-4.99-6.78-6.41-10.8-1.19-3.38-1.84-7.01-1.84-10.8s.65-7.42,1.84-10.8c1.42-4.03,3.62-7.69,6.41-10.8.8-.9,1.65-1.75,2.55-2.55,3.12-2.79,6.78-4.99,10.8-6.41,2.73-.96,5.62-1.57,8.63-1.77-1.96,3.4-3.62,6.98-4.94,10.73-.16.45-.32.91-.47,1.37-1.12.42-2.2.93-3.22,1.52-3.28,1.9-6.01,4.63-7.91,7.91-1.84,3.18-2.89,6.87-2.89,10.8s1.05,7.62,2.89,10.8c1.9,3.28,4.63,6.01,7.91,7.91,1.02.59,2.1,1.1,3.22,1.52,2.36.88,4.91,1.37,7.58,1.37,1.48,0,2.92-.15,4.31-.43,2.32-.47,4.5-1.31,6.49-2.46,1.14-.66,2.22-1.42,3.22-2.27,1.87-1.59,3.46-3.5,4.7-5.64,1.72-2.97,2.75-6.38,2.88-10.03,0,.16,0,.32.02.48v-2.51c.13-3.34.76-6.55,1.82-9.55.9-2.54,2.1-4.93,3.57-7.13.86-1.29,1.81-2.52,2.84-3.67.81-.9,1.67-1.76,2.57-2.57.69-.62,1.41-1.21,2.15-1.76,2.61-1.95,5.52-3.53,8.65-4.63.36-.13.72-.25,1.08-.36,3.06-.96,6.32-1.48,9.7-1.48h.02c.73,0,1.46.03,2.18.07,3.01.2,5.9.81,8.63,1.78,4.03,1.43,7.69,3.63,10.8,6.42.89.8,1.73,1.64,2.52,2.53,2.79,3.12,4.99,6.78,6.41,10.8,1.19,3.38,1.84,7.01,1.84,10.8Z"/>
                </g>
              </g>
              <rect class="cls-9" x="748.04" y="102.13" width="6" height="171.6"/>
            </g>
          </g>
        </g>
      </g>
    </g>
  </g>
</svg>