<svg width="1248" height="814" viewBox="0 0 1248 814" fill="none" xmlns="http://www.w3.org/2000/svg">
<path d="M406.659 475C400.886 475 398 471.932 398 465.795V308.205C398 302.068 400.886 299 406.659 299H452.922C482.609 299 503.184 303.787 514.647 313.36C526.192 322.933 531.964 336.516 531.964 354.107C531.964 371.699 526.192 385.282 514.647 394.855C503.184 404.428 482.609 409.215 452.922 409.215H434.12V465.795C434.12 471.932 431.233 475 425.461 475H406.659ZM434.12 379.268H452.798C469.291 379.268 480.506 377.345 486.444 373.499C492.381 369.572 495.35 363.108 495.35 354.107C495.35 345.107 492.381 338.684 486.444 334.838C480.506 330.911 469.291 328.947 452.798 328.947H434.12V379.268Z" fill="#3C3C3C"/>
<path d="M569.362 475C563.589 475 560.703 471.932 560.703 465.795V308.205C560.703 302.068 563.589 299 569.362 299H626.634C652.116 299 670.711 302.927 682.421 310.782C694.131 318.556 699.986 331.238 699.986 348.83C699.986 361.921 695.245 372.354 685.761 380.127C676.278 387.9 664.238 393.055 649.642 395.591V395.837C657.558 398.782 663.537 402.874 667.578 408.11C671.618 413.347 674.917 417.929 677.473 421.856L704.687 464.445C709.222 471.482 707.656 475 699.986 475H678.463C673.927 475 670.217 472.586 667.33 467.759L642.343 426.397C639.622 421.979 634.633 417.152 627.376 411.915C620.202 406.596 613.068 403.937 605.976 403.937H596.823V465.795C596.823 471.932 593.937 475 588.164 475H569.362ZM596.823 373.499H618.965C635.458 373.499 647.168 371.658 654.095 367.976C661.104 364.212 664.609 358.28 664.609 350.18C664.609 341.343 661.228 335.616 654.466 332.997C647.786 330.297 637.932 328.947 624.902 328.947H596.823V373.499Z" fill="#3C3C3C"/>
<path d="M712.054 309.555C707.848 302.518 709.786 299 717.867 299H739.515C743.803 299 747.596 301.823 750.895 307.469L777.242 353.003C777.984 354.23 780.17 358.076 783.798 364.54C787.427 370.922 789.529 377.14 790.107 383.195H790.602C791.179 377.14 793.282 370.922 796.91 364.54C800.539 358.076 802.724 354.23 803.466 353.003L829.814 307.469C833.112 301.823 836.906 299 841.194 299H862.841C870.922 299 872.86 302.518 868.655 309.555L808.414 410.565V468.25C808.414 472.75 805.528 475 799.755 475H780.953C775.181 475 772.294 472.75 772.294 468.25V410.565L712.054 309.555Z" fill="#3C3C3C"/>
<path d="M885.057 307.1C882.995 301.7 884.933 299 890.871 299H910.538C916.064 299 919.857 301.823 921.919 307.469L959.77 409.951C961.667 415.188 962.78 418.706 963.11 420.506C963.44 422.225 963.811 425.129 964.223 429.22H964.718C965.13 425.129 965.501 422.225 965.831 420.506C966.161 418.706 967.274 415.188 969.171 409.951L1007.02 307.469C1009.08 301.823 1012.88 299 1018.4 299H1038.07C1044.01 299 1045.95 301.7 1043.88 307.1L984.757 465.059C982.283 471.686 978.407 475 973.129 475H955.812C950.534 475 946.658 471.686 944.184 465.059L885.057 307.1Z" fill="#3C3C3C"/>
<path d="M1065.91 475C1058 475 1056.43 471.482 1061.21 464.445L1116.01 384.177L1065.67 309.555C1060.88 302.518 1062.45 299 1070.37 299H1095.35C1099.72 299 1103.43 301.414 1106.49 306.241L1140.26 359.262L1174.02 306.241C1177.08 301.414 1180.79 299 1185.16 299H1210.14C1218.06 299 1219.63 302.518 1214.84 309.555L1164.38 384.177L1219.3 464.445C1224.08 471.482 1222.51 475 1214.6 475H1189.24C1184.95 475 1181.24 472.586 1178.11 467.759L1140.26 409.092L1102.4 467.759C1099.27 472.586 1095.56 475 1091.27 475H1065.91Z" fill="#3C3C3C"/>
<path fill-rule="evenodd" clip-rule="evenodd" d="M186.289 243H112.173C112.213 243 112.189 248.817 112.173 251.725H181.154C181.229 251.725 185.643 259.481 187.841 263.359H100.396V272.16H192.983L199.668 283.911H88.6055L88.5683 292.636H204.772L211.495 304.27H76.7989V313.023H216.536L223.323 324.628H65.0374L27.6865 389L35.2483 393.266L69.9548 333.353H83.3333L39.5139 409.359L47.0756 413.818L93.4156 333.353H106.988L51.3412 429.911L58.903 434.177L117.07 333.353H130.449L62.9747 450.27L70.5365 454.535L140.531 333.353H154.045L74.8021 470.628L112.029 535L119.591 530.541L84.8844 470.628L91.6706 458.995L135.49 535L143.052 530.541L96.7117 450.27L103.498 438.636L159.145 535L166.706 530.541L108.539 429.717L115.325 418.084L182.799 535L190.361 530.541L120.366 409.359L126.959 397.725L206.26 535H280.52V526.275H211.301L204.709 514.641L292.348 514.448V505.722H199.474L192.882 494.089H304.175V485.364H187.744L181.054 473.73H315.941V465.005H176.013L169.227 453.372H327.636L364.863 389L357.301 384.541L322.595 444.647H309.216L353.036 368.641L345.474 364.182L299.134 444.647H285.562L341.208 348.089L333.647 343.823L275.479 444.647H262.101L329.381 327.73L321.819 323.465L251.825 444.647H238.446L317.748 307.372L280.52 243L272.959 247.459L307.665 307.372L300.879 319.005L256.866 243L249.304 247.459L295.838 327.73L289.052 339.364L233.405 243L225.843 247.459L284.011 348.089L277.224 359.722L209.75 243L202.188 247.459L272.183 368.641L265.397 380.275L186.289 243ZM164.184 333.353H228.389L260.354 389L228.362 444.453H164.184L132.192 389L164.184 333.353Z" fill="url(#paint0_radial_1990_80385)"/>
<defs>
<radialGradient id="paint0_radial_1990_80385" cx="0" cy="0" r="1" gradientUnits="userSpaceOnUse" gradientTransform="translate(205.975 380.577) rotate(116.787) scale(161.979 187.039)">
<stop offset="0.290742" stop-color="#569EF8"/>
<stop offset="0.99842" stop-color="#3138A8"/>
</radialGradient>
</defs>
</svg>
