<svg xmlns="http://www.w3.org/2000/svg" width="1670" height="1000" viewBox="0 0 1670 1000" version="1.1"><path d="" stroke="none" fill="#c00404" fill-rule="evenodd"/><path d="M 533 232.500 L 533 412 564.492 412 L 595.983 412 596.242 357.092 L 596.500 302.183 640.883 357.092 L 685.267 412 727.633 412 C 750.935 412, 770 411.646, 770 411.213 C 770 410.781, 743.050 378.501, 710.110 339.481 C 652.152 270.823, 650.274 268.469, 651.860 266.481 C 652.762 265.351, 675.736 237.443, 702.913 204.463 C 730.090 171.483, 752.757 143.938, 753.285 143.250 C 754.049 142.255, 745.513 142, 711.360 142 L 668.475 142 632.488 188.384 L 596.500 234.769 596.245 143.884 L 595.989 53 564.495 53 L 533 53 533 232.500 M 22 243.431 L 22 412 54 412 L 86 412 86 360 L 86 308 108.306 308 L 130.613 308 169.385 360 L 208.157 412 247.578 412 C 272.713 412, 287 411.644, 287 411.018 C 287 410.478, 266.497 382.542, 241.438 348.939 C 216.380 315.336, 195.658 287.273, 195.391 286.576 C 195.124 285.880, 196.446 284.134, 198.330 282.698 C 203.529 278.732, 213.509 268.491, 218.348 262.157 C 227.816 249.761, 234.937 235.048, 239.109 219.262 C 242.059 208.098, 242.835 182.711, 240.591 170.790 C 231.966 124.990, 199.202 90.132, 153.632 78.276 L 143.500 75.640 82.750 75.251 L 22 74.862 22 243.431 M 1038 108.500 L 1038 142 1022 142 L 1006 142 1006 174.500 L 1006 207 1022 207 L 1038 207 1038.013 271.250 C 1038.025 329.985, 1038.186 336.274, 1039.888 344.522 C 1047.518 381.486, 1074.451 409.022, 1110.367 416.577 C 1125.786 419.821, 1148.611 417.689, 1166.234 411.359 C 1176.721 407.592, 1187.184 402.134, 1186.815 400.624 C 1186.642 399.916, 1177.741 387.630, 1167.036 373.322 L 1147.572 347.306 1141.036 350.401 C 1125.293 357.856, 1108.941 351.905, 1101.606 336.051 C 1099.547 331.601, 1099.494 330.124, 1099.214 269.250 L 1098.928 207 1124.964 207 L 1151 207 1151 174.500 L 1151 142 1125 142 L 1099 142 1099 108.500 L 1099 75 1068.500 75 L 1038 75 1038 108.500 M 1274 136.005 C 1259.438 137.995, 1244.438 142.836, 1233 149.238 C 1212.396 160.771, 1193.753 181.138, 1182.477 204.435 C 1164.868 240.816, 1161.639 287.825, 1174.169 325.384 C 1189.920 372.597, 1228.211 407.833, 1273.186 416.501 C 1283.735 418.534, 1303.757 418.568, 1315.046 416.572 C 1339.711 412.211, 1359.580 401.931, 1378.734 383.624 C 1387.245 375.489, 1401.832 358.356, 1400.870 357.626 C 1398.800 356.055, 1347.870 327, 1347.187 327 C 1346.684 327, 1345.023 328.803, 1343.496 331.006 C 1339.368 336.963, 1327.130 348.209, 1320.937 351.736 C 1311.154 357.309, 1303.642 359.309, 1292.500 359.309 C 1277.424 359.309, 1265.373 354.435, 1253.042 343.348 C 1241.172 332.675, 1234.326 319.659, 1229.585 298.750 L 1228.962 296 1316.396 296 L 1403.829 296 1404.665 288.250 C 1406.044 275.453, 1405.490 251.540, 1403.559 240.500 C 1392.913 179.649, 1348.002 137.936, 1290.548 135.537 C 1285.021 135.306, 1277.575 135.517, 1274 136.005 M 360.625 137.554 C 312.258 147.164, 274.822 188.183, 263.019 244.500 C 260.297 257.490, 259.282 282.126, 260.914 295.589 C 265.310 331.838, 280.278 363.591, 303.462 385.848 C 325.579 407.082, 351.849 418, 380.819 418 C 398.801 418, 410.831 414.928, 427.770 406.010 C 433.005 403.255, 437.448 401, 437.644 401 C 437.840 401, 438 403.482, 438 406.514 L 438 412.029 468.750 411.764 L 499.500 411.500 499.500 277 L 499.500 142.500 468.750 142.236 L 438 141.971 438 147.486 C 438 150.518, 437.815 153, 437.588 153 C 437.361 153, 434.099 151.229, 430.338 149.064 C 421.151 143.776, 410.140 139.496, 400.792 137.580 C 391.324 135.639, 370.331 135.625, 360.625 137.554 M 1523.069 137.031 C 1512.599 139.220, 1497.698 145.289, 1490.750 150.195 L 1488 152.136 1488 147.068 L 1488 142 1457.500 142 L 1427 142 1427 277 L 1427 412 1457.463 412 L 1487.925 412 1488.256 327.250 C 1488.550 251.995, 1488.771 241.898, 1490.234 237.131 C 1494.785 222.301, 1504.270 210.447, 1516.371 204.466 C 1544.409 190.609, 1575.198 205.597, 1584.729 237.743 C 1586.266 242.930, 1586.468 251.841, 1586.760 327.750 L 1587.085 412 1617.588 412 L 1648.091 412 1647.737 323.250 C 1647.393 237.053, 1647.322 234.241, 1645.268 225.500 C 1639.528 201.072, 1630.142 183.230, 1614.578 167.159 C 1601.125 153.267, 1585.167 143.923, 1566.175 138.816 C 1557.504 136.484, 1530.944 135.384, 1523.069 137.031 M 86 191.500 L 86 243 108.951 243 C 121.717 243, 134.253 242.513, 137.201 241.903 C 155.572 238.100, 170.945 223.656, 176.405 205.068 C 178.382 198.335, 178.452 185.286, 176.547 178.131 C 171.846 160.466, 157.437 146.166, 139.500 141.363 C 135.981 140.420, 127.319 140.020, 110.250 140.012 L 86 140 86 191.500 M 763.667 142.667 C 762.531 143.802, 762.907 300.432, 764.075 312.904 C 767.253 346.826, 782.150 376.117, 805.948 395.234 C 836.961 420.147, 879.592 425.120, 913.282 407.754 C 917.802 405.424, 921.837 403.364, 922.250 403.176 C 922.663 402.987, 923 404.902, 923 407.431 L 923 412.029 953.750 411.764 L 984.500 411.500 984.500 277 L 984.500 142.500 953.782 142.236 L 923.064 141.971 922.782 227.736 L 922.500 313.500 919.921 320.120 C 914.214 334.771, 906.587 343.654, 894.764 349.419 C 871.200 360.909, 844.104 351.853, 831.760 328.362 C 824.862 315.235, 825.031 317.828, 825.015 225.250 L 825 142 794.667 142 C 777.983 142, 764.033 142.300, 763.667 142.667 M 1273.191 196.025 C 1262.965 198.704, 1256.648 202.392, 1248.395 210.500 C 1242.848 215.950, 1240.369 219.382, 1237.201 226 C 1234.964 230.675, 1232.828 236.188, 1232.455 238.250 L 1231.777 242 1285.389 242 L 1339 242 1338.979 239.750 C 1338.938 235.343, 1333.952 223.413, 1329.316 216.628 C 1316.760 198.252, 1295.075 190.292, 1273.191 196.025 M 371.510 202.175 C 362.251 203.941, 354.132 208.673, 345.385 217.402 C 338.685 224.088, 336.468 227.156, 332.668 235 C 325.798 249.178, 323.610 259.323, 323.610 277 C 323.610 294.560, 325.801 304.837, 332.476 318.588 C 343.911 342.147, 366.464 355.652, 388.418 352.088 C 411.483 348.343, 428.646 330.139, 436.115 301.500 C 439.443 288.738, 439.476 265.678, 436.184 252.500 C 429.424 225.441, 411.800 205.962, 390.566 202.084 C 383.664 200.823, 378.471 200.848, 371.510 202.175 M 380.799 495.750 C 399.522 514.862, 417.240 532.850, 420.174 535.723 L 425.507 540.945 873.004 502.001 C 1119.127 480.582, 1322.750 462.653, 1325.500 462.160 C 1328.486 461.624, 1132.354 461.210, 838.629 461.131 L 346.758 461 380.799 495.750 M 578 754.500 L 578 925 594.417 925 L 610.834 925 611.835 920.250 C 612.385 917.637, 613.615 911.529, 614.569 906.676 L 616.303 897.851 623.402 904.848 C 641.786 922.970, 661.413 931, 687.327 931 C 717.469 931, 742.317 920.952, 762.531 900.590 C 787.978 874.956, 801.164 836.056, 799.678 791 C 798.309 749.464, 785.953 717.005, 762.531 693.410 C 746.745 677.508, 727.259 667.573, 704.797 663.975 C 694.764 662.367, 671.746 663.217, 663 665.518 C 647.510 669.593, 633.199 678.481, 621.512 691.287 L 615 698.421 615 641.211 L 615 584 596.500 584 L 578 584 578 754.500 M 915 754.500 L 915 925 933.500 925 L 952 925 952 754.500 L 952 584 933.500 584 L 915 584 915 754.500 M 831 616.500 L 831 638 852.500 638 L 874 638 874 616.500 L 874 595 852.500 595 L 831 595 831 616.500 M 22 765 L 22 925 40.496 925 L 58.993 925 59.246 789.270 L 59.500 653.540 105.396 729.020 C 130.639 770.534, 151.789 805.040, 152.396 805.700 C 153.223 806.599, 165.171 787.725, 200 730.505 L 246.500 654.110 246.754 789.555 L 247.007 925 265.504 925 L 284 925 284 764.983 L 284 604.965 259.400 605.233 L 234.800 605.500 193.996 673.286 L 153.192 741.072 123.779 692.286 C 107.601 665.454, 89.220 634.851, 82.933 624.280 L 71.500 605.060 46.750 605.030 L 22 605 22 765 M 408.108 665.113 C 361.401 674.917, 329.383 712.098, 320.373 766.998 C 318.226 780.076, 317.578 800.980, 318.902 814.443 C 324.731 873.724, 355.462 915.327, 402.500 927.613 C 421.360 932.539, 446.278 932.015, 464.476 926.309 C 512.195 911.346, 541.555 866.008, 543.683 804 C 544.979 766.196, 537.442 735.951, 520.284 710.117 C 504.215 685.921, 480.134 669.896, 451.750 664.512 C 440.362 662.352, 419.923 662.633, 408.108 665.113 M 1078.334 664.481 C 1044.957 670.537, 1017.773 691.907, 1001.457 724.916 C 982.235 763.806, 980.994 819.705, 998.452 860.269 C 1014.084 896.588, 1042.281 920.640, 1078.765 928.775 C 1089.829 931.242, 1120.233 931.174, 1131.796 928.656 C 1147.285 925.283, 1161.213 919.527, 1173.910 911.251 C 1180.981 906.642, 1197.558 890.194, 1202.291 883.092 L 1205.894 877.684 1191.347 866.592 C 1183.346 860.491, 1176.449 855.368, 1176.020 855.207 C 1175.591 855.045, 1173.828 857.414, 1172.103 860.471 C 1167.897 867.925, 1156.210 880.059, 1148.645 884.826 C 1123.713 900.540, 1092.894 901.726, 1069.258 887.881 C 1061.402 883.280, 1044.431 866.105, 1039.731 858 C 1032.462 845.463, 1027.633 829.573, 1026.285 813.750 L 1025.710 807 1116.386 807 C 1201.804 807, 1207.104 806.899, 1207.781 805.250 C 1208.177 804.288, 1208.471 795.625, 1208.435 786 C 1208.382 771.917, 1207.940 766.502, 1206.169 758.266 C 1195.671 709.441, 1162.576 673.775, 1119.522 664.888 C 1108.853 662.686, 1089.290 662.493, 1078.334 664.481 M 834 797 L 834 925 852.500 925 L 871 925 871 797 L 871 669 852.500 669 L 834 669 834 797 M 1087.500 697.497 C 1072.036 700.407, 1062.328 705.641, 1050.441 717.479 C 1042.569 725.318, 1040.704 727.876, 1036.209 737 C 1031.441 746.679, 1028.374 756.698, 1026.489 768.750 L 1025.824 773 1096.231 773 L 1166.638 773 1165.824 766.177 C 1163.014 742.653, 1151.175 719.640, 1136.245 708.680 C 1128.847 703.249, 1119.075 699.025, 1110.287 697.458 C 1100.842 695.774, 1096.621 695.781, 1087.500 697.497 M 415.275 699.482 C 386.954 707.418, 365.600 735.689, 359.496 773.328 C 357.523 785.493, 357.567 809.074, 359.586 821.074 C 363.360 843.511, 372.473 862.787, 385.695 876.296 C 399.131 890.025, 413.067 896, 431.655 896 C 470.031 896, 498.928 861.838, 504.008 810.468 C 508.328 766.776, 492.890 726.161, 464.935 707.672 C 454.800 700.968, 447.124 698.728, 433 698.351 C 424.172 698.116, 418.965 698.448, 415.275 699.482 M 671.209 699.556 C 641.698 707.499, 620.059 737.903, 614.933 778.625 C 612.437 798.454, 614.915 824.136, 621.048 842 C 630.293 868.932, 649.337 888.660, 671.644 894.415 C 684.476 897.725, 702.298 895.907, 713.767 890.118 C 740.225 876.761, 756.771 847.605, 759.937 808.758 C 764.282 755.448, 739.931 709.279, 702.356 699.585 C 694.730 697.618, 678.466 697.602, 671.209 699.556" stroke="none" fill="#bc0404" fill-rule="evenodd"/></svg>