<?xml version="1.0" encoding="UTF-8" standalone="no"?>
<!DOCTYPE svg PUBLIC "-//W3C//DTD SVG 1.1//EN" "http://www.w3.org/Graphics/SVG/1.1/DTD/svg11.dtd">
<!-- Created with Vectornator (http://vectornator.io/) -->
<svg height="203.0pt" stroke-miterlimit="10" style="fill-rule:nonzero;clip-rule:evenodd;stroke-linecap:round;stroke-linejoin:round;" version="1.1" viewBox="0 0 613 203" width="613.0pt" xml:space="preserve" xmlns="http://www.w3.org/2000/svg" xmlns:xlink="http://www.w3.org/1999/xlink">
<defs/>
<clipPath id="ArtboardFrame">
<rect height="203" width="613" x="0" y="0"/>
</clipPath>
<g clip-path="url(#ArtboardFrame)" id="Sin-título">
<g opacity="1">
<g opacity="1">
<path d="M612.226 202.428L0 202.428L0 0L612.226 0L560.377 100.866L612.226 202.428Z" fill="#d6f716" fill-rule="nonzero" opacity="1" stroke="none"/>
<path d="M226.351 91.0123L226.351 103.394L236.113 103.394C237.838 103.394 239.284 102.806 240.448 101.631C241.612 100.456 242.195 98.9863 242.195 97.2193C242.195 95.4513 241.612 93.9743 240.448 92.7893C239.284 91.6053 237.838 91.0123 236.113 91.0123L226.351 91.0123ZM241.757 126.783L231.591 111.064L226.351 111.064L226.351 126.783L217.525 126.783L217.525 82.7153L236.3 82.7153C240.541 82.7153 244.097 84.0943 246.966 86.8483C249.836 89.6053 251.27 93.0393 251.27 97.1563C251.27 100.275 250.36 103.025 248.541 105.406C246.721 107.786 244.326 109.444 241.352 110.38L252.362 126.783L241.757 126.783Z" fill="#ff3a4e" fill-rule="nonzero" opacity="1" stroke="none"/>
<path d="M355.443 94.0036L342.427 126.768L334.252 126.768L320.919 94.0036L330.369 94.0036L338.388 115.956L346.265 94.0036L355.443 94.0036Z" fill="#ff3a4e" fill-rule="nonzero" opacity="1" stroke="none"/>
<path d="M380.224 110.387C380.224 105.08 376.6 101.407 371.493 101.407C366.385 101.407 362.761 105.08 362.761 110.387C362.761 115.692 366.385 119.367 371.493 119.367C376.6 119.367 380.224 115.692 380.224 110.387M353.781 110.387C353.781 100.446 361.343 93.0767 371.493 93.0767C381.591 93.0767 389.204 100.457 389.204 110.387C389.204 120.266 381.591 127.695 371.493 127.695C361.343 127.695 353.781 120.266 353.781 110.387" fill="#ff3a4e" fill-rule="nonzero" opacity="1" stroke="none"/>
<path d="M392.212 82.7036L401.069 82.7036L401.069 126.771L392.212 126.771L392.212 82.7036Z" fill="#ff3a4e" fill-rule="nonzero" opacity="1" stroke="none"/>
<path d="M406.703 113.037L406.703 94.1053L415.562 94.1053L415.562 112.027C415.562 116.689 418.028 119.469 422.119 119.469C426.223 119.469 428.629 116.627 428.629 112.027L428.629 94.1053L437.488 94.1053L437.488 113.037C437.488 121.883 431.386 127.796 422.119 127.796C412.865 127.796 406.703 121.883 406.703 113.037" fill="#ff3a4e" fill-rule="nonzero" opacity="1" stroke="none"/>
<path d="M463.831 118.982L463.831 126.87L457.537 126.87C450.328 126.87 445.898 122.44 445.898 115.171L445.898 101.226L439.975 101.226L439.975 99.3133L452.915 85.5553L454.609 85.5553L454.609 94.1053L463.648 94.1053L463.648 101.226L454.757 101.226L454.757 113.996C454.757 117.163 456.577 118.982 459.803 118.982L463.831 118.982Z" fill="#ff3a4e" fill-rule="nonzero" opacity="1" stroke="none"/>
<path d="M474.53 106.918L490.407 106.918C489.155 102.914 486.277 100.741 482.303 100.741C478.358 100.741 475.559 103.041 474.53 106.918M499.094 112.969L474.296 112.969C475.066 117.441 478.005 119.902 482.303 119.902C485.381 119.902 487.908 118.447 489.253 116.102L498.563 116.102C496.18 123.246 489.91 127.797 482.303 127.797C472.628 127.797 465.308 120.306 465.308 110.489C465.308 100.62 472.579 93.1791 482.303 93.1791C492.365 93.1791 499.264 100.935 499.264 110.372C499.264 111.237 499.202 112.104 499.094 112.969" fill="#ff3a4e" fill-rule="nonzero" opacity="1" stroke="none"/>
<path d="M261.469 106.7L277.346 106.7C276.094 102.696 273.216 100.523 269.242 100.523C265.297 100.523 262.498 102.823 261.469 106.7M286.033 112.751L261.235 112.751C262.005 117.223 264.944 119.684 269.242 119.684C272.32 119.684 274.847 118.229 276.192 115.884L285.502 115.884C283.119 123.028 276.849 127.579 269.242 127.579C259.567 127.579 252.247 120.088 252.247 110.271C252.247 100.402 259.518 92.9615 269.242 92.9615C279.304 92.9615 286.203 100.717 286.203 110.154C286.203 111.019 286.141 111.886 286.033 112.751" fill="#ff3a4e" fill-rule="nonzero" opacity="1" stroke="none"/>
<path d="M297.931 106.7L313.808 106.7C312.556 102.696 309.678 100.523 305.704 100.523C301.759 100.523 298.96 102.823 297.931 106.7M322.495 112.751L297.697 112.751C298.467 117.223 301.406 119.684 305.704 119.684C308.782 119.684 311.309 118.229 312.654 115.884L321.964 115.884C319.581 123.028 313.311 127.579 305.704 127.579C296.029 127.579 288.709 120.088 288.709 110.271C288.709 100.402 295.98 92.9615 305.704 92.9615C315.766 92.9615 322.665 100.717 322.665 110.154C322.665 111.019 322.604 111.886 322.495 112.751" fill="#ff3a4e" fill-rule="nonzero" opacity="1" stroke="none"/>
<path d="M182.057 60.6701C179.632 55.8261 176.013 52.0271 171.672 48.8621C164.311 43.4941 155.923 40.5091 147.176 38.4411C131.233 34.6731 115.107 34.5831 98.9197 36.3461C86.3807 37.7121 74.1017 40.3651 62.0107 43.9321C61.1517 44.1861 60.8927 44.4611 61.0387 45.4071C62.4887 54.8231 63.8587 64.2521 65.2897 73.6711C67.5237 88.3641 69.7857 103.052 72.0397 117.742C73.5417 127.537 75.0637 137.33 76.5517 147.128C77.5367 153.613 78.4767 160.105 79.4757 166.856C79.9957 166.526 80.2467 166.386 80.4767 166.217L157.477 110.347C161.979 107.195 166.051 103.597 169.961 99.7691C175.187 94.6521 179.633 88.9971 182.436 82.1731C185.403 74.9521 185.613 67.7741 182.057 60.6701" fill="#ff3a4e" fill-rule="nonzero" opacity="1" stroke="none"/>
<path d="M165.543 115.505L122.948 146.069L181.505 167.191L165.543 115.505Z" fill="#ff3a4e" fill-rule="nonzero" opacity="1" stroke="none"/>
</g>
</g>
</g>
</svg>
