

<svg version="1.1" id="Sinch_logo" xmlns:xlink="http://www.w3.org/1999/xlink" x="0px" y="0px" viewBox="0 0 1920 737.64" xml:space="preserve">
<g>
	<path d="M733.72,337.51c-10.66-15.15-25.5-26.5-42.88-32.81c-11.18-4.18-22.91-6.24-34.84-6.12c-20.79,0.13-42.82,6.65-63.69,18.86
		L406.83,426.02c-28.86,16.89-50.33,14.62-63.32,9.71c-9.53-3.4-17.65-9.56-23.49-17.81c-5.85-8.25-8.98-17.95-9.03-28.06
		c-0.06-10.11,2.94-19.85,8.7-28.17c5.75-8.32,13.8-14.57,23.35-18.11c12.87-5.03,34.29-7.56,63.34,8.97l20.9,11.95
		c-1.22,4.2-2.12,8.51-2.69,12.83l-1.08,8.17l158.23-91.35l0.32-0.2c4.23-3,7.16-7.44,8.26-12.51c1.09-5.07,0.25-10.33-2.38-14.8
		c-2.62-4.47-6.8-7.77-11.77-9.3c-4.96-1.52-10.27-1.13-14.95,1.11l-0.15,0.07l-51.22,29.74l-52.17-29.84l-0.3-0.15
		c-4.73-2.21-10.07-2.55-15.04-0.96c-4.97,1.59-9.12,4.97-11.69,9.51c-2.57,4.54-3.33,9.84-2.12,14.92
		c1.2,5.07,4.25,9.48,8.58,12.39l31.83,18.03l-4.37,2.58l-0.09,0.06c-6.19,3.93-11.86,8.62-16.88,13.95l-20.89-12.04
		c-33.68-19.18-68.76-23.29-98.76-11.57c-12.51,4.83-24.01,12.51-33.26,22.21c-9.25,9.7-16.39,21.55-20.63,34.31
		c-7.18,22.37-5.47,46.31,4.83,67.42c10.3,21.11,28.12,37.2,50.15,45.3c11.19,4.18,22.94,6.24,34.86,6.12
		c20.77-0.13,42.8-6.66,63.69-18.89l0.32-0.2l185.07-108.36c28.85-16.88,50.33-14.61,63.34-9.71c9.53,3.38,17.65,9.52,23.5,17.77
		c5.84,8.26,8.93,17.96,8.95,28.08c0.02,5.33-0.79,10.61-2.39,15.62c-2.34,6.94-6.26,13.39-11.34,18.66
		c-5.07,5.27-11.37,9.44-18.24,12.06c-12.87,5.02-34.31,7.53-63.37-8.99l-20.89-11.95c1.33-4.58,2.28-9.28,2.84-14l0.97-8.11
		l-123.25,72.16v47.7l82.14-47.96l0.14-0.08c6.17-3.93,11.83-8.62,16.84-13.95l20.91,12.05c33.82,19.11,68.9,23.22,98.72,11.58
		c17.34-6.52,32.04-18.04,42.52-33.32c10.47-15.27,15.92-33.14,15.75-51.65h0.03C750.04,370.46,744.38,352.66,733.72,337.51
		L733.72,337.51z"></path>
	<path d="M959.35,370.56c-23.84-5.98-41.73-8.36-41.73-20.27c0-9.55,8.93-16.7,25.03-16.7c15.5,0,26.25,6.08,33.39,18.48
		l37.56-21.48c-19.08-23.89-40.53-32.25-71.54-32.25c-36.37,0-69.16,22.03-69.16,54.28c0,29.82,22.65,44.11,57.83,51.87
		c25.67,5.38,40.56,8.93,40.56,20.27c0,11.34-10.67,19.08-28.03,19.08c-18.49,0.02-31.6-7.73-39.34-23.24l-39.37,22.65
		c16.7,27.44,42.94,36.96,77.52,37.01c41.75,0,75.14-23.24,75.14-57.23C1017.2,390.23,992.15,378.9,959.35,370.56z"></path>
	<polygon points="1041.04,475.49 1085.17,475.44 1085.17,298.35 1041.04,324.17 	"></polygon>
	<path d="M1587.22,298.35c-14.71,0.25-29.01,4.81-41.13,13.12v-87.05l-44.21,25.65v225.37h44.85v-90.02
		c0-26.17,14.91-43.54,39.37-43.54c22.65,0,39.34,16.1,39.34,43.54v90.07h44.66v-94.27C1670.1,331.74,1636.11,298.35,1587.22,298.35
		z"></path>
	<path d="M1200.25,298.35c-48.9,0-84.07,36.39-84.07,84.1v93.05l44.78-0.05v-90.02c0-26.17,14.91-43.54,39.37-43.54
		c22.65,0,39.34,16.1,39.34,43.54v90.02h44.66v-93C1284.33,337.12,1249.87,298.35,1200.25,298.35z"></path>
	<path d="M1399.28,437.29c-27.44,0-45.92-20.86-45.92-48.3c0-28.03,19.68-47.7,45.92-47.7c8.22-0.17,16.33,1.98,23.4,6.2
		c7.06,4.22,12.79,10.34,16.54,17.67l38.15-22.67c-14.31-26.77-44.11-44.13-77.49-44.13c-53.63,0-91.78,37.58-91.78,90.64
		s38.84,91.22,91.78,91.17c15.82,0.2,31.39-3.84,45.12-11.69c13.73-7.85,25.11-19.23,32.97-32.96l-38.15-22.08
		C1432.68,428.34,1417.17,437.29,1399.28,437.29z"></path>
</g>
</svg>
