<?xml version="1.0" encoding="UTF-8"?>
<svg version="1.1" viewBox="0 0 2048 608" width="1280" height="1280" xmlns="http://www.w3.org/2000/svg">
<path transform="translate(1336,313)" d="m0 0h12l12 2 13 5 13 9 8 9 1-22h69v143h-22l-1-1v-115l7-3 10-3-40-1v120l-3 16-7 16-7 10-7 7-13 8-13 5-11 2h-19l-15-3-14-6-11-8-9-9-8-14-1-6 18-6 4 1 6 12 7 7 14 7 13 3h11l13-3 11-6 8-8 6-12 3-14v-23l-7 8-13 9-9 4-13 3h-20l-17-4-15-8-12-11-8-11-5-10-4-15v-25l4-15 8-15 11-12 10-7 12-6 11-3zm1 21-13 3-12 7-10 10-5 9-3 7-1 5v20l4 12 6 9 10 10 13 7 16 3 13-1 12-4 10-6 10-10 5-8 4-12v-20l-4-12-7-11-10-9-14-7-9-2z" fill="#102139"/>
<path transform="translate(652,272)" d="m0 0h3l1 43 46 1-6 20h-41l1 83 2 9 4 6 9 4h17l10-2h4v22l-15 3h-20l-12-3-9-6-7-8-5-12-1-5v-85l16-5h-56l-12 4-10 7-7 8-6 13-2 12-1 78h-22l-1-1v-135l7-3 16-4 1 25 6-10 8-8 10-5 9-2 43-1 1-37z" fill="#102037"/>
<path transform="translate(438,313)" d="m0 0h13l15 2 14 5 11 6 8 7 7 11 2 6v109h-21l-1-1-1-26-7 9-7 7-13 8-14 4-17 1-14-2-15-6-10-8-7-11-2-8v-18l4-11 6-8 8-7 11-5 13-3 8-1h57l-1-18-4-8-7-6-8-4-17-3-17 1-13 4-8 6-6 12h-22l1-9 4-10 9-10 10-7 13-5 9-2zm-2 77-15 3-10 5-7 8-2 4v12l3 7 4 5 12 6 4 1h16l11-3 10-5 10-8 8-10 5-11 1-4v-10z" fill="#102039"/>
<path transform="translate(772,313)" d="m0 0h11l16 3 12 5 11 7 13 13 9 15 5 16 1 7v16l-122 1 2 10 4 10 8 10 10 7 13 5 7 1h11l16-4 11-6 10-9 2-3 10 2 11 4-4 8-11 12-14 9-14 6-9 2-18 1-14-2-14-5-11-7-10-9-7-8-7-12-5-16-1-6v-18l3-14 5-12 7-11 13-13 13-8 14-5zm-2 21-12 3-11 6-8 7-7 10-4 10-20 6v1h118l-1-9-7-14-11-11-13-7-9-2z" fill="#102038"/>
<path transform="translate(976,313)" d="m0 0h12l16 3 12 5 10 7 10 9 9 12 6 13 3 12 1 15-1 6h-122l4 15 6 11 7 7 14 8 13 3h12l16-4 12-7 9-8 2-3 9 2 12 4-6 10-7 8-11 8-14 7-14 4-18 1-15-2-13-5-12-7-9-8-8-10-6-11-4-10-2-10v-22l4-16 6-12 7-9 5-6 10-8 16-8 11-3zm-2 21-12 3-10 6-10 9-6 10-3 9-7 1-13 4v1h118l-1-8-4-10-7-9-9-8-12-6-9-2z" fill="#102038"/>
<path transform="translate(1177,313)" d="m0 0h12l16 3 12 5 11 7 13 13 9 14 5 15 1 5v24l-4 15-6 12-8 10-10 10-13 8-13 5-15 2-18-1-14-4-13-7-12-11-8-9-8-16-4-15v-22l4-16 6-12 7-9 5-6 10-8 16-8 11-3zm-4 22-10 3-9 5-10 9-7 10-4 10-1 5v20l4 13 7 11 7 7 11 7 13 4h18l13-4 11-7 7-7 7-11 4-12v-22l-4-12-7-11-8-8-10-6-7-3-5-1z" fill="#102038"/>
<path transform="translate(1657,262)" d="m0 0h128l7 3 5 6 1 2v10l-19 70-13 48-4 6-5 4-2 1h-9l-7-4-4-6-1-9 27-99h-105l-7-4-4-6-1-8 3-8 5-4z" fill="#4465FE"/>
<path transform="translate(197,313)" d="m0 0h14l15 2 16 5 14 7 4 3v22l-4-1-17-9-14-5-17-3h-8l-14 3-8 4-5 6-1 2v11l2 4 12 6 24 6 23 6 16 8 9 8 6 12 1 6v8l-3 12-6 9-11 8-12 5-9 2-11 1h-9l-16-2-16-5-16-8-8-6v-25l8 6 11 7 15 7 16 4h20l12-4 6-4 4-8v-7l-4-7-9-6-18-6-23-5-15-5-13-7-8-9-3-8v-17l5-12 9-9 11-6 16-5z" fill="#10213A"/>
<path transform="translate(1549,313)" d="m0 0h12l16 3 14 6 12 9 8 8 9 14 1 5-8 3-9 3h-4l-7-11-5-5-7-6-11-5-10-2h-9l-14 3-10 5-10 9-7 11-4 10-1 6v16l3 11 6 12 8 9 11 7 12 4 12 1 12-2 10-4 9-7 8-9 4-7 10 2 10 3 1 4-7 12-9 10-8 7-12 7-11 4-15 2-18-1-14-4-13-7-12-11-8-9-8-16-4-16v-20l4-17 8-15 11-12 9-8 16-8 11-3z" fill="#102039"/>
<path transform="translate(320,272)" d="m0 0h3v44h46l-4 16-2 4h-40l1 88 4 9 7 4 4 1h17l9-2h4v22l-14 3h-21l-11-3-10-6-6-7-5-11-2-10v-82l16-5-46-1v-20h30v-38z" fill="#11223D"/>
<path transform="translate(1094,270)" d="m0 0h1v189h-22l-1-1v-181l18-6z" fill="#0F1F35"/>
<path transform="translate(889,270)" d="m0 0 2 2v186l-1 1h-22l-1-1v-181z" fill="#11223E"/>
<path transform="translate(1763,321)" d="m0 0h8l8 5 3 4v2h2l-2 10-16 59-4 6-5 4-2 1h-9l-7-4-4-6-1-9 18-66 2-4h3z" fill="#FEFEFE"/>
<path transform="translate(1876,187)" d="m0 0 9 1 7 6 2 5v8l-4 7-16 13-16 12-16 13-6 3h-8l-6-3-5-6-1-3v-7l3-6 10-9 16-12 16-13 10-7z" fill="#4465FF"/>
<path transform="translate(1736,148)" d="m0 0h10l5 3 5 6 11 31 10 28-1 9-4 6-8 4-9-1-7-6-7-18-15-42v-10l4-6z" fill="#4465FF"/>
<path transform="translate(1831,296)" d="m0 0h9l14 8 41 26 5 6 1 2v11l-7 8-6 2-8-1-26-16-19-12-11-7-4-8v-7l4-8z" fill="#4465FF"/>
<path transform="translate(1449,262)" d="m0 0h7l8 4 4 6 1 9-4 8-5 4-3 1h-8l-6-3-5-6-1-3v-8l3-6 6-5z" fill="#4465FF"/>
</svg>
