<svg xmlns="http://www.w3.org/2000/svg" width="500" height="245" viewBox="0 0 500 245" version="1.1"><path d="M 322.500 54.915 C 316.480 57.730, 298.428 76.473, 296.534 81.876 C 292.990 91.985, 294.910 96.901, 307.465 109.851 C 312.984 115.545, 318.839 120.896, 320.477 121.744 C 324.074 123.607, 332.672 123.762, 336.049 122.025 C 339.672 120.161, 346 113.825, 346 112.062 C 346 111.219, 340.825 105.341, 334.499 98.999 L 322.999 87.469 334.499 76.001 C 340.825 69.693, 346 64.051, 346 63.462 C 346 61.668, 339.725 56.195, 335.782 54.551 C 330.926 52.525, 327.403 52.622, 322.500 54.915" stroke="none" fill="#fb9c19" fill-rule="evenodd"/><path d="M 379.849 67.328 C 377.290 68.050, 373.915 69.475, 372.349 70.494 C 367.554 73.614, 357 84.220, 357 85.917 C 357 86.798, 366.450 96.960, 378 108.500 L 399 129.483 378 150.500 C 366.450 162.059, 357 172.232, 357 173.106 C 357 175.299, 367.620 185.234, 373.045 188.118 C 376.781 190.104, 378.952 190.485, 386.500 190.484 C 399.405 190.481, 401.623 189.070, 423.701 166.819 C 443.155 147.213, 445.255 144.191, 447.049 133.230 C 448.157 126.458, 446.877 117.888, 443.740 111.080 C 440.623 104.315, 409.294 72.780, 402.281 69.349 C 395.969 66.261, 386.616 65.418, 379.849 67.328 M 238.625 118.534 C 237.682 120.993, 237.905 187.302, 238.862 188.811 C 239.412 189.679, 241.351 190.017, 244.597 189.811 L 249.500 189.500 249.500 153.500 L 249.500 117.500 244.375 117.202 C 240.376 116.970, 239.113 117.262, 238.625 118.534 M 108.039 126.250 C 107.534 127.487, 106.855 130.548, 106.529 133.051 C 105.957 137.449, 105.787 137.642, 101.469 138.797 C 97.146 139.953, 97 140.120, 97 143.889 C 97 148.115, 98.053 149, 103.082 149 L 106 149 106 162.851 C 106 177.370, 106.872 181.940, 110.389 185.845 C 114.058 189.921, 117.381 191, 126.259 191 C 136.725 191, 138.253 190.070, 137.818 183.964 L 137.500 179.500 129.696 179.856 C 117.468 180.414, 118 181.668, 118 152.279 C 118 137.365, 117.597 127.116, 116.965 125.934 C 115.413 123.035, 109.262 123.253, 108.039 126.250 M 62.071 138.695 C 56.668 141.539, 54.491 145.268, 54.553 151.573 C 54.629 159.429, 56.590 161.539, 69.819 168 C 81.686 173.797, 83.457 175.278, 81.928 178.135 C 80.523 180.760, 73.585 181.362, 63.966 179.695 C 59.310 178.888, 55.134 178.566, 54.686 178.978 C 54.238 179.391, 54.013 181.702, 54.186 184.114 C 54.482 188.246, 54.732 188.578, 58.500 189.847 C 63.601 191.564, 79.402 191.766, 84.085 190.173 C 89.958 188.175, 93.266 183.921, 93.727 177.772 C 94.456 168.066, 91.780 165.441, 72.250 156.704 C 67.153 154.424, 66 153.475, 66 151.561 C 66 150.270, 66.712 148.941, 67.582 148.607 C 70.069 147.652, 82.157 147.898, 85.929 148.980 C 90.261 150.222, 92 148.910, 92 144.401 C 92 139.051, 88.747 137.582, 76.058 137.204 C 67.391 136.946, 64.886 137.213, 62.071 138.695 M 153.459 138.880 C 148.527 141.120, 144.426 145.807, 143.044 150.781 C 141.703 155.611, 141.713 172.426, 143.060 177.277 C 144.469 182.351, 149.099 187.414, 154.263 189.527 C 159.922 191.843, 176.865 191.932, 182.250 189.674 C 185.802 188.185, 186 187.862, 186 183.559 L 186 179.017 174.069 179.658 C 161.369 180.341, 156.851 179.460, 154.962 175.929 C 154.433 174.940, 154 169.237, 154 163.254 C 154 153.710, 154.248 152.110, 156.028 150.201 C 158.627 147.411, 161.841 146.634, 168.241 147.249 C 172.001 147.610, 173.869 148.355, 175.228 150.034 C 178.352 153.891, 177.119 155.249, 166.744 159.380 L 157 163.260 157 167.508 C 157 174.564, 158.157 174.709, 172.153 169.399 C 178.944 166.823, 185.063 164.274, 185.750 163.735 C 186.511 163.138, 187 160.322, 187 156.535 C 187 148.202, 184.016 142.463, 178.040 139.303 C 172.345 136.291, 159.638 136.073, 153.459 138.880 M 207 138.594 C 198.311 142.358, 194.864 148.280, 194.222 160.544 C 193.070 182.566, 199.971 191.312, 218.482 191.289 C 228.451 191.277, 231.597 190.110, 232.478 186.098 C 233.751 180.306, 232.293 179.458, 221.734 179.843 C 212.888 180.165, 212.154 180.036, 209.414 177.679 C 206.519 175.189, 206.500 175.101, 206.500 164 C 206.500 152.857, 206.508 152.820, 209.462 150.279 C 212.300 147.838, 212.813 147.755, 221.713 148.286 C 230.906 148.834, 231.008 148.815, 231.609 146.420 C 232.563 142.621, 231.202 139.027, 228.407 137.965 C 224.477 136.470, 210.987 136.867, 207 138.594 M 254.960 139.886 C 252.543 142.303, 251.940 143.684, 252.186 146.237 C 252.412 148.590, 252.918 149.374, 254 149.048 C 254.825 148.800, 258.220 148.428, 261.545 148.222 C 266.452 147.918, 268.052 148.221, 270.045 149.833 C 272.458 151.785, 272.508 152.138, 273 170.659 L 273.500 189.500 278.187 189.802 C 285.012 190.242, 285.264 189.398, 284.803 167.641 C 284.372 147.290, 283.534 143.944, 277.863 139.899 C 275.112 137.937, 273.002 137.436, 266.275 137.148 C 258.216 136.804, 257.987 136.859, 254.960 139.886 M 299.334 139.064 C 293.944 141.732, 291.593 146.410, 292.243 153.173 C 292.893 159.944, 295.416 162.297, 308.817 168.635 C 319.523 173.698, 320.117 174.136, 319.817 176.744 C 319.541 179.142, 318.916 179.611, 315 180.354 C 311.937 180.935, 307.786 180.735, 302 179.727 C 292.333 178.044, 291 178.513, 291 183.599 C 291 188.036, 293.609 189.668, 302.781 190.969 C 310.310 192.037, 321.028 191.126, 324.820 189.096 C 332.814 184.818, 334.133 172.289, 327.272 165.791 C 325.748 164.347, 320 161.202, 314.500 158.804 C 305.056 154.684, 304.500 154.277, 304.500 151.471 L 304.500 148.500 312.267 148.208 C 316.539 148.047, 321.545 148.333, 323.393 148.843 C 328.056 150.130, 329.187 149.099, 328.815 143.901 C 328.526 139.870, 328.206 139.400, 325 138.306 C 323.075 137.650, 317.450 137.088, 312.500 137.057 C 305.345 137.013, 302.646 137.424, 299.334 139.064 M 121.058 139.430 C 120.405 140.217, 120.012 142.579, 120.185 144.680 L 120.500 148.500 127.135 148.793 C 134.301 149.110, 137 147.760, 137 143.863 C 137 139.183, 135.302 138, 128.587 138 C 124.307 138, 121.859 138.465, 121.058 139.430" stroke="none" fill="#2077b1" fill-rule="evenodd"/></svg>