<svg version="1.1" id="swisscom_logo" xmlns="http://www.w3.org/2000/svg" xmlns:xlink="http://www.w3.org/1999/xlink" x="0px" y="0px" viewBox="0 0 377.8 102" style="enable-background:new 0 0 377.8 102;" xml:space="preserve">
 <style type="text/css">
  .st0{fill:#001155;}
	.st1{fill:#FFFFFF;}
	.st2{fill:url(#SVGID_1_);}
	.st3{fill:url(#SVGID_2_);}
	.st4{fill:url(#SVGID_3_);}
	.st5{fill:url(#SVGID_4_);}
	.st6{fill:url(#SVGID_5_);}
	.st7{fill:url(#SVGID_6_);}
	.st8{fill:url(#SVGID_7_);}
 </style>
 <g>
  <path class="st0" d="M247.7,40.7c-2.4-0.9-5-1.4-7.6-1.6c-2.9,0-5.2,0.8-5.2,3.4c0,6.2,16.1,2.4,16.1,15.2c0,8.7-7,12-15,12
		c-3.6,0-7.2-0.5-10.6-1.6l0.6-7.6c3.1,1,6.4,1.6,9.6,1.8c3.1,0,5.6-1,5.6-3.7c0-6.7-16-2.4-16-15.2c0-8,6.7-11.3,14.2-11.3
		c3.4,0,6.8,0.5,10.1,1.6L247.7,40.7z M218.4,40.7c-2.4-0.9-5-1.4-7.6-1.6c-2.9,0-5.2,0.8-5.2,3.4c0,6.2,16.1,2.4,16.1,15.2
		c0,8.7-7.1,12-15,12c-3.6,0-7.3-0.5-10.8-1.6l0.7-7.6c3.1,1,6.4,1.6,9.7,1.8c3,0,5.5-1,5.5-3.7c0-6.7-16.1-2.4-16.1-15.2
		c0-8,6.8-11.3,14.2-11.3c3.5,0,6.9,0.5,10.2,1.6L218.4,40.7z M366.7,32.2c7,0,11.1,3.8,11.1,12V69h-9.3V46.2c0-3.7-1.1-6.2-5-6.2
		s-7.4,3.5-7.4,9.7v19.4h-9.1V46.2c0-3.5-1.1-6.2-5.1-6.2c-4.1,0-7.4,3.8-7.4,10.1v19H325V33c6.2-0.8,8.5,1.8,8.8,5.8
		c2.2-4.1,6.6-6.7,11.3-6.6c6.5,0,9.1,3.6,10,7C356.6,35.6,360.6,32.2,366.7,32.2L366.7,32.2z M176.9,33c-2,10.7-7.2,27.6-10.4,36.1
		h-9.8l-6.9-24h-0.1l-6.9,24h-9.8c-3.1-8.4-8.8-25.8-10.5-36.1h9.3l6.1,24.8h0.1l7.3-24.8h9.3l7.1,24.6h0.1l6.2-24.6H176.9z
		 M116.9,40.7c-2.4-0.9-5-1.4-7.6-1.6c-2.9,0-5.1,0.8-5.1,3.4c0,6.2,16,2.4,16,15.2c0,8.7-7.1,12-15,12c-3.6,0-7.2-0.5-10.6-1.6
		l0.6-7.6c3.1,1,6.4,1.6,9.7,1.8c3.1,0,5.6-1,5.6-3.7c0-6.7-16-2.4-16-15.2c0-8,6.7-11.3,14.2-11.3c3.4,0,6.8,0.5,10.1,1.6
		L116.9,40.7z M302,69.8c-10.3,0-17.4-5.6-17.4-18.2c0-11.3,7.6-19.4,18.5-19.4c10.2,0,16.8,5.7,16.8,18
		C319.9,62,312.7,69.8,302,69.8L302,69.8z M302.4,40.2c-4.1,0-8.1,3.1-8.1,11c0,6.9,2.6,10.7,8,10.7c4.6,0,8.1-3.7,8.1-11
		C310.4,43.9,307.9,40.2,302.4,40.2L302.4,40.2z M181.1,69.1h9.3V33c-4.4-0.4-9.3,0.8-9.3,7.6V69.1z M186.2,28.5
		c3.2,0.1,5.9-2.4,6-5.6c0,0,0-0.1,0-0.1c-0.1-3.2-2.8-5.7-6.1-5.6c-3,0.1-5.5,2.6-5.6,5.6C180.5,25.8,183,28.4,186.2,28.5z
		 M272.5,69.7c-10.7,0-17.7-5.3-17.7-18.1c0-10.8,6-19.2,19.1-19.2c3,0,6,0.5,8.8,1.5l-2,7.6c-2.1-0.8-4.3-1.3-6.5-1.3
		c-6.7,0-9.5,4.4-9.5,11c0,6.4,2.5,10.7,9.1,10.7c2.5,0,5-0.6,7.3-1.6l1.1,7.4C280.5,68.8,276.6,69.7,272.5,69.7L272.5,69.7z">
  </path>
  <path class="st1" d="M34.1,26.2L34.1,26.2c-2.3,0.3-4.3,1.8-5.2,4c-0.9,2.1-1.4,4.3-2.8,6.2c-2.8,3.8-10.1,2.9-11.2,8.2
		c-1.6,7.7,8.4,9.4,11.4,14.8c2.2,4,1.1,10.1,5.3,12.9c0.6,0.4,1.3,0.7,2.1,0.9c0.1,0,0.3,0.1,0.4,0.1L34.1,26.2z">
  </path>
  <linearGradient id="SVGID_1_" gradientUnits="userSpaceOnUse" x1="32.7179" y1="314.9584" x2="23.2879" y2="278.9784" gradientTransform="matrix(1 0 0 1 0 -223)">
   <stop offset="0" style="stop-color:#350706">
   </stop>
   <stop offset="0.36" style="stop-color:#3F0808">
   </stop>
   <stop offset="0.98" style="stop-color:#5B0C0E">
   </stop>
   <stop offset="1" style="stop-color:#5C0C0E">
   </stop>
  </linearGradient>
  <path class="st2" d="M34.1,73.3l-0.4-0.1c-0.7-0.2-1.4-0.5-2.1-0.9c-4.1-2.8-3.1-9-5.2-12.9c-0.8-1.3-1.8-2.4-3-3.3L23.3,56
		c-0.5,0.5-1.2,1.2-2.3,2.4c-0.9,0.9-1.7,1.9-2.5,2.9l0,0c2.7,2.7,4.9,5.8,6.6,9.2c2,4.5,2.5,9.4,4.1,14c0.5,1.7,1.3,3.4,2.3,4.9
		c0.7,1,1.6,1.7,2.7,2.2L34.1,73.3L34.1,73.3z">
  </path>
  <radialGradient id="SVGID_2_" cx="33.8439" cy="242.4621" r="20.17" gradientTransform="matrix(1 0 0 1 0 -223)" gradientUnits="userSpaceOnUse">
   <stop offset="0" style="stop-color:#003789">
   </stop>
   <stop offset="1" style="stop-color:#5FC7FF;stop-opacity:0.98">
   </stop>
  </radialGradient>
  <path class="st3" d="M29.2,16.4c0.4,0.5,1,1.1,1.5,1.6s1.2,1.2,1.9,1.9c0.4,0.4,1,1,1.5,1.4V0.1C33.5,0,33,0,32.5,0
		c-1.3,0.1-2.5,0.3-3.7,0.8c-1.1,0.4-2,0.9-2.9,1.6c-1,0.8-1.7,1.9-1.9,3.1c-0.3,1.7,0,3.5,0.8,5c0.5,1.1,1.1,2.1,1.8,3
		c0,0,0.5,0.6,0.8,0.9C28,15,28.6,15.7,29.2,16.4z">
  </path>
  <radialGradient id="SVGID_3_" cx="47.3739" cy="239.7321" r="24.08" gradientTransform="matrix(1 0 0 1 0 -223)" gradientUnits="userSpaceOnUse">
   <stop offset="0" style="stop-color:#EC0A1C">
   </stop>
   <stop offset="1" style="stop-color:#BB0E15">
   </stop>
  </radialGradient>
  <path class="st4" d="M62.9,32.7c-0.2-3.2-1.1-6.3-2.4-9.3c-1.2-2.5-2.8-4.8-4.7-6.8c-0.2-0.2-0.4-0.4-0.6-0.6c-1.1-1-2.3-2-3.6-2.8
		c-1.2-0.8-2.6-1.5-3.9-2.1c-2.3-0.9-4.6-1.5-7.1-1.8c-2.2-0.3-4.5,0.1-6.6,1v10.7l0,0c1.2,1.1,2.6,2.4,3.4,3.1
		c0.5,0.5,1,0.9,1.5,1.3l1.5,1.2l1.5,1.3c0.6,0.5,2.9,2.4,3.2,2.6l0.4,0.4l5.8,4.7l0.1,0.1c0.8,0.6,4.8,3.9,6.8,5.6s3.4,3,3.6,3.2
		c0.4-1.8,0.7-3.5,0.9-5.3C63,37.1,63.1,34.9,62.9,32.7z">
  </path>
  <radialGradient id="SVGID_4_" cx="69.5939" cy="274.0321" r="41.36" gradientTransform="matrix(1 0 0 1 0 -223)" gradientUnits="userSpaceOnUse">
   <stop offset="0" style="stop-color:#5BC0FF;stop-opacity:0.98">
   </stop>
   <stop offset="1" style="stop-color:#003789">
   </stop>
  </radialGradient>
  <path class="st5" d="M75.5,63.8c-0.7-2.6-1.8-5.1-3.3-7.4c-2.1-3.2-4.5-6.1-7.3-8.8c-1-1-2-1.9-3-2.8c-0.1,0.4-0.3,1.5-0.8,3.2
		c-0.3,0.8-0.7,2.2-0.9,2.8c-0.3,0.8-0.8,2.2-1.1,3c-0.5,1.2-1.2,3-1.9,4.5c-1,2.1-1.5,3.1-2.6,5.1C54,64.1,53.6,64.9,53,66
		c-0.2,0.4-0.4,0.7-0.7,1.2c-0.1,0.2-1.4,2.2-1.5,2.4c-0.2,0.4-0.5,0.8-0.7,1.1c-1.5,2.3-1.6,2.4-1.9,2.8c-0.6,0.8,0.2-0.3-0.9,1.2
		l-2.5,3.5c-0.4,0.5-1.6,2.2-3,3.9s-2.8,3.6-3.4,4.3L34,91.6V102c1.9-0.1,3.8-0.4,5.8-0.8c2.5-0.5,5.1-1.1,7.5-1.9
		c2.2-0.7,4.3-1.5,6.4-2.4c1.9-0.8,3.7-1.7,5.5-2.8c2.3-1.3,4.4-2.8,6.4-4.5c2.3-1.9,4.2-4.1,5.9-6.5c1.7-2.5,3-5.4,3.8-8.3
		c0.4-1.7,0.7-3.5,0.8-5.2C76.2,67.7,76,65.7,75.5,63.8z">
  </path>
  <radialGradient id="SVGID_5_" cx="16.9739" cy="290.6021" r="27.02" gradientTransform="matrix(1 0 0 1 0 -223)" gradientUnits="userSpaceOnUse">
   <stop offset="0" style="stop-color:#42B4F3;stop-opacity:0.98">
   </stop>
   <stop offset="1" style="stop-color:#003A80">
   </stop>
  </radialGradient>
  <path class="st6" d="M31.4,89.4c-1-1.5-1.8-3.1-2.3-4.9c-1.6-4.7-2.1-9.6-4.1-14c-1.7-3.4-3.9-6.5-6.6-9.2
		c-0.7,0.9-1.3,1.9-1.9,2.9c-0.5,0.9-1,1.9-1.3,2.8c-0.2,0.6-0.3,1.1-0.4,1.7c-0.1,0.6-0.2,1.2-0.2,1.8c0,0.8,0,1.6,0.1,2.3
		c0.1,0.9,0.4,1.7,0.6,2.5c0.4,1,0.9,2,1.4,3l0.2,0.4c1.2,1.9,2.6,3.6,4.3,5.1c0.9,0.9,1.9,1.7,2.9,2.4c0.7,0.5,1.4,1,2.1,1.4
		c1,0.6,1.9,1.2,2.9,1.7c1.4,0.7,3.5,1.7,4.9,2.2l0,0C33,91.1,32.1,90.4,31.4,89.4z">
  </path>
  <radialGradient id="SVGID_6_" cx="51.6439" cy="258.2821" r="47.74" gradientTransform="matrix(1 0 0 1 0 -223)" gradientUnits="userSpaceOnUse">
   <stop offset="0" style="stop-color:#5FC7FF">
   </stop>
   <stop offset="1" style="stop-color:#003785;stop-opacity:0.98">
   </stop>
  </radialGradient>
  <path class="st7" d="M61.9,44.7c-0.1-0.1-1.8-1.6-3.6-3.2s-6-4.9-6.8-5.6l-0.1-0.1l-5.8-4.7c-0.2-0.2-0.4-0.3-0.4-0.4
		c-0.3-0.2-2.6-2.1-3.2-2.6l-1.6-1.3L39,25.7c-0.5-0.4-1-0.9-1.5-1.3c-0.7-0.6-2.2-2-3.4-3.1l0,0c-0.5-0.4-1-1-1.5-1.4
		c-0.7-0.7-1.3-1.3-1.9-1.9s-1.1-1.1-1.5-1.6c-0.6-0.7-1.2-1.3-1.7-2l-0.6-0.7l0,0c0.3,0.6,1.1,1.6,1.4,2.1c1,1.5,0.8,1.2,1.8,2.7
		c0.7,1,1.8,2.9,2.5,3.9c0.1,0.1,0.2,0.3,0.2,0.4c0.4,0.7,0.7,1.5,1,2.2c0.1,0.4,0.2,0.7,0.2,1.1l0,0c0,0,0,47,0,47.1l0,0v18.3
		l4.4-5.2c0.6-0.8,2.1-2.6,3.4-4.3s2.6-3.3,3-3.9l2.5-3.6c1.1-1.5,0.3-0.4,0.9-1.2c0.2-0.3,0.4-0.4,1.9-2.8l0.7-1.1
		c0.1-0.2,1.4-2.3,1.5-2.4c0.3-0.4,0.5-0.8,0.7-1.2c0.6-1.1,1-1.9,1.5-2.8c1.1-2,1.6-3,2.6-5.1c0.7-1.5,1.4-3.2,1.9-4.5
		c0.3-0.9,0.9-2.3,1.1-3c0.2-0.5,0.7-1.9,0.9-2.8C61.6,46.2,61.9,45.1,61.9,44.7L61.9,44.7L61.9,44.7z">
  </path>
  <radialGradient id="SVGID_7_" cx="10.3639" cy="249.0721" r="55.18" gradientTransform="matrix(1 0 0 1 0 -223)" gradientUnits="userSpaceOnUse">
   <stop offset="0" style="stop-color:#EC0A1C">
   </stop>
   <stop offset="1" style="stop-color:#9E0D18">
   </stop>
  </radialGradient>
  <path class="st8" d="M18.4,61.3c0.8-1,1.6-2,2.5-2.9c1.2-1.2,1.9-1.9,2.3-2.4c-4-3.2-9.5-5.5-8.3-11.4c1.1-5.3,8.4-4.4,11.2-8.2
		c1.3-1.8,1.8-4.1,2.8-6.2c0.9-2.2,2.9-3.7,5.2-4l0,0c0-0.4-0.1-0.8-0.2-1.1c-0.3-0.8-0.6-1.5-1-2.2c-0.1-0.1-0.1-0.3-0.2-0.4
		c-0.6-1-1.8-2.9-2.5-3.9c-1-1.5-0.8-1.2-1.8-2.7c-0.4-0.5-1.1-1.6-1.5-2.2l0,0c-0.1-0.1-0.1-0.1-0.2-0.2c-0.7-0.9-1.3-1.9-1.8-3
		l-0.3-0.6l-3.2,2.4c-2.6,1.9-5.1,3.7-7.6,5.7c-1.6,1.3-3.2,2.6-4.8,4c-1.5,1.4-2.9,2.8-4.3,4.4c-2.5,3-4.4,6.4-4.7,10.2
		c0,0.6,0,1.3,0,1.9c0,0.7,0.1,1.3,0.3,2c0.5,2.3,1.5,4.5,2.9,6.4c1.6,2.1,3.5,4,5.5,5.7l1,0.9c2.3,2,4.7,4,7,6.2
		c0.6,0.6,1.2,1.2,1.9,1.9L18.4,61.3L18.4,61.3z">
  </path>
 </g>
</svg>