<?xml version="1.0" encoding="UTF-8"?><svg id="Capa_1" xmlns="http://www.w3.org/2000/svg" viewBox="0 0 1199.9 293.99"><defs><style>.cls-1{fill:#3670f2;}.cls-1,.cls-2{stroke-width:0px;}.cls-2{fill:#fff;}</style></defs><path class="cls-1" d="m78.35,205.79c-6.94-2.93-12.2-6.78-15.78-11.55-3.58-4.77-5.48-9.97-5.69-15.61,0-.87.32-1.65.98-2.36.65-.7,1.46-1.06,2.44-1.06h14.8c1.19,0,2.17.27,2.93.81.76.54,1.46,1.3,2.11,2.28,1.08,3.69,3.55,6.78,7.4,9.27,3.85,2.5,9.13,3.74,15.86,3.74,7.59,0,13.31-1.27,17.16-3.82,3.85-2.55,5.77-6.04,5.77-10.49,0-2.93-.98-5.37-2.93-7.32-1.95-1.95-4.91-3.66-8.86-5.12-3.96-1.46-9.84-3.22-17.65-5.29-12.8-3.03-22.17-7.05-28.14-12.03-5.96-4.99-8.94-12.14-8.94-21.47,0-6.29,1.73-11.9,5.2-16.83,3.47-4.93,8.43-8.81,14.88-11.63,6.45-2.82,13.96-4.23,22.53-4.23,9,0,16.78,1.57,23.34,4.72,6.56,3.15,11.55,7.08,14.96,11.79,3.42,4.72,5.23,9.41,5.45,14.07,0,.87-.32,1.65-.98,2.36-.65.71-1.46,1.06-2.44,1.06h-15.45c-2.39,0-4.01-.98-4.88-2.93-.54-3.47-2.66-6.37-6.34-8.7-3.69-2.33-8.24-3.5-13.66-3.5-5.96,0-10.65,1.14-14.07,3.42-3.42,2.28-5.12,5.59-5.12,9.92,0,2.93.87,5.37,2.6,7.32,1.73,1.95,4.44,3.66,8.13,5.12,3.68,1.46,9.05,3.12,16.1,4.96,9.65,2.17,17.32,4.61,23.01,7.32,5.69,2.71,9.89,6.13,12.6,10.25,2.71,4.12,4.07,9.38,4.07,15.78,0,7.05-1.93,13.15-5.77,18.3-3.85,5.15-9.27,9.08-16.26,11.79-6.99,2.71-15.1,4.07-24.31,4.07-9.76,0-18.11-1.46-25.05-4.39Z"/><path class="cls-1" d="m178.94,238.48c-.71-.65-1.06-1.41-1.06-2.28,0-.76.22-1.63.65-2.6l12.85-30.09-31.23-73.67c-.43-.98-.65-1.73-.65-2.28.11-.98.49-1.81,1.14-2.52.65-.7,1.46-1.06,2.44-1.06h13.5c1.95,0,3.36,1.03,4.23,3.09l21.63,53.02,21.96-53.02c1.08-2.06,2.6-3.09,4.55-3.09h13.17c.98,0,1.79.33,2.44.98.65.65.98,1.41.98,2.28,0,.76-.22,1.63-.65,2.6l-46.03,106.53c-.87,2.06-2.39,3.09-4.55,3.09h-13.01c-.87,0-1.65-.33-2.36-.98Z"/><path class="cls-1" d="m260.66,207.41c-.76-.76-1.14-1.68-1.14-2.76v-76.76c0-1.19.38-2.14,1.14-2.85.76-.7,1.68-1.06,2.76-1.06h12.85c1.19,0,2.14.35,2.85,1.06.7.71,1.06,1.65,1.06,2.85v5.53c5.85-7.37,13.71-11.06,23.58-11.06,12.03,0,20.44,4.83,25.21,14.47,2.6-4.33,6.29-7.83,11.06-10.49,4.77-2.66,9.92-3.98,15.45-3.98,8.89,0,16.15,3.04,21.79,9.11,5.64,6.07,8.46,14.91,8.46,26.51v46.68c0,1.08-.35,2.01-1.06,2.76-.71.76-1.65,1.14-2.85,1.14h-13.5c-1.09,0-2.01-.38-2.77-1.14-.76-.76-1.14-1.68-1.14-2.76v-45.38c0-6.83-1.44-11.76-4.31-14.8-2.87-3.03-6.64-4.55-11.3-4.55-4.23,0-7.83,1.55-10.82,4.64-2.98,3.09-4.47,8-4.47,14.72v45.38c0,1.08-.35,2.01-1.06,2.76-.71.76-1.65,1.14-2.85,1.14h-13.66c-1.08,0-2.01-.38-2.76-1.14-.76-.76-1.14-1.68-1.14-2.76v-45.38c0-6.72-1.46-11.63-4.39-14.72-2.93-3.09-6.67-4.64-11.22-4.64-4.23,0-7.83,1.55-10.82,4.64-2.98,3.09-4.47,8-4.47,14.72v45.38c0,1.08-.35,2.01-1.06,2.76-.71.76-1.65,1.14-2.85,1.14h-13.82c-1.09,0-2.01-.38-2.76-1.14Z"/><path class="cls-1" d="m407.68,238.4c-.76-.71-1.14-1.65-1.14-2.85v-107.66c0-1.19.38-2.14,1.14-2.85.76-.7,1.68-1.06,2.77-1.06h13.01c1.19,0,2.17.38,2.93,1.14.76.76,1.14,1.68,1.14,2.76v6.51c5.75-8.02,14.37-12.04,25.86-12.04s19.35,3.44,25.21,10.33c5.85,6.89,9,16.13,9.43,27.73.11,1.3.16,3.25.16,5.85s-.06,4.55-.16,5.85c-.32,11.38-3.44,20.57-9.35,27.57-5.91,6.99-14.34,10.49-25.29,10.49s-19.14-3.85-24.88-11.55v36.92c0,1.19-.35,2.14-1.06,2.85-.71.7-1.65,1.06-2.85,1.06h-14.15c-1.09,0-2.01-.35-2.77-1.06Zm58.06-67.25c.11-1.08.16-2.71.16-4.88s-.06-3.79-.16-4.88c-.76-14.31-6.94-21.47-18.54-21.47-6.18,0-10.79,2.01-13.82,6.02-3.04,4.01-4.66,8.89-4.88,14.64-.11,1.3-.16,3.36-.16,6.18s.05,4.94.16,6.34c.22,5.42,1.9,10.03,5.04,13.82,3.14,3.8,7.7,5.69,13.66,5.69,11.6,0,17.78-7.16,18.54-21.47Z"/><path class="cls-1" d="m507.54,207.41c-.76-.76-1.14-1.68-1.14-2.76v-107.67c0-1.19.38-2.14,1.14-2.85.76-.7,1.68-1.06,2.77-1.06h14.8c1.19,0,2.14.35,2.85,1.06.7.71,1.06,1.65,1.06,2.85v37.08c6.51-7.81,15.23-11.71,26.18-11.71,9.97,0,17.94,3.28,23.91,9.84,5.96,6.56,8.95,15.48,8.95,26.75v45.7c0,1.08-.35,2.01-1.06,2.76-.71.76-1.66,1.14-2.85,1.14h-14.8c-1.2,0-2.17-.38-2.93-1.14-.76-.76-1.14-1.68-1.14-2.76v-44.73c0-6.29-1.54-11.19-4.63-14.72-3.09-3.52-7.51-5.29-13.26-5.29s-9.98,1.79-13.34,5.37c-3.36,3.58-5.04,8.46-5.04,14.64v44.73c0,1.08-.35,2.01-1.06,2.76-.71.76-1.65,1.14-2.85,1.14h-14.8c-1.09,0-2.01-.38-2.77-1.14Z"/><path class="cls-1" d="m616.67,200.42c-6.94-6.51-10.68-15.5-11.22-27l-.16-7.16.16-7.16c.54-11.38,4.33-20.35,11.38-26.92,7.05-6.56,16.86-9.84,29.44-9.84s22.22,3.28,29.27,9.84c7.05,6.56,10.84,15.53,11.38,26.92.11,1.3.16,3.69.16,7.16s-.05,5.85-.16,7.16c-.54,11.49-4.28,20.49-11.22,27-6.94,6.5-16.75,9.76-29.44,9.76s-22.66-3.25-29.6-9.76Zm42.85-12.04c3.09-3.58,4.74-8.84,4.96-15.78.11-1.08.16-3.2.16-6.34s-.06-5.26-.16-6.34c-.22-6.94-1.9-12.22-5.04-15.86-3.15-3.63-7.54-5.45-13.17-5.45s-10.19,1.82-13.34,5.45c-3.15,3.63-4.83,8.92-5.04,15.86l-.16,6.34.16,6.34c.22,6.94,1.9,12.2,5.04,15.78,3.14,3.58,7.59,5.37,13.34,5.37s10.16-1.79,13.25-5.37Z"/><path class="cls-1" d="m706.28,207.41c-.76-.76-1.14-1.68-1.14-2.76v-76.76c0-1.19.38-2.14,1.14-2.85.76-.7,1.68-1.06,2.76-1.06h13.5c1.19,0,2.14.35,2.85,1.06.7.71,1.06,1.65,1.06,2.85v6.67c6.61-8.13,15.67-12.2,27.16-12.2,9.97,0,17.89,3.25,23.75,9.76,5.85,6.51,8.78,15.45,8.78,26.84v45.7c0,1.08-.35,2.01-1.06,2.76-.71.76-1.65,1.14-2.85,1.14h-14.64c-1.08,0-2.01-.38-2.76-1.14-.76-.76-1.14-1.68-1.14-2.76v-44.73c0-6.29-1.55-11.19-4.64-14.72-3.09-3.52-7.51-5.29-13.26-5.29s-9.98,1.79-13.33,5.37c-3.36,3.58-5.04,8.46-5.04,14.64v44.73c0,1.08-.35,2.01-1.06,2.76-.71.76-1.65,1.14-2.85,1.14h-14.47c-1.08,0-2.01-.38-2.76-1.14Z"/><path class="cls-1" d="m807.28,109.02c-.76-.76-1.14-1.68-1.14-2.76v-11.87c0-1.19.38-2.17,1.14-2.93.76-.76,1.68-1.14,2.76-1.14h14.96c1.19,0,2.17.38,2.93,1.14.76.76,1.14,1.74,1.14,2.93v11.87c0,1.08-.41,2.01-1.22,2.76-.81.76-1.76,1.14-2.85,1.14h-14.96c-1.08,0-2.01-.38-2.76-1.14Zm.65,98.4c-.76-.76-1.14-1.68-1.14-2.76v-76.76c0-1.19.38-2.14,1.14-2.85.76-.7,1.68-1.06,2.76-1.06h13.82c1.08,0,2.01.38,2.76,1.14.76.76,1.14,1.68,1.14,2.76v76.76c0,1.08-.38,2.01-1.14,2.76-.76.76-1.68,1.14-2.76,1.14h-13.82c-1.08,0-2.01-.38-2.76-1.14Z"/><path class="cls-1" d="m857.94,200.26c-7.1-6.61-10.87-15.78-11.3-27.49l-.16-6.51.16-6.51c.43-11.71,4.2-20.87,11.3-27.49,7.1-6.61,16.61-9.92,28.54-9.92,8.56,0,15.8,1.52,21.71,4.55,5.91,3.04,10.3,6.75,13.17,11.14,2.87,4.39,4.42,8.59,4.64,12.6.11,1.08-.24,2.01-1.06,2.76-.81.76-1.76,1.14-2.85,1.14h-14.47c-1.19,0-2.06-.24-2.6-.73-.54-.49-1.08-1.38-1.62-2.68-1.63-4.12-3.77-7.1-6.42-8.94-2.66-1.84-6.05-2.76-10.16-2.76-5.53,0-9.84,1.74-12.93,5.2-3.09,3.47-4.75,8.78-4.96,15.94l-.16,6.02.16,5.37c.65,14.1,6.61,21.14,17.89,21.14,4.23,0,7.64-.9,10.25-2.68,2.6-1.79,4.72-4.8,6.34-9.03.43-1.19.95-2.06,1.54-2.6.59-.54,1.49-.81,2.68-.81h14.47c1.08,0,2.03.38,2.85,1.14.81.76,1.16,1.68,1.06,2.76-.22,3.8-1.74,7.89-4.55,12.28-2.82,4.39-7.16,8.16-13.01,11.3-5.85,3.14-13.17,4.72-21.96,4.72-11.93,0-21.44-3.31-28.54-9.92Z"/><path class="cls-1" d="m952.27,206.85c-4.61-2.22-8.24-5.23-10.9-9.03-2.66-3.79-3.99-7.97-3.99-12.52,0-7.37,2.98-13.34,8.95-17.89,5.96-4.55,14.15-7.64,24.56-9.27l22.28-3.25v-3.42c0-4.66-1.19-8.19-3.58-10.57-2.39-2.38-6.18-3.58-11.38-3.58-3.58,0-6.45.65-8.62,1.95-2.17,1.3-3.93,2.63-5.29,3.98-1.36,1.36-2.25,2.25-2.68,2.68-.44,1.3-1.25,1.95-2.44,1.95h-12.69c-.98,0-1.82-.33-2.52-.98-.71-.65-1.06-1.52-1.06-2.6.11-2.71,1.44-5.77,3.98-9.19,2.55-3.42,6.48-6.4,11.79-8.95,5.31-2.55,11.87-3.82,19.68-3.82,12.79,0,22.12,2.87,27.97,8.62,5.85,5.75,8.78,13.28,8.78,22.61v51.07c0,1.08-.35,2.01-1.06,2.76-.71.76-1.65,1.14-2.85,1.14h-13.5c-1.08,0-2.01-.38-2.76-1.14-.76-.76-1.14-1.68-1.14-2.76v-6.34c-2.39,3.47-5.75,6.32-10.08,8.54-4.34,2.22-9.76,3.33-16.26,3.33-5.53,0-10.6-1.11-15.21-3.33Zm35.37-18.13c3.79-3.9,5.69-9.54,5.69-16.91v-3.25l-16.26,2.6c-12.47,1.95-18.7,6.13-18.7,12.52,0,3.47,1.44,6.16,4.31,8.05,2.87,1.9,6.32,2.85,10.33,2.85,5.96,0,10.84-1.95,14.64-5.85Z"/><path class="cls-1" d="m1143.84,106.88c0-7.35-3.1-13.98-8.05-18.66.26-1.47.41-2.98.41-4.53,0-14.18-11.49-25.67-25.67-25.67-2.4,0-4.73.34-6.93.96-4.32-3.3-9.71-5.27-15.57-5.27s-11.45,2.04-15.81,5.45c-2.4-.74-4.95-1.14-7.6-1.14-14.18,0-25.67,11.49-25.67,25.67,0,1.55.14,3.06.41,4.53-4.95,4.68-8.05,11.3-8.05,18.66s3.1,13.98,8.05,18.66c-.26,1.47-.41,2.98-.41,4.53,0,14.18,11.49,25.67,25.67,25.67,2.25,0,4.43-.29,6.5-.83,4.52,3.96,10.43,6.36,16.9,6.36s12.22-2.34,16.71-6.19c1.86.43,3.8.66,5.79.66,14.18,0,25.67-11.49,25.67-25.67,0-1.55-.14-3.06-.41-4.53,4.95-4.68,8.05-11.3,8.05-18.66Z"/><path class="cls-2" d="m1115.75,95.53c0,1.39-1.14,2.53-2.53,2.53h-12.79c-1.39,0-2.53-1.14-2.53-2.53v-2.93c0-3.93-3.22-7.15-7.15-7.15h-.47s-3.9,0-3.9,0h0s-.47,0-.47,0c-3.93,0-7.15,3.22-7.15,7.15v.81c0,.36.05.76.07.91.02.16.11.47.11.47.56,2.15,2.09,3.9,4.1,4.77l15.53,6.21c1.7.68,3.56,1.06,5.5,1.06h.41,0s8.81,0,8.81,0c1.35,0,2.46,1.11,2.46,2.46v12.33c0,1.35-1.11,2.46-2.46,2.46h-9.99s-.68,0-.68,0c-1.95,0-3.81.38-5.52,1.07l-16.74,6.69s0,0,0,0c-1.01.39-1.9.99-2.64,1.76h-.02c-.58.53-1.34.86-2.18.86h-12.14c-1.35,0-2.46-1.11-2.46-2.46v-12.33c0-1.35,1.11-2.46,2.46-2.46h12.93c1.35,0,2.46,1.11,2.46,2.46v1.87h0c0,.06,0,.13,0,.2,0,2.32,1.88,4.2,4.2,4.2.57,0,1.11-.11,1.6-.32h0s10.89-4.36,10.89-4.36h0c1.44-.67,2.44-2.13,2.44-3.82v-4.66h0c-.04-1.75-1.14-3.23-2.69-3.83l-19.74-7.9c-2.03-.8-3.57-1.3-5.63-1.34h-6.4c-1.39,0-2.53-1.14-2.53-2.53v-13.44c0-1.39,1.14-2.53,2.53-2.53h49.78c1.39,0,2.53,1.14,2.53,2.53v11.76Z"/></svg>