<?xml version="1.0" encoding="utf-8"?>
<!-- Generator: Adobe Illustrator 27.3.1, SVG Export Plug-In . SVG Version: 6.00 Build 0)  -->
<svg version="1.1" id="tata_elxsi_with_tata_gcm" xmlns="http://www.w3.org/2000/svg" xmlns:xlink="http://www.w3.org/1999/xlink"
	 x="0px" y="0px" viewBox="0 0 302 270" style="enable-background:new 0 0 302 270;" xml:space="preserve">
<style type="text/css">
	.st0{fill:none;}
	.st1{fill-rule:evenodd;clip-rule:evenodd;fill:#3D85C6;}
	.st2{fill:#3D85C6;}
</style>
<rect x="9.27" y="24.45" class="st0" width="283.46" height="221.1"/>
<g>
	<g>
		<polygon class="st1" points="92.66,127.65 120.75,127.65 120.75,136.18 112.71,136.18 112.71,156.73 100.99,156.73 100.99,136.18 
			92.66,136.18 92.66,127.65 92.66,127.65 		"/>
		<polygon class="st1" points="134.98,139.39 129.06,156.73 117.83,156.73 128.86,127.65 141.05,127.65 152.35,156.73 
			140.97,156.73 134.98,139.39 134.98,139.39 		"/>
		<polygon class="st1" points="149.67,127.65 177.76,127.65 177.76,136.18 169.7,136.18 169.7,156.73 157.99,156.73 157.99,136.18 
			149.67,136.18 149.67,127.65 149.67,127.65 		"/>
		<polygon class="st1" points="191.97,139.39 186.06,156.73 174.82,156.73 185.85,127.65 198.04,127.65 209.34,156.73 
			197.96,156.73 191.97,139.39 191.97,139.39 		"/>
	</g>
	<g>
		<path class="st1" d="M192.19,74.24c-1.04-2.05-2.42-4.02-4.13-5.87c-3.85-4.16-9.27-7.6-15.7-9.99
			c-6.47-2.4-13.85-3.67-21.35-3.67c-7.5,0-14.88,1.27-21.36,3.67c-6.42,2.39-11.85,5.84-15.7,9.99c-1.7,1.85-3.08,3.82-4.13,5.87
			c8.36-2.01,22.67-4.69,35.94-4.96c1.28-0.03,2.16,0.37,2.74,1.1c0.72,0.9,0.66,4.11,0.64,5.53l0,0l-0.38,36.94l0,0
			c0.75,0.03,1.51,0.04,2.26,0.04c0.75,0,1.52-0.01,2.26-0.04l0,0l-0.38-36.94l0,0c-0.02-1.42-0.07-4.63,0.64-5.53
			c0.58-0.73,1.47-1.13,2.74-1.1C169.54,69.55,183.83,72.22,192.19,74.24L192.19,74.24L192.19,74.24L192.19,74.24z"/>
		<path class="st1" d="M193.97,79.04c-12.24-2.76-20.4-3.28-28.46-3.73c-7.03-0.39-7.12,2.12-6.41,6.91
			c0.04,0.29,0.1,0.66,0.16,1.09c2.36,13.96,5.29,25.99,5.8,28.01c17.13-3.91,29.49-14.77,29.49-27.54
			C194.54,82.18,194.34,80.6,193.97,79.04L193.97,79.04L193.97,79.04L193.97,79.04z"/>
		<path class="st1" d="M142.92,82.22c0.7-4.78,0.61-7.29-6.41-6.91c-8.08,0.45-16.25,0.96-28.48,3.73
			c-0.38,1.56-0.57,3.15-0.57,4.74c0,5.51,2.25,10.87,6.48,15.45c3.85,4.15,9.28,7.6,15.7,9.99c2.33,0.87,4.78,1.56,7.31,2.12
			c0.47-1.9,3.47-14.18,5.86-28.4C142.86,82.69,142.9,82.43,142.92,82.22L142.92,82.22L142.92,82.22L142.92,82.22z"/>
	</g>
	<g>
		<g>
			<polygon class="st1" points="37.22,185.82 65.31,185.82 65.31,194.35 57.26,194.35 57.26,214.91 45.55,214.91 45.55,194.35 
				37.22,194.35 37.22,185.82 37.22,185.82 			"/>
			<polygon class="st1" points="79.54,197.57 73.62,214.91 62.38,214.91 73.41,185.82 85.61,185.82 96.9,214.91 85.53,214.91 
				79.54,197.57 79.54,197.57 			"/>
			<polygon class="st1" points="94.22,185.82 122.31,185.82 122.31,194.35 114.25,194.35 114.25,214.91 102.54,214.91 
				102.54,194.35 94.22,194.35 94.22,185.82 94.22,185.82 			"/>
			<polygon class="st1" points="136.53,197.57 130.62,214.91 119.38,214.91 130.4,185.82 142.61,185.82 153.9,214.91 142.52,214.91 
				136.53,197.57 136.53,197.57 			"/>
		</g>
		<g>
			<path class="st2" d="M184.56,201.97h-10.91v8.5h12.2v4.36h-17.48v-28.96h16.84v4.32h-11.55v7.5h10.91V201.97z"/>
			<path class="st2" d="M190.49,185.87h5.29v24.51h11.89v4.44h-17.18V185.87z"/>
			<path class="st2" d="M227.17,214.83l-3.12-5.78c-1.25-2.2-2.07-3.76-2.88-5.44h-0.14c-0.67,1.68-1.44,3.24-2.61,5.44l-2.88,5.78
				h-6.07l8.59-14.66l-8.24-14.29h6.05l3.15,5.96c0.94,1.8,1.63,3.23,2.39,4.86h0.08c0.78-1.8,1.38-3.1,2.29-4.86l3.08-5.96h6.06
				l-8.45,14.11l8.81,14.84H227.17z"/>
			<path class="st2" d="M237.06,209.05c1.73,1,4.29,1.85,7.01,1.85c3.4,0,5.29-1.6,5.29-3.94c0-2.19-1.47-3.48-5.14-4.83
				c-4.78-1.72-7.84-4.26-7.84-8.41c0-4.75,3.97-8.31,10.23-8.31c3.15,0,5.45,0.68,6.94,1.45l-1.27,4.23
				c-1.05-0.57-3.04-1.39-5.76-1.39c-3.35,0-4.82,1.82-4.82,3.5c0,2.24,1.69,3.28,5.54,4.76c5.04,1.89,7.49,4.43,7.49,8.62
				c0,4.63-3.55,8.71-11,8.71c-3.06,0-6.24-0.9-7.83-1.85L237.06,209.05z"/>
			<path class="st2" d="M264.78,185.87v28.96h-5.28v-28.96H264.78z"/>
		</g>
	</g>
</g>
</svg>
