<svg xmlns="http://www.w3.org/2000/svg" width="6251" height="2167" viewBox="0 0 6251 2167" version="1.1"><path d="" stroke="none" fill="#2064f4" fill-rule="evenodd"/><path d="M 2033 759 L 2033 1306 2113 1306 L 2193 1306 2193 759 L 2193 212 2113 212 L 2033 212 2033 759 M 5017 759 L 5017 1306 5097 1306 L 5177 1306 5177 759 L 5177 212 5097 212 L 5017 212 5017 759 M 175 303.500 L 175 374 354.500 374 L 534 374 534 840 L 534 1306 615.500 1306 L 697 1306 697 840 L 697 374 876 374 L 1055 374 1055 303.500 L 1055 233 615 233 L 175 233 175 303.500 M 4141 769.500 L 4141 1306 4223 1306 L 4305 1306 4305 1066 L 4305 826 4572 826 L 4839 826 4839 755.500 L 4839 685 4572 685 L 4305 685 4305 529.500 L 4305 374 4587.500 374 L 4870 374 4870 303.500 L 4870 233 4505.500 233 L 4141 233 4141 769.500 M 1465.500 508.628 C 1363.745 516.659, 1288.021 553.304, 1227.096 624 C 1205.417 649.155, 1194.365 664.162, 1180.956 686.653 C 1150.561 737.633, 1133.347 791.102, 1125.310 859.500 C 1122.715 881.577, 1122.727 953.537, 1125.329 976.969 C 1136.573 1078.237, 1167.760 1151.813, 1226.779 1216.309 C 1290.633 1286.091, 1374.528 1322.451, 1482.020 1326.931 C 1606.850 1332.135, 1710.905 1293.758, 1783.865 1215.609 C 1815.462 1181.765, 1840.763 1138.756, 1857.171 1091 C 1860.357 1081.727, 1867 1058.797, 1867 1057.074 C 1867 1056.318, 1843.346 1056, 1787.048 1056 L 1707.096 1056 1703.082 1064.566 C 1692.975 1086.133, 1676.493 1113.298, 1663.988 1129 C 1634.470 1166.061, 1593.611 1186.766, 1535.500 1194.108 C 1520.206 1196.040, 1482.058 1195.776, 1467.550 1193.637 C 1373.372 1179.753, 1316.600 1117.416, 1297.572 1007 C 1295.319 993.924, 1292.004 968.192, 1292.001 963.750 C 1292 962.087, 1306.693 962, 1586.556 962 L 1881.111 962 1880.490 945.750 C 1875.211 807.537, 1844.511 708.943, 1782.328 630.500 C 1771.161 616.413, 1746.503 591.646, 1733 580.955 C 1683.305 541.606, 1624.096 518.684, 1550.890 510.451 C 1537.171 508.908, 1477.966 507.644, 1465.500 508.628 M 2699 509.105 C 2658.824 512.270, 2618.299 521.316, 2585.728 534.389 C 2523.399 559.406, 2472.340 601.327, 2432.127 660.500 C 2391.905 719.684, 2369.185 788.232, 2362.510 870.544 C 2360.770 891.995, 2360.505 940.495, 2362.013 961.500 C 2369.727 1068.944, 2403.403 1152.436, 2466.811 1221.323 C 2535.965 1296.453, 2632.635 1331.851, 2755.257 1326.942 C 2832.264 1323.859, 2896.027 1305.489, 2948.500 1271.267 C 3004.129 1234.987, 3046.382 1177.015, 3072.314 1101.393 C 3080.538 1077.411, 3089.288 1043.541, 3092.503 1023.250 L 3093.176 1019 3013.788 1019 L 2934.401 1019 2933.154 1027.750 C 2925.853 1079.004, 2903.430 1125.281, 2873.189 1151.508 C 2842.416 1178.196, 2805.634 1191.590, 2753.329 1195.153 C 2708.178 1198.229, 2666.773 1189.957, 2634.603 1171.434 C 2592.092 1146.957, 2558.333 1099.775, 2541.135 1040.802 C 2530.442 1004.134, 2525.678 965.978, 2525.678 917 C 2525.678 846.916, 2536.116 794.091, 2558.745 749.656 C 2571.426 724.755, 2592.484 697.776, 2611.832 681.641 C 2649.256 650.433, 2693.508 637.358, 2752.530 640.070 C 2832.413 643.740, 2888.003 677.462, 2914.790 738.500 C 2920.331 751.127, 2924.755 764.354, 2928.502 779.500 L 2931.718 792.500 3010.859 792.756 C 3079.179 792.977, 3090 792.815, 3090 791.573 C 3090 788.012, 3084.636 761.632, 3081.094 747.770 C 3065.752 687.732, 3039.144 637.863, 3002.100 599.715 C 2980.524 577.496, 2961.722 563.689, 2933.500 549.338 C 2887.952 526.176, 2837.650 513.301, 2776 509.025 C 2759.156 507.857, 2714.254 507.904, 2699 509.105 M 3549 509.042 C 3451.847 517.282, 3374.951 551.920, 3313.496 615.125 C 3247.769 682.723, 3213.044 758.950, 3201.261 861.500 C 3199.899 873.360, 3199.538 885.189, 3199.538 918 C 3199.538 950.811, 3199.899 962.640, 3201.261 974.500 C 3211.374 1062.516, 3238.246 1130.164, 3287.441 1191.447 C 3304.203 1212.328, 3333.248 1240.076, 3355.806 1256.759 C 3414.079 1299.854, 3484.700 1323.401, 3566.240 1326.923 C 3700.708 1332.731, 3810.645 1285.300, 3888.962 1187.687 C 3925.432 1142.233, 3951.785 1084.796, 3964.400 1023.272 C 3982.160 936.648, 3976.973 840.237, 3950.388 762.852 C 3918.051 668.724, 3852.668 590.714, 3771.358 549.247 C 3730.202 528.258, 3690.757 516.694, 3639 510.443 C 3623.198 508.534, 3565.563 507.637, 3549 509.042 M 5694 509.042 C 5596.847 517.282, 5519.951 551.920, 5458.496 615.125 C 5392.769 682.723, 5358.044 758.950, 5346.261 861.500 C 5344.899 873.360, 5344.538 885.189, 5344.538 918 C 5344.538 950.811, 5344.899 962.640, 5346.261 974.500 C 5356.374 1062.516, 5383.246 1130.164, 5432.441 1191.447 C 5449.203 1212.328, 5478.248 1240.076, 5500.806 1256.759 C 5559.079 1299.854, 5629.700 1323.401, 5711.240 1326.923 C 5845.708 1332.731, 5955.645 1285.300, 6033.962 1187.687 C 6070.432 1142.233, 6096.785 1084.796, 6109.400 1023.272 C 6127.160 936.648, 6121.973 840.237, 6095.388 762.852 C 6063.051 668.724, 5997.668 590.714, 5916.358 549.247 C 5875.202 528.258, 5835.757 516.694, 5784 510.443 C 5768.198 508.534, 5710.563 507.637, 5694 509.042 M 1491 639.661 C 1428.290 642.123, 1381.060 663.744, 1347.964 705.140 C 1328.294 729.744, 1312.137 763.832, 1303.004 800 C 1300.476 810.013, 1295 837.423, 1295 840.067 C 1295 840.641, 1375.275 841, 1504.012 841 L 1713.024 841 1712.418 836.750 C 1706.479 795.046, 1698.839 768.254, 1684.970 740.500 C 1674.696 719.941, 1666.539 708.512, 1651.020 692.930 C 1624.019 665.820, 1591.667 650.098, 1548.500 643.109 C 1533.341 640.654, 1506.580 639.050, 1491 639.661 M 3571 640.095 C 3526.503 642.467, 3487.404 656.911, 3455.868 682.626 C 3452.221 685.600, 3444.342 693.088, 3438.360 699.267 C 3409.553 729.019, 3387.484 769.002, 3376.108 812.049 C 3359.029 876.676, 3359.151 962.335, 3376.411 1025.140 C 3388.006 1067.331, 3408.898 1104.871, 3437.392 1134.715 C 3468.704 1167.511, 3506.671 1186.748, 3553.712 1193.650 C 3570.104 1196.055, 3604.238 1196.055, 3620 1193.650 C 3668.444 1186.257, 3705.245 1167.395, 3738.504 1132.910 C 3751.821 1119.101, 3760.326 1107.924, 3770.531 1090.821 C 3797.280 1045.988, 3811.056 993.265, 3812.681 929.500 C 3814.936 841.051, 3794.166 769.745, 3750.210 715.032 C 3706.933 661.165, 3646.871 636.050, 3571 640.095 M 5716 640.095 C 5671.503 642.467, 5632.404 656.911, 5600.868 682.626 C 5597.221 685.600, 5589.342 693.088, 5583.360 699.267 C 5554.553 729.019, 5532.484 769.002, 5521.108 812.049 C 5504.029 876.676, 5504.151 962.335, 5521.411 1025.140 C 5533.006 1067.331, 5553.898 1104.871, 5582.392 1134.715 C 5613.704 1167.511, 5651.671 1186.748, 5698.712 1193.650 C 5715.104 1196.055, 5749.238 1196.055, 5765 1193.650 C 5813.444 1186.257, 5850.245 1167.395, 5883.504 1132.910 C 5896.821 1119.101, 5905.326 1107.924, 5915.531 1090.821 C 5942.280 1045.988, 5956.056 993.265, 5957.681 929.500 C 5959.936 841.051, 5939.166 769.745, 5895.210 715.032 C 5851.933 661.165, 5791.871 636.050, 5716 640.095 M 1983 1585.619 C 1687.427 1590.146, 1421.255 1635.947, 1199.798 1720.386 C 1133.546 1745.648, 1063.825 1778.809, 1017 1807.329 C 1002.467 1816.181, 990.717 1824.050, 991.244 1824.577 C 991.467 1824.800, 999.041 1821.894, 1008.075 1818.119 C 1086.497 1785.348, 1199.163 1750.786, 1309.500 1725.653 C 1473.527 1688.289, 1638.019 1667.626, 1817 1661.904 C 1857.992 1660.594, 1971.789 1661.215, 2007.500 1662.945 C 2134.169 1669.080, 2226.435 1678.716, 2358 1699.551 C 2494.870 1721.226, 2620.028 1746.580, 2905 1810.360 C 3154.915 1866.294, 3260.269 1888.380, 3384.697 1910.922 C 3706.865 1969.287, 3970.778 1988.298, 4218 1970.949 C 4436.438 1955.619, 4639.810 1911.176, 4824 1838.519 C 4960.292 1784.757, 5090.125 1711.950, 5184 1636.641 C 5199.887 1623.896, 5223.158 1603.630, 5229 1597.452 L 5233.500 1592.693 5228.500 1595.460 C 5225.750 1596.981, 5217.650 1601.477, 5210.500 1605.449 C 5143.233 1642.823, 5047.496 1685.215, 4954.190 1718.942 C 4738.959 1796.742, 4507.287 1844.188, 4273 1858.449 C 4217.615 1861.820, 4194.634 1862.438, 4124 1862.453 C 4054.261 1862.469, 4036.242 1862.024, 3963 1858.479 C 3746.821 1848.017, 3564.818 1825.638, 3382.417 1787.092 C 3318.059 1773.491, 3280.477 1764.809, 3171.500 1738.366 C 2973.339 1690.282, 2889.433 1672.187, 2769 1651.565 C 2576.910 1618.673, 2322.791 1593.057, 2129 1587.049 C 2093.737 1585.956, 2012.779 1585.163, 1983 1585.619" stroke="none" fill="#1c64f4" fill-rule="evenodd"/></svg>