<?xml version="1.0" encoding="UTF-8"?>
<svg id="Layer_1" data-name="Layer 1" xmlns="http://www.w3.org/2000/svg" viewBox="0 0 1920 802">
  <defs>
    <style>
      .cls-1 {
        fill: #f2f4ff;
      }

      .cls-2 {
        fill: #06f;
      }
    </style>
  </defs>
  <rect class="cls-1" x="-13" y="-15" width="1946" height="832"/>
  <g>
    <g>
      <circle class="cls-2" cx="275.37" cy="277.85" r="52.41"/>
      <circle class="cls-2" cx="398.52" cy="277.85" r="52.41"/>
      <circle class="cls-2" cx="521.67" cy="277.85" r="52.41"/>
      <circle class="cls-2" cx="398.52" cy="401" r="52.41"/>
      <circle class="cls-2" cx="398.52" cy="524.15" r="52.41"/>
    </g>
    <g>
      <path class="cls-2" d="m685.79,360.16h-48.84v-29.07h127.9v29.07h-48.84v133.72h-30.23v-133.72Z"/>
      <path class="cls-2" d="m866.94,458.99c-2.56,9.3-17.21,37.21-54.65,37.21-34.88,0-60.47-25.58-60.47-61.63s25.58-61.63,60.47-61.63c32.56,0,58.14,25.58,58.14,59.3,0,3.49-.47,6.28-.7,8.37l-.47,3.26h-88.37c2.56,16.51,14.88,27.91,31.4,27.91,13.72,0,22.09-7.9,24.42-12.79h30.23Zm-25.58-34.88c-2.56-15.12-12.56-26.75-29.07-26.75-17.67,0-27.91,11.63-31.4,26.75h60.47Z"/>
      <path class="cls-2" d="m887.85,331.09h29.07v162.79h-29.07v-162.79Z"/>
      <path class="cls-2" d="m1049.46,458.99c-2.56,9.3-17.21,37.21-54.65,37.21-34.88,0-60.46-25.58-60.46-61.63s25.58-61.63,60.46-61.63c32.56,0,58.14,25.58,58.14,59.3,0,3.49-.47,6.28-.7,8.37l-.47,3.26h-88.37c2.56,16.51,14.88,27.91,31.4,27.91,13.72,0,22.09-7.9,24.42-12.79h30.23Zm-25.58-34.88c-2.56-15.12-12.56-26.75-29.07-26.75-17.67,0-27.91,11.63-31.4,26.75h60.47Z"/>
      <path class="cls-2" d="m1079.68,403.18h-19.77v-27.91h19.77v-17.44c0-17.67,11.4-29.07,29.07-29.07h25.58v25.58h-17.44c-4.65,0-8.14,3.49-8.14,8.14v12.79h25.58v27.91h-25.58v90.7h-29.07v-90.7Z"/>
      <path class="cls-2" d="m1259.61,434.58c0,36.05-25.58,61.63-60.47,61.63s-60.47-25.58-60.47-61.63,25.58-61.63,60.47-61.63,60.47,25.58,60.47,61.63Zm-29.07,0c0-20.93-13.95-34.88-31.4-34.88s-31.4,13.95-31.4,34.88,13.95,34.88,31.4,34.88,31.4-13.95,31.4-34.88Z"/>
      <path class="cls-2" d="m1277.03,375.28h26.75l2.32,11.63h1.16c2.09-2.56,4.89-4.88,7.91-6.98,5.35-3.49,13.49-6.98,24.65-6.98,26.74,0,46.51,19.77,46.51,50v70.93h-29.07v-68.6c0-15.12-10.46-25.58-25.58-25.58s-25.58,10.46-25.58,25.58v68.6h-29.07v-118.6Z"/>
      <path class="cls-2" d="m1571.36,449.69c-3.72,18.6-18.37,46.51-55.81,46.51-34.88,0-60.46-25.58-60.46-61.63s25.58-61.63,60.46-61.63c37.44,0,52.09,27.91,55.81,45.35h-29.07c-2.56-6.75-9.3-18.6-26.75-18.6s-31.4,13.95-31.4,34.88,13.95,34.88,31.4,34.88,24.19-11.63,26.75-19.77h29.07Z"/>
      <path class="cls-2" d="m1659.26,482.25h-1.16c-2.09,2.56-4.88,4.88-8.14,6.98-5.58,3.49-13.72,6.98-25.58,6.98-26.97,0-43.02-16.51-43.02-36.04,0-23.26,16.28-39.54,48.83-39.54h26.75v-2.32c0-13.02-7.91-22.09-20.93-22.09s-19.77,8.37-20.93,15.12h-29.07c2.56-19.54,18.37-38.37,50-38.37s50,20,50,45.35v75.58h-24.42l-2.32-11.63Zm-2.32-39.53h-24.42c-15.12,0-22.09,5.81-22.09,15.11s6.75,15.12,18.6,15.12c17.67,0,27.91-10.23,27.91-26.75v-3.49Z"/>
      <path class="cls-2" d="m1408.59,375.28h29.07v118.6h-29.07v-118.6Z"/>
      <circle class="cls-2" cx="1423.13" cy="341.02" r="17.2"/>
      <polygon class="cls-2" points="1209.61 325.28 1239.85 325.28 1211.93 359 1187.52 359 1209.61 325.28"/>
    </g>
  </g>
</svg>