<svg xmlns="http://www.w3.org/2000/svg" width="731" height="159" viewBox="0 0 731 159" version="1.1"><path d="M 391 76 C 391 122, 391.343 146, 392 146 C 392.657 146, 393 122, 393 76 C 393 30, 392.657 6, 392 6 C 391.343 6, 391 30, 391 76 M 678.502 33.575 C 674.445 35.691, 672.083 37.939, 670.305 41.376 C 666.979 47.808, 669.344 57.972, 675.123 62.088 C 681.137 66.370, 678.304 66.856, 664.778 63.864 C 659.304 62.654, 658.949 62.699, 656.597 64.908 C 655.198 66.223, 653.850 68.927, 653.468 71.187 C 652.915 74.460, 653.181 75.564, 654.984 77.483 C 656.186 78.762, 658.671 80.091, 660.506 80.435 C 662.341 80.779, 666.128 81.740, 668.921 82.569 C 672.912 83.754, 674 84.523, 674 86.154 C 674 87.296, 670.400 92.736, 666 98.243 C 656.826 109.725, 656.140 112.257, 661.077 116.411 C 662.769 117.835, 665.318 119.293, 666.739 119.649 C 669.462 120.333, 672.347 117.821, 681.044 107.198 C 683.340 104.393, 685.076 103.111, 686.033 103.514 C 686.840 103.854, 690.173 107.490, 693.440 111.594 C 696.706 115.699, 700.405 119.315, 701.659 119.629 C 704.253 120.280, 710.450 116.897, 712.013 113.976 C 713.872 110.502, 712.982 108.487, 705.399 99 C 701.222 93.775, 697.417 88.775, 696.941 87.888 C 695.484 85.169, 698.078 83.335, 706 81.485 C 710.125 80.522, 714.288 79.049, 715.250 78.212 C 717.758 76.031, 717.578 69.004, 714.927 65.635 C 712.522 62.577, 710.957 62.438, 702.785 64.556 C 699.482 65.412, 695.598 65.974, 694.153 65.806 C 691.528 65.500, 691.530 65.495, 695.727 61.622 C 698.038 59.489, 700.448 56.173, 701.081 54.253 C 702.651 49.496, 701.738 42.845, 698.982 38.975 C 694.674 32.925, 684.762 30.312, 678.502 33.575 M 508.284 38.683 C 505.079 39.330, 501 44.618, 501 48.126 C 501 60.077, 516.388 63.134, 520.962 52.093 C 524.041 44.658, 516.774 36.970, 508.284 38.683 M 443.500 64.182 C 438.969 66.553, 438.037 67.635, 438.015 70.547 C 437.998 72.794, 457.047 107.139, 460.314 110.750 C 461.836 112.433, 463.456 113, 466.740 113 C 469.155 113, 471.954 112.560, 472.959 112.022 C 474.500 111.197, 494.591 76.923, 496.521 71.828 C 497.558 69.091, 495.121 65.941, 490.326 63.820 C 482.805 60.493, 481.913 61.206, 474.122 76.755 L 467.250 90.471 460.639 77.278 C 452.580 61.195, 451.209 60.147, 443.500 64.182 M 531.500 64.182 C 526.969 66.553, 526.037 67.635, 526.015 70.547 C 525.995 73.232, 545.488 107.842, 548.659 110.750 C 551.743 113.579, 558.791 113.847, 561.819 111.250 C 562.942 110.287, 568.681 100.821, 574.574 90.212 C 586.781 68.234, 586.873 67.601, 578.406 63.855 C 570.795 60.489, 569.928 61.176, 562.122 76.755 L 555.250 90.471 548.639 77.278 C 540.580 61.195, 539.209 60.147, 531.500 64.182 M 604.713 63.384 C 582.498 69.535, 579.505 100.114, 600.097 110.549 C 605.716 113.396, 615.884 113.911, 621.355 111.625 C 626.537 109.460, 632.109 103.962, 634.649 98.507 C 643.670 79.136, 625.370 57.665, 604.713 63.384 M 504 65 C 502.131 66.869, 502 68.333, 502 87.365 C 502 106.454, 502.130 107.895, 504.073 110.365 C 505.787 112.545, 506.958 113, 510.850 113 C 513.490 113, 516.530 112.317, 517.777 111.443 C 519.959 109.916, 520 109.480, 520 88.098 C 520 62.824, 520.062 63, 511.171 63 C 507.333 63, 505.484 63.516, 504 65 M 605.756 80.977 C 602.632 83.435, 601.773 87.520, 603.506 91.669 C 607.013 100.061, 619.173 98.127, 620.633 88.945 C 621.456 83.768, 617.339 79, 612.046 79 C 609.798 79, 607.252 79.800, 605.756 80.977" stroke="none" fill="#64049c" fill-rule="evenodd"/><path d="M 29.400 40.400 C 26.463 43.337, 26 44.464, 26 48.677 C 26 54.186, 27.722 57.288, 32.011 59.506 C 41.171 64.243, 51.994 55.598, 49.080 45.872 C 47.446 40.419, 42.915 37, 37.323 37 C 33.512 37, 32.264 37.536, 29.400 40.400 M 56.400 40.400 C 53.511 43.289, 53 44.497, 53 48.435 C 53 58.620, 62.333 64.143, 70.810 58.974 C 81.154 52.668, 76.559 37, 64.365 37 C 60.507 37, 59.274 37.526, 56.400 40.400 M 83.400 40.400 C 80.626 43.174, 80 44.564, 80 47.950 C 80 55.577, 84.868 61.005, 91.700 60.996 C 97.490 60.989, 104 54.613, 104 48.951 C 104 45.432, 101.167 40.530, 98.080 38.706 C 96.491 37.768, 93.303 37, 90.996 37 C 87.557 37, 86.186 37.614, 83.400 40.400 M 287 60 C 285.900 61.100, 285 62.418, 285 62.929 C 285 64.470, 288.027 67, 289.871 67 C 293.941 67, 295.612 60.933, 292.066 59.035 C 289.485 57.654, 289.313 57.687, 287 60 M 216.697 61.024 C 214.705 62.591, 214 64.041, 214 66.573 C 214 69.584, 213.689 70, 211.437 70 C 209.147 70, 208.907 70.347, 209.187 73.250 C 209.427 75.741, 210.025 76.575, 211.750 76.820 C 213.911 77.126, 214 77.533, 214 87.070 L 214 97 217.500 97 L 221 97 221 87 L 221 77 224 77 C 226.762 77, 227 76.722, 227 73.500 C 227 70.259, 226.772 70, 223.927 70 C 221.540 70, 220.927 69.609, 221.185 68.250 C 221.387 67.183, 222.610 66.374, 224.317 66.178 C 226.806 65.892, 227.082 65.504, 226.808 62.678 C 226.532 59.829, 226.132 59.469, 222.947 59.201 C 220.501 58.996, 218.553 59.564, 216.697 61.024 M 240.082 62.368 C 237.399 66.708, 237.446 67, 240.826 67 C 243.463 67, 245.208 65.652, 248.920 60.750 C 250.129 59.153, 249.891 59, 246.204 59 C 242.695 59, 241.889 59.443, 240.082 62.368 M 116 63.500 L 116 67 121.500 67 L 127 67 127 82 L 127 97 131 97 L 135 97 135 82 L 135 67 140.500 67 L 146 67 146 63.500 L 146 60 131 60 L 116 60 116 63.500 M 172 78.500 L 172 97 175.500 97 L 179 97 179 78.500 L 179 60 175.500 60 L 172 60 172 78.500 M 59.388 64.980 C 55.545 66.533, 53 70.889, 53 75.912 C 53 81.246, 54.789 84.322, 59.223 86.616 C 68.382 91.352, 79.221 82.259, 76.011 72.533 C 73.725 65.607, 66.246 62.209, 59.388 64.980 M 151.500 69.733 C 144.960 71.370, 141.476 77.193, 142.245 85.200 C 142.663 89.553, 143.317 90.903, 146.357 93.688 C 149.550 96.615, 150.623 97, 155.585 97 C 160.637 97, 161.541 96.659, 164.600 93.600 C 166.470 91.730, 168 89.705, 168 89.100 C 168 87.454, 161.083 87.774, 159.357 89.500 C 157.133 91.725, 153.651 91.322, 151.036 88.538 L 148.723 86.076 158.611 85.788 L 168.500 85.500 168.772 82.500 C 169.117 78.698, 165.996 73.578, 161.759 70.995 C 158.596 69.066, 155.623 68.700, 151.500 69.733 M 191.542 69.729 C 183.106 71.872, 179.158 83.486, 184.280 91.088 C 187.199 95.420, 190.331 96.967, 196.215 96.985 C 200.075 96.997, 201.572 96.437, 204.465 93.896 C 206.409 92.189, 208 90.164, 208 89.396 C 208 87.414, 202.830 87.619, 199.093 89.750 C 196.321 91.330, 195.763 91.355, 193.342 90 C 187.843 86.924, 189.247 86, 199.417 86 L 209 86 209 82.734 C 209 73.734, 200.551 67.441, 191.542 69.729 M 237 69.652 C 229.631 72.080, 226.570 76.800, 227.227 84.725 C 227.632 89.612, 228.158 90.757, 231.331 93.665 C 234.555 96.620, 235.613 97, 240.603 97 C 245.812 97, 246.527 96.708, 250.118 93.118 C 253.665 89.571, 254 88.772, 253.996 83.868 C 253.994 80.249, 253.335 77.421, 251.974 75.190 C 249.100 70.476, 242.221 67.932, 237 69.652 M 267.504 69.874 C 266.406 70.327, 263.594 70.483, 261.254 70.219 L 257 69.740 257 83.430 L 257 97.121 260.750 96.810 L 264.500 96.500 264.777 87.500 C 264.992 80.499, 265.423 78.222, 266.718 77.250 C 269.056 75.494, 270.689 75.689, 273 78 C 274.686 79.686, 275 81.333, 275 88.500 L 275 97 278.500 97 L 282 97 282 86.516 C 282 76.485, 281.881 75.900, 279.250 72.981 C 276.332 69.744, 271.139 68.370, 267.504 69.874 M 304.071 70.752 C 298.800 73.439, 296.570 77.170, 296.583 83.275 C 296.596 89.237, 298.755 93.305, 303.099 95.551 C 306.535 97.328, 313.691 97.378, 316.810 95.647 C 319.310 94.260, 322.983 89.272, 322.993 87.250 C 323.004 85.173, 316.542 85.744, 314.500 88 C 312.239 90.499, 307.838 90.584, 305.655 88.171 C 302.040 84.176, 304.959 76, 310 76 C 311.100 76, 312.900 76.900, 314 78 C 315.933 79.933, 323.005 80.916, 322.996 79.250 C 322.985 76.977, 318.487 71.684, 315.510 70.440 C 310.988 68.550, 308.241 68.625, 304.071 70.752 M 332.284 69.659 C 329.731 70.202, 324.739 75.707, 325.286 77.376 C 325.980 79.495, 330.834 79.183, 334.043 76.812 L 337.173 74.500 339.207 77 L 341.241 79.500 335.030 80.004 C 329.800 80.429, 328.439 80.951, 326.410 83.310 C 323.260 86.972, 323.277 91.368, 326.455 94.545 C 328.385 96.476, 329.943 97, 333.755 97 C 336.420 97, 339.196 96.438, 339.925 95.750 C 340.985 94.750, 341.342 94.750, 341.708 95.750 C 341.960 96.438, 343.479 97, 345.083 97 L 348 97 348 86.516 C 348 76.472, 347.884 75.905, 345.250 73.032 C 342.452 69.980, 337.201 68.614, 332.284 69.659 M 286 83.560 L 286 97.121 289.750 96.810 L 293.500 96.500 293.779 83.250 L 294.058 70 290.029 70 L 286 70 286 83.560 M 151.200 77.200 C 149.008 79.392, 149.948 80, 155.535 80 C 160.760 80, 161.010 79.888, 160 78 C 158.780 75.720, 153.188 75.212, 151.200 77.200 M 191.750 77.080 C 188.563 78.936, 189.929 80, 195.500 80 C 198.525 80, 201 79.640, 201 79.200 C 201 76.345, 195.268 75.031, 191.750 77.080 M 236.343 78.566 C 234.289 80.620, 233.900 81.749, 234.394 84.221 C 235.271 88.603, 236.763 90, 240.566 90 C 246.686 90, 249.097 83.006, 244.545 78.455 C 241.425 75.334, 239.550 75.359, 236.343 78.566 M 332.180 88.250 C 332.427 89.988, 333.155 90.500, 335.378 90.500 C 337.253 90.500, 338.777 89.716, 339.750 88.250 C 341.228 86.024, 341.194 86, 336.552 86 C 332.259 86, 331.888 86.191, 332.180 88.250 M 58.314 92.892 C 54.222 95.462, 53 97.835, 53 103.212 C 53 108.178, 54.857 111.357, 59.011 113.506 C 65.804 117.018, 73.593 113.793, 76.011 106.467 C 79.376 96.272, 67.471 87.140, 58.314 92.892" stroke="none" fill="#0465fc" fill-rule="evenodd"/></svg>