<svg xmlns="http://www.w3.org/2000/svg" width="926" height="265" viewBox="0 0 926 265" version="1.1"><path d="M 225 6.105 C 210.403 8.340, 186.818 18.574, 176.298 27.239 C 161.917 39.083, 152.174 56.999, 147.562 80.081 L 147.047 82.662 129.773 82.591 C 109.792 82.509, 100.489 83.966, 81.513 90.150 C 56.900 98.170, 34.477 111.363, 18.987 126.936 C 5.003 140.995, 0.744 151.125, 3.109 164.707 C 5.828 180.316, 18.801 188.938, 35.118 185.979 C 48.757 183.505, 55.898 177.616, 77.169 151.297 C 100.954 121.866, 118.349 105.136, 128.928 101.515 C 134.632 99.564, 140.958 99.582, 143.780 101.558 C 145.624 102.850, 145.906 103.749, 145.427 106.808 C 144.662 111.691, 146.517 138.683, 148.567 152.506 C 155.789 201.200, 179.432 242.251, 208.500 256.565 C 226.512 265.436, 241.271 262.437, 248.670 248.404 C 252.635 240.883, 254 234.265, 254 222.561 C 254 196.661, 243.316 170.866, 219.595 139.500 C 206.611 122.330, 183.905 101.620, 167.815 92.271 C 162.262 89.044, 159.785 86.990, 159.348 85.249 C 158.484 81.807, 161.322 76.384, 165.237 73.997 C 170.336 70.887, 184.506 66.551, 209.376 60.489 C 264.827 46.973, 283.946 36.760, 279.941 22.796 C 278.833 18.930, 273.739 13.464, 268.940 10.989 C 259.802 6.277, 238.987 3.963, 225 6.105" stroke="none" fill="#04ccfc" fill-rule="evenodd"/><path d="M 506.718 41.695 C 505.027 42.135, 504.951 45.772, 505.218 113.329 C 505.528 191.596, 505.160 187.036, 511.661 193.186 C 515.796 197.099, 519.064 198, 529.120 198 L 538.110 198 537.805 193.250 L 537.500 188.500 531 187.931 C 523.873 187.307, 520.587 185.966, 519.023 183.043 C 518.354 181.793, 518 157.221, 518 112.041 L 518 42.950 515.435 41.975 C 512.801 40.974, 509.855 40.879, 506.718 41.695 M 343.712 59.622 C 343.320 60.013, 343 66.558, 343 74.167 L 343 88 334.500 88 L 326 88 326 93 L 326 98 334.500 98 L 343 98 343 139.851 C 343 183.242, 343.185 185.457, 347.304 191.367 C 350.808 196.393, 355.986 197.953, 369.250 197.978 L 381 198 381 193.116 L 381 188.233 370.987 187.830 C 361.669 187.456, 360.784 187.238, 358.237 184.692 L 355.500 181.956 355.219 140.008 L 354.937 98.060 367.719 97.780 L 380.500 97.500 380.805 92.750 L 381.110 88 368.082 88 L 355.055 88 354.777 73.750 L 354.500 59.500 349.462 59.205 C 346.690 59.043, 344.103 59.230, 343.712 59.622 M 427.166 83.472 C 412.272 86.851, 401.368 97.428, 397.395 112.350 C 395.467 119.590, 395.467 164.410, 397.395 171.650 C 402.898 192.317, 419.725 202.367, 445.956 200.654 C 451.205 200.311, 458.184 199.309, 461.464 198.428 C 469.173 196.357, 480 191.442, 480 190.013 C 480 188.348, 477.338 183.526, 475.642 182.118 C 474.440 181.120, 473.412 181.260, 470.314 182.840 C 462.068 187.046, 451.928 189.363, 441.500 189.422 C 428.871 189.494, 422.405 187.458, 416.496 181.549 C 411.083 176.136, 408.937 169.929, 408.268 157.750 L 407.733 148 444.467 148 L 481.202 148 480.783 131.250 C 480.319 112.697, 479.077 107.684, 472.624 98.319 C 464.126 85.988, 444.429 79.555, 427.166 83.472 M 583 83.098 C 575.728 84.518, 566.702 89.542, 561.575 95.023 C 552.239 105.005, 550.033 113.901, 550.051 141.500 C 550.069 169.553, 552.224 178.864, 560.872 188.245 C 573.157 201.573, 597.438 204.796, 622.071 196.369 C 634.513 192.112, 636.361 189.372, 631.137 182.921 L 629.249 180.589 622.107 183.881 C 610.690 189.144, 596.360 191.115, 585.799 188.877 C 575.835 186.765, 570.362 182.672, 565.909 174 C 564.033 170.346, 563.522 167.483, 563.189 158.763 L 562.780 148.025 599.140 147.763 L 635.500 147.500 635.441 132.500 C 635.357 111.406, 632.332 102.170, 622.555 93.158 C 612.738 84.108, 597.574 80.252, 583 83.098 M 703.108 83.024 C 694.779 84.770, 686.283 89.601, 678.983 96.743 L 672 103.576 672 93.738 L 672 83.900 666.250 84.200 L 660.500 84.500 660.500 141.500 L 660.500 198.500 666.250 198.800 L 672 199.100 672 158.633 L 672 118.166 679.573 110.115 C 689.427 99.641, 698.055 95, 707.674 95 C 718.680 95, 725.512 100.397, 727.926 111 C 728.535 113.675, 728.961 132.436, 728.976 157.250 L 729 199 735.037 199 L 741.074 199 740.787 151.750 C 740.509 105.912, 740.436 104.362, 738.363 99.878 C 732.248 86.654, 718.087 79.884, 703.108 83.024 M 797.347 83.095 C 779.632 86.054, 768.119 96.882, 765.087 113.434 C 763.675 121.143, 763.679 161.893, 765.093 169.566 C 768.803 189.701, 784.200 200.970, 808 200.970 C 827.697 200.970, 841.575 193.444, 848.388 179.068 L 851.500 172.500 851.500 141.500 L 851.500 110.500 848.595 104.209 C 840.914 87.576, 820.606 79.209, 797.347 83.095 M 877 141.450 L 877 199 883 199 L 889 199 889 160.666 L 889 122.332 893.078 116.510 C 903.821 101.174, 907.939 97.927, 917.726 97.076 C 923.871 96.541, 924.407 96.301, 925.272 93.696 C 925.784 92.154, 925.900 89.283, 925.531 87.315 L 924.860 83.737 918.635 84.237 C 908.683 85.036, 902.476 89.265, 894.187 100.894 L 889.500 107.470 889 95.985 L 888.500 84.500 882.750 84.200 L 877 83.900 877 141.450 M 428.939 94.301 C 420.993 96.555, 414.495 102.384, 410.881 110.500 C 409.176 114.329, 408.548 118.017, 408.199 126.250 L 407.743 137 438.515 137 L 469.287 137 468.758 126.630 C 467.917 110.144, 462.628 100.819, 451.269 95.795 C 445.729 93.344, 434.874 92.618, 428.939 94.301 M 582.205 94.894 C 574.918 97.411, 570.042 101.644, 566.502 108.525 C 563.790 113.794, 563.469 115.438, 563.144 125.676 L 562.784 137 592.892 137 L 623 137 622.994 127.750 C 622.988 116.725, 621.874 112.023, 617.841 105.999 C 610.438 94.937, 595.529 90.292, 582.205 94.894 M 801.174 94.169 C 789.049 95.561, 781.519 101.409, 778.216 112 C 776.781 116.599, 776.507 121.596, 776.545 142.500 C 776.588 166.066, 776.720 167.828, 778.855 173.218 C 781.629 180.223, 787.940 186.142, 794.740 188.117 C 797.392 188.888, 803.960 189.500, 809.571 189.500 C 818.804 189.500, 820.136 189.248, 825.571 186.478 C 832.711 182.838, 837.301 176.682, 839.009 168.457 C 840.620 160.694, 839.817 115.877, 837.973 110.674 C 833.506 98.065, 820.001 92.009, 801.174 94.169" stroke="none" fill="#1c1c1c" fill-rule="evenodd"/></svg>