<svg xmlns="http://www.w3.org/2000/svg" width="4168" height="1251" viewBox="0 0 4168 1251" version="1.1"><path d="M 3748.279 961.957 C 3714.646 978.794, 3690.716 1010.633, 3684.988 1046.167 C 3682.978 1058.635, 3684.182 1082.341, 3687.412 1093.893 C 3701.653 1144.832, 3749.059 1180.016, 3803.426 1179.996 C 3837.892 1179.983, 3868.831 1166.800, 3892.291 1142.129 C 3899.270 1134.790, 3910 1120.104, 3910 1117.891 C 3910 1117.422, 3908.762 1116.758, 3907.250 1116.415 C 3891.517 1112.848, 3880.220 1109.334, 3868.444 1104.343 L 3860.388 1100.930 3851.909 1109.215 C 3835.673 1125.078, 3818.938 1131.952, 3796.500 1131.976 C 3761.901 1132.011, 3733.002 1110.827, 3722.868 1078 C 3719.914 1068.430, 3719.699 1051.918, 3722.399 1042.036 C 3727.713 1022.591, 3741.654 1005.236, 3759.482 995.870 C 3768.456 991.156, 3768.090 991.862, 3765.779 983.703 C 3764.657 979.741, 3762.989 972.255, 3762.073 967.068 C 3761.156 961.880, 3759.934 957.478, 3759.358 957.286 C 3758.781 957.094, 3753.795 959.196, 3748.279 961.957 M 2586.455 1001.455 L 2584 1003.909 2584 1057.399 L 2584 1110.888 2586.394 1113.672 C 2589.597 1117.395, 2595.696 1117.573, 2599.444 1114.053 L 2602 1111.651 2602 1057.780 L 2602 1003.909 2599.545 1001.455 C 2597.739 999.648, 2596.010 999, 2593 999 C 2589.990 999, 2588.261 999.648, 2586.455 1001.455 M 2621.913 1000.282 C 2618.090 1003.217, 2618 1004.548, 2618 1058 C 2618 1091.843, 2618.361 1110.806, 2619.030 1112.055 C 2620.566 1114.925, 2625.756 1117.277, 2628.858 1116.507 C 2630.311 1116.147, 2632.512 1114.907, 2633.750 1113.752 C 2635.752 1111.883, 2636 1110.686, 2636 1102.905 L 2636 1094.159 2642.736 1088.080 C 2646.441 1084.736, 2649.726 1082, 2650.037 1082 C 2650.347 1082, 2656.265 1088.862, 2663.188 1097.250 C 2678.669 1116.007, 2679.154 1116.455, 2684 1116.455 C 2690.807 1116.455, 2694.760 1110.130, 2691.582 1104.323 C 2690.732 1102.770, 2683.989 1094.300, 2676.596 1085.500 L 2663.156 1069.500 2677.101 1056 C 2689.524 1043.975, 2691.044 1042.140, 2691.023 1039.205 C 2690.991 1034.594, 2687.220 1031, 2682.417 1031 C 2678.425 1031, 2677.288 1031.980, 2648.250 1060.457 L 2636 1072.470 2636 1038.190 L 2636 1003.909 2633.545 1001.455 C 2630.824 998.733, 2624.731 998.118, 2621.913 1000.282 M 3161.174 1003.314 C 3159.093 1005.530, 3159 1006.477, 3159 1025.399 L 3159 1045.170 3154.397 1041.118 C 3139.344 1027.868, 3113.863 1029.878, 3099.106 1045.481 C 3092.776 1052.175, 3089.381 1059.263, 3088.067 1068.529 C 3085.532 1086.415, 3092.524 1103.212, 3106.179 1112.037 C 3121.696 1122.066, 3142.139 1121, 3154.870 1109.498 L 3159 1105.767 3159 1109.811 C 3159 1118.676, 3170.613 1121.246, 3174.837 1113.316 C 3175.678 1111.736, 3176 1096.839, 3176 1059.516 C 3176 1005.072, 3175.862 1003.312, 3171.455 1001.621 C 3167.911 1000.261, 3163.334 1001.015, 3161.174 1003.314 M 2416.077 1006.589 C 2411.998 1010.021, 2411.819 1015.001, 2415.646 1018.548 C 2418.230 1020.943, 2418.673 1021, 2434.646 1021 L 2451 1021 2451 1065.944 L 2451 1110.888 2453.394 1113.672 C 2455.307 1115.895, 2456.633 1116.455, 2459.996 1116.455 C 2463.480 1116.455, 2464.704 1115.896, 2467.102 1113.211 L 2470 1109.968 2470 1065.484 L 2470 1021 2485.944 1021 C 2501.277 1021, 2501.994 1020.909, 2504.644 1018.630 C 2506.743 1016.824, 2507.400 1015.363, 2507.400 1012.500 C 2507.400 1009.637, 2506.743 1008.176, 2504.644 1006.370 L 2501.888 1004 2460.521 1004 L 2419.153 1004 2416.077 1006.589 M 2968.357 1005.992 C 2962.916 1008.187, 2963 1007.316, 2963 1061.646 L 2963 1111.847 2965.589 1114.923 C 2968.884 1118.839, 2973.611 1119.098, 2977.694 1115.587 L 2980.500 1113.174 2980.805 1064.337 C 2981.012 1031.093, 2980.760 1014.305, 2980.016 1011.756 C 2979.287 1009.259, 2977.953 1007.510, 2976.011 1006.506 C 2972.756 1004.822, 2971.469 1004.736, 2968.357 1005.992 M 2522.618 1031.049 C 2516.132 1032.677, 2507.282 1037.991, 2502.448 1043.159 C 2486.571 1060.133, 2486.806 1088.901, 2502.952 1105.048 C 2519.128 1121.223, 2549.484 1121.826, 2565.808 1106.297 C 2570.867 1101.485, 2571.428 1097.337, 2567.545 1093.455 C 2564.345 1090.255, 2560.298 1090.310, 2555.944 1093.613 C 2542.922 1103.493, 2526.870 1103.943, 2517.128 1094.699 C 2513.912 1091.648, 2510.069 1084.915, 2510.022 1082.250 C 2510.005 1081.278, 2516.470 1081, 2539.077 1081 L 2568.154 1081 2571.077 1078.077 C 2574.501 1074.653, 2574.849 1070.678, 2572.508 1061.693 C 2569.059 1048.452, 2561.597 1039.046, 2550.375 1033.795 C 2544.998 1031.278, 2542.319 1030.682, 2535.174 1030.407 C 2530.403 1030.224, 2524.753 1030.513, 2522.618 1031.049 M 2727.335 1031.423 C 2715.087 1034.393, 2703.218 1043.716, 2697.620 1054.763 C 2684.455 1080.744, 2701.219 1111.977, 2731.029 1117.005 C 2761.692 1122.177, 2788.974 1096.440, 2784.027 1067.009 C 2779.707 1041.308, 2753.753 1025.016, 2727.335 1031.423 M 2824.332 1031.791 C 2821.490 1032.806, 2817.553 1034.866, 2815.582 1036.369 C 2812.776 1038.510, 2812 1038.756, 2812 1037.505 C 2812 1036.627, 2810.895 1034.805, 2809.545 1033.455 C 2805.999 1029.908, 2800.743 1030.103, 2796.923 1033.923 L 2794 1036.846 2794 1073.867 L 2794 1110.888 2796.394 1113.672 C 2799.597 1117.395, 2805.696 1117.573, 2809.444 1114.053 L 2812 1111.651 2812 1090.462 C 2812 1078.808, 2812.458 1066.860, 2813.017 1063.910 C 2815.188 1052.460, 2822.495 1046.480, 2833.460 1047.178 C 2840.714 1047.640, 2844.846 1050.134, 2847.627 1055.730 C 2849.269 1059.035, 2849.562 1062.737, 2850 1085.725 C 2850.487 1111.279, 2850.558 1112.007, 2852.755 1114.202 C 2855.910 1117.354, 2862.007 1117.282, 2865.444 1114.053 L 2868 1111.651 2868 1089.375 C 2868 1064.155, 2868.757 1058.964, 2873.221 1053.548 C 2877.085 1048.860, 2881.349 1047, 2888.233 1047 C 2895.214 1047, 2899.840 1049.538, 2903 1055.099 C 2905.449 1059.410, 2905.510 1060.037, 2906 1085.725 C 2906.487 1111.279, 2906.558 1112.008, 2908.755 1114.202 C 2912.178 1117.621, 2918.458 1117.331, 2921.662 1113.607 L 2924.111 1110.759 2923.806 1082.130 C 2923.513 1054.707, 2923.403 1053.285, 2921.192 1048.401 C 2918.314 1042.044, 2912.036 1035.802, 2905.500 1032.798 C 2901.324 1030.879, 2898.852 1030.505, 2890.500 1030.527 C 2878.835 1030.559, 2873.885 1032.300, 2866.747 1038.879 L 2862.345 1042.937 2858.530 1039.030 C 2850.736 1031.049, 2835.463 1027.815, 2824.332 1031.791 M 3033.013 1033.542 C 3027.023 1035.221, 3023.959 1036.902, 3019.750 1040.817 C 3017.097 1043.284, 3017 1043.300, 3017 1041.269 C 3017 1037.817, 3015.919 1036.009, 3012.928 1034.463 C 3008.732 1032.293, 3006.181 1032.665, 3002.923 1035.923 L 3000 1038.846 3000 1075.969 L 3000 1113.091 3002.455 1115.545 C 3004.149 1117.240, 3006.021 1118, 3008.500 1118 C 3010.979 1118, 3012.851 1117.240, 3014.545 1115.545 L 3017 1113.091 3017 1090.488 C 3017 1077.315, 3017.461 1066.057, 3018.104 1063.501 C 3019.537 1057.811, 3024.848 1051.678, 3030.197 1049.538 C 3035.596 1047.378, 3044.916 1047.392, 3049.500 1049.567 C 3053.981 1051.693, 3057.636 1056.028, 3058.956 1060.781 C 3059.535 1062.867, 3059.991 1075.170, 3059.994 1088.795 L 3060 1113.091 3062.455 1115.545 C 3065.825 1118.916, 3071.205 1118.886, 3074.614 1115.477 L 3077.137 1112.954 3076.818 1084.227 L 3076.500 1055.500 3073.710 1049.818 C 3068.614 1039.441, 3058.877 1033.376, 3045.912 1032.502 C 3040.898 1032.165, 3036.725 1032.501, 3033.013 1033.542 M 3223.500 1032.974 C 3199.840 1038.208, 3185.711 1056.259, 3187.282 1079.249 C 3188.832 1101.950, 3207.985 1119.025, 3231.855 1118.988 C 3255.412 1118.952, 3273.372 1104.363, 3277.177 1082.173 C 3280.620 1062.097, 3268.193 1041.799, 3248.233 1034.898 C 3241.671 1032.630, 3229.380 1031.673, 3223.500 1032.974 M 3322.500 1033.336 C 3316.718 1034.830, 3313.641 1036.348, 3309.638 1039.678 L 3306.776 1042.059 3305.138 1038.800 C 3302.003 1032.561, 3295.529 1031.369, 3291.028 1036.201 C 3289.066 1038.306, 3289 1039.589, 3289 1075.734 L 3289 1113.091 3291.455 1115.545 C 3293.149 1117.240, 3295.021 1118, 3297.500 1118 C 3299.979 1118, 3301.851 1117.240, 3303.545 1115.545 L 3306 1113.091 3306.006 1089.795 C 3306.009 1076.626, 3306.467 1064.858, 3307.060 1062.723 C 3308.385 1057.954, 3313.155 1052.472, 3318.238 1049.879 C 3326.615 1045.605, 3340.063 1048.059, 3344.802 1054.727 C 3348.387 1059.771, 3348.989 1064.730, 3348.994 1089.295 L 3349 1113.091 3351.455 1115.545 C 3353.149 1117.240, 3355.021 1118, 3357.500 1118 C 3359.979 1118, 3361.851 1117.240, 3363.545 1115.545 L 3366 1113.091 3366 1087.595 C 3366 1073.404, 3365.530 1059.906, 3364.940 1057.154 C 3362.646 1046.458, 3354.019 1036.835, 3344.177 1033.992 C 3338.178 1032.259, 3327.875 1031.947, 3322.500 1033.336 M 3408.459 1033.395 C 3392.631 1037.240, 3380.904 1049.355, 3377.004 1065.890 C 3375.373 1072.810, 3376.191 1084.918, 3378.743 1091.594 C 3383.023 1102.795, 3391.787 1111.765, 3402.748 1116.163 C 3407.634 1118.123, 3410.314 1118.473, 3420.553 1118.485 C 3432.447 1118.500, 3432.706 1118.451, 3440.053 1114.811 C 3454.039 1107.883, 3458.585 1100.965, 3452.365 1096.073 C 3448.611 1093.120, 3445.460 1093.492, 3439.946 1097.539 C 3432.866 1102.737, 3427.301 1104.334, 3418.163 1103.792 C 3413.864 1103.537, 3409.120 1102.618, 3407.356 1101.698 C 3402.862 1099.354, 3397.992 1094.191, 3395.871 1089.522 C 3392.220 1081.485, 3390.310 1082, 3423.777 1082 C 3456.737 1082, 3457.368 1081.886, 3458.525 1075.719 C 3459.374 1071.193, 3456.603 1058.879, 3453.420 1053.030 C 3444.729 1037.061, 3426.369 1029.044, 3408.459 1033.395 M 3483.766 1034.702 C 3473.409 1038.156, 3466.662 1047.147, 3466.657 1057.500 C 3466.650 1070.106, 3473.078 1075.760, 3494.517 1082.005 C 3510.913 1086.781, 3514 1088.780, 3514 1094.619 C 3514 1097.086, 3513.239 1098.801, 3511.378 1100.525 C 3508.120 1103.544, 3503.793 1104.397, 3494.942 1103.764 C 3489.458 1103.371, 3486.408 1102.432, 3479.911 1099.136 C 3470.592 1094.407, 3469.267 1094.216, 3465.635 1097.073 C 3462.222 1099.757, 3462.041 1104.757, 3465.250 1107.751 C 3468.861 1111.121, 3477.330 1114.927, 3486.216 1117.174 C 3501.827 1121.122, 3515.846 1118.149, 3524.316 1109.093 C 3529.391 1103.667, 3531.627 1096.664, 3530.558 1089.538 C 3529.068 1079.603, 3521.843 1073.932, 3503.158 1068.030 C 3488.712 1063.467, 3484.322 1061.131, 3483.417 1057.524 C 3482.081 1052.200, 3488.678 1046.987, 3496.718 1047.012 C 3501.247 1047.026, 3508.606 1048.991, 3515.658 1052.068 C 3520.144 1054.026, 3521.207 1054.157, 3523.822 1053.074 C 3527.653 1051.487, 3529.735 1046.908, 3528.178 1043.491 C 3524.592 1035.622, 3497.239 1030.209, 3483.766 1034.702 M 3548.315 1034.007 C 3547.114 1034.491, 3545.651 1035.783, 3545.065 1036.878 C 3544.366 1038.185, 3544 1051.745, 3544 1076.362 L 3544 1113.855 3546.635 1115.927 C 3549.242 1117.978, 3553.322 1118.581, 3556.455 1117.379 C 3560.693 1115.753, 3561 1112.886, 3561 1074.973 L 3561 1038.846 3558.077 1035.923 C 3555.108 1032.954, 3552.298 1032.402, 3548.315 1034.007 M 3600 1033.627 C 3583.213 1036.797, 3576.296 1042.079, 3579.962 1048.929 C 3581.926 1052.598, 3585.984 1053.247, 3592.519 1050.937 C 3600.078 1048.264, 3614.200 1047.259, 3619.592 1049.009 C 3627.412 1051.547, 3631.014 1055.527, 3632.393 1063.151 L 3633.053 1066.801 3629.277 1065.926 C 3615.922 1062.830, 3597.043 1064.029, 3587.415 1068.583 C 3574.044 1074.909, 3568.373 1089.669, 3574.367 1102.541 C 3577.116 1108.444, 3581.373 1112.327, 3589 1115.887 C 3593.736 1118.097, 3595.888 1118.457, 3604.500 1118.477 C 3616.075 1118.504, 3620.888 1117.286, 3627.928 1112.548 C 3632.852 1109.235, 3633 1109.201, 3633 1111.393 C 3633 1114.554, 3637.005 1118, 3640.680 1118 C 3642.357 1118, 3644.916 1117.067, 3646.365 1115.927 L 3649 1113.855 3649 1086.609 C 3649 1053.412, 3648.599 1051.437, 3640.161 1043.007 C 3632.742 1035.595, 3627.912 1033.867, 3613.500 1033.463 C 3607.450 1033.294, 3601.375 1033.368, 3600 1033.627 M 2291.635 1042.073 L 2289 1044.145 2289 1078.573 C 2289 1111.667, 2289.077 1113.077, 2291 1115 C 2294.743 1118.743, 2300.425 1117.068, 2302.354 1111.652 C 2302.954 1109.968, 2303.322 1110.075, 2306.493 1112.860 C 2310.762 1116.608, 2316.973 1118.396, 2323.182 1117.663 C 2340.298 1115.643, 2350.138 1097.298, 2344.425 1078.059 C 2341.202 1067.205, 2328.390 1058.723, 2317.782 1060.419 C 2313.137 1061.162, 2306.970 1064.123, 2304.933 1066.588 C 2303.668 1068.120, 2303.441 1066.888, 2303 1056.071 C 2302.536 1044.707, 2302.329 1043.682, 2300.139 1041.910 C 2297.105 1039.455, 2294.909 1039.497, 2291.635 1042.073 M 2523.491 1047.865 C 2517.522 1050.577, 2510 1060.113, 2510 1064.968 C 2510 1065.647, 2517.721 1066, 2532.567 1066 L 2555.135 1066 2554.439 1063.750 C 2549.975 1049.312, 2536.045 1042.162, 2523.491 1047.865 M 2731.324 1047.384 C 2719.045 1051.387, 2712.021 1061.090, 2712.006 1074.072 C 2711.994 1083.804, 2717.161 1092.659, 2725.824 1097.751 C 2729.934 1100.167, 2731.529 1100.500, 2739 1100.500 C 2746.471 1100.500, 2748.066 1100.167, 2752.176 1097.751 C 2764.921 1090.259, 2769.435 1074.630, 2762.680 1061.387 C 2761.308 1058.699, 2758.907 1055.312, 2757.343 1053.860 C 2750.511 1047.516, 2739.402 1044.751, 2731.324 1047.384 M 3125.500 1047.883 C 3111.774 1051.420, 3104.237 1062.382, 3105.221 1077.379 C 3106.847 1102.174, 3133.279 1112.852, 3150.472 1095.659 C 3167.685 1078.445, 3157.645 1050.091, 3133.459 1047.617 C 3130.732 1047.338, 3127.150 1047.458, 3125.500 1047.883 M 3223.205 1048.833 C 3215.888 1051.445, 3211.026 1055.675, 3207.528 1062.473 C 3200.357 1076.411, 3205.924 1094.089, 3219.657 1100.985 C 3232.953 1107.661, 3249.255 1102.952, 3256.674 1090.293 C 3260.258 1084.177, 3261.126 1072.237, 3258.488 1065.330 C 3253.247 1051.606, 3236.879 1043.953, 3223.205 1048.833 M 3407.168 1049.603 C 3401.629 1052.364, 3398.037 1056.274, 3395.531 1062.272 C 3392.571 1069.355, 3391.411 1069, 3417.500 1069 C 3444.220 1069, 3442.888 1069.536, 3438.617 1060.500 C 3432.704 1047.993, 3419.548 1043.434, 3407.168 1049.603 M 2354.655 1062.829 C 2353.745 1063.835, 2353 1065.833, 2353 1067.269 C 2353 1068.705, 2357.500 1079.901, 2363 1092.149 C 2368.500 1104.397, 2373 1115.019, 2373 1115.754 C 2373 1116.489, 2371.890 1118.201, 2370.533 1119.558 C 2368.303 1121.788, 2367.534 1121.963, 2362.549 1121.377 C 2356.167 1120.627, 2354 1121.791, 2354 1125.967 C 2354 1130.866, 2357.136 1132.500, 2366.539 1132.500 C 2379.506 1132.500, 2379.561 1132.426, 2395.902 1093.236 C 2401.456 1079.915, 2406 1068.113, 2406 1067.008 C 2406 1061.649, 2397.445 1058.865, 2394.551 1063.282 C 2393.729 1064.537, 2390.606 1072.074, 2387.612 1080.032 C 2384.618 1087.989, 2381.642 1095.850, 2381 1097.500 C 2379.871 1100.402, 2379.589 1099.893, 2372.414 1082 C 2368.334 1071.825, 2364.235 1062.938, 2363.307 1062.250 C 2360.851 1060.433, 2356.564 1060.719, 2354.655 1062.829 M 2311 1073.791 C 2304.167 1077.524, 2300.814 1085.883, 2302.957 1093.842 C 2306.698 1107.733, 2324.173 1110.236, 2330.603 1097.801 C 2332.719 1093.710, 2332.671 1085.216, 2330.507 1080.655 C 2326.972 1073.207, 2317.908 1070.017, 2311 1073.791 M 3603.729 1078 C 3593.867 1079.737, 3588.053 1086.137, 3589.470 1093.694 C 3592.088 1107.649, 3618.845 1109.016, 3629.386 1095.735 C 3631.743 1092.765, 3632.465 1090.725, 3632.801 1086.079 L 3633.227 1080.189 3627.863 1079.149 C 3619.718 1077.571, 3609.050 1077.063, 3603.729 1078" stroke="none" fill="#332d35" fill-rule="evenodd"/><path d="M 1018.006 366.679 C 1018.011 619.113, 1018.223 663.893, 1019.452 672 C 1025.073 709.067, 1044.693 732.460, 1078.659 742.594 C 1090.774 746.208, 1114.694 747.106, 1130.150 744.528 C 1142.011 742.549, 1162.213 736.450, 1166.767 733.474 C 1166.914 733.378, 1165.472 730.704, 1163.562 727.532 C 1155.876 714.769, 1149.769 695.353, 1146.295 672.641 C 1144.733 662.431, 1144.543 639.309, 1144.017 396 C 1143.483 148.937, 1143.324 130.110, 1141.726 124.888 C 1134.157 100.143, 1117.532 82.711, 1093.500 74.323 L 1085.500 71.531 1051.750 71.194 L 1018 70.858 1018.006 366.679 M 1232 405 L 1232 739 1294.996 739 L 1357.991 739 1358.246 631.668 L 1358.500 524.337 1435 613.778 C 1477.075 662.970, 1514.200 705.696, 1517.500 708.724 C 1530.358 720.521, 1542.662 727.915, 1557.974 733.045 C 1574.163 738.468, 1581.169 738.988, 1638.250 738.994 C 1666.713 738.997, 1690 738.780, 1690 738.510 C 1690 737.803, 1522.737 544.526, 1516.625 538.171 C 1509.262 530.514, 1497.839 522.149, 1487.481 516.827 C 1478.807 512.370, 1460.939 506, 1457.110 506 C 1456.084 506, 1454.669 505.306, 1453.965 504.458 C 1452.080 502.187, 1453.638 501.095, 1464.094 497.362 C 1480.739 491.419, 1494.585 482.183, 1509.132 467.320 C 1513.880 462.469, 1548.946 420.250, 1587.057 373.500 C 1625.168 326.750, 1660.132 283.887, 1664.755 278.250 L 1673.159 268 1601.278 268 L 1529.397 268 1443.949 372.882 L 1358.500 477.764 1358.248 274.382 L 1357.995 71 1294.998 71 L 1232 71 1232 405 M 3915 368.869 C 3915 692.425, 3914.691 673.986, 3920.399 690.723 C 3927.758 712.299, 3942.696 729.093, 3962.526 738.085 C 3976.056 744.219, 3983.503 745.502, 4005.500 745.484 C 4023.898 745.469, 4026.357 745.252, 4036.203 742.765 C 4048.066 739.768, 4063 734.326, 4063 732.999 C 4063 732.528, 4061.449 729.524, 4059.552 726.322 C 4052.619 714.614, 4047 697.042, 4043.301 675.500 C 4041.717 666.280, 4041.539 644.718, 4041.008 399 C 4040.467 148.851, 4040.324 132.102, 4038.673 126.015 C 4031.569 99.827, 4010.624 79.194, 3984.876 73.022 C 3977.432 71.237, 3973.078 71.013, 3945.750 71.007 L 3915 71 3915 368.869 M 164.500 93.649 C 138.845 98.991, 118.683 115.209, 109.452 137.926 C 104.722 149.567, 104 156.587, 104 190.958 L 104 223 198 223 L 292 223 292 443.869 C 292 682.568, 291.787 672.463, 297.167 689 C 306.977 719.158, 331.517 739.697, 364 744.936 C 372.193 746.258, 394.294 746.274, 403.500 744.965 C 417.598 742.961, 443 735.297, 443 733.048 C 443 732.605, 441.424 729.625, 439.497 726.425 C 432.722 715.174, 427.011 697.289, 423.345 675.846 C 421.701 666.227, 421.536 649.228, 420.991 434 C 420.409 203.742, 420.395 202.452, 418.316 193.500 C 414.283 176.139, 408.825 163.041, 400.174 149.964 C 380.935 120.883, 351.999 101.561, 317.715 94.901 C 308.627 93.136, 302.884 93.008, 237.215 93.116 C 198.322 93.180, 165.600 93.419, 164.500 93.649 M 377.667 93.667 C 377.300 94.033, 377 95.332, 377 96.553 C 377 98.229, 378.652 99.755, 383.750 102.791 C 397.252 110.831, 411.135 124.497, 420.534 139 C 430.352 154.150, 436.274 168.792, 440.890 189.329 C 442.585 196.873, 444.679 204.412, 445.543 206.082 C 448.158 211.140, 454.084 217.003, 459.437 219.828 L 464.500 222.500 525 222.785 C 579.826 223.043, 585.917 222.911, 589.941 221.379 C 595.380 219.309, 602.426 212.976, 605.334 207.545 C 607.470 203.557, 607.504 202.727, 607.782 148.250 L 608.065 93 493.199 93 C 430.023 93, 378.033 93.300, 377.667 93.667 M 718 260.590 C 683.419 263.576, 655.229 271.096, 628.063 284.583 C 567.006 314.897, 524.865 368.537, 507.928 437.500 C 495.718 487.219, 497.907 546.569, 513.665 593 C 538.990 667.622, 599.586 720.470, 680.487 738.494 C 707.600 744.534, 716.686 745.404, 753 745.437 C 789.345 745.470, 797.847 744.656, 825.513 738.495 C 853.853 732.183, 886.860 719.199, 911.250 704.766 L 918 700.772 918 646.771 L 918 592.770 915.250 594.590 C 878.867 618.668, 845.064 633.080, 808.965 639.906 C 766.078 648.014, 717.375 642.857, 685.662 626.850 C 677.241 622.600, 665.081 614.042, 657.970 607.362 C 641.813 592.184, 629.794 571.450, 623.125 547.250 L 621.127 540 784.018 540 L 946.909 540 947.447 536.750 C 951.528 512.091, 951.518 477.167, 947.421 449 C 939.907 397.338, 919.168 353.418, 887 321.044 C 854.941 288.780, 815.035 269.378, 766.500 262.456 C 756.447 261.023, 726.388 259.866, 718 260.590 M 1879.091 261.082 C 1796.130 267.441, 1726.397 309.796, 1687.537 377.432 C 1671.814 404.798, 1661.759 435.825, 1656.889 472 C 1654.999 486.040, 1655.259 522.690, 1657.357 538 C 1664.957 593.456, 1687.494 640.347, 1724.105 676.873 C 1760.610 713.293, 1807.019 735.693, 1863.500 744.152 C 1869.433 745.041, 1882.213 745.500, 1901 745.500 C 1930.886 745.500, 1937.176 744.943, 1959.500 740.318 C 1986.754 734.672, 2019.130 721.308, 2042 706.263 C 2085.264 677.803, 2117.410 635.773, 2133.982 586 C 2152.853 529.320, 2150.738 460.362, 2128.454 405.736 C 2088.971 308.948, 1991.593 252.460, 1879.091 261.082 M 2450 260.614 C 2415.991 263.723, 2389.410 273.981, 2367.826 292.325 C 2360.532 298.523, 2350.389 311.292, 2346.342 319.370 C 2341.031 329.972, 2339.109 330.028, 2335.982 319.671 C 2330.079 300.124, 2317.868 285.375, 2299.787 275.955 C 2285.803 268.670, 2281.174 268, 2244.840 268 L 2213 268 2213 503.500 L 2213 739 2276 739 L 2339 739 2339 610.961 C 2339 527.726, 2339.370 479.523, 2340.058 473.211 C 2346.238 416.475, 2370.908 379.978, 2409.608 370.317 C 2419.412 367.869, 2442.936 367.903, 2452.500 370.378 C 2464.992 373.611, 2475.343 379.298, 2483.346 387.325 C 2491.754 395.757, 2496.151 402.845, 2500.121 414.363 C 2506.096 431.697, 2505.988 428.451, 2505.994 590.750 L 2506 739 2569 739 L 2632 739 2632.003 613.250 C 2632.006 533.418, 2632.390 483.301, 2633.057 476 C 2639.327 407.326, 2672.075 368.058, 2723.119 368.008 C 2764.801 367.966, 2793.156 392.775, 2798.916 434.322 C 2799.655 439.654, 2800 489.399, 2800 590.572 L 2800 739 2863.022 739 L 2926.044 739 2925.772 568.250 L 2925.500 397.500 2923.204 386.701 C 2912.897 338.211, 2885.879 301.848, 2843.948 280.034 C 2808.548 261.617, 2760.903 255.558, 2718.620 264.096 C 2675.631 272.777, 2636.905 297.834, 2612.726 332.612 C 2609.902 336.675, 2607.345 339.998, 2607.045 339.996 C 2606.745 339.994, 2605.040 337.169, 2603.255 333.717 C 2582.727 294.012, 2546.215 269.553, 2496.970 262.516 C 2486.357 261, 2458.236 259.861, 2450 260.614 M 3160.146 261.079 C 3088.469 266.577, 3034.034 297.137, 3009.764 345.500 C 2995.946 373.036, 2992.467 407.787, 3000.518 437.869 C 3013.333 485.756, 3056.488 519.438, 3134.500 542.442 C 3197.966 561.157, 3214.868 567.783, 3227.022 578.710 C 3229.821 581.226, 3233.310 585.583, 3234.776 588.392 C 3237.109 592.864, 3237.432 594.620, 3237.374 602.500 C 3237.286 614.302, 3234.774 620.969, 3227.429 628.904 C 3217.176 639.978, 3200.819 645.977, 3174.968 648.143 C 3145.717 650.593, 3107.580 645.187, 3078.101 634.412 C 3055.310 626.080, 3028.129 610.673, 3008.750 595.099 L 3000 588.068 3000.013 643.784 L 3000.026 699.500 3007.359 704.271 C 3037.228 723.701, 3075.468 737.022, 3120.500 743.681 C 3137.918 746.257, 3193.286 746.266, 3210.500 743.695 C 3259.197 736.423, 3294.095 720.936, 3320.105 695.053 C 3343.304 671.969, 3354.903 646.585, 3358.172 611.750 C 3362.265 568.132, 3347.191 528.909, 3316.114 502.310 C 3290.431 480.329, 3259.927 466.601, 3201.096 450.547 C 3157.330 438.604, 3137.442 430.353, 3126.513 419.605 C 3118.716 411.936, 3116.425 406.057, 3117.355 396.099 C 3119.081 377.623, 3132.977 365.084, 3157.635 359.756 C 3170.748 356.922, 3202.385 356.719, 3220.500 359.352 C 3257.582 364.743, 3295.236 377.947, 3320.509 394.421 C 3325.217 397.489, 3329.278 400, 3329.534 400 C 3329.790 400, 3330 376.905, 3330 348.678 L 3330 297.357 3322.750 293.219 C 3281.109 269.456, 3216.756 256.736, 3160.146 261.079 M 3610 261.070 C 3555.936 265.569, 3507.114 287.102, 3469.618 322.986 C 3429.622 361.261, 3405.525 411.612, 3398.512 471.558 C 3396.784 486.336, 3396.520 520.564, 3398.024 535 C 3405.038 602.328, 3433.918 657.243, 3482 694.685 C 3514.241 719.792, 3553.523 735.668, 3602 743.187 C 3614.885 745.185, 3620.232 745.436, 3650 745.436 C 3679.331 745.437, 3685.181 745.171, 3697.013 743.301 C 3738.119 736.802, 3772.415 725.050, 3805.250 706.211 L 3815 700.617 3815 646.808 C 3815 617.214, 3814.837 593, 3814.639 593 C 3814.440 593, 3810.952 595.188, 3806.889 597.863 C 3747.256 637.111, 3681.420 651.807, 3620.398 639.491 C 3578.098 630.954, 3547.780 609.179, 3530.477 574.909 C 3526.285 566.607, 3520.002 549.931, 3518.548 543.250 L 3517.841 540 3680.792 540 L 3843.742 540 3844.350 535.250 C 3847.807 508.221, 3847.698 472.596, 3844.086 449 C 3833.588 380.429, 3802.240 328.194, 3751.500 294.726 C 3712.551 269.035, 3661.166 256.813, 3610 261.070 M 716.919 355.946 C 687.080 361.416, 661.500 377.933, 645.429 402.107 C 636.614 415.367, 629.735 431.577, 626.622 446.426 L 625.244 453 727.216 453 L 829.188 453 828.504 447.750 C 824.412 416.325, 812.022 391.003, 793.050 375.289 C 785.016 368.635, 769.222 360.682, 758.500 357.892 C 749.626 355.583, 725.149 354.437, 716.919 355.946 M 3611.334 356.415 C 3576.597 363.036, 3548.502 385.413, 3532.532 419.180 C 3528.368 427.983, 3524.094 440.907, 3522.587 449.250 L 3521.909 453 3623.800 453 L 3725.691 453 3724.387 443.750 C 3720.766 418.073, 3711.879 398.183, 3697.115 382.719 C 3684.889 369.914, 3671.562 362.102, 3654.818 357.929 C 3644.032 355.241, 3621.596 354.460, 3611.334 356.415 M 1885.500 370.689 C 1844.908 375.950, 1813.324 398.437, 1796.014 434.399 C 1773.354 481.475, 1777.301 546.901, 1805.310 588.500 C 1810.566 596.307, 1822.778 608.893, 1831.059 615.039 C 1843.844 624.527, 1861.774 632.039, 1879 635.126 C 1889.759 637.053, 1914.418 636.805, 1925.275 634.660 C 1980.244 623.799, 2014.835 581.044, 2020.197 517.335 C 2022.140 494.244, 2019.529 471.541, 2012.492 450.349 C 1998.064 406.896, 1965.474 378.600, 1921.672 371.496 C 1913.382 370.151, 1893.133 369.699, 1885.500 370.689 M 3877.485 822.340 C 3868.620 826.356, 3859.109 842.269, 3841.515 882.518 C 3828.780 911.651, 3822.547 922.114, 3815.872 925.566 C 3809.528 928.847, 3806.228 922.559, 3804.814 904.500 C 3803.316 885.359, 3801.099 870.340, 3798.906 864.479 C 3796.897 859.108, 3793.138 855, 3790.233 855 C 3780.486 855, 3765.590 883.908, 3760.348 913 C 3758.610 922.641, 3757.851 954.332, 3759.301 956.678 C 3759.784 957.459, 3762.241 957.076, 3767.543 955.392 C 3790.894 947.977, 3818.975 948.232, 3842.377 956.073 C 3867.029 964.332, 3889.103 980.905, 3903.122 1001.681 C 3924.936 1034.008, 3928.650 1072.989, 3913.327 1108.804 C 3911.373 1113.371, 3910.027 1117.361, 3910.336 1117.670 C 3910.646 1117.979, 3915.759 1118.889, 3921.699 1119.693 C 3936.818 1121.738, 3968.735 1120.888, 3982.443 1118.075 C 4008.815 1112.665, 4027.377 1103.315, 4029.639 1094.303 C 4030.589 1090.518, 4026.643 1083.582, 4021.155 1079.392 C 4015.147 1074.805, 4008.853 1073.074, 3994 1071.927 C 3961.840 1069.441, 3951.601 1067.398, 3947.055 1062.559 C 3945.189 1060.572, 3944.841 1059.367, 3945.306 1056.500 C 3946.665 1048.127, 3957.112 1038.377, 3992.744 1012.228 C 4022.418 990.451, 4033.225 981.717, 4045.613 969.500 C 4058.100 957.186, 4062.976 949.858, 4062.991 943.385 C 4063.018 931.370, 4049.375 929.428, 4025.500 938.049 C 4020.550 939.836, 4003.743 947.752, 3988.151 955.639 C 3957.957 970.912, 3953.735 972.652, 3949.471 971.582 C 3946.861 970.927, 3946.777 970.699, 3947.213 965.439 C 3947.877 957.442, 3954.246 945.458, 3972.819 917.263 C 3994.955 883.658, 4002 869.530, 4002 858.743 C 4002 854.418, 4001.558 853.358, 3998.465 850.265 C 3995.121 846.921, 3994.660 846.762, 3989.937 847.321 C 3976.444 848.919, 3958.696 863.305, 3919.228 904.634 C 3895.323 929.667, 3889.650 933.471, 3886.923 926.299 C 3885.339 922.132, 3885.884 915.066, 3889.456 893.432 C 3894.132 865.115, 3895.001 857.438, 3894.994 844.526 C 3894.988 831.893, 3893.997 827.285, 3890.600 824.094 C 3887.649 821.322, 3881.536 820.505, 3877.485 822.340 M 3778.500 987.533 C 3772.543 989.008, 3767 990.950, 3767 991.562 C 3767 993.260, 3773.317 1008.770, 3777.622 1017.641 C 3793.144 1049.630, 3819.103 1078.103, 3849.061 1095.999 C 3853.703 1098.772, 3858.374 1100.919, 3859.443 1100.770 C 3862.163 1100.392, 3867.309 1091.384, 3870.681 1081.098 C 3873.222 1073.347, 3873.496 1071.170, 3873.460 1059 C 3873.424 1047.162, 3873.097 1044.542, 3870.807 1037.722 C 3863.225 1015.148, 3845.134 997.417, 3821.500 989.396 C 3814.531 987.031, 3811.632 986.641, 3799 986.364 C 3788.600 986.137, 3782.803 986.467, 3778.500 987.533" stroke="none" fill="#ec1c2b" fill-rule="evenodd"/></svg>