<?xml version="1.0" encoding="utf-8"?>
<!-- Generator: Adobe Illustrator 23.0.1, SVG Export Plug-In . SVG Version: 6.00 Build 0)  -->
<svg version="1.1" id="Layer_1" xmlns="http://www.w3.org/2000/svg" xmlns:xlink="http://www.w3.org/1999/xlink" x="0px" y="0px"
	 viewBox="0 0 1080 1080" style="enable-background:new 0 0 1080 1080;" xml:space="preserve">
<style type="text/css">
	.st0{fill:url(#SVGID_1_);}
	.st1{fill:url(#SVGID_2_);}
	.st2{fill:url(#SVGID_3_);}
	.st3{fill:url(#SVGID_4_);}
	.st4{fill:url(#SVGID_5_);}
	.st5{fill:url(#SVGID_6_);}
	.st6{fill:url(#SVGID_7_);}
	.st7{fill:url(#SVGID_8_);}
	.st8{fill:url(#SVGID_9_);}
	.st9{fill:url(#SVGID_10_);}
	.st10{fill:url(#SVGID_11_);}
	.st11{fill:url(#SVGID_12_);}
	.st12{fill:url(#SVGID_13_);}
	.st13{fill:url(#SVGID_14_);}
	.st14{fill:url(#SVGID_15_);}
	.st15{fill:url(#SVGID_16_);}
	.st16{fill:url(#SVGID_17_);}
	.st17{fill:url(#SVGID_18_);}
	.st18{fill:#EB008B;}
</style>
<g>
	<g>
		<g>
			<linearGradient id="SVGID_1_" gradientUnits="userSpaceOnUse" x1="177.3913" y1="447.5203" x2="176.0909" y2="585.3663">
				<stop  offset="0" style="stop-color:#EE4036"/>
				<stop  offset="1" style="stop-color:#EB008B"/>
			</linearGradient>
			<polygon class="st0" points="215.32,452.5 139.37,452.5 149.59,443.2 205.12,443.2 			"/>
			<linearGradient id="SVGID_2_" gradientUnits="userSpaceOnUse" x1="180.701" y1="447.5515" x2="179.4005" y2="585.3975">
				<stop  offset="0" style="stop-color:#EE4036"/>
				<stop  offset="1" style="stop-color:#EB008B"/>
			</linearGradient>
			<path class="st1" d="M259.29,476.74h-78.3v96.41l-9.3,8.48V476.74h-45.32c-1.87,4.77-6.5,8.17-11.95,8.17
				c-7.07,0-12.81-5.74-12.81-12.83c0-7.08,5.74-12.83,12.81-12.83c5.45,0,10.07,3.39,11.95,8.17h122.72L259.29,476.74z"/>
			<linearGradient id="SVGID_3_" gradientUnits="userSpaceOnUse" x1="188.2166" y1="447.6224" x2="186.9162" y2="585.4684">
				<stop  offset="0" style="stop-color:#EE4036"/>
				<stop  offset="1" style="stop-color:#EB008B"/>
			</linearGradient>
			<path class="st2" d="M297.37,502.12c0,7.08-5.74,12.81-12.83,12.81c-5.49,0-10.17-3.46-11.99-8.32h-67.48v76.28l-54.96,53.46
				V505.83H78l10.22-9.3h71.2v117.8l36.35-35.37v-81.65h76.9c1.9-4.69,6.5-8.01,11.87-8.01
				C291.63,489.29,297.37,495.03,297.37,502.12z"/>
		</g>
		<linearGradient id="SVGID_4_" gradientUnits="userSpaceOnUse" x1="210.22" y1="447.83" x2="208.9196" y2="585.676">
			<stop  offset="0" style="stop-color:#EE4036"/>
			<stop  offset="1" style="stop-color:#EB008B"/>
		</linearGradient>
		<line class="st3" x1="215.32" y1="452.5" x2="205.12" y2="443.2"/>
		<linearGradient id="SVGID_5_" gradientUnits="userSpaceOnUse" x1="144.4815" y1="447.2098" x2="143.181" y2="585.0558">
			<stop  offset="0" style="stop-color:#EE4036"/>
			<stop  offset="1" style="stop-color:#EB008B"/>
		</linearGradient>
		<line class="st4" x1="149.59" y1="443.2" x2="139.37" y2="452.5"/>
		<linearGradient id="SVGID_6_" gradientUnits="userSpaceOnUse" x1="83.625" y1="446.6357" x2="82.3245" y2="584.4817">
			<stop  offset="0" style="stop-color:#EE4036"/>
			<stop  offset="1" style="stop-color:#EB008B"/>
		</linearGradient>
		<line class="st5" x1="88.22" y1="496.52" x2="78" y2="505.83"/>
		<linearGradient id="SVGID_7_" gradientUnits="userSpaceOnUse" x1="177.5661" y1="447.5219" x2="176.2657" y2="585.3679">
			<stop  offset="0" style="stop-color:#EE4036"/>
			<stop  offset="1" style="stop-color:#EB008B"/>
		</linearGradient>
		<line class="st6" x1="180.99" y1="573.16" x2="171.69" y2="581.64"/>
		<linearGradient id="SVGID_8_" gradientUnits="userSpaceOnUse" x1="254.4118" y1="448.2469" x2="253.1113" y2="586.0929">
			<stop  offset="0" style="stop-color:#EE4036"/>
			<stop  offset="1" style="stop-color:#EB008B"/>
		</linearGradient>
		<line class="st7" x1="259.29" y1="476.74" x2="249.08" y2="467.44"/>
	</g>
	<linearGradient id="SVGID_9_" gradientUnits="userSpaceOnUse" x1="362.0659" y1="449.2625" x2="360.7655" y2="587.1085">
		<stop  offset="0" style="stop-color:#EE4036"/>
		<stop  offset="1" style="stop-color:#EB008B"/>
	</linearGradient>
	<polygon class="st8" points="407.1,445.18 316.88,445.18 316.88,468.92 349.53,468.92 349.53,583.68 374.46,583.68 374.46,468.92 
		407.1,468.92 	"/>
	<linearGradient id="SVGID_10_" gradientUnits="userSpaceOnUse" x1="458.0401" y1="450.1679" x2="456.7396" y2="588.0139">
		<stop  offset="0" style="stop-color:#EE4036"/>
		<stop  offset="1" style="stop-color:#EB008B"/>
	</linearGradient>
	<path class="st9" d="M496.53,549.25v-0.2l-24.34-2.38v3.36c0,6.53-5.34,11.87-11.87,11.87h-6.13c-6.53,0-11.87-5.34-11.87-11.87
		v-12.27h54.21V517.2c0-20.97-15.04-36.4-36.21-36.4h-6.13c-21.17,0-36.21,15.43-36.21,36.4v32.05c0,20.97,15.04,36.41,36.21,36.41
		h6.13C481.49,585.65,496.53,570.22,496.53,549.25z M442.32,516.4c0-6.53,5.34-11.87,11.87-11.87h6.13
		c6.53,0,11.87,5.34,11.87,11.87v6.14h-29.88V516.4z"/>
	<linearGradient id="SVGID_11_" gradientUnits="userSpaceOnUse" x1="537.9798" y1="450.9221" x2="536.6794" y2="588.768">
		<stop  offset="0" style="stop-color:#EE4036"/>
		<stop  offset="1" style="stop-color:#EB008B"/>
	</linearGradient>
	<rect x="525.21" y="445.18" class="st10" width="24.34" height="138.5"/>
	<linearGradient id="SVGID_12_" gradientUnits="userSpaceOnUse" x1="592.9751" y1="451.4409" x2="591.6746" y2="589.2869">
		<stop  offset="0" style="stop-color:#EE4036"/>
		<stop  offset="1" style="stop-color:#EB008B"/>
	</linearGradient>
	<rect x="580.21" y="445.18" class="st11" width="24.33" height="138.5"/>
	<linearGradient id="SVGID_13_" gradientUnits="userSpaceOnUse" x1="647.412" y1="451.9544" x2="646.1116" y2="589.8004">
		<stop  offset="0" style="stop-color:#EE4036"/>
		<stop  offset="1" style="stop-color:#EB008B"/>
	</linearGradient>
	<rect x="635.21" y="445.18" class="st12" width="24.33" height="20.38"/>
	<linearGradient id="SVGID_14_" gradientUnits="userSpaceOnUse" x1="648.1464" y1="451.9614" x2="646.846" y2="589.8074">
		<stop  offset="0" style="stop-color:#EE4036"/>
		<stop  offset="1" style="stop-color:#EB008B"/>
	</linearGradient>
	<rect x="635.21" y="482.77" class="st13" width="24.33" height="100.91"/>
	<linearGradient id="SVGID_15_" gradientUnits="userSpaceOnUse" x1="733.9048" y1="452.7704" x2="732.6044" y2="590.6164">
		<stop  offset="0" style="stop-color:#EE4036"/>
		<stop  offset="1" style="stop-color:#EB008B"/>
	</linearGradient>
	<path class="st14" d="M714.15,484.35v-1.19c0-9.3,6.53-16.23,15.83-16.23h6.13c9.3,0,15.83,6.92,15.83,16.23v6.92l24.93-2.37v-4.55
		c0-22.75-17.41-39.97-40.36-39.97h-6.92c-22.95,0-40.36,17.21-40.36,39.97v1.19c0,53.42,63.71,29.88,63.71,59.55v1.78
		c0,9.3-6.53,16.22-15.83,16.22h-8.11c-9.3,0-15.83-6.92-15.83-16.22v-6.92l-24.93,2.37v4.55c0,22.75,17.41,39.97,40.36,39.97h8.9
		c22.95,0,40.36-17.21,40.36-39.97v-1.78C777.86,492.46,714.15,512.25,714.15,484.35z"/>
	<linearGradient id="SVGID_16_" gradientUnits="userSpaceOnUse" x1="820.5741" y1="453.588" x2="819.2737" y2="591.434">
		<stop  offset="0" style="stop-color:#EE4036"/>
		<stop  offset="1" style="stop-color:#EB008B"/>
	</linearGradient>
	<rect x="807.54" y="445.18" class="st15" width="24.93" height="138.5"/>
	<linearGradient id="SVGID_17_" gradientUnits="userSpaceOnUse" x1="934.9203" y1="454.6668" x2="933.6199" y2="592.5128">
		<stop  offset="0" style="stop-color:#EE4036"/>
		<stop  offset="1" style="stop-color:#EB008B"/>
	</linearGradient>
	<polygon class="st16" points="892.01,475.84 892.81,481.78 922.29,583.68 946.42,583.68 975.91,481.78 976.7,475.84 976.7,583.68 
		1001.63,583.68 1001.63,445.18 965.22,445.18 934.75,550.63 934.36,555.78 933.96,550.63 903.49,445.18 867.09,445.18 
		867.09,583.68 892.01,583.68 	"/>
	<linearGradient id="SVGID_18_" gradientUnits="userSpaceOnUse" x1="930.2538" y1="454.6227" x2="928.9534" y2="592.4688">
		<stop  offset="0" style="stop-color:#EE4036"/>
		<stop  offset="1" style="stop-color:#EB008B"/>
	</linearGradient>
	<rect x="855.32" y="621.11" class="st17" width="146.68" height="5.13"/>
	<g>
		<g>
			<path class="st18" d="M339.08,633.86c-1.87,1.94-4.03,2.91-6.47,2.91c-1.55,0-3.01-0.34-4.38-1.03s-2.56-1.6-3.58-2.76
				c-1.02-1.15-1.82-2.48-2.4-3.99c-0.58-1.51-0.87-3.07-0.87-4.69c0-1.67,0.29-3.24,0.87-4.71c0.58-1.47,1.39-2.76,2.43-3.87
				c1.04-1.11,2.26-1.99,3.66-2.64c1.4-0.65,2.93-0.98,4.57-0.98c2.21,0,4.11,0.48,5.68,1.44c1.57,0.96,2.76,2.25,3.56,3.87
				l-3.53,2.6c-0.59-1.21-1.41-2.13-2.45-2.77c-1.04-0.64-2.19-0.96-3.44-0.96c-1,0-1.91,0.22-2.72,0.65
				c-0.81,0.43-1.5,1.03-2.07,1.78c-0.57,0.75-1.02,1.62-1.34,2.6c-0.32,0.98-0.48,2.02-0.48,3.12c0,1.14,0.17,2.21,0.51,3.2
				c0.34,0.99,0.82,1.85,1.44,2.59c0.62,0.73,1.34,1.31,2.17,1.73c0.83,0.42,1.75,0.63,2.76,0.63c2.24,0,4.26-1.11,6.06-3.32v-1.71
				h-4.9v-3.46h8.8v12.5h-3.9V633.86z"/>
			<path class="st18" d="M353.91,636.6v-24.31h4.73v20.17h12.4v4.14H353.91z"/>
			<path class="st18" d="M390.07,636.77c-1.71,0-3.28-0.35-4.69-1.04c-1.42-0.7-2.63-1.62-3.65-2.77c-1.02-1.15-1.8-2.47-2.35-3.96
				c-0.55-1.48-0.82-3-0.82-4.55c0-1.62,0.29-3.17,0.87-4.66c0.58-1.48,1.39-2.8,2.43-3.94c1.04-1.14,2.27-2.05,3.68-2.72
				c1.42-0.67,2.96-1.01,4.62-1.01c1.71,0,3.28,0.36,4.69,1.08c1.42,0.72,2.62,1.66,3.63,2.83c1,1.16,1.78,2.49,2.33,3.97
				c0.55,1.48,0.82,2.99,0.82,4.52c0,1.62-0.29,3.17-0.87,4.64c-0.58,1.47-1.39,2.77-2.41,3.9s-2.25,2.03-3.66,2.71
				C393.28,636.43,391.74,636.77,390.07,636.77z M383.32,624.44c0,1.05,0.15,2.07,0.46,3.05c0.31,0.98,0.75,1.85,1.34,2.6
				c0.58,0.75,1.3,1.36,2.14,1.81c0.84,0.46,1.8,0.68,2.88,0.68c1.1,0,2.06-0.23,2.89-0.7c0.83-0.47,1.54-1.09,2.11-1.87
				c0.57-0.78,1-1.65,1.3-2.62c0.3-0.97,0.44-1.96,0.44-2.96c0-1.05-0.16-2.07-0.48-3.05c-0.32-0.98-0.77-1.85-1.35-2.6
				s-1.29-1.35-2.12-1.8c-0.83-0.44-1.78-0.67-2.83-0.67c-1.1,0-2.06,0.23-2.89,0.7c-0.83,0.47-1.54,1.08-2.12,1.85
				c-0.58,0.77-1.02,1.63-1.32,2.6C383.47,622.45,383.32,623.44,383.32,624.44z"/>
			<path class="st18" d="M431.75,630.33c0,1.03-0.21,1.93-0.62,2.71c-0.41,0.78-0.98,1.43-1.69,1.95c-0.72,0.53-1.55,0.92-2.5,1.2
				c-0.95,0.27-1.96,0.41-3.03,0.41h-11.75v-24.31h13.01c0.84,0,1.61,0.18,2.29,0.55c0.68,0.37,1.27,0.84,1.75,1.42
				c0.48,0.58,0.85,1.24,1.11,1.99c0.26,0.74,0.39,1.49,0.39,2.24c0,1.19-0.3,2.3-0.89,3.34c-0.59,1.04-1.46,1.81-2.6,2.31
				c1.39,0.41,2.49,1.15,3.3,2.21C431.34,627.4,431.75,628.73,431.75,630.33z M416.88,616.32v6.13h6.3c0.8,0,1.48-0.27,2.04-0.82
				c0.56-0.55,0.84-1.3,0.84-2.26c0-0.94-0.26-1.68-0.77-2.23c-0.51-0.55-1.15-0.82-1.9-0.82H416.88z M426.99,629.44
				c0-0.43-0.07-0.85-0.22-1.25c-0.15-0.4-0.35-0.75-0.6-1.04c-0.25-0.3-0.55-0.53-0.89-0.7c-0.34-0.17-0.72-0.26-1.13-0.26h-7.26
				v6.4h7.02c0.43,0,0.84-0.08,1.22-0.24c0.38-0.16,0.7-0.38,0.98-0.67c0.27-0.29,0.49-0.62,0.65-1.01
				C426.91,630.28,426.99,629.87,426.99,629.44z"/>
			<path class="st18" d="M439.35,636.6l9.59-24.31h3.84l9.55,24.31h-5l-2.23-6.06h-8.53l-2.23,6.06H439.35z M450.85,617.39
				l-3.49,9.83h6.88L450.85,617.39z"/>
			<path class="st18" d="M471.78,636.6v-24.31h4.73v20.17h12.4v4.14H471.78z"/>
			<path class="st18" d="M511.47,624.27c0-1.48,0.26-2.95,0.79-4.4c0.52-1.45,1.28-2.74,2.28-3.89s2.21-2.07,3.65-2.77
				c1.44-0.71,3.08-1.06,4.93-1.06c2.17,0,4.05,0.49,5.63,1.47c1.59,0.98,2.76,2.26,3.51,3.84l-3.63,2.5
				c-0.27-0.68-0.63-1.26-1.06-1.73c-0.43-0.47-0.91-0.84-1.42-1.11c-0.51-0.27-1.04-0.47-1.59-0.6c-0.55-0.13-1.07-0.19-1.57-0.19
				c-1.12,0-2.1,0.24-2.95,0.72c-0.84,0.48-1.55,1.1-2.11,1.87c-0.56,0.77-0.98,1.63-1.27,2.6s-0.43,1.93-0.43,2.89
				c0,1.07,0.17,2.11,0.5,3.1s0.8,1.87,1.4,2.62c0.6,0.75,1.33,1.36,2.17,1.81c0.84,0.46,1.77,0.68,2.77,0.68
				c0.52,0,1.06-0.07,1.61-0.21c0.55-0.14,1.08-0.35,1.59-0.65c0.51-0.3,0.99-0.68,1.42-1.15c0.43-0.47,0.79-1.03,1.06-1.7
				l3.87,2.23c-0.37,0.91-0.9,1.72-1.59,2.41c-0.7,0.7-1.49,1.28-2.38,1.76c-0.89,0.48-1.83,0.85-2.81,1.1
				c-0.98,0.25-1.95,0.38-2.91,0.38c-1.69,0-3.24-0.37-4.64-1.1c-1.4-0.73-2.61-1.68-3.63-2.86c-1.02-1.18-1.8-2.51-2.36-4.01
				C511.74,627.35,511.47,625.82,511.47,624.27z"/>
			<path class="st18" d="M552.52,636.77c-1.71,0-3.28-0.35-4.69-1.04c-1.42-0.7-2.63-1.62-3.65-2.77c-1.02-1.15-1.8-2.47-2.35-3.96
				c-0.55-1.48-0.82-3-0.82-4.55c0-1.62,0.29-3.17,0.87-4.66c0.58-1.48,1.39-2.8,2.43-3.94c1.04-1.14,2.27-2.05,3.68-2.72
				c1.42-0.67,2.96-1.01,4.62-1.01c1.71,0,3.28,0.36,4.69,1.08c1.42,0.72,2.62,1.66,3.63,2.83c1,1.16,1.78,2.49,2.33,3.97
				c0.55,1.48,0.82,2.99,0.82,4.52c0,1.62-0.29,3.17-0.87,4.64c-0.58,1.47-1.39,2.77-2.41,3.9s-2.25,2.03-3.66,2.71
				C555.73,636.43,554.19,636.77,552.52,636.77z M545.78,624.44c0,1.05,0.15,2.07,0.46,3.05c0.31,0.98,0.75,1.85,1.34,2.6
				c0.58,0.75,1.3,1.36,2.14,1.81c0.84,0.46,1.8,0.68,2.88,0.68c1.1,0,2.06-0.23,2.89-0.7c0.83-0.47,1.54-1.09,2.11-1.87
				c0.57-0.78,1-1.65,1.3-2.62c0.3-0.97,0.44-1.96,0.44-2.96c0-1.05-0.16-2.07-0.48-3.05c-0.32-0.98-0.77-1.85-1.35-2.6
				c-0.58-0.75-1.29-1.35-2.12-1.8c-0.83-0.44-1.78-0.67-2.83-0.67c-1.1,0-2.06,0.23-2.89,0.7c-0.83,0.47-1.54,1.08-2.12,1.85
				c-0.58,0.77-1.02,1.63-1.32,2.6C545.93,622.45,545.78,623.44,545.78,624.44z"/>
			<path class="st18" d="M579.34,621.02v15.58h-4.73v-24.31h3.66l12.67,15.96v-15.92h4.73v24.28h-3.84L579.34,621.02z"/>
			<path class="st18" d="M612.31,621.02v15.58h-4.73v-24.31h3.66l12.67,15.96v-15.92h4.73v24.28h-3.84L612.31,621.02z"/>
			<path class="st18" d="M657.45,632.45v4.14h-16.88v-24.31h16.57v4.14h-11.85v5.86h10.24v3.84h-10.24v6.34H657.45z"/>
			<path class="st18" d="M666.66,624.27c0-1.48,0.26-2.95,0.79-4.4c0.52-1.45,1.28-2.74,2.28-3.89s2.21-2.07,3.65-2.77
				c1.44-0.71,3.08-1.06,4.93-1.06c2.17,0,4.05,0.49,5.63,1.47c1.59,0.98,2.76,2.26,3.51,3.84l-3.63,2.5
				c-0.27-0.68-0.63-1.26-1.06-1.73c-0.43-0.47-0.91-0.84-1.42-1.11c-0.51-0.27-1.04-0.47-1.59-0.6c-0.55-0.13-1.07-0.19-1.57-0.19
				c-1.12,0-2.1,0.24-2.95,0.72c-0.84,0.48-1.55,1.1-2.11,1.87c-0.56,0.77-0.98,1.63-1.27,2.6s-0.43,1.93-0.43,2.89
				c0,1.07,0.17,2.11,0.5,3.1c0.33,0.99,0.8,1.87,1.4,2.62c0.6,0.75,1.33,1.36,2.17,1.81c0.84,0.46,1.77,0.68,2.77,0.68
				c0.52,0,1.06-0.07,1.61-0.21c0.55-0.14,1.08-0.35,1.59-0.65c0.51-0.3,0.99-0.68,1.42-1.15c0.43-0.47,0.79-1.03,1.06-1.7
				l3.87,2.23c-0.37,0.91-0.9,1.72-1.59,2.41c-0.7,0.7-1.49,1.28-2.38,1.76c-0.89,0.48-1.83,0.85-2.81,1.1
				c-0.98,0.25-1.95,0.38-2.91,0.38c-1.69,0-3.24-0.37-4.64-1.1c-1.4-0.73-2.61-1.68-3.63-2.86c-1.02-1.18-1.8-2.51-2.36-4.01
				C666.94,627.35,666.66,625.82,666.66,624.27z"/>
			<path class="st18" d="M715.94,616.43h-7.74v20.17h-4.73v-20.17h-7.77v-4.14h20.24V616.43z"/>
			<path class="st18" d="M725.83,636.6v-24.28h4.73v24.28H725.83z"/>
			<path class="st18" d="M744.91,612.28l6.57,18.39l6.51-18.39h4.97l-9.49,24.31h-3.97l-9.55-24.31H744.91z"/>
			<path class="st18" d="M772.37,636.6v-24.28h4.73v24.28H772.37z"/>
			<path class="st18" d="M807.2,616.43h-7.74v20.17h-4.73v-20.17h-7.77v-4.14h20.24V616.43z"/>
			<path class="st18" d="M819.56,612.28l5.99,11.71l6.1-11.71h5.1l-8.84,15.82v8.49h-4.69v-8.56l-8.8-15.75H819.56z"/>
		</g>
	</g>
</g>
</svg>
