<?xml version="1.0" encoding="UTF-8"?>
<svg id="Layer_2" xmlns="http://www.w3.org/2000/svg" viewBox="0 0 873.79 1000">
  <defs>
    <style>
      .cls-1 {
        fill: #f96449;
      }

      .cls-2 {
        fill: #0d54ff;
      }
    </style>
  </defs>
  <g id="a">
    <g>
      <path class="cls-1" d="M584.9,440.08l-38.66,227.16c-7.98,40.88-34.9,51.94-58.8,51.94h-179.07l75.46-416.06c-75.34-34.45-152.26-56.96-213.53-56.96s-105.6,15.76-137.08,53.53C11.05,326.54,0,359.67,0,399.09c0,118.29,93.04,282.42,252.27,416.3,141.95,118.35,298.11,184.61,411.77,184.61,56.71,0,102.45-17.36,132.47-52.02,23.63-26.82,33.06-61.6,33.06-101.01,0-114.94-93.71-276.06-244.67-406.89Z"/>
      <path class="cls-2" d="M263.4,0c-28.42,0-52.05,19.08-58.34,49.02l-25.19,137.12h225.17l-96.66,533.04h179.07c23.9,0,50.81-11.07,58.8-51.94l81.89-481.1h161.96c28.53,0,52.1-18.95,58.42-48.86L873.79,0H263.4Z"/>
    </g>
  </g>
</svg>