<?xml version="1.0" encoding="utf-8"?>
<!-- Generator: Adobe Illustrator 27.3.1, SVG Export Plug-In . SVG Version: 6.00 Build 0)  -->
<svg version="1.1" id="Layer_1" xmlns="http://www.w3.org/2000/svg" xmlns:xlink="http://www.w3.org/1999/xlink" x="0px" y="0px"
	 viewBox="0 0 514.9 463.1" style="enable-background:new 0 0 514.9 463.1;" xml:space="preserve">
<g>
	<g>
		<g>
			<g>
				<g>
					<g>
						<path d="M41.6,312.4l2.3-13.1h54.2l-2.2,13.1H75.9l-10,56.7h-15l10-56.7H41.6z"/>
						<path d="M96.9,315.9h12v7.6c3.5-6.4,8.9-9.1,14-9.1c3.3,0,6.4,0.8,8.3,2.1l-4.4,12.1c-2-1-4.3-1.8-7-1.8
							c-5.1,0-9.3,3.8-10.5,9.3l-5.9,33.1H88.6l7.8-44L96.9,315.9z"/>
						<path d="M130.9,357.2c0-1.6,0.2-3.8,0.5-5.7l6.3-35.6h14.6l-5.9,33.6c-0.2,1.4-0.4,3-0.4,4.2c-0.2,3.7,0.9,5.7,5.6,5.7
							c4.8,0,9.3-4.4,10.3-9.1l6-34.3h14.7l-7.7,43.8l-0.7,9.4h-12.5l0.2-5.8h-0.3c-4.1,4.8-9.4,7.1-15.9,7.1
							C135.8,370.5,130.9,366.1,130.9,357.2z"/>
						<path d="M183.4,362.7l7-11.9c3.8,2.7,12,6.7,18.6,6.7c5.5,0,11.1-2,11.1-8.7c0-5.7-6.5-7.3-12.9-10.1
							c-7.1-3-14.9-7.1-14.9-18.2c0-14.6,10.8-22.6,26.6-22.6c10.6,0,19.7,5,24.5,10.4l-9.4,9.7c-4.7-4.4-10.4-7.3-15.9-7.3
							c-5,0-9.9,1.7-9.9,7.5c0,5.7,6.1,7.9,12.5,10.7c7.3,3.1,15.6,7.3,15.6,18.3c0,14.2-10.9,23.3-27.8,23.3
							C196.9,370.5,187,365.8,183.4,362.7z"/>
						<path d="M242.7,349.4c0-18,11.8-35.1,31.4-35.1c9.9,0,15.7,4.9,15.7,12.9c0,18.1-21,20.7-32.3,21.1
							c-0.3,5.8,2.1,11.2,9.9,11.2c5.7,0,10.4-2.5,13.6-4.5l3.7,9.6c-2.4,1.8-10,6.1-21.1,6.1C248.9,370.7,242.7,361.7,242.7,349.4z
							 M276.8,329c0-2.7-2-4.2-4.7-4.2c-7.7,0-12,7.6-13.3,14C264.8,338.8,276.8,336.7,276.8,329z"/>
						<path d="M300.4,315.9h12.3l-0.1,6.3c4.4-4.9,10.2-7.9,17.2-7.9c8.8,0,14,4.1,14.1,12.9c0,1.7-0.3,4-0.6,6l-6.4,35.9h-14.6
							l5.9-33.5c0.3-1.5,0.3-2.8,0.4-4.2c0.1-3.4-0.9-5.8-4.9-5.8c-5.7,0-10.1,4.3-10.9,9.3l-6.1,34.1h-14.5l7.6-43.4L300.4,315.9z"
							/>
						<path d="M345.7,364.8l5.6-10c3.4,2.2,9.4,5.1,14.7,5.1c4.4,0,7.7-1.9,7.7-5.7c0-3.9-4.2-5.5-8.6-7.1
							c-5.8-2.2-12.7-4.9-12.7-14.8c0-11.9,9.7-18.1,21.7-18.1c8.2,0,15.9,3.6,19.7,8.1l-7.9,7.9c-3.8-3.4-7.9-5.4-11.7-5.4
							c-4.2,0-7.2,1.8-7.2,5.5c0,4.3,4.5,5.6,10,7.9c5.7,2.3,11.4,5.9,11.4,14.3c0,11.9-9,18.2-22.8,18.2
							C356.1,370.7,348.4,367,345.7,364.8z"/>
						<path d="M394.9,349.4c0-18,11.8-35.1,31.4-35.1c9.9,0,15.7,4.9,15.7,12.9c0,18.1-21,20.7-32.3,21.1
							c-0.3,5.8,2.1,11.2,9.9,11.2c5.7,0,10.4-2.5,13.6-4.5l3.7,9.6c-2.4,1.8-10,6.1-21.1,6.1C401.1,370.7,394.9,361.7,394.9,349.4z
							 M428.9,329c0-2.7-2-4.2-4.7-4.2c-7.7,0-12,7.6-13.3,14C416.9,338.8,428.9,336.7,428.9,329z"/>
					</g>
				</g>
			</g>
		</g>
		<g>
			<path d="M442,302v-2.7h12.7v2.7h-4.9v14h-3.1v-14H442z"/>
			<path d="M460.6,299.3l4.2,10.9h0.1l4.3-10.9h3.4l0.9,16.7h-2.9l-0.6-11.5h-0.1l-3.9,9.6h-2.3l-3.8-9.5h-0.1l-0.6,11.4h-2.9
				l1-16.7H460.6z"/>
		</g>
	</g>
	<g>
		<path d="M283.2,118.2c0.8,0,1.5-0.3,2-0.8c0.5-0.5,0.8-1.2,0.8-2c0-0.8-0.3-1.5-0.8-2c-0.5-0.5-1.2-0.8-2-0.8
			c-0.8,0-1.5,0.3-2,0.8c-0.5,0.5-0.8,1.2-0.8,2c0,0.8,0.3,1.5,0.8,2C281.7,117.9,282.4,118.2,283.2,118.2z"/>
		<path d="M258.4,204.9c0.8,0,1.5-0.3,2-0.8c0.5-0.5,0.8-1.2,0.8-2c0-0.8-0.3-1.5-0.8-2c-0.5-0.5-1.2-0.8-2-0.8
			c-0.8,0-1.5,0.3-2,0.8c-0.5,0.5-0.8,1.2-0.8,2c0,0.8,0.3,1.5,0.8,2C256.9,204.6,257.6,204.9,258.4,204.9z"/>
		<path d="M348.2,142.5h-41.2c-1.9,0-3.4-1.5-3.4-3.4c0-1.9,1.5-3.4,3.4-3.4h41.2c1-2.7,3.2-4.7,5.9-5.7
			c-1.3-14.5-4.1-28.1-8.4-38.9c-6.1-13.6-18.2-25.8-31.8-31.8c-31.3-12.3-86.5-12.3-117.9,0c-13.6,6.1-25.8,18.2-31.8,31.8
			c-12.3,31.3-12.3,86.5,0,117.9c6.1,13.6,18.2,25.8,31.8,31.8c31.3,12.3,86.5,12.3,117.9,0c13.6-6.1,25.8-18.2,31.8-31.8
			c6.3-16.1,9.4-38.4,9.2-60.5C351.8,147.7,349.3,145.4,348.2,142.5z M312.5,173c0.9-6.9,1.5-13.8,1.6-20.8c0-1.9,1.6-3.4,3.5-3.4
			c1.9,0,3.4,1.6,3.4,3.5c-0.1,7.2-0.6,14.4-1.6,21.6l0,0c-0.3,1.9-2,3.2-3.8,2.9C313.5,176.5,312.2,174.8,312.5,173z M304.6,196.7
			c1.4-1.5,2.6-3,3.5-4.3c0.6-0.8,0.9-1.5,1.1-1.9l0,0c0.7-1.8,2.6-2.6,4.4-2c1.8,0.7,2.6,2.6,2,4.4c-0.4,1.1-1.1,2.2-1.8,3.3
			c-0.7,1.1-1.6,2.2-2.6,3.4c-1.9,2.3-4.2,4.6-6.5,6.5c-1.4,1.2-3.6,1-4.8-0.4c-1.2-1.4-1-3.6,0.4-4.8
			C301.6,199.7,303.2,198.2,304.6,196.7z M322,86.9c1.4-1.2,3.6-1,4.8,0.4c2,2.3,3.7,4.8,5.2,7.2c1.5,2.4,2.6,4.8,3.3,7.2l0,0.2
			c1.4,5.5,2.5,11,3.4,16.5c0.3,1.9-1,3.6-2.8,3.9c-1.9,0.3-3.6-1-3.9-2.8c-0.9-5.3-2-10.5-3.3-15.8c-0.5-1.6-1.4-3.5-2.6-5.6
			c-1.2-2-2.8-4.2-4.6-6.3l0,0C320.3,90.2,320.5,88.1,322,86.9z M316.2,129.4c-1.9,0.3-3.6-1-3.8-2.9c-0.6-4-1.3-7.9-2.1-11.9
			c-0.9-4.5-3.1-8.6-6.2-11.8c-0.6-0.7-1.3-1.3-1.9-1.9c-3.3-3.1-7.4-5.2-11.9-6.2c-3-0.6-6-1.2-9-1.7l0,0c-1.9-0.3-3.1-2-2.8-3.9
			c0.3-1.9,2-3.1,3.9-2.8c3.1,0.5,6.3,1.1,9.4,1.7c5.7,1.2,10.9,3.9,15.2,7.9c0.7,0.7,1.5,1.4,2.2,2.2c4,4.2,6.7,9.5,7.9,15.1
			c0.9,4.1,1.6,8.2,2.2,12.4C319.4,127.5,318.1,129.2,316.2,129.4z M266.3,64c9.5,0.6,19,1.8,28.5,3.8c0.4,0.1,0.8,0.2,1.3,0.3
			c0.5,0.1,1,0.3,1.6,0.5c1.1,0.4,2.5,0.9,4,1.4c2.9,1.1,6.3,2.5,9.2,3.9c0.5,0.2,0.9,0.5,1.3,0.8c0.5,0.3,1,0.6,1.5,1
			c1.1,0.7,2.3,1.6,3.5,2.6c1.5,1.1,1.8,3.3,0.6,4.8c-1.1,1.5-3.3,1.8-4.8,0.6c-1.7-1.3-3.5-2.6-4.5-3.2c-0.3-0.2-0.6-0.4-0.6-0.4
			c-2.3-1.1-5-2.3-7.6-3.2c-2.5-1-4.8-1.8-6.1-2.1c-0.4-0.1-0.6-0.2-0.8-0.2c-9.2-1.9-18.4-3.1-27.5-3.7c-1.9-0.1-3.3-1.7-3.2-3.6
			C262.8,65.3,264.4,63.9,266.3,64z M179.1,92.7c2.5-3.8,5.7-7.6,9.3-11c2.9-2.8,5.9-5.3,9-7.4c3.1-2.1,6.2-3.7,9.2-4.6l0.2,0
			c16-4,32.2-6,48.2-6c1.9,0,3.4,1.5,3.4,3.4s-1.5,3.4-3.4,3.4c-15.4,0-31,2-46.5,5.8c-2.1,0.6-4.7,1.9-7.3,3.7
			c-2.7,1.8-5.5,4.1-8.1,6.6c-3.2,3.1-6.1,6.6-8.3,9.9l0,0c-1,1.6-3.2,2-4.7,1C178.5,96.4,178,94.3,179.1,92.7z M196.5,135.7
			c-0.2,1.9-1.8,3.3-3.7,3.1c-1.9-0.2-3.3-1.8-3.1-3.7c0.6-7.3,1.7-14.6,3.3-21.9c1.2-5.6,3.9-10.8,7.8-15c0.8-0.8,1.5-1.6,2.3-2.3
			c4.2-3.9,9.3-6.6,14.9-7.8c6.2-1.3,12.4-2.3,18.6-3c1.9-0.2,3.5,1.2,3.7,3c0.2,1.9-1.2,3.5-3,3.7c-6,0.6-11.9,1.6-17.9,2.9
			c-4.4,0.9-8.4,3-11.6,6.1c-0.7,0.7-1.4,1.4-2.1,2.1c-3.1,3.2-5.2,7.3-6.1,11.8C198.1,121.6,197.1,128.6,196.5,135.7L196.5,135.7z
			 M170.5,123.2c0.8-5.5,1.8-11,3-16.5c0.4-1.8,2.2-3,4.1-2.6c1.8,0.4,3,2.2,2.6,4.1c-1.2,5.3-2.2,10.6-2.9,16l0,0
			c-0.3,1.9-2,3.2-3.8,2.9C171.5,126.7,170.2,125,170.5,123.2z M191,216.2c-1.4,1.3-3.5,1.2-4.8-0.1c-2.7-2.8-5.1-5.8-7.1-8.8
			c-2-3-3.5-6-4.4-8.9l0-0.2c-4-16-6-32.1-6-48.2c0-3.2,0.1-6.4,0.2-9.6c0.1-1.9,1.7-3.3,3.6-3.2s3.3,1.7,3.2,3.6
			c-0.2,3.1-0.2,6.1-0.2,9.2c0,15.5,1.9,31.1,5.8,46.5c0.6,2,1.8,4.5,3.5,7c1.7,2.6,3.9,5.3,6.3,7.9l0,0
			C192.4,212.8,192.3,214.9,191,216.2z M191.3,177.7c-1.4-9-2.2-18.1-2.2-27.2c0-1.9,1.5-3.4,3.4-3.4c1.9,0,3.4,1.5,3.4,3.4
			c0,8.7,0.7,17.4,2.1,26.2l0,0c0.3,1.9-1,3.6-2.8,3.9C193.3,180.8,191.6,179.6,191.3,177.7z M197.4,198c-0.7-0.8-1.2-1.7-1.8-2.5
			c-0.5-0.8-0.9-1.6-1.3-2.5c-0.7-1.8,0.2-3.7,2-4.4c1.8-0.7,3.7,0.2,4.4,2c0.1,0.3,0.4,0.8,0.7,1.3c0.4,0.6,0.8,1.2,1.4,1.9
			c4.9,6.4,12.2,10.7,20.2,12.3c4.8,0.9,9.5,1.6,14.3,2.1l0,0c1.9,0.2,3.2,1.9,3,3.7c-0.2,1.9-1.9,3.2-3.7,3
			c-5-0.5-9.9-1.3-14.9-2.2C212.2,210.9,203.5,205.7,197.4,198z M244.7,236.1c-5.8-0.3-11.6-0.9-17.5-1.7c-6.9-1-13.7-2.3-20.6-4
			c-1.8-0.5-2.9-2.3-2.5-4.1c0.5-1.8,2.3-2.9,4.1-2.5c6.6,1.7,13.2,3,19.9,3.9c5.6,0.8,11.2,1.4,16.8,1.7l0,0
			c1.9,0.1,3.3,1.7,3.2,3.6C248.2,234.8,246.6,236.2,244.7,236.1z M240.6,197c-5.3-5.3-8.6-12.7-8.6-20.8l0-33.6h-11.5
			c-0.9,0-1.8-0.4-2.4-1c-0.6-0.6-1-1.5-1-2.4v-6.9c0-0.9,0.3-1.7,0.9-2.3l37.2-40.7c0.6-0.7,1.6-1.1,2.5-1.1h6c0.9,0,1.8,0.4,2.4,1
			c0.6,0.6,1,1.5,1,2.4V112h7.1c0.5-1.3,1.2-2.4,2.2-3.4c1.7-1.7,4.2-2.8,6.8-2.8c2.6,0,5.1,1.1,6.8,2.8c1.7,1.7,2.8,4.2,2.8,6.8
			c0,2.6-1.1,5.1-2.8,6.8c-1.7,1.7-4.2,2.8-6.8,2.8c-2.6,0-5.1-1.1-6.8-2.8c-0.9-0.9-1.7-2.1-2.2-3.4h-10.5c-0.9,0-1.8-0.4-2.4-1
			c-0.6-0.6-1-1.5-1-2.4V95.1h-1.1l-35.3,38.6v2.2h11.5c0.9,0,1.8,0.4,2.4,1c0.6,0.6,1,1.5,1,2.4v37c0,6.2,2.5,11.9,6.6,15.9
			c1.6,1.6,3.4,2.9,5.4,4c0.2-0.3,0.5-0.5,0.7-0.8c1.7-1.7,4.2-2.8,6.8-2.8c2.6,0,5.1,1.1,6.8,2.8c0.9,0.9,1.7,2.1,2.2,3.4H283
			v-19.6h-16.8c-0.9,0-1.8-0.4-2.4-1c-0.6-0.6-1-1.5-1-2.4V139c0-0.9,0.4-1.8,1-2.4c0.6-0.6,1.5-1,2.4-1l20.2,0
			c1.9,0,3.4,1.5,3.4,3.4s-1.5,3.4-3.4,3.4l-16.8,0v29.9h16.8c0.9,0,1.8,0.4,2.4,1s1,1.5,1,2.4v26.4c0,0.9-0.4,1.8-1,2.4
			c-0.6,0.6-1.5,1-2.4,1h-19.1c-0.5,1.3-1.2,2.4-2.2,3.4c-1.7,1.7-4.2,2.8-6.8,2.8c-2.6,0-5.1-1.1-6.8-2.8c-1.6-1.6-2.6-3.8-2.8-6.2
			C245.8,201.3,243,199.3,240.6,197z M291.2,233c-12.1,2.3-24.2,3.4-36.3,3.4c-1.9,0-3.4-1.5-3.4-3.4c0-1.9,1.5-3.4,3.4-3.4
			c11.6,0,23.3-1.1,35-3.3l0,0c1.8-0.3,3.6,0.9,4,2.7C294.3,230.8,293.1,232.6,291.2,233z M339.3,177.6c-1,6.9-2.3,13.7-4,20.6
			l0,0.2c-0.7,2.4-1.9,4.8-3.4,7.3c-1.5,2.4-3.3,4.9-5.2,7.2c-4,4.7-8.8,9.2-13.6,12.5c-3.2,2.2-6.5,4-9.7,4.9
			c-1.8,0.5-3.7-0.5-4.2-2.3c-0.5-1.8,0.5-3.7,2.3-4.2c1.7-0.5,3.6-1.4,5.7-2.7c2.1-1.3,4.2-2.8,6.4-4.6c4.3-3.6,8.4-8,11.3-12.3
			c1.9-2.8,3.3-5.5,4-7.7c1.6-6.6,2.9-13.2,3.9-19.8l0,0c0.3-1.9,2-3.2,3.9-2.9C338.3,174.1,339.6,175.8,339.3,177.6z M340.7,165.6
			c-0.1,1.9-1.8,3.3-3.7,3.1c-1.9-0.1-3.3-1.8-3.1-3.7c0.2-2.5,0.3-4.9,0.4-7.4l0,0c0.1-1.9,1.7-3.3,3.5-3.3s3.3,1.7,3.3,3.5
			C341,160.5,340.9,163,340.7,165.6z"/>
	</g>
	<path d="M354.4,139.1C354.4,139.1,354.4,139.1,354.4,139.1c0-0.4,0.1-0.8,0.2-1.1c0.1-0.3,0.3-0.6,0.6-0.9c0.5-0.5,1.2-0.8,2-0.8
		c0.8,0,1.5,0.3,2,0.8c0.5,0.5,0.8,1.2,0.8,2c0,0.8-0.3,1.5-0.8,2c-0.5,0.5-1.2,0.8-2,0.8c-0.8,0-1.5-0.3-2-0.8
		c-0.2-0.2-0.3-0.4-0.5-0.6C354.5,140,354.4,139.6,354.4,139.1C354.4,139.1,354.4,139.1,354.4,139.1z"/>
	<g>
		<path d="M129.7,408.5c2.5-5.1,4.7-9.6,8.5-15.3h2.2c1.5,5.8,2,10.2,2.6,15.3h-1.9l-0.5-4.6h-6.6c-0.8,1.6-1.5,3.1-2.3,4.6H129.7z
			 M134.7,402.3h5.5c-0.3-2.4-0.7-4.8-1.3-7.3C137.3,397.5,136,399.9,134.7,402.3z"/>
		<path d="M159.5,408.5c-0.5-1.3-1.4-3.2-2.3-4.8c-0.6-1.1-0.8-1.5-1.6-1.5h-2l-1.2,6.3h-1.9l3-15.3h6c2.4,0,4.1,1.5,3.6,4.4
			c-0.6,3-2.4,4-4.1,4.4c-0.2,0-0.4,0.1-0.6,0.1c1.4,1.7,2.7,4.6,3.3,6.4H159.5z M158.3,400.5c1.2,0,2.5-0.6,3-3
			c0.3-1.7-0.5-2.7-2.2-2.7h-3.9l-1.1,5.6H158.3z"/>
		<path d="M170.8,397.5h0.1c2.6,0,5.2,1.3,4.4,5.6c-0.9,4.4-4,5.7-6.6,5.6c-0.2,0,0.1,0-0.1,0c-2.6,0.1-5.2-1.5-4.4-5.6
			C165,399,168.3,397.4,170.8,397.5z M170.6,398.9c-2.3,0-4,1.6-4.4,4.1c-0.5,2.6,0.5,4.2,2.8,4.2c2.3,0,3.9-1.5,4.4-4.2
			C174,400.4,172.9,398.9,170.6,398.9z"/>
		<path d="M184.8,407.4c-0.6,0.6-2.1,1.3-3.5,1.3c-2.5,0-4.3-0.6-3.5-5l1.2-6h2l-1.2,5.8c-0.5,2.8-0.2,3.8,2,3.8
			c1.1,0,2.4-0.7,3-1.3l1.6-8.3h1.9l-2.1,10.8h-1.6L184.8,407.4z"/>
		<path d="M190.4,399.2l0.3-1.5h1.9l0.5-2.6l2-0.6l-0.6,3.2h2.5l-0.3,1.5h-2.5l-1.2,6.2c-0.2,0.9-0.3,1.7,1.9,1.7h0.3l-0.3,1.5h-0.7
			c-2.6,0-3.6-0.6-3.1-3.1l1.2-6.3H190.4z"/>
		<path d="M197.7,403c0.7-3.6,3.5-5.5,6.2-5.5c3.2,0,4.6,2.2,4,5.7l-0.2,0.6h-8.2c-0.4,2.2,1.2,3.4,3,3.4c1.2,0,3.2-0.5,3.9-0.6
			c-0.1,0.5-0.2,1-0.3,1.5c-0.6,0.1-2.2,0.6-4.2,0.6C199,408.7,197,407,197.7,403z M206.2,402.4c0.4-2-0.7-3.4-2.5-3.4
			s-3.5,1.4-3.9,3.4H206.2z"/>
		<path d="M222.8,406.9c-0.7-3.8-1.8-7.7-3-11.2l-3.5,12.8h-1.8l4.2-15.3h2.3c1.4,4.1,2.2,7.5,3.1,11.5c2.4-4,4.6-7.4,7.6-11.5h2.3
			l-1.7,15.3h-1.8l1.5-12.8c-2.5,3.5-5.1,7.4-7.3,11.2H222.8z"/>
		<path d="M242.3,397.5h0.1c2.6,0,5.2,1.3,4.4,5.6c-0.9,4.4-4,5.7-6.6,5.6c-0.2,0,0.1,0-0.1,0c-2.6,0.1-5.2-1.5-4.4-5.6
			C236.5,399,239.8,397.4,242.3,397.5z M242.1,398.9c-2.3,0-4,1.6-4.4,4.1c-0.5,2.6,0.5,4.2,2.8,4.2c2.3,0,3.9-1.5,4.4-4.2
			C245.5,400.4,244.4,398.9,242.1,398.9z"/>
		<path d="M253.2,408.7c-1.4,0-2.2-0.7-2.5-1.2l-0.3,0.9h-1.8l3.1-15.8h1.9l-1,5.3c0.8-0.4,2.1-0.6,3-0.6c2.2,0,4.8,1.8,4.1,5.5
			C258.6,407.8,255,408.7,253.2,408.7z M254.3,398.9c-1,0-1.8,0.4-2.1,0.6L251,406c0.3,0.5,1.1,1.3,2.2,1.3c1.7,0,3.8-1.1,4.4-4.3
			C258,400.7,256.8,398.9,254.3,398.9z"/>
		<path d="M261.3,408.5l2.1-10.8h1.9l-2.1,10.8H261.3z M265.2,393.1c1,0,1.1,0.5,0.9,1.2c-0.1,0.6-0.5,1.2-1.4,1.2s-1-0.5-0.9-1.2
			C263.9,393.7,264.2,393.1,265.2,393.1z"/>
		<path d="M269,405.3c-0.2,0.9-0.3,1.7,1.9,1.7h0.3l-0.3,1.5h-0.7c-2.6,0-3.6-0.6-3.1-3.1l2.5-12.8h1.9L269,405.3z"/>
		<path d="M273.3,403c0.7-3.6,3.5-5.5,6.2-5.5c3.2,0,4.6,2.2,4,5.7l-0.2,0.6h-8.2c-0.4,2.2,1.2,3.4,3,3.4c1.2,0,3.2-0.5,3.9-0.6
			c-0.1,0.5-0.2,1-0.3,1.5c-0.6,0.1-2.2,0.6-4.2,0.6C274.6,408.7,272.6,407,273.3,403z M281.8,402.4c0.4-2-0.7-3.4-2.5-3.4
			s-3.5,1.4-3.9,3.4H281.8z"/>
		<path d="M301.7,408.2c-0.8,0.2-2.6,0.5-4.7,0.5c-3.6,0-6.9-2.7-5.9-7.9c1-5.1,5.3-7.9,9-7.9c2.1,0,3.8,0.3,4.5,0.5l-0.3,1.6
			c-2.5-0.4-2.9-0.4-3.9-0.4c-3.4,0-6.5,2.4-7.2,6.2c-0.8,3.9,1.7,6.2,4.8,6.2c1,0,1.4,0,4.1-0.4L301.7,408.2z"/>
		<path d="M311,397.5h0.1c2.6,0,5.2,1.3,4.4,5.6c-0.9,4.4-4,5.7-6.6,5.6c-0.2,0,0.1,0-0.1,0c-2.6,0.1-5.2-1.5-4.4-5.6
			C305.2,399,308.4,397.4,311,397.5z M310.8,398.9c-2.3,0-4,1.6-4.4,4.1c-0.5,2.6,0.5,4.2,2.8,4.2c2.3,0,3.9-1.5,4.4-4.2
			C314.1,400.4,313.1,398.9,310.8,398.9z"/>
		<path d="M331.7,397.5c2.3,0,4.3,0.6,3.5,5l-1.2,6h-2l1.1-5.8c0.5-2.8,0.2-3.8-2-3.8c-1.1,0-2.4,0.8-3,1.6l-1.6,8h-1.9l1.1-5.8
			c0.5-2.8,0.2-3.8-2-3.8c-1.1,0-2.4,0.7-3,1.3l-1.6,8.3h-1.9l2.1-10.8h1.8l0,0.8c0.5-0.5,1.8-1.1,3.2-1.1c1.6,0,2.9,0.2,3.4,1.6
			C328.8,398,330.4,397.5,331.7,397.5z"/>
		<path d="M341.9,408.7c-0.9,0-2.1-0.1-2.7-0.6l-0.9,4.8h-1.9l3-15.2h1.8l0,0.9c0.5-0.5,1.6-1.2,3-1.2c1.8,0,5.1,0.9,4.1,5.8
			C347.4,406.9,344.1,408.7,341.9,408.7z M343.5,398.9c-1.1,0-2.2,0.8-2.7,1.3l-1.3,6.5c0.3,0.2,0.9,0.6,1.9,0.6
			c2.5,0,4.4-1.7,4.8-4.1C346.8,400,345.2,398.9,343.5,398.9z"/>
		<path d="M358.1,408.5h-1.6l0-1c-0.5,0.5-2.2,1.3-3.6,1.3c-2.8,0-3.5-1.5-3.2-3.4c0.4-2.3,2.8-3.3,5-3.3c0.9,0,1.9,0.1,2.6,0.2
			l0.1-0.5c0.4-1.8-0.5-2.7-2-2.7c-1.8,0-3.4,0.8-3.8,0.9l0.3-1.5c0.4-0.1,2-0.9,4.2-0.9c2.1,0,3.9,1.1,3.2,4.6L358.1,408.5z
			 M357.1,403.5c-0.6-0.1-1.3-0.2-1.9-0.2c-2,0-3.3,0.6-3.6,2.1c-0.2,1,0.3,1.9,1.8,1.9c0.9,0,2.6-0.7,3.1-1.2L357.1,403.5z"/>
		<path d="M370.7,408.5h-2l1.1-5.8c0.5-2.8,0.2-3.8-2-3.8c-1.1,0-2.4,0.7-3,1.3l-1.6,8.3h-1.9l2.1-10.8h1.8l0,0.8
			c0.5-0.5,1.9-1.1,3.3-1.1c2.2,0,4.3,0.6,3.5,5L370.7,408.5z"/>
		<path d="M374.6,397.7h2.1l1.5,8.6l4.8-8.6h2.1l-6.4,10.8l-1.4,2.6c-1,1.8-2,2.1-3.8,2.1h-0.9l0.3-1.5l0.9,0c0.9-0.1,1.4-0.1,2-1.3
			l1-1.8L374.6,397.7z"/>
	</g>
</g>
</svg>
