<svg xmlns="http://www.w3.org/2000/svg" width="286" height="111" viewBox="0 0 286 111" version="1.1"><path d="M 19.110 17.367 C 18.297 18.347, 18.053 29.210, 18.250 55.617 L 18.525 92.500 18.763 55.450 C 18.937 28.241, 19.319 18.081, 20.200 17.200 C 20.860 16.540, 21.140 16, 20.822 16 C 20.505 16, 19.734 16.615, 19.110 17.367 M 189.150 19.244 L 189 22.988 107.250 23.250 L 25.500 23.512 107.281 23.756 C 196.502 24.022, 190.635 24.408, 189.724 18.334 C 189.367 15.947, 189.276 16.091, 189.150 19.244 M 199 20 L 199 24 212.500 24 L 226 24 226 20 L 226 16 212.500 16 L 199 16 199 20 M 257.778 54.557 L 258.055 86.017 142.027 85.758 C 78.212 85.616, 26 85.839, 26 86.254 C 26 86.669, 78.313 86.894, 142.250 86.754 L 258.500 86.500 258.765 55.565 C 258.910 38.550, 258.685 24.285, 258.265 23.864 C 257.844 23.443, 257.625 37.255, 257.778 54.557 M 94.444 38.285 C 94.173 38.992, 94.074 47.429, 94.225 57.035 L 94.500 74.500 98 74.500 L 101.500 74.500 102 60.748 C 102.275 53.184, 102.162 46.997, 101.750 46.998 C 101.338 46.999, 101 53.075, 101 60.500 L 101 74 97.957 74 L 94.915 74 95.207 55.499 C 95.368 45.323, 95.373 36.998, 95.219 36.999 C 95.064 36.999, 94.715 37.578, 94.444 38.285" stroke="none" fill="#5ab348" fill-rule="evenodd"/><path d="M 20.110 17.367 C 19.298 18.346, 19.050 29.357, 19.238 56.117 L 19.500 93.500 141.713 93.754 C 263.766 94.008, 263.927 94.005, 265.015 91.971 C 265.761 90.578, 266.010 78.556, 265.803 53.930 C 265.545 23.240, 265.279 17.785, 264 16.978 C 263.175 16.457, 256.313 16.024, 248.750 16.015 L 235 16 235 19.468 L 235 22.937 246.750 23.218 L 258.500 23.500 258.500 55 L 258.500 86.500 142.250 86.754 L 26 87.008 26 55.004 L 26 23 107.500 23 L 189 23 189 19.500 L 189 16 105.122 16 C 35.403 16, 21.053 16.231, 20.110 17.367 M 207.685 36.979 C 202.493 37.969, 198.943 40.770, 196.178 46.059 C 194.216 49.811, 193.923 51.586, 194.291 57.500 C 195.044 69.585, 199.877 74.371, 211.223 74.264 C 221.885 74.164, 227.745 68.706, 228.783 57.909 C 229.789 47.439, 225.177 38.617, 218.075 37.425 C 216.109 37.095, 213.825 36.697, 213 36.539 C 212.175 36.382, 209.783 36.580, 207.685 36.979 M 56 51.132 C 56 67.054, 57.152 70.578, 63.171 73.071 C 67.453 74.844, 74.938 74.598, 79.273 72.541 C 84.945 69.849, 86 66.399, 86 50.536 L 86 36.873 82.750 37.187 L 79.500 37.500 79 51.342 C 78.529 64.383, 78.364 65.294, 76.139 67.092 C 72.851 69.750, 68.433 69.524, 65.455 66.545 C 63.090 64.181, 63 63.594, 63 50.545 L 63 37 59.500 37 L 56 37 56 51.132 M 95.667 37.667 C 95.300 38.033, 95 46.358, 95 56.167 L 95 74 98 74 L 101 74 101 60.500 C 101 48.092, 101.886 43.916, 103.465 48.890 C 103.795 49.929, 106.876 55.892, 110.312 62.140 L 116.559 73.500 120.780 73.807 L 125 74.115 125 55.491 L 125 36.867 122.250 37.184 L 119.500 37.500 119 50.348 L 118.500 63.197 112.629 51.848 C 109.400 45.607, 106.068 39.712, 105.224 38.750 C 103.710 37.023, 97.064 36.270, 95.667 37.667 M 135.174 38.290 C 134.290 39.355, 134.027 44.450, 134.225 56.632 L 134.500 73.500 137.750 73.813 L 141 74.127 141 66.532 C 141 60.537, 141.332 58.810, 142.578 58.332 C 145.089 57.368, 149.273 61.254, 151.474 66.592 C 154.368 73.614, 154.737 74, 158.559 74 C 160.452 74, 162 73.817, 162 73.593 C 162 72.230, 155.755 59.612, 154.419 58.276 C 152.930 56.787, 153.001 56.555, 155.320 55.340 C 158.237 53.812, 160.371 48.325, 159.460 44.696 C 159.114 43.317, 157.708 41.134, 156.336 39.845 C 154.190 37.827, 152.624 37.452, 145.120 37.158 C 138.342 36.892, 136.125 37.144, 135.174 38.290 M 164 38.020 C 164 38.581, 166.129 43.193, 168.730 48.270 C 172.892 56.391, 173.523 58.462, 173.980 65.500 L 174.500 73.500 177.750 73.813 L 181 74.127 181.118 68.313 C 181.184 65.116, 181.182 62.158, 181.115 61.740 C 181.048 61.322, 183.470 56.042, 186.497 50.007 C 189.523 43.971, 192 38.576, 192 38.017 C 192 36.564, 186.440 36.756, 185.246 38.250 C 184.696 38.938, 182.872 42.646, 181.193 46.490 L 178.141 53.481 174.427 45.240 C 170.846 37.294, 170.594 37, 167.357 37 C 165.510 37, 164 37.459, 164 38.020 M 141.406 43.386 C 141.113 44.148, 141.015 46.735, 141.187 49.136 C 141.498 53.476, 141.521 53.499, 145.232 53.388 C 147.284 53.326, 149.647 52.708, 150.482 52.015 C 152.563 50.288, 152.391 45.664, 150.171 43.655 C 147.944 41.639, 142.144 41.461, 141.406 43.386 M 205.659 44.054 C 200.107 48.421, 199.740 60.894, 205.009 66.163 C 211.302 72.456, 219.950 68.487, 221.429 58.625 C 222.813 49.396, 218.396 42, 211.500 42 C 209.723 42, 207.095 42.924, 205.659 44.054" stroke="none" fill="#ffffff" fill-rule="evenodd"/><path d="M 0 55.503 L 0 111.007 143.250 110.753 L 286.500 110.500 286.758 55.250 L 287.017 0 143.508 0 L 0 0 0 55.503 M 0.467 56 C 0.467 86.525, 0.594 99.012, 0.749 83.750 C 0.905 68.487, 0.905 43.512, 0.749 28.250 C 0.594 12.987, 0.467 25.475, 0.467 56 M 19.200 17.200 C 17.812 18.588, 17.456 90.595, 18.827 92.754 C 19.459 93.750, 44.871 93.956, 142.561 93.754 L 265.500 93.500 265.500 55 L 265.500 16.500 249.688 16.224 L 233.876 15.949 234.188 19.724 L 234.500 23.500 246 23.656 L 257.500 23.811 257.764 54.910 L 258.029 86.008 142.264 85.754 L 26.500 85.500 26.236 54.756 L 25.971 24.012 107.736 23.756 L 189.500 23.500 189.810 19.750 L 190.121 16 105.260 16 C 40.591 16, 20.114 16.286, 19.200 17.200 M 199 20 L 199 24 212.500 24 L 226 24 226 20 L 226 16 212.500 16 L 199 16 199 20 M 55.400 38.543 C 54.341 42.763, 55.561 65.245, 57.013 68.275 C 59.336 73.120, 64.148 75.287, 71.540 74.817 C 78.909 74.347, 82.514 72.275, 85.263 66.929 C 86.737 64.062, 86.983 61.286, 86.763 50 L 86.500 36.500 83 36.500 L 79.500 36.500 78.872 50.500 C 78.527 58.200, 78.189 64.580, 78.122 64.679 C 76.665 66.811, 74.110 68, 70.985 68 C 64.849 68, 64 65.931, 64 50.977 C 64 37.356, 63.531 36, 58.819 36 C 56.674 36, 55.892 36.582, 55.400 38.543 M 96.134 37.146 C 93.990 37.939, 93.959 38.246, 94.227 56.226 L 94.500 74.500 98 74.500 L 101.500 74.500 102 61 C 102.357 51.362, 102.756 48.215, 103.396 50 C 104.960 54.367, 115.173 72.449, 116.810 73.750 C 118.904 75.414, 123.473 75.340, 124.901 73.619 C 125.692 72.666, 125.962 66.701, 125.774 54.369 L 125.500 36.500 122.500 36.500 L 119.500 36.500 119.218 49.500 L 118.935 62.500 112.867 51 C 109.530 44.675, 106.195 38.867, 105.457 38.093 C 103.895 36.456, 99.268 35.987, 96.134 37.146 M 135.227 36.797 C 134.256 37.445, 134.018 42.017, 134.227 56.073 L 134.500 74.500 138 74.500 L 141.500 74.500 141.792 66.750 C 142.099 58.594, 142.792 57.665, 146.524 60.394 C 147.572 61.161, 149.796 64.648, 151.465 68.144 C 154.184 73.838, 154.839 74.533, 157.757 74.814 C 162.763 75.296, 162.870 72.941, 158.252 63.902 C 156.032 59.556, 154.599 56, 155.068 56 C 155.538 56, 156.840 55.015, 157.961 53.811 C 161.853 49.634, 160.138 40.750, 154.898 37.946 C 152.341 36.577, 136.906 35.675, 135.227 36.797 M 163.411 37.371 C 163.122 38.126, 165.272 43.188, 168.190 48.621 C 173.028 57.631, 173.539 59.204, 173.998 66.500 L 174.500 74.500 178 74.500 L 181.500 74.500 182.067 66.500 C 182.576 59.334, 183.179 57.464, 187.856 48.570 C 190.727 43.109, 192.848 38.047, 192.569 37.320 C 192.291 36.594, 190.709 36, 189.054 36 C 185.598 36, 184.011 37.963, 180.520 46.554 L 178.251 52.134 175.126 45.455 C 173.407 41.781, 172 38.424, 172 37.995 C 172 35.836, 164.217 35.271, 163.411 37.371 M 204.001 37.123 C 197.228 39.824, 193.999 46.040, 194.002 56.372 C 194.004 69.055, 199.216 75, 210.332 75 C 223.226 75, 229.435 68.508, 229.459 55 C 229.475 46.429, 227.096 41.249, 221.605 37.901 C 218.164 35.803, 208.394 35.371, 204.001 37.123 M 142 48 C 142 52.800, 142.111 53, 144.777 53 C 146.305 53, 148.555 52.299, 149.777 51.443 C 154.213 48.336, 151.465 43, 145.429 43 L 142 43 142 48 M 205.099 45.601 C 201.052 50.747, 201.048 61.294, 205.092 65.598 C 206.772 67.386, 208.410 68, 211.500 68 C 217.342 68, 220.186 64.800, 220.787 57.554 C 221.641 47.255, 218.947 43, 211.573 43 C 207.995 43, 206.752 43.499, 205.099 45.601" stroke="none" fill="#090909" fill-rule="evenodd"/></svg>