<?xml version="1.0" encoding="UTF-8" standalone="no"?>
<!DOCTYPE svg PUBLIC "-//W3C//DTD SVG 1.1//EN" "http://www.w3.org/Graphics/SVG/1.1/DTD/svg11.dtd">
<svg width="100%" height="100%" viewBox="0 0 282 231" version="1.1" xmlns="http://www.w3.org/2000/svg" xmlns:xlink="http://www.w3.org/1999/xlink" xml:space="preserve" xmlns:serif="http://www.serif.com/" style="fill-rule:evenodd;clip-rule:evenodd;stroke-miterlimit:22.9256;">
    <g transform="matrix(1,0,0,1,1,1)">
        <path d="M80.306,228.84L240.852,228.84C261.884,228.84 279.092,211.632 279.092,190.6L279.092,80.305C279.092,36.137 242.954,0 198.786,0L38.241,0C17.208,0 0,17.208 0,38.241L0,148.535C0,192.703 36.138,228.84 80.306,228.84Z" style="fill:url(#_Linear1);"/>
    </g>
    <g>
        <clipPath id="_clip2">
            <path d="M81.306,229.84L241.852,229.84C262.884,229.84 280.092,212.632 280.092,191.6L280.092,81.305C280.092,37.137 243.954,1 199.786,1L39.241,1C18.208,1 1,18.208 1,39.241L1,149.535C1,193.703 37.138,229.84 81.306,229.84Z"/>
        </clipPath>
        <g clip-path="url(#_clip2)">
            <g transform="matrix(1,0,0,1,1,-132.358)">
                <path d="M284.828,183.488C278.208,183.488 217.483,184.348 210.96,183.307C202.418,181.944 196.153,175.242 187.863,173.429C177.047,171.059 182.663,178.624 177.052,182.39C173.964,184.463 168.251,183.488 164.736,183.488C156.662,183.488 152.925,183.035 147.544,188.873C143.772,192.965 141.38,198.717 134.798,200.057C130.716,200.887 124.827,200.167 120.599,200.057C112.768,199.851 111.146,197.282 106.802,191.772C104.058,188.292 101.079,182.41 94.966,184.07C88.025,185.955 85.394,196.006 77.593,196.514C72.577,196.84 68.509,190.137 66.013,187.73C60.935,182.831 56.539,183.488 49.386,183.488C45.181,183.488 40.062,184.221 36.376,182.008C30.688,178.587 29.496,166.246 19.904,169.91C13.047,172.53 10.566,181.244 3.048,183.244C-2.793,184.799 -31.485,183.488 -37.575,183.488L-37.575,178.551C-31.485,178.551 -2.793,179.864 3.048,178.31C10.566,176.308 13.047,167.595 19.904,164.977C29.496,161.311 30.688,173.651 36.376,177.071C40.062,179.287 45.181,178.551 49.386,178.551C56.539,178.551 60.935,177.896 66.013,182.796C68.509,185.201 72.577,191.904 77.593,191.578C85.394,191.072 88.025,181.02 94.966,179.135C101.079,177.476 104.058,183.358 106.802,186.837C111.146,192.346 112.768,194.917 120.599,195.121C124.827,195.231 130.716,195.952 134.798,195.121C141.38,193.781 143.772,188.029 147.544,183.937C152.925,178.1 156.662,178.551 164.736,178.551C168.251,178.551 173.964,179.528 177.052,177.455C182.663,173.69 177.047,166.126 187.863,168.493C196.153,170.309 202.418,177.008 210.96,178.371C217.483,179.414 278.208,178.551 284.828,178.551L284.828,183.488Z" style="fill:url(#_Linear3);"/>
            </g>
            <g transform="matrix(1,0,0,1,1,-113.109)">
                <path d="M284.828,173.862C278.208,173.862 217.483,174.723 210.96,173.682C202.418,172.319 196.153,165.619 187.863,163.803C177.047,161.435 182.663,169 177.052,172.765C173.964,174.839 168.251,173.862 164.736,173.862C156.662,173.862 152.925,173.411 147.544,179.247C143.772,183.339 141.38,189.092 134.798,190.431C130.716,191.263 124.827,190.542 120.599,190.431C112.768,190.226 111.146,187.656 106.802,182.146C104.058,178.667 101.079,172.785 94.966,174.445C88.025,176.33 85.394,186.382 77.593,186.889C72.577,187.215 68.509,180.512 66.013,178.105C60.935,173.206 56.539,173.862 49.386,173.862C45.181,173.862 40.062,174.596 36.376,172.382C30.688,168.963 29.496,156.62 19.904,160.286C13.047,162.904 10.566,171.618 3.048,173.62C-2.793,175.174 -31.485,173.862 -37.575,173.862L-37.575,168.927C-31.485,168.927 -2.793,170.239 3.048,168.684C10.566,166.683 13.047,157.969 19.904,155.351C29.496,151.687 30.688,164.028 36.376,167.447C40.062,169.661 45.181,168.927 49.386,168.927C56.539,168.927 60.935,168.271 66.013,173.17C68.509,175.577 72.577,182.279 77.593,181.953C85.394,181.447 88.025,171.395 94.966,169.51C101.079,167.851 104.058,173.732 106.802,177.212C111.146,182.722 112.768,185.292 120.599,185.496C124.827,185.607 130.716,186.328 134.798,185.496C141.38,184.156 143.772,178.404 147.544,174.311C152.925,168.475 156.662,168.927 164.736,168.927C168.251,168.927 173.964,169.903 177.052,167.83C182.663,164.065 177.047,156.499 187.863,158.868C196.153,160.683 202.418,167.384 210.96,168.747C217.483,169.788 278.208,168.927 284.828,168.927L284.828,173.862Z" style="fill:url(#_Linear4);"/>
            </g>
            <g transform="matrix(1,0,0,1,1,-93.864)">
                <path d="M284.828,164.241C278.194,164.241 217.466,165.095 210.933,164.029C202.488,162.65 196.218,156.15 188.008,154.351C177.358,152.017 182.653,159.359 177.018,163.102C173.867,165.194 168.329,164.241 164.736,164.241C156.662,164.241 152.925,163.789 147.544,169.625C143.772,173.717 141.38,179.47 134.798,180.809C130.716,181.64 124.827,180.92 120.599,180.809C112.768,180.604 111.146,178.034 106.802,172.525C104.058,169.045 101.079,163.163 94.966,164.823C88.025,166.709 85.394,176.76 77.593,177.266C72.577,177.593 68.509,170.89 66.013,168.483C60.935,163.585 56.539,164.241 49.386,164.241C45.181,164.241 40.062,164.974 36.376,162.761C30.688,159.34 29.496,147 19.904,150.664C13.047,153.283 10.566,161.996 3.048,163.997C-2.793,165.553 -31.485,164.241 -37.575,164.241L-37.575,159.304C-31.485,159.304 -2.793,160.618 3.048,159.062C10.566,157.061 13.047,148.347 19.904,145.729C29.496,142.065 30.688,154.405 36.376,157.825C40.062,160.038 45.181,159.304 49.386,159.304C56.539,159.304 60.935,158.649 66.013,163.549C68.509,165.954 72.577,172.657 77.593,172.332C85.394,171.825 88.025,161.774 94.966,159.888C101.079,158.229 104.058,164.11 106.802,167.589C111.146,173.099 112.768,175.67 120.599,175.874C124.827,175.985 130.716,176.705 134.798,175.874C141.38,174.534 143.772,168.783 147.544,164.691C152.925,158.853 156.662,159.304 164.736,159.304C168.251,159.304 173.964,160.281 177.052,158.208C182.663,154.443 177.047,146.877 187.863,149.246C196.153,151.062 202.418,157.761 210.96,159.125C217.483,160.167 278.208,159.304 284.828,159.304L284.828,164.241Z" style="fill:url(#_Linear5);"/>
            </g>
            <g transform="matrix(1,0,0,1,1,-74.6164)">
                <path d="M284.828,154.615C278.126,154.615 217.605,155.354 210.973,154.45C203.675,153.457 197.703,148.957 190.545,147.681C181.911,146.141 183.332,151.032 177.284,153.789C173.73,155.41 168.529,154.615 164.736,154.615C156.662,154.615 152.925,154.165 147.544,160.001C143.772,164.092 141.38,169.846 134.798,171.185C130.716,172.016 124.827,171.295 120.599,171.185C112.768,170.98 111.146,168.41 106.802,162.9C104.058,159.421 101.079,153.539 94.966,155.199C88.025,157.085 85.394,167.136 77.593,167.642C72.577,167.968 68.509,161.265 66.013,158.859C60.935,153.961 56.539,154.615 49.386,154.615C45.181,154.615 40.062,155.35 36.376,153.136C30.688,149.716 29.496,137.375 19.904,141.039C13.047,143.659 10.566,152.371 3.048,154.373C-2.793,155.928 -31.485,154.615 -37.575,154.615L-37.575,149.681C-31.485,149.681 -2.793,150.993 3.048,149.438C10.566,147.438 13.047,138.723 19.904,136.105C29.496,132.441 30.688,144.782 36.376,148.201C40.062,150.414 45.181,149.681 49.386,149.681C56.539,149.681 60.935,149.025 66.013,153.923C68.509,156.331 72.577,163.033 77.593,162.708C85.394,162.2 88.025,152.149 94.966,150.264C101.079,148.605 104.058,154.486 106.802,157.965C111.146,163.475 112.768,166.045 120.599,166.251C124.827,166.361 130.716,167.081 134.798,166.251C141.38,164.911 143.772,159.158 147.544,155.066C152.925,149.229 156.662,149.681 164.736,149.681C168.423,149.681 173.774,150.577 177.075,148.611C182.895,145.145 179.05,138.825 188.938,140.873C196.745,142.491 202.926,148.194 210.925,149.459C217.495,150.5 278.164,149.681 284.828,149.681L284.828,154.615Z" style="fill:url(#_Linear6);"/>
            </g>
            <g transform="matrix(1,0,0,1,1,-55.3708)">
                <path d="M284.828,144.994C278.003,144.994 217.924,145.38 211.116,144.996C205.347,144.67 199.952,142.831 194.224,142.346C188.016,141.821 183.683,143.952 177.819,144.791C173.597,145.396 168.985,144.994 164.736,144.994C156.662,144.994 152.925,144.543 147.544,150.379C143.772,154.471 141.38,160.223 134.798,161.563C130.716,162.393 124.827,161.674 120.599,161.563C112.768,161.358 111.146,158.788 106.802,153.279C104.058,149.799 101.079,143.917 94.966,145.577C88.025,147.462 85.394,157.514 77.593,158.021C72.577,158.346 68.509,151.643 66.013,149.237C60.935,144.339 56.539,144.994 49.386,144.994C45.181,144.994 40.062,145.728 36.376,143.514C30.688,140.094 29.496,127.753 19.904,131.418C13.047,134.036 10.566,142.75 3.048,144.752C-2.793,146.306 -31.485,144.994 -37.575,144.994L-37.575,140.059C-31.485,140.059 -2.793,141.371 3.048,139.816C10.566,137.814 13.047,129.101 19.904,126.483C29.496,122.818 30.688,135.159 36.376,138.579C40.062,140.793 45.181,140.059 49.386,140.059C56.539,140.059 60.935,139.403 66.013,144.302C68.509,146.709 72.577,153.412 77.593,153.086C85.394,152.579 88.025,142.527 94.966,140.642C101.079,138.982 104.058,144.865 106.802,148.343C111.146,153.853 112.768,156.423 120.599,156.629C124.827,156.739 130.716,157.459 134.798,156.629C141.38,155.288 143.772,149.536 147.544,145.444C152.925,139.607 156.662,140.059 164.736,140.059C168.741,140.059 173.651,140.686 177.549,139.541C183.587,137.767 185.098,134.234 192.357,135.233C198.801,136.121 204.51,139.312 211.044,139.978C217.759,140.66 278.068,140.059 284.828,140.059L284.828,144.994Z" style="fill:url(#_Linear7);"/>
            </g>
            <g transform="matrix(1,0,0,1,1,-36.123)">
                <path d="M284.828,135.369L164.736,135.369C156.662,135.369 152.925,134.918 147.544,140.755C143.772,144.846 141.38,150.599 134.798,151.939C130.716,152.77 124.827,152.049 120.599,151.939C112.768,151.734 111.146,149.163 106.802,143.654C104.058,140.175 101.079,134.292 94.966,135.953C88.025,137.837 85.394,147.889 77.593,148.396C72.577,148.722 68.509,142.019 66.013,139.613C60.935,134.713 56.539,135.369 49.386,135.369C45.181,135.369 40.062,136.103 36.376,133.889C30.688,130.47 29.496,118.128 19.904,121.793C13.047,124.412 10.566,133.126 3.048,135.126C-2.793,136.681 -31.485,135.369 -37.575,135.369L-37.575,130.434C-31.485,130.434 -2.793,131.747 3.048,130.191C10.566,128.19 13.047,119.477 19.904,116.858C29.496,113.194 30.688,125.535 36.376,128.954C40.062,131.169 45.181,130.434 49.386,130.434C56.539,130.434 60.935,129.779 66.013,134.677C68.509,137.084 72.577,143.788 77.593,143.46C85.394,142.954 88.025,132.903 94.966,131.017C101.079,129.357 104.058,135.24 106.802,138.72C111.146,144.229 112.768,146.798 120.599,147.004C124.827,147.115 130.716,147.833 134.798,147.004C141.38,145.664 143.772,139.911 147.544,135.819C152.925,129.983 156.662,130.434 164.736,130.434C175.037,130.434 185.41,129.102 195.653,129.45C207.732,129.861 272.7,130.434 284.828,130.434L284.828,135.369Z" style="fill:url(#_Linear8);"/>
            </g>
            <g transform="matrix(1,0,0,1,1,-16.877)">
                <path d="M284.828,125.746C273.073,125.746 208.253,125.764 196.498,125.746C185.893,125.731 176.038,127.377 165.397,126.384C157.003,125.6 153.155,125.048 147.544,131.132C143.772,135.224 141.38,140.976 134.798,142.316C130.716,143.147 124.827,142.427 120.599,142.316C112.768,142.112 111.146,139.541 106.802,134.031C104.058,130.552 101.079,124.671 94.966,126.33C88.025,128.214 85.394,138.267 77.593,138.773C72.577,139.099 68.509,132.397 66.013,129.99C60.935,125.091 56.539,125.746 49.386,125.746C45.181,125.746 40.062,126.481 36.376,124.266C30.688,120.848 29.496,108.506 19.904,112.171C13.047,114.789 10.566,123.503 3.048,125.504C-2.793,127.059 -31.485,125.746 -37.575,125.746L-37.575,120.811C-31.485,120.811 -2.793,122.123 3.048,120.57C10.566,118.567 13.047,109.854 19.904,107.235C29.496,103.571 30.688,115.913 36.376,119.332C40.062,121.546 45.181,120.811 49.386,120.811C56.539,120.811 60.935,120.156 66.013,125.055C68.509,127.461 72.577,134.164 77.593,133.838C85.394,133.332 88.025,123.28 94.966,121.395C101.079,119.734 104.058,125.617 106.802,129.097C111.146,134.607 112.768,137.176 120.599,137.381C124.827,137.492 130.716,138.212 134.798,137.381C141.38,136.041 143.772,130.289 147.544,126.197C152.962,120.321 156.725,120.708 164.879,120.949C187.107,121.606 262.575,120.811 284.828,120.811L284.828,125.746Z" style="fill:url(#_Linear9);"/>
            </g>
            <g transform="matrix(1,0,0,1,1,2.3703)">
                <path d="M284.828,116.123C273.075,116.123 208.249,115.993 196.498,116.123C190.315,116.191 187.424,118.669 181.835,119.824C176.787,120.868 171.766,119.332 166.926,118.234C158.003,116.209 153.758,114.769 147.544,121.508C143.772,125.6 141.38,131.353 134.798,132.692C130.716,133.523 124.827,132.803 120.599,132.692C112.768,132.487 111.146,129.917 106.802,124.407C104.058,120.927 101.079,115.046 94.966,116.706C88.025,118.591 85.394,128.643 77.593,129.149C72.577,129.475 68.509,122.773 66.013,120.365C60.935,115.467 56.539,116.123 49.386,116.123C45.181,116.123 40.062,116.857 36.376,114.643C30.688,111.224 29.496,98.883 19.904,102.547C13.047,105.166 10.566,113.879 3.048,115.88C-2.793,117.435 -31.485,116.123 -37.575,116.123L-37.575,111.187C-31.485,111.187 -2.793,112.5 3.048,110.946C10.566,108.944 13.047,100.23 19.904,97.612C29.496,93.947 30.688,106.288 36.376,109.708C40.062,111.922 45.181,111.187 49.386,111.187C56.539,111.187 60.935,110.532 66.013,115.431C68.509,117.837 72.577,124.54 77.593,124.214C85.394,123.708 88.025,113.655 94.966,111.771C101.079,110.112 104.058,115.993 106.802,119.473C111.146,124.982 112.768,127.553 120.599,127.757C124.827,127.868 130.716,128.588 134.798,127.757C141.38,126.416 143.772,120.665 147.544,116.574C153.433,110.186 157.438,111.108 166.107,112.508C170.873,113.277 175.573,114.1 180.433,113.54C186.071,112.891 190.643,111.21 196.498,111.187C208.253,111.143 273.073,111.187 284.828,111.187L284.828,116.123Z" style="fill:url(#_Linear10);"/>
            </g>
            <g transform="matrix(1,0,0,1,1,21.6173)">
                <path d="M284.828,106.499C273.082,106.499 208.241,106.28 196.498,106.499C189.023,106.638 189.72,110.03 183.973,112.263C178.982,114.203 172.679,111.203 168.155,109.793C158.932,106.921 154.244,104.619 147.544,111.885C143.772,115.977 141.38,121.729 134.798,123.069C130.716,123.899 124.827,123.179 120.599,123.069C112.768,122.865 111.146,120.293 106.802,114.783C104.058,111.304 101.079,105.422 94.966,107.082C88.025,108.968 85.394,119.02 77.593,119.526C72.577,119.851 68.509,113.149 66.013,110.743C60.935,105.844 56.539,106.499 49.386,106.499C45.181,106.499 40.062,107.233 36.376,105.019C30.688,101.599 29.496,89.259 19.904,92.924C13.047,95.542 10.566,104.255 3.048,106.256C-2.793,107.812 -31.485,106.499 -37.575,106.499L-37.575,101.564C-31.485,101.564 -2.793,102.876 3.048,101.321C10.566,99.32 13.047,90.607 19.904,87.988C29.496,84.324 30.688,96.665 36.376,100.084C40.062,102.298 45.181,101.564 49.386,101.564C56.539,101.564 60.935,100.909 66.013,105.808C68.509,108.214 72.577,114.916 77.593,114.591C85.394,114.084 88.025,104.033 94.966,102.148C101.079,100.488 104.058,106.37 106.802,109.849C111.146,115.358 112.768,117.928 120.599,118.134C124.827,118.244 130.716,118.964 134.798,118.134C141.38,116.794 143.772,111.041 147.544,106.949C154.037,99.908 158.532,101.843 167.636,104.359C172.371,105.667 177.976,107.982 183.051,106.44C188.712,104.719 189.699,101.678 196.498,101.564C208.243,101.367 273.082,101.564 284.828,101.564L284.828,106.499Z" style="fill:url(#_Linear11);"/>
            </g>
            <g transform="matrix(1,0,0,1,1,40.5464)">
                <path d="M284.828,97.194C273.079,97.194 208.245,97.014 196.498,97.194C188.643,97.313 190.104,100.786 184.275,103.247C179.366,105.32 172.655,102.042 168.297,100.626C159.27,97.69 154.257,95.149 147.75,102.482C144.192,106.491 142.045,112.181 135.588,113.425C131.172,114.276 125.162,112.747 120.697,112.376C113.238,111.758 111.465,109.924 106.825,104.746C103.95,101.537 100.729,96.237 94.966,97.776C88.008,99.636 85.405,109.712 77.593,110.22C72.577,110.546 68.509,103.844 66.013,101.436C60.935,96.538 56.539,97.194 49.386,97.194C45.181,97.194 40.062,97.927 36.376,95.714C30.688,92.294 29.496,79.953 19.904,83.617C13.047,86.236 10.566,94.949 3.048,96.951C-2.793,98.506 -31.485,97.194 -37.575,97.194L-37.575,92.259C-31.485,92.259 -2.793,93.571 3.048,92.016C10.566,90.015 13.047,81.301 19.904,78.683C29.496,75.018 30.688,87.359 36.376,90.778C40.062,92.993 45.181,92.259 49.386,92.259C56.539,92.259 60.935,91.603 66.013,96.502C68.509,98.908 72.577,105.611 77.593,105.285C85.398,104.778 88.015,94.714 94.966,92.842C101.042,91.206 104.062,97.084 106.804,100.524C111.17,106.006 112.789,108.532 120.586,108.77C124.835,108.899 130.711,109.671 134.823,108.826C141.404,107.474 143.772,101.742 147.538,97.647C154.29,90.301 159.044,92.682 168.297,95.69C172.655,97.107 179.366,100.385 184.275,98.312C190.104,95.852 188.643,92.378 196.498,92.259C208.245,92.079 273.079,92.259 284.828,92.259L284.828,97.194Z" style="fill:url(#_Linear12);"/>
            </g>
            <g transform="matrix(1,0,0,1,1,57.738)">
                <path d="M284.828,89.625C273.079,89.625 208.245,89.447 196.498,89.625C188.643,89.744 190.104,93.218 184.275,95.68C179.366,97.752 172.655,94.475 168.297,93.057C160.285,90.452 154.338,87.205 148.901,94.368C146.276,97.828 144.818,103.752 138.976,104.206C133.244,104.653 126.822,100.425 121.451,99.174C115.593,97.807 111.949,97.185 106.925,93.941C103.407,91.667 99.722,88.756 94.966,90.208C88.175,92.282 85.296,102.151 77.593,102.653C72.577,102.978 68.509,96.275 66.013,93.868C60.935,88.97 56.539,89.625 49.386,89.625C45.181,89.625 40.062,90.359 36.376,88.145C30.688,84.726 29.496,72.384 19.904,76.049C13.047,78.668 10.566,87.38 3.048,89.383C-2.793,90.938 -31.485,89.625 -37.575,89.625L-37.575,84.69C-31.485,84.69 -2.793,86.003 3.048,84.447C10.566,82.446 13.047,73.734 19.904,71.114C29.496,67.45 30.688,79.792 36.376,83.21C40.062,85.424 45.181,84.69 49.386,84.69C56.539,84.69 60.935,84.034 66.013,88.934C68.509,91.34 72.577,98.043 77.593,97.717C85.374,97.211 88.056,87.204 94.966,85.273C100.288,83.787 103.698,87.984 106.867,90.856C111.819,95.341 114.168,96.372 121.008,97.441C125.913,98.208 132.004,100.871 137.044,100.22C143.218,99.423 145.124,93.479 148.234,89.75C154.294,82.482 159.694,85.324 168.297,88.122C172.655,89.54 179.366,92.816 184.275,90.745C190.104,88.283 188.643,84.81 196.498,84.69C208.245,84.511 273.079,84.69 284.828,84.69L284.828,89.625Z" style="fill:url(#_Linear13);"/>
            </g>
            <g transform="matrix(1,0,0,1,1,75.3094)">
                <path d="M284.828,81.678C273.079,81.678 208.245,81.499 196.498,81.678C188.643,81.797 190.104,85.271 184.275,87.731C179.366,89.804 172.655,86.526 168.297,85.11C161.505,82.901 154.261,78.87 150.105,85.853C148.217,89.025 147.897,94.267 142.496,94.538C135.76,94.877 128.208,87.404 122.244,85.38C117.368,83.724 112.277,83.298 107.032,82.63C103.188,82.14 98.809,80.839 94.966,82.261C88.523,84.643 85.066,94.219 77.593,94.704C72.577,95.03 68.509,88.327 66.013,85.92C60.935,81.022 56.539,81.678 49.386,81.678C45.181,81.678 40.062,82.411 36.376,80.198C30.688,76.778 29.496,64.437 19.904,68.101C13.047,70.72 10.566,79.434 3.048,81.435C-2.793,82.99 -31.485,81.678 -37.575,81.678L-37.575,76.742C-31.485,76.742 -2.793,78.055 3.048,76.5C10.566,74.499 13.047,65.785 19.904,63.166C29.496,59.501 30.688,71.843 36.376,75.262C40.062,77.476 45.181,76.742 49.386,76.742C56.539,76.742 60.935,76.087 66.013,80.986C68.509,83.392 72.577,90.095 77.593,89.77C85.186,89.275 88.344,79.565 94.966,77.325C99.169,75.904 103.256,77.78 106.982,79.264C111.914,81.23 116.846,81.708 121.884,83.186C127.603,84.866 134.554,90.748 140.851,90.401C146.432,90.094 147.326,84.462 149.551,81.18C154.336,74.117 160.908,77.771 168.297,80.174C172.655,81.592 179.366,84.868 184.275,82.797C190.104,80.336 188.643,76.861 196.498,76.742C208.245,76.563 273.079,76.742 284.828,76.742L284.828,81.678Z" style="fill:url(#_Linear14);"/>
            </g>
            <g transform="matrix(1,0,0,1,1,94.557)">
                <path d="M284.828,72.053C273.079,72.053 208.245,71.875 196.498,72.053C188.643,72.172 190.104,75.646 184.275,78.107C179.366,80.18 172.655,76.902 168.297,75.485C161.332,73.219 154.702,69.402 150.384,76.097C148.404,79.167 149.147,84.144 143.517,84.467C136.42,84.873 128.529,76.241 122.389,73.98C117.12,72.039 112.816,72.053 107.061,72.053C103.478,72.053 98.403,71.336 94.966,72.637C88.573,75.055 85.031,84.597 77.593,85.08C72.577,85.405 68.509,78.702 66.013,76.296C60.935,71.398 56.539,72.053 49.386,72.053C45.181,72.053 40.062,72.787 36.376,70.573C30.688,67.154 29.496,54.813 19.904,58.478C13.047,61.096 10.566,69.809 3.048,71.811C-2.793,73.365 -31.485,72.053 -37.575,72.053L-37.575,67.119C-31.485,67.119 -2.793,68.43 3.048,66.875C10.566,64.875 13.047,56.161 19.904,53.541C29.496,49.878 30.688,62.219 36.376,65.638C40.062,67.852 45.181,67.119 49.386,67.119C56.539,67.119 60.935,66.462 66.013,71.361C68.509,73.768 72.577,80.471 77.593,80.145C85.018,79.663 88.596,70.135 94.966,67.701C98.49,66.356 103.4,67.148 107.056,67.214C112.735,67.318 117.205,67.374 122.4,69.264C128.498,71.484 136.396,79.949 143.404,79.564C148.749,79.27 148.689,74.3 150.377,71.165C154.128,64.198 161.883,68.465 168.297,70.55C172.655,71.968 179.366,75.244 184.275,73.172C190.104,70.711 188.643,67.237 196.498,67.119C208.245,66.939 273.079,67.119 284.828,67.119L284.828,72.053Z" style="fill:url(#_Linear15);"/>
            </g>
            <g transform="matrix(1,0,0,1,1,113.804)">
                <path d="M284.828,62.43C273.079,62.43 208.245,62.251 196.498,62.43C188.643,62.55 190.104,66.023 184.275,68.484C179.366,70.557 172.655,67.278 168.297,65.861C161.332,63.597 154.702,59.779 150.384,66.474C148.404,69.543 149.147,74.521 143.517,74.844C136.42,75.25 128.529,66.617 122.389,64.356C117.12,62.416 112.816,62.43 107.061,62.43C103.478,62.43 98.403,61.713 94.966,63.013C88.573,65.431 85.031,74.974 77.593,75.456C72.577,75.783 68.509,69.08 66.013,66.673C60.935,61.775 56.539,62.43 49.386,62.43C45.181,62.43 40.062,63.164 36.376,60.951C30.688,57.531 29.496,45.19 19.904,48.854C13.047,51.473 10.566,60.186 3.048,62.187C-2.793,63.742 -31.485,62.43 -37.575,62.43L-37.575,57.495C-31.485,57.495 -2.793,58.808 3.048,57.252C10.566,55.251 13.047,46.537 19.904,43.919C29.496,40.254 30.688,52.595 36.376,56.015C40.062,58.229 45.181,57.495 49.386,57.495C56.539,57.495 60.935,56.839 66.013,61.738C68.509,64.144 72.577,70.847 77.593,70.522C85.031,70.038 88.573,60.496 94.966,58.078C98.403,56.777 103.478,57.495 107.061,57.495C112.816,57.495 117.12,57.48 122.389,59.421C128.529,61.683 136.42,70.314 143.517,69.908C149.147,69.585 148.404,64.608 150.384,61.538C154.702,54.844 161.332,58.662 168.297,60.927C172.655,62.344 179.366,65.622 184.275,63.549C190.104,61.088 188.643,57.614 196.498,57.495C208.245,57.316 273.079,57.495 284.828,57.495L284.828,62.43Z" style="fill:url(#_Linear16);"/>
            </g>
            <g transform="matrix(1,0,0,1,1,133.051)">
                <path d="M284.828,52.806C273.079,52.806 208.245,52.628 196.498,52.806C188.643,52.926 190.104,56.399 184.275,58.86C179.366,60.932 172.655,57.655 168.297,56.238C161.332,53.973 154.702,50.155 150.384,56.849C148.404,59.92 149.147,64.897 143.517,65.219C136.42,65.627 128.529,56.994 122.389,54.733C117.12,52.792 112.816,52.806 107.061,52.806C103.478,52.806 98.403,52.089 94.966,53.39C88.573,55.808 85.031,65.35 77.593,65.833C72.577,66.159 68.509,59.456 66.013,57.05C60.935,52.15 56.539,52.806 49.386,52.806C45.181,52.806 40.062,53.54 36.376,51.326C30.688,47.907 29.496,35.566 19.904,39.231C13.047,41.849 10.566,50.562 3.048,52.564C-2.793,54.118 -31.485,52.806 -37.575,52.806L-37.575,47.872C-31.485,47.872 -2.793,49.184 3.048,47.628C10.566,45.627 13.047,36.913 19.904,34.295C29.496,30.631 30.688,42.973 36.376,46.392C40.062,48.606 45.181,47.872 49.386,47.872C56.539,47.872 60.935,47.216 66.013,52.115C68.509,54.522 72.577,61.224 77.593,60.897C85.031,60.415 88.573,50.873 94.966,48.454C98.403,47.155 103.478,47.872 107.061,47.872C112.816,47.872 117.12,47.857 122.389,49.797C128.529,52.059 136.42,60.691 143.517,60.285C149.147,59.962 148.404,54.985 150.384,51.915C154.702,45.22 161.332,49.038 168.297,51.304C172.655,52.721 179.366,55.998 184.275,53.926C190.104,51.464 188.643,47.991 196.498,47.872C208.245,47.693 273.079,47.872 284.828,47.872L284.828,52.806Z" style="fill:url(#_Linear17);"/>
            </g>
            <g transform="matrix(1,0,0,1,1,152.297)">
                <path d="M284.828,43.183C273.079,43.183 208.245,43.004 196.498,43.183C188.643,43.303 190.104,46.776 184.275,49.238C179.366,51.309 172.655,48.032 168.297,46.615C161.332,44.35 154.702,40.532 150.384,47.226C148.404,50.297 149.147,55.274 143.517,55.597C136.42,56.003 128.529,47.37 122.389,45.109C117.12,43.169 112.816,43.183 107.061,43.183C103.478,43.183 98.403,42.467 94.966,43.766C88.573,46.185 85.031,55.727 77.593,56.21C72.577,56.536 68.509,49.833 66.013,47.427C60.935,42.527 56.539,43.183 49.386,43.183C45.181,43.183 40.062,43.917 36.376,41.703C30.688,38.284 29.496,25.943 19.904,29.607C13.047,32.226 10.566,40.939 3.048,42.94C-2.793,44.496 -31.485,43.183 -37.575,43.183L-37.575,38.247C-31.485,38.247 -2.793,39.561 3.048,38.006C10.566,36.004 13.047,27.291 19.904,24.672C29.496,21.007 30.688,33.349 36.376,36.768C40.062,38.982 45.181,38.247 49.386,38.247C56.539,38.247 60.935,37.593 66.013,42.492C68.509,44.897 72.577,51.601 77.593,51.275C85.031,50.792 88.573,41.25 94.966,38.831C98.403,37.531 103.478,38.247 107.061,38.247C112.816,38.247 117.12,38.234 122.389,40.174C128.529,42.436 136.42,51.069 143.517,50.662C149.147,50.339 148.404,45.362 150.384,42.292C154.702,35.597 161.332,39.414 168.297,41.679C172.655,43.097 179.366,46.375 184.275,44.302C190.104,41.841 188.643,38.367 196.498,38.247C208.245,38.07 273.079,38.247 284.828,38.247L284.828,43.183Z" style="fill:url(#_Linear18);"/>
            </g>
        </g>
    </g>
    <g transform="matrix(1,0,0,1,1,93.033)">
        <path d="M137.474,87.335C138.319,87.335 138.831,86.99 139.021,86.295L148.783,57.309C149.997,55.153 152.428,53.537 154.669,53.537L154.676,53.513L168.857,53.513L157.289,88.136C155.996,91.816 153.909,94.925 150.993,97.459C148.058,99.992 144.392,101.261 139.993,101.26L106.798,101.261C102.385,101.261 99.081,99.992 96.883,97.459C94.685,94.925 94.23,91.816 95.51,88.136L110.818,41.955C120.237,41.967 125.714,49.125 124.057,58.417L114.855,86.295C114.655,86.99 114.973,87.335 115.809,87.335L137.474,87.335ZM158.367,39.384C159.662,36.614 161.935,35.627 164.325,35.424C178.573,35.43 197.766,35.374 205.658,35.442C213.55,35.512 215.53,42.828 215.377,49.422L194.954,49.422C189.341,65.4 182.567,85.42 177.05,101.433L158.249,101.433L176.021,49.421L154.986,49.422C156.113,46.075 157.073,42.153 158.367,39.384ZM247.038,37.751L236.544,69.266L212.281,69.266L216.497,56.541C216.592,54.951 215.723,53.721 214.238,53.399L198.696,53.406C192.343,72.341 188.976,82.477 182.638,101.416L201.446,101.416L207.594,83.199L207.594,83.19L231.859,83.19L225.709,101.416L244.502,101.416L259.985,55.168C262.196,45.449 256.716,37.815 247.038,37.751Z" style="fill:white;stroke:white;stroke-width:0.22px;"/>
    </g>
    <defs>
        <linearGradient id="_Linear1" x1="0" y1="0" x2="1" y2="0" gradientUnits="userSpaceOnUse" gradientTransform="matrix(1.40124e-14,228.84,228.84,-1.40124e-14,139.55,0.0004)"><stop offset="0" style="stop-color:rgb(200,16,46);stop-opacity:1"/><stop offset="0.41" style="stop-color:rgb(161,19,58);stop-opacity:1"/><stop offset="1" style="stop-color:rgb(1,33,105);stop-opacity:1"/></linearGradient>
        <linearGradient id="_Linear3" x1="0" y1="0" x2="1" y2="0" gradientUnits="userSpaceOnUse" gradientTransform="matrix(17.59,77.58,77.58,-17.59,114.83,143.588)"><stop offset="0" style="stop-color:rgb(200,16,46);stop-opacity:1"/><stop offset="1" style="stop-color:rgb(1,33,105);stop-opacity:1"/></linearGradient>
        <linearGradient id="_Linear4" x1="0" y1="0" x2="1" y2="0" gradientUnits="userSpaceOnUse" gradientTransform="matrix(17.59,77.58,77.58,-17.59,114.83,133.96)"><stop offset="0" style="stop-color:rgb(200,16,46);stop-opacity:1"/><stop offset="1" style="stop-color:rgb(1,33,105);stop-opacity:1"/></linearGradient>
        <linearGradient id="_Linear5" x1="0" y1="0" x2="1" y2="0" gradientUnits="userSpaceOnUse" gradientTransform="matrix(17.59,77.57,77.57,-17.59,114.83,124.344)"><stop offset="0" style="stop-color:rgb(200,16,46);stop-opacity:1"/><stop offset="1" style="stop-color:rgb(1,33,105);stop-opacity:1"/></linearGradient>
        <linearGradient id="_Linear6" x1="0" y1="0" x2="1" y2="0" gradientUnits="userSpaceOnUse" gradientTransform="matrix(17.59,77.58,77.58,-17.59,114.83,114.717)"><stop offset="0" style="stop-color:rgb(200,16,46);stop-opacity:1"/><stop offset="1" style="stop-color:rgb(1,33,105);stop-opacity:1"/></linearGradient>
        <linearGradient id="_Linear7" x1="0" y1="0" x2="1" y2="0" gradientUnits="userSpaceOnUse" gradientTransform="matrix(17.59,77.58,77.58,-17.59,114.83,105.091)"><stop offset="0" style="stop-color:rgb(200,16,46);stop-opacity:1"/><stop offset="1" style="stop-color:rgb(1,33,105);stop-opacity:1"/></linearGradient>
        <linearGradient id="_Linear8" x1="0" y1="0" x2="1" y2="0" gradientUnits="userSpaceOnUse" gradientTransform="matrix(17.59,77.57,77.57,-17.59,114.83,95.4734)"><stop offset="0" style="stop-color:rgb(200,16,46);stop-opacity:1"/><stop offset="1" style="stop-color:rgb(1,33,105);stop-opacity:1"/></linearGradient>
        <linearGradient id="_Linear9" x1="0" y1="0" x2="1" y2="0" gradientUnits="userSpaceOnUse" gradientTransform="matrix(17.59,77.58,77.58,-17.59,114.83,85.8474)"><stop offset="0" style="stop-color:rgb(200,16,46);stop-opacity:1"/><stop offset="1" style="stop-color:rgb(1,33,105);stop-opacity:1"/></linearGradient>
        <linearGradient id="_Linear10" x1="0" y1="0" x2="1" y2="0" gradientUnits="userSpaceOnUse" gradientTransform="matrix(17.59,77.57,77.57,-17.59,114.83,76.2301)"><stop offset="0" style="stop-color:rgb(200,16,46);stop-opacity:1"/><stop offset="1" style="stop-color:rgb(1,33,105);stop-opacity:1"/></linearGradient>
        <linearGradient id="_Linear11" x1="0" y1="0" x2="1" y2="0" gradientUnits="userSpaceOnUse" gradientTransform="matrix(17.59,77.57,77.57,-17.59,114.83,66.6031)"><stop offset="0" style="stop-color:rgb(200,16,46);stop-opacity:1"/><stop offset="1" style="stop-color:rgb(1,33,105);stop-opacity:1"/></linearGradient>
        <linearGradient id="_Linear12" x1="0" y1="0" x2="1" y2="0" gradientUnits="userSpaceOnUse" gradientTransform="matrix(17.15,76.64,76.64,-17.15,115.05,57.524)"><stop offset="0" style="stop-color:rgb(200,16,46);stop-opacity:1"/><stop offset="1" style="stop-color:rgb(1,33,105);stop-opacity:1"/></linearGradient>
        <linearGradient id="_Linear13" x1="0" y1="0" x2="1" y2="0" gradientUnits="userSpaceOnUse" gradientTransform="matrix(15.47,72.98,72.98,-15.47,115.89,50.8524)"><stop offset="0" style="stop-color:rgb(200,16,46);stop-opacity:1"/><stop offset="1" style="stop-color:rgb(1,33,105);stop-opacity:1"/></linearGradient>
        <linearGradient id="_Linear14" x1="0" y1="0" x2="1" y2="0" gradientUnits="userSpaceOnUse" gradientTransform="matrix(14.12,69.85,69.85,-14.12,116.57,43.681)"><stop offset="0" style="stop-color:rgb(200,16,46);stop-opacity:1"/><stop offset="1" style="stop-color:rgb(1,33,105);stop-opacity:1"/></linearGradient>
        <linearGradient id="_Linear15" x1="0" y1="0" x2="1" y2="0" gradientUnits="userSpaceOnUse" gradientTransform="matrix(14.12,69.85,69.85,-14.12,116.57,34.0534)"><stop offset="0" style="stop-color:rgb(200,16,46);stop-opacity:1"/><stop offset="1" style="stop-color:rgb(1,33,105);stop-opacity:1"/></linearGradient>
        <linearGradient id="_Linear16" x1="0" y1="0" x2="1" y2="0" gradientUnits="userSpaceOnUse" gradientTransform="matrix(14.12,69.86,69.86,-14.12,116.57,24.4268)"><stop offset="0" style="stop-color:rgb(200,16,46);stop-opacity:1"/><stop offset="1" style="stop-color:rgb(1,33,105);stop-opacity:1"/></linearGradient>
        <linearGradient id="_Linear17" x1="0" y1="0" x2="1" y2="0" gradientUnits="userSpaceOnUse" gradientTransform="matrix(14.12,69.85,69.85,-14.12,116.57,14.8098)"><stop offset="0" style="stop-color:rgb(200,16,46);stop-opacity:1"/><stop offset="1" style="stop-color:rgb(1,33,105);stop-opacity:1"/></linearGradient>
        <linearGradient id="_Linear18" x1="0" y1="0" x2="1" y2="0" gradientUnits="userSpaceOnUse" gradientTransform="matrix(14.12,69.85,69.85,-14.12,116.57,5.1832)"><stop offset="0" style="stop-color:rgb(200,16,46);stop-opacity:1"/><stop offset="1" style="stop-color:rgb(1,33,105);stop-opacity:1"/></linearGradient>
    </defs>
</svg>
