<svg xmlns="http://www.w3.org/2000/svg" viewBox="0 0 659.75 314.2">
  <defs>
    <style>
      .a {
        fill: #491e88;
      }

      .b {
        fill: none;
      }
    </style>
  </defs>
  <g>
    <path class="a" d="M135.88,129.18,93.3,55.43A2.91,2.91,0,0,0,90.82,54H55.64c-1.46,0-2.06,1-1.33,2.31L115.74,162.7a1.3,1.3,0,0,0,2.45,0l17.69-30.65A2.88,2.88,0,0,0,135.88,129.18Z"/>
    <rect class="a" x="135.63" y="54" width="33.57" height="33.56" rx="1.73"/>
  </g>
  <rect class="a" x="213.71" y="54" width="33.57" height="108" rx="1.73"/>
  <g>
    <g>
      <path class="a" d="M494.35,129.18,451.77,55.43A2.91,2.91,0,0,0,449.29,54H414.12c-1.47,0-2.07,1-1.34,2.31L474.21,162.7a1.3,1.3,0,0,0,2.45,0l17.69-30.65A2.88,2.88,0,0,0,494.35,129.18Z"/>
      <rect class="a" x="494.1" y="54" width="33.57" height="33.56" rx="1.73"/>
    </g>
    <rect class="a" x="572.18" y="54" width="33.57" height="108" rx="1.73"/>
  </g>
  <g>
    <path class="a" d="M325.11,86.82l42.58,73.75a2.91,2.91,0,0,0,2.48,1.43h35.18c1.46,0,2.06-1,1.33-2.31L345.25,53.3a1.3,1.3,0,0,0-2.45,0L325.11,84A2.88,2.88,0,0,0,325.11,86.82Z"/>
    <rect class="a" x="291.8" y="128.44" width="33.57" height="33.56" rx="1.73"/>
  </g>
  <g>
    <path class="a" d="M217.59,216.86l13.23,38.32,13.8-38.32h3.31l-16,42.88h-3l-15.28-42.88Z"/>
    <path class="a" d="M258.64,216.86v42.88h-3.42V216.86Z"/>
    <path class="a" d="M295.82,259.74l-4.51-13.23h-17.9l-4.74,13.23h-3.19l15.74-42.88h3.19l15.06,42.88Zm-21.44-16h16L282.59,221Z"/>
    <path class="a" d="M303.34,216.86l13.23,38.32,13.8-38.32h3.31l-16,42.88h-3l-15.28-42.88Z"/>
    <path class="a" d="M344.39,216.86v42.88H341V216.86Z"/>
    <path class="a" d="M392.86,221h-.46a24.83,24.83,0,0,0-8.84-1.82c-6,0-9.18,3-9.18,7.3,0,10.94,20.19,8.21,20.19,22.35,0,8.21-6.85,11.41-14.09,11.41a23.68,23.68,0,0,1-9.86-2.06V255h.45a23.45,23.45,0,0,0,10,2.51c6.22,0,10.1-3.37,10.1-8.5,0-11.75-20.19-8.84-20.19-22.12,0-6.33,4.56-10.44,12.54-10.44a30.32,30.32,0,0,1,9.36,1.6Z"/>
    <path class="a" d="M414.63,260.42c-8.32,0-13.23-5.81-13.23-15.85s4.91-16.08,13.46-16.08c8.33,0,13.23,5.82,13.23,15.85S423.19,260.42,414.63,260.42Zm9.81-16c0-8.79-3.3-13.23-9.69-13.23s-9.7,4.44-9.7,13.23,3.31,13.23,9.7,13.23S424.44,253.24,424.44,244.46Z"/>
    <path class="a" d="M440.4,215.26v44.48H437V215.26Z"/>
    <path class="a" d="M471.19,259.74l-.91-5.25c-.62,3.42-3.19,5.93-8.61,5.93-4.56,0-7.07-1.76-8.49-3.87-1.54-2.29-1.83-4.85-1.83-9.36v-18h3.42v18c0,3.65.17,5.53,1.37,7.3s3.08,3,6.33,3c7.13,0,7.81-5.88,7.81-9.13V229.17h3.42v30.57Z"/>
    <path class="a" d="M499.7,259.51a16.56,16.56,0,0,1-4.79.69c-3.3,0-5.59-1-6.84-3s-1.14-3.65-1.14-7.76v-17.1H481v-2.74h5.93v-9.12l3.42-1.14v10.26h9.35v2.74h-9.35v17.1c0,3,0,4.57.68,5.94a4.06,4.06,0,0,0,3.94,2,12,12,0,0,0,4.28-.91h.45Z"/>
    <path class="a" d="M511.79,217.54v4.34h-3.88v-4.34Zm-.23,11.63v30.57h-3.42V229.17Z"/>
    <path class="a" d="M533.68,260.42c-8.32,0-13.23-5.81-13.23-15.85s4.91-16.08,13.46-16.08c8.33,0,13.23,5.82,13.23,15.85S542.24,260.42,533.68,260.42Zm9.81-16c0-8.79-3.31-13.23-9.69-13.23s-9.7,4.44-9.7,13.23,3.31,13.23,9.7,13.23S543.49,253.24,543.49,244.46Z"/>
    <path class="a" d="M558.54,229.17l.91,5.25c.69-3.65,3.42-5.93,8.84-5.93,4.79,0,7.3,1.77,8.73,3.88,1.71,2.56,1.82,5.36,1.82,9.35v18h-3.42v-18c0-2.51.06-5.25-1.37-7.3-1.08-1.6-3-3-6.56-3-7.35,0-8,5.87-8,9.12v19.16H556V229.17Z"/>
    <path class="a" d="M604.61,232.82h-.46a19.14,19.14,0,0,0-6.61-1.36c-3.88,0-6.16,1.82-6.16,4.67,0,7.24,14.37,5.42,14.37,15.63,0,5.93-4.9,8.44-10.55,8.44a17,17,0,0,1-7.47-1.6v-3h.46a19.16,19.16,0,0,0,7.53,1.83c4.1,0,6.61-2,6.61-5.36,0-7.87-14.37-5.93-14.37-15.4,0-4.79,3.65-8,9.92-8a20.72,20.72,0,0,1,6.73,1.14Z"/>
  </g>
  <rect class="b" width="659.75" height="314.2"/>
</svg>
