<svg id="Layer_1" data-name="Layer 1" xmlns="http://www.w3.org/2000/svg" viewBox="0 0 709.66 234.57"><defs><style>.cls-1{fill:#1d2362;}.cls-2{fill:#831f82;}.cls-3{fill:#e6007e;}.cls-4{fill:#59b9b4;}.cls-5{fill:#008c86;}.cls-6{fill:#e30613;}.cls-7{fill:#f7a600;}</style></defs><title>Artboard 1</title><polygon class="cls-1" points="230.06 76.88 196.47 144.14 162.89 76.88 151.34 76.88 190.69 155.7 190.71 155.7 202.25 155.7 202.25 155.7 241.61 76.88 230.06 76.88"/><rect class="cls-1" x="258.25" y="76.88" width="10.42" height="78.82"/><path class="cls-1" d="M533.16,130.8a12,12,0,0,1-1.74,6.24,16.37,16.37,0,0,1-5.37,5.29,31.62,31.62,0,0,1-9.23,3.77,59.85,59.85,0,0,1-26,0,31.62,31.62,0,0,1-9.23-3.77,16.37,16.37,0,0,1-5.37-5.29,12,12,0,0,1-1.74-6.24V76.88H464.05v53.38a24,24,0,0,0,2.58,11.08,23.66,23.66,0,0,0,7.71,8.59,38.44,38.44,0,0,0,12.47,5.39,78.94,78.94,0,0,0,34.07,0,38.17,38.17,0,0,0,12.44-5.39,23.11,23.11,0,0,0,10.26-19.67V76.88H533.16Z"/><polygon class="cls-2" points="116.68 76.88 105.14 76.88 144.49 155.7 156.04 155.7 116.68 76.88"/><path class="cls-1" d="M628.78,127.09a20.5,20.5,0,0,0-5.28-5.76,34.79,34.79,0,0,0-7.51-4.25,89.49,89.49,0,0,0-8.83-3.18c-3.06-.94-6.27-1.82-9.52-2.63s-6.37-1.59-9.41-2.38-5.88-1.61-8.55-2.48a42.71,42.71,0,0,1-6.84-2.86,14.84,14.84,0,0,1-4.3-3.35,5.79,5.79,0,0,1-1.37-3.85,7.58,7.58,0,0,1,1.52-4.77,12.3,12.3,0,0,1,4.8-3.54,31.94,31.94,0,0,1,8.3-2.24,67.22,67.22,0,0,1,10-.77l1.51,0a128.25,128.25,0,0,1,24.46,3.63l2.26.66,4.41-8.85-1.25-.32c-2.39-.63-4.77-1.22-7.08-1.77s-4.77-1-7.22-1.47-5.06-.77-7.69-1a89.91,89.91,0,0,0-16.74,0,65.25,65.25,0,0,0-8.14,1.27,42.11,42.11,0,0,0-7.47,2.4,24.9,24.9,0,0,0-6.28,3.87,17.47,17.47,0,0,0-4.36,5.64,16.92,16.92,0,0,0-1.61,7.49,14.4,14.4,0,0,0,2,7.67,19.7,19.7,0,0,0,5.29,5.63,34.82,34.82,0,0,0,7.5,4.08,92.52,92.52,0,0,0,8.8,3c3.06.89,6.24,1.72,9.48,2.47s6.35,1.51,9.35,2.28,5.84,1.62,8.51,2.51a37.72,37.72,0,0,1,6.78,3,14.46,14.46,0,0,1,4.3,3.67,7.09,7.09,0,0,1,1.42,4.4,8.16,8.16,0,0,1-1.81,5.44,14.11,14.11,0,0,1-5.53,3.84,37,37,0,0,1-9,2.32,84.58,84.58,0,0,1-11.69.75,92.19,92.19,0,0,1-11.49-.71,99.38,99.38,0,0,1-12.86-2.27c-2.12-.54-4.24-1.14-6.32-1.8l-4.26,8.52,1.16.39a105.35,105.35,0,0,0,15.46,4,104.09,104.09,0,0,0,18.09,1.45c2.87,0,5.84-.12,8.82-.36a70.39,70.39,0,0,0,8.77-1.27,45.38,45.38,0,0,0,8.09-2.48,25.94,25.94,0,0,0,6.82-4.06,18.85,18.85,0,0,0,4.74-6,17.9,17.9,0,0,0,1.78-8.17A14.81,14.81,0,0,0,628.78,127.09Z"/><path class="cls-1" d="M465.56,192.25a9.13,9.13,0,0,1-2.73,6.05,9.32,9.32,0,0,1-6.61,2.2,8.87,8.87,0,0,1-6.9-2.82,10.6,10.6,0,0,1-2.56-7.39v-4.64a10.53,10.53,0,0,1,2.59-7.38,8.82,8.82,0,0,1,6.87-2.85,8.42,8.42,0,0,1,9.36,8.36h-4.07A6.69,6.69,0,0,0,460,180a5,5,0,0,0-3.78-1.27,4.65,4.65,0,0,0-4,1.94,8.15,8.15,0,0,0-1.44,5v4.67a8.35,8.35,0,0,0,1.42,5,4.64,4.64,0,0,0,4,1.93A5,5,0,0,0,460,196a6.34,6.34,0,0,0,1.53-3.76Z"/><path class="cls-1" d="M484.18,189.18H473.51v7.72h12.38v3.25H469.45V175.77h16.32V179H473.51v6.88h10.67Z"/><path class="cls-1" d="M504.05,189.18H493.39v7.72h12.37v3.25H489.32V175.77h16.32V179H493.39v6.88h10.66Z"/><path class="cls-1" d="M513.49,200.15h-4.07V175.77h4.07Z"/><path class="cls-1" d="M534.9,191.43h-8.79v-3.28h8.79Z"/><path class="cls-1" d="M565.89,175.77v16.34a7.64,7.64,0,0,1-2.6,6.27,10.73,10.73,0,0,1-7,2.12,10.31,10.31,0,0,1-6.82-2.13,7.71,7.71,0,0,1-2.55-6.26V175.77H551v16.34a4.94,4.94,0,0,0,1.41,3.88,5.64,5.64,0,0,0,3.89,1.26,6,6,0,0,0,4-1.26,4.83,4.83,0,0,0,1.46-3.88V175.77Z"/><path class="cls-1" d="M585.43,189.75H574.81v10.4h-4.06V175.77h16.39V179H574.81v7.45h10.62Z"/><path class="cls-1" d="M608.66,192.25a9.09,9.09,0,0,1-2.73,6.05,9.32,9.32,0,0,1-6.61,2.2,8.83,8.83,0,0,1-6.89-2.82,10.55,10.55,0,0,1-2.57-7.39v-4.64a10.58,10.58,0,0,1,2.59-7.38,8.84,8.84,0,0,1,6.87-2.85c2.88,0,5.1.73,6.64,2.17a9.42,9.42,0,0,1,2.72,6.19h-4.07A6.62,6.62,0,0,0,603.1,180a5,5,0,0,0-3.78-1.27,4.66,4.66,0,0,0-4,1.94,8.15,8.15,0,0,0-1.43,5v4.67a8.34,8.34,0,0,0,1.41,5,4.64,4.64,0,0,0,4,1.93,5,5,0,0,0,3.74-1.24,6.41,6.41,0,0,0,1.54-3.76Z"/><path class="cls-1" d="M630.81,197a8.62,8.62,0,0,1-3.18,2.45,12.89,12.89,0,0,1-5.71,1.08,10,10,0,0,1-7.3-2.74,9.72,9.72,0,0,1-2.79-7.25v-5.09a10,10,0,0,1,2.64-7.25,9.26,9.26,0,0,1,7-2.75q4.38,0,6.62,2.05a9.1,9.1,0,0,1,2.75,5.69h-4a6,6,0,0,0-1.6-3.31,5.17,5.17,0,0,0-3.71-1.16,5,5,0,0,0-4.1,1.86,7.39,7.39,0,0,0-1.52,4.83v5.13a7.1,7.1,0,0,0,1.65,4.88,5.57,5.57,0,0,0,4.39,1.86,9,9,0,0,0,3.1-.43,4.26,4.26,0,0,0,1.72-1.06v-4.88h-4.85v-3h8.92Z"/><path class="cls-1" d="M357,120a18.81,18.81,0,0,0,6.36-7.88,29,29,0,0,0,0-21.08A18.74,18.74,0,0,0,357,83.11a30.44,30.44,0,0,0-10.8-4.66,67.3,67.3,0,0,0-15.4-1.53H285.71l5,9.86h35.71a129.61,129.61,0,0,1,13.27.59,27.3,27.3,0,0,1,8.79,2.19,10,10,0,0,1,4.68,4.25,16.18,16.18,0,0,1,1.57,7.72,16.14,16.14,0,0,1-1.57,7.71,10,10,0,0,1-4.68,4.26,27.3,27.3,0,0,1-8.79,2.19,129.61,129.61,0,0,1-13.27.59H288.34V155.7h10.42V126.14h32c2.85,0,5.51-.13,8-.36l14.91,29.92H365.3l-15.95-32A27.29,27.29,0,0,0,357,120Z"/><polygon class="cls-1" points="371.97 76.88 376.88 86.69 406.18 86.69 406.18 155.7 406.19 155.7 416.54 155.7 416.55 155.7 416.55 86.69 445.86 86.69 450.76 76.88 371.97 76.88"/><polygon class="cls-3" points="105.14 76.88 90.38 47.32 78.83 47.32 93.58 76.88 105.14 76.88"/><polygon class="cls-4" points="113.23 116.29 101.68 116.29 121.35 155.7 132.9 155.7 113.23 116.29"/><polygon class="cls-5" points="101.68 116.29 91.84 96.58 80.29 96.58 90.13 116.29 101.68 116.29"/><polygon class="cls-6" points="144.71 86.73 133.16 86.73 167.6 155.7 179.15 155.7 144.71 86.73"/><polygon class="cls-7" points="134.87 67.02 139.79 76.88 151.34 76.88 146.42 67.02 134.87 67.02"/></svg>