<?xml version="1.0" encoding="utf-8"?>
<!-- Generator: Adobe Illustrator 27.1.1, SVG Export Plug-In . SVG Version: 6.00 Build 0)  -->
<svg version="1.1" id="Layer_1" xmlns="http://www.w3.org/2000/svg" xmlns:xlink="http://www.w3.org/1999/xlink" x="0px" y="0px"
	 viewBox="0 0 600 600" style="enable-background:new 0 0 600 600;" xml:space="preserve">
<style type="text/css">
	.st0{fill:#231F20;}
</style>
<g id="Layer_2_00000121975444041275277440000015330887993170999725_">
	<g id="Layer_1-2_00000027591021991661513910000003109080139529323679_">
		<path class="st0" d="M281.6,165.9l-37.5-83.1H205l56.1,126.3c0.2,0.3,0.6,0.5,0.9,0.4c0.2-0.1,0.3-0.2,0.4-0.4L281.6,165.9z"/>
		<path class="st0" d="M363.3,82.8c0,0-50.7,114.5-57.1,128.5c-15.2,33.5-26.4,41.8-37.9,43.7c-0.1,0-0.2,0.1-0.2,0.2
			c0,0.1,0.1,0.2,0.2,0.2h35.8c15.8,0,26.6-10.6,41.8-44.1c5.3-11.7,57.1-128.5,57.1-128.5H363.3z"/>
		<path class="st0" d="M177.8,336.9c-25.3,0-41.6,16.4-41.6,43.1c0,26.7,16.3,43.1,41.6,43.1c25.3,0,41.6-16.4,41.6-43.1
			S203.1,336.9,177.8,336.9z M177.8,409.5c-16.2,0-26.7-10.5-26.7-29.5s10.6-29.5,26.7-29.5s26.7,10.5,26.7,29.5
			S193.9,409.5,177.8,409.5L177.8,409.5z"/>
		<path class="st0" d="M305.3,338.8v82.5h-17.1l-40.8-60.4v60.4h-14.6v-82.5h17.2l40.8,60.8v-60.8H305.3z"/>
		<polygon class="st0" points="557.8,352.6 557.8,338.8 498.6,338.8 498.6,421.2 557.8,421.2 557.8,407.4 513.2,407.4 513.2,385.8 
			554.4,385.8 554.4,372 513.2,372 513.2,352.6 		"/>
		<path class="st0" d="M117.9,338.8l-29.5,64.9c-0.1,0.2-0.4,0.3-0.6,0.2c-0.1,0-0.2-0.1-0.2-0.2L58,338.8H41.3l31.2,68.7
			c4.5,10.1,8.3,14.7,15.5,14.7s10.9-4.6,15.5-14.7l31.2-68.7H117.9z"/>
		<path class="st0" d="M373.3,352.6c-4.4-10.1-7.7-14.7-14.6-14.7l0,0c-6.9,0-10.2,4.6-14.6,14.7c-2.1,4.9-29.9,68.7-29.9,68.7h15.4
			l8.5-20h41l8.5,20h15.4C403.1,421.3,375.4,357.5,373.3,352.6z M344.1,387.5l14.2-33.4c0.1-0.2,0.3-0.3,0.6-0.2
			c0.1,0,0.2,0.1,0.2,0.2l14.2,33.4H344.1z"/>
		<path class="st0" d="M443.5,376.5V389h24.7c-1.1,11.1-11.7,20.4-24.2,20.4c-14.8,0-25.6-10.8-25.6-28.8l0,0l0,0
			c0-18.6,10-30.1,26.9-30.1c10.1,0,18.5,4.8,21.3,13.2h15.1c-3.3-16.9-18.3-26.9-36.4-26.9c-25.8,0-41.8,16.9-41.8,44.1
			c0,26.3,17.5,42.2,39.2,42.2c18.7,0,25.8-10.9,27.8-14.4v12.4h12.9v-44.8H443.5z"/>
	</g>
</g>
<g>
	<path class="st0" d="M105.9,474.1H88.5v43.3h5V501h11.3c8.7,0,14.5-5.6,14.5-14C119.4,479.2,114.1,474.1,105.9,474.1z M93.5,478.9
		h11.7c5.6,0,9.1,3.2,9.1,8.2c0,5.4-3.9,9-9.7,9H93.5V478.9z"/>
	<path class="st0" d="M139.6,485c-7,0-11.9,3.1-13.8,8.8l-0.1,0.4l4.6,1.4l0.1-0.4c1.3-3.8,4.4-5.8,9.1-5.8c4.5,0,7.1,1.8,7.1,4.9
		c0,3.5-3.2,4.1-8.4,4.7l-0.2,0c-5.7,0.7-12.8,1.6-12.8,9.6c0,5.8,3.9,9.3,10.4,9.3c3.5,0,8.1-0.9,11.1-5.2v4.7h4.8v-22.6
		C151.5,488.6,147.1,485,139.6,485z M146.6,501v3.8c0,5.2-4.1,8.6-10.3,8.6c-4.2,0-6.3-1.7-6.3-4.9c0-4.3,3.8-4.8,8.3-5.4l0.2,0
		C141.7,502.6,144.6,502.1,146.6,501z"/>
	<path class="st0" d="M176.1,485.3c-4.5,0-7.9,2-9.7,5.6v-5.3h-4.9v31.9h4.9v-16.2c0-7.3,3.4-11.3,9.5-11.3c0.8,0,1.6,0.1,2.6,0.2
		l0.4,0.1l0.3-4.6l-0.3-0.1C177.9,485.4,177,485.3,176.1,485.3z"/>
	<path class="st0" d="M201.3,512.9c-1.4,0.4-2.6,0.6-3.7,0.6c-3.9,0-4.4-2.3-4.4-4.7v-18.7h8.2v-4.5h-8.2v-9.8l-4.8,1.3v8.5h-6.1
		v4.5h6.1v19.6c0,2,0,8.3,8,8.3c1.7,0,3.7-0.3,5.6-0.8l0.3-0.1l-0.5-4.2L201.3,512.9z"/>
	<path class="st0" d="M237.1,485c-8.9,0-14.4,6.3-14.4,16.5s5.5,16.5,14.4,16.5c8.9,0,14.4-6.3,14.4-16.5S246,485,237.1,485z
		 M237.1,513.5c-6.1,0-9.5-4.4-9.5-12s3.5-12,9.5-12c6.1,0,9.6,4.4,9.6,12S243.2,513.5,237.1,513.5z"/>
	<path class="st0" d="M270.8,471.9c-6,0-9,3.1-9,9.4v4.3h-6.1v4.5h6.1v27.4h4.8v-27.4h8.3v-4.5h-8.3v-3.8c0-3.8,1.5-5.4,4.7-5.4
		c1,0,2.1,0.2,3.3,0.6l0.4,0.1l0.6-4.4l-0.3-0.1C273.8,472.2,272.3,471.9,270.8,471.9z"/>
	<polygon class="st0" points="297.6,517.4 324.6,517.4 324.6,512.6 302.6,512.6 302.6,497.6 322.6,497.6 322.6,492.8 302.6,492.8 
		302.6,478.9 324.6,478.9 324.6,474.1 297.6,474.1 	"/>
	<path class="st0" d="M347.9,485.3c-4.5,0-7.9,2-9.7,5.6v-5.3h-4.8v31.9h4.8v-16.2c0-7.3,3.4-11.3,9.5-11.3c0.8,0,1.6,0.1,2.6,0.2
		l0.4,0.1l0.3-4.6l-0.3-0.1C349.7,485.4,348.8,485.3,347.9,485.3z"/>
	<rect x="357.3" y="485.6" class="st0" width="4.8" height="31.9"/>
	<rect x="357" y="474" class="st0" width="5.4" height="6.8"/>
	<path class="st0" d="M384.6,489.4c4.3,0,7.1,2.2,8.1,6.3l0.1,0.4l4.7-1l-0.1-0.4c-1.6-6.2-6.1-9.7-12.8-9.7
		c-9,0-14.3,6.2-14.3,16.5c0,10.3,5.3,16.4,14.2,16.4c6.7,0,11.4-3.6,12.9-9.9l0.1-0.4l-4.7-1l-0.1,0.4c-1,4.2-3.9,6.5-8.2,6.5
		c-6,0-9.3-4.2-9.3-11.9C375.2,493.9,378.7,489.4,384.6,489.4z"/>
	<path class="st0" d="M417.3,499.3c-4.6-0.8-8.5-1.4-8.5-5.2c0-3.1,2.6-4.9,6.9-4.9c4.3,0,7,1.8,8,5.4l0.1,0.4l4.4-1.3l-0.1-0.4
		c-1.4-5.4-5.7-8.4-12.3-8.4c-7.3,0-11.8,3.7-11.8,9.6c0,6.8,6,7.9,11.3,8.8l0.2,0c4.5,0.8,8.4,1.5,8.4,5.2c0,3.1-2.8,5.1-7.1,5.1
		c-4.6,0-7.9-2.3-8.9-6.4l-0.1-0.4l-4.6,1.4l0.1,0.4c1.5,5.8,6.6,9.3,13.4,9.3c7.1,0,11.9-4,11.9-9.9
		C428.7,501.2,422.6,500.2,417.3,499.3z"/>
	<path class="st0" d="M448.8,499.3c-4.6-0.8-8.5-1.4-8.5-5.2c0-3.1,2.6-4.9,6.9-4.9c4.3,0,7,1.8,8,5.4l0.1,0.4l4.4-1.3l-0.1-0.4
		c-1.4-5.4-5.7-8.4-12.3-8.4c-7.3,0-11.8,3.7-11.8,9.6c0,6.8,6,7.9,11.3,8.8l0.2,0c4.5,0.8,8.4,1.5,8.4,5.2c0,3.1-2.8,5.1-7.1,5.1
		c-4.6,0-7.9-2.3-8.9-6.4l-0.1-0.4l-4.6,1.4l0.1,0.4c1.5,5.8,6.6,9.3,13.4,9.3c7.1,0,11.9-4,11.9-9.9
		C460.2,501.2,454.1,500.2,448.8,499.3z"/>
	<path class="st0" d="M480.8,485c-8.9,0-14.4,6.3-14.4,16.5s5.5,16.5,14.4,16.5c8.9,0,14.4-6.3,14.4-16.5S489.7,485,480.8,485z
		 M480.8,513.5c-6.1,0-9.5-4.4-9.5-12s3.5-12,9.5-12c6.1,0,9.6,4.4,9.6,12S486.8,513.5,480.8,513.5z"/>
	<path class="st0" d="M518.4,485c-4.6,0-8,1.8-10.1,5.3v-4.7h-4.8v31.9h4.8v-18c0-5.9,3.7-9.9,9.2-9.9c5.9,0,7.1,4.4,7.1,8.1v19.8
		h4.8v-21.3C529.4,489.2,525.3,485,518.4,485z"/>
</g>
</svg>
