<?xml version="1.0" encoding="UTF-8"?>
<svg id="Layer_1" data-name="Layer 1" xmlns="http://www.w3.org/2000/svg" viewBox="0 0 1365 300">
  <path d="M345,0l-77.66,174.79-23.17,51.84c-5.79,12.96-12.03,25.07-19.45,37.07-10.58,17.1-24.52,33.66-44.71,36.31h-70c-.14-.26-.02-.91.53-.99,13.72-2,24.87-10.38,33.64-20.88,16.1-19.28,28.05-45.91,38.39-69.17l51.5-115.89L274.09,2.76c.52-1.18,1.08-1.72.91-2.76h70Z"/>
  <path d="M69,0c-.09,1.26.55,2.02,1.19,3.45l63.62,141.07-33.34,74.73c-.28.64-.96,1.09-1.3,1.19-.43.13-1.26-.44-1.6-1.19l-25.64-57.73L1.41,2.77C.87,1.57.35,1.04.5,0h68.5Z"/>
  <path d="M1365,78.5v23.5l-.32,1.22c-25.5.3-51.07.42-76.69.38v31.11c23.37.36,46.84.46,70.4.29.94,0,1.45.57,1.62,1.46l-.09,23.77-1.34,1.25-70.59.12v34.59c25.52.19,51.08.4,76.69.63l.32,1.17v23.5c-.71.45-1.36.51-2.57.51l-100.92-.02V78.01s100.92-.02,100.92-.02c1.21,0,1.87.06,2.57.51Z"/>
  <path d="M925.49,78v144s-29.92-.01-29.92-.01l-70.49-104.56c-.81.24-.75,1.07-.08,1.72l-.02,102.79-25.99.07V78s30.34,0,30.34,0l25.31,37.86,30.5,45.45,14.82,21.94.04-105.27h25.49Z"/>
  <path d="M1208.67,166.06l-43.21-.13.11-22.42h69.91s0,78.41,0,78.41l-22.96.1-.15-20.79c-2.66,4.48-5.89,7.57-9.53,11.26-8.35,7.06-18.84,11.24-30,12.25h-16.19c-14.06-1.36-27.23-6.88-37.47-16.32-5.87-5.41-10.45-11.04-14.1-18.04-7.23-13.86-9.96-30.75-8.71-46.37.83-10.36,2.79-20.24,6.94-29.68,10.32-23.49,31.44-37.11,56.86-39.11h17.18c26.91,2.37,50.04,19.33,55.17,46.67l-26.58.09c-1.96-5.36-4.78-10.11-9.12-13.79-6.52-5.27-14.06-8.24-22.45-9.03h-10.75c-19.85,1.7-33.67,13.4-38.83,32.59-1.08,4.01-2.06,7.82-2.06,11.96v14.04c2.1,23.56,16.68,41.43,40.73,42.93l5.66.04c6.24.05,11.83-1.85,17.45-4.69,11.55-5.84,20.29-16.36,22.12-30.01Z"/>
  <path d="M694.81,224.93c-17-2.1-31.07-7.26-42.99-19.25-4.13-4.15-7.56-8.38-10.47-13.63-5.63-10.17-8.72-21.45-9.63-33.18l.03-18.12c.01-7.74,2.24-14.92,4.8-22.2,2.96-8.41,7.44-16.01,13.53-22.43,4.92-5.19,9.96-9.44,16.35-12.75,8.77-4.53,18.24-7.25,28.2-8.17l18.2-.11c39.45,4.41,60.87,30.22,63.48,69.1v11.61c-.61,9.08-2.15,17.65-5.27,26.2-6.74,18.48-20.99,32.67-39.68,38.86-6.11,2.02-12.03,3.43-18.52,3.94l-18.03.12ZM709.6,200.8c16.12-1.29,29.04-10.13,35.55-24.63,6.68-14.86,6.67-37.47,0-52.34s-19.13-23.02-34.95-24.56c-20.29-1.97-38.74,5.04-47.4,24.04-3.22,7.06-4.51,14.28-5.08,21.96v9.47c.95,11.66,3.61,22.99,11.52,32.09,7.24,8.33,17.43,12.86,28.49,13.94l11.88.03Z"/>
  <path d="M1053.93,187.52l-71.28-.03-14.69,34.52-27.25-.05,52.74-121.39c5.55-12.29,11.29-24.22,25.27-24.12,12.16.09,18.13,10.74,23.2,21.29l53.91,124.09-27.18.18-14.72-34.5ZM1043.39,162.93l-24.65-58.03c-.99-.1-1.34.31-1.34,1.07l-24.22,57.04,50.21-.08Z"/>
  <path d="M629.09,78.07l-55.84,123.02c-2.41,5.31-4.96,9.7-8.5,14.24-6.91,8.85-19.82,11.07-29.19,4.61-5.67-3.91-8.66-9.65-12.11-15.6l-57.31-126.18,29.43-.22,52.01,114.1,52-114.04,29.51.07Z"/>
</svg>