<?xml version="1.0" encoding="UTF-8"?>
<svg id="_x32_021_strapline" xmlns="http://www.w3.org/2000/svg" version="1.1" viewBox="0 0 369 66">
  <!-- Generator: Adobe Illustrator 29.0.1, SVG Export Plug-In . SVG Version: 2.1.0 Build 192)  -->
  <defs>
    <style>
      .st0 {
        stroke: #002e5f;
        stroke-width: .2px;
      }

      .st0, .st1 {
        fill: #002e5f;
      }
    </style>
  </defs>
  <g>
    <path class="st1" d="M50.1,12.3h8.4v4.7h.1c1.3-3.4,4.2-5.2,7.9-5.2s1.4,0,2,.2v8c-1.1-.3-2.1-.5-3.3-.5-4.3,0-6.5,3-6.5,6.3v13.2h-8.6V12.3Z"/>
    <path class="st1" d="M70,20.5c.1-3.5,1.8-5.8,4.1-7.1,2.3-1.3,5.4-1.9,8.4-1.9,6.2,0,12.3,1.4,12.3,8.9v11.7c0,2.3,0,4.7,1,6.8h-8.7c-.3-.8-.4-1.6-.5-2.5-2.2,2.4-5.5,3.3-8.7,3.3-5,0-9-2.6-9-8.1,0-8.7,9.3-8,15.3-9.3,1.5-.3,2.3-.8,2.3-2.5s-2.4-2.8-4.2-2.8-3.9,1.1-4.3,3.3h-8.1ZM81.2,34.3c4.1,0,5.5-2.4,5.3-7.9-1.2.8-3.4.9-5.3,1.4-1.9.5-3.5,1.3-3.5,3.4s1.7,3,3.6,3Z"/>
    <path class="st1" d="M112.7,41.3c-2.1,5.9-5.2,6.6-11,6.6h-4.1v-7.1h3c2,0,3.4-1.1,3.4-3s-1.7-5.6-2.2-7l-6.8-18.6h9.1l5,17.4h.1l5-17.4h8.8l-10.4,29.1Z"/>
    <path class="st1" d="M149.6,22c0-2.3-2-3.9-4.2-3.9-4.8,0-5.6,4.2-5.6,7.9s1.5,7,5.1,7,4.5-1.7,4.9-4.6h8.4c-.8,7.1-6.2,11.3-13.2,11.3s-13.8-5.5-13.8-13.7,5.3-14.6,13.8-14.6,12.4,3.5,13,10.5h-8.4Z"/>
    <path class="st1" d="M161.1,20.5c.2-3.5,1.8-5.8,4.1-7.1,2.3-1.3,5.4-1.9,8.4-1.9,6.2,0,12.3,1.4,12.3,8.9v11.7c0,2.3,0,4.7,1,6.8h-8.7c-.3-.8-.4-1.6-.5-2.5-2.2,2.4-5.5,3.3-8.7,3.3-5,0-9-2.6-9-8.1,0-8.7,9.3-8,15.3-9.3,1.5-.3,2.3-.8,2.3-2.5s-2.4-2.8-4.2-2.8-3.9,1.1-4.3,3.3h-8.1ZM172.3,34.3c4.1,0,5.5-2.4,5.3-7.9-1.2.8-3.4.9-5.3,1.4-1.9.5-3.5,1.3-3.5,3.4s1.7,3,3.6,3Z"/>
    <path class="st1" d="M197.2,30.2c0,1.3.6,2.3,1.4,3,.8.6,2,.9,3.2.9s4.1-.7,4.1-2.8-2.7-2.5-4.2-2.8c-5.4-1.4-12.2-1.5-12.2-8.7s6.8-8.2,12-8.2,11.8,1.7,12.1,8.6h-8c0-1.1-.4-1.9-1.1-2.3-.7-.5-1.7-.7-2.7-.7s-3.7.2-3.7,2,5.8,3,9.7,3.9c5.3,1.1,6.7,5,6.7,7.2,0,7.1-6.7,9.5-12.6,9.5s-12.6-2.1-12.9-9.6h8.2Z"/>
    <path class="st1" d="M232.5,17.9h-5.3v12.1c0,2.1,1.2,2.6,3.1,2.6s1.5-.1,2.2-.1v6.4c-1.6,0-3.1.3-4.7.3-7.3,0-9.2-2.2-9.2-9.4v-11.9h-4.4v-5.7h4.4V4.2h8.6v8.1h5.3v5.7Z"/>
    <path class="st1" d="M234.7,2.2h8.6v36.7h-8.6V2.2Z"/>
    <path class="st1" d="M254.7,27.7c.2,3.7,2.2,6.1,5.9,6.1s4.1-1,4.9-2.9h8.1c-1.6,6.2-7.2,8.8-13.1,8.8-8.6,0-14.4-5.2-14.4-14.2s6.4-14,14.2-14,14.1,7.2,13.7,16.2h-19.3ZM265.4,22.9c-.2-3-2.2-5.5-5.1-5.5s-5.1,2.2-5.6,5.5h10.7Z"/>
    <path class="st1" d="M40.6,39h-8.7l-4.2-17.5h-.1l-4.1,17.5h-8.7L6.4,12.6h8.7l4.4,17.1h.1l3.8-17.1h8.2l3.9,17h.1l4.3-17h8.8l-8.2,26.4Z"/>
  </g>
  <g>
    <path class="st0" d="M125.4,56.6l1.7.2c-.3,1-.8,1.7-1.5,2.2-.7.5-1.6.8-2.7.8s-2.5-.4-3.3-1.3c-.8-.8-1.2-2-1.2-3.5s.4-2.8,1.2-3.7,1.9-1.3,3.2-1.3,2.3.4,3.1,1.3,1.2,2,1.2,3.6,0,.2,0,.4h-7.1c0,1,.4,1.8.9,2.4.5.5,1.2.8,2,.8s1.1-.2,1.5-.5.8-.8,1-1.5ZM120.1,54h5.3c0-.8-.3-1.4-.6-1.8-.5-.6-1.2-.9-2-.9s-1.4.2-1.9.7c-.5.5-.8,1.1-.8,2Z"/>
    <path class="st0" d="M128.8,59.6v-9.3h1.5v1.3c.3-.5.7-.8,1.2-1.1.5-.3,1.1-.4,1.7-.4s1.3.1,1.7.4c.5.3.8.7,1,1.2.8-1.1,1.7-1.6,3-1.6s1.7.3,2.2.8c.5.5.8,1.3.8,2.4v6.4h-1.6v-5.9c0-.6,0-1.1-.2-1.4-.1-.3-.3-.5-.6-.7-.3-.2-.6-.3-1-.3-.7,0-1.2.2-1.7.7s-.7,1.1-.7,2.1v5.4h-1.6v-6.1c0-.7-.1-1.2-.4-1.6s-.7-.5-1.3-.5-.9.1-1.3.4-.7.6-.8,1c-.2.5-.3,1.1-.3,2v4.8h-1.6Z"/>
    <path class="st0" d="M143.8,63.2v-12.9h1.5v1.2c.3-.5.7-.8,1.2-1.1.4-.2,1-.4,1.6-.4s1.5.2,2.2.6,1.1,1,1.4,1.7.5,1.6.5,2.5-.2,1.8-.5,2.6c-.4.8-.9,1.4-1.5,1.8-.7.4-1.4.6-2.1.6s-1-.1-1.5-.3-.8-.5-1.1-.8v4.5h-1.6ZM145.2,55c0,1.2.2,2.1.7,2.7s1.1.9,1.8.9,1.3-.3,1.9-.9c.5-.6.8-1.5.8-2.8s-.3-2.1-.8-2.7-1.1-.9-1.8-.9-1.3.3-1.8.9c-.5.6-.8,1.5-.8,2.7Z"/>
    <path class="st0" d="M153,54.9c0-1.7.5-3,1.5-3.8.8-.7,1.8-1,3-1s2.4.4,3.2,1.3c.8.8,1.3,2,1.3,3.5s-.2,2.1-.6,2.8-.9,1.2-1.6,1.6-1.5.6-2.3.6c-1.3,0-2.4-.4-3.2-1.3-.8-.8-1.2-2-1.2-3.6ZM154.7,54.9c0,1.2.3,2.1.8,2.7.5.6,1.2.9,2,.9s1.5-.3,2-.9.8-1.5.8-2.7-.3-2-.8-2.6c-.5-.6-1.2-.9-2-.9s-1.5.3-2,.9c-.5.6-.8,1.5-.8,2.7Z"/>
    <path class="st0" d="M165.3,59.6l-2.9-9.3h1.7l1.5,5.4.6,2c0,0,.2-.7.5-1.9l1.5-5.5h1.7l1.4,5.4.5,1.8.5-1.8,1.6-5.4h1.6l-3,9.3h-1.7l-1.5-5.6-.4-1.6-1.9,7.2h-1.7Z"/>
    <path class="st0" d="M183,56.6l1.7.2c-.3,1-.8,1.7-1.5,2.2-.7.5-1.6.8-2.7.8s-2.5-.4-3.3-1.3c-.8-.8-1.2-2-1.2-3.5s.4-2.8,1.2-3.7,1.9-1.3,3.2-1.3,2.3.4,3.1,1.3,1.2,2,1.2,3.6,0,.2,0,.4h-7.1c0,1,.4,1.8.9,2.4.5.5,1.2.8,2,.8s1.1-.2,1.5-.5.8-.8,1-1.5ZM177.7,54h5.3c0-.8-.3-1.4-.6-1.8-.5-.6-1.2-.9-2-.9s-1.4.2-1.9.7c-.5.5-.8,1.1-.8,2Z"/>
    <path class="st0" d="M186.4,59.6v-9.3h1.5v1.4c.4-.7.7-1.1,1-1.3.3-.2.7-.3,1-.3.5,0,1.1.2,1.7.5l-.6,1.5c-.4-.2-.8-.3-1.2-.3s-.7.1-1,.3-.5.5-.6.9c-.2.6-.3,1.2-.3,1.8v4.9h-1.6Z"/>
    <path class="st0" d="M192.2,48.5v-1.8h1.6v1.8h-1.6ZM192.2,59.6v-9.3h1.6v9.3h-1.6Z"/>
    <path class="st0" d="M195.9,59.6v-9.3h1.5v1.3c.7-1,1.7-1.5,3-1.5s1.1.1,1.6.3c.5.2.8.5,1.1.8s.4.7.5,1.2c0,.3,0,.8,0,1.5v5.7h-1.6v-5.7c0-.6,0-1.1-.2-1.4s-.3-.6-.7-.8-.7-.3-1.1-.3c-.7,0-1.3.2-1.8.6-.5.4-.8,1.2-.8,2.4v5.1h-1.6Z"/>
    <path class="st0" d="M205.5,60.4l1.6.2c0,.5.2.8.5,1,.4.3,1,.4,1.6.4s1.3-.1,1.7-.4.7-.7.8-1.2c0-.3.1-1,.1-2-.7.8-1.6,1.2-2.6,1.2s-2.3-.5-3.1-1.4c-.7-.9-1.1-2-1.1-3.3s.2-1.7.5-2.5.8-1.3,1.4-1.7c.6-.4,1.4-.6,2.2-.6s2.1.4,2.8,1.3v-1.1h1.5v8.1c0,1.5-.2,2.5-.5,3.1-.3.6-.8,1.1-1.4,1.4s-1.5.5-2.4.5-2.1-.3-2.8-.8c-.7-.5-1-1.3-1-2.3ZM206.8,54.7c0,1.2.2,2.1.7,2.7.5.6,1.1.8,1.9.8s1.4-.3,1.9-.8c.5-.6.8-1.4.8-2.6s-.3-2-.8-2.6-1.1-.9-1.9-.9-1.3.3-1.8.9c-.5.6-.8,1.4-.8,2.5Z"/>
    <path class="st0" d="M222.5,58.2l.2,1.4c-.5,0-.9.1-1.2.1-.6,0-1,0-1.4-.3s-.6-.4-.7-.7c-.1-.3-.2-.9-.2-1.9v-5.4h-1.2v-1.2h1.2v-2.3l1.6-.9v3.3h1.6v1.2h-1.6v5.5c0,.5,0,.7,0,.9s.2.2.3.3.3.1.6.1.4,0,.7,0Z"/>
    <path class="st0" d="M223.7,59.6v-12.9h1.6v4.6c.8-.9,1.7-1.3,2.9-1.3s1.3.1,1.8.4.9.6,1.1,1.1c.2.5.3,1.2.3,2.1v5.9h-1.6v-5.9c0-.8-.2-1.4-.5-1.7-.4-.4-.8-.5-1.5-.5s-.9.1-1.4.4c-.4.2-.7.6-.9,1s-.3,1-.3,1.7v5.1h-1.6Z"/>
    <path class="st0" d="M240.1,56.6l1.7.2c-.3,1-.8,1.7-1.5,2.2-.7.5-1.6.8-2.7.8s-2.5-.4-3.3-1.3c-.8-.8-1.2-2-1.2-3.5s.4-2.8,1.2-3.7c.8-.9,1.9-1.3,3.2-1.3s2.3.4,3.1,1.3,1.2,2,1.2,3.6,0,.2,0,.4h-7.1c0,1,.4,1.8.9,2.4.5.5,1.2.8,2,.8s1.1-.2,1.5-.5c.4-.3.8-.8,1-1.5ZM234.8,54h5.3c0-.8-.3-1.4-.6-1.8-.5-.6-1.2-.9-2-.9s-1.4.2-1.9.7c-.5.5-.8,1.1-.8,2Z"/>
    <path class="st0" d="M250.3,58.2l.2,1.4c-.5,0-.9.1-1.2.1-.6,0-1,0-1.4-.3s-.6-.4-.7-.7c-.1-.3-.2-.9-.2-1.9v-5.4h-1.2v-1.2h1.2v-2.3l1.6-.9v3.3h1.6v1.2h-1.6v5.5c0,.5,0,.7,0,.9s.2.2.3.3.3.1.6.1.4,0,.7,0Z"/>
    <path class="st0" d="M258.1,56.6l1.7.2c-.3,1-.8,1.7-1.5,2.2-.7.5-1.6.8-2.7.8s-2.5-.4-3.3-1.3c-.8-.8-1.2-2-1.2-3.5s.4-2.8,1.2-3.7c.8-.9,1.9-1.3,3.2-1.3s2.3.4,3.1,1.3,1.2,2,1.2,3.6,0,.2,0,.4h-7.1c0,1,.4,1.8.9,2.4.5.5,1.2.8,2,.8s1.1-.2,1.5-.5c.4-.3.8-.8,1-1.5ZM252.7,54h5.3c0-.8-.3-1.4-.6-1.8-.5-.6-1.2-.9-2-.9s-1.4.2-1.9.7c-.5.5-.8,1.1-.8,2Z"/>
    <path class="st0" d="M261.4,59.6v-12.9h1.6v12.9h-1.6Z"/>
    <path class="st0" d="M271.7,56.6l1.7.2c-.3,1-.8,1.7-1.5,2.2-.7.5-1.6.8-2.7.8s-2.5-.4-3.3-1.3c-.8-.8-1.2-2-1.2-3.5s.4-2.8,1.2-3.7c.8-.9,1.9-1.3,3.2-1.3s2.3.4,3.1,1.3,1.2,2,1.2,3.6,0,.2,0,.4h-7.1c0,1,.4,1.8.9,2.4.5.5,1.2.8,2,.8s1.1-.2,1.5-.5c.4-.3.8-.8,1-1.5ZM266.4,54h5.3c0-.8-.3-1.4-.6-1.8-.5-.6-1.2-.9-2-.9s-1.4.2-1.9.7c-.5.5-.8,1.1-.8,2Z"/>
    <path class="st0" d="M281.3,56.2l1.6.2c-.2,1.1-.6,1.9-1.3,2.5-.7.6-1.6.9-2.6.9s-2.4-.4-3.2-1.3-1.2-2-1.2-3.6.2-1.9.5-2.6c.3-.8.9-1.3,1.6-1.7.7-.4,1.5-.6,2.3-.6s1.9.3,2.5.8,1.1,1.2,1.3,2.2l-1.6.2c-.1-.6-.4-1.1-.8-1.4-.4-.3-.8-.5-1.4-.5-.8,0-1.5.3-2,.9s-.8,1.5-.8,2.7.2,2.2.7,2.7c.5.6,1.1.9,1.9.9s1.2-.2,1.6-.6c.4-.4.7-1,.8-1.8Z"/>
    <path class="st0" d="M283.3,54.9c0-1.7.5-3,1.5-3.8.8-.7,1.8-1,3-1s2.4.4,3.2,1.3,1.3,2,1.3,3.5-.2,2.1-.6,2.8c-.4.7-.9,1.2-1.6,1.6-.7.4-1.5.6-2.3.6-1.3,0-2.4-.4-3.2-1.3-.8-.8-1.2-2-1.2-3.6ZM284.9,54.9c0,1.2.3,2.1.8,2.7.5.6,1.2.9,2,.9s1.5-.3,2-.9.8-1.5.8-2.7-.3-2-.8-2.6c-.5-.6-1.2-.9-2-.9s-1.5.3-2,.9c-.5.6-.8,1.5-.8,2.7Z"/>
    <path class="st0" d="M293.8,59.6v-9.3h1.5v1.3c.3-.5.7-.8,1.2-1.1.5-.3,1.1-.4,1.7-.4s1.3.1,1.7.4c.5.3.8.7,1,1.2.8-1.1,1.7-1.6,3-1.6s1.7.3,2.2.8c.5.5.8,1.3.8,2.4v6.4h-1.6v-5.9c0-.6,0-1.1-.2-1.4-.1-.3-.3-.5-.6-.7s-.6-.3-1-.3c-.7,0-1.2.2-1.7.7s-.7,1.1-.7,2.1v5.4h-1.6v-6.1c0-.7-.1-1.2-.4-1.6s-.7-.5-1.3-.5-.9.1-1.3.4c-.4.2-.7.6-.8,1-.2.5-.3,1.1-.3,2v4.8h-1.6Z"/>
    <path class="st0" d="M308.1,56.8l1.6-.2c0,.6.3,1.1.8,1.4s1,.5,1.7.5,1.3-.1,1.7-.4.5-.6.5-1-.2-.6-.5-.8c-.2-.1-.8-.3-1.7-.5-1.2-.3-2-.5-2.5-.8s-.8-.5-1-.9-.4-.8-.4-1.3,0-.8.3-1.2c.2-.4.5-.6.8-.9.3-.2.6-.3,1-.5s.9-.2,1.4-.2c.8,0,1.4.1,2,.3.6.2,1,.5,1.3.9s.5.8.6,1.4l-1.6.2c0-.5-.3-.9-.6-1.1-.3-.3-.8-.4-1.5-.4s-1.3.1-1.6.4-.5.5-.5.8,0,.4.2.6c.1.2.3.3.6.4.2,0,.6.2,1.4.4,1.1.3,1.9.5,2.4.7.5.2.8.5,1.1.8.3.4.4.8.4,1.4s-.2,1-.5,1.5c-.3.5-.8.8-1.4,1.1-.6.3-1.3.4-2,.4-1.2,0-2.2-.3-2.8-.8-.7-.5-1.1-1.3-1.2-2.2Z"/>
    <path class="st0" d="M322.7,59.6l-2.9-9.3h1.7l1.5,5.4.6,2c0,0,.2-.7.5-1.9l1.5-5.5h1.7l1.4,5.4.5,1.8.5-1.8,1.6-5.4h1.6l-3,9.3h-1.7l-1.5-5.6-.4-1.6-1.9,7.2h-1.7Z"/>
    <path class="st0" d="M333.3,54.9c0-1.7.5-3,1.5-3.8.8-.7,1.8-1,3-1s2.4.4,3.2,1.3,1.3,2,1.3,3.5-.2,2.1-.6,2.8-.9,1.2-1.6,1.6c-.7.4-1.5.6-2.3.6-1.3,0-2.4-.4-3.2-1.3-.8-.8-1.2-2-1.2-3.6ZM334.9,54.9c0,1.2.3,2.1.8,2.7.5.6,1.2.9,2,.9s1.5-.3,2-.9.8-1.5.8-2.7-.3-2-.8-2.6c-.5-.6-1.2-.9-2-.9s-1.5.3-2,.9c-.5.6-.8,1.5-.8,2.7Z"/>
    <path class="st0" d="M343.7,59.6v-9.3h1.5v1.4c.4-.7.7-1.1,1-1.3s.7-.3,1-.3c.5,0,1.1.2,1.7.5l-.6,1.5c-.4-.2-.8-.3-1.2-.3s-.7.1-1,.3-.5.5-.6.9c-.2.6-.3,1.2-.3,1.8v4.9h-1.6Z"/>
    <path class="st0" d="M349.5,59.6v-12.9h1.6v12.9h-1.6Z"/>
    <path class="st0" d="M359.5,59.6v-1.2c-.6.9-1.5,1.4-2.7,1.4s-1.5-.2-2.1-.6-1.1-1-1.5-1.7-.5-1.6-.5-2.5.2-1.8.5-2.5.8-1.3,1.4-1.7,1.3-.6,2.1-.6,1.1.1,1.5.4.8.5,1.1.9v-4.6h1.6v12.9h-1.5ZM354.3,54.9c0,1.2.3,2.1.8,2.7s1.1.9,1.8.9,1.3-.3,1.8-.8c.5-.6.7-1.4.7-2.6s-.3-2.2-.8-2.8c-.5-.6-1.1-.9-1.9-.9s-1.3.3-1.8.9-.7,1.5-.7,2.7Z"/>
  </g>
</svg>