<?xml version="1.0" encoding="utf-8"?>
<!-- Generator: Adobe Illustrator 27.0.1, SVG Export Plug-In . SVG Version: 6.00 Build 0)  -->
<svg version="1.1" id="Layer_1" xmlns="http://www.w3.org/2000/svg" xmlns:xlink="http://www.w3.org/1999/xlink" x="0px" y="0px"
	 viewBox="0 0 612 792" style="enable-background:new 0 0 612 792;" xml:space="preserve">
<style type="text/css">
	.st0{fill:#FFFFFF;}
	.st1{fill:url(#SVGID_1_);}
	.st2{fill:url(#SVGID_00000103241656435554299190000012698814023338743974_);}
	.st3{fill:url(#SVGID_00000006667334093213916760000017778286541915655066_);}
	.st4{fill:url(#SVGID_00000148650589498239279690000000333074514533724824_);}
	.st5{fill:url(#SVGID_00000091719231534077710850000017193310193179883196_);}
	.st6{fill:url(#SVGID_00000109020052640388094510000006677689277897584311_);}
	.st7{fill:url(#SVGID_00000005241980519402140820000010147552589223429276_);}
	.st8{fill:url(#SVGID_00000083067002522723689990000002818238414351745436_);}
	.st9{fill:url(#SVGID_00000081643603491966535030000009556084345135715747_);}
	.st10{fill:url(#SVGID_00000003066226094709930110000009679235442860511412_);}
	.st11{fill:url(#SVGID_00000012438233740097011370000003549966049369168288_);}
	.st12{fill:url(#SVGID_00000000220554177042284000000002908175400072743571_);}
	.st13{fill:url(#SVGID_00000097467913075495403900000006319879344777268385_);}
	.st14{fill:url(#SVGID_00000180340724598498631070000003181412751305317793_);}
	.st15{fill:url(#SVGID_00000045601712845794858220000008552192900971830402_);}
	.st16{fill:#08FBF3;}
	.st17{fill:#1688FE;}
	.st18{fill:#FDFDFD;}
</style>
<g>
	<linearGradient id="SVGID_1_" gradientUnits="userSpaceOnUse" x1="115.7048" y1="574.2675" x2="301.2008" y2="24.176">
		<stop  offset="0" style="stop-color:#1691F9"/>
		<stop  offset="0.5048" style="stop-color:#01ECFA"/>
		<stop  offset="0.9459" style="stop-color:#1691FB"/>
	</linearGradient>
	<path class="st1" d="M307.93,175.06l-0.08,0.08c-2.34,2.39-4.77,4.69-7.28,6.91l-13.29,12.61l-41.6-10.21
		c-14.29-2.87-29.61-4.43-41.5,3.49c-12.12,8.07-16.83,24.16-15.28,38.64c1.55,14.49,8.26,27.84,14.86,40.83
		c7.01,13.79,14.01,27.59,21.02,41.39c1.06,1.85,2.1,3.72,3.12,5.6c6.63,12.17,12.57,24.81,18.71,37.26h0l13.37,25.75l-8.14-9.67
		l-9.34-11.09l-0.43-0.51l0,0c-5.71-6.85-11.36-13.75-16.97-20.69c-11.12-13.78-22.03-27.74-32.73-41.86
		c-12.43-16.42-24.85-33.65-29.71-53.66c-3.76-15.48-2.64-32.26,4.02-46.72c6.66-14.47,19-26.42,34.01-31.74
		c14.03-4.97,29.17-3.82,43.65-1.77c9.05,1.28,18.01,3.15,26.9,5.26l0.04,0.01L307.93,175.06z"/>
	
		<linearGradient id="SVGID_00000125585550855012482020000007571837135828200638_" gradientUnits="userSpaceOnUse" x1="224.5616" y1="231.0173" x2="481.5539" y2="231.0173">
		<stop  offset="0.3093" style="stop-color:#01ECFA"/>
		<stop  offset="0.9459" style="stop-color:#1691FB"/>
	</linearGradient>
	<path style="fill:url(#SVGID_00000125585550855012482020000007571837135828200638_);" d="M432.32,305.17l-0.08-0.08
		c-2.34-2.39-4.6-4.86-6.76-7.41l-12.35-13.53l11.03-41.39c3.16-14.23,5.02-29.51-2.67-41.57c-7.83-12.28-23.82-17.31-38.33-16.05
		c-14.51,1.26-28,7.7-41.12,14.04c-13.93,6.73-27.86,13.46-41.8,20.19c-1.87,1.02-3.76,2.02-5.66,3.01
		c-12.29,6.38-25.06,12.08-37.62,17.96l0,0l-26.01,12.86l9.83-7.94l11.28-9.11l0.52-0.42l0,0c6.96-5.57,13.97-11.09,21.02-16.55
		c14-10.85,28.17-21.48,42.51-31.89c16.66-12.1,34.13-24.17,54.24-28.64c15.55-3.45,32.3-2,46.63,4.95
		c14.33,6.95,26.03,19.52,31.06,34.64c4.7,14.13,3.24,29.24,0.9,43.67c-1.46,9.03-3.51,17.94-5.8,26.79l-0.01,0.04L432.32,305.17z"
		/>
	
		<linearGradient id="SVGID_00000115474812549445049070000004441352387202371476_" gradientUnits="userSpaceOnUse" x1="377.8503" y1="479.5521" x2="377.8503" y2="252.4251">
		<stop  offset="0.1475" style="stop-color:#1691FB"/>
		<stop  offset="0.3254" style="stop-color:#01ECFA"/>
	</linearGradient>
	<path style="fill:url(#SVGID_00000115474812549445049070000004441352387202371476_);" d="M304.24,428.06l0.08-0.08
		c2.33-2.4,4.75-4.71,7.25-6.93l13.24-12.66l41.63,10.05c14.3,2.82,29.62,4.32,41.49-3.64c12.09-8.12,16.74-24.22,15.14-38.7
		s-8.36-27.81-15-40.78c-7.06-13.77-14.11-27.54-21.17-41.31c-1.07-1.85-2.11-3.71-3.14-5.58c-6.67-12.14-12.66-24.77-18.84-37.19
		l0,0l-13.46-25.7l8.17,9.64l9.38,11.06l0.43,0.51l0,0c5.74,6.83,11.41,13.71,17.04,20.62c11.17,13.74,22.14,27.66,32.88,41.74
		c12.49,16.38,24.97,33.55,29.91,53.55c3.82,15.47,2.76,32.25-3.85,46.74c-6.61,14.49-18.9,26.48-33.9,31.87
		c-14.01,5.03-29.15,3.92-43.64,1.93c-9.06-1.25-18.02-3.09-26.92-5.17l-0.04-0.01L304.24,428.06z"/>
	
		<linearGradient id="SVGID_00000104669194428530997250000006971648879205368735_" gradientUnits="userSpaceOnUse" x1="133.0867" y1="243.2688" x2="418.4211" y2="528.6032">
		<stop  offset="0.1475" style="stop-color:#1691FB"/>
		<stop  offset="0.3254" style="stop-color:#01ECFA"/>
	</linearGradient>
	<path style="fill:url(#SVGID_00000104669194428530997250000006971648879205368735_);" d="M176.96,301.65l0.08,0.08
		c2.41,2.32,4.73,4.73,6.97,7.22l12.72,13.18l-9.86,41.68c-2.75,14.32-4.18,29.64,3.84,41.47c8.18,12.06,24.3,16.63,38.77,14.96
		c14.47-1.67,27.77-8.49,40.7-15.2c13.73-7.12,27.47-14.24,41.21-21.36c1.84-1.07,3.7-2.13,5.57-3.17
		c12.11-6.73,24.71-12.78,37.1-19.02l0,0l25.64-13.59l-9.6,8.22l-11.02,9.43l-0.51,0.43l0,0c-6.8,5.77-13.65,11.48-20.54,17.14
		c-13.69,11.24-27.56,22.27-41.59,33.08c-16.32,12.57-33.43,25.13-53.41,30.16c-15.45,3.89-32.23,2.91-46.76-3.63
		c-14.52-6.54-26.57-18.78-32.03-33.74c-5.09-13.99-4.06-29.13-2.14-43.63c1.21-9.07,3-18.04,5.04-26.95l0.01-0.04L176.96,301.65z"
		/>
	
		<linearGradient id="SVGID_00000119084255543896849930000013275943330130536372_" gradientUnits="userSpaceOnUse" x1="253.1751" y1="298.9095" x2="398.7938" y2="298.9095">
		<stop  offset="0.2008" style="stop-color:#01ECFA"/>
		<stop  offset="0.5648" style="stop-color:#1691FB"/>
	</linearGradient>
	<circle style="fill:url(#SVGID_00000119084255543896849930000013275943330130536372_);" cx="303.13" cy="298.91" r="21.34"/>
</g>
<g>
	<g>
		<path class="st16" d="M59.51,503.61l-16.36-21.7h10.3l11.18,15.49l11.18-15.49h10.24l-16.3,21.7l16.01,21.23h-10.3l-10.83-14.96
			L53.8,524.85H43.5L59.51,503.61z"/>
		<path class="st16" d="M100.53,489.18v10.73h20.83v7.27h-20.83v10.38h23.48v7.27H92.35v-42.94h31.66v7.27H100.53z"/>
		<path class="st16" d="M152.5,488.83c-7.77,0-14.07,6.63-14.07,14.6c0,8.09,6.3,14.61,14.07,14.61c5.77,0,9.59-3.05,11.77-6.8
			l7.71,3.11c-3.18,6.69-10.24,11.32-19.48,11.32c-12.3,0-22.31-9.62-22.31-22.23c0-12.49,10.01-22.23,22.31-22.23
			c9.59,0,16.42,5.22,19.48,11.38l-7.71,3.11C162.09,491.82,157.92,488.83,152.5,488.83z"/>
		<path class="st16" d="M179.52,507.54v-25.63h8.24v25.63c0,8.62,6.42,10.85,10.24,10.85c3.83,0,10.24-2.23,10.24-10.85v-25.63h8.24
			v25.63c0,10.97-7.24,18.07-18.48,18.07C186.82,525.61,179.52,518.51,179.52,507.54z"/>
		<path class="st16" d="M235.25,511.18v13.67h-8.18v-42.94h19.54c8.77,0,14.83,6.1,14.83,14.78c0,6.45-3.53,12.26-8.95,13.73
			l10.77,14.43h-9.83l-10.01-13.67H235.25z M235.25,504.02h9.42c6.94,0,8.59-3.75,8.59-7.39c0-4.16-2.53-7.45-8.59-7.45h-9.42
			V504.02z"/>
		<path class="st16" d="M279.46,524.85h-8.24v-42.94h8.24V524.85z"/>
		<path class="st16" d="M320.6,489.18h-12.3v35.66h-8.24v-35.66H287.7v-7.27h32.9V489.18z"/>
		<path class="st16" d="M365.03,481.91l-16.42,26.69v16.25h-8.24V508.6l-16.3-26.69h9.59l10.83,18.24l10.95-18.24H365.03z"/>
		<path class="st17" d="M389.11,481.91c10.36,0,16.6,6.45,16.6,15.25c0,8.86-5.59,14.9-16.65,14.9h-9.59v12.79h-8.24v-42.94H389.11z
			 M389.58,504.79c4.94,0,7.89-3.4,7.89-7.63c0-4.34-3.06-7.98-8.18-7.98h-9.83v15.6H389.58z"/>
		<path class="st17" d="M412.29,507.54v-25.63h8.24v25.63c0,8.62,6.41,10.85,10.24,10.85s10.24-2.23,10.24-10.85v-25.63h8.24v25.63
			c0,10.97-7.24,18.07-18.48,18.07C419.59,525.61,412.29,518.51,412.29,507.54z"/>
		<path class="st17" d="M490.87,517.57v7.27h-31.02v-42.94h8.24v35.66H490.87z"/>
		<path class="st17" d="M498.46,512.94c2.94,2.35,9.18,5.16,14.18,5.16c6.18,0,8.24-2.46,8.24-5.1c0-4.05-4.65-4.99-9.77-5.98
			c-5.06-1-16.42-2.58-16.42-12.96c0-10.09,9.12-12.79,16.36-12.79c7.24,0,11.71,2.23,16.07,5.51l-4.53,6.22
			c-3.53-2.4-7.77-4.11-12.42-4.11c-3.24,0-7.24,1-7.24,4.34c0,3.93,5.47,4.99,10.01,5.92c5.18,1.06,16.18,1.88,16.18,13.37
			c0,8.86-6.65,13.14-16.36,13.14c-8.95,0-13.89-3.17-18.42-6.51L498.46,512.94z"/>
		<path class="st17" d="M545.37,489.18v10.73h20.83v7.27h-20.83v10.38h23.48v7.27h-31.66v-42.94h31.66v7.27H545.37z"/>
	</g>
	<g>
		<path class="st18" d="M169.5,623.06V591.4h3.57v12.2c1.86-2.52,4.62-4.04,7.77-4.04c6,0,10.24,4.75,10.24,12.06
			c0,7.45-4.24,12.01-10.24,12.01c-3.24,0-6.05-1.66-7.77-3.99v3.42H169.5z M173.07,616.84c1.24,1.99,4.05,3.61,6.86,3.61
			c4.67,0,7.43-3.75,7.43-8.83s-2.76-8.88-7.43-8.88c-2.81,0-5.62,1.71-6.86,3.7V616.84z"/>
		<path class="st18" d="M196.18,628.8c0.52,0.24,1.38,0.38,1.95,0.38c1.57,0,2.62-0.52,3.43-2.42l1.52-3.47l-9.62-23.17h3.86
			l7.67,18.8l7.62-18.8h3.91l-11.53,27.58c-1.38,3.32-3.72,4.6-6.76,4.65c-0.76,0-1.95-0.14-2.62-0.33L196.18,628.8z"/>
		<path class="st18" d="M240.54,623.06v-28.15h-10.05v-3.51h24.1v3.51h-10.1v28.15H240.54z"/>
		<path class="st18" d="M269.55,623.06v-2.61c-1.91,2.09-4.53,3.18-7.62,3.18c-3.91,0-8.05-2.61-8.05-7.59
			c0-5.13,4.14-7.55,8.05-7.55c3.14,0,5.76,1,7.62,3.13v-4.13c0-3.08-2.48-4.84-5.81-4.84c-2.76,0-5,1-7.05,3.18l-1.67-2.47
			c2.48-2.56,5.43-3.8,9.19-3.8c4.86,0,8.91,2.18,8.91,7.74v15.76H269.55z M269.55,613.9c-1.38-1.9-3.81-2.85-6.34-2.85
			c-3.33,0-5.67,2.09-5.67,5.03c0,2.9,2.33,4.98,5.67,4.98c2.52,0,4.95-0.95,6.34-2.85V613.9z"/>
		<path class="st18" d="M295.85,623.06v-15.1c0-4.04-2.1-5.22-5.19-5.22c-2.76,0-5.43,1.71-6.81,3.56v16.76h-3.57V591.4h3.57v12.06
			c1.62-1.9,4.76-3.89,8.24-3.89c4.81,0,7.34,2.33,7.34,7.31v16.19H295.85z"/>
		<path class="st18" d="M320.96,623.06v-2.61c-1.91,2.09-4.53,3.18-7.62,3.18c-3.91,0-8.05-2.61-8.05-7.59
			c0-5.13,4.14-7.55,8.05-7.55c3.14,0,5.77,1,7.62,3.13v-4.13c0-3.08-2.48-4.84-5.81-4.84c-2.76,0-5,1-7.05,3.18l-1.67-2.47
			c2.48-2.56,5.43-3.8,9.19-3.8c4.86,0,8.91,2.18,8.91,7.74v15.76H320.96z M320.96,613.9c-1.38-1.9-3.81-2.85-6.34-2.85
			c-3.34,0-5.67,2.09-5.67,5.03c0,2.9,2.33,4.98,5.67,4.98c2.53,0,4.95-0.95,6.34-2.85V613.9z"/>
		<path class="st18" d="M344.54,615.61c2.1,2.33,5.53,4.51,10,4.51c5.67,0,7.48-3.04,7.48-5.46c0-3.8-3.86-4.84-8.05-5.98
			c-5.1-1.33-10.77-2.75-10.77-8.97c0-5.22,4.67-8.78,10.91-8.78c4.86,0,8.62,1.61,11.29,4.42l-2.38,2.9
			c-2.38-2.61-5.72-3.8-9.2-3.8c-3.81,0-6.53,2.04-6.53,5.03c0,3.18,3.67,4.13,7.72,5.22c5.19,1.38,11.1,2.99,11.1,9.64
			c0,4.6-3.14,9.3-11.72,9.3c-5.53,0-9.57-2.09-12.2-5.03L344.54,615.61z"/>
		<path class="st18" d="M387.23,623.06v-2.61c-1.91,2.09-4.53,3.18-7.62,3.18c-3.91,0-8.05-2.61-8.05-7.59
			c0-5.13,4.14-7.55,8.05-7.55c3.14,0,5.76,1,7.62,3.13v-4.13c0-3.08-2.48-4.84-5.81-4.84c-2.76,0-5,1-7.05,3.18l-1.67-2.47
			c2.48-2.56,5.43-3.8,9.19-3.8c4.86,0,8.91,2.18,8.91,7.74v15.76H387.23z M387.23,613.9c-1.38-1.9-3.81-2.85-6.34-2.85
			c-3.33,0-5.67,2.09-5.67,5.03c0,2.9,2.33,4.98,5.67,4.98c2.53,0,4.96-0.95,6.34-2.85V613.9z"/>
		<path class="st18" d="M402.48,600.13v25.16c0,4.51-2.43,7.07-6.76,7.07c-1,0-1.81-0.09-2.57-0.33l0.48-2.99
			c0.48,0.19,1.14,0.24,1.71,0.24c2.1,0,3.57-1.09,3.57-3.99v-25.16H402.48z M398.28,593.87c0-1.33,1.1-2.37,2.38-2.37
			c1.33,0,2.43,1.04,2.43,2.37s-1.1,2.42-2.43,2.42C399.38,596.29,398.28,595.19,398.28,593.87z"/>
		<path class="st18" d="M409.96,593.87c0-1.33,1.1-2.37,2.38-2.37c1.33,0,2.43,1.04,2.43,2.37s-1.1,2.42-2.43,2.42
			C411.05,596.29,409.96,595.19,409.96,593.87z M410.58,623.06v-22.93h3.57v22.93H410.58z"/>
		<path class="st18" d="M438.92,623.06v-3.42c-1.71,2.33-4.53,3.99-7.77,3.99c-6,0-10.24-4.56-10.24-12.01
			c0-7.31,4.19-12.06,10.24-12.06c3.1,0,5.91,1.52,7.77,4.04v-12.2h3.57v31.66H438.92z M438.92,606.45c-1.29-1.99-4.05-3.7-6.91-3.7
			c-4.62,0-7.38,3.8-7.38,8.88s2.76,8.83,7.38,8.83c2.86,0,5.62-1.61,6.91-3.61V606.45z"/>
	</g>
</g>
</svg>
