<svg id="Layer_1" data-name="Layer 1" xmlns="http://www.w3.org/2000/svg" viewBox="0 0 816.4 437.7"><defs><style>.cls-1{fill:#a00c30;}.cls-2{fill:#cac8c8;}.cls-3{fill:#ca992c;}</style></defs><title>yaana_logo</title><path class="cls-1" d="M356.91,387l-39-55.93h34.86l29.26,42,29.45-42h17L389,387.29v42.47H356.91V387Zm39.2,42.72,47.34-98.66h27l47.25,98.66H484.25l-13.53-28.25H424.64l-13.56,28.25h-15Zm34.6-40.92h33.94l-16.95-35.4Zm87,40.92L565,331.1h27l47.25,98.66H605.82L592.3,401.51H546.21l-13.55,28.25h-15Zm34.61-40.92h33.94l-16.95-35.4Zm199,40.92,47.35-98.66h27l47.26,98.66H839.44l-13.53-28.25H779.82l-13.54,28.25h-15Zm34.6-40.92h33.93l-16.94-35.4ZM657.8,429.76V352.32l52.12,77.45h36.33V331.1H730.71v75.8l-51-75.8H642.25v98.66H657.8Z" transform="translate(-64.97 -46.33)"/><path class="cls-2" d="M859.29,341.05a11,11,0,0,1,.87-4.37,10.9,10.9,0,0,1,2.4-3.5,11.32,11.32,0,0,1,3.51-2.31,11.16,11.16,0,0,1,8.52,0,11.23,11.23,0,0,1,3.51,2.31,10.64,10.64,0,0,1,2.39,3.5,11.35,11.35,0,0,1,0,8.77,10.64,10.64,0,0,1-2.39,3.49,11.21,11.21,0,0,1-3.51,2.31,11.13,11.13,0,0,1-8.52,0,11.31,11.31,0,0,1-3.51-2.31A10.81,10.81,0,0,1,859.29,341.05Zm2,0a9.69,9.69,0,0,0,.72,3.74,9.4,9.4,0,0,0,1.92,3,9,9,0,0,0,2.88,2,8.85,8.85,0,0,0,3.56.73,8.73,8.73,0,0,0,3.55-.73,9.18,9.18,0,0,0,2.88-2,9.46,9.46,0,0,0,1.94-3,10.11,10.11,0,0,0,0-7.46,9.39,9.39,0,0,0-1.94-3,9.08,9.08,0,0,0-2.88-2,8.65,8.65,0,0,0-3.55-.73,8.77,8.77,0,0,0-3.56.73,9,9,0,0,0-2.88,2,9.33,9.33,0,0,0-1.92,3A9.72,9.72,0,0,0,861.24,341.05Zm4.87-6.47H871q4.51,0,4.52,3.68a3.16,3.16,0,0,1-1,2.57,4.37,4.37,0,0,1-2.44,1l3.71,5.7h-2.11l-3.5-5.55h-2.12v5.55h-2V334.59Zm2,5.76h2c0.43,0,.86,0,1.27,0a3.3,3.3,0,0,0,1.1-.25,1.72,1.72,0,0,0,.77-0.66,2.13,2.13,0,0,0,.3-1.21,1.86,1.86,0,0,0-.27-1.05,1.76,1.76,0,0,0-.68-0.61,2.78,2.78,0,0,0-.92-0.26,8.67,8.67,0,0,0-1-.06h-2.59v4.15Z" transform="translate(-64.97 -46.33)"/><path class="cls-1" d="M274.29,483.63c-49.91,4.95-91.62-36.76-115.61-78.91A138.67,138.67,0,0,1,147.41,379a104.58,104.58,0,0,1-5-27.32,88.19,88.19,0,0,1,.52-13.63,71,71,0,0,1,2.85-13,50.24,50.24,0,0,1,13-21.39,38.65,38.65,0,0,1,4.5-3.63l1.15-.79,0.56-.39c-0.26.19,0.45-.32,0.4-0.27l0.06,0,0.13-.06,0.25-.14,2-1.06,1-.51,0.51-.25,0.64-.27c0.85-.35,1.68-0.69,2.51-1a24.15,24.15,0,0,1,2.41-.85l2.27-.55a40.5,40.5,0,0,1,15.24-.58,34.32,34.32,0,0,1,5.34,1.09c0.76,0.21,1.46.38,2.09,0.58s1.2,0.42,1.71.61c2,0.77,3,1.21,3,1.21s-1.15.18-3.23,0.44l-1.73.2c-0.63.09-1.32,0.24-2.05,0.38l-2.34.43c-0.83.11-1.69,0.42-2.59,0.63a44.73,44.73,0,0,0-11.91,4.67l-1.55.87a12.64,12.64,0,0,0-1.37,1c-0.44.34-.9,0.65-1.34,1l-0.34.24-0.41.36-0.85.74-1.75,1.51-0.23.19-0.11.09,0,0a1.84,1.84,0,0,1,.27-0.19l-0.33.36-0.65.73a14.12,14.12,0,0,0-1.28,1.49c-0.4.53-.83,1-1.22,1.57a39.05,39.05,0,0,0-6.47,16.08,52.89,52.89,0,0,0-.83,9.9,82.43,82.43,0,0,0,.66,10.66c0.47,3.66,1.13,7.36,2,11.12,0.43,1.88.91,3.76,1.41,5.66l0.76,2.85,0.87,2.85c0.27,1,.61,1.9.92,2.86s0.6,1.91.94,2.87c0.69,1.89,1.34,3.82,2.13,5.71,20,42,47.79,90.68,99.15,99.26Z" transform="translate(-64.97 -46.33)"/><path class="cls-3" d="M184.83,284.93c49.91-5,91.62,36.76,115.61,78.92a139.24,139.24,0,0,1,11.27,25.71,104.55,104.55,0,0,1,5,27.32,88.31,88.31,0,0,1-.52,13.62,71.27,71.27,0,0,1-2.85,13,50.21,50.21,0,0,1-13,21.38,38.89,38.89,0,0,1-4.5,3.63l-1.15.79-0.57.4c0.27-.19-0.45.31-0.39,0.27l-0.06,0-0.13.07-0.25.14-2,1.05-1,.51-0.51.25-0.64.27c-0.85.35-1.68,0.7-2.51,1a24,24,0,0,1-2.42.84l-2.27.56a40.58,40.58,0,0,1-15.23.58,33.91,33.91,0,0,1-5.34-1.1c-0.76-.21-1.46-0.37-2.09-0.58s-1.19-.41-1.7-0.61c-2-.77-3.05-1.21-3.05-1.21s1.16-.17,3.23-0.45l1.73-.19c0.63-.08,1.31-0.24,2.05-0.38l2.34-.43c0.82-.11,1.68-0.42,2.58-0.63a44.76,44.76,0,0,0,11.91-4.68l1.55-.88a10.4,10.4,0,0,0,1.37-1c0.45-.34.9-0.65,1.35-1l0.34-.24,0.42-.35,0.85-.75,1.74-1.5,0.22-.19,0.11-.09,0.05,0a2.17,2.17,0,0,1-.27.19l0.32-.36,0.65-.72a14.41,14.41,0,0,0,1.27-1.5c0.4-.53.83-1,1.22-1.57A39,39,0,0,0,296,439a52.52,52.52,0,0,0,.83-9.91,80.4,80.4,0,0,0-.66-10.66c-0.47-3.65-1.13-7.35-2-11.13-0.43-1.87-.9-3.76-1.4-5.65L292,398.84,291.15,396c-0.28-1-.61-1.9-0.92-2.86s-0.6-1.92-.94-2.87c-0.69-1.9-1.34-3.82-2.12-5.71-20-42-47.8-90.67-99.16-99.26Z" transform="translate(-64.97 -46.33)"/><text x="-64.97" y="-46.33"/></svg>